%TF.GenerationSoftware,KiCad,Pcbnew,(5.1.10)-1*%
%TF.CreationDate,2021-09-02T18:22:41+02:00*%
%TF.ProjectId,T1,54312e6b-6963-4616-945f-706362585858,1.1*%
%TF.SameCoordinates,Original*%
%TF.FileFunction,Soldermask,Bot*%
%TF.FilePolarity,Negative*%
%FSLAX46Y46*%
G04 Gerber Fmt 4.6, Leading zero omitted, Abs format (unit mm)*
G04 Created by KiCad (PCBNEW (5.1.10)-1) date 2021-09-02 18:22:41*
%MOMM*%
%LPD*%
G01*
G04 APERTURE LIST*
%ADD10C,2.200000*%
%ADD11C,1.700000*%
%ADD12C,4.000000*%
%ADD13R,1.000000X1.000000*%
%ADD14O,1.000000X2.100000*%
%ADD15C,0.650000*%
%ADD16O,1.000000X1.600000*%
%ADD17C,0.100000*%
%ADD18C,1.000000*%
%ADD19C,1.900000*%
%ADD20R,0.900000X0.800000*%
G04 APERTURE END LIST*
%TO.C,C12*%
G36*
G01*
X161152000Y-112379999D02*
X161152000Y-113680001D01*
G75*
G02*
X160902001Y-113930000I-249999J0D01*
G01*
X160251999Y-113930000D01*
G75*
G02*
X160002000Y-113680001I0J249999D01*
G01*
X160002000Y-112379999D01*
G75*
G02*
X160251999Y-112130000I249999J0D01*
G01*
X160902001Y-112130000D01*
G75*
G02*
X161152000Y-112379999I0J-249999D01*
G01*
G37*
G36*
G01*
X164102000Y-112379999D02*
X164102000Y-113680001D01*
G75*
G02*
X163852001Y-113930000I-249999J0D01*
G01*
X163201999Y-113930000D01*
G75*
G02*
X162952000Y-113680001I0J249999D01*
G01*
X162952000Y-112379999D01*
G75*
G02*
X163201999Y-112130000I249999J0D01*
G01*
X163852001Y-112130000D01*
G75*
G02*
X164102000Y-112379999I0J-249999D01*
G01*
G37*
%TD*%
D10*
%TO.C,REF\u002A\u002A*%
X161163000Y-128778000D03*
%TD*%
%TO.C,REF\u002A\u002A*%
X138049000Y-128905000D03*
%TD*%
%TO.C,REF\u002A\u002A*%
X296862500Y-132556250D03*
%TD*%
%TO.C,REF\u002A\u002A*%
X296862500Y-43656250D03*
%TD*%
%TO.C,REF\u002A\u002A*%
X2381250Y-43656250D03*
%TD*%
%TO.C,REF\u002A\u002A*%
X2381250Y-132556250D03*
%TD*%
%TO.C,REF\u002A\u002A*%
X165195250Y-151130000D03*
%TD*%
%TO.C,REF\u002A\u002A*%
X134048500Y-151130000D03*
%TD*%
%TO.C,REF\u002A\u002A*%
X139890500Y-42799000D03*
%TD*%
%TO.C,REF\u002A\u002A*%
X159353250Y-42799000D03*
%TD*%
D11*
%TO.C,SW21*%
X99472750Y-46640750D03*
X89312750Y-46640750D03*
D12*
X94392750Y-46640750D03*
D10*
X90582750Y-44100750D03*
X96932750Y-41560750D03*
%TD*%
D13*
%TO.C,D+*%
X140525500Y-77343000D03*
%TD*%
%TO.C,D-*%
X140525500Y-80264000D03*
%TD*%
D11*
%TO.C,SW45*%
X190881000Y-86645750D03*
X180721000Y-86645750D03*
D12*
X185801000Y-86645750D03*
D10*
X181991000Y-84105750D03*
X188341000Y-81565750D03*
%TD*%
D11*
%TO.C,SW43*%
X190874650Y-48539400D03*
X180714650Y-48539400D03*
D12*
X185794650Y-48539400D03*
D10*
X181984650Y-45999400D03*
X188334650Y-43459400D03*
%TD*%
D11*
%TO.C,SW26*%
X118529100Y-48539400D03*
X108369100Y-48539400D03*
D12*
X113449100Y-48539400D03*
D10*
X109639100Y-45999400D03*
X115989100Y-43459400D03*
%TD*%
D11*
%TO.C,SW16*%
X80422750Y-43719750D03*
X70262750Y-43719750D03*
D12*
X75342750Y-43719750D03*
D10*
X71532750Y-41179750D03*
X77882750Y-38639750D03*
%TD*%
D11*
%TO.C,SW72*%
X290957000Y-126396750D03*
X280797000Y-126396750D03*
D12*
X285877000Y-126396750D03*
D10*
X282067000Y-123856750D03*
X288417000Y-121316750D03*
%TD*%
D11*
%TO.C,SW71*%
X290957000Y-107346750D03*
X280797000Y-107346750D03*
D12*
X285877000Y-107346750D03*
D10*
X282067000Y-104806750D03*
X288417000Y-102266750D03*
%TD*%
D11*
%TO.C,SW70*%
X290957000Y-88296750D03*
X280797000Y-88296750D03*
D12*
X285877000Y-88296750D03*
D10*
X282067000Y-85756750D03*
X288417000Y-83216750D03*
%TD*%
D11*
%TO.C,SW69*%
X290957000Y-69246750D03*
X280797000Y-69246750D03*
D12*
X285877000Y-69246750D03*
D10*
X282067000Y-66706750D03*
X288417000Y-64166750D03*
%TD*%
D11*
%TO.C,SW68*%
X290957000Y-50196750D03*
X280797000Y-50196750D03*
D12*
X285877000Y-50196750D03*
D10*
X282067000Y-47656750D03*
X288417000Y-45116750D03*
%TD*%
D11*
%TO.C,SW67*%
X267081000Y-126396750D03*
X256921000Y-126396750D03*
D12*
X262001000Y-126396750D03*
D10*
X258191000Y-123856750D03*
X264541000Y-121316750D03*
%TD*%
D11*
%TO.C,SW66*%
X267081000Y-107346750D03*
X256921000Y-107346750D03*
D12*
X262001000Y-107346750D03*
D10*
X258191000Y-104806750D03*
X264541000Y-102266750D03*
%TD*%
D11*
%TO.C,SW65*%
X267081000Y-88296750D03*
X256921000Y-88296750D03*
D12*
X262001000Y-88296750D03*
D10*
X258191000Y-85756750D03*
X264541000Y-83216750D03*
%TD*%
D11*
%TO.C,SW64*%
X267081000Y-69246750D03*
X256921000Y-69246750D03*
D12*
X262001000Y-69246750D03*
D10*
X258191000Y-66706750D03*
X264541000Y-64166750D03*
%TD*%
D11*
%TO.C,SW63*%
X267081000Y-50196750D03*
X256921000Y-50196750D03*
D12*
X262001000Y-50196750D03*
D10*
X258191000Y-47656750D03*
X264541000Y-45116750D03*
%TD*%
D11*
%TO.C,SW62*%
X248031000Y-122840750D03*
X237871000Y-122840750D03*
D12*
X242951000Y-122840750D03*
D10*
X239141000Y-120300750D03*
X245491000Y-117760750D03*
%TD*%
D11*
%TO.C,SW61*%
X248031000Y-103790750D03*
X237871000Y-103790750D03*
D12*
X242951000Y-103790750D03*
D10*
X239141000Y-101250750D03*
X245491000Y-98710750D03*
%TD*%
D11*
%TO.C,SW60*%
X248031000Y-84740750D03*
X237871000Y-84740750D03*
D12*
X242951000Y-84740750D03*
D10*
X239141000Y-82200750D03*
X245491000Y-79660750D03*
%TD*%
D11*
%TO.C,SW59*%
X248031000Y-65690750D03*
X237871000Y-65690750D03*
D12*
X242951000Y-65690750D03*
D10*
X239141000Y-63150750D03*
X245491000Y-60610750D03*
%TD*%
D11*
%TO.C,SW58*%
X248031000Y-46640750D03*
X237871000Y-46640750D03*
D12*
X242951000Y-46640750D03*
D10*
X239141000Y-44100750D03*
X245491000Y-41560750D03*
%TD*%
D11*
%TO.C,SW57*%
X228981000Y-119919750D03*
X218821000Y-119919750D03*
D12*
X223901000Y-119919750D03*
D10*
X220091000Y-117379750D03*
X226441000Y-114839750D03*
%TD*%
D11*
%TO.C,SW56*%
X228981000Y-100869750D03*
X218821000Y-100869750D03*
D12*
X223901000Y-100869750D03*
D10*
X220091000Y-98329750D03*
X226441000Y-95789750D03*
%TD*%
D11*
%TO.C,SW55*%
X228981000Y-81819750D03*
X218821000Y-81819750D03*
D12*
X223901000Y-81819750D03*
D10*
X220091000Y-79279750D03*
X226441000Y-76739750D03*
%TD*%
D11*
%TO.C,SW54*%
X228981000Y-62769750D03*
X218821000Y-62769750D03*
D12*
X223901000Y-62769750D03*
D10*
X220091000Y-60229750D03*
X226441000Y-57689750D03*
%TD*%
D11*
%TO.C,SW53*%
X228981000Y-43719750D03*
X218821000Y-43719750D03*
D12*
X223901000Y-43719750D03*
D10*
X220091000Y-41179750D03*
X226441000Y-38639750D03*
%TD*%
D11*
%TO.C,SW52*%
X209931000Y-122840750D03*
X199771000Y-122840750D03*
D12*
X204851000Y-122840750D03*
D10*
X201041000Y-120300750D03*
X207391000Y-117760750D03*
%TD*%
D11*
%TO.C,SW51*%
X209931000Y-103790750D03*
X199771000Y-103790750D03*
D12*
X204851000Y-103790750D03*
D10*
X201041000Y-101250750D03*
X207391000Y-98710750D03*
%TD*%
D11*
%TO.C,SW50*%
X209931000Y-84740750D03*
X199771000Y-84740750D03*
D12*
X204851000Y-84740750D03*
D10*
X201041000Y-82200750D03*
X207391000Y-79660750D03*
%TD*%
D11*
%TO.C,SW49*%
X209931000Y-65690750D03*
X199771000Y-65690750D03*
D12*
X204851000Y-65690750D03*
D10*
X201041000Y-63150750D03*
X207391000Y-60610750D03*
%TD*%
D11*
%TO.C,SW48*%
X209931000Y-46640750D03*
X199771000Y-46640750D03*
D12*
X204851000Y-46640750D03*
D10*
X201041000Y-44100750D03*
X207391000Y-41560750D03*
%TD*%
D11*
%TO.C,SW47*%
X186644410Y-125716159D03*
X177845591Y-130796159D03*
D12*
X182245000Y-128256159D03*
D10*
X177675444Y-127961455D03*
X181904705Y-122586750D03*
%TD*%
D11*
%TO.C,SW46*%
X190881000Y-105695750D03*
X180721000Y-105695750D03*
D12*
X185801000Y-105695750D03*
D10*
X181991000Y-103155750D03*
X188341000Y-100615750D03*
%TD*%
D11*
%TO.C,SW44*%
X190881000Y-67595750D03*
X180721000Y-67595750D03*
D12*
X185801000Y-67595750D03*
D10*
X181991000Y-65055750D03*
X188341000Y-62515750D03*
%TD*%
D11*
%TO.C,SW42*%
X168819103Y-137663647D03*
X161634898Y-144847852D03*
D12*
X165227000Y-141255750D03*
D10*
X160736872Y-142153775D03*
X163430949Y-135867596D03*
%TD*%
D11*
%TO.C,SW41*%
X171831000Y-107346750D03*
X161671000Y-107346750D03*
D12*
X166751000Y-107346750D03*
D10*
X162941000Y-104806750D03*
X169291000Y-102266750D03*
%TD*%
D11*
%TO.C,SW40*%
X171831000Y-88296750D03*
X161671000Y-88296750D03*
D12*
X166751000Y-88296750D03*
D10*
X162941000Y-85756750D03*
X169291000Y-83216750D03*
%TD*%
D11*
%TO.C,SW39*%
X171831000Y-69246750D03*
X161671000Y-69246750D03*
D12*
X166751000Y-69246750D03*
D10*
X162941000Y-66706750D03*
X169291000Y-64166750D03*
%TD*%
D11*
%TO.C,SW38*%
X171831000Y-50196750D03*
X161671000Y-50196750D03*
D12*
X166751000Y-50196750D03*
D10*
X162941000Y-47656750D03*
X169291000Y-45116750D03*
%TD*%
D14*
%TO.C,J1*%
X128236250Y-37261250D03*
X136876250Y-37261250D03*
D15*
X135446250Y-36731250D03*
D16*
X136876250Y-33081250D03*
D15*
X129666250Y-36731250D03*
D16*
X128236250Y-33081250D03*
%TD*%
D17*
%TO.C,U2*%
G36*
X196406548Y-81453060D02*
G01*
X196795456Y-81064152D01*
X197856116Y-82124812D01*
X197467208Y-82513720D01*
X196406548Y-81453060D01*
G37*
G36*
X196972233Y-80887374D02*
G01*
X197361141Y-80498466D01*
X198421801Y-81559126D01*
X198032893Y-81948034D01*
X196972233Y-80887374D01*
G37*
G36*
X197537918Y-80321689D02*
G01*
X197926826Y-79932781D01*
X198987486Y-80993441D01*
X198598578Y-81382349D01*
X197537918Y-80321689D01*
G37*
G36*
X198103604Y-79756004D02*
G01*
X198492512Y-79367096D01*
X199553172Y-80427756D01*
X199164264Y-80816664D01*
X198103604Y-79756004D01*
G37*
G36*
X198669289Y-79190318D02*
G01*
X199058197Y-78801410D01*
X200118857Y-79862070D01*
X199729949Y-80250978D01*
X198669289Y-79190318D01*
G37*
G36*
X199234975Y-78624633D02*
G01*
X199623883Y-78235725D01*
X200684543Y-79296385D01*
X200295635Y-79685293D01*
X199234975Y-78624633D01*
G37*
G36*
X199800660Y-78058947D02*
G01*
X200189568Y-77670039D01*
X201250228Y-78730699D01*
X200861320Y-79119607D01*
X199800660Y-78058947D01*
G37*
G36*
X200366346Y-77493262D02*
G01*
X200755254Y-77104354D01*
X201815914Y-78165014D01*
X201427006Y-78553922D01*
X200366346Y-77493262D01*
G37*
G36*
X200932031Y-76927576D02*
G01*
X201320939Y-76538668D01*
X202381599Y-77599328D01*
X201992691Y-77988236D01*
X200932031Y-76927576D01*
G37*
G36*
X201497716Y-76361891D02*
G01*
X201886624Y-75972983D01*
X202947284Y-77033643D01*
X202558376Y-77422551D01*
X201497716Y-76361891D01*
G37*
G36*
X202063402Y-75796206D02*
G01*
X202452310Y-75407298D01*
X203512970Y-76467958D01*
X203124062Y-76856866D01*
X202063402Y-75796206D01*
G37*
G36*
X202452310Y-74452702D02*
G01*
X202063402Y-74063794D01*
X203124062Y-73003134D01*
X203512970Y-73392042D01*
X202452310Y-74452702D01*
G37*
G36*
X201886624Y-73887017D02*
G01*
X201497716Y-73498109D01*
X202558376Y-72437449D01*
X202947284Y-72826357D01*
X201886624Y-73887017D01*
G37*
G36*
X201320939Y-73321332D02*
G01*
X200932031Y-72932424D01*
X201992691Y-71871764D01*
X202381599Y-72260672D01*
X201320939Y-73321332D01*
G37*
G36*
X200755254Y-72755646D02*
G01*
X200366346Y-72366738D01*
X201427006Y-71306078D01*
X201815914Y-71694986D01*
X200755254Y-72755646D01*
G37*
G36*
X200189568Y-72189961D02*
G01*
X199800660Y-71801053D01*
X200861320Y-70740393D01*
X201250228Y-71129301D01*
X200189568Y-72189961D01*
G37*
G36*
X199623883Y-71624275D02*
G01*
X199234975Y-71235367D01*
X200295635Y-70174707D01*
X200684543Y-70563615D01*
X199623883Y-71624275D01*
G37*
G36*
X199058197Y-71058590D02*
G01*
X198669289Y-70669682D01*
X199729949Y-69609022D01*
X200118857Y-69997930D01*
X199058197Y-71058590D01*
G37*
G36*
X198492512Y-70492904D02*
G01*
X198103604Y-70103996D01*
X199164264Y-69043336D01*
X199553172Y-69432244D01*
X198492512Y-70492904D01*
G37*
G36*
X197926826Y-69927219D02*
G01*
X197537918Y-69538311D01*
X198598578Y-68477651D01*
X198987486Y-68866559D01*
X197926826Y-69927219D01*
G37*
G36*
X197361141Y-69361534D02*
G01*
X196972233Y-68972626D01*
X198032893Y-67911966D01*
X198421801Y-68300874D01*
X197361141Y-69361534D01*
G37*
G36*
X196795456Y-68795848D02*
G01*
X196406548Y-68406940D01*
X197467208Y-67346280D01*
X197856116Y-67735188D01*
X196795456Y-68795848D01*
G37*
G36*
X194002384Y-67735188D02*
G01*
X194391292Y-67346280D01*
X195451952Y-68406940D01*
X195063044Y-68795848D01*
X194002384Y-67735188D01*
G37*
G36*
X193436699Y-68300874D02*
G01*
X193825607Y-67911966D01*
X194886267Y-68972626D01*
X194497359Y-69361534D01*
X193436699Y-68300874D01*
G37*
G36*
X192871014Y-68866559D02*
G01*
X193259922Y-68477651D01*
X194320582Y-69538311D01*
X193931674Y-69927219D01*
X192871014Y-68866559D01*
G37*
G36*
X192305328Y-69432244D02*
G01*
X192694236Y-69043336D01*
X193754896Y-70103996D01*
X193365988Y-70492904D01*
X192305328Y-69432244D01*
G37*
G36*
X191739643Y-69997930D02*
G01*
X192128551Y-69609022D01*
X193189211Y-70669682D01*
X192800303Y-71058590D01*
X191739643Y-69997930D01*
G37*
G36*
X191173957Y-70563615D02*
G01*
X191562865Y-70174707D01*
X192623525Y-71235367D01*
X192234617Y-71624275D01*
X191173957Y-70563615D01*
G37*
G36*
X190608272Y-71129301D02*
G01*
X190997180Y-70740393D01*
X192057840Y-71801053D01*
X191668932Y-72189961D01*
X190608272Y-71129301D01*
G37*
G36*
X190042586Y-71694986D02*
G01*
X190431494Y-71306078D01*
X191492154Y-72366738D01*
X191103246Y-72755646D01*
X190042586Y-71694986D01*
G37*
G36*
X189476901Y-72260672D02*
G01*
X189865809Y-71871764D01*
X190926469Y-72932424D01*
X190537561Y-73321332D01*
X189476901Y-72260672D01*
G37*
G36*
X188911216Y-72826357D02*
G01*
X189300124Y-72437449D01*
X190360784Y-73498109D01*
X189971876Y-73887017D01*
X188911216Y-72826357D01*
G37*
G36*
X188345530Y-73392042D02*
G01*
X188734438Y-73003134D01*
X189795098Y-74063794D01*
X189406190Y-74452702D01*
X188345530Y-73392042D01*
G37*
G36*
X188734438Y-76856866D02*
G01*
X188345530Y-76467958D01*
X189406190Y-75407298D01*
X189795098Y-75796206D01*
X188734438Y-76856866D01*
G37*
G36*
X189300124Y-77422551D02*
G01*
X188911216Y-77033643D01*
X189971876Y-75972983D01*
X190360784Y-76361891D01*
X189300124Y-77422551D01*
G37*
G36*
X189865809Y-77988236D02*
G01*
X189476901Y-77599328D01*
X190537561Y-76538668D01*
X190926469Y-76927576D01*
X189865809Y-77988236D01*
G37*
G36*
X190431494Y-78553922D02*
G01*
X190042586Y-78165014D01*
X191103246Y-77104354D01*
X191492154Y-77493262D01*
X190431494Y-78553922D01*
G37*
G36*
X190997180Y-79119607D02*
G01*
X190608272Y-78730699D01*
X191668932Y-77670039D01*
X192057840Y-78058947D01*
X190997180Y-79119607D01*
G37*
G36*
X191562865Y-79685293D02*
G01*
X191173957Y-79296385D01*
X192234617Y-78235725D01*
X192623525Y-78624633D01*
X191562865Y-79685293D01*
G37*
G36*
X192128551Y-80250978D02*
G01*
X191739643Y-79862070D01*
X192800303Y-78801410D01*
X193189211Y-79190318D01*
X192128551Y-80250978D01*
G37*
G36*
X192694236Y-80816664D02*
G01*
X192305328Y-80427756D01*
X193365988Y-79367096D01*
X193754896Y-79756004D01*
X192694236Y-80816664D01*
G37*
G36*
X193259922Y-81382349D02*
G01*
X192871014Y-80993441D01*
X193931674Y-79932781D01*
X194320582Y-80321689D01*
X193259922Y-81382349D01*
G37*
G36*
X193825607Y-81948034D02*
G01*
X193436699Y-81559126D01*
X194497359Y-80498466D01*
X194886267Y-80887374D01*
X193825607Y-81948034D01*
G37*
G36*
X194391292Y-82513720D02*
G01*
X194002384Y-82124812D01*
X195063044Y-81064152D01*
X195451952Y-81453060D01*
X194391292Y-82513720D01*
G37*
%TD*%
%TO.C,U1*%
G36*
X105061798Y-81961060D02*
G01*
X105450706Y-81572152D01*
X106511366Y-82632812D01*
X106122458Y-83021720D01*
X105061798Y-81961060D01*
G37*
G36*
X105627483Y-81395374D02*
G01*
X106016391Y-81006466D01*
X107077051Y-82067126D01*
X106688143Y-82456034D01*
X105627483Y-81395374D01*
G37*
G36*
X106193168Y-80829689D02*
G01*
X106582076Y-80440781D01*
X107642736Y-81501441D01*
X107253828Y-81890349D01*
X106193168Y-80829689D01*
G37*
G36*
X106758854Y-80264004D02*
G01*
X107147762Y-79875096D01*
X108208422Y-80935756D01*
X107819514Y-81324664D01*
X106758854Y-80264004D01*
G37*
G36*
X107324539Y-79698318D02*
G01*
X107713447Y-79309410D01*
X108774107Y-80370070D01*
X108385199Y-80758978D01*
X107324539Y-79698318D01*
G37*
G36*
X107890225Y-79132633D02*
G01*
X108279133Y-78743725D01*
X109339793Y-79804385D01*
X108950885Y-80193293D01*
X107890225Y-79132633D01*
G37*
G36*
X108455910Y-78566947D02*
G01*
X108844818Y-78178039D01*
X109905478Y-79238699D01*
X109516570Y-79627607D01*
X108455910Y-78566947D01*
G37*
G36*
X109021596Y-78001262D02*
G01*
X109410504Y-77612354D01*
X110471164Y-78673014D01*
X110082256Y-79061922D01*
X109021596Y-78001262D01*
G37*
G36*
X109587281Y-77435576D02*
G01*
X109976189Y-77046668D01*
X111036849Y-78107328D01*
X110647941Y-78496236D01*
X109587281Y-77435576D01*
G37*
G36*
X110152966Y-76869891D02*
G01*
X110541874Y-76480983D01*
X111602534Y-77541643D01*
X111213626Y-77930551D01*
X110152966Y-76869891D01*
G37*
G36*
X110718652Y-76304206D02*
G01*
X111107560Y-75915298D01*
X112168220Y-76975958D01*
X111779312Y-77364866D01*
X110718652Y-76304206D01*
G37*
G36*
X111107560Y-74960702D02*
G01*
X110718652Y-74571794D01*
X111779312Y-73511134D01*
X112168220Y-73900042D01*
X111107560Y-74960702D01*
G37*
G36*
X110541874Y-74395017D02*
G01*
X110152966Y-74006109D01*
X111213626Y-72945449D01*
X111602534Y-73334357D01*
X110541874Y-74395017D01*
G37*
G36*
X109976189Y-73829332D02*
G01*
X109587281Y-73440424D01*
X110647941Y-72379764D01*
X111036849Y-72768672D01*
X109976189Y-73829332D01*
G37*
G36*
X109410504Y-73263646D02*
G01*
X109021596Y-72874738D01*
X110082256Y-71814078D01*
X110471164Y-72202986D01*
X109410504Y-73263646D01*
G37*
G36*
X108844818Y-72697961D02*
G01*
X108455910Y-72309053D01*
X109516570Y-71248393D01*
X109905478Y-71637301D01*
X108844818Y-72697961D01*
G37*
G36*
X108279133Y-72132275D02*
G01*
X107890225Y-71743367D01*
X108950885Y-70682707D01*
X109339793Y-71071615D01*
X108279133Y-72132275D01*
G37*
G36*
X107713447Y-71566590D02*
G01*
X107324539Y-71177682D01*
X108385199Y-70117022D01*
X108774107Y-70505930D01*
X107713447Y-71566590D01*
G37*
G36*
X107147762Y-71000904D02*
G01*
X106758854Y-70611996D01*
X107819514Y-69551336D01*
X108208422Y-69940244D01*
X107147762Y-71000904D01*
G37*
G36*
X106582076Y-70435219D02*
G01*
X106193168Y-70046311D01*
X107253828Y-68985651D01*
X107642736Y-69374559D01*
X106582076Y-70435219D01*
G37*
G36*
X106016391Y-69869534D02*
G01*
X105627483Y-69480626D01*
X106688143Y-68419966D01*
X107077051Y-68808874D01*
X106016391Y-69869534D01*
G37*
G36*
X105450706Y-69303848D02*
G01*
X105061798Y-68914940D01*
X106122458Y-67854280D01*
X106511366Y-68243188D01*
X105450706Y-69303848D01*
G37*
G36*
X102657634Y-68243188D02*
G01*
X103046542Y-67854280D01*
X104107202Y-68914940D01*
X103718294Y-69303848D01*
X102657634Y-68243188D01*
G37*
G36*
X102091949Y-68808874D02*
G01*
X102480857Y-68419966D01*
X103541517Y-69480626D01*
X103152609Y-69869534D01*
X102091949Y-68808874D01*
G37*
G36*
X101526264Y-69374559D02*
G01*
X101915172Y-68985651D01*
X102975832Y-70046311D01*
X102586924Y-70435219D01*
X101526264Y-69374559D01*
G37*
G36*
X100960578Y-69940244D02*
G01*
X101349486Y-69551336D01*
X102410146Y-70611996D01*
X102021238Y-71000904D01*
X100960578Y-69940244D01*
G37*
G36*
X100394893Y-70505930D02*
G01*
X100783801Y-70117022D01*
X101844461Y-71177682D01*
X101455553Y-71566590D01*
X100394893Y-70505930D01*
G37*
G36*
X99829207Y-71071615D02*
G01*
X100218115Y-70682707D01*
X101278775Y-71743367D01*
X100889867Y-72132275D01*
X99829207Y-71071615D01*
G37*
G36*
X99263522Y-71637301D02*
G01*
X99652430Y-71248393D01*
X100713090Y-72309053D01*
X100324182Y-72697961D01*
X99263522Y-71637301D01*
G37*
G36*
X98697836Y-72202986D02*
G01*
X99086744Y-71814078D01*
X100147404Y-72874738D01*
X99758496Y-73263646D01*
X98697836Y-72202986D01*
G37*
G36*
X98132151Y-72768672D02*
G01*
X98521059Y-72379764D01*
X99581719Y-73440424D01*
X99192811Y-73829332D01*
X98132151Y-72768672D01*
G37*
G36*
X97566466Y-73334357D02*
G01*
X97955374Y-72945449D01*
X99016034Y-74006109D01*
X98627126Y-74395017D01*
X97566466Y-73334357D01*
G37*
G36*
X97000780Y-73900042D02*
G01*
X97389688Y-73511134D01*
X98450348Y-74571794D01*
X98061440Y-74960702D01*
X97000780Y-73900042D01*
G37*
G36*
X97389688Y-77364866D02*
G01*
X97000780Y-76975958D01*
X98061440Y-75915298D01*
X98450348Y-76304206D01*
X97389688Y-77364866D01*
G37*
G36*
X97955374Y-77930551D02*
G01*
X97566466Y-77541643D01*
X98627126Y-76480983D01*
X99016034Y-76869891D01*
X97955374Y-77930551D01*
G37*
G36*
X98521059Y-78496236D02*
G01*
X98132151Y-78107328D01*
X99192811Y-77046668D01*
X99581719Y-77435576D01*
X98521059Y-78496236D01*
G37*
G36*
X99086744Y-79061922D02*
G01*
X98697836Y-78673014D01*
X99758496Y-77612354D01*
X100147404Y-78001262D01*
X99086744Y-79061922D01*
G37*
G36*
X99652430Y-79627607D02*
G01*
X99263522Y-79238699D01*
X100324182Y-78178039D01*
X100713090Y-78566947D01*
X99652430Y-79627607D01*
G37*
G36*
X100218115Y-80193293D02*
G01*
X99829207Y-79804385D01*
X100889867Y-78743725D01*
X101278775Y-79132633D01*
X100218115Y-80193293D01*
G37*
G36*
X100783801Y-80758978D02*
G01*
X100394893Y-80370070D01*
X101455553Y-79309410D01*
X101844461Y-79698318D01*
X100783801Y-80758978D01*
G37*
G36*
X101349486Y-81324664D02*
G01*
X100960578Y-80935756D01*
X102021238Y-79875096D01*
X102410146Y-80264004D01*
X101349486Y-81324664D01*
G37*
G36*
X101915172Y-81890349D02*
G01*
X101526264Y-81501441D01*
X102586924Y-80440781D01*
X102975832Y-80829689D01*
X101915172Y-81890349D01*
G37*
G36*
X102480857Y-82456034D02*
G01*
X102091949Y-82067126D01*
X103152609Y-81006466D01*
X103541517Y-81395374D01*
X102480857Y-82456034D01*
G37*
G36*
X103046542Y-83021720D02*
G01*
X102657634Y-82632812D01*
X103718294Y-81572152D01*
X104107202Y-81961060D01*
X103046542Y-83021720D01*
G37*
%TD*%
D11*
%TO.C,SW35*%
X137554699Y-144865904D03*
X130370494Y-137681699D03*
D12*
X133962596Y-141273801D03*
D10*
X133064571Y-136783673D03*
X139350750Y-139477750D03*
%TD*%
D11*
%TO.C,SW34*%
X137572750Y-107346750D03*
X127412750Y-107346750D03*
D12*
X132492750Y-107346750D03*
D10*
X128682750Y-104806750D03*
X135032750Y-102266750D03*
%TD*%
D11*
%TO.C,SW33*%
X137572750Y-88296750D03*
X127412750Y-88296750D03*
D12*
X132492750Y-88296750D03*
D10*
X128682750Y-85756750D03*
X135032750Y-83216750D03*
%TD*%
D11*
%TO.C,SW32*%
X137572750Y-69246750D03*
X127412750Y-69246750D03*
D12*
X132492750Y-69246750D03*
D10*
X128682750Y-66706750D03*
X135032750Y-64166750D03*
%TD*%
D11*
%TO.C,SW31*%
X137572750Y-50196750D03*
X127412750Y-50196750D03*
D12*
X132492750Y-50196750D03*
D10*
X128682750Y-47656750D03*
X135032750Y-45116750D03*
%TD*%
D11*
%TO.C,SW30*%
X121398160Y-130841750D03*
X112599341Y-125761750D03*
D12*
X116998750Y-128301750D03*
D10*
X114969194Y-124197046D03*
X121738455Y-125172341D03*
%TD*%
D11*
%TO.C,SW29*%
X118522750Y-105695750D03*
X108362750Y-105695750D03*
D12*
X113442750Y-105695750D03*
D10*
X109632750Y-103155750D03*
X115982750Y-100615750D03*
%TD*%
D11*
%TO.C,SW28*%
X118522750Y-86645750D03*
X108362750Y-86645750D03*
D12*
X113442750Y-86645750D03*
D10*
X109632750Y-84105750D03*
X115982750Y-81565750D03*
%TD*%
D11*
%TO.C,SW27*%
X118522750Y-67595750D03*
X108362750Y-67595750D03*
D12*
X113442750Y-67595750D03*
D10*
X109632750Y-65055750D03*
X115982750Y-62515750D03*
%TD*%
D11*
%TO.C,SW25*%
X99472750Y-122840750D03*
X89312750Y-122840750D03*
D12*
X94392750Y-122840750D03*
D10*
X90582750Y-120300750D03*
X96932750Y-117760750D03*
%TD*%
D11*
%TO.C,SW24*%
X99472750Y-103790750D03*
X89312750Y-103790750D03*
D12*
X94392750Y-103790750D03*
D10*
X90582750Y-101250750D03*
X96932750Y-98710750D03*
%TD*%
D11*
%TO.C,SW23*%
X99472750Y-84740750D03*
X89312750Y-84740750D03*
D12*
X94392750Y-84740750D03*
D10*
X90582750Y-82200750D03*
X96932750Y-79660750D03*
%TD*%
D11*
%TO.C,SW22*%
X99472750Y-65690750D03*
X89312750Y-65690750D03*
D12*
X94392750Y-65690750D03*
D10*
X90582750Y-63150750D03*
X96932750Y-60610750D03*
%TD*%
D11*
%TO.C,SW20*%
X80422750Y-119919750D03*
X70262750Y-119919750D03*
D12*
X75342750Y-119919750D03*
D10*
X71532750Y-117379750D03*
X77882750Y-114839750D03*
%TD*%
D11*
%TO.C,SW19*%
X80422750Y-100869750D03*
X70262750Y-100869750D03*
D12*
X75342750Y-100869750D03*
D10*
X71532750Y-98329750D03*
X77882750Y-95789750D03*
%TD*%
D11*
%TO.C,SW18*%
X80422750Y-81819750D03*
X70262750Y-81819750D03*
D12*
X75342750Y-81819750D03*
D10*
X71532750Y-79279750D03*
X77882750Y-76739750D03*
%TD*%
D11*
%TO.C,SW17*%
X80422750Y-62769750D03*
X70262750Y-62769750D03*
D12*
X75342750Y-62769750D03*
D10*
X71532750Y-60229750D03*
X77882750Y-57689750D03*
%TD*%
D11*
%TO.C,SW15*%
X61372750Y-122840750D03*
X51212750Y-122840750D03*
D12*
X56292750Y-122840750D03*
D10*
X52482750Y-120300750D03*
X58832750Y-117760750D03*
%TD*%
D11*
%TO.C,SW14*%
X61372750Y-103790750D03*
X51212750Y-103790750D03*
D12*
X56292750Y-103790750D03*
D10*
X52482750Y-101250750D03*
X58832750Y-98710750D03*
%TD*%
D11*
%TO.C,SW13*%
X61372750Y-84740750D03*
X51212750Y-84740750D03*
D12*
X56292750Y-84740750D03*
D10*
X52482750Y-82200750D03*
X58832750Y-79660750D03*
%TD*%
D11*
%TO.C,SW12*%
X61372750Y-65690750D03*
X51212750Y-65690750D03*
D12*
X56292750Y-65690750D03*
D10*
X52482750Y-63150750D03*
X58832750Y-60610750D03*
%TD*%
D11*
%TO.C,SW11*%
X61372750Y-46640750D03*
X51212750Y-46640750D03*
D12*
X56292750Y-46640750D03*
D10*
X52482750Y-44100750D03*
X58832750Y-41560750D03*
%TD*%
D11*
%TO.C,SW10*%
X42322750Y-126396750D03*
X32162750Y-126396750D03*
D12*
X37242750Y-126396750D03*
D10*
X33432750Y-123856750D03*
X39782750Y-121316750D03*
%TD*%
D11*
%TO.C,SW9*%
X42322750Y-107346750D03*
X32162750Y-107346750D03*
D12*
X37242750Y-107346750D03*
D10*
X33432750Y-104806750D03*
X39782750Y-102266750D03*
%TD*%
D11*
%TO.C,SW8*%
X42322750Y-88296750D03*
X32162750Y-88296750D03*
D12*
X37242750Y-88296750D03*
D10*
X33432750Y-85756750D03*
X39782750Y-83216750D03*
%TD*%
D11*
%TO.C,SW7*%
X42322750Y-69246750D03*
X32162750Y-69246750D03*
D12*
X37242750Y-69246750D03*
D10*
X33432750Y-66706750D03*
X39782750Y-64166750D03*
%TD*%
D11*
%TO.C,SW6*%
X42322750Y-50196750D03*
X32162750Y-50196750D03*
D12*
X37242750Y-50196750D03*
D10*
X33432750Y-47656750D03*
X39782750Y-45116750D03*
%TD*%
D11*
%TO.C,SW5*%
X18446750Y-126396750D03*
X8286750Y-126396750D03*
D12*
X13366750Y-126396750D03*
D10*
X9556750Y-123856750D03*
X15906750Y-121316750D03*
%TD*%
D11*
%TO.C,SW4*%
X18446750Y-107346750D03*
X8286750Y-107346750D03*
D12*
X13366750Y-107346750D03*
D10*
X9556750Y-104806750D03*
X15906750Y-102266750D03*
%TD*%
D11*
%TO.C,SW3*%
X18446750Y-88296750D03*
X8286750Y-88296750D03*
D12*
X13366750Y-88296750D03*
D10*
X9556750Y-85756750D03*
X15906750Y-83216750D03*
%TD*%
D11*
%TO.C,SW2*%
X18446750Y-69246750D03*
X8286750Y-69246750D03*
D12*
X13366750Y-69246750D03*
D10*
X9556750Y-66706750D03*
X15906750Y-64166750D03*
%TD*%
D11*
%TO.C,SW1*%
X18446750Y-50196750D03*
X8286750Y-50196750D03*
D12*
X13366750Y-50196750D03*
D10*
X9556750Y-47656750D03*
X15906750Y-45116750D03*
%TD*%
%TO.C,R8*%
G36*
G01*
X130470747Y-34396250D02*
X131720753Y-34396250D01*
G75*
G02*
X131970750Y-34646247I0J-249997D01*
G01*
X131970750Y-35271253D01*
G75*
G02*
X131720753Y-35521250I-249997J0D01*
G01*
X130470747Y-35521250D01*
G75*
G02*
X130220750Y-35271253I0J249997D01*
G01*
X130220750Y-34646247D01*
G75*
G02*
X130470747Y-34396250I249997J0D01*
G01*
G37*
G36*
G01*
X130470747Y-31471250D02*
X131720753Y-31471250D01*
G75*
G02*
X131970750Y-31721247I0J-249997D01*
G01*
X131970750Y-32346253D01*
G75*
G02*
X131720753Y-32596250I-249997J0D01*
G01*
X130470747Y-32596250D01*
G75*
G02*
X130220750Y-32346253I0J249997D01*
G01*
X130220750Y-31721247D01*
G75*
G02*
X130470747Y-31471250I249997J0D01*
G01*
G37*
%TD*%
%TO.C,R7*%
G36*
G01*
X133201247Y-34396250D02*
X134451253Y-34396250D01*
G75*
G02*
X134701250Y-34646247I0J-249997D01*
G01*
X134701250Y-35271253D01*
G75*
G02*
X134451253Y-35521250I-249997J0D01*
G01*
X133201247Y-35521250D01*
G75*
G02*
X132951250Y-35271253I0J249997D01*
G01*
X132951250Y-34646247D01*
G75*
G02*
X133201247Y-34396250I249997J0D01*
G01*
G37*
G36*
G01*
X133201247Y-31471250D02*
X134451253Y-31471250D01*
G75*
G02*
X134701250Y-31721247I0J-249997D01*
G01*
X134701250Y-32346253D01*
G75*
G02*
X134451253Y-32596250I-249997J0D01*
G01*
X133201247Y-32596250D01*
G75*
G02*
X132951250Y-32346253I0J249997D01*
G01*
X132951250Y-31721247D01*
G75*
G02*
X133201247Y-31471250I249997J0D01*
G01*
G37*
%TD*%
%TO.C,R6*%
G36*
G01*
X216133250Y-73015003D02*
X216133250Y-71764997D01*
G75*
G02*
X216383247Y-71515000I249997J0D01*
G01*
X217008253Y-71515000D01*
G75*
G02*
X217258250Y-71764997I0J-249997D01*
G01*
X217258250Y-73015003D01*
G75*
G02*
X217008253Y-73265000I-249997J0D01*
G01*
X216383247Y-73265000D01*
G75*
G02*
X216133250Y-73015003I0J249997D01*
G01*
G37*
G36*
G01*
X213208250Y-73015003D02*
X213208250Y-71764997D01*
G75*
G02*
X213458247Y-71515000I249997J0D01*
G01*
X214083253Y-71515000D01*
G75*
G02*
X214333250Y-71764997I0J-249997D01*
G01*
X214333250Y-73015003D01*
G75*
G02*
X214083253Y-73265000I-249997J0D01*
G01*
X213458247Y-73265000D01*
G75*
G02*
X213208250Y-73015003I0J249997D01*
G01*
G37*
%TD*%
%TO.C,R5*%
G36*
G01*
X176869253Y-55107000D02*
X175619247Y-55107000D01*
G75*
G02*
X175369250Y-54857003I0J249997D01*
G01*
X175369250Y-54231997D01*
G75*
G02*
X175619247Y-53982000I249997J0D01*
G01*
X176869253Y-53982000D01*
G75*
G02*
X177119250Y-54231997I0J-249997D01*
G01*
X177119250Y-54857003D01*
G75*
G02*
X176869253Y-55107000I-249997J0D01*
G01*
G37*
G36*
G01*
X176869253Y-58032000D02*
X175619247Y-58032000D01*
G75*
G02*
X175369250Y-57782003I0J249997D01*
G01*
X175369250Y-57156997D01*
G75*
G02*
X175619247Y-56907000I249997J0D01*
G01*
X176869253Y-56907000D01*
G75*
G02*
X177119250Y-57156997I0J-249997D01*
G01*
X177119250Y-57782003D01*
G75*
G02*
X176869253Y-58032000I-249997J0D01*
G01*
G37*
%TD*%
%TO.C,R4*%
G36*
G01*
X123136497Y-73671000D02*
X124386503Y-73671000D01*
G75*
G02*
X124636500Y-73920997I0J-249997D01*
G01*
X124636500Y-74546003D01*
G75*
G02*
X124386503Y-74796000I-249997J0D01*
G01*
X123136497Y-74796000D01*
G75*
G02*
X122886500Y-74546003I0J249997D01*
G01*
X122886500Y-73920997D01*
G75*
G02*
X123136497Y-73671000I249997J0D01*
G01*
G37*
G36*
G01*
X123136497Y-70746000D02*
X124386503Y-70746000D01*
G75*
G02*
X124636500Y-70995997I0J-249997D01*
G01*
X124636500Y-71621003D01*
G75*
G02*
X124386503Y-71871000I-249997J0D01*
G01*
X123136497Y-71871000D01*
G75*
G02*
X122886500Y-71621003I0J249997D01*
G01*
X122886500Y-70995997D01*
G75*
G02*
X123136497Y-70746000I249997J0D01*
G01*
G37*
%TD*%
%TO.C,R3*%
G36*
G01*
X134799500Y-73415997D02*
X134799500Y-74666003D01*
G75*
G02*
X134549503Y-74916000I-249997J0D01*
G01*
X133924497Y-74916000D01*
G75*
G02*
X133674500Y-74666003I0J249997D01*
G01*
X133674500Y-73415997D01*
G75*
G02*
X133924497Y-73166000I249997J0D01*
G01*
X134549503Y-73166000D01*
G75*
G02*
X134799500Y-73415997I0J-249997D01*
G01*
G37*
G36*
G01*
X137724500Y-73415997D02*
X137724500Y-74666003D01*
G75*
G02*
X137474503Y-74916000I-249997J0D01*
G01*
X136849497Y-74916000D01*
G75*
G02*
X136599500Y-74666003I0J249997D01*
G01*
X136599500Y-73415997D01*
G75*
G02*
X136849497Y-73166000I249997J0D01*
G01*
X137474503Y-73166000D01*
G75*
G02*
X137724500Y-73415997I0J-249997D01*
G01*
G37*
%TD*%
%TO.C,R2*%
G36*
G01*
X134799500Y-76844997D02*
X134799500Y-78095003D01*
G75*
G02*
X134549503Y-78345000I-249997J0D01*
G01*
X133924497Y-78345000D01*
G75*
G02*
X133674500Y-78095003I0J249997D01*
G01*
X133674500Y-76844997D01*
G75*
G02*
X133924497Y-76595000I249997J0D01*
G01*
X134549503Y-76595000D01*
G75*
G02*
X134799500Y-76844997I0J-249997D01*
G01*
G37*
G36*
G01*
X137724500Y-76844997D02*
X137724500Y-78095003D01*
G75*
G02*
X137474503Y-78345000I-249997J0D01*
G01*
X136849497Y-78345000D01*
G75*
G02*
X136599500Y-78095003I0J249997D01*
G01*
X136599500Y-76844997D01*
G75*
G02*
X136849497Y-76595000I249997J0D01*
G01*
X137474503Y-76595000D01*
G75*
G02*
X137724500Y-76844997I0J-249997D01*
G01*
G37*
%TD*%
%TO.C,R1*%
G36*
G01*
X93144503Y-75808000D02*
X91894497Y-75808000D01*
G75*
G02*
X91644500Y-75558003I0J249997D01*
G01*
X91644500Y-74932997D01*
G75*
G02*
X91894497Y-74683000I249997J0D01*
G01*
X93144503Y-74683000D01*
G75*
G02*
X93394500Y-74932997I0J-249997D01*
G01*
X93394500Y-75558003D01*
G75*
G02*
X93144503Y-75808000I-249997J0D01*
G01*
G37*
G36*
G01*
X93144503Y-78733000D02*
X91894497Y-78733000D01*
G75*
G02*
X91644500Y-78483003I0J249997D01*
G01*
X91644500Y-77857997D01*
G75*
G02*
X91894497Y-77608000I249997J0D01*
G01*
X93144503Y-77608000D01*
G75*
G02*
X93394500Y-77857997I0J-249997D01*
G01*
X93394500Y-78483003D01*
G75*
G02*
X93144503Y-78733000I-249997J0D01*
G01*
G37*
%TD*%
D18*
%TO.C,J3*%
X164245777Y-120273101D03*
X163377536Y-125197140D03*
D19*
X167360179Y-125645531D03*
D17*
G36*
X167041063Y-121984498D02*
G01*
X167370994Y-120113363D01*
X169242129Y-120443294D01*
X168912198Y-122314429D01*
X167041063Y-121984498D01*
G37*
D19*
X159861250Y-124983294D03*
X160868409Y-119271409D03*
%TD*%
D18*
%TO.C,J2*%
X135830601Y-125324140D03*
X134962360Y-120400101D03*
D19*
X131066541Y-121340896D03*
D17*
G36*
X132618560Y-124671998D02*
G01*
X132948491Y-126543133D01*
X131077356Y-126873064D01*
X130747425Y-125001929D01*
X132618560Y-124671998D01*
G37*
D19*
X138339728Y-119398409D03*
X139346887Y-125110294D03*
%TD*%
%TO.C,C11*%
G36*
G01*
X177144250Y-74056001D02*
X177144250Y-72755999D01*
G75*
G02*
X177394249Y-72506000I249999J0D01*
G01*
X178044251Y-72506000D01*
G75*
G02*
X178294250Y-72755999I0J-249999D01*
G01*
X178294250Y-74056001D01*
G75*
G02*
X178044251Y-74306000I-249999J0D01*
G01*
X177394249Y-74306000D01*
G75*
G02*
X177144250Y-74056001I0J249999D01*
G01*
G37*
G36*
G01*
X174194250Y-74056001D02*
X174194250Y-72755999D01*
G75*
G02*
X174444249Y-72506000I249999J0D01*
G01*
X175094251Y-72506000D01*
G75*
G02*
X175344250Y-72755999I0J-249999D01*
G01*
X175344250Y-74056001D01*
G75*
G02*
X175094251Y-74306000I-249999J0D01*
G01*
X174444249Y-74306000D01*
G75*
G02*
X174194250Y-74056001I0J249999D01*
G01*
G37*
%TD*%
%TO.C,C10*%
G36*
G01*
X190453249Y-57669000D02*
X191753251Y-57669000D01*
G75*
G02*
X192003250Y-57918999I0J-249999D01*
G01*
X192003250Y-58569001D01*
G75*
G02*
X191753251Y-58819000I-249999J0D01*
G01*
X190453249Y-58819000D01*
G75*
G02*
X190203250Y-58569001I0J249999D01*
G01*
X190203250Y-57918999D01*
G75*
G02*
X190453249Y-57669000I249999J0D01*
G01*
G37*
G36*
G01*
X190453249Y-54719000D02*
X191753251Y-54719000D01*
G75*
G02*
X192003250Y-54968999I0J-249999D01*
G01*
X192003250Y-55619001D01*
G75*
G02*
X191753251Y-55869000I-249999J0D01*
G01*
X190453249Y-55869000D01*
G75*
G02*
X190203250Y-55619001I0J249999D01*
G01*
X190203250Y-54968999D01*
G75*
G02*
X190453249Y-54719000I249999J0D01*
G01*
G37*
%TD*%
%TO.C,C9*%
G36*
G01*
X198738251Y-55947000D02*
X197438249Y-55947000D01*
G75*
G02*
X197188250Y-55697001I0J249999D01*
G01*
X197188250Y-55046999D01*
G75*
G02*
X197438249Y-54797000I249999J0D01*
G01*
X198738251Y-54797000D01*
G75*
G02*
X198988250Y-55046999I0J-249999D01*
G01*
X198988250Y-55697001D01*
G75*
G02*
X198738251Y-55947000I-249999J0D01*
G01*
G37*
G36*
G01*
X198738251Y-58897000D02*
X197438249Y-58897000D01*
G75*
G02*
X197188250Y-58647001I0J249999D01*
G01*
X197188250Y-57996999D01*
G75*
G02*
X197438249Y-57747000I249999J0D01*
G01*
X198738251Y-57747000D01*
G75*
G02*
X198988250Y-57996999I0J-249999D01*
G01*
X198988250Y-58647001D01*
G75*
G02*
X198738251Y-58897000I-249999J0D01*
G01*
G37*
%TD*%
%TO.C,C8*%
G36*
G01*
X97806517Y-89739224D02*
X96887276Y-88819983D01*
G75*
G02*
X96887276Y-88466431I176776J176776D01*
G01*
X97346897Y-88006810D01*
G75*
G02*
X97700449Y-88006810I176776J-176776D01*
G01*
X98619690Y-88926051D01*
G75*
G02*
X98619690Y-89279603I-176776J-176776D01*
G01*
X98160069Y-89739224D01*
G75*
G02*
X97806517Y-89739224I-176776J176776D01*
G01*
G37*
G36*
G01*
X95720551Y-91825190D02*
X94801310Y-90905949D01*
G75*
G02*
X94801310Y-90552397I176776J176776D01*
G01*
X95260931Y-90092776D01*
G75*
G02*
X95614483Y-90092776I176776J-176776D01*
G01*
X96533724Y-91012017D01*
G75*
G02*
X96533724Y-91365569I-176776J-176776D01*
G01*
X96074103Y-91825190D01*
G75*
G02*
X95720551Y-91825190I-176776J176776D01*
G01*
G37*
%TD*%
%TO.C,C7*%
G36*
G01*
X85777500Y-76946999D02*
X85777500Y-78247001D01*
G75*
G02*
X85527501Y-78497000I-249999J0D01*
G01*
X84877499Y-78497000D01*
G75*
G02*
X84627500Y-78247001I0J249999D01*
G01*
X84627500Y-76946999D01*
G75*
G02*
X84877499Y-76697000I249999J0D01*
G01*
X85527501Y-76697000D01*
G75*
G02*
X85777500Y-76946999I0J-249999D01*
G01*
G37*
G36*
G01*
X88727500Y-76946999D02*
X88727500Y-78247001D01*
G75*
G02*
X88477501Y-78497000I-249999J0D01*
G01*
X87827499Y-78497000D01*
G75*
G02*
X87577500Y-78247001I0J249999D01*
G01*
X87577500Y-76946999D01*
G75*
G02*
X87827499Y-76697000I249999J0D01*
G01*
X88477501Y-76697000D01*
G75*
G02*
X88727500Y-76946999I0J-249999D01*
G01*
G37*
%TD*%
%TO.C,C6*%
G36*
G01*
X87626500Y-71516001D02*
X87626500Y-70215999D01*
G75*
G02*
X87876499Y-69966000I249999J0D01*
G01*
X88526501Y-69966000D01*
G75*
G02*
X88776500Y-70215999I0J-249999D01*
G01*
X88776500Y-71516001D01*
G75*
G02*
X88526501Y-71766000I-249999J0D01*
G01*
X87876499Y-71766000D01*
G75*
G02*
X87626500Y-71516001I0J249999D01*
G01*
G37*
G36*
G01*
X84676500Y-71516001D02*
X84676500Y-70215999D01*
G75*
G02*
X84926499Y-69966000I249999J0D01*
G01*
X85576501Y-69966000D01*
G75*
G02*
X85826500Y-70215999I0J-249999D01*
G01*
X85826500Y-71516001D01*
G75*
G02*
X85576501Y-71766000I-249999J0D01*
G01*
X84926499Y-71766000D01*
G75*
G02*
X84676500Y-71516001I0J249999D01*
G01*
G37*
%TD*%
%TO.C,C5*%
G36*
G01*
X136446499Y-58748500D02*
X137746501Y-58748500D01*
G75*
G02*
X137996500Y-58998499I0J-249999D01*
G01*
X137996500Y-59648501D01*
G75*
G02*
X137746501Y-59898500I-249999J0D01*
G01*
X136446499Y-59898500D01*
G75*
G02*
X136196500Y-59648501I0J249999D01*
G01*
X136196500Y-58998499D01*
G75*
G02*
X136446499Y-58748500I249999J0D01*
G01*
G37*
G36*
G01*
X136446499Y-55798500D02*
X137746501Y-55798500D01*
G75*
G02*
X137996500Y-56048499I0J-249999D01*
G01*
X137996500Y-56698501D01*
G75*
G02*
X137746501Y-56948500I-249999J0D01*
G01*
X136446499Y-56948500D01*
G75*
G02*
X136196500Y-56698501I0J249999D01*
G01*
X136196500Y-56048499D01*
G75*
G02*
X136446499Y-55798500I249999J0D01*
G01*
G37*
%TD*%
%TO.C,C4*%
G36*
G01*
X133525499Y-58763000D02*
X134825501Y-58763000D01*
G75*
G02*
X135075500Y-59012999I0J-249999D01*
G01*
X135075500Y-59663001D01*
G75*
G02*
X134825501Y-59913000I-249999J0D01*
G01*
X133525499Y-59913000D01*
G75*
G02*
X133275500Y-59663001I0J249999D01*
G01*
X133275500Y-59012999D01*
G75*
G02*
X133525499Y-58763000I249999J0D01*
G01*
G37*
G36*
G01*
X133525499Y-55813000D02*
X134825501Y-55813000D01*
G75*
G02*
X135075500Y-56062999I0J-249999D01*
G01*
X135075500Y-56713001D01*
G75*
G02*
X134825501Y-56963000I-249999J0D01*
G01*
X133525499Y-56963000D01*
G75*
G02*
X133275500Y-56713001I0J249999D01*
G01*
X133275500Y-56062999D01*
G75*
G02*
X133525499Y-55813000I249999J0D01*
G01*
G37*
%TD*%
%TO.C,C3*%
G36*
G01*
X130794999Y-58748500D02*
X132095001Y-58748500D01*
G75*
G02*
X132345000Y-58998499I0J-249999D01*
G01*
X132345000Y-59648501D01*
G75*
G02*
X132095001Y-59898500I-249999J0D01*
G01*
X130794999Y-59898500D01*
G75*
G02*
X130545000Y-59648501I0J249999D01*
G01*
X130545000Y-58998499D01*
G75*
G02*
X130794999Y-58748500I249999J0D01*
G01*
G37*
G36*
G01*
X130794999Y-55798500D02*
X132095001Y-55798500D01*
G75*
G02*
X132345000Y-56048499I0J-249999D01*
G01*
X132345000Y-56698501D01*
G75*
G02*
X132095001Y-56948500I-249999J0D01*
G01*
X130794999Y-56948500D01*
G75*
G02*
X130545000Y-56698501I0J249999D01*
G01*
X130545000Y-56048499D01*
G75*
G02*
X130794999Y-55798500I249999J0D01*
G01*
G37*
%TD*%
%TO.C,C2*%
G36*
G01*
X128032749Y-58748500D02*
X129332751Y-58748500D01*
G75*
G02*
X129582750Y-58998499I0J-249999D01*
G01*
X129582750Y-59648501D01*
G75*
G02*
X129332751Y-59898500I-249999J0D01*
G01*
X128032749Y-59898500D01*
G75*
G02*
X127782750Y-59648501I0J249999D01*
G01*
X127782750Y-58998499D01*
G75*
G02*
X128032749Y-58748500I249999J0D01*
G01*
G37*
G36*
G01*
X128032749Y-55798500D02*
X129332751Y-55798500D01*
G75*
G02*
X129582750Y-56048499I0J-249999D01*
G01*
X129582750Y-56698501D01*
G75*
G02*
X129332751Y-56948500I-249999J0D01*
G01*
X128032749Y-56948500D01*
G75*
G02*
X127782750Y-56698501I0J249999D01*
G01*
X127782750Y-56048499D01*
G75*
G02*
X128032749Y-55798500I249999J0D01*
G01*
G37*
%TD*%
%TO.C,C1*%
G36*
G01*
X125270499Y-58763000D02*
X126570501Y-58763000D01*
G75*
G02*
X126820500Y-59012999I0J-249999D01*
G01*
X126820500Y-59663001D01*
G75*
G02*
X126570501Y-59913000I-249999J0D01*
G01*
X125270499Y-59913000D01*
G75*
G02*
X125020500Y-59663001I0J249999D01*
G01*
X125020500Y-59012999D01*
G75*
G02*
X125270499Y-58763000I249999J0D01*
G01*
G37*
G36*
G01*
X125270499Y-55813000D02*
X126570501Y-55813000D01*
G75*
G02*
X126820500Y-56062999I0J-249999D01*
G01*
X126820500Y-56713001D01*
G75*
G02*
X126570501Y-56963000I-249999J0D01*
G01*
X125270499Y-56963000D01*
G75*
G02*
X125020500Y-56713001I0J249999D01*
G01*
X125020500Y-56062999D01*
G75*
G02*
X125270499Y-55813000I249999J0D01*
G01*
G37*
%TD*%
D13*
%TO.C,TP1*%
X125158500Y-35687000D03*
%TD*%
%TO.C,TP2*%
X125158500Y-38989000D03*
%TD*%
%TO.C,TP3*%
X170275250Y-38735000D03*
%TD*%
%TO.C,TP4*%
X160115250Y-38862000D03*
%TD*%
%TO.C,D+*%
X158718250Y-77343000D03*
%TD*%
%TO.C,D-*%
X158718250Y-80264000D03*
%TD*%
D20*
%TO.C,Y1*%
X87377500Y-74972000D03*
X85977500Y-74972000D03*
X85977500Y-73872000D03*
X87377500Y-73872000D03*
%TD*%
%TO.C,Y2*%
X193959250Y-57192000D03*
X195359250Y-57192000D03*
X195359250Y-56092000D03*
X193959250Y-56092000D03*
%TD*%
M02*
