%TF.GenerationSoftware,KiCad,Pcbnew,(5.1.10)-1*%
%TF.CreationDate,2021-08-09T17:58:55+02:00*%
%TF.ProjectId,T1,54312e6b-6963-4616-945f-706362585858,rev?*%
%TF.SameCoordinates,Original*%
%TF.FileFunction,Legend,Bot*%
%TF.FilePolarity,Positive*%
%FSLAX46Y46*%
G04 Gerber Fmt 4.6, Leading zero omitted, Abs format (unit mm)*
G04 Created by KiCad (PCBNEW (5.1.10)-1) date 2021-08-09 17:58:55*
%MOMM*%
%LPD*%
G01*
G04 APERTURE LIST*
%ADD10C,0.300000*%
%ADD11C,0.120000*%
%ADD12C,0.150000*%
G04 APERTURE END LIST*
D10*
X223979571Y-147387571D02*
X223979571Y-148459000D01*
X224051000Y-148673285D01*
X224193857Y-148816142D01*
X224408142Y-148887571D01*
X224551000Y-148887571D01*
X222693857Y-148816142D02*
X222836714Y-148887571D01*
X223122428Y-148887571D01*
X223265285Y-148816142D01*
X223336714Y-148673285D01*
X223336714Y-148101857D01*
X223265285Y-147959000D01*
X223122428Y-147887571D01*
X222836714Y-147887571D01*
X222693857Y-147959000D01*
X222622428Y-148101857D01*
X222622428Y-148244714D01*
X223336714Y-148387571D01*
X222051000Y-148816142D02*
X221908142Y-148887571D01*
X221622428Y-148887571D01*
X221479571Y-148816142D01*
X221408142Y-148673285D01*
X221408142Y-148601857D01*
X221479571Y-148459000D01*
X221622428Y-148387571D01*
X221836714Y-148387571D01*
X221979571Y-148316142D01*
X222051000Y-148173285D01*
X222051000Y-148101857D01*
X221979571Y-147959000D01*
X221836714Y-147887571D01*
X221622428Y-147887571D01*
X221479571Y-147959000D01*
X220765285Y-147887571D02*
X220765285Y-149387571D01*
X220765285Y-147959000D02*
X220622428Y-147887571D01*
X220336714Y-147887571D01*
X220193857Y-147959000D01*
X220122428Y-148030428D01*
X220051000Y-148173285D01*
X220051000Y-148601857D01*
X220122428Y-148744714D01*
X220193857Y-148816142D01*
X220336714Y-148887571D01*
X220622428Y-148887571D01*
X220765285Y-148816142D01*
X218836714Y-148816142D02*
X218979571Y-148887571D01*
X219265285Y-148887571D01*
X219408142Y-148816142D01*
X219479571Y-148673285D01*
X219479571Y-148101857D01*
X219408142Y-147959000D01*
X219265285Y-147887571D01*
X218979571Y-147887571D01*
X218836714Y-147959000D01*
X218765285Y-148101857D01*
X218765285Y-148244714D01*
X219479571Y-148387571D01*
X218122428Y-148887571D02*
X218122428Y-147887571D01*
X218122428Y-148173285D02*
X218051000Y-148030428D01*
X217979571Y-147959000D01*
X217836714Y-147887571D01*
X217693857Y-147887571D01*
X215551000Y-148101857D02*
X216051000Y-148101857D01*
X216051000Y-148887571D02*
X216051000Y-147387571D01*
X215336714Y-147387571D01*
X214122428Y-148887571D02*
X214122428Y-148101857D01*
X214193857Y-147959000D01*
X214336714Y-147887571D01*
X214622428Y-147887571D01*
X214765285Y-147959000D01*
X214122428Y-148816142D02*
X214265285Y-148887571D01*
X214622428Y-148887571D01*
X214765285Y-148816142D01*
X214836714Y-148673285D01*
X214836714Y-148530428D01*
X214765285Y-148387571D01*
X214622428Y-148316142D01*
X214265285Y-148316142D01*
X214122428Y-148244714D01*
X213479571Y-148816142D02*
X213336714Y-148887571D01*
X213051000Y-148887571D01*
X212908142Y-148816142D01*
X212836714Y-148673285D01*
X212836714Y-148601857D01*
X212908142Y-148459000D01*
X213051000Y-148387571D01*
X213265285Y-148387571D01*
X213408142Y-148316142D01*
X213479571Y-148173285D01*
X213479571Y-148101857D01*
X213408142Y-147959000D01*
X213265285Y-147887571D01*
X213051000Y-147887571D01*
X212908142Y-147959000D01*
X212408142Y-147887571D02*
X211836714Y-147887571D01*
X212193857Y-147387571D02*
X212193857Y-148673285D01*
X212122428Y-148816142D01*
X211979571Y-148887571D01*
X211836714Y-148887571D01*
X211336714Y-148887571D02*
X211336714Y-147387571D01*
X210693857Y-148887571D02*
X210693857Y-148101857D01*
X210765285Y-147959000D01*
X210908142Y-147887571D01*
X211122428Y-147887571D01*
X211265285Y-147959000D01*
X211336714Y-148030428D01*
X66372571Y-147387571D02*
X66372571Y-148459000D01*
X66444000Y-148673285D01*
X66586857Y-148816142D01*
X66801142Y-148887571D01*
X66944000Y-148887571D01*
X65086857Y-148816142D02*
X65229714Y-148887571D01*
X65515428Y-148887571D01*
X65658285Y-148816142D01*
X65729714Y-148673285D01*
X65729714Y-148101857D01*
X65658285Y-147959000D01*
X65515428Y-147887571D01*
X65229714Y-147887571D01*
X65086857Y-147959000D01*
X65015428Y-148101857D01*
X65015428Y-148244714D01*
X65729714Y-148387571D01*
X64444000Y-148816142D02*
X64301142Y-148887571D01*
X64015428Y-148887571D01*
X63872571Y-148816142D01*
X63801142Y-148673285D01*
X63801142Y-148601857D01*
X63872571Y-148459000D01*
X64015428Y-148387571D01*
X64229714Y-148387571D01*
X64372571Y-148316142D01*
X64444000Y-148173285D01*
X64444000Y-148101857D01*
X64372571Y-147959000D01*
X64229714Y-147887571D01*
X64015428Y-147887571D01*
X63872571Y-147959000D01*
X63158285Y-147887571D02*
X63158285Y-149387571D01*
X63158285Y-147959000D02*
X63015428Y-147887571D01*
X62729714Y-147887571D01*
X62586857Y-147959000D01*
X62515428Y-148030428D01*
X62444000Y-148173285D01*
X62444000Y-148601857D01*
X62515428Y-148744714D01*
X62586857Y-148816142D01*
X62729714Y-148887571D01*
X63015428Y-148887571D01*
X63158285Y-148816142D01*
X61229714Y-148816142D02*
X61372571Y-148887571D01*
X61658285Y-148887571D01*
X61801142Y-148816142D01*
X61872571Y-148673285D01*
X61872571Y-148101857D01*
X61801142Y-147959000D01*
X61658285Y-147887571D01*
X61372571Y-147887571D01*
X61229714Y-147959000D01*
X61158285Y-148101857D01*
X61158285Y-148244714D01*
X61872571Y-148387571D01*
X60515428Y-148887571D02*
X60515428Y-147887571D01*
X60515428Y-148173285D02*
X60444000Y-148030428D01*
X60372571Y-147959000D01*
X60229714Y-147887571D01*
X60086857Y-147887571D01*
X57944000Y-148101857D02*
X58444000Y-148101857D01*
X58444000Y-148887571D02*
X58444000Y-147387571D01*
X57729714Y-147387571D01*
X56515428Y-148887571D02*
X56515428Y-148101857D01*
X56586857Y-147959000D01*
X56729714Y-147887571D01*
X57015428Y-147887571D01*
X57158285Y-147959000D01*
X56515428Y-148816142D02*
X56658285Y-148887571D01*
X57015428Y-148887571D01*
X57158285Y-148816142D01*
X57229714Y-148673285D01*
X57229714Y-148530428D01*
X57158285Y-148387571D01*
X57015428Y-148316142D01*
X56658285Y-148316142D01*
X56515428Y-148244714D01*
X55872571Y-148816142D02*
X55729714Y-148887571D01*
X55444000Y-148887571D01*
X55301142Y-148816142D01*
X55229714Y-148673285D01*
X55229714Y-148601857D01*
X55301142Y-148459000D01*
X55444000Y-148387571D01*
X55658285Y-148387571D01*
X55801142Y-148316142D01*
X55872571Y-148173285D01*
X55872571Y-148101857D01*
X55801142Y-147959000D01*
X55658285Y-147887571D01*
X55444000Y-147887571D01*
X55301142Y-147959000D01*
X54801142Y-147887571D02*
X54229714Y-147887571D01*
X54586857Y-147387571D02*
X54586857Y-148673285D01*
X54515428Y-148816142D01*
X54372571Y-148887571D01*
X54229714Y-148887571D01*
X53729714Y-148887571D02*
X53729714Y-147387571D01*
X53086857Y-148887571D02*
X53086857Y-148101857D01*
X53158285Y-147959000D01*
X53301142Y-147887571D01*
X53515428Y-147887571D01*
X53658285Y-147959000D01*
X53729714Y-148030428D01*
D11*
%TO.C,Y2*%
X183181000Y-71748000D02*
X185881000Y-71748000D01*
X183181000Y-74048000D02*
X183181000Y-71748000D01*
%TO.C,Y1*%
X71367487Y-86598650D02*
X69458299Y-84689462D01*
X72993833Y-84972304D02*
X71367487Y-86598650D01*
D12*
%TO.C,U2*%
X188950414Y-96700969D02*
X188048852Y-97602530D01*
X196675555Y-89789000D02*
X196198258Y-90266297D01*
X189357000Y-82470445D02*
X188879703Y-82947742D01*
X182038445Y-89789000D02*
X182515742Y-89311703D01*
X189357000Y-97107555D02*
X189834297Y-96630258D01*
X182038445Y-89789000D02*
X182515742Y-90266297D01*
X189357000Y-82470445D02*
X189834297Y-82947742D01*
X196675555Y-89789000D02*
X196198258Y-89311703D01*
X189357000Y-97107555D02*
X188950414Y-96700969D01*
%TO.C,U1*%
X89255414Y-97208969D02*
X88353852Y-98110530D01*
X96980555Y-90297000D02*
X96503258Y-90774297D01*
X89662000Y-82978445D02*
X89184703Y-83455742D01*
X82343445Y-90297000D02*
X82820742Y-89819703D01*
X89662000Y-97615555D02*
X90139297Y-97138258D01*
X82343445Y-90297000D02*
X82820742Y-90774297D01*
X89662000Y-82978445D02*
X90139297Y-83455742D01*
X96980555Y-90297000D02*
X96503258Y-89819703D01*
X89662000Y-97615555D02*
X89255414Y-97208969D01*
D11*
%TO.C,R8*%
X102097250Y-46866186D02*
X102097250Y-48320314D01*
X100277250Y-46866186D02*
X100277250Y-48320314D01*
%TO.C,R7*%
X104827750Y-46866186D02*
X104827750Y-48320314D01*
X103007750Y-46866186D02*
X103007750Y-48320314D01*
%TO.C,R6*%
X208174000Y-89188936D02*
X208174000Y-90643064D01*
X206354000Y-89188936D02*
X206354000Y-90643064D01*
%TO.C,R5*%
X175916000Y-86775936D02*
X175916000Y-88230064D01*
X174096000Y-86775936D02*
X174096000Y-88230064D01*
%TO.C,R4*%
X105825936Y-87990000D02*
X107280064Y-87990000D01*
X105825936Y-89810000D02*
X107280064Y-89810000D01*
%TO.C,R3*%
X75942814Y-89778250D02*
X74488686Y-89778250D01*
X75942814Y-87958250D02*
X74488686Y-87958250D01*
%TO.C,R2*%
X75942814Y-92254750D02*
X74488686Y-92254750D01*
X75942814Y-90434750D02*
X74488686Y-90434750D01*
%TO.C,R1*%
X96739064Y-55266000D02*
X95284936Y-55266000D01*
X96739064Y-53446000D02*
X95284936Y-53446000D01*
%TO.C,C11*%
X174223000Y-94056252D02*
X174223000Y-92633748D01*
X176043000Y-94056252D02*
X176043000Y-92633748D01*
%TO.C,C10*%
X182647000Y-72059748D02*
X182647000Y-73482252D01*
X180827000Y-72059748D02*
X180827000Y-73482252D01*
%TO.C,C9*%
X186415000Y-73531252D02*
X186415000Y-72108748D01*
X188235000Y-73531252D02*
X188235000Y-72108748D01*
%TO.C,C8*%
X75561602Y-106412464D02*
X76567464Y-105406602D01*
X76848536Y-107699398D02*
X77854398Y-106693536D01*
%TO.C,C7*%
X69377464Y-87887398D02*
X68371602Y-86881536D01*
X70664398Y-86600464D02*
X69658536Y-85594602D01*
%TO.C,C6*%
X73138553Y-81757619D02*
X74144415Y-82763481D01*
X71851619Y-83044553D02*
X72857481Y-84050415D01*
%TO.C,C5*%
X110246750Y-73387002D02*
X110246750Y-71964498D01*
X112066750Y-73387002D02*
X112066750Y-71964498D01*
%TO.C,C4*%
X113040750Y-73387002D02*
X113040750Y-71964498D01*
X114860750Y-73387002D02*
X114860750Y-71964498D01*
%TO.C,C3*%
X115961750Y-73387002D02*
X115961750Y-71964498D01*
X117781750Y-73387002D02*
X117781750Y-71964498D01*
%TO.C,C2*%
X119009750Y-73387002D02*
X119009750Y-71964498D01*
X120829750Y-73387002D02*
X120829750Y-71964498D01*
%TO.C,C1*%
X122311750Y-73387002D02*
X122311750Y-71964498D01*
X124131750Y-73387002D02*
X124131750Y-71964498D01*
%TO.C,Y2*%
D12*
X185007190Y-74874190D02*
X185007190Y-75350380D01*
X185340523Y-74350380D02*
X185007190Y-74874190D01*
X184673857Y-74350380D01*
X184388142Y-74445619D02*
X184340523Y-74398000D01*
X184245285Y-74350380D01*
X184007190Y-74350380D01*
X183911952Y-74398000D01*
X183864333Y-74445619D01*
X183816714Y-74540857D01*
X183816714Y-74636095D01*
X183864333Y-74778952D01*
X184435761Y-75350380D01*
X183816714Y-75350380D01*
%TO.C,Y1*%
X72993833Y-83736550D02*
X72657115Y-84073268D01*
X73599924Y-83601863D02*
X72993833Y-83736550D01*
X73128520Y-83130459D01*
X71815322Y-83231474D02*
X72219383Y-83635535D01*
X72017352Y-83433504D02*
X72724459Y-82726398D01*
X72690787Y-82894756D01*
X72690787Y-83029443D01*
X72724459Y-83130459D01*
%TO.C,U2*%
X194776468Y-94130972D02*
X195348888Y-94703392D01*
X195382560Y-94804407D01*
X195382560Y-94871751D01*
X195348888Y-94972766D01*
X195214201Y-95107453D01*
X195113186Y-95141125D01*
X195045842Y-95141125D01*
X194944827Y-95107453D01*
X194372407Y-94535033D01*
X194136705Y-94905423D02*
X194069362Y-94905423D01*
X193968346Y-94939094D01*
X193799988Y-95107453D01*
X193766316Y-95208468D01*
X193766316Y-95275812D01*
X193799988Y-95376827D01*
X193867331Y-95444171D01*
X194002018Y-95511514D01*
X194810140Y-95511514D01*
X194372407Y-95949247D01*
%TO.C,U1*%
X95081468Y-94638972D02*
X95653888Y-95211392D01*
X95687560Y-95312407D01*
X95687560Y-95379751D01*
X95653888Y-95480766D01*
X95519201Y-95615453D01*
X95418186Y-95649125D01*
X95350842Y-95649125D01*
X95249827Y-95615453D01*
X94677407Y-95043033D01*
X94677407Y-96457247D02*
X95081468Y-96053186D01*
X94879438Y-96255216D02*
X94172331Y-95548110D01*
X94340690Y-95581781D01*
X94475377Y-95581781D01*
X94576392Y-95548110D01*
%TO.C,R8*%
X99819630Y-47426583D02*
X99343440Y-47093250D01*
X99819630Y-46855154D02*
X98819630Y-46855154D01*
X98819630Y-47236107D01*
X98867250Y-47331345D01*
X98914869Y-47378964D01*
X99010107Y-47426583D01*
X99152964Y-47426583D01*
X99248202Y-47378964D01*
X99295821Y-47331345D01*
X99343440Y-47236107D01*
X99343440Y-46855154D01*
X99248202Y-47998011D02*
X99200583Y-47902773D01*
X99152964Y-47855154D01*
X99057726Y-47807535D01*
X99010107Y-47807535D01*
X98914869Y-47855154D01*
X98867250Y-47902773D01*
X98819630Y-47998011D01*
X98819630Y-48188488D01*
X98867250Y-48283726D01*
X98914869Y-48331345D01*
X99010107Y-48378964D01*
X99057726Y-48378964D01*
X99152964Y-48331345D01*
X99200583Y-48283726D01*
X99248202Y-48188488D01*
X99248202Y-47998011D01*
X99295821Y-47902773D01*
X99343440Y-47855154D01*
X99438678Y-47807535D01*
X99629154Y-47807535D01*
X99724392Y-47855154D01*
X99772011Y-47902773D01*
X99819630Y-47998011D01*
X99819630Y-48188488D01*
X99772011Y-48283726D01*
X99724392Y-48331345D01*
X99629154Y-48378964D01*
X99438678Y-48378964D01*
X99343440Y-48331345D01*
X99295821Y-48283726D01*
X99248202Y-48188488D01*
%TO.C,R7*%
X102550130Y-47426583D02*
X102073940Y-47093250D01*
X102550130Y-46855154D02*
X101550130Y-46855154D01*
X101550130Y-47236107D01*
X101597750Y-47331345D01*
X101645369Y-47378964D01*
X101740607Y-47426583D01*
X101883464Y-47426583D01*
X101978702Y-47378964D01*
X102026321Y-47331345D01*
X102073940Y-47236107D01*
X102073940Y-46855154D01*
X101550130Y-47759916D02*
X101550130Y-48426583D01*
X102550130Y-47998011D01*
%TO.C,R6*%
X205896380Y-89749333D02*
X205420190Y-89416000D01*
X205896380Y-89177904D02*
X204896380Y-89177904D01*
X204896380Y-89558857D01*
X204944000Y-89654095D01*
X204991619Y-89701714D01*
X205086857Y-89749333D01*
X205229714Y-89749333D01*
X205324952Y-89701714D01*
X205372571Y-89654095D01*
X205420190Y-89558857D01*
X205420190Y-89177904D01*
X204896380Y-90606476D02*
X204896380Y-90416000D01*
X204944000Y-90320761D01*
X204991619Y-90273142D01*
X205134476Y-90177904D01*
X205324952Y-90130285D01*
X205705904Y-90130285D01*
X205801142Y-90177904D01*
X205848761Y-90225523D01*
X205896380Y-90320761D01*
X205896380Y-90511238D01*
X205848761Y-90606476D01*
X205801142Y-90654095D01*
X205705904Y-90701714D01*
X205467809Y-90701714D01*
X205372571Y-90654095D01*
X205324952Y-90606476D01*
X205277333Y-90511238D01*
X205277333Y-90320761D01*
X205324952Y-90225523D01*
X205372571Y-90177904D01*
X205467809Y-90130285D01*
%TO.C,R5*%
X173638380Y-87336333D02*
X173162190Y-87003000D01*
X173638380Y-86764904D02*
X172638380Y-86764904D01*
X172638380Y-87145857D01*
X172686000Y-87241095D01*
X172733619Y-87288714D01*
X172828857Y-87336333D01*
X172971714Y-87336333D01*
X173066952Y-87288714D01*
X173114571Y-87241095D01*
X173162190Y-87145857D01*
X173162190Y-86764904D01*
X172638380Y-88241095D02*
X172638380Y-87764904D01*
X173114571Y-87717285D01*
X173066952Y-87764904D01*
X173019333Y-87860142D01*
X173019333Y-88098238D01*
X173066952Y-88193476D01*
X173114571Y-88241095D01*
X173209809Y-88288714D01*
X173447904Y-88288714D01*
X173543142Y-88241095D01*
X173590761Y-88193476D01*
X173638380Y-88098238D01*
X173638380Y-87860142D01*
X173590761Y-87764904D01*
X173543142Y-87717285D01*
%TO.C,R4*%
X106719666Y-91172380D02*
X107053000Y-90696190D01*
X107291095Y-91172380D02*
X107291095Y-90172380D01*
X106910142Y-90172380D01*
X106814904Y-90220000D01*
X106767285Y-90267619D01*
X106719666Y-90362857D01*
X106719666Y-90505714D01*
X106767285Y-90600952D01*
X106814904Y-90648571D01*
X106910142Y-90696190D01*
X107291095Y-90696190D01*
X105862523Y-90505714D02*
X105862523Y-91172380D01*
X106100619Y-90124761D02*
X106338714Y-90839047D01*
X105719666Y-90839047D01*
%TO.C,R3*%
X75382416Y-87500630D02*
X75715750Y-87024440D01*
X75953845Y-87500630D02*
X75953845Y-86500630D01*
X75572892Y-86500630D01*
X75477654Y-86548250D01*
X75430035Y-86595869D01*
X75382416Y-86691107D01*
X75382416Y-86833964D01*
X75430035Y-86929202D01*
X75477654Y-86976821D01*
X75572892Y-87024440D01*
X75953845Y-87024440D01*
X75049083Y-86500630D02*
X74430035Y-86500630D01*
X74763369Y-86881583D01*
X74620511Y-86881583D01*
X74525273Y-86929202D01*
X74477654Y-86976821D01*
X74430035Y-87072059D01*
X74430035Y-87310154D01*
X74477654Y-87405392D01*
X74525273Y-87453011D01*
X74620511Y-87500630D01*
X74906226Y-87500630D01*
X75001464Y-87453011D01*
X75049083Y-87405392D01*
%TO.C,R2*%
X75382416Y-89977130D02*
X75715750Y-89500940D01*
X75953845Y-89977130D02*
X75953845Y-88977130D01*
X75572892Y-88977130D01*
X75477654Y-89024750D01*
X75430035Y-89072369D01*
X75382416Y-89167607D01*
X75382416Y-89310464D01*
X75430035Y-89405702D01*
X75477654Y-89453321D01*
X75572892Y-89500940D01*
X75953845Y-89500940D01*
X75001464Y-89072369D02*
X74953845Y-89024750D01*
X74858607Y-88977130D01*
X74620511Y-88977130D01*
X74525273Y-89024750D01*
X74477654Y-89072369D01*
X74430035Y-89167607D01*
X74430035Y-89262845D01*
X74477654Y-89405702D01*
X75049083Y-89977130D01*
X74430035Y-89977130D01*
%TO.C,R1*%
X96178666Y-52988380D02*
X96512000Y-52512190D01*
X96750095Y-52988380D02*
X96750095Y-51988380D01*
X96369142Y-51988380D01*
X96273904Y-52036000D01*
X96226285Y-52083619D01*
X96178666Y-52178857D01*
X96178666Y-52321714D01*
X96226285Y-52416952D01*
X96273904Y-52464571D01*
X96369142Y-52512190D01*
X96750095Y-52512190D01*
X95226285Y-52988380D02*
X95797714Y-52988380D01*
X95512000Y-52988380D02*
X95512000Y-51988380D01*
X95607238Y-52131238D01*
X95702476Y-52226476D01*
X95797714Y-52274095D01*
%TO.C,C11*%
X177340142Y-92702142D02*
X177387761Y-92654523D01*
X177435380Y-92511666D01*
X177435380Y-92416428D01*
X177387761Y-92273571D01*
X177292523Y-92178333D01*
X177197285Y-92130714D01*
X177006809Y-92083095D01*
X176863952Y-92083095D01*
X176673476Y-92130714D01*
X176578238Y-92178333D01*
X176483000Y-92273571D01*
X176435380Y-92416428D01*
X176435380Y-92511666D01*
X176483000Y-92654523D01*
X176530619Y-92702142D01*
X177435380Y-93654523D02*
X177435380Y-93083095D01*
X177435380Y-93368809D02*
X176435380Y-93368809D01*
X176578238Y-93273571D01*
X176673476Y-93178333D01*
X176721095Y-93083095D01*
X177435380Y-94606904D02*
X177435380Y-94035476D01*
X177435380Y-94321190D02*
X176435380Y-94321190D01*
X176578238Y-94225952D01*
X176673476Y-94130714D01*
X176721095Y-94035476D01*
%TO.C,C10*%
X180244142Y-72128142D02*
X180291761Y-72080523D01*
X180339380Y-71937666D01*
X180339380Y-71842428D01*
X180291761Y-71699571D01*
X180196523Y-71604333D01*
X180101285Y-71556714D01*
X179910809Y-71509095D01*
X179767952Y-71509095D01*
X179577476Y-71556714D01*
X179482238Y-71604333D01*
X179387000Y-71699571D01*
X179339380Y-71842428D01*
X179339380Y-71937666D01*
X179387000Y-72080523D01*
X179434619Y-72128142D01*
X180339380Y-73080523D02*
X180339380Y-72509095D01*
X180339380Y-72794809D02*
X179339380Y-72794809D01*
X179482238Y-72699571D01*
X179577476Y-72604333D01*
X179625095Y-72509095D01*
X179339380Y-73699571D02*
X179339380Y-73794809D01*
X179387000Y-73890047D01*
X179434619Y-73937666D01*
X179529857Y-73985285D01*
X179720333Y-74032904D01*
X179958428Y-74032904D01*
X180148904Y-73985285D01*
X180244142Y-73937666D01*
X180291761Y-73890047D01*
X180339380Y-73794809D01*
X180339380Y-73699571D01*
X180291761Y-73604333D01*
X180244142Y-73556714D01*
X180148904Y-73509095D01*
X179958428Y-73461476D01*
X179720333Y-73461476D01*
X179529857Y-73509095D01*
X179434619Y-73556714D01*
X179387000Y-73604333D01*
X179339380Y-73699571D01*
%TO.C,C9*%
X189532142Y-72653333D02*
X189579761Y-72605714D01*
X189627380Y-72462857D01*
X189627380Y-72367619D01*
X189579761Y-72224761D01*
X189484523Y-72129523D01*
X189389285Y-72081904D01*
X189198809Y-72034285D01*
X189055952Y-72034285D01*
X188865476Y-72081904D01*
X188770238Y-72129523D01*
X188675000Y-72224761D01*
X188627380Y-72367619D01*
X188627380Y-72462857D01*
X188675000Y-72605714D01*
X188722619Y-72653333D01*
X189627380Y-73129523D02*
X189627380Y-73320000D01*
X189579761Y-73415238D01*
X189532142Y-73462857D01*
X189389285Y-73558095D01*
X189198809Y-73605714D01*
X188817857Y-73605714D01*
X188722619Y-73558095D01*
X188675000Y-73510476D01*
X188627380Y-73415238D01*
X188627380Y-73224761D01*
X188675000Y-73129523D01*
X188722619Y-73081904D01*
X188817857Y-73034285D01*
X189055952Y-73034285D01*
X189151190Y-73081904D01*
X189198809Y-73129523D01*
X189246428Y-73224761D01*
X189246428Y-73415238D01*
X189198809Y-73510476D01*
X189151190Y-73558095D01*
X189055952Y-73605714D01*
%TO.C,C8*%
X78386537Y-107995835D02*
X78453880Y-107995835D01*
X78588567Y-107928491D01*
X78655911Y-107861148D01*
X78723254Y-107726460D01*
X78723254Y-107591773D01*
X78689583Y-107490758D01*
X78588567Y-107322399D01*
X78487552Y-107221384D01*
X78319193Y-107120369D01*
X78218178Y-107086697D01*
X78083491Y-107086697D01*
X77948804Y-107154041D01*
X77881460Y-107221384D01*
X77814117Y-107356071D01*
X77814117Y-107423415D01*
X77645758Y-108063178D02*
X77679430Y-107962163D01*
X77679430Y-107894819D01*
X77645758Y-107793804D01*
X77612086Y-107760132D01*
X77511071Y-107726460D01*
X77443728Y-107726460D01*
X77342712Y-107760132D01*
X77208025Y-107894819D01*
X77174354Y-107995835D01*
X77174354Y-108063178D01*
X77208025Y-108164193D01*
X77241697Y-108197865D01*
X77342712Y-108231537D01*
X77410056Y-108231537D01*
X77511071Y-108197865D01*
X77645758Y-108063178D01*
X77746773Y-108029506D01*
X77814117Y-108029506D01*
X77915132Y-108063178D01*
X78049819Y-108197865D01*
X78083491Y-108298880D01*
X78083491Y-108366224D01*
X78049819Y-108467239D01*
X77915132Y-108601926D01*
X77814117Y-108635598D01*
X77746773Y-108635598D01*
X77645758Y-108601926D01*
X77511071Y-108467239D01*
X77477399Y-108366224D01*
X77477399Y-108298880D01*
X77511071Y-108197865D01*
%TO.C,C7*%
X70691460Y-85803241D02*
X70691460Y-85870584D01*
X70758804Y-86005271D01*
X70826148Y-86072615D01*
X70960835Y-86139958D01*
X71095522Y-86139958D01*
X71196537Y-86106287D01*
X71364896Y-86005271D01*
X71465911Y-85904256D01*
X71566926Y-85735897D01*
X71600598Y-85634882D01*
X71600598Y-85500195D01*
X71533254Y-85365508D01*
X71465911Y-85298164D01*
X71331224Y-85230821D01*
X71263880Y-85230821D01*
X71095522Y-84927775D02*
X70624117Y-84456371D01*
X70220056Y-85466523D01*
%TO.C,C6*%
X71555181Y-84582554D02*
X71555181Y-84649897D01*
X71622525Y-84784584D01*
X71689869Y-84851928D01*
X71824556Y-84919271D01*
X71959243Y-84919271D01*
X72060258Y-84885600D01*
X72228617Y-84784584D01*
X72329632Y-84683569D01*
X72430647Y-84515210D01*
X72464319Y-84414195D01*
X72464319Y-84279508D01*
X72396975Y-84144821D01*
X72329632Y-84077477D01*
X72194945Y-84010134D01*
X72127601Y-84010134D01*
X71588853Y-83336699D02*
X71723540Y-83471386D01*
X71757212Y-83572401D01*
X71757212Y-83639745D01*
X71723540Y-83808103D01*
X71622525Y-83976462D01*
X71353151Y-84245836D01*
X71252136Y-84279508D01*
X71184792Y-84279508D01*
X71083777Y-84245836D01*
X70949090Y-84111149D01*
X70915418Y-84010134D01*
X70915418Y-83942790D01*
X70949090Y-83841775D01*
X71117449Y-83673416D01*
X71218464Y-83639745D01*
X71285807Y-83639745D01*
X71386823Y-83673416D01*
X71521510Y-83808103D01*
X71555181Y-83909119D01*
X71555181Y-83976462D01*
X71521510Y-84077477D01*
%TO.C,C5*%
X113363892Y-72509083D02*
X113411511Y-72461464D01*
X113459130Y-72318607D01*
X113459130Y-72223369D01*
X113411511Y-72080511D01*
X113316273Y-71985273D01*
X113221035Y-71937654D01*
X113030559Y-71890035D01*
X112887702Y-71890035D01*
X112697226Y-71937654D01*
X112601988Y-71985273D01*
X112506750Y-72080511D01*
X112459130Y-72223369D01*
X112459130Y-72318607D01*
X112506750Y-72461464D01*
X112554369Y-72509083D01*
X112459130Y-73413845D02*
X112459130Y-72937654D01*
X112935321Y-72890035D01*
X112887702Y-72937654D01*
X112840083Y-73032892D01*
X112840083Y-73270988D01*
X112887702Y-73366226D01*
X112935321Y-73413845D01*
X113030559Y-73461464D01*
X113268654Y-73461464D01*
X113363892Y-73413845D01*
X113411511Y-73366226D01*
X113459130Y-73270988D01*
X113459130Y-73032892D01*
X113411511Y-72937654D01*
X113363892Y-72890035D01*
%TO.C,C4*%
X116157892Y-72509083D02*
X116205511Y-72461464D01*
X116253130Y-72318607D01*
X116253130Y-72223369D01*
X116205511Y-72080511D01*
X116110273Y-71985273D01*
X116015035Y-71937654D01*
X115824559Y-71890035D01*
X115681702Y-71890035D01*
X115491226Y-71937654D01*
X115395988Y-71985273D01*
X115300750Y-72080511D01*
X115253130Y-72223369D01*
X115253130Y-72318607D01*
X115300750Y-72461464D01*
X115348369Y-72509083D01*
X115586464Y-73366226D02*
X116253130Y-73366226D01*
X115205511Y-73128130D02*
X115919797Y-72890035D01*
X115919797Y-73509083D01*
%TO.C,C3*%
X119078892Y-72509083D02*
X119126511Y-72461464D01*
X119174130Y-72318607D01*
X119174130Y-72223369D01*
X119126511Y-72080511D01*
X119031273Y-71985273D01*
X118936035Y-71937654D01*
X118745559Y-71890035D01*
X118602702Y-71890035D01*
X118412226Y-71937654D01*
X118316988Y-71985273D01*
X118221750Y-72080511D01*
X118174130Y-72223369D01*
X118174130Y-72318607D01*
X118221750Y-72461464D01*
X118269369Y-72509083D01*
X118174130Y-72842416D02*
X118174130Y-73461464D01*
X118555083Y-73128130D01*
X118555083Y-73270988D01*
X118602702Y-73366226D01*
X118650321Y-73413845D01*
X118745559Y-73461464D01*
X118983654Y-73461464D01*
X119078892Y-73413845D01*
X119126511Y-73366226D01*
X119174130Y-73270988D01*
X119174130Y-72985273D01*
X119126511Y-72890035D01*
X119078892Y-72842416D01*
%TO.C,C2*%
X122126892Y-72509083D02*
X122174511Y-72461464D01*
X122222130Y-72318607D01*
X122222130Y-72223369D01*
X122174511Y-72080511D01*
X122079273Y-71985273D01*
X121984035Y-71937654D01*
X121793559Y-71890035D01*
X121650702Y-71890035D01*
X121460226Y-71937654D01*
X121364988Y-71985273D01*
X121269750Y-72080511D01*
X121222130Y-72223369D01*
X121222130Y-72318607D01*
X121269750Y-72461464D01*
X121317369Y-72509083D01*
X121317369Y-72890035D02*
X121269750Y-72937654D01*
X121222130Y-73032892D01*
X121222130Y-73270988D01*
X121269750Y-73366226D01*
X121317369Y-73413845D01*
X121412607Y-73461464D01*
X121507845Y-73461464D01*
X121650702Y-73413845D01*
X122222130Y-72842416D01*
X122222130Y-73461464D01*
%TO.C,C1*%
X125428892Y-72509083D02*
X125476511Y-72461464D01*
X125524130Y-72318607D01*
X125524130Y-72223369D01*
X125476511Y-72080511D01*
X125381273Y-71985273D01*
X125286035Y-71937654D01*
X125095559Y-71890035D01*
X124952702Y-71890035D01*
X124762226Y-71937654D01*
X124666988Y-71985273D01*
X124571750Y-72080511D01*
X124524130Y-72223369D01*
X124524130Y-72318607D01*
X124571750Y-72461464D01*
X124619369Y-72509083D01*
X125524130Y-73461464D02*
X125524130Y-72890035D01*
X125524130Y-73175750D02*
X124524130Y-73175750D01*
X124666988Y-73080511D01*
X124762226Y-72985273D01*
X124809845Y-72890035D01*
%TD*%
M02*
