%TF.GenerationSoftware,KiCad,Pcbnew,(5.1.10)-1*%
%TF.CreationDate,2021-09-02T18:22:41+02:00*%
%TF.ProjectId,T1,54312e6b-6963-4616-945f-706362585858,1.1*%
%TF.SameCoordinates,Original*%
%TF.FileFunction,Profile,NP*%
%FSLAX46Y46*%
G04 Gerber Fmt 4.6, Leading zero omitted, Abs format (unit mm)*
G04 Created by KiCad (PCBNEW (5.1.10)-1) date 2021-09-02 18:22:41*
%MOMM*%
%LPD*%
G01*
G04 APERTURE LIST*
%TA.AperFunction,Profile*%
%ADD10C,0.050000*%
%TD*%
G04 APERTURE END LIST*
D10*
X297656250Y-40513000D02*
X294640000Y-40513000D01*
X239776000Y-36957000D02*
X234791250Y-36957000D01*
X161925000Y-36957000D02*
X159734250Y-36957000D01*
X53213000Y-36957000D02*
X47942500Y-36957000D01*
X5080000Y-40513000D02*
X1587500Y-40513000D01*
X292354000Y-136017000D02*
X297656250Y-136017000D01*
X196342000Y-132461000D02*
X195421250Y-132458733D01*
X102997000Y-132461000D02*
X103949500Y-132458733D01*
X202184000Y-140589000D02*
X286512000Y-140589000D01*
X292354000Y-156210000D02*
X292354000Y-161290000D01*
X133985000Y-156210000D02*
X196342000Y-156210000D01*
X292354000Y-137287000D02*
X292354000Y-156210000D01*
X286512000Y-137287000D02*
X286512000Y-140589000D01*
X202184000Y-133731000D02*
X202184000Y-140589000D01*
X196342000Y-133731000D02*
X196342000Y-156210000D01*
X97155000Y-140843000D02*
X11303000Y-140843000D01*
X97155000Y-133731000D02*
X97155000Y-140843000D01*
X102997000Y-133731000D02*
X102997000Y-156210000D01*
X5588000Y-156210000D02*
X5588000Y-161290000D01*
X5588000Y-137287000D02*
X5588000Y-156210000D01*
X11303000Y-140843000D02*
X11303000Y-137287000D01*
X133985000Y-156210000D02*
X102997000Y-156210000D01*
X292354000Y-161290000D02*
X5588000Y-161290000D01*
X294640000Y-23114000D02*
X294640000Y-28194000D01*
X107950000Y-23114000D02*
X294640000Y-23114000D01*
X294640000Y-39243000D02*
X294640000Y-28194000D01*
X288798000Y-32512000D02*
X288798000Y-39243000D01*
X245618000Y-32512000D02*
X288798000Y-32512000D01*
X245618000Y-35687000D02*
X245618000Y-32512000D01*
X239776000Y-31623000D02*
X239776000Y-35687000D01*
X167767000Y-31623000D02*
X239776000Y-31623000D01*
X167767000Y-35560000D02*
X167767000Y-31623000D01*
X161925000Y-28194000D02*
X161925000Y-35687000D01*
X126238000Y-28194000D02*
X161925000Y-28194000D01*
X5080000Y-23114000D02*
X5080000Y-28194000D01*
X106680000Y-23114000D02*
X5080000Y-23114000D01*
X5080000Y-28321000D02*
X5080000Y-28194000D01*
X5080000Y-39243000D02*
X5080000Y-28321000D01*
X10922000Y-33401000D02*
X10922000Y-39243000D01*
X53213000Y-33401000D02*
X10922000Y-33401000D01*
X53213000Y-35687000D02*
X53213000Y-33401000D01*
X59055000Y-31496000D02*
X59055000Y-35687000D01*
X100838000Y-31496000D02*
X59055000Y-31496000D01*
X100838000Y-35687000D02*
X100838000Y-31496000D01*
X106680000Y-23114000D02*
X107950000Y-23114000D01*
X106680000Y-28194000D02*
X126238000Y-28194000D01*
X106680000Y-35687000D02*
X106680000Y-28194000D01*
X5080000Y-39243000D02*
X5080000Y-40513000D01*
X10922000Y-39243000D02*
X10922000Y-40513000D01*
X10744905Y-39751000D02*
G75*
G03*
X10744905Y-39751000I-457905J0D01*
G01*
X6172905Y-39751000D02*
G75*
G03*
X6172905Y-39751000I-457905J0D01*
G01*
X9601905Y-39751000D02*
G75*
G03*
X9601905Y-39751000I-457905J0D01*
G01*
X7315905Y-39751000D02*
G75*
G03*
X7315905Y-39751000I-457905J0D01*
G01*
X8458905Y-39751000D02*
G75*
G03*
X8458905Y-39751000I-457905J0D01*
G01*
X53213000Y-35687000D02*
X53213000Y-36957000D01*
X59055000Y-35687000D02*
X59055000Y-36957000D01*
X58877905Y-36195000D02*
G75*
G03*
X58877905Y-36195000I-457905J0D01*
G01*
X54305905Y-36195000D02*
G75*
G03*
X54305905Y-36195000I-457905J0D01*
G01*
X57734905Y-36195000D02*
G75*
G03*
X57734905Y-36195000I-457905J0D01*
G01*
X55448905Y-36195000D02*
G75*
G03*
X55448905Y-36195000I-457905J0D01*
G01*
X56591905Y-36195000D02*
G75*
G03*
X56591905Y-36195000I-457905J0D01*
G01*
X100838000Y-35687000D02*
X100838000Y-36957000D01*
X106680000Y-35687000D02*
X106680000Y-36957000D01*
X106502905Y-36195000D02*
G75*
G03*
X106502905Y-36195000I-457905J0D01*
G01*
X101930905Y-36195000D02*
G75*
G03*
X101930905Y-36195000I-457905J0D01*
G01*
X105359905Y-36195000D02*
G75*
G03*
X105359905Y-36195000I-457905J0D01*
G01*
X103073905Y-36195000D02*
G75*
G03*
X103073905Y-36195000I-457905J0D01*
G01*
X104216905Y-36195000D02*
G75*
G03*
X104216905Y-36195000I-457905J0D01*
G01*
X161925000Y-35687000D02*
X161925000Y-36957000D01*
X167767000Y-35560000D02*
X167767000Y-36957000D01*
X167589905Y-36195000D02*
G75*
G03*
X167589905Y-36195000I-457905J0D01*
G01*
X163017905Y-36195000D02*
G75*
G03*
X163017905Y-36195000I-457905J0D01*
G01*
X166446905Y-36195000D02*
G75*
G03*
X166446905Y-36195000I-457905J0D01*
G01*
X164160905Y-36195000D02*
G75*
G03*
X164160905Y-36195000I-457905J0D01*
G01*
X165303905Y-36195000D02*
G75*
G03*
X165303905Y-36195000I-457905J0D01*
G01*
X239776000Y-35687000D02*
X239776000Y-36957000D01*
X245618000Y-35687000D02*
X245618000Y-36957000D01*
X245440905Y-36195000D02*
G75*
G03*
X245440905Y-36195000I-457905J0D01*
G01*
X240868905Y-36195000D02*
G75*
G03*
X240868905Y-36195000I-457905J0D01*
G01*
X244297905Y-36195000D02*
G75*
G03*
X244297905Y-36195000I-457905J0D01*
G01*
X242011905Y-36195000D02*
G75*
G03*
X242011905Y-36195000I-457905J0D01*
G01*
X243154905Y-36195000D02*
G75*
G03*
X243154905Y-36195000I-457905J0D01*
G01*
X288798000Y-39243000D02*
X288798000Y-40513000D01*
X294640000Y-39243000D02*
X294640000Y-40513000D01*
X294462905Y-39751000D02*
G75*
G03*
X294462905Y-39751000I-457905J0D01*
G01*
X289890905Y-39751000D02*
G75*
G03*
X289890905Y-39751000I-457905J0D01*
G01*
X293319905Y-39751000D02*
G75*
G03*
X293319905Y-39751000I-457905J0D01*
G01*
X291033905Y-39751000D02*
G75*
G03*
X291033905Y-39751000I-457905J0D01*
G01*
X292176905Y-39751000D02*
G75*
G03*
X292176905Y-39751000I-457905J0D01*
G01*
X286512000Y-136017000D02*
X286512000Y-137287000D01*
X292354000Y-136017000D02*
X292354000Y-137287000D01*
X292176905Y-136525000D02*
G75*
G03*
X292176905Y-136525000I-457905J0D01*
G01*
X287604905Y-136525000D02*
G75*
G03*
X287604905Y-136525000I-457905J0D01*
G01*
X291033905Y-136525000D02*
G75*
G03*
X291033905Y-136525000I-457905J0D01*
G01*
X288747905Y-136525000D02*
G75*
G03*
X288747905Y-136525000I-457905J0D01*
G01*
X289890905Y-136525000D02*
G75*
G03*
X289890905Y-136525000I-457905J0D01*
G01*
X196342000Y-132461000D02*
X196342000Y-133731000D01*
X202184000Y-132461000D02*
X202184000Y-133731000D01*
X202006905Y-132969000D02*
G75*
G03*
X202006905Y-132969000I-457905J0D01*
G01*
X197434905Y-132969000D02*
G75*
G03*
X197434905Y-132969000I-457905J0D01*
G01*
X200863905Y-132969000D02*
G75*
G03*
X200863905Y-132969000I-457905J0D01*
G01*
X198577905Y-132969000D02*
G75*
G03*
X198577905Y-132969000I-457905J0D01*
G01*
X199720905Y-132969000D02*
G75*
G03*
X199720905Y-132969000I-457905J0D01*
G01*
X97155000Y-132461000D02*
X97155000Y-133731000D01*
X102997000Y-132461000D02*
X102997000Y-133731000D01*
X102819905Y-132969000D02*
G75*
G03*
X102819905Y-132969000I-457905J0D01*
G01*
X98247905Y-132969000D02*
G75*
G03*
X98247905Y-132969000I-457905J0D01*
G01*
X101676905Y-132969000D02*
G75*
G03*
X101676905Y-132969000I-457905J0D01*
G01*
X99390905Y-132969000D02*
G75*
G03*
X99390905Y-132969000I-457905J0D01*
G01*
X100533905Y-132969000D02*
G75*
G03*
X100533905Y-132969000I-457905J0D01*
G01*
X11303000Y-136017000D02*
X11303000Y-137287000D01*
X11303000Y-136017000D02*
X45656500Y-136017000D01*
X5588000Y-136017000D02*
X5588000Y-137287000D01*
X1587500Y-136017000D02*
X5588000Y-136017000D01*
X6630810Y-136525000D02*
G75*
G03*
X6630810Y-136525000I-457905J0D01*
G01*
X11202810Y-136525000D02*
G75*
G03*
X11202810Y-136525000I-457905J0D01*
G01*
X8916810Y-136525000D02*
G75*
G03*
X8916810Y-136525000I-457905J0D01*
G01*
X10059810Y-136525000D02*
G75*
G03*
X10059810Y-136525000I-457905J0D01*
G01*
X7773810Y-136525000D02*
G75*
G03*
X7773810Y-136525000I-457905J0D01*
G01*
X143319501Y-125095000D02*
G75*
G03*
X143319501Y-136778999I10667999J-5842000D01*
G01*
X155924249Y-125095000D02*
G75*
G02*
X155924249Y-136778999I-10667999J-5842000D01*
G01*
X193389250Y-133096000D02*
X178911250Y-141351000D01*
X195421250Y-132458733D02*
G75*
G03*
X193389250Y-133096000I0J-3558267D01*
G01*
X152495250Y-142239998D02*
G75*
G02*
X152495250Y-140208000I1015999J1015999D01*
G01*
X297656250Y-40513000D02*
G75*
G02*
X300323250Y-43180000I0J-2667000D01*
G01*
X300323250Y-133350000D02*
G75*
G02*
X297656250Y-136017000I-2667000J0D01*
G01*
X251047250Y-132461000D02*
G75*
G02*
X252317250Y-133731000I0J-1270000D01*
G01*
X253587250Y-136017000D02*
G75*
G02*
X252317250Y-134747000I0J1270000D01*
G01*
X253841250Y-40513000D02*
G75*
G02*
X252571250Y-39243000I0J1270000D01*
G01*
X251301250Y-36957000D02*
G75*
G02*
X252571250Y-38227000I0J-1270000D01*
G01*
X234791250Y-36957000D02*
G75*
G02*
X233521250Y-35687000I0J1270000D01*
G01*
X232251250Y-34036000D02*
G75*
G02*
X233521250Y-35306000I0J-1270000D01*
G01*
X214217250Y-35687000D02*
X214217250Y-35306000D01*
X214217250Y-35306000D02*
G75*
G02*
X215487250Y-34036000I1270000J0D01*
G01*
X214217250Y-35687000D02*
G75*
G02*
X212947250Y-36957000I-1270000J0D01*
G01*
X146748500Y-140208002D02*
X143319500Y-136779000D01*
X146748500Y-140208002D02*
G75*
G02*
X146748500Y-142240000I-1015999J-1015999D01*
G01*
X166211250Y-153924000D02*
G75*
G02*
X164179252Y-153924000I-1015999J1015999D01*
G01*
X134937500Y-154051000D02*
G75*
G02*
X132905502Y-154051000I-1015999J1015999D01*
G01*
X120332500Y-141478000D02*
X132905500Y-154051000D01*
X105981500Y-133096000D02*
X106362500Y-133350000D01*
X107251500Y-133858000D02*
X120332500Y-141478000D01*
X107251500Y-133858000D02*
X106362500Y-133350000D01*
X103949500Y-132458733D02*
G75*
G02*
X105981500Y-133096000I0J-3558267D01*
G01*
X1587500Y-136017000D02*
G75*
G02*
X-1079500Y-133350000I0J2667000D01*
G01*
X-1079500Y-43180000D02*
G75*
G02*
X1587500Y-40513000I2667000J0D01*
G01*
X46926500Y-133731000D02*
G75*
G02*
X48196500Y-132461000I1270000J0D01*
G01*
X46926500Y-134747000D02*
G75*
G02*
X45656500Y-136017000I-1270000J0D01*
G01*
X46672500Y-39243000D02*
G75*
G02*
X45402500Y-40513000I-1270000J0D01*
G01*
X46672500Y-38227000D02*
G75*
G02*
X47942500Y-36957000I1270000J0D01*
G01*
X65722500Y-35687000D02*
G75*
G02*
X64452500Y-36957000I-1270000J0D01*
G01*
X86296500Y-36957000D02*
G75*
G02*
X85026500Y-35687000I0J1270000D01*
G01*
X65722500Y-35306000D02*
G75*
G02*
X66992500Y-34036000I1270000J0D01*
G01*
X83756500Y-34036000D02*
G75*
G02*
X85026500Y-35306000I0J-1270000D01*
G01*
X120459500Y-36957000D02*
X106680000Y-36957000D01*
X123126500Y-34290000D02*
X123126500Y-32512000D01*
X123126500Y-34290000D02*
G75*
G02*
X120459500Y-36957000I-2667000J0D01*
G01*
X157067250Y-39624000D02*
G75*
G02*
X159734250Y-36957000I2667000J0D01*
G01*
X127063500Y-29845000D02*
X125793500Y-29845000D01*
X123126500Y-32512000D02*
G75*
G02*
X125793500Y-29845000I2667000J0D01*
G01*
X142176500Y-38735000D02*
X142176500Y-32512000D01*
X139509500Y-29845000D02*
X137985500Y-29845000D01*
X139509500Y-29845000D02*
G75*
G02*
X142176500Y-32512000I0J-2667000D01*
G01*
X85026500Y-35687000D02*
X85026500Y-35306000D01*
X100838000Y-36957000D02*
X86296500Y-36957000D01*
X137985500Y-29845000D02*
X127063500Y-29845000D01*
X83756500Y-34036000D02*
X66992500Y-34036000D01*
X65722500Y-35306000D02*
X65722500Y-35687000D01*
X152495250Y-140208000D02*
X155924250Y-136779000D01*
X164179252Y-153924000D02*
X152495250Y-142239998D01*
X178657250Y-141478000D02*
X166211250Y-153924000D01*
X178911250Y-141351000D02*
X178657250Y-141478000D01*
X214471250Y-132461000D02*
X202184000Y-132461000D01*
X233267250Y-132461000D02*
X214471250Y-132461000D01*
X251047250Y-132461000D02*
X233267250Y-132461000D01*
X252317250Y-134747000D02*
X252317250Y-133731000D01*
X286512000Y-136017000D02*
X253587250Y-136017000D01*
X300323250Y-43180000D02*
X300323250Y-133350000D01*
X253841250Y-40513000D02*
X288798000Y-40513000D01*
X252571250Y-38227000D02*
X252571250Y-39243000D01*
X245618000Y-36957000D02*
X251301250Y-36957000D01*
X233521250Y-35306000D02*
X233521250Y-35687000D01*
X157067250Y-39624000D02*
X157067250Y-40513000D01*
X212947250Y-36957000D02*
X167767000Y-36957000D01*
X232251250Y-34036000D02*
X215487250Y-34036000D01*
X157067250Y-116078000D02*
X157067250Y-40513000D01*
X157067250Y-118872000D02*
X155924250Y-125095000D01*
X157067250Y-116967000D02*
X157067250Y-118872000D01*
X157067250Y-116078000D02*
X157067250Y-116967000D01*
X142176500Y-116205000D02*
X142176500Y-41148000D01*
X142176500Y-118999000D02*
X143319500Y-125095000D01*
X142176500Y-116967000D02*
X142176500Y-118999000D01*
X142176500Y-116205000D02*
X142176500Y-116967000D01*
X134937500Y-154051000D02*
X146748500Y-142240000D01*
X84772500Y-132461000D02*
X97155000Y-132461000D01*
X65976500Y-132461000D02*
X84772500Y-132461000D01*
X48196500Y-132461000D02*
X65976500Y-132461000D01*
X46926500Y-134747000D02*
X46926500Y-133731000D01*
X-1079500Y-43180000D02*
X-1079500Y-133350000D01*
X45402500Y-40513000D02*
X10922000Y-40513000D01*
X46672500Y-38227000D02*
X46672500Y-39243000D01*
X64452500Y-36957000D02*
X59055000Y-36957000D01*
X142176500Y-41148000D02*
X142176500Y-38735000D01*
M02*
