%TF.GenerationSoftware,KiCad,Pcbnew,(5.1.10)-1*%
%TF.CreationDate,2021-09-02T18:22:41+02:00*%
%TF.ProjectId,T1,54312e6b-6963-4616-945f-706362585858,1.1*%
%TF.SameCoordinates,Original*%
%TF.FileFunction,Soldermask,Top*%
%TF.FilePolarity,Negative*%
%FSLAX46Y46*%
G04 Gerber Fmt 4.6, Leading zero omitted, Abs format (unit mm)*
G04 Created by KiCad (PCBNEW (5.1.10)-1) date 2021-09-02 18:22:41*
%MOMM*%
%LPD*%
G01*
G04 APERTURE LIST*
%ADD10C,2.200000*%
%ADD11C,1.700000*%
%ADD12C,4.000000*%
%ADD13R,1.000000X1.000000*%
%ADD14R,0.600000X1.450000*%
%ADD15R,0.300000X1.450000*%
%ADD16O,1.000000X2.100000*%
%ADD17C,0.650000*%
%ADD18O,1.000000X1.600000*%
%ADD19C,1.000000*%
%ADD20C,1.900000*%
%ADD21C,0.100000*%
G04 APERTURE END LIST*
D10*
%TO.C,REF\u002A\u002A*%
X161163000Y-128778000D03*
%TD*%
%TO.C,REF\u002A\u002A*%
X138049000Y-128905000D03*
%TD*%
%TO.C,REF\u002A\u002A*%
X296862500Y-132556250D03*
%TD*%
%TO.C,REF\u002A\u002A*%
X296862500Y-43656250D03*
%TD*%
%TO.C,REF\u002A\u002A*%
X2381250Y-43656250D03*
%TD*%
%TO.C,REF\u002A\u002A*%
X2381250Y-132556250D03*
%TD*%
%TO.C,REF\u002A\u002A*%
X165195250Y-151130000D03*
%TD*%
%TO.C,REF\u002A\u002A*%
X134048500Y-151130000D03*
%TD*%
%TO.C,REF\u002A\u002A*%
X139890500Y-42799000D03*
%TD*%
%TO.C,REF\u002A\u002A*%
X159353250Y-42799000D03*
%TD*%
D11*
%TO.C,SW21*%
X99472750Y-46640750D03*
X89312750Y-46640750D03*
D12*
X94392750Y-46640750D03*
D10*
X90582750Y-44100750D03*
X96932750Y-41560750D03*
%TD*%
D13*
%TO.C,D+*%
X140525500Y-77343000D03*
%TD*%
%TO.C,D-*%
X140525500Y-80264000D03*
%TD*%
D11*
%TO.C,SW45*%
X190881000Y-86645750D03*
X180721000Y-86645750D03*
D12*
X185801000Y-86645750D03*
D10*
X181991000Y-84105750D03*
X188341000Y-81565750D03*
%TD*%
D11*
%TO.C,SW43*%
X190874650Y-48539400D03*
X180714650Y-48539400D03*
D12*
X185794650Y-48539400D03*
D10*
X181984650Y-45999400D03*
X188334650Y-43459400D03*
%TD*%
D11*
%TO.C,SW26*%
X118529100Y-48539400D03*
X108369100Y-48539400D03*
D12*
X113449100Y-48539400D03*
D10*
X109639100Y-45999400D03*
X115989100Y-43459400D03*
%TD*%
D11*
%TO.C,SW16*%
X80422750Y-43719750D03*
X70262750Y-43719750D03*
D12*
X75342750Y-43719750D03*
D10*
X71532750Y-41179750D03*
X77882750Y-38639750D03*
%TD*%
D11*
%TO.C,SW72*%
X290957000Y-126396750D03*
X280797000Y-126396750D03*
D12*
X285877000Y-126396750D03*
D10*
X282067000Y-123856750D03*
X288417000Y-121316750D03*
%TD*%
D11*
%TO.C,SW71*%
X290957000Y-107346750D03*
X280797000Y-107346750D03*
D12*
X285877000Y-107346750D03*
D10*
X282067000Y-104806750D03*
X288417000Y-102266750D03*
%TD*%
D11*
%TO.C,SW70*%
X290957000Y-88296750D03*
X280797000Y-88296750D03*
D12*
X285877000Y-88296750D03*
D10*
X282067000Y-85756750D03*
X288417000Y-83216750D03*
%TD*%
D11*
%TO.C,SW69*%
X290957000Y-69246750D03*
X280797000Y-69246750D03*
D12*
X285877000Y-69246750D03*
D10*
X282067000Y-66706750D03*
X288417000Y-64166750D03*
%TD*%
D11*
%TO.C,SW68*%
X290957000Y-50196750D03*
X280797000Y-50196750D03*
D12*
X285877000Y-50196750D03*
D10*
X282067000Y-47656750D03*
X288417000Y-45116750D03*
%TD*%
D11*
%TO.C,SW67*%
X267081000Y-126396750D03*
X256921000Y-126396750D03*
D12*
X262001000Y-126396750D03*
D10*
X258191000Y-123856750D03*
X264541000Y-121316750D03*
%TD*%
D11*
%TO.C,SW66*%
X267081000Y-107346750D03*
X256921000Y-107346750D03*
D12*
X262001000Y-107346750D03*
D10*
X258191000Y-104806750D03*
X264541000Y-102266750D03*
%TD*%
D11*
%TO.C,SW65*%
X267081000Y-88296750D03*
X256921000Y-88296750D03*
D12*
X262001000Y-88296750D03*
D10*
X258191000Y-85756750D03*
X264541000Y-83216750D03*
%TD*%
D11*
%TO.C,SW64*%
X267081000Y-69246750D03*
X256921000Y-69246750D03*
D12*
X262001000Y-69246750D03*
D10*
X258191000Y-66706750D03*
X264541000Y-64166750D03*
%TD*%
D11*
%TO.C,SW63*%
X267081000Y-50196750D03*
X256921000Y-50196750D03*
D12*
X262001000Y-50196750D03*
D10*
X258191000Y-47656750D03*
X264541000Y-45116750D03*
%TD*%
D11*
%TO.C,SW62*%
X248031000Y-122840750D03*
X237871000Y-122840750D03*
D12*
X242951000Y-122840750D03*
D10*
X239141000Y-120300750D03*
X245491000Y-117760750D03*
%TD*%
D11*
%TO.C,SW61*%
X248031000Y-103790750D03*
X237871000Y-103790750D03*
D12*
X242951000Y-103790750D03*
D10*
X239141000Y-101250750D03*
X245491000Y-98710750D03*
%TD*%
D11*
%TO.C,SW60*%
X248031000Y-84740750D03*
X237871000Y-84740750D03*
D12*
X242951000Y-84740750D03*
D10*
X239141000Y-82200750D03*
X245491000Y-79660750D03*
%TD*%
D11*
%TO.C,SW59*%
X248031000Y-65690750D03*
X237871000Y-65690750D03*
D12*
X242951000Y-65690750D03*
D10*
X239141000Y-63150750D03*
X245491000Y-60610750D03*
%TD*%
D11*
%TO.C,SW58*%
X248031000Y-46640750D03*
X237871000Y-46640750D03*
D12*
X242951000Y-46640750D03*
D10*
X239141000Y-44100750D03*
X245491000Y-41560750D03*
%TD*%
D11*
%TO.C,SW57*%
X228981000Y-119919750D03*
X218821000Y-119919750D03*
D12*
X223901000Y-119919750D03*
D10*
X220091000Y-117379750D03*
X226441000Y-114839750D03*
%TD*%
D11*
%TO.C,SW56*%
X228981000Y-100869750D03*
X218821000Y-100869750D03*
D12*
X223901000Y-100869750D03*
D10*
X220091000Y-98329750D03*
X226441000Y-95789750D03*
%TD*%
D11*
%TO.C,SW55*%
X228981000Y-81819750D03*
X218821000Y-81819750D03*
D12*
X223901000Y-81819750D03*
D10*
X220091000Y-79279750D03*
X226441000Y-76739750D03*
%TD*%
D11*
%TO.C,SW54*%
X228981000Y-62769750D03*
X218821000Y-62769750D03*
D12*
X223901000Y-62769750D03*
D10*
X220091000Y-60229750D03*
X226441000Y-57689750D03*
%TD*%
D11*
%TO.C,SW53*%
X228981000Y-43719750D03*
X218821000Y-43719750D03*
D12*
X223901000Y-43719750D03*
D10*
X220091000Y-41179750D03*
X226441000Y-38639750D03*
%TD*%
D11*
%TO.C,SW52*%
X209931000Y-122840750D03*
X199771000Y-122840750D03*
D12*
X204851000Y-122840750D03*
D10*
X201041000Y-120300750D03*
X207391000Y-117760750D03*
%TD*%
D11*
%TO.C,SW51*%
X209931000Y-103790750D03*
X199771000Y-103790750D03*
D12*
X204851000Y-103790750D03*
D10*
X201041000Y-101250750D03*
X207391000Y-98710750D03*
%TD*%
D11*
%TO.C,SW50*%
X209931000Y-84740750D03*
X199771000Y-84740750D03*
D12*
X204851000Y-84740750D03*
D10*
X201041000Y-82200750D03*
X207391000Y-79660750D03*
%TD*%
D11*
%TO.C,SW49*%
X209931000Y-65690750D03*
X199771000Y-65690750D03*
D12*
X204851000Y-65690750D03*
D10*
X201041000Y-63150750D03*
X207391000Y-60610750D03*
%TD*%
D11*
%TO.C,SW48*%
X209931000Y-46640750D03*
X199771000Y-46640750D03*
D12*
X204851000Y-46640750D03*
D10*
X201041000Y-44100750D03*
X207391000Y-41560750D03*
%TD*%
D11*
%TO.C,SW47*%
X186644410Y-125716159D03*
X177845591Y-130796159D03*
D12*
X182245000Y-128256159D03*
D10*
X177675444Y-127961455D03*
X181904705Y-122586750D03*
%TD*%
D11*
%TO.C,SW46*%
X190881000Y-105695750D03*
X180721000Y-105695750D03*
D12*
X185801000Y-105695750D03*
D10*
X181991000Y-103155750D03*
X188341000Y-100615750D03*
%TD*%
D11*
%TO.C,SW44*%
X190881000Y-67595750D03*
X180721000Y-67595750D03*
D12*
X185801000Y-67595750D03*
D10*
X181991000Y-65055750D03*
X188341000Y-62515750D03*
%TD*%
D11*
%TO.C,SW42*%
X168819103Y-137663647D03*
X161634898Y-144847852D03*
D12*
X165227000Y-141255750D03*
D10*
X160736872Y-142153775D03*
X163430949Y-135867596D03*
%TD*%
D11*
%TO.C,SW41*%
X171831000Y-107346750D03*
X161671000Y-107346750D03*
D12*
X166751000Y-107346750D03*
D10*
X162941000Y-104806750D03*
X169291000Y-102266750D03*
%TD*%
D11*
%TO.C,SW40*%
X171831000Y-88296750D03*
X161671000Y-88296750D03*
D12*
X166751000Y-88296750D03*
D10*
X162941000Y-85756750D03*
X169291000Y-83216750D03*
%TD*%
D11*
%TO.C,SW39*%
X171831000Y-69246750D03*
X161671000Y-69246750D03*
D12*
X166751000Y-69246750D03*
D10*
X162941000Y-66706750D03*
X169291000Y-64166750D03*
%TD*%
D11*
%TO.C,SW38*%
X171831000Y-50196750D03*
X161671000Y-50196750D03*
D12*
X166751000Y-50196750D03*
D10*
X162941000Y-47656750D03*
X169291000Y-45116750D03*
%TD*%
%TO.C,D68*%
G36*
G01*
X294754000Y-85131750D02*
X294754000Y-86381750D01*
G75*
G02*
X294504000Y-86631750I-250000J0D01*
G01*
X293754000Y-86631750D01*
G75*
G02*
X293504000Y-86381750I0J250000D01*
G01*
X293504000Y-85131750D01*
G75*
G02*
X293754000Y-84881750I250000J0D01*
G01*
X294504000Y-84881750D01*
G75*
G02*
X294754000Y-85131750I0J-250000D01*
G01*
G37*
G36*
G01*
X297554000Y-85131750D02*
X297554000Y-86381750D01*
G75*
G02*
X297304000Y-86631750I-250000J0D01*
G01*
X296554000Y-86631750D01*
G75*
G02*
X296304000Y-86381750I0J250000D01*
G01*
X296304000Y-85131750D01*
G75*
G02*
X296554000Y-84881750I250000J0D01*
G01*
X297304000Y-84881750D01*
G75*
G02*
X297554000Y-85131750I0J-250000D01*
G01*
G37*
%TD*%
%TO.C,D60*%
G36*
G01*
X251698000Y-119675750D02*
X251698000Y-120925750D01*
G75*
G02*
X251448000Y-121175750I-250000J0D01*
G01*
X250698000Y-121175750D01*
G75*
G02*
X250448000Y-120925750I0J250000D01*
G01*
X250448000Y-119675750D01*
G75*
G02*
X250698000Y-119425750I250000J0D01*
G01*
X251448000Y-119425750D01*
G75*
G02*
X251698000Y-119675750I0J-250000D01*
G01*
G37*
G36*
G01*
X254498000Y-119675750D02*
X254498000Y-120925750D01*
G75*
G02*
X254248000Y-121175750I-250000J0D01*
G01*
X253498000Y-121175750D01*
G75*
G02*
X253248000Y-120925750I0J250000D01*
G01*
X253248000Y-119675750D01*
G75*
G02*
X253498000Y-119425750I250000J0D01*
G01*
X254248000Y-119425750D01*
G75*
G02*
X254498000Y-119675750I0J-250000D01*
G01*
G37*
%TD*%
%TO.C,D45*%
G36*
G01*
X188430894Y-121100984D02*
X189055894Y-122183516D01*
G75*
G02*
X188964388Y-122525022I-216506J-125000D01*
G01*
X188314868Y-122900022D01*
G75*
G02*
X187973362Y-122808516I-125000J216506D01*
G01*
X187348362Y-121725984D01*
G75*
G02*
X187439868Y-121384478I216506J125000D01*
G01*
X188089388Y-121009478D01*
G75*
G02*
X188430894Y-121100984I125000J-216506D01*
G01*
G37*
G36*
G01*
X190855766Y-119700984D02*
X191480766Y-120783516D01*
G75*
G02*
X191389260Y-121125022I-216506J-125000D01*
G01*
X190739740Y-121500022D01*
G75*
G02*
X190398234Y-121408516I-125000J216506D01*
G01*
X189773234Y-120325984D01*
G75*
G02*
X189864740Y-119984478I216506J125000D01*
G01*
X190514260Y-119609478D01*
G75*
G02*
X190855766Y-119700984I125000J-216506D01*
G01*
G37*
%TD*%
D14*
%TO.C,J1*%
X129306250Y-38176250D03*
X130106250Y-38176250D03*
X135006250Y-38176250D03*
X135806250Y-38176250D03*
X135806250Y-38176250D03*
X135006250Y-38176250D03*
X130106250Y-38176250D03*
X129306250Y-38176250D03*
D15*
X134306250Y-38176250D03*
X133806250Y-38176250D03*
X133306250Y-38176250D03*
X132306250Y-38176250D03*
X131806250Y-38176250D03*
X131306250Y-38176250D03*
X130806250Y-38176250D03*
X132806250Y-38176250D03*
D16*
X128236250Y-37261250D03*
X136876250Y-37261250D03*
D17*
X135446250Y-36731250D03*
D18*
X136876250Y-33081250D03*
D17*
X129666250Y-36731250D03*
D18*
X128236250Y-33081250D03*
%TD*%
D11*
%TO.C,SW35*%
X137554699Y-144865904D03*
X130370494Y-137681699D03*
D12*
X133962596Y-141273801D03*
D10*
X133064571Y-136783673D03*
X139350750Y-139477750D03*
%TD*%
D11*
%TO.C,SW34*%
X137572750Y-107346750D03*
X127412750Y-107346750D03*
D12*
X132492750Y-107346750D03*
D10*
X128682750Y-104806750D03*
X135032750Y-102266750D03*
%TD*%
D11*
%TO.C,SW33*%
X137572750Y-88296750D03*
X127412750Y-88296750D03*
D12*
X132492750Y-88296750D03*
D10*
X128682750Y-85756750D03*
X135032750Y-83216750D03*
%TD*%
D11*
%TO.C,SW32*%
X137572750Y-69246750D03*
X127412750Y-69246750D03*
D12*
X132492750Y-69246750D03*
D10*
X128682750Y-66706750D03*
X135032750Y-64166750D03*
%TD*%
D11*
%TO.C,SW31*%
X137572750Y-50196750D03*
X127412750Y-50196750D03*
D12*
X132492750Y-50196750D03*
D10*
X128682750Y-47656750D03*
X135032750Y-45116750D03*
%TD*%
D11*
%TO.C,SW30*%
X121398160Y-130841750D03*
X112599341Y-125761750D03*
D12*
X116998750Y-128301750D03*
D10*
X114969194Y-124197046D03*
X121738455Y-125172341D03*
%TD*%
D11*
%TO.C,SW29*%
X118522750Y-105695750D03*
X108362750Y-105695750D03*
D12*
X113442750Y-105695750D03*
D10*
X109632750Y-103155750D03*
X115982750Y-100615750D03*
%TD*%
D11*
%TO.C,SW28*%
X118522750Y-86645750D03*
X108362750Y-86645750D03*
D12*
X113442750Y-86645750D03*
D10*
X109632750Y-84105750D03*
X115982750Y-81565750D03*
%TD*%
D11*
%TO.C,SW27*%
X118522750Y-67595750D03*
X108362750Y-67595750D03*
D12*
X113442750Y-67595750D03*
D10*
X109632750Y-65055750D03*
X115982750Y-62515750D03*
%TD*%
D11*
%TO.C,SW25*%
X99472750Y-122840750D03*
X89312750Y-122840750D03*
D12*
X94392750Y-122840750D03*
D10*
X90582750Y-120300750D03*
X96932750Y-117760750D03*
%TD*%
D11*
%TO.C,SW24*%
X99472750Y-103790750D03*
X89312750Y-103790750D03*
D12*
X94392750Y-103790750D03*
D10*
X90582750Y-101250750D03*
X96932750Y-98710750D03*
%TD*%
D11*
%TO.C,SW23*%
X99472750Y-84740750D03*
X89312750Y-84740750D03*
D12*
X94392750Y-84740750D03*
D10*
X90582750Y-82200750D03*
X96932750Y-79660750D03*
%TD*%
D11*
%TO.C,SW22*%
X99472750Y-65690750D03*
X89312750Y-65690750D03*
D12*
X94392750Y-65690750D03*
D10*
X90582750Y-63150750D03*
X96932750Y-60610750D03*
%TD*%
D11*
%TO.C,SW20*%
X80422750Y-119919750D03*
X70262750Y-119919750D03*
D12*
X75342750Y-119919750D03*
D10*
X71532750Y-117379750D03*
X77882750Y-114839750D03*
%TD*%
D11*
%TO.C,SW19*%
X80422750Y-100869750D03*
X70262750Y-100869750D03*
D12*
X75342750Y-100869750D03*
D10*
X71532750Y-98329750D03*
X77882750Y-95789750D03*
%TD*%
D11*
%TO.C,SW18*%
X80422750Y-81819750D03*
X70262750Y-81819750D03*
D12*
X75342750Y-81819750D03*
D10*
X71532750Y-79279750D03*
X77882750Y-76739750D03*
%TD*%
D11*
%TO.C,SW17*%
X80422750Y-62769750D03*
X70262750Y-62769750D03*
D12*
X75342750Y-62769750D03*
D10*
X71532750Y-60229750D03*
X77882750Y-57689750D03*
%TD*%
D11*
%TO.C,SW15*%
X61372750Y-122840750D03*
X51212750Y-122840750D03*
D12*
X56292750Y-122840750D03*
D10*
X52482750Y-120300750D03*
X58832750Y-117760750D03*
%TD*%
D11*
%TO.C,SW14*%
X61372750Y-103790750D03*
X51212750Y-103790750D03*
D12*
X56292750Y-103790750D03*
D10*
X52482750Y-101250750D03*
X58832750Y-98710750D03*
%TD*%
D11*
%TO.C,SW13*%
X61372750Y-84740750D03*
X51212750Y-84740750D03*
D12*
X56292750Y-84740750D03*
D10*
X52482750Y-82200750D03*
X58832750Y-79660750D03*
%TD*%
D11*
%TO.C,SW12*%
X61372750Y-65690750D03*
X51212750Y-65690750D03*
D12*
X56292750Y-65690750D03*
D10*
X52482750Y-63150750D03*
X58832750Y-60610750D03*
%TD*%
D11*
%TO.C,SW11*%
X61372750Y-46640750D03*
X51212750Y-46640750D03*
D12*
X56292750Y-46640750D03*
D10*
X52482750Y-44100750D03*
X58832750Y-41560750D03*
%TD*%
D11*
%TO.C,SW10*%
X42322750Y-126396750D03*
X32162750Y-126396750D03*
D12*
X37242750Y-126396750D03*
D10*
X33432750Y-123856750D03*
X39782750Y-121316750D03*
%TD*%
D11*
%TO.C,SW9*%
X42322750Y-107346750D03*
X32162750Y-107346750D03*
D12*
X37242750Y-107346750D03*
D10*
X33432750Y-104806750D03*
X39782750Y-102266750D03*
%TD*%
D11*
%TO.C,SW8*%
X42322750Y-88296750D03*
X32162750Y-88296750D03*
D12*
X37242750Y-88296750D03*
D10*
X33432750Y-85756750D03*
X39782750Y-83216750D03*
%TD*%
D11*
%TO.C,SW7*%
X42322750Y-69246750D03*
X32162750Y-69246750D03*
D12*
X37242750Y-69246750D03*
D10*
X33432750Y-66706750D03*
X39782750Y-64166750D03*
%TD*%
D11*
%TO.C,SW6*%
X42322750Y-50196750D03*
X32162750Y-50196750D03*
D12*
X37242750Y-50196750D03*
D10*
X33432750Y-47656750D03*
X39782750Y-45116750D03*
%TD*%
D11*
%TO.C,SW5*%
X18446750Y-126396750D03*
X8286750Y-126396750D03*
D12*
X13366750Y-126396750D03*
D10*
X9556750Y-123856750D03*
X15906750Y-121316750D03*
%TD*%
D11*
%TO.C,SW4*%
X18446750Y-107346750D03*
X8286750Y-107346750D03*
D12*
X13366750Y-107346750D03*
D10*
X9556750Y-104806750D03*
X15906750Y-102266750D03*
%TD*%
D11*
%TO.C,SW3*%
X18446750Y-88296750D03*
X8286750Y-88296750D03*
D12*
X13366750Y-88296750D03*
D10*
X9556750Y-85756750D03*
X15906750Y-83216750D03*
%TD*%
D11*
%TO.C,SW2*%
X18446750Y-69246750D03*
X8286750Y-69246750D03*
D12*
X13366750Y-69246750D03*
D10*
X9556750Y-66706750D03*
X15906750Y-64166750D03*
%TD*%
D11*
%TO.C,SW1*%
X18446750Y-50196750D03*
X8286750Y-50196750D03*
D12*
X13366750Y-50196750D03*
D10*
X9556750Y-47656750D03*
X15906750Y-45116750D03*
%TD*%
D19*
%TO.C,J3*%
X164245777Y-120273101D03*
X163377536Y-125197140D03*
D20*
X167360179Y-125645531D03*
D21*
G36*
X167041063Y-121984498D02*
G01*
X167370994Y-120113363D01*
X169242129Y-120443294D01*
X168912198Y-122314429D01*
X167041063Y-121984498D01*
G37*
D20*
X159861250Y-124983294D03*
X160868409Y-119271409D03*
%TD*%
D19*
%TO.C,J2*%
X135830601Y-125324140D03*
X134962360Y-120400101D03*
D20*
X131066541Y-121340896D03*
D21*
G36*
X132618560Y-124671998D02*
G01*
X132948491Y-126543133D01*
X131077356Y-126873064D01*
X130747425Y-125001929D01*
X132618560Y-124671998D01*
G37*
D20*
X138339728Y-119398409D03*
X139346887Y-125110294D03*
%TD*%
%TO.C,D70*%
G36*
G01*
X294754000Y-123231750D02*
X294754000Y-124481750D01*
G75*
G02*
X294504000Y-124731750I-250000J0D01*
G01*
X293754000Y-124731750D01*
G75*
G02*
X293504000Y-124481750I0J250000D01*
G01*
X293504000Y-123231750D01*
G75*
G02*
X293754000Y-122981750I250000J0D01*
G01*
X294504000Y-122981750D01*
G75*
G02*
X294754000Y-123231750I0J-250000D01*
G01*
G37*
G36*
G01*
X297554000Y-123231750D02*
X297554000Y-124481750D01*
G75*
G02*
X297304000Y-124731750I-250000J0D01*
G01*
X296554000Y-124731750D01*
G75*
G02*
X296304000Y-124481750I0J250000D01*
G01*
X296304000Y-123231750D01*
G75*
G02*
X296554000Y-122981750I250000J0D01*
G01*
X297304000Y-122981750D01*
G75*
G02*
X297554000Y-123231750I0J-250000D01*
G01*
G37*
%TD*%
%TO.C,D69*%
G36*
G01*
X294754000Y-104181750D02*
X294754000Y-105431750D01*
G75*
G02*
X294504000Y-105681750I-250000J0D01*
G01*
X293754000Y-105681750D01*
G75*
G02*
X293504000Y-105431750I0J250000D01*
G01*
X293504000Y-104181750D01*
G75*
G02*
X293754000Y-103931750I250000J0D01*
G01*
X294504000Y-103931750D01*
G75*
G02*
X294754000Y-104181750I0J-250000D01*
G01*
G37*
G36*
G01*
X297554000Y-104181750D02*
X297554000Y-105431750D01*
G75*
G02*
X297304000Y-105681750I-250000J0D01*
G01*
X296554000Y-105681750D01*
G75*
G02*
X296304000Y-105431750I0J250000D01*
G01*
X296304000Y-104181750D01*
G75*
G02*
X296554000Y-103931750I250000J0D01*
G01*
X297304000Y-103931750D01*
G75*
G02*
X297554000Y-104181750I0J-250000D01*
G01*
G37*
%TD*%
%TO.C,D67*%
G36*
G01*
X294754000Y-66081750D02*
X294754000Y-67331750D01*
G75*
G02*
X294504000Y-67581750I-250000J0D01*
G01*
X293754000Y-67581750D01*
G75*
G02*
X293504000Y-67331750I0J250000D01*
G01*
X293504000Y-66081750D01*
G75*
G02*
X293754000Y-65831750I250000J0D01*
G01*
X294504000Y-65831750D01*
G75*
G02*
X294754000Y-66081750I0J-250000D01*
G01*
G37*
G36*
G01*
X297554000Y-66081750D02*
X297554000Y-67331750D01*
G75*
G02*
X297304000Y-67581750I-250000J0D01*
G01*
X296554000Y-67581750D01*
G75*
G02*
X296304000Y-67331750I0J250000D01*
G01*
X296304000Y-66081750D01*
G75*
G02*
X296554000Y-65831750I250000J0D01*
G01*
X297304000Y-65831750D01*
G75*
G02*
X297554000Y-66081750I0J-250000D01*
G01*
G37*
%TD*%
%TO.C,D66*%
G36*
G01*
X294754000Y-48016000D02*
X294754000Y-49266000D01*
G75*
G02*
X294504000Y-49516000I-250000J0D01*
G01*
X293754000Y-49516000D01*
G75*
G02*
X293504000Y-49266000I0J250000D01*
G01*
X293504000Y-48016000D01*
G75*
G02*
X293754000Y-47766000I250000J0D01*
G01*
X294504000Y-47766000D01*
G75*
G02*
X294754000Y-48016000I0J-250000D01*
G01*
G37*
G36*
G01*
X297554000Y-48016000D02*
X297554000Y-49266000D01*
G75*
G02*
X297304000Y-49516000I-250000J0D01*
G01*
X296554000Y-49516000D01*
G75*
G02*
X296304000Y-49266000I0J250000D01*
G01*
X296304000Y-48016000D01*
G75*
G02*
X296554000Y-47766000I250000J0D01*
G01*
X297304000Y-47766000D01*
G75*
G02*
X297554000Y-48016000I0J-250000D01*
G01*
G37*
%TD*%
%TO.C,D65*%
G36*
G01*
X270751000Y-123231750D02*
X270751000Y-124481750D01*
G75*
G02*
X270501000Y-124731750I-250000J0D01*
G01*
X269751000Y-124731750D01*
G75*
G02*
X269501000Y-124481750I0J250000D01*
G01*
X269501000Y-123231750D01*
G75*
G02*
X269751000Y-122981750I250000J0D01*
G01*
X270501000Y-122981750D01*
G75*
G02*
X270751000Y-123231750I0J-250000D01*
G01*
G37*
G36*
G01*
X273551000Y-123231750D02*
X273551000Y-124481750D01*
G75*
G02*
X273301000Y-124731750I-250000J0D01*
G01*
X272551000Y-124731750D01*
G75*
G02*
X272301000Y-124481750I0J250000D01*
G01*
X272301000Y-123231750D01*
G75*
G02*
X272551000Y-122981750I250000J0D01*
G01*
X273301000Y-122981750D01*
G75*
G02*
X273551000Y-123231750I0J-250000D01*
G01*
G37*
%TD*%
%TO.C,D64*%
G36*
G01*
X270751000Y-104181750D02*
X270751000Y-105431750D01*
G75*
G02*
X270501000Y-105681750I-250000J0D01*
G01*
X269751000Y-105681750D01*
G75*
G02*
X269501000Y-105431750I0J250000D01*
G01*
X269501000Y-104181750D01*
G75*
G02*
X269751000Y-103931750I250000J0D01*
G01*
X270501000Y-103931750D01*
G75*
G02*
X270751000Y-104181750I0J-250000D01*
G01*
G37*
G36*
G01*
X273551000Y-104181750D02*
X273551000Y-105431750D01*
G75*
G02*
X273301000Y-105681750I-250000J0D01*
G01*
X272551000Y-105681750D01*
G75*
G02*
X272301000Y-105431750I0J250000D01*
G01*
X272301000Y-104181750D01*
G75*
G02*
X272551000Y-103931750I250000J0D01*
G01*
X273301000Y-103931750D01*
G75*
G02*
X273551000Y-104181750I0J-250000D01*
G01*
G37*
%TD*%
%TO.C,D63*%
G36*
G01*
X270748000Y-85131750D02*
X270748000Y-86381750D01*
G75*
G02*
X270498000Y-86631750I-250000J0D01*
G01*
X269748000Y-86631750D01*
G75*
G02*
X269498000Y-86381750I0J250000D01*
G01*
X269498000Y-85131750D01*
G75*
G02*
X269748000Y-84881750I250000J0D01*
G01*
X270498000Y-84881750D01*
G75*
G02*
X270748000Y-85131750I0J-250000D01*
G01*
G37*
G36*
G01*
X273548000Y-85131750D02*
X273548000Y-86381750D01*
G75*
G02*
X273298000Y-86631750I-250000J0D01*
G01*
X272548000Y-86631750D01*
G75*
G02*
X272298000Y-86381750I0J250000D01*
G01*
X272298000Y-85131750D01*
G75*
G02*
X272548000Y-84881750I250000J0D01*
G01*
X273298000Y-84881750D01*
G75*
G02*
X273548000Y-85131750I0J-250000D01*
G01*
G37*
%TD*%
%TO.C,D62*%
G36*
G01*
X270751000Y-66081750D02*
X270751000Y-67331750D01*
G75*
G02*
X270501000Y-67581750I-250000J0D01*
G01*
X269751000Y-67581750D01*
G75*
G02*
X269501000Y-67331750I0J250000D01*
G01*
X269501000Y-66081750D01*
G75*
G02*
X269751000Y-65831750I250000J0D01*
G01*
X270501000Y-65831750D01*
G75*
G02*
X270751000Y-66081750I0J-250000D01*
G01*
G37*
G36*
G01*
X273551000Y-66081750D02*
X273551000Y-67331750D01*
G75*
G02*
X273301000Y-67581750I-250000J0D01*
G01*
X272551000Y-67581750D01*
G75*
G02*
X272301000Y-67331750I0J250000D01*
G01*
X272301000Y-66081750D01*
G75*
G02*
X272551000Y-65831750I250000J0D01*
G01*
X273301000Y-65831750D01*
G75*
G02*
X273551000Y-66081750I0J-250000D01*
G01*
G37*
%TD*%
%TO.C,D61*%
G36*
G01*
X270751000Y-47031750D02*
X270751000Y-48281750D01*
G75*
G02*
X270501000Y-48531750I-250000J0D01*
G01*
X269751000Y-48531750D01*
G75*
G02*
X269501000Y-48281750I0J250000D01*
G01*
X269501000Y-47031750D01*
G75*
G02*
X269751000Y-46781750I250000J0D01*
G01*
X270501000Y-46781750D01*
G75*
G02*
X270751000Y-47031750I0J-250000D01*
G01*
G37*
G36*
G01*
X273551000Y-47031750D02*
X273551000Y-48281750D01*
G75*
G02*
X273301000Y-48531750I-250000J0D01*
G01*
X272551000Y-48531750D01*
G75*
G02*
X272301000Y-48281750I0J250000D01*
G01*
X272301000Y-47031750D01*
G75*
G02*
X272551000Y-46781750I250000J0D01*
G01*
X273301000Y-46781750D01*
G75*
G02*
X273551000Y-47031750I0J-250000D01*
G01*
G37*
%TD*%
%TO.C,D59*%
G36*
G01*
X251701000Y-100625750D02*
X251701000Y-101875750D01*
G75*
G02*
X251451000Y-102125750I-250000J0D01*
G01*
X250701000Y-102125750D01*
G75*
G02*
X250451000Y-101875750I0J250000D01*
G01*
X250451000Y-100625750D01*
G75*
G02*
X250701000Y-100375750I250000J0D01*
G01*
X251451000Y-100375750D01*
G75*
G02*
X251701000Y-100625750I0J-250000D01*
G01*
G37*
G36*
G01*
X254501000Y-100625750D02*
X254501000Y-101875750D01*
G75*
G02*
X254251000Y-102125750I-250000J0D01*
G01*
X253501000Y-102125750D01*
G75*
G02*
X253251000Y-101875750I0J250000D01*
G01*
X253251000Y-100625750D01*
G75*
G02*
X253501000Y-100375750I250000J0D01*
G01*
X254251000Y-100375750D01*
G75*
G02*
X254501000Y-100625750I0J-250000D01*
G01*
G37*
%TD*%
%TO.C,D58*%
G36*
G01*
X251701000Y-81575750D02*
X251701000Y-82825750D01*
G75*
G02*
X251451000Y-83075750I-250000J0D01*
G01*
X250701000Y-83075750D01*
G75*
G02*
X250451000Y-82825750I0J250000D01*
G01*
X250451000Y-81575750D01*
G75*
G02*
X250701000Y-81325750I250000J0D01*
G01*
X251451000Y-81325750D01*
G75*
G02*
X251701000Y-81575750I0J-250000D01*
G01*
G37*
G36*
G01*
X254501000Y-81575750D02*
X254501000Y-82825750D01*
G75*
G02*
X254251000Y-83075750I-250000J0D01*
G01*
X253501000Y-83075750D01*
G75*
G02*
X253251000Y-82825750I0J250000D01*
G01*
X253251000Y-81575750D01*
G75*
G02*
X253501000Y-81325750I250000J0D01*
G01*
X254251000Y-81325750D01*
G75*
G02*
X254501000Y-81575750I0J-250000D01*
G01*
G37*
%TD*%
%TO.C,D57*%
G36*
G01*
X251701000Y-62525750D02*
X251701000Y-63775750D01*
G75*
G02*
X251451000Y-64025750I-250000J0D01*
G01*
X250701000Y-64025750D01*
G75*
G02*
X250451000Y-63775750I0J250000D01*
G01*
X250451000Y-62525750D01*
G75*
G02*
X250701000Y-62275750I250000J0D01*
G01*
X251451000Y-62275750D01*
G75*
G02*
X251701000Y-62525750I0J-250000D01*
G01*
G37*
G36*
G01*
X254501000Y-62525750D02*
X254501000Y-63775750D01*
G75*
G02*
X254251000Y-64025750I-250000J0D01*
G01*
X253501000Y-64025750D01*
G75*
G02*
X253251000Y-63775750I0J250000D01*
G01*
X253251000Y-62525750D01*
G75*
G02*
X253501000Y-62275750I250000J0D01*
G01*
X254251000Y-62275750D01*
G75*
G02*
X254501000Y-62525750I0J-250000D01*
G01*
G37*
%TD*%
%TO.C,D56*%
G36*
G01*
X251701000Y-43475750D02*
X251701000Y-44725750D01*
G75*
G02*
X251451000Y-44975750I-250000J0D01*
G01*
X250701000Y-44975750D01*
G75*
G02*
X250451000Y-44725750I0J250000D01*
G01*
X250451000Y-43475750D01*
G75*
G02*
X250701000Y-43225750I250000J0D01*
G01*
X251451000Y-43225750D01*
G75*
G02*
X251701000Y-43475750I0J-250000D01*
G01*
G37*
G36*
G01*
X254501000Y-43475750D02*
X254501000Y-44725750D01*
G75*
G02*
X254251000Y-44975750I-250000J0D01*
G01*
X253501000Y-44975750D01*
G75*
G02*
X253251000Y-44725750I0J250000D01*
G01*
X253251000Y-43475750D01*
G75*
G02*
X253501000Y-43225750I250000J0D01*
G01*
X254251000Y-43225750D01*
G75*
G02*
X254501000Y-43475750I0J-250000D01*
G01*
G37*
%TD*%
%TO.C,D55*%
G36*
G01*
X232651000Y-116754750D02*
X232651000Y-118004750D01*
G75*
G02*
X232401000Y-118254750I-250000J0D01*
G01*
X231651000Y-118254750D01*
G75*
G02*
X231401000Y-118004750I0J250000D01*
G01*
X231401000Y-116754750D01*
G75*
G02*
X231651000Y-116504750I250000J0D01*
G01*
X232401000Y-116504750D01*
G75*
G02*
X232651000Y-116754750I0J-250000D01*
G01*
G37*
G36*
G01*
X235451000Y-116754750D02*
X235451000Y-118004750D01*
G75*
G02*
X235201000Y-118254750I-250000J0D01*
G01*
X234451000Y-118254750D01*
G75*
G02*
X234201000Y-118004750I0J250000D01*
G01*
X234201000Y-116754750D01*
G75*
G02*
X234451000Y-116504750I250000J0D01*
G01*
X235201000Y-116504750D01*
G75*
G02*
X235451000Y-116754750I0J-250000D01*
G01*
G37*
%TD*%
%TO.C,D54*%
G36*
G01*
X232651000Y-97704750D02*
X232651000Y-98954750D01*
G75*
G02*
X232401000Y-99204750I-250000J0D01*
G01*
X231651000Y-99204750D01*
G75*
G02*
X231401000Y-98954750I0J250000D01*
G01*
X231401000Y-97704750D01*
G75*
G02*
X231651000Y-97454750I250000J0D01*
G01*
X232401000Y-97454750D01*
G75*
G02*
X232651000Y-97704750I0J-250000D01*
G01*
G37*
G36*
G01*
X235451000Y-97704750D02*
X235451000Y-98954750D01*
G75*
G02*
X235201000Y-99204750I-250000J0D01*
G01*
X234451000Y-99204750D01*
G75*
G02*
X234201000Y-98954750I0J250000D01*
G01*
X234201000Y-97704750D01*
G75*
G02*
X234451000Y-97454750I250000J0D01*
G01*
X235201000Y-97454750D01*
G75*
G02*
X235451000Y-97704750I0J-250000D01*
G01*
G37*
%TD*%
%TO.C,D53*%
G36*
G01*
X232711500Y-78654750D02*
X232711500Y-79904750D01*
G75*
G02*
X232461500Y-80154750I-250000J0D01*
G01*
X231711500Y-80154750D01*
G75*
G02*
X231461500Y-79904750I0J250000D01*
G01*
X231461500Y-78654750D01*
G75*
G02*
X231711500Y-78404750I250000J0D01*
G01*
X232461500Y-78404750D01*
G75*
G02*
X232711500Y-78654750I0J-250000D01*
G01*
G37*
G36*
G01*
X235511500Y-78654750D02*
X235511500Y-79904750D01*
G75*
G02*
X235261500Y-80154750I-250000J0D01*
G01*
X234511500Y-80154750D01*
G75*
G02*
X234261500Y-79904750I0J250000D01*
G01*
X234261500Y-78654750D01*
G75*
G02*
X234511500Y-78404750I250000J0D01*
G01*
X235261500Y-78404750D01*
G75*
G02*
X235511500Y-78654750I0J-250000D01*
G01*
G37*
%TD*%
%TO.C,D52*%
G36*
G01*
X232651000Y-59604750D02*
X232651000Y-60854750D01*
G75*
G02*
X232401000Y-61104750I-250000J0D01*
G01*
X231651000Y-61104750D01*
G75*
G02*
X231401000Y-60854750I0J250000D01*
G01*
X231401000Y-59604750D01*
G75*
G02*
X231651000Y-59354750I250000J0D01*
G01*
X232401000Y-59354750D01*
G75*
G02*
X232651000Y-59604750I0J-250000D01*
G01*
G37*
G36*
G01*
X235451000Y-59604750D02*
X235451000Y-60854750D01*
G75*
G02*
X235201000Y-61104750I-250000J0D01*
G01*
X234451000Y-61104750D01*
G75*
G02*
X234201000Y-60854750I0J250000D01*
G01*
X234201000Y-59604750D01*
G75*
G02*
X234451000Y-59354750I250000J0D01*
G01*
X235201000Y-59354750D01*
G75*
G02*
X235451000Y-59604750I0J-250000D01*
G01*
G37*
%TD*%
%TO.C,D51*%
G36*
G01*
X232648000Y-40554750D02*
X232648000Y-41804750D01*
G75*
G02*
X232398000Y-42054750I-250000J0D01*
G01*
X231648000Y-42054750D01*
G75*
G02*
X231398000Y-41804750I0J250000D01*
G01*
X231398000Y-40554750D01*
G75*
G02*
X231648000Y-40304750I250000J0D01*
G01*
X232398000Y-40304750D01*
G75*
G02*
X232648000Y-40554750I0J-250000D01*
G01*
G37*
G36*
G01*
X235448000Y-40554750D02*
X235448000Y-41804750D01*
G75*
G02*
X235198000Y-42054750I-250000J0D01*
G01*
X234448000Y-42054750D01*
G75*
G02*
X234198000Y-41804750I0J250000D01*
G01*
X234198000Y-40554750D01*
G75*
G02*
X234448000Y-40304750I250000J0D01*
G01*
X235198000Y-40304750D01*
G75*
G02*
X235448000Y-40554750I0J-250000D01*
G01*
G37*
%TD*%
%TO.C,D50*%
G36*
G01*
X213601000Y-119675750D02*
X213601000Y-120925750D01*
G75*
G02*
X213351000Y-121175750I-250000J0D01*
G01*
X212601000Y-121175750D01*
G75*
G02*
X212351000Y-120925750I0J250000D01*
G01*
X212351000Y-119675750D01*
G75*
G02*
X212601000Y-119425750I250000J0D01*
G01*
X213351000Y-119425750D01*
G75*
G02*
X213601000Y-119675750I0J-250000D01*
G01*
G37*
G36*
G01*
X216401000Y-119675750D02*
X216401000Y-120925750D01*
G75*
G02*
X216151000Y-121175750I-250000J0D01*
G01*
X215401000Y-121175750D01*
G75*
G02*
X215151000Y-120925750I0J250000D01*
G01*
X215151000Y-119675750D01*
G75*
G02*
X215401000Y-119425750I250000J0D01*
G01*
X216151000Y-119425750D01*
G75*
G02*
X216401000Y-119675750I0J-250000D01*
G01*
G37*
%TD*%
%TO.C,D49*%
G36*
G01*
X213601000Y-100625750D02*
X213601000Y-101875750D01*
G75*
G02*
X213351000Y-102125750I-250000J0D01*
G01*
X212601000Y-102125750D01*
G75*
G02*
X212351000Y-101875750I0J250000D01*
G01*
X212351000Y-100625750D01*
G75*
G02*
X212601000Y-100375750I250000J0D01*
G01*
X213351000Y-100375750D01*
G75*
G02*
X213601000Y-100625750I0J-250000D01*
G01*
G37*
G36*
G01*
X216401000Y-100625750D02*
X216401000Y-101875750D01*
G75*
G02*
X216151000Y-102125750I-250000J0D01*
G01*
X215401000Y-102125750D01*
G75*
G02*
X215151000Y-101875750I0J250000D01*
G01*
X215151000Y-100625750D01*
G75*
G02*
X215401000Y-100375750I250000J0D01*
G01*
X216151000Y-100375750D01*
G75*
G02*
X216401000Y-100625750I0J-250000D01*
G01*
G37*
%TD*%
%TO.C,D48*%
G36*
G01*
X213601000Y-81575750D02*
X213601000Y-82825750D01*
G75*
G02*
X213351000Y-83075750I-250000J0D01*
G01*
X212601000Y-83075750D01*
G75*
G02*
X212351000Y-82825750I0J250000D01*
G01*
X212351000Y-81575750D01*
G75*
G02*
X212601000Y-81325750I250000J0D01*
G01*
X213351000Y-81325750D01*
G75*
G02*
X213601000Y-81575750I0J-250000D01*
G01*
G37*
G36*
G01*
X216401000Y-81575750D02*
X216401000Y-82825750D01*
G75*
G02*
X216151000Y-83075750I-250000J0D01*
G01*
X215401000Y-83075750D01*
G75*
G02*
X215151000Y-82825750I0J250000D01*
G01*
X215151000Y-81575750D01*
G75*
G02*
X215401000Y-81325750I250000J0D01*
G01*
X216151000Y-81325750D01*
G75*
G02*
X216401000Y-81575750I0J-250000D01*
G01*
G37*
%TD*%
%TO.C,D47*%
G36*
G01*
X213664500Y-62525750D02*
X213664500Y-63775750D01*
G75*
G02*
X213414500Y-64025750I-250000J0D01*
G01*
X212664500Y-64025750D01*
G75*
G02*
X212414500Y-63775750I0J250000D01*
G01*
X212414500Y-62525750D01*
G75*
G02*
X212664500Y-62275750I250000J0D01*
G01*
X213414500Y-62275750D01*
G75*
G02*
X213664500Y-62525750I0J-250000D01*
G01*
G37*
G36*
G01*
X216464500Y-62525750D02*
X216464500Y-63775750D01*
G75*
G02*
X216214500Y-64025750I-250000J0D01*
G01*
X215464500Y-64025750D01*
G75*
G02*
X215214500Y-63775750I0J250000D01*
G01*
X215214500Y-62525750D01*
G75*
G02*
X215464500Y-62275750I250000J0D01*
G01*
X216214500Y-62275750D01*
G75*
G02*
X216464500Y-62525750I0J-250000D01*
G01*
G37*
%TD*%
%TO.C,D46*%
G36*
G01*
X213601000Y-43475750D02*
X213601000Y-44725750D01*
G75*
G02*
X213351000Y-44975750I-250000J0D01*
G01*
X212601000Y-44975750D01*
G75*
G02*
X212351000Y-44725750I0J250000D01*
G01*
X212351000Y-43475750D01*
G75*
G02*
X212601000Y-43225750I250000J0D01*
G01*
X213351000Y-43225750D01*
G75*
G02*
X213601000Y-43475750I0J-250000D01*
G01*
G37*
G36*
G01*
X216401000Y-43475750D02*
X216401000Y-44725750D01*
G75*
G02*
X216151000Y-44975750I-250000J0D01*
G01*
X215401000Y-44975750D01*
G75*
G02*
X215151000Y-44725750I0J250000D01*
G01*
X215151000Y-43475750D01*
G75*
G02*
X215401000Y-43225750I250000J0D01*
G01*
X216151000Y-43225750D01*
G75*
G02*
X216401000Y-43475750I0J-250000D01*
G01*
G37*
%TD*%
%TO.C,D44*%
G36*
G01*
X194551000Y-102530750D02*
X194551000Y-103780750D01*
G75*
G02*
X194301000Y-104030750I-250000J0D01*
G01*
X193551000Y-104030750D01*
G75*
G02*
X193301000Y-103780750I0J250000D01*
G01*
X193301000Y-102530750D01*
G75*
G02*
X193551000Y-102280750I250000J0D01*
G01*
X194301000Y-102280750D01*
G75*
G02*
X194551000Y-102530750I0J-250000D01*
G01*
G37*
G36*
G01*
X197351000Y-102530750D02*
X197351000Y-103780750D01*
G75*
G02*
X197101000Y-104030750I-250000J0D01*
G01*
X196351000Y-104030750D01*
G75*
G02*
X196101000Y-103780750I0J250000D01*
G01*
X196101000Y-102530750D01*
G75*
G02*
X196351000Y-102280750I250000J0D01*
G01*
X197101000Y-102280750D01*
G75*
G02*
X197351000Y-102530750I0J-250000D01*
G01*
G37*
%TD*%
%TO.C,D43*%
G36*
G01*
X194551000Y-83480750D02*
X194551000Y-84730750D01*
G75*
G02*
X194301000Y-84980750I-250000J0D01*
G01*
X193551000Y-84980750D01*
G75*
G02*
X193301000Y-84730750I0J250000D01*
G01*
X193301000Y-83480750D01*
G75*
G02*
X193551000Y-83230750I250000J0D01*
G01*
X194301000Y-83230750D01*
G75*
G02*
X194551000Y-83480750I0J-250000D01*
G01*
G37*
G36*
G01*
X197351000Y-83480750D02*
X197351000Y-84730750D01*
G75*
G02*
X197101000Y-84980750I-250000J0D01*
G01*
X196351000Y-84980750D01*
G75*
G02*
X196101000Y-84730750I0J250000D01*
G01*
X196101000Y-83480750D01*
G75*
G02*
X196351000Y-83230750I250000J0D01*
G01*
X197101000Y-83230750D01*
G75*
G02*
X197351000Y-83480750I0J-250000D01*
G01*
G37*
%TD*%
%TO.C,D42*%
G36*
G01*
X194551000Y-64430750D02*
X194551000Y-65680750D01*
G75*
G02*
X194301000Y-65930750I-250000J0D01*
G01*
X193551000Y-65930750D01*
G75*
G02*
X193301000Y-65680750I0J250000D01*
G01*
X193301000Y-64430750D01*
G75*
G02*
X193551000Y-64180750I250000J0D01*
G01*
X194301000Y-64180750D01*
G75*
G02*
X194551000Y-64430750I0J-250000D01*
G01*
G37*
G36*
G01*
X197351000Y-64430750D02*
X197351000Y-65680750D01*
G75*
G02*
X197101000Y-65930750I-250000J0D01*
G01*
X196351000Y-65930750D01*
G75*
G02*
X196101000Y-65680750I0J250000D01*
G01*
X196101000Y-64430750D01*
G75*
G02*
X196351000Y-64180750I250000J0D01*
G01*
X197101000Y-64180750D01*
G75*
G02*
X197351000Y-64430750I0J-250000D01*
G01*
G37*
%TD*%
%TO.C,D41*%
G36*
G01*
X194551000Y-45380750D02*
X194551000Y-46630750D01*
G75*
G02*
X194301000Y-46880750I-250000J0D01*
G01*
X193551000Y-46880750D01*
G75*
G02*
X193301000Y-46630750I0J250000D01*
G01*
X193301000Y-45380750D01*
G75*
G02*
X193551000Y-45130750I250000J0D01*
G01*
X194301000Y-45130750D01*
G75*
G02*
X194551000Y-45380750I0J-250000D01*
G01*
G37*
G36*
G01*
X197351000Y-45380750D02*
X197351000Y-46630750D01*
G75*
G02*
X197101000Y-46880750I-250000J0D01*
G01*
X196351000Y-46880750D01*
G75*
G02*
X196101000Y-46630750I0J250000D01*
G01*
X196101000Y-45380750D01*
G75*
G02*
X196351000Y-45130750I250000J0D01*
G01*
X197101000Y-45130750D01*
G75*
G02*
X197351000Y-45380750I0J-250000D01*
G01*
G37*
%TD*%
%TO.C,D40*%
G36*
G01*
X169190051Y-132852815D02*
X170073935Y-133736699D01*
G75*
G02*
X170073935Y-134090253I-176777J-176777D01*
G01*
X169543605Y-134620583D01*
G75*
G02*
X169190051Y-134620583I-176777J176777D01*
G01*
X168306167Y-133736699D01*
G75*
G02*
X168306167Y-133383145I176777J176777D01*
G01*
X168836497Y-132852815D01*
G75*
G02*
X169190051Y-132852815I176777J-176777D01*
G01*
G37*
G36*
G01*
X171169949Y-130872917D02*
X172053833Y-131756801D01*
G75*
G02*
X172053833Y-132110355I-176777J-176777D01*
G01*
X171523503Y-132640685D01*
G75*
G02*
X171169949Y-132640685I-176777J176777D01*
G01*
X170286065Y-131756801D01*
G75*
G02*
X170286065Y-131403247I176777J176777D01*
G01*
X170816395Y-130872917D01*
G75*
G02*
X171169949Y-130872917I176777J-176777D01*
G01*
G37*
%TD*%
%TO.C,D39*%
G36*
G01*
X175501000Y-104181750D02*
X175501000Y-105431750D01*
G75*
G02*
X175251000Y-105681750I-250000J0D01*
G01*
X174501000Y-105681750D01*
G75*
G02*
X174251000Y-105431750I0J250000D01*
G01*
X174251000Y-104181750D01*
G75*
G02*
X174501000Y-103931750I250000J0D01*
G01*
X175251000Y-103931750D01*
G75*
G02*
X175501000Y-104181750I0J-250000D01*
G01*
G37*
G36*
G01*
X178301000Y-104181750D02*
X178301000Y-105431750D01*
G75*
G02*
X178051000Y-105681750I-250000J0D01*
G01*
X177301000Y-105681750D01*
G75*
G02*
X177051000Y-105431750I0J250000D01*
G01*
X177051000Y-104181750D01*
G75*
G02*
X177301000Y-103931750I250000J0D01*
G01*
X178051000Y-103931750D01*
G75*
G02*
X178301000Y-104181750I0J-250000D01*
G01*
G37*
%TD*%
%TO.C,D38*%
G36*
G01*
X175501000Y-85131750D02*
X175501000Y-86381750D01*
G75*
G02*
X175251000Y-86631750I-250000J0D01*
G01*
X174501000Y-86631750D01*
G75*
G02*
X174251000Y-86381750I0J250000D01*
G01*
X174251000Y-85131750D01*
G75*
G02*
X174501000Y-84881750I250000J0D01*
G01*
X175251000Y-84881750D01*
G75*
G02*
X175501000Y-85131750I0J-250000D01*
G01*
G37*
G36*
G01*
X178301000Y-85131750D02*
X178301000Y-86381750D01*
G75*
G02*
X178051000Y-86631750I-250000J0D01*
G01*
X177301000Y-86631750D01*
G75*
G02*
X177051000Y-86381750I0J250000D01*
G01*
X177051000Y-85131750D01*
G75*
G02*
X177301000Y-84881750I250000J0D01*
G01*
X178051000Y-84881750D01*
G75*
G02*
X178301000Y-85131750I0J-250000D01*
G01*
G37*
%TD*%
%TO.C,D37*%
G36*
G01*
X175501000Y-66081750D02*
X175501000Y-67331750D01*
G75*
G02*
X175251000Y-67581750I-250000J0D01*
G01*
X174501000Y-67581750D01*
G75*
G02*
X174251000Y-67331750I0J250000D01*
G01*
X174251000Y-66081750D01*
G75*
G02*
X174501000Y-65831750I250000J0D01*
G01*
X175251000Y-65831750D01*
G75*
G02*
X175501000Y-66081750I0J-250000D01*
G01*
G37*
G36*
G01*
X178301000Y-66081750D02*
X178301000Y-67331750D01*
G75*
G02*
X178051000Y-67581750I-250000J0D01*
G01*
X177301000Y-67581750D01*
G75*
G02*
X177051000Y-67331750I0J250000D01*
G01*
X177051000Y-66081750D01*
G75*
G02*
X177301000Y-65831750I250000J0D01*
G01*
X178051000Y-65831750D01*
G75*
G02*
X178301000Y-66081750I0J-250000D01*
G01*
G37*
%TD*%
%TO.C,D36*%
G36*
G01*
X175501000Y-47031750D02*
X175501000Y-48281750D01*
G75*
G02*
X175251000Y-48531750I-250000J0D01*
G01*
X174501000Y-48531750D01*
G75*
G02*
X174251000Y-48281750I0J250000D01*
G01*
X174251000Y-47031750D01*
G75*
G02*
X174501000Y-46781750I250000J0D01*
G01*
X175251000Y-46781750D01*
G75*
G02*
X175501000Y-47031750I0J-250000D01*
G01*
G37*
G36*
G01*
X178301000Y-47031750D02*
X178301000Y-48281750D01*
G75*
G02*
X178051000Y-48531750I-250000J0D01*
G01*
X177301000Y-48531750D01*
G75*
G02*
X177051000Y-48281750I0J250000D01*
G01*
X177051000Y-47031750D01*
G75*
G02*
X177301000Y-46781750I250000J0D01*
G01*
X178051000Y-46781750D01*
G75*
G02*
X178301000Y-47031750I0J-250000D01*
G01*
G37*
%TD*%
%TO.C,D35*%
G36*
G01*
X129296815Y-133736699D02*
X130180699Y-132852815D01*
G75*
G02*
X130534253Y-132852815I176777J-176777D01*
G01*
X131064583Y-133383145D01*
G75*
G02*
X131064583Y-133736699I-176777J-176777D01*
G01*
X130180699Y-134620583D01*
G75*
G02*
X129827145Y-134620583I-176777J176777D01*
G01*
X129296815Y-134090253D01*
G75*
G02*
X129296815Y-133736699I176777J176777D01*
G01*
G37*
G36*
G01*
X127316917Y-131756801D02*
X128200801Y-130872917D01*
G75*
G02*
X128554355Y-130872917I176777J-176777D01*
G01*
X129084685Y-131403247D01*
G75*
G02*
X129084685Y-131756801I-176777J-176777D01*
G01*
X128200801Y-132640685D01*
G75*
G02*
X127847247Y-132640685I-176777J176777D01*
G01*
X127316917Y-132110355D01*
G75*
G02*
X127316917Y-131756801I176777J176777D01*
G01*
G37*
%TD*%
%TO.C,D34*%
G36*
G01*
X123742750Y-105431750D02*
X123742750Y-104181750D01*
G75*
G02*
X123992750Y-103931750I250000J0D01*
G01*
X124742750Y-103931750D01*
G75*
G02*
X124992750Y-104181750I0J-250000D01*
G01*
X124992750Y-105431750D01*
G75*
G02*
X124742750Y-105681750I-250000J0D01*
G01*
X123992750Y-105681750D01*
G75*
G02*
X123742750Y-105431750I0J250000D01*
G01*
G37*
G36*
G01*
X120942750Y-105431750D02*
X120942750Y-104181750D01*
G75*
G02*
X121192750Y-103931750I250000J0D01*
G01*
X121942750Y-103931750D01*
G75*
G02*
X122192750Y-104181750I0J-250000D01*
G01*
X122192750Y-105431750D01*
G75*
G02*
X121942750Y-105681750I-250000J0D01*
G01*
X121192750Y-105681750D01*
G75*
G02*
X120942750Y-105431750I0J250000D01*
G01*
G37*
%TD*%
%TO.C,D33*%
G36*
G01*
X123742750Y-86381750D02*
X123742750Y-85131750D01*
G75*
G02*
X123992750Y-84881750I250000J0D01*
G01*
X124742750Y-84881750D01*
G75*
G02*
X124992750Y-85131750I0J-250000D01*
G01*
X124992750Y-86381750D01*
G75*
G02*
X124742750Y-86631750I-250000J0D01*
G01*
X123992750Y-86631750D01*
G75*
G02*
X123742750Y-86381750I0J250000D01*
G01*
G37*
G36*
G01*
X120942750Y-86381750D02*
X120942750Y-85131750D01*
G75*
G02*
X121192750Y-84881750I250000J0D01*
G01*
X121942750Y-84881750D01*
G75*
G02*
X122192750Y-85131750I0J-250000D01*
G01*
X122192750Y-86381750D01*
G75*
G02*
X121942750Y-86631750I-250000J0D01*
G01*
X121192750Y-86631750D01*
G75*
G02*
X120942750Y-86381750I0J250000D01*
G01*
G37*
%TD*%
%TO.C,D32*%
G36*
G01*
X123742750Y-67331750D02*
X123742750Y-66081750D01*
G75*
G02*
X123992750Y-65831750I250000J0D01*
G01*
X124742750Y-65831750D01*
G75*
G02*
X124992750Y-66081750I0J-250000D01*
G01*
X124992750Y-67331750D01*
G75*
G02*
X124742750Y-67581750I-250000J0D01*
G01*
X123992750Y-67581750D01*
G75*
G02*
X123742750Y-67331750I0J250000D01*
G01*
G37*
G36*
G01*
X120942750Y-67331750D02*
X120942750Y-66081750D01*
G75*
G02*
X121192750Y-65831750I250000J0D01*
G01*
X121942750Y-65831750D01*
G75*
G02*
X122192750Y-66081750I0J-250000D01*
G01*
X122192750Y-67331750D01*
G75*
G02*
X121942750Y-67581750I-250000J0D01*
G01*
X121192750Y-67581750D01*
G75*
G02*
X120942750Y-67331750I0J250000D01*
G01*
G37*
%TD*%
%TO.C,D31*%
G36*
G01*
X123742750Y-48281750D02*
X123742750Y-47031750D01*
G75*
G02*
X123992750Y-46781750I250000J0D01*
G01*
X124742750Y-46781750D01*
G75*
G02*
X124992750Y-47031750I0J-250000D01*
G01*
X124992750Y-48281750D01*
G75*
G02*
X124742750Y-48531750I-250000J0D01*
G01*
X123992750Y-48531750D01*
G75*
G02*
X123742750Y-48281750I0J250000D01*
G01*
G37*
G36*
G01*
X120942750Y-48281750D02*
X120942750Y-47031750D01*
G75*
G02*
X121192750Y-46781750I250000J0D01*
G01*
X121942750Y-46781750D01*
G75*
G02*
X122192750Y-47031750I0J-250000D01*
G01*
X122192750Y-48281750D01*
G75*
G02*
X121942750Y-48531750I-250000J0D01*
G01*
X121192750Y-48531750D01*
G75*
G02*
X120942750Y-48281750I0J250000D01*
G01*
G37*
%TD*%
%TO.C,D30*%
G36*
G01*
X110372420Y-122372516D02*
X110997420Y-121289984D01*
G75*
G02*
X111338926Y-121198478I216506J-125000D01*
G01*
X111988446Y-121573478D01*
G75*
G02*
X112079952Y-121914984I-125000J-216506D01*
G01*
X111454952Y-122997516D01*
G75*
G02*
X111113446Y-123089022I-216506J125000D01*
G01*
X110463926Y-122714022D01*
G75*
G02*
X110372420Y-122372516I125000J216506D01*
G01*
G37*
G36*
G01*
X107947548Y-120972516D02*
X108572548Y-119889984D01*
G75*
G02*
X108914054Y-119798478I216506J-125000D01*
G01*
X109563574Y-120173478D01*
G75*
G02*
X109655080Y-120514984I-125000J-216506D01*
G01*
X109030080Y-121597516D01*
G75*
G02*
X108688574Y-121689022I-216506J125000D01*
G01*
X108039054Y-121314022D01*
G75*
G02*
X107947548Y-120972516I125000J216506D01*
G01*
G37*
%TD*%
%TO.C,D29*%
G36*
G01*
X104692750Y-103653750D02*
X104692750Y-102403750D01*
G75*
G02*
X104942750Y-102153750I250000J0D01*
G01*
X105692750Y-102153750D01*
G75*
G02*
X105942750Y-102403750I0J-250000D01*
G01*
X105942750Y-103653750D01*
G75*
G02*
X105692750Y-103903750I-250000J0D01*
G01*
X104942750Y-103903750D01*
G75*
G02*
X104692750Y-103653750I0J250000D01*
G01*
G37*
G36*
G01*
X101892750Y-103653750D02*
X101892750Y-102403750D01*
G75*
G02*
X102142750Y-102153750I250000J0D01*
G01*
X102892750Y-102153750D01*
G75*
G02*
X103142750Y-102403750I0J-250000D01*
G01*
X103142750Y-103653750D01*
G75*
G02*
X102892750Y-103903750I-250000J0D01*
G01*
X102142750Y-103903750D01*
G75*
G02*
X101892750Y-103653750I0J250000D01*
G01*
G37*
%TD*%
%TO.C,D28*%
G36*
G01*
X104692750Y-84699000D02*
X104692750Y-83449000D01*
G75*
G02*
X104942750Y-83199000I250000J0D01*
G01*
X105692750Y-83199000D01*
G75*
G02*
X105942750Y-83449000I0J-250000D01*
G01*
X105942750Y-84699000D01*
G75*
G02*
X105692750Y-84949000I-250000J0D01*
G01*
X104942750Y-84949000D01*
G75*
G02*
X104692750Y-84699000I0J250000D01*
G01*
G37*
G36*
G01*
X101892750Y-84699000D02*
X101892750Y-83449000D01*
G75*
G02*
X102142750Y-83199000I250000J0D01*
G01*
X102892750Y-83199000D01*
G75*
G02*
X103142750Y-83449000I0J-250000D01*
G01*
X103142750Y-84699000D01*
G75*
G02*
X102892750Y-84949000I-250000J0D01*
G01*
X102142750Y-84949000D01*
G75*
G02*
X101892750Y-84699000I0J250000D01*
G01*
G37*
%TD*%
%TO.C,D27*%
G36*
G01*
X104692750Y-65680750D02*
X104692750Y-64430750D01*
G75*
G02*
X104942750Y-64180750I250000J0D01*
G01*
X105692750Y-64180750D01*
G75*
G02*
X105942750Y-64430750I0J-250000D01*
G01*
X105942750Y-65680750D01*
G75*
G02*
X105692750Y-65930750I-250000J0D01*
G01*
X104942750Y-65930750D01*
G75*
G02*
X104692750Y-65680750I0J250000D01*
G01*
G37*
G36*
G01*
X101892750Y-65680750D02*
X101892750Y-64430750D01*
G75*
G02*
X102142750Y-64180750I250000J0D01*
G01*
X102892750Y-64180750D01*
G75*
G02*
X103142750Y-64430750I0J-250000D01*
G01*
X103142750Y-65680750D01*
G75*
G02*
X102892750Y-65930750I-250000J0D01*
G01*
X102142750Y-65930750D01*
G75*
G02*
X101892750Y-65680750I0J250000D01*
G01*
G37*
%TD*%
%TO.C,D26*%
G36*
G01*
X104692750Y-46630750D02*
X104692750Y-45380750D01*
G75*
G02*
X104942750Y-45130750I250000J0D01*
G01*
X105692750Y-45130750D01*
G75*
G02*
X105942750Y-45380750I0J-250000D01*
G01*
X105942750Y-46630750D01*
G75*
G02*
X105692750Y-46880750I-250000J0D01*
G01*
X104942750Y-46880750D01*
G75*
G02*
X104692750Y-46630750I0J250000D01*
G01*
G37*
G36*
G01*
X101892750Y-46630750D02*
X101892750Y-45380750D01*
G75*
G02*
X102142750Y-45130750I250000J0D01*
G01*
X102892750Y-45130750D01*
G75*
G02*
X103142750Y-45380750I0J-250000D01*
G01*
X103142750Y-46630750D01*
G75*
G02*
X102892750Y-46880750I-250000J0D01*
G01*
X102142750Y-46880750D01*
G75*
G02*
X101892750Y-46630750I0J250000D01*
G01*
G37*
%TD*%
%TO.C,D25*%
G36*
G01*
X85642750Y-120925750D02*
X85642750Y-119675750D01*
G75*
G02*
X85892750Y-119425750I250000J0D01*
G01*
X86642750Y-119425750D01*
G75*
G02*
X86892750Y-119675750I0J-250000D01*
G01*
X86892750Y-120925750D01*
G75*
G02*
X86642750Y-121175750I-250000J0D01*
G01*
X85892750Y-121175750D01*
G75*
G02*
X85642750Y-120925750I0J250000D01*
G01*
G37*
G36*
G01*
X82842750Y-120925750D02*
X82842750Y-119675750D01*
G75*
G02*
X83092750Y-119425750I250000J0D01*
G01*
X83842750Y-119425750D01*
G75*
G02*
X84092750Y-119675750I0J-250000D01*
G01*
X84092750Y-120925750D01*
G75*
G02*
X83842750Y-121175750I-250000J0D01*
G01*
X83092750Y-121175750D01*
G75*
G02*
X82842750Y-120925750I0J250000D01*
G01*
G37*
%TD*%
%TO.C,D24*%
G36*
G01*
X85642750Y-101875750D02*
X85642750Y-100625750D01*
G75*
G02*
X85892750Y-100375750I250000J0D01*
G01*
X86642750Y-100375750D01*
G75*
G02*
X86892750Y-100625750I0J-250000D01*
G01*
X86892750Y-101875750D01*
G75*
G02*
X86642750Y-102125750I-250000J0D01*
G01*
X85892750Y-102125750D01*
G75*
G02*
X85642750Y-101875750I0J250000D01*
G01*
G37*
G36*
G01*
X82842750Y-101875750D02*
X82842750Y-100625750D01*
G75*
G02*
X83092750Y-100375750I250000J0D01*
G01*
X83842750Y-100375750D01*
G75*
G02*
X84092750Y-100625750I0J-250000D01*
G01*
X84092750Y-101875750D01*
G75*
G02*
X83842750Y-102125750I-250000J0D01*
G01*
X83092750Y-102125750D01*
G75*
G02*
X82842750Y-101875750I0J250000D01*
G01*
G37*
%TD*%
%TO.C,D23*%
G36*
G01*
X85642750Y-82698750D02*
X85642750Y-81448750D01*
G75*
G02*
X85892750Y-81198750I250000J0D01*
G01*
X86642750Y-81198750D01*
G75*
G02*
X86892750Y-81448750I0J-250000D01*
G01*
X86892750Y-82698750D01*
G75*
G02*
X86642750Y-82948750I-250000J0D01*
G01*
X85892750Y-82948750D01*
G75*
G02*
X85642750Y-82698750I0J250000D01*
G01*
G37*
G36*
G01*
X82842750Y-82698750D02*
X82842750Y-81448750D01*
G75*
G02*
X83092750Y-81198750I250000J0D01*
G01*
X83842750Y-81198750D01*
G75*
G02*
X84092750Y-81448750I0J-250000D01*
G01*
X84092750Y-82698750D01*
G75*
G02*
X83842750Y-82948750I-250000J0D01*
G01*
X83092750Y-82948750D01*
G75*
G02*
X82842750Y-82698750I0J250000D01*
G01*
G37*
%TD*%
%TO.C,D22*%
G36*
G01*
X85642750Y-63775750D02*
X85642750Y-62525750D01*
G75*
G02*
X85892750Y-62275750I250000J0D01*
G01*
X86642750Y-62275750D01*
G75*
G02*
X86892750Y-62525750I0J-250000D01*
G01*
X86892750Y-63775750D01*
G75*
G02*
X86642750Y-64025750I-250000J0D01*
G01*
X85892750Y-64025750D01*
G75*
G02*
X85642750Y-63775750I0J250000D01*
G01*
G37*
G36*
G01*
X82842750Y-63775750D02*
X82842750Y-62525750D01*
G75*
G02*
X83092750Y-62275750I250000J0D01*
G01*
X83842750Y-62275750D01*
G75*
G02*
X84092750Y-62525750I0J-250000D01*
G01*
X84092750Y-63775750D01*
G75*
G02*
X83842750Y-64025750I-250000J0D01*
G01*
X83092750Y-64025750D01*
G75*
G02*
X82842750Y-63775750I0J250000D01*
G01*
G37*
%TD*%
%TO.C,D21*%
G36*
G01*
X85642750Y-44725750D02*
X85642750Y-43475750D01*
G75*
G02*
X85892750Y-43225750I250000J0D01*
G01*
X86642750Y-43225750D01*
G75*
G02*
X86892750Y-43475750I0J-250000D01*
G01*
X86892750Y-44725750D01*
G75*
G02*
X86642750Y-44975750I-250000J0D01*
G01*
X85892750Y-44975750D01*
G75*
G02*
X85642750Y-44725750I0J250000D01*
G01*
G37*
G36*
G01*
X82842750Y-44725750D02*
X82842750Y-43475750D01*
G75*
G02*
X83092750Y-43225750I250000J0D01*
G01*
X83842750Y-43225750D01*
G75*
G02*
X84092750Y-43475750I0J-250000D01*
G01*
X84092750Y-44725750D01*
G75*
G02*
X83842750Y-44975750I-250000J0D01*
G01*
X83092750Y-44975750D01*
G75*
G02*
X82842750Y-44725750I0J250000D01*
G01*
G37*
%TD*%
%TO.C,D20*%
G36*
G01*
X66592750Y-118131750D02*
X66592750Y-116881750D01*
G75*
G02*
X66842750Y-116631750I250000J0D01*
G01*
X67592750Y-116631750D01*
G75*
G02*
X67842750Y-116881750I0J-250000D01*
G01*
X67842750Y-118131750D01*
G75*
G02*
X67592750Y-118381750I-250000J0D01*
G01*
X66842750Y-118381750D01*
G75*
G02*
X66592750Y-118131750I0J250000D01*
G01*
G37*
G36*
G01*
X63792750Y-118131750D02*
X63792750Y-116881750D01*
G75*
G02*
X64042750Y-116631750I250000J0D01*
G01*
X64792750Y-116631750D01*
G75*
G02*
X65042750Y-116881750I0J-250000D01*
G01*
X65042750Y-118131750D01*
G75*
G02*
X64792750Y-118381750I-250000J0D01*
G01*
X64042750Y-118381750D01*
G75*
G02*
X63792750Y-118131750I0J250000D01*
G01*
G37*
%TD*%
%TO.C,D19*%
G36*
G01*
X66592750Y-99081750D02*
X66592750Y-97831750D01*
G75*
G02*
X66842750Y-97581750I250000J0D01*
G01*
X67592750Y-97581750D01*
G75*
G02*
X67842750Y-97831750I0J-250000D01*
G01*
X67842750Y-99081750D01*
G75*
G02*
X67592750Y-99331750I-250000J0D01*
G01*
X66842750Y-99331750D01*
G75*
G02*
X66592750Y-99081750I0J250000D01*
G01*
G37*
G36*
G01*
X63792750Y-99081750D02*
X63792750Y-97831750D01*
G75*
G02*
X64042750Y-97581750I250000J0D01*
G01*
X64792750Y-97581750D01*
G75*
G02*
X65042750Y-97831750I0J-250000D01*
G01*
X65042750Y-99081750D01*
G75*
G02*
X64792750Y-99331750I-250000J0D01*
G01*
X64042750Y-99331750D01*
G75*
G02*
X63792750Y-99081750I0J250000D01*
G01*
G37*
%TD*%
%TO.C,D18*%
G36*
G01*
X66592750Y-80031750D02*
X66592750Y-78781750D01*
G75*
G02*
X66842750Y-78531750I250000J0D01*
G01*
X67592750Y-78531750D01*
G75*
G02*
X67842750Y-78781750I0J-250000D01*
G01*
X67842750Y-80031750D01*
G75*
G02*
X67592750Y-80281750I-250000J0D01*
G01*
X66842750Y-80281750D01*
G75*
G02*
X66592750Y-80031750I0J250000D01*
G01*
G37*
G36*
G01*
X63792750Y-80031750D02*
X63792750Y-78781750D01*
G75*
G02*
X64042750Y-78531750I250000J0D01*
G01*
X64792750Y-78531750D01*
G75*
G02*
X65042750Y-78781750I0J-250000D01*
G01*
X65042750Y-80031750D01*
G75*
G02*
X64792750Y-80281750I-250000J0D01*
G01*
X64042750Y-80281750D01*
G75*
G02*
X63792750Y-80031750I0J250000D01*
G01*
G37*
%TD*%
%TO.C,D17*%
G36*
G01*
X66592750Y-60981750D02*
X66592750Y-59731750D01*
G75*
G02*
X66842750Y-59481750I250000J0D01*
G01*
X67592750Y-59481750D01*
G75*
G02*
X67842750Y-59731750I0J-250000D01*
G01*
X67842750Y-60981750D01*
G75*
G02*
X67592750Y-61231750I-250000J0D01*
G01*
X66842750Y-61231750D01*
G75*
G02*
X66592750Y-60981750I0J250000D01*
G01*
G37*
G36*
G01*
X63792750Y-60981750D02*
X63792750Y-59731750D01*
G75*
G02*
X64042750Y-59481750I250000J0D01*
G01*
X64792750Y-59481750D01*
G75*
G02*
X65042750Y-59731750I0J-250000D01*
G01*
X65042750Y-60981750D01*
G75*
G02*
X64792750Y-61231750I-250000J0D01*
G01*
X64042750Y-61231750D01*
G75*
G02*
X63792750Y-60981750I0J250000D01*
G01*
G37*
%TD*%
%TO.C,D16*%
G36*
G01*
X66592750Y-41804750D02*
X66592750Y-40554750D01*
G75*
G02*
X66842750Y-40304750I250000J0D01*
G01*
X67592750Y-40304750D01*
G75*
G02*
X67842750Y-40554750I0J-250000D01*
G01*
X67842750Y-41804750D01*
G75*
G02*
X67592750Y-42054750I-250000J0D01*
G01*
X66842750Y-42054750D01*
G75*
G02*
X66592750Y-41804750I0J250000D01*
G01*
G37*
G36*
G01*
X63792750Y-41804750D02*
X63792750Y-40554750D01*
G75*
G02*
X64042750Y-40304750I250000J0D01*
G01*
X64792750Y-40304750D01*
G75*
G02*
X65042750Y-40554750I0J-250000D01*
G01*
X65042750Y-41804750D01*
G75*
G02*
X64792750Y-42054750I-250000J0D01*
G01*
X64042750Y-42054750D01*
G75*
G02*
X63792750Y-41804750I0J250000D01*
G01*
G37*
%TD*%
%TO.C,D15*%
G36*
G01*
X47542750Y-120925750D02*
X47542750Y-119675750D01*
G75*
G02*
X47792750Y-119425750I250000J0D01*
G01*
X48542750Y-119425750D01*
G75*
G02*
X48792750Y-119675750I0J-250000D01*
G01*
X48792750Y-120925750D01*
G75*
G02*
X48542750Y-121175750I-250000J0D01*
G01*
X47792750Y-121175750D01*
G75*
G02*
X47542750Y-120925750I0J250000D01*
G01*
G37*
G36*
G01*
X44742750Y-120925750D02*
X44742750Y-119675750D01*
G75*
G02*
X44992750Y-119425750I250000J0D01*
G01*
X45742750Y-119425750D01*
G75*
G02*
X45992750Y-119675750I0J-250000D01*
G01*
X45992750Y-120925750D01*
G75*
G02*
X45742750Y-121175750I-250000J0D01*
G01*
X44992750Y-121175750D01*
G75*
G02*
X44742750Y-120925750I0J250000D01*
G01*
G37*
%TD*%
%TO.C,D14*%
G36*
G01*
X47542750Y-101875750D02*
X47542750Y-100625750D01*
G75*
G02*
X47792750Y-100375750I250000J0D01*
G01*
X48542750Y-100375750D01*
G75*
G02*
X48792750Y-100625750I0J-250000D01*
G01*
X48792750Y-101875750D01*
G75*
G02*
X48542750Y-102125750I-250000J0D01*
G01*
X47792750Y-102125750D01*
G75*
G02*
X47542750Y-101875750I0J250000D01*
G01*
G37*
G36*
G01*
X44742750Y-101875750D02*
X44742750Y-100625750D01*
G75*
G02*
X44992750Y-100375750I250000J0D01*
G01*
X45742750Y-100375750D01*
G75*
G02*
X45992750Y-100625750I0J-250000D01*
G01*
X45992750Y-101875750D01*
G75*
G02*
X45742750Y-102125750I-250000J0D01*
G01*
X44992750Y-102125750D01*
G75*
G02*
X44742750Y-101875750I0J250000D01*
G01*
G37*
%TD*%
%TO.C,D13*%
G36*
G01*
X47542750Y-82825750D02*
X47542750Y-81575750D01*
G75*
G02*
X47792750Y-81325750I250000J0D01*
G01*
X48542750Y-81325750D01*
G75*
G02*
X48792750Y-81575750I0J-250000D01*
G01*
X48792750Y-82825750D01*
G75*
G02*
X48542750Y-83075750I-250000J0D01*
G01*
X47792750Y-83075750D01*
G75*
G02*
X47542750Y-82825750I0J250000D01*
G01*
G37*
G36*
G01*
X44742750Y-82825750D02*
X44742750Y-81575750D01*
G75*
G02*
X44992750Y-81325750I250000J0D01*
G01*
X45742750Y-81325750D01*
G75*
G02*
X45992750Y-81575750I0J-250000D01*
G01*
X45992750Y-82825750D01*
G75*
G02*
X45742750Y-83075750I-250000J0D01*
G01*
X44992750Y-83075750D01*
G75*
G02*
X44742750Y-82825750I0J250000D01*
G01*
G37*
%TD*%
%TO.C,D12*%
G36*
G01*
X47539750Y-63775750D02*
X47539750Y-62525750D01*
G75*
G02*
X47789750Y-62275750I250000J0D01*
G01*
X48539750Y-62275750D01*
G75*
G02*
X48789750Y-62525750I0J-250000D01*
G01*
X48789750Y-63775750D01*
G75*
G02*
X48539750Y-64025750I-250000J0D01*
G01*
X47789750Y-64025750D01*
G75*
G02*
X47539750Y-63775750I0J250000D01*
G01*
G37*
G36*
G01*
X44739750Y-63775750D02*
X44739750Y-62525750D01*
G75*
G02*
X44989750Y-62275750I250000J0D01*
G01*
X45739750Y-62275750D01*
G75*
G02*
X45989750Y-62525750I0J-250000D01*
G01*
X45989750Y-63775750D01*
G75*
G02*
X45739750Y-64025750I-250000J0D01*
G01*
X44989750Y-64025750D01*
G75*
G02*
X44739750Y-63775750I0J250000D01*
G01*
G37*
%TD*%
%TO.C,D11*%
G36*
G01*
X47545750Y-44725750D02*
X47545750Y-43475750D01*
G75*
G02*
X47795750Y-43225750I250000J0D01*
G01*
X48545750Y-43225750D01*
G75*
G02*
X48795750Y-43475750I0J-250000D01*
G01*
X48795750Y-44725750D01*
G75*
G02*
X48545750Y-44975750I-250000J0D01*
G01*
X47795750Y-44975750D01*
G75*
G02*
X47545750Y-44725750I0J250000D01*
G01*
G37*
G36*
G01*
X44745750Y-44725750D02*
X44745750Y-43475750D01*
G75*
G02*
X44995750Y-43225750I250000J0D01*
G01*
X45745750Y-43225750D01*
G75*
G02*
X45995750Y-43475750I0J-250000D01*
G01*
X45995750Y-44725750D01*
G75*
G02*
X45745750Y-44975750I-250000J0D01*
G01*
X44995750Y-44975750D01*
G75*
G02*
X44745750Y-44725750I0J250000D01*
G01*
G37*
%TD*%
%TO.C,D10*%
G36*
G01*
X28492750Y-124481750D02*
X28492750Y-123231750D01*
G75*
G02*
X28742750Y-122981750I250000J0D01*
G01*
X29492750Y-122981750D01*
G75*
G02*
X29742750Y-123231750I0J-250000D01*
G01*
X29742750Y-124481750D01*
G75*
G02*
X29492750Y-124731750I-250000J0D01*
G01*
X28742750Y-124731750D01*
G75*
G02*
X28492750Y-124481750I0J250000D01*
G01*
G37*
G36*
G01*
X25692750Y-124481750D02*
X25692750Y-123231750D01*
G75*
G02*
X25942750Y-122981750I250000J0D01*
G01*
X26692750Y-122981750D01*
G75*
G02*
X26942750Y-123231750I0J-250000D01*
G01*
X26942750Y-124481750D01*
G75*
G02*
X26692750Y-124731750I-250000J0D01*
G01*
X25942750Y-124731750D01*
G75*
G02*
X25692750Y-124481750I0J250000D01*
G01*
G37*
%TD*%
%TO.C,D9*%
G36*
G01*
X28492750Y-105431750D02*
X28492750Y-104181750D01*
G75*
G02*
X28742750Y-103931750I250000J0D01*
G01*
X29492750Y-103931750D01*
G75*
G02*
X29742750Y-104181750I0J-250000D01*
G01*
X29742750Y-105431750D01*
G75*
G02*
X29492750Y-105681750I-250000J0D01*
G01*
X28742750Y-105681750D01*
G75*
G02*
X28492750Y-105431750I0J250000D01*
G01*
G37*
G36*
G01*
X25692750Y-105431750D02*
X25692750Y-104181750D01*
G75*
G02*
X25942750Y-103931750I250000J0D01*
G01*
X26692750Y-103931750D01*
G75*
G02*
X26942750Y-104181750I0J-250000D01*
G01*
X26942750Y-105431750D01*
G75*
G02*
X26692750Y-105681750I-250000J0D01*
G01*
X25942750Y-105681750D01*
G75*
G02*
X25692750Y-105431750I0J250000D01*
G01*
G37*
%TD*%
%TO.C,D8*%
G36*
G01*
X28492750Y-86381750D02*
X28492750Y-85131750D01*
G75*
G02*
X28742750Y-84881750I250000J0D01*
G01*
X29492750Y-84881750D01*
G75*
G02*
X29742750Y-85131750I0J-250000D01*
G01*
X29742750Y-86381750D01*
G75*
G02*
X29492750Y-86631750I-250000J0D01*
G01*
X28742750Y-86631750D01*
G75*
G02*
X28492750Y-86381750I0J250000D01*
G01*
G37*
G36*
G01*
X25692750Y-86381750D02*
X25692750Y-85131750D01*
G75*
G02*
X25942750Y-84881750I250000J0D01*
G01*
X26692750Y-84881750D01*
G75*
G02*
X26942750Y-85131750I0J-250000D01*
G01*
X26942750Y-86381750D01*
G75*
G02*
X26692750Y-86631750I-250000J0D01*
G01*
X25942750Y-86631750D01*
G75*
G02*
X25692750Y-86381750I0J250000D01*
G01*
G37*
%TD*%
%TO.C,D7*%
G36*
G01*
X28492750Y-67331750D02*
X28492750Y-66081750D01*
G75*
G02*
X28742750Y-65831750I250000J0D01*
G01*
X29492750Y-65831750D01*
G75*
G02*
X29742750Y-66081750I0J-250000D01*
G01*
X29742750Y-67331750D01*
G75*
G02*
X29492750Y-67581750I-250000J0D01*
G01*
X28742750Y-67581750D01*
G75*
G02*
X28492750Y-67331750I0J250000D01*
G01*
G37*
G36*
G01*
X25692750Y-67331750D02*
X25692750Y-66081750D01*
G75*
G02*
X25942750Y-65831750I250000J0D01*
G01*
X26692750Y-65831750D01*
G75*
G02*
X26942750Y-66081750I0J-250000D01*
G01*
X26942750Y-67331750D01*
G75*
G02*
X26692750Y-67581750I-250000J0D01*
G01*
X25942750Y-67581750D01*
G75*
G02*
X25692750Y-67331750I0J250000D01*
G01*
G37*
%TD*%
%TO.C,D6*%
G36*
G01*
X28492750Y-48281750D02*
X28492750Y-47031750D01*
G75*
G02*
X28742750Y-46781750I250000J0D01*
G01*
X29492750Y-46781750D01*
G75*
G02*
X29742750Y-47031750I0J-250000D01*
G01*
X29742750Y-48281750D01*
G75*
G02*
X29492750Y-48531750I-250000J0D01*
G01*
X28742750Y-48531750D01*
G75*
G02*
X28492750Y-48281750I0J250000D01*
G01*
G37*
G36*
G01*
X25692750Y-48281750D02*
X25692750Y-47031750D01*
G75*
G02*
X25942750Y-46781750I250000J0D01*
G01*
X26692750Y-46781750D01*
G75*
G02*
X26942750Y-47031750I0J-250000D01*
G01*
X26942750Y-48281750D01*
G75*
G02*
X26692750Y-48531750I-250000J0D01*
G01*
X25942750Y-48531750D01*
G75*
G02*
X25692750Y-48281750I0J250000D01*
G01*
G37*
%TD*%
%TO.C,D5*%
G36*
G01*
X4616750Y-124481750D02*
X4616750Y-123231750D01*
G75*
G02*
X4866750Y-122981750I250000J0D01*
G01*
X5616750Y-122981750D01*
G75*
G02*
X5866750Y-123231750I0J-250000D01*
G01*
X5866750Y-124481750D01*
G75*
G02*
X5616750Y-124731750I-250000J0D01*
G01*
X4866750Y-124731750D01*
G75*
G02*
X4616750Y-124481750I0J250000D01*
G01*
G37*
G36*
G01*
X1816750Y-124481750D02*
X1816750Y-123231750D01*
G75*
G02*
X2066750Y-122981750I250000J0D01*
G01*
X2816750Y-122981750D01*
G75*
G02*
X3066750Y-123231750I0J-250000D01*
G01*
X3066750Y-124481750D01*
G75*
G02*
X2816750Y-124731750I-250000J0D01*
G01*
X2066750Y-124731750D01*
G75*
G02*
X1816750Y-124481750I0J250000D01*
G01*
G37*
%TD*%
%TO.C,D4*%
G36*
G01*
X4616750Y-105431750D02*
X4616750Y-104181750D01*
G75*
G02*
X4866750Y-103931750I250000J0D01*
G01*
X5616750Y-103931750D01*
G75*
G02*
X5866750Y-104181750I0J-250000D01*
G01*
X5866750Y-105431750D01*
G75*
G02*
X5616750Y-105681750I-250000J0D01*
G01*
X4866750Y-105681750D01*
G75*
G02*
X4616750Y-105431750I0J250000D01*
G01*
G37*
G36*
G01*
X1816750Y-105431750D02*
X1816750Y-104181750D01*
G75*
G02*
X2066750Y-103931750I250000J0D01*
G01*
X2816750Y-103931750D01*
G75*
G02*
X3066750Y-104181750I0J-250000D01*
G01*
X3066750Y-105431750D01*
G75*
G02*
X2816750Y-105681750I-250000J0D01*
G01*
X2066750Y-105681750D01*
G75*
G02*
X1816750Y-105431750I0J250000D01*
G01*
G37*
%TD*%
%TO.C,D3*%
G36*
G01*
X4616750Y-86381750D02*
X4616750Y-85131750D01*
G75*
G02*
X4866750Y-84881750I250000J0D01*
G01*
X5616750Y-84881750D01*
G75*
G02*
X5866750Y-85131750I0J-250000D01*
G01*
X5866750Y-86381750D01*
G75*
G02*
X5616750Y-86631750I-250000J0D01*
G01*
X4866750Y-86631750D01*
G75*
G02*
X4616750Y-86381750I0J250000D01*
G01*
G37*
G36*
G01*
X1816750Y-86381750D02*
X1816750Y-85131750D01*
G75*
G02*
X2066750Y-84881750I250000J0D01*
G01*
X2816750Y-84881750D01*
G75*
G02*
X3066750Y-85131750I0J-250000D01*
G01*
X3066750Y-86381750D01*
G75*
G02*
X2816750Y-86631750I-250000J0D01*
G01*
X2066750Y-86631750D01*
G75*
G02*
X1816750Y-86381750I0J250000D01*
G01*
G37*
%TD*%
%TO.C,D2*%
G36*
G01*
X4616750Y-67331750D02*
X4616750Y-66081750D01*
G75*
G02*
X4866750Y-65831750I250000J0D01*
G01*
X5616750Y-65831750D01*
G75*
G02*
X5866750Y-66081750I0J-250000D01*
G01*
X5866750Y-67331750D01*
G75*
G02*
X5616750Y-67581750I-250000J0D01*
G01*
X4866750Y-67581750D01*
G75*
G02*
X4616750Y-67331750I0J250000D01*
G01*
G37*
G36*
G01*
X1816750Y-67331750D02*
X1816750Y-66081750D01*
G75*
G02*
X2066750Y-65831750I250000J0D01*
G01*
X2816750Y-65831750D01*
G75*
G02*
X3066750Y-66081750I0J-250000D01*
G01*
X3066750Y-67331750D01*
G75*
G02*
X2816750Y-67581750I-250000J0D01*
G01*
X2066750Y-67581750D01*
G75*
G02*
X1816750Y-67331750I0J250000D01*
G01*
G37*
%TD*%
%TO.C,D1*%
G36*
G01*
X4613750Y-50059750D02*
X4613750Y-48809750D01*
G75*
G02*
X4863750Y-48559750I250000J0D01*
G01*
X5613750Y-48559750D01*
G75*
G02*
X5863750Y-48809750I0J-250000D01*
G01*
X5863750Y-50059750D01*
G75*
G02*
X5613750Y-50309750I-250000J0D01*
G01*
X4863750Y-50309750D01*
G75*
G02*
X4613750Y-50059750I0J250000D01*
G01*
G37*
G36*
G01*
X1813750Y-50059750D02*
X1813750Y-48809750D01*
G75*
G02*
X2063750Y-48559750I250000J0D01*
G01*
X2813750Y-48559750D01*
G75*
G02*
X3063750Y-48809750I0J-250000D01*
G01*
X3063750Y-50059750D01*
G75*
G02*
X2813750Y-50309750I-250000J0D01*
G01*
X2063750Y-50309750D01*
G75*
G02*
X1813750Y-50059750I0J250000D01*
G01*
G37*
%TD*%
D13*
%TO.C,TP1*%
X125158500Y-35687000D03*
%TD*%
%TO.C,TP2*%
X125158500Y-38989000D03*
%TD*%
%TO.C,TP3*%
X170275250Y-38735000D03*
%TD*%
%TO.C,TP4*%
X160115250Y-38862000D03*
%TD*%
%TO.C,D+*%
X158718250Y-77343000D03*
%TD*%
%TO.C,D-*%
X158718250Y-80264000D03*
%TD*%
M02*
