%TF.GenerationSoftware,KiCad,Pcbnew,(5.1.10)-1*%
%TF.CreationDate,2021-09-03T09:57:26+02:00*%
%TF.ProjectId,T1,54312e6b-6963-4616-945f-706362585858,1.1*%
%TF.SameCoordinates,Original*%
%TF.FileFunction,Paste,Top*%
%TF.FilePolarity,Positive*%
%FSLAX46Y46*%
G04 Gerber Fmt 4.6, Leading zero omitted, Abs format (unit mm)*
G04 Created by KiCad (PCBNEW (5.1.10)-1) date 2021-09-03 09:57:26*
%MOMM*%
%LPD*%
G01*
G04 APERTURE LIST*
%ADD10R,0.600000X1.450000*%
%ADD11R,0.300000X1.450000*%
G04 APERTURE END LIST*
%TO.C,D68*%
G36*
G01*
X295021000Y-85121750D02*
X295021000Y-86371750D01*
G75*
G02*
X294771000Y-86621750I-250000J0D01*
G01*
X294021000Y-86621750D01*
G75*
G02*
X293771000Y-86371750I0J250000D01*
G01*
X293771000Y-85121750D01*
G75*
G02*
X294021000Y-84871750I250000J0D01*
G01*
X294771000Y-84871750D01*
G75*
G02*
X295021000Y-85121750I0J-250000D01*
G01*
G37*
G36*
G01*
X297821000Y-85121750D02*
X297821000Y-86371750D01*
G75*
G02*
X297571000Y-86621750I-250000J0D01*
G01*
X296821000Y-86621750D01*
G75*
G02*
X296571000Y-86371750I0J250000D01*
G01*
X296571000Y-85121750D01*
G75*
G02*
X296821000Y-84871750I250000J0D01*
G01*
X297571000Y-84871750D01*
G75*
G02*
X297821000Y-85121750I0J-250000D01*
G01*
G37*
%TD*%
%TO.C,D60*%
G36*
G01*
X251965000Y-119665750D02*
X251965000Y-120915750D01*
G75*
G02*
X251715000Y-121165750I-250000J0D01*
G01*
X250965000Y-121165750D01*
G75*
G02*
X250715000Y-120915750I0J250000D01*
G01*
X250715000Y-119665750D01*
G75*
G02*
X250965000Y-119415750I250000J0D01*
G01*
X251715000Y-119415750D01*
G75*
G02*
X251965000Y-119665750I0J-250000D01*
G01*
G37*
G36*
G01*
X254765000Y-119665750D02*
X254765000Y-120915750D01*
G75*
G02*
X254515000Y-121165750I-250000J0D01*
G01*
X253765000Y-121165750D01*
G75*
G02*
X253515000Y-120915750I0J250000D01*
G01*
X253515000Y-119665750D01*
G75*
G02*
X253765000Y-119415750I250000J0D01*
G01*
X254515000Y-119415750D01*
G75*
G02*
X254765000Y-119665750I0J-250000D01*
G01*
G37*
%TD*%
%TO.C,D45*%
G36*
G01*
X188697894Y-121090984D02*
X189322894Y-122173516D01*
G75*
G02*
X189231388Y-122515022I-216506J-125000D01*
G01*
X188581868Y-122890022D01*
G75*
G02*
X188240362Y-122798516I-125000J216506D01*
G01*
X187615362Y-121715984D01*
G75*
G02*
X187706868Y-121374478I216506J125000D01*
G01*
X188356388Y-120999478D01*
G75*
G02*
X188697894Y-121090984I125000J-216506D01*
G01*
G37*
G36*
G01*
X191122766Y-119690984D02*
X191747766Y-120773516D01*
G75*
G02*
X191656260Y-121115022I-216506J-125000D01*
G01*
X191006740Y-121490022D01*
G75*
G02*
X190665234Y-121398516I-125000J216506D01*
G01*
X190040234Y-120315984D01*
G75*
G02*
X190131740Y-119974478I216506J125000D01*
G01*
X190781260Y-119599478D01*
G75*
G02*
X191122766Y-119690984I125000J-216506D01*
G01*
G37*
%TD*%
D10*
%TO.C,J1*%
X129573250Y-38166250D03*
X130373250Y-38166250D03*
X135273250Y-38166250D03*
X136073250Y-38166250D03*
X136073250Y-38166250D03*
X135273250Y-38166250D03*
X130373250Y-38166250D03*
X129573250Y-38166250D03*
D11*
X134573250Y-38166250D03*
X134073250Y-38166250D03*
X133573250Y-38166250D03*
X132573250Y-38166250D03*
X132073250Y-38166250D03*
X131573250Y-38166250D03*
X131073250Y-38166250D03*
X133073250Y-38166250D03*
%TD*%
%TO.C,D70*%
G36*
G01*
X295021000Y-123221750D02*
X295021000Y-124471750D01*
G75*
G02*
X294771000Y-124721750I-250000J0D01*
G01*
X294021000Y-124721750D01*
G75*
G02*
X293771000Y-124471750I0J250000D01*
G01*
X293771000Y-123221750D01*
G75*
G02*
X294021000Y-122971750I250000J0D01*
G01*
X294771000Y-122971750D01*
G75*
G02*
X295021000Y-123221750I0J-250000D01*
G01*
G37*
G36*
G01*
X297821000Y-123221750D02*
X297821000Y-124471750D01*
G75*
G02*
X297571000Y-124721750I-250000J0D01*
G01*
X296821000Y-124721750D01*
G75*
G02*
X296571000Y-124471750I0J250000D01*
G01*
X296571000Y-123221750D01*
G75*
G02*
X296821000Y-122971750I250000J0D01*
G01*
X297571000Y-122971750D01*
G75*
G02*
X297821000Y-123221750I0J-250000D01*
G01*
G37*
%TD*%
%TO.C,D69*%
G36*
G01*
X295021000Y-104171750D02*
X295021000Y-105421750D01*
G75*
G02*
X294771000Y-105671750I-250000J0D01*
G01*
X294021000Y-105671750D01*
G75*
G02*
X293771000Y-105421750I0J250000D01*
G01*
X293771000Y-104171750D01*
G75*
G02*
X294021000Y-103921750I250000J0D01*
G01*
X294771000Y-103921750D01*
G75*
G02*
X295021000Y-104171750I0J-250000D01*
G01*
G37*
G36*
G01*
X297821000Y-104171750D02*
X297821000Y-105421750D01*
G75*
G02*
X297571000Y-105671750I-250000J0D01*
G01*
X296821000Y-105671750D01*
G75*
G02*
X296571000Y-105421750I0J250000D01*
G01*
X296571000Y-104171750D01*
G75*
G02*
X296821000Y-103921750I250000J0D01*
G01*
X297571000Y-103921750D01*
G75*
G02*
X297821000Y-104171750I0J-250000D01*
G01*
G37*
%TD*%
%TO.C,D67*%
G36*
G01*
X295021000Y-66071750D02*
X295021000Y-67321750D01*
G75*
G02*
X294771000Y-67571750I-250000J0D01*
G01*
X294021000Y-67571750D01*
G75*
G02*
X293771000Y-67321750I0J250000D01*
G01*
X293771000Y-66071750D01*
G75*
G02*
X294021000Y-65821750I250000J0D01*
G01*
X294771000Y-65821750D01*
G75*
G02*
X295021000Y-66071750I0J-250000D01*
G01*
G37*
G36*
G01*
X297821000Y-66071750D02*
X297821000Y-67321750D01*
G75*
G02*
X297571000Y-67571750I-250000J0D01*
G01*
X296821000Y-67571750D01*
G75*
G02*
X296571000Y-67321750I0J250000D01*
G01*
X296571000Y-66071750D01*
G75*
G02*
X296821000Y-65821750I250000J0D01*
G01*
X297571000Y-65821750D01*
G75*
G02*
X297821000Y-66071750I0J-250000D01*
G01*
G37*
%TD*%
%TO.C,D66*%
G36*
G01*
X295021000Y-48006000D02*
X295021000Y-49256000D01*
G75*
G02*
X294771000Y-49506000I-250000J0D01*
G01*
X294021000Y-49506000D01*
G75*
G02*
X293771000Y-49256000I0J250000D01*
G01*
X293771000Y-48006000D01*
G75*
G02*
X294021000Y-47756000I250000J0D01*
G01*
X294771000Y-47756000D01*
G75*
G02*
X295021000Y-48006000I0J-250000D01*
G01*
G37*
G36*
G01*
X297821000Y-48006000D02*
X297821000Y-49256000D01*
G75*
G02*
X297571000Y-49506000I-250000J0D01*
G01*
X296821000Y-49506000D01*
G75*
G02*
X296571000Y-49256000I0J250000D01*
G01*
X296571000Y-48006000D01*
G75*
G02*
X296821000Y-47756000I250000J0D01*
G01*
X297571000Y-47756000D01*
G75*
G02*
X297821000Y-48006000I0J-250000D01*
G01*
G37*
%TD*%
%TO.C,D65*%
G36*
G01*
X271018000Y-123221750D02*
X271018000Y-124471750D01*
G75*
G02*
X270768000Y-124721750I-250000J0D01*
G01*
X270018000Y-124721750D01*
G75*
G02*
X269768000Y-124471750I0J250000D01*
G01*
X269768000Y-123221750D01*
G75*
G02*
X270018000Y-122971750I250000J0D01*
G01*
X270768000Y-122971750D01*
G75*
G02*
X271018000Y-123221750I0J-250000D01*
G01*
G37*
G36*
G01*
X273818000Y-123221750D02*
X273818000Y-124471750D01*
G75*
G02*
X273568000Y-124721750I-250000J0D01*
G01*
X272818000Y-124721750D01*
G75*
G02*
X272568000Y-124471750I0J250000D01*
G01*
X272568000Y-123221750D01*
G75*
G02*
X272818000Y-122971750I250000J0D01*
G01*
X273568000Y-122971750D01*
G75*
G02*
X273818000Y-123221750I0J-250000D01*
G01*
G37*
%TD*%
%TO.C,D64*%
G36*
G01*
X271018000Y-104171750D02*
X271018000Y-105421750D01*
G75*
G02*
X270768000Y-105671750I-250000J0D01*
G01*
X270018000Y-105671750D01*
G75*
G02*
X269768000Y-105421750I0J250000D01*
G01*
X269768000Y-104171750D01*
G75*
G02*
X270018000Y-103921750I250000J0D01*
G01*
X270768000Y-103921750D01*
G75*
G02*
X271018000Y-104171750I0J-250000D01*
G01*
G37*
G36*
G01*
X273818000Y-104171750D02*
X273818000Y-105421750D01*
G75*
G02*
X273568000Y-105671750I-250000J0D01*
G01*
X272818000Y-105671750D01*
G75*
G02*
X272568000Y-105421750I0J250000D01*
G01*
X272568000Y-104171750D01*
G75*
G02*
X272818000Y-103921750I250000J0D01*
G01*
X273568000Y-103921750D01*
G75*
G02*
X273818000Y-104171750I0J-250000D01*
G01*
G37*
%TD*%
%TO.C,D63*%
G36*
G01*
X271015000Y-85121750D02*
X271015000Y-86371750D01*
G75*
G02*
X270765000Y-86621750I-250000J0D01*
G01*
X270015000Y-86621750D01*
G75*
G02*
X269765000Y-86371750I0J250000D01*
G01*
X269765000Y-85121750D01*
G75*
G02*
X270015000Y-84871750I250000J0D01*
G01*
X270765000Y-84871750D01*
G75*
G02*
X271015000Y-85121750I0J-250000D01*
G01*
G37*
G36*
G01*
X273815000Y-85121750D02*
X273815000Y-86371750D01*
G75*
G02*
X273565000Y-86621750I-250000J0D01*
G01*
X272815000Y-86621750D01*
G75*
G02*
X272565000Y-86371750I0J250000D01*
G01*
X272565000Y-85121750D01*
G75*
G02*
X272815000Y-84871750I250000J0D01*
G01*
X273565000Y-84871750D01*
G75*
G02*
X273815000Y-85121750I0J-250000D01*
G01*
G37*
%TD*%
%TO.C,D62*%
G36*
G01*
X271018000Y-66071750D02*
X271018000Y-67321750D01*
G75*
G02*
X270768000Y-67571750I-250000J0D01*
G01*
X270018000Y-67571750D01*
G75*
G02*
X269768000Y-67321750I0J250000D01*
G01*
X269768000Y-66071750D01*
G75*
G02*
X270018000Y-65821750I250000J0D01*
G01*
X270768000Y-65821750D01*
G75*
G02*
X271018000Y-66071750I0J-250000D01*
G01*
G37*
G36*
G01*
X273818000Y-66071750D02*
X273818000Y-67321750D01*
G75*
G02*
X273568000Y-67571750I-250000J0D01*
G01*
X272818000Y-67571750D01*
G75*
G02*
X272568000Y-67321750I0J250000D01*
G01*
X272568000Y-66071750D01*
G75*
G02*
X272818000Y-65821750I250000J0D01*
G01*
X273568000Y-65821750D01*
G75*
G02*
X273818000Y-66071750I0J-250000D01*
G01*
G37*
%TD*%
%TO.C,D61*%
G36*
G01*
X271018000Y-47021750D02*
X271018000Y-48271750D01*
G75*
G02*
X270768000Y-48521750I-250000J0D01*
G01*
X270018000Y-48521750D01*
G75*
G02*
X269768000Y-48271750I0J250000D01*
G01*
X269768000Y-47021750D01*
G75*
G02*
X270018000Y-46771750I250000J0D01*
G01*
X270768000Y-46771750D01*
G75*
G02*
X271018000Y-47021750I0J-250000D01*
G01*
G37*
G36*
G01*
X273818000Y-47021750D02*
X273818000Y-48271750D01*
G75*
G02*
X273568000Y-48521750I-250000J0D01*
G01*
X272818000Y-48521750D01*
G75*
G02*
X272568000Y-48271750I0J250000D01*
G01*
X272568000Y-47021750D01*
G75*
G02*
X272818000Y-46771750I250000J0D01*
G01*
X273568000Y-46771750D01*
G75*
G02*
X273818000Y-47021750I0J-250000D01*
G01*
G37*
%TD*%
%TO.C,D59*%
G36*
G01*
X251968000Y-100615750D02*
X251968000Y-101865750D01*
G75*
G02*
X251718000Y-102115750I-250000J0D01*
G01*
X250968000Y-102115750D01*
G75*
G02*
X250718000Y-101865750I0J250000D01*
G01*
X250718000Y-100615750D01*
G75*
G02*
X250968000Y-100365750I250000J0D01*
G01*
X251718000Y-100365750D01*
G75*
G02*
X251968000Y-100615750I0J-250000D01*
G01*
G37*
G36*
G01*
X254768000Y-100615750D02*
X254768000Y-101865750D01*
G75*
G02*
X254518000Y-102115750I-250000J0D01*
G01*
X253768000Y-102115750D01*
G75*
G02*
X253518000Y-101865750I0J250000D01*
G01*
X253518000Y-100615750D01*
G75*
G02*
X253768000Y-100365750I250000J0D01*
G01*
X254518000Y-100365750D01*
G75*
G02*
X254768000Y-100615750I0J-250000D01*
G01*
G37*
%TD*%
%TO.C,D58*%
G36*
G01*
X251968000Y-81565750D02*
X251968000Y-82815750D01*
G75*
G02*
X251718000Y-83065750I-250000J0D01*
G01*
X250968000Y-83065750D01*
G75*
G02*
X250718000Y-82815750I0J250000D01*
G01*
X250718000Y-81565750D01*
G75*
G02*
X250968000Y-81315750I250000J0D01*
G01*
X251718000Y-81315750D01*
G75*
G02*
X251968000Y-81565750I0J-250000D01*
G01*
G37*
G36*
G01*
X254768000Y-81565750D02*
X254768000Y-82815750D01*
G75*
G02*
X254518000Y-83065750I-250000J0D01*
G01*
X253768000Y-83065750D01*
G75*
G02*
X253518000Y-82815750I0J250000D01*
G01*
X253518000Y-81565750D01*
G75*
G02*
X253768000Y-81315750I250000J0D01*
G01*
X254518000Y-81315750D01*
G75*
G02*
X254768000Y-81565750I0J-250000D01*
G01*
G37*
%TD*%
%TO.C,D57*%
G36*
G01*
X251968000Y-62515750D02*
X251968000Y-63765750D01*
G75*
G02*
X251718000Y-64015750I-250000J0D01*
G01*
X250968000Y-64015750D01*
G75*
G02*
X250718000Y-63765750I0J250000D01*
G01*
X250718000Y-62515750D01*
G75*
G02*
X250968000Y-62265750I250000J0D01*
G01*
X251718000Y-62265750D01*
G75*
G02*
X251968000Y-62515750I0J-250000D01*
G01*
G37*
G36*
G01*
X254768000Y-62515750D02*
X254768000Y-63765750D01*
G75*
G02*
X254518000Y-64015750I-250000J0D01*
G01*
X253768000Y-64015750D01*
G75*
G02*
X253518000Y-63765750I0J250000D01*
G01*
X253518000Y-62515750D01*
G75*
G02*
X253768000Y-62265750I250000J0D01*
G01*
X254518000Y-62265750D01*
G75*
G02*
X254768000Y-62515750I0J-250000D01*
G01*
G37*
%TD*%
%TO.C,D56*%
G36*
G01*
X251968000Y-43465750D02*
X251968000Y-44715750D01*
G75*
G02*
X251718000Y-44965750I-250000J0D01*
G01*
X250968000Y-44965750D01*
G75*
G02*
X250718000Y-44715750I0J250000D01*
G01*
X250718000Y-43465750D01*
G75*
G02*
X250968000Y-43215750I250000J0D01*
G01*
X251718000Y-43215750D01*
G75*
G02*
X251968000Y-43465750I0J-250000D01*
G01*
G37*
G36*
G01*
X254768000Y-43465750D02*
X254768000Y-44715750D01*
G75*
G02*
X254518000Y-44965750I-250000J0D01*
G01*
X253768000Y-44965750D01*
G75*
G02*
X253518000Y-44715750I0J250000D01*
G01*
X253518000Y-43465750D01*
G75*
G02*
X253768000Y-43215750I250000J0D01*
G01*
X254518000Y-43215750D01*
G75*
G02*
X254768000Y-43465750I0J-250000D01*
G01*
G37*
%TD*%
%TO.C,D55*%
G36*
G01*
X232918000Y-116744750D02*
X232918000Y-117994750D01*
G75*
G02*
X232668000Y-118244750I-250000J0D01*
G01*
X231918000Y-118244750D01*
G75*
G02*
X231668000Y-117994750I0J250000D01*
G01*
X231668000Y-116744750D01*
G75*
G02*
X231918000Y-116494750I250000J0D01*
G01*
X232668000Y-116494750D01*
G75*
G02*
X232918000Y-116744750I0J-250000D01*
G01*
G37*
G36*
G01*
X235718000Y-116744750D02*
X235718000Y-117994750D01*
G75*
G02*
X235468000Y-118244750I-250000J0D01*
G01*
X234718000Y-118244750D01*
G75*
G02*
X234468000Y-117994750I0J250000D01*
G01*
X234468000Y-116744750D01*
G75*
G02*
X234718000Y-116494750I250000J0D01*
G01*
X235468000Y-116494750D01*
G75*
G02*
X235718000Y-116744750I0J-250000D01*
G01*
G37*
%TD*%
%TO.C,D54*%
G36*
G01*
X232918000Y-97694750D02*
X232918000Y-98944750D01*
G75*
G02*
X232668000Y-99194750I-250000J0D01*
G01*
X231918000Y-99194750D01*
G75*
G02*
X231668000Y-98944750I0J250000D01*
G01*
X231668000Y-97694750D01*
G75*
G02*
X231918000Y-97444750I250000J0D01*
G01*
X232668000Y-97444750D01*
G75*
G02*
X232918000Y-97694750I0J-250000D01*
G01*
G37*
G36*
G01*
X235718000Y-97694750D02*
X235718000Y-98944750D01*
G75*
G02*
X235468000Y-99194750I-250000J0D01*
G01*
X234718000Y-99194750D01*
G75*
G02*
X234468000Y-98944750I0J250000D01*
G01*
X234468000Y-97694750D01*
G75*
G02*
X234718000Y-97444750I250000J0D01*
G01*
X235468000Y-97444750D01*
G75*
G02*
X235718000Y-97694750I0J-250000D01*
G01*
G37*
%TD*%
%TO.C,D53*%
G36*
G01*
X232978500Y-78644750D02*
X232978500Y-79894750D01*
G75*
G02*
X232728500Y-80144750I-250000J0D01*
G01*
X231978500Y-80144750D01*
G75*
G02*
X231728500Y-79894750I0J250000D01*
G01*
X231728500Y-78644750D01*
G75*
G02*
X231978500Y-78394750I250000J0D01*
G01*
X232728500Y-78394750D01*
G75*
G02*
X232978500Y-78644750I0J-250000D01*
G01*
G37*
G36*
G01*
X235778500Y-78644750D02*
X235778500Y-79894750D01*
G75*
G02*
X235528500Y-80144750I-250000J0D01*
G01*
X234778500Y-80144750D01*
G75*
G02*
X234528500Y-79894750I0J250000D01*
G01*
X234528500Y-78644750D01*
G75*
G02*
X234778500Y-78394750I250000J0D01*
G01*
X235528500Y-78394750D01*
G75*
G02*
X235778500Y-78644750I0J-250000D01*
G01*
G37*
%TD*%
%TO.C,D52*%
G36*
G01*
X232918000Y-59594750D02*
X232918000Y-60844750D01*
G75*
G02*
X232668000Y-61094750I-250000J0D01*
G01*
X231918000Y-61094750D01*
G75*
G02*
X231668000Y-60844750I0J250000D01*
G01*
X231668000Y-59594750D01*
G75*
G02*
X231918000Y-59344750I250000J0D01*
G01*
X232668000Y-59344750D01*
G75*
G02*
X232918000Y-59594750I0J-250000D01*
G01*
G37*
G36*
G01*
X235718000Y-59594750D02*
X235718000Y-60844750D01*
G75*
G02*
X235468000Y-61094750I-250000J0D01*
G01*
X234718000Y-61094750D01*
G75*
G02*
X234468000Y-60844750I0J250000D01*
G01*
X234468000Y-59594750D01*
G75*
G02*
X234718000Y-59344750I250000J0D01*
G01*
X235468000Y-59344750D01*
G75*
G02*
X235718000Y-59594750I0J-250000D01*
G01*
G37*
%TD*%
%TO.C,D51*%
G36*
G01*
X232915000Y-40544750D02*
X232915000Y-41794750D01*
G75*
G02*
X232665000Y-42044750I-250000J0D01*
G01*
X231915000Y-42044750D01*
G75*
G02*
X231665000Y-41794750I0J250000D01*
G01*
X231665000Y-40544750D01*
G75*
G02*
X231915000Y-40294750I250000J0D01*
G01*
X232665000Y-40294750D01*
G75*
G02*
X232915000Y-40544750I0J-250000D01*
G01*
G37*
G36*
G01*
X235715000Y-40544750D02*
X235715000Y-41794750D01*
G75*
G02*
X235465000Y-42044750I-250000J0D01*
G01*
X234715000Y-42044750D01*
G75*
G02*
X234465000Y-41794750I0J250000D01*
G01*
X234465000Y-40544750D01*
G75*
G02*
X234715000Y-40294750I250000J0D01*
G01*
X235465000Y-40294750D01*
G75*
G02*
X235715000Y-40544750I0J-250000D01*
G01*
G37*
%TD*%
%TO.C,D50*%
G36*
G01*
X213868000Y-119665750D02*
X213868000Y-120915750D01*
G75*
G02*
X213618000Y-121165750I-250000J0D01*
G01*
X212868000Y-121165750D01*
G75*
G02*
X212618000Y-120915750I0J250000D01*
G01*
X212618000Y-119665750D01*
G75*
G02*
X212868000Y-119415750I250000J0D01*
G01*
X213618000Y-119415750D01*
G75*
G02*
X213868000Y-119665750I0J-250000D01*
G01*
G37*
G36*
G01*
X216668000Y-119665750D02*
X216668000Y-120915750D01*
G75*
G02*
X216418000Y-121165750I-250000J0D01*
G01*
X215668000Y-121165750D01*
G75*
G02*
X215418000Y-120915750I0J250000D01*
G01*
X215418000Y-119665750D01*
G75*
G02*
X215668000Y-119415750I250000J0D01*
G01*
X216418000Y-119415750D01*
G75*
G02*
X216668000Y-119665750I0J-250000D01*
G01*
G37*
%TD*%
%TO.C,D49*%
G36*
G01*
X213868000Y-100615750D02*
X213868000Y-101865750D01*
G75*
G02*
X213618000Y-102115750I-250000J0D01*
G01*
X212868000Y-102115750D01*
G75*
G02*
X212618000Y-101865750I0J250000D01*
G01*
X212618000Y-100615750D01*
G75*
G02*
X212868000Y-100365750I250000J0D01*
G01*
X213618000Y-100365750D01*
G75*
G02*
X213868000Y-100615750I0J-250000D01*
G01*
G37*
G36*
G01*
X216668000Y-100615750D02*
X216668000Y-101865750D01*
G75*
G02*
X216418000Y-102115750I-250000J0D01*
G01*
X215668000Y-102115750D01*
G75*
G02*
X215418000Y-101865750I0J250000D01*
G01*
X215418000Y-100615750D01*
G75*
G02*
X215668000Y-100365750I250000J0D01*
G01*
X216418000Y-100365750D01*
G75*
G02*
X216668000Y-100615750I0J-250000D01*
G01*
G37*
%TD*%
%TO.C,D48*%
G36*
G01*
X213868000Y-81565750D02*
X213868000Y-82815750D01*
G75*
G02*
X213618000Y-83065750I-250000J0D01*
G01*
X212868000Y-83065750D01*
G75*
G02*
X212618000Y-82815750I0J250000D01*
G01*
X212618000Y-81565750D01*
G75*
G02*
X212868000Y-81315750I250000J0D01*
G01*
X213618000Y-81315750D01*
G75*
G02*
X213868000Y-81565750I0J-250000D01*
G01*
G37*
G36*
G01*
X216668000Y-81565750D02*
X216668000Y-82815750D01*
G75*
G02*
X216418000Y-83065750I-250000J0D01*
G01*
X215668000Y-83065750D01*
G75*
G02*
X215418000Y-82815750I0J250000D01*
G01*
X215418000Y-81565750D01*
G75*
G02*
X215668000Y-81315750I250000J0D01*
G01*
X216418000Y-81315750D01*
G75*
G02*
X216668000Y-81565750I0J-250000D01*
G01*
G37*
%TD*%
%TO.C,D47*%
G36*
G01*
X213931500Y-62515750D02*
X213931500Y-63765750D01*
G75*
G02*
X213681500Y-64015750I-250000J0D01*
G01*
X212931500Y-64015750D01*
G75*
G02*
X212681500Y-63765750I0J250000D01*
G01*
X212681500Y-62515750D01*
G75*
G02*
X212931500Y-62265750I250000J0D01*
G01*
X213681500Y-62265750D01*
G75*
G02*
X213931500Y-62515750I0J-250000D01*
G01*
G37*
G36*
G01*
X216731500Y-62515750D02*
X216731500Y-63765750D01*
G75*
G02*
X216481500Y-64015750I-250000J0D01*
G01*
X215731500Y-64015750D01*
G75*
G02*
X215481500Y-63765750I0J250000D01*
G01*
X215481500Y-62515750D01*
G75*
G02*
X215731500Y-62265750I250000J0D01*
G01*
X216481500Y-62265750D01*
G75*
G02*
X216731500Y-62515750I0J-250000D01*
G01*
G37*
%TD*%
%TO.C,D46*%
G36*
G01*
X213868000Y-43465750D02*
X213868000Y-44715750D01*
G75*
G02*
X213618000Y-44965750I-250000J0D01*
G01*
X212868000Y-44965750D01*
G75*
G02*
X212618000Y-44715750I0J250000D01*
G01*
X212618000Y-43465750D01*
G75*
G02*
X212868000Y-43215750I250000J0D01*
G01*
X213618000Y-43215750D01*
G75*
G02*
X213868000Y-43465750I0J-250000D01*
G01*
G37*
G36*
G01*
X216668000Y-43465750D02*
X216668000Y-44715750D01*
G75*
G02*
X216418000Y-44965750I-250000J0D01*
G01*
X215668000Y-44965750D01*
G75*
G02*
X215418000Y-44715750I0J250000D01*
G01*
X215418000Y-43465750D01*
G75*
G02*
X215668000Y-43215750I250000J0D01*
G01*
X216418000Y-43215750D01*
G75*
G02*
X216668000Y-43465750I0J-250000D01*
G01*
G37*
%TD*%
%TO.C,D44*%
G36*
G01*
X194818000Y-102520750D02*
X194818000Y-103770750D01*
G75*
G02*
X194568000Y-104020750I-250000J0D01*
G01*
X193818000Y-104020750D01*
G75*
G02*
X193568000Y-103770750I0J250000D01*
G01*
X193568000Y-102520750D01*
G75*
G02*
X193818000Y-102270750I250000J0D01*
G01*
X194568000Y-102270750D01*
G75*
G02*
X194818000Y-102520750I0J-250000D01*
G01*
G37*
G36*
G01*
X197618000Y-102520750D02*
X197618000Y-103770750D01*
G75*
G02*
X197368000Y-104020750I-250000J0D01*
G01*
X196618000Y-104020750D01*
G75*
G02*
X196368000Y-103770750I0J250000D01*
G01*
X196368000Y-102520750D01*
G75*
G02*
X196618000Y-102270750I250000J0D01*
G01*
X197368000Y-102270750D01*
G75*
G02*
X197618000Y-102520750I0J-250000D01*
G01*
G37*
%TD*%
%TO.C,D43*%
G36*
G01*
X194818000Y-83470750D02*
X194818000Y-84720750D01*
G75*
G02*
X194568000Y-84970750I-250000J0D01*
G01*
X193818000Y-84970750D01*
G75*
G02*
X193568000Y-84720750I0J250000D01*
G01*
X193568000Y-83470750D01*
G75*
G02*
X193818000Y-83220750I250000J0D01*
G01*
X194568000Y-83220750D01*
G75*
G02*
X194818000Y-83470750I0J-250000D01*
G01*
G37*
G36*
G01*
X197618000Y-83470750D02*
X197618000Y-84720750D01*
G75*
G02*
X197368000Y-84970750I-250000J0D01*
G01*
X196618000Y-84970750D01*
G75*
G02*
X196368000Y-84720750I0J250000D01*
G01*
X196368000Y-83470750D01*
G75*
G02*
X196618000Y-83220750I250000J0D01*
G01*
X197368000Y-83220750D01*
G75*
G02*
X197618000Y-83470750I0J-250000D01*
G01*
G37*
%TD*%
%TO.C,D42*%
G36*
G01*
X194818000Y-64420750D02*
X194818000Y-65670750D01*
G75*
G02*
X194568000Y-65920750I-250000J0D01*
G01*
X193818000Y-65920750D01*
G75*
G02*
X193568000Y-65670750I0J250000D01*
G01*
X193568000Y-64420750D01*
G75*
G02*
X193818000Y-64170750I250000J0D01*
G01*
X194568000Y-64170750D01*
G75*
G02*
X194818000Y-64420750I0J-250000D01*
G01*
G37*
G36*
G01*
X197618000Y-64420750D02*
X197618000Y-65670750D01*
G75*
G02*
X197368000Y-65920750I-250000J0D01*
G01*
X196618000Y-65920750D01*
G75*
G02*
X196368000Y-65670750I0J250000D01*
G01*
X196368000Y-64420750D01*
G75*
G02*
X196618000Y-64170750I250000J0D01*
G01*
X197368000Y-64170750D01*
G75*
G02*
X197618000Y-64420750I0J-250000D01*
G01*
G37*
%TD*%
%TO.C,D41*%
G36*
G01*
X194818000Y-45370750D02*
X194818000Y-46620750D01*
G75*
G02*
X194568000Y-46870750I-250000J0D01*
G01*
X193818000Y-46870750D01*
G75*
G02*
X193568000Y-46620750I0J250000D01*
G01*
X193568000Y-45370750D01*
G75*
G02*
X193818000Y-45120750I250000J0D01*
G01*
X194568000Y-45120750D01*
G75*
G02*
X194818000Y-45370750I0J-250000D01*
G01*
G37*
G36*
G01*
X197618000Y-45370750D02*
X197618000Y-46620750D01*
G75*
G02*
X197368000Y-46870750I-250000J0D01*
G01*
X196618000Y-46870750D01*
G75*
G02*
X196368000Y-46620750I0J250000D01*
G01*
X196368000Y-45370750D01*
G75*
G02*
X196618000Y-45120750I250000J0D01*
G01*
X197368000Y-45120750D01*
G75*
G02*
X197618000Y-45370750I0J-250000D01*
G01*
G37*
%TD*%
%TO.C,D40*%
G36*
G01*
X169457051Y-132842815D02*
X170340935Y-133726699D01*
G75*
G02*
X170340935Y-134080253I-176777J-176777D01*
G01*
X169810605Y-134610583D01*
G75*
G02*
X169457051Y-134610583I-176777J176777D01*
G01*
X168573167Y-133726699D01*
G75*
G02*
X168573167Y-133373145I176777J176777D01*
G01*
X169103497Y-132842815D01*
G75*
G02*
X169457051Y-132842815I176777J-176777D01*
G01*
G37*
G36*
G01*
X171436949Y-130862917D02*
X172320833Y-131746801D01*
G75*
G02*
X172320833Y-132100355I-176777J-176777D01*
G01*
X171790503Y-132630685D01*
G75*
G02*
X171436949Y-132630685I-176777J176777D01*
G01*
X170553065Y-131746801D01*
G75*
G02*
X170553065Y-131393247I176777J176777D01*
G01*
X171083395Y-130862917D01*
G75*
G02*
X171436949Y-130862917I176777J-176777D01*
G01*
G37*
%TD*%
%TO.C,D39*%
G36*
G01*
X175768000Y-104171750D02*
X175768000Y-105421750D01*
G75*
G02*
X175518000Y-105671750I-250000J0D01*
G01*
X174768000Y-105671750D01*
G75*
G02*
X174518000Y-105421750I0J250000D01*
G01*
X174518000Y-104171750D01*
G75*
G02*
X174768000Y-103921750I250000J0D01*
G01*
X175518000Y-103921750D01*
G75*
G02*
X175768000Y-104171750I0J-250000D01*
G01*
G37*
G36*
G01*
X178568000Y-104171750D02*
X178568000Y-105421750D01*
G75*
G02*
X178318000Y-105671750I-250000J0D01*
G01*
X177568000Y-105671750D01*
G75*
G02*
X177318000Y-105421750I0J250000D01*
G01*
X177318000Y-104171750D01*
G75*
G02*
X177568000Y-103921750I250000J0D01*
G01*
X178318000Y-103921750D01*
G75*
G02*
X178568000Y-104171750I0J-250000D01*
G01*
G37*
%TD*%
%TO.C,D38*%
G36*
G01*
X175768000Y-85121750D02*
X175768000Y-86371750D01*
G75*
G02*
X175518000Y-86621750I-250000J0D01*
G01*
X174768000Y-86621750D01*
G75*
G02*
X174518000Y-86371750I0J250000D01*
G01*
X174518000Y-85121750D01*
G75*
G02*
X174768000Y-84871750I250000J0D01*
G01*
X175518000Y-84871750D01*
G75*
G02*
X175768000Y-85121750I0J-250000D01*
G01*
G37*
G36*
G01*
X178568000Y-85121750D02*
X178568000Y-86371750D01*
G75*
G02*
X178318000Y-86621750I-250000J0D01*
G01*
X177568000Y-86621750D01*
G75*
G02*
X177318000Y-86371750I0J250000D01*
G01*
X177318000Y-85121750D01*
G75*
G02*
X177568000Y-84871750I250000J0D01*
G01*
X178318000Y-84871750D01*
G75*
G02*
X178568000Y-85121750I0J-250000D01*
G01*
G37*
%TD*%
%TO.C,D37*%
G36*
G01*
X175768000Y-66071750D02*
X175768000Y-67321750D01*
G75*
G02*
X175518000Y-67571750I-250000J0D01*
G01*
X174768000Y-67571750D01*
G75*
G02*
X174518000Y-67321750I0J250000D01*
G01*
X174518000Y-66071750D01*
G75*
G02*
X174768000Y-65821750I250000J0D01*
G01*
X175518000Y-65821750D01*
G75*
G02*
X175768000Y-66071750I0J-250000D01*
G01*
G37*
G36*
G01*
X178568000Y-66071750D02*
X178568000Y-67321750D01*
G75*
G02*
X178318000Y-67571750I-250000J0D01*
G01*
X177568000Y-67571750D01*
G75*
G02*
X177318000Y-67321750I0J250000D01*
G01*
X177318000Y-66071750D01*
G75*
G02*
X177568000Y-65821750I250000J0D01*
G01*
X178318000Y-65821750D01*
G75*
G02*
X178568000Y-66071750I0J-250000D01*
G01*
G37*
%TD*%
%TO.C,D36*%
G36*
G01*
X175768000Y-47021750D02*
X175768000Y-48271750D01*
G75*
G02*
X175518000Y-48521750I-250000J0D01*
G01*
X174768000Y-48521750D01*
G75*
G02*
X174518000Y-48271750I0J250000D01*
G01*
X174518000Y-47021750D01*
G75*
G02*
X174768000Y-46771750I250000J0D01*
G01*
X175518000Y-46771750D01*
G75*
G02*
X175768000Y-47021750I0J-250000D01*
G01*
G37*
G36*
G01*
X178568000Y-47021750D02*
X178568000Y-48271750D01*
G75*
G02*
X178318000Y-48521750I-250000J0D01*
G01*
X177568000Y-48521750D01*
G75*
G02*
X177318000Y-48271750I0J250000D01*
G01*
X177318000Y-47021750D01*
G75*
G02*
X177568000Y-46771750I250000J0D01*
G01*
X178318000Y-46771750D01*
G75*
G02*
X178568000Y-47021750I0J-250000D01*
G01*
G37*
%TD*%
%TO.C,D35*%
G36*
G01*
X129563815Y-133726699D02*
X130447699Y-132842815D01*
G75*
G02*
X130801253Y-132842815I176777J-176777D01*
G01*
X131331583Y-133373145D01*
G75*
G02*
X131331583Y-133726699I-176777J-176777D01*
G01*
X130447699Y-134610583D01*
G75*
G02*
X130094145Y-134610583I-176777J176777D01*
G01*
X129563815Y-134080253D01*
G75*
G02*
X129563815Y-133726699I176777J176777D01*
G01*
G37*
G36*
G01*
X127583917Y-131746801D02*
X128467801Y-130862917D01*
G75*
G02*
X128821355Y-130862917I176777J-176777D01*
G01*
X129351685Y-131393247D01*
G75*
G02*
X129351685Y-131746801I-176777J-176777D01*
G01*
X128467801Y-132630685D01*
G75*
G02*
X128114247Y-132630685I-176777J176777D01*
G01*
X127583917Y-132100355D01*
G75*
G02*
X127583917Y-131746801I176777J176777D01*
G01*
G37*
%TD*%
%TO.C,D34*%
G36*
G01*
X124009750Y-105421750D02*
X124009750Y-104171750D01*
G75*
G02*
X124259750Y-103921750I250000J0D01*
G01*
X125009750Y-103921750D01*
G75*
G02*
X125259750Y-104171750I0J-250000D01*
G01*
X125259750Y-105421750D01*
G75*
G02*
X125009750Y-105671750I-250000J0D01*
G01*
X124259750Y-105671750D01*
G75*
G02*
X124009750Y-105421750I0J250000D01*
G01*
G37*
G36*
G01*
X121209750Y-105421750D02*
X121209750Y-104171750D01*
G75*
G02*
X121459750Y-103921750I250000J0D01*
G01*
X122209750Y-103921750D01*
G75*
G02*
X122459750Y-104171750I0J-250000D01*
G01*
X122459750Y-105421750D01*
G75*
G02*
X122209750Y-105671750I-250000J0D01*
G01*
X121459750Y-105671750D01*
G75*
G02*
X121209750Y-105421750I0J250000D01*
G01*
G37*
%TD*%
%TO.C,D33*%
G36*
G01*
X124009750Y-86371750D02*
X124009750Y-85121750D01*
G75*
G02*
X124259750Y-84871750I250000J0D01*
G01*
X125009750Y-84871750D01*
G75*
G02*
X125259750Y-85121750I0J-250000D01*
G01*
X125259750Y-86371750D01*
G75*
G02*
X125009750Y-86621750I-250000J0D01*
G01*
X124259750Y-86621750D01*
G75*
G02*
X124009750Y-86371750I0J250000D01*
G01*
G37*
G36*
G01*
X121209750Y-86371750D02*
X121209750Y-85121750D01*
G75*
G02*
X121459750Y-84871750I250000J0D01*
G01*
X122209750Y-84871750D01*
G75*
G02*
X122459750Y-85121750I0J-250000D01*
G01*
X122459750Y-86371750D01*
G75*
G02*
X122209750Y-86621750I-250000J0D01*
G01*
X121459750Y-86621750D01*
G75*
G02*
X121209750Y-86371750I0J250000D01*
G01*
G37*
%TD*%
%TO.C,D32*%
G36*
G01*
X124009750Y-67321750D02*
X124009750Y-66071750D01*
G75*
G02*
X124259750Y-65821750I250000J0D01*
G01*
X125009750Y-65821750D01*
G75*
G02*
X125259750Y-66071750I0J-250000D01*
G01*
X125259750Y-67321750D01*
G75*
G02*
X125009750Y-67571750I-250000J0D01*
G01*
X124259750Y-67571750D01*
G75*
G02*
X124009750Y-67321750I0J250000D01*
G01*
G37*
G36*
G01*
X121209750Y-67321750D02*
X121209750Y-66071750D01*
G75*
G02*
X121459750Y-65821750I250000J0D01*
G01*
X122209750Y-65821750D01*
G75*
G02*
X122459750Y-66071750I0J-250000D01*
G01*
X122459750Y-67321750D01*
G75*
G02*
X122209750Y-67571750I-250000J0D01*
G01*
X121459750Y-67571750D01*
G75*
G02*
X121209750Y-67321750I0J250000D01*
G01*
G37*
%TD*%
%TO.C,D31*%
G36*
G01*
X124009750Y-48271750D02*
X124009750Y-47021750D01*
G75*
G02*
X124259750Y-46771750I250000J0D01*
G01*
X125009750Y-46771750D01*
G75*
G02*
X125259750Y-47021750I0J-250000D01*
G01*
X125259750Y-48271750D01*
G75*
G02*
X125009750Y-48521750I-250000J0D01*
G01*
X124259750Y-48521750D01*
G75*
G02*
X124009750Y-48271750I0J250000D01*
G01*
G37*
G36*
G01*
X121209750Y-48271750D02*
X121209750Y-47021750D01*
G75*
G02*
X121459750Y-46771750I250000J0D01*
G01*
X122209750Y-46771750D01*
G75*
G02*
X122459750Y-47021750I0J-250000D01*
G01*
X122459750Y-48271750D01*
G75*
G02*
X122209750Y-48521750I-250000J0D01*
G01*
X121459750Y-48521750D01*
G75*
G02*
X121209750Y-48271750I0J250000D01*
G01*
G37*
%TD*%
%TO.C,D30*%
G36*
G01*
X110639420Y-122362516D02*
X111264420Y-121279984D01*
G75*
G02*
X111605926Y-121188478I216506J-125000D01*
G01*
X112255446Y-121563478D01*
G75*
G02*
X112346952Y-121904984I-125000J-216506D01*
G01*
X111721952Y-122987516D01*
G75*
G02*
X111380446Y-123079022I-216506J125000D01*
G01*
X110730926Y-122704022D01*
G75*
G02*
X110639420Y-122362516I125000J216506D01*
G01*
G37*
G36*
G01*
X108214548Y-120962516D02*
X108839548Y-119879984D01*
G75*
G02*
X109181054Y-119788478I216506J-125000D01*
G01*
X109830574Y-120163478D01*
G75*
G02*
X109922080Y-120504984I-125000J-216506D01*
G01*
X109297080Y-121587516D01*
G75*
G02*
X108955574Y-121679022I-216506J125000D01*
G01*
X108306054Y-121304022D01*
G75*
G02*
X108214548Y-120962516I125000J216506D01*
G01*
G37*
%TD*%
%TO.C,D29*%
G36*
G01*
X104959750Y-103643750D02*
X104959750Y-102393750D01*
G75*
G02*
X105209750Y-102143750I250000J0D01*
G01*
X105959750Y-102143750D01*
G75*
G02*
X106209750Y-102393750I0J-250000D01*
G01*
X106209750Y-103643750D01*
G75*
G02*
X105959750Y-103893750I-250000J0D01*
G01*
X105209750Y-103893750D01*
G75*
G02*
X104959750Y-103643750I0J250000D01*
G01*
G37*
G36*
G01*
X102159750Y-103643750D02*
X102159750Y-102393750D01*
G75*
G02*
X102409750Y-102143750I250000J0D01*
G01*
X103159750Y-102143750D01*
G75*
G02*
X103409750Y-102393750I0J-250000D01*
G01*
X103409750Y-103643750D01*
G75*
G02*
X103159750Y-103893750I-250000J0D01*
G01*
X102409750Y-103893750D01*
G75*
G02*
X102159750Y-103643750I0J250000D01*
G01*
G37*
%TD*%
%TO.C,D28*%
G36*
G01*
X104959750Y-84689000D02*
X104959750Y-83439000D01*
G75*
G02*
X105209750Y-83189000I250000J0D01*
G01*
X105959750Y-83189000D01*
G75*
G02*
X106209750Y-83439000I0J-250000D01*
G01*
X106209750Y-84689000D01*
G75*
G02*
X105959750Y-84939000I-250000J0D01*
G01*
X105209750Y-84939000D01*
G75*
G02*
X104959750Y-84689000I0J250000D01*
G01*
G37*
G36*
G01*
X102159750Y-84689000D02*
X102159750Y-83439000D01*
G75*
G02*
X102409750Y-83189000I250000J0D01*
G01*
X103159750Y-83189000D01*
G75*
G02*
X103409750Y-83439000I0J-250000D01*
G01*
X103409750Y-84689000D01*
G75*
G02*
X103159750Y-84939000I-250000J0D01*
G01*
X102409750Y-84939000D01*
G75*
G02*
X102159750Y-84689000I0J250000D01*
G01*
G37*
%TD*%
%TO.C,D27*%
G36*
G01*
X104959750Y-65670750D02*
X104959750Y-64420750D01*
G75*
G02*
X105209750Y-64170750I250000J0D01*
G01*
X105959750Y-64170750D01*
G75*
G02*
X106209750Y-64420750I0J-250000D01*
G01*
X106209750Y-65670750D01*
G75*
G02*
X105959750Y-65920750I-250000J0D01*
G01*
X105209750Y-65920750D01*
G75*
G02*
X104959750Y-65670750I0J250000D01*
G01*
G37*
G36*
G01*
X102159750Y-65670750D02*
X102159750Y-64420750D01*
G75*
G02*
X102409750Y-64170750I250000J0D01*
G01*
X103159750Y-64170750D01*
G75*
G02*
X103409750Y-64420750I0J-250000D01*
G01*
X103409750Y-65670750D01*
G75*
G02*
X103159750Y-65920750I-250000J0D01*
G01*
X102409750Y-65920750D01*
G75*
G02*
X102159750Y-65670750I0J250000D01*
G01*
G37*
%TD*%
%TO.C,D26*%
G36*
G01*
X104959750Y-46620750D02*
X104959750Y-45370750D01*
G75*
G02*
X105209750Y-45120750I250000J0D01*
G01*
X105959750Y-45120750D01*
G75*
G02*
X106209750Y-45370750I0J-250000D01*
G01*
X106209750Y-46620750D01*
G75*
G02*
X105959750Y-46870750I-250000J0D01*
G01*
X105209750Y-46870750D01*
G75*
G02*
X104959750Y-46620750I0J250000D01*
G01*
G37*
G36*
G01*
X102159750Y-46620750D02*
X102159750Y-45370750D01*
G75*
G02*
X102409750Y-45120750I250000J0D01*
G01*
X103159750Y-45120750D01*
G75*
G02*
X103409750Y-45370750I0J-250000D01*
G01*
X103409750Y-46620750D01*
G75*
G02*
X103159750Y-46870750I-250000J0D01*
G01*
X102409750Y-46870750D01*
G75*
G02*
X102159750Y-46620750I0J250000D01*
G01*
G37*
%TD*%
%TO.C,D25*%
G36*
G01*
X85909750Y-120915750D02*
X85909750Y-119665750D01*
G75*
G02*
X86159750Y-119415750I250000J0D01*
G01*
X86909750Y-119415750D01*
G75*
G02*
X87159750Y-119665750I0J-250000D01*
G01*
X87159750Y-120915750D01*
G75*
G02*
X86909750Y-121165750I-250000J0D01*
G01*
X86159750Y-121165750D01*
G75*
G02*
X85909750Y-120915750I0J250000D01*
G01*
G37*
G36*
G01*
X83109750Y-120915750D02*
X83109750Y-119665750D01*
G75*
G02*
X83359750Y-119415750I250000J0D01*
G01*
X84109750Y-119415750D01*
G75*
G02*
X84359750Y-119665750I0J-250000D01*
G01*
X84359750Y-120915750D01*
G75*
G02*
X84109750Y-121165750I-250000J0D01*
G01*
X83359750Y-121165750D01*
G75*
G02*
X83109750Y-120915750I0J250000D01*
G01*
G37*
%TD*%
%TO.C,D24*%
G36*
G01*
X85909750Y-101865750D02*
X85909750Y-100615750D01*
G75*
G02*
X86159750Y-100365750I250000J0D01*
G01*
X86909750Y-100365750D01*
G75*
G02*
X87159750Y-100615750I0J-250000D01*
G01*
X87159750Y-101865750D01*
G75*
G02*
X86909750Y-102115750I-250000J0D01*
G01*
X86159750Y-102115750D01*
G75*
G02*
X85909750Y-101865750I0J250000D01*
G01*
G37*
G36*
G01*
X83109750Y-101865750D02*
X83109750Y-100615750D01*
G75*
G02*
X83359750Y-100365750I250000J0D01*
G01*
X84109750Y-100365750D01*
G75*
G02*
X84359750Y-100615750I0J-250000D01*
G01*
X84359750Y-101865750D01*
G75*
G02*
X84109750Y-102115750I-250000J0D01*
G01*
X83359750Y-102115750D01*
G75*
G02*
X83109750Y-101865750I0J250000D01*
G01*
G37*
%TD*%
%TO.C,D23*%
G36*
G01*
X85909750Y-82688750D02*
X85909750Y-81438750D01*
G75*
G02*
X86159750Y-81188750I250000J0D01*
G01*
X86909750Y-81188750D01*
G75*
G02*
X87159750Y-81438750I0J-250000D01*
G01*
X87159750Y-82688750D01*
G75*
G02*
X86909750Y-82938750I-250000J0D01*
G01*
X86159750Y-82938750D01*
G75*
G02*
X85909750Y-82688750I0J250000D01*
G01*
G37*
G36*
G01*
X83109750Y-82688750D02*
X83109750Y-81438750D01*
G75*
G02*
X83359750Y-81188750I250000J0D01*
G01*
X84109750Y-81188750D01*
G75*
G02*
X84359750Y-81438750I0J-250000D01*
G01*
X84359750Y-82688750D01*
G75*
G02*
X84109750Y-82938750I-250000J0D01*
G01*
X83359750Y-82938750D01*
G75*
G02*
X83109750Y-82688750I0J250000D01*
G01*
G37*
%TD*%
%TO.C,D22*%
G36*
G01*
X85909750Y-63765750D02*
X85909750Y-62515750D01*
G75*
G02*
X86159750Y-62265750I250000J0D01*
G01*
X86909750Y-62265750D01*
G75*
G02*
X87159750Y-62515750I0J-250000D01*
G01*
X87159750Y-63765750D01*
G75*
G02*
X86909750Y-64015750I-250000J0D01*
G01*
X86159750Y-64015750D01*
G75*
G02*
X85909750Y-63765750I0J250000D01*
G01*
G37*
G36*
G01*
X83109750Y-63765750D02*
X83109750Y-62515750D01*
G75*
G02*
X83359750Y-62265750I250000J0D01*
G01*
X84109750Y-62265750D01*
G75*
G02*
X84359750Y-62515750I0J-250000D01*
G01*
X84359750Y-63765750D01*
G75*
G02*
X84109750Y-64015750I-250000J0D01*
G01*
X83359750Y-64015750D01*
G75*
G02*
X83109750Y-63765750I0J250000D01*
G01*
G37*
%TD*%
%TO.C,D21*%
G36*
G01*
X85909750Y-44715750D02*
X85909750Y-43465750D01*
G75*
G02*
X86159750Y-43215750I250000J0D01*
G01*
X86909750Y-43215750D01*
G75*
G02*
X87159750Y-43465750I0J-250000D01*
G01*
X87159750Y-44715750D01*
G75*
G02*
X86909750Y-44965750I-250000J0D01*
G01*
X86159750Y-44965750D01*
G75*
G02*
X85909750Y-44715750I0J250000D01*
G01*
G37*
G36*
G01*
X83109750Y-44715750D02*
X83109750Y-43465750D01*
G75*
G02*
X83359750Y-43215750I250000J0D01*
G01*
X84109750Y-43215750D01*
G75*
G02*
X84359750Y-43465750I0J-250000D01*
G01*
X84359750Y-44715750D01*
G75*
G02*
X84109750Y-44965750I-250000J0D01*
G01*
X83359750Y-44965750D01*
G75*
G02*
X83109750Y-44715750I0J250000D01*
G01*
G37*
%TD*%
%TO.C,D20*%
G36*
G01*
X66859750Y-118121750D02*
X66859750Y-116871750D01*
G75*
G02*
X67109750Y-116621750I250000J0D01*
G01*
X67859750Y-116621750D01*
G75*
G02*
X68109750Y-116871750I0J-250000D01*
G01*
X68109750Y-118121750D01*
G75*
G02*
X67859750Y-118371750I-250000J0D01*
G01*
X67109750Y-118371750D01*
G75*
G02*
X66859750Y-118121750I0J250000D01*
G01*
G37*
G36*
G01*
X64059750Y-118121750D02*
X64059750Y-116871750D01*
G75*
G02*
X64309750Y-116621750I250000J0D01*
G01*
X65059750Y-116621750D01*
G75*
G02*
X65309750Y-116871750I0J-250000D01*
G01*
X65309750Y-118121750D01*
G75*
G02*
X65059750Y-118371750I-250000J0D01*
G01*
X64309750Y-118371750D01*
G75*
G02*
X64059750Y-118121750I0J250000D01*
G01*
G37*
%TD*%
%TO.C,D19*%
G36*
G01*
X66859750Y-99071750D02*
X66859750Y-97821750D01*
G75*
G02*
X67109750Y-97571750I250000J0D01*
G01*
X67859750Y-97571750D01*
G75*
G02*
X68109750Y-97821750I0J-250000D01*
G01*
X68109750Y-99071750D01*
G75*
G02*
X67859750Y-99321750I-250000J0D01*
G01*
X67109750Y-99321750D01*
G75*
G02*
X66859750Y-99071750I0J250000D01*
G01*
G37*
G36*
G01*
X64059750Y-99071750D02*
X64059750Y-97821750D01*
G75*
G02*
X64309750Y-97571750I250000J0D01*
G01*
X65059750Y-97571750D01*
G75*
G02*
X65309750Y-97821750I0J-250000D01*
G01*
X65309750Y-99071750D01*
G75*
G02*
X65059750Y-99321750I-250000J0D01*
G01*
X64309750Y-99321750D01*
G75*
G02*
X64059750Y-99071750I0J250000D01*
G01*
G37*
%TD*%
%TO.C,D18*%
G36*
G01*
X66859750Y-80021750D02*
X66859750Y-78771750D01*
G75*
G02*
X67109750Y-78521750I250000J0D01*
G01*
X67859750Y-78521750D01*
G75*
G02*
X68109750Y-78771750I0J-250000D01*
G01*
X68109750Y-80021750D01*
G75*
G02*
X67859750Y-80271750I-250000J0D01*
G01*
X67109750Y-80271750D01*
G75*
G02*
X66859750Y-80021750I0J250000D01*
G01*
G37*
G36*
G01*
X64059750Y-80021750D02*
X64059750Y-78771750D01*
G75*
G02*
X64309750Y-78521750I250000J0D01*
G01*
X65059750Y-78521750D01*
G75*
G02*
X65309750Y-78771750I0J-250000D01*
G01*
X65309750Y-80021750D01*
G75*
G02*
X65059750Y-80271750I-250000J0D01*
G01*
X64309750Y-80271750D01*
G75*
G02*
X64059750Y-80021750I0J250000D01*
G01*
G37*
%TD*%
%TO.C,D17*%
G36*
G01*
X66859750Y-60971750D02*
X66859750Y-59721750D01*
G75*
G02*
X67109750Y-59471750I250000J0D01*
G01*
X67859750Y-59471750D01*
G75*
G02*
X68109750Y-59721750I0J-250000D01*
G01*
X68109750Y-60971750D01*
G75*
G02*
X67859750Y-61221750I-250000J0D01*
G01*
X67109750Y-61221750D01*
G75*
G02*
X66859750Y-60971750I0J250000D01*
G01*
G37*
G36*
G01*
X64059750Y-60971750D02*
X64059750Y-59721750D01*
G75*
G02*
X64309750Y-59471750I250000J0D01*
G01*
X65059750Y-59471750D01*
G75*
G02*
X65309750Y-59721750I0J-250000D01*
G01*
X65309750Y-60971750D01*
G75*
G02*
X65059750Y-61221750I-250000J0D01*
G01*
X64309750Y-61221750D01*
G75*
G02*
X64059750Y-60971750I0J250000D01*
G01*
G37*
%TD*%
%TO.C,D16*%
G36*
G01*
X66859750Y-41794750D02*
X66859750Y-40544750D01*
G75*
G02*
X67109750Y-40294750I250000J0D01*
G01*
X67859750Y-40294750D01*
G75*
G02*
X68109750Y-40544750I0J-250000D01*
G01*
X68109750Y-41794750D01*
G75*
G02*
X67859750Y-42044750I-250000J0D01*
G01*
X67109750Y-42044750D01*
G75*
G02*
X66859750Y-41794750I0J250000D01*
G01*
G37*
G36*
G01*
X64059750Y-41794750D02*
X64059750Y-40544750D01*
G75*
G02*
X64309750Y-40294750I250000J0D01*
G01*
X65059750Y-40294750D01*
G75*
G02*
X65309750Y-40544750I0J-250000D01*
G01*
X65309750Y-41794750D01*
G75*
G02*
X65059750Y-42044750I-250000J0D01*
G01*
X64309750Y-42044750D01*
G75*
G02*
X64059750Y-41794750I0J250000D01*
G01*
G37*
%TD*%
%TO.C,D15*%
G36*
G01*
X47809750Y-120915750D02*
X47809750Y-119665750D01*
G75*
G02*
X48059750Y-119415750I250000J0D01*
G01*
X48809750Y-119415750D01*
G75*
G02*
X49059750Y-119665750I0J-250000D01*
G01*
X49059750Y-120915750D01*
G75*
G02*
X48809750Y-121165750I-250000J0D01*
G01*
X48059750Y-121165750D01*
G75*
G02*
X47809750Y-120915750I0J250000D01*
G01*
G37*
G36*
G01*
X45009750Y-120915750D02*
X45009750Y-119665750D01*
G75*
G02*
X45259750Y-119415750I250000J0D01*
G01*
X46009750Y-119415750D01*
G75*
G02*
X46259750Y-119665750I0J-250000D01*
G01*
X46259750Y-120915750D01*
G75*
G02*
X46009750Y-121165750I-250000J0D01*
G01*
X45259750Y-121165750D01*
G75*
G02*
X45009750Y-120915750I0J250000D01*
G01*
G37*
%TD*%
%TO.C,D14*%
G36*
G01*
X47809750Y-101865750D02*
X47809750Y-100615750D01*
G75*
G02*
X48059750Y-100365750I250000J0D01*
G01*
X48809750Y-100365750D01*
G75*
G02*
X49059750Y-100615750I0J-250000D01*
G01*
X49059750Y-101865750D01*
G75*
G02*
X48809750Y-102115750I-250000J0D01*
G01*
X48059750Y-102115750D01*
G75*
G02*
X47809750Y-101865750I0J250000D01*
G01*
G37*
G36*
G01*
X45009750Y-101865750D02*
X45009750Y-100615750D01*
G75*
G02*
X45259750Y-100365750I250000J0D01*
G01*
X46009750Y-100365750D01*
G75*
G02*
X46259750Y-100615750I0J-250000D01*
G01*
X46259750Y-101865750D01*
G75*
G02*
X46009750Y-102115750I-250000J0D01*
G01*
X45259750Y-102115750D01*
G75*
G02*
X45009750Y-101865750I0J250000D01*
G01*
G37*
%TD*%
%TO.C,D13*%
G36*
G01*
X47809750Y-82815750D02*
X47809750Y-81565750D01*
G75*
G02*
X48059750Y-81315750I250000J0D01*
G01*
X48809750Y-81315750D01*
G75*
G02*
X49059750Y-81565750I0J-250000D01*
G01*
X49059750Y-82815750D01*
G75*
G02*
X48809750Y-83065750I-250000J0D01*
G01*
X48059750Y-83065750D01*
G75*
G02*
X47809750Y-82815750I0J250000D01*
G01*
G37*
G36*
G01*
X45009750Y-82815750D02*
X45009750Y-81565750D01*
G75*
G02*
X45259750Y-81315750I250000J0D01*
G01*
X46009750Y-81315750D01*
G75*
G02*
X46259750Y-81565750I0J-250000D01*
G01*
X46259750Y-82815750D01*
G75*
G02*
X46009750Y-83065750I-250000J0D01*
G01*
X45259750Y-83065750D01*
G75*
G02*
X45009750Y-82815750I0J250000D01*
G01*
G37*
%TD*%
%TO.C,D12*%
G36*
G01*
X47806750Y-63765750D02*
X47806750Y-62515750D01*
G75*
G02*
X48056750Y-62265750I250000J0D01*
G01*
X48806750Y-62265750D01*
G75*
G02*
X49056750Y-62515750I0J-250000D01*
G01*
X49056750Y-63765750D01*
G75*
G02*
X48806750Y-64015750I-250000J0D01*
G01*
X48056750Y-64015750D01*
G75*
G02*
X47806750Y-63765750I0J250000D01*
G01*
G37*
G36*
G01*
X45006750Y-63765750D02*
X45006750Y-62515750D01*
G75*
G02*
X45256750Y-62265750I250000J0D01*
G01*
X46006750Y-62265750D01*
G75*
G02*
X46256750Y-62515750I0J-250000D01*
G01*
X46256750Y-63765750D01*
G75*
G02*
X46006750Y-64015750I-250000J0D01*
G01*
X45256750Y-64015750D01*
G75*
G02*
X45006750Y-63765750I0J250000D01*
G01*
G37*
%TD*%
%TO.C,D11*%
G36*
G01*
X47812750Y-44715750D02*
X47812750Y-43465750D01*
G75*
G02*
X48062750Y-43215750I250000J0D01*
G01*
X48812750Y-43215750D01*
G75*
G02*
X49062750Y-43465750I0J-250000D01*
G01*
X49062750Y-44715750D01*
G75*
G02*
X48812750Y-44965750I-250000J0D01*
G01*
X48062750Y-44965750D01*
G75*
G02*
X47812750Y-44715750I0J250000D01*
G01*
G37*
G36*
G01*
X45012750Y-44715750D02*
X45012750Y-43465750D01*
G75*
G02*
X45262750Y-43215750I250000J0D01*
G01*
X46012750Y-43215750D01*
G75*
G02*
X46262750Y-43465750I0J-250000D01*
G01*
X46262750Y-44715750D01*
G75*
G02*
X46012750Y-44965750I-250000J0D01*
G01*
X45262750Y-44965750D01*
G75*
G02*
X45012750Y-44715750I0J250000D01*
G01*
G37*
%TD*%
%TO.C,D10*%
G36*
G01*
X28759750Y-124471750D02*
X28759750Y-123221750D01*
G75*
G02*
X29009750Y-122971750I250000J0D01*
G01*
X29759750Y-122971750D01*
G75*
G02*
X30009750Y-123221750I0J-250000D01*
G01*
X30009750Y-124471750D01*
G75*
G02*
X29759750Y-124721750I-250000J0D01*
G01*
X29009750Y-124721750D01*
G75*
G02*
X28759750Y-124471750I0J250000D01*
G01*
G37*
G36*
G01*
X25959750Y-124471750D02*
X25959750Y-123221750D01*
G75*
G02*
X26209750Y-122971750I250000J0D01*
G01*
X26959750Y-122971750D01*
G75*
G02*
X27209750Y-123221750I0J-250000D01*
G01*
X27209750Y-124471750D01*
G75*
G02*
X26959750Y-124721750I-250000J0D01*
G01*
X26209750Y-124721750D01*
G75*
G02*
X25959750Y-124471750I0J250000D01*
G01*
G37*
%TD*%
%TO.C,D9*%
G36*
G01*
X28759750Y-105421750D02*
X28759750Y-104171750D01*
G75*
G02*
X29009750Y-103921750I250000J0D01*
G01*
X29759750Y-103921750D01*
G75*
G02*
X30009750Y-104171750I0J-250000D01*
G01*
X30009750Y-105421750D01*
G75*
G02*
X29759750Y-105671750I-250000J0D01*
G01*
X29009750Y-105671750D01*
G75*
G02*
X28759750Y-105421750I0J250000D01*
G01*
G37*
G36*
G01*
X25959750Y-105421750D02*
X25959750Y-104171750D01*
G75*
G02*
X26209750Y-103921750I250000J0D01*
G01*
X26959750Y-103921750D01*
G75*
G02*
X27209750Y-104171750I0J-250000D01*
G01*
X27209750Y-105421750D01*
G75*
G02*
X26959750Y-105671750I-250000J0D01*
G01*
X26209750Y-105671750D01*
G75*
G02*
X25959750Y-105421750I0J250000D01*
G01*
G37*
%TD*%
%TO.C,D8*%
G36*
G01*
X28759750Y-86371750D02*
X28759750Y-85121750D01*
G75*
G02*
X29009750Y-84871750I250000J0D01*
G01*
X29759750Y-84871750D01*
G75*
G02*
X30009750Y-85121750I0J-250000D01*
G01*
X30009750Y-86371750D01*
G75*
G02*
X29759750Y-86621750I-250000J0D01*
G01*
X29009750Y-86621750D01*
G75*
G02*
X28759750Y-86371750I0J250000D01*
G01*
G37*
G36*
G01*
X25959750Y-86371750D02*
X25959750Y-85121750D01*
G75*
G02*
X26209750Y-84871750I250000J0D01*
G01*
X26959750Y-84871750D01*
G75*
G02*
X27209750Y-85121750I0J-250000D01*
G01*
X27209750Y-86371750D01*
G75*
G02*
X26959750Y-86621750I-250000J0D01*
G01*
X26209750Y-86621750D01*
G75*
G02*
X25959750Y-86371750I0J250000D01*
G01*
G37*
%TD*%
%TO.C,D7*%
G36*
G01*
X28759750Y-67321750D02*
X28759750Y-66071750D01*
G75*
G02*
X29009750Y-65821750I250000J0D01*
G01*
X29759750Y-65821750D01*
G75*
G02*
X30009750Y-66071750I0J-250000D01*
G01*
X30009750Y-67321750D01*
G75*
G02*
X29759750Y-67571750I-250000J0D01*
G01*
X29009750Y-67571750D01*
G75*
G02*
X28759750Y-67321750I0J250000D01*
G01*
G37*
G36*
G01*
X25959750Y-67321750D02*
X25959750Y-66071750D01*
G75*
G02*
X26209750Y-65821750I250000J0D01*
G01*
X26959750Y-65821750D01*
G75*
G02*
X27209750Y-66071750I0J-250000D01*
G01*
X27209750Y-67321750D01*
G75*
G02*
X26959750Y-67571750I-250000J0D01*
G01*
X26209750Y-67571750D01*
G75*
G02*
X25959750Y-67321750I0J250000D01*
G01*
G37*
%TD*%
%TO.C,D6*%
G36*
G01*
X28759750Y-48271750D02*
X28759750Y-47021750D01*
G75*
G02*
X29009750Y-46771750I250000J0D01*
G01*
X29759750Y-46771750D01*
G75*
G02*
X30009750Y-47021750I0J-250000D01*
G01*
X30009750Y-48271750D01*
G75*
G02*
X29759750Y-48521750I-250000J0D01*
G01*
X29009750Y-48521750D01*
G75*
G02*
X28759750Y-48271750I0J250000D01*
G01*
G37*
G36*
G01*
X25959750Y-48271750D02*
X25959750Y-47021750D01*
G75*
G02*
X26209750Y-46771750I250000J0D01*
G01*
X26959750Y-46771750D01*
G75*
G02*
X27209750Y-47021750I0J-250000D01*
G01*
X27209750Y-48271750D01*
G75*
G02*
X26959750Y-48521750I-250000J0D01*
G01*
X26209750Y-48521750D01*
G75*
G02*
X25959750Y-48271750I0J250000D01*
G01*
G37*
%TD*%
%TO.C,D5*%
G36*
G01*
X4883750Y-124471750D02*
X4883750Y-123221750D01*
G75*
G02*
X5133750Y-122971750I250000J0D01*
G01*
X5883750Y-122971750D01*
G75*
G02*
X6133750Y-123221750I0J-250000D01*
G01*
X6133750Y-124471750D01*
G75*
G02*
X5883750Y-124721750I-250000J0D01*
G01*
X5133750Y-124721750D01*
G75*
G02*
X4883750Y-124471750I0J250000D01*
G01*
G37*
G36*
G01*
X2083750Y-124471750D02*
X2083750Y-123221750D01*
G75*
G02*
X2333750Y-122971750I250000J0D01*
G01*
X3083750Y-122971750D01*
G75*
G02*
X3333750Y-123221750I0J-250000D01*
G01*
X3333750Y-124471750D01*
G75*
G02*
X3083750Y-124721750I-250000J0D01*
G01*
X2333750Y-124721750D01*
G75*
G02*
X2083750Y-124471750I0J250000D01*
G01*
G37*
%TD*%
%TO.C,D4*%
G36*
G01*
X4883750Y-105421750D02*
X4883750Y-104171750D01*
G75*
G02*
X5133750Y-103921750I250000J0D01*
G01*
X5883750Y-103921750D01*
G75*
G02*
X6133750Y-104171750I0J-250000D01*
G01*
X6133750Y-105421750D01*
G75*
G02*
X5883750Y-105671750I-250000J0D01*
G01*
X5133750Y-105671750D01*
G75*
G02*
X4883750Y-105421750I0J250000D01*
G01*
G37*
G36*
G01*
X2083750Y-105421750D02*
X2083750Y-104171750D01*
G75*
G02*
X2333750Y-103921750I250000J0D01*
G01*
X3083750Y-103921750D01*
G75*
G02*
X3333750Y-104171750I0J-250000D01*
G01*
X3333750Y-105421750D01*
G75*
G02*
X3083750Y-105671750I-250000J0D01*
G01*
X2333750Y-105671750D01*
G75*
G02*
X2083750Y-105421750I0J250000D01*
G01*
G37*
%TD*%
%TO.C,D3*%
G36*
G01*
X4883750Y-86371750D02*
X4883750Y-85121750D01*
G75*
G02*
X5133750Y-84871750I250000J0D01*
G01*
X5883750Y-84871750D01*
G75*
G02*
X6133750Y-85121750I0J-250000D01*
G01*
X6133750Y-86371750D01*
G75*
G02*
X5883750Y-86621750I-250000J0D01*
G01*
X5133750Y-86621750D01*
G75*
G02*
X4883750Y-86371750I0J250000D01*
G01*
G37*
G36*
G01*
X2083750Y-86371750D02*
X2083750Y-85121750D01*
G75*
G02*
X2333750Y-84871750I250000J0D01*
G01*
X3083750Y-84871750D01*
G75*
G02*
X3333750Y-85121750I0J-250000D01*
G01*
X3333750Y-86371750D01*
G75*
G02*
X3083750Y-86621750I-250000J0D01*
G01*
X2333750Y-86621750D01*
G75*
G02*
X2083750Y-86371750I0J250000D01*
G01*
G37*
%TD*%
%TO.C,D2*%
G36*
G01*
X4883750Y-67321750D02*
X4883750Y-66071750D01*
G75*
G02*
X5133750Y-65821750I250000J0D01*
G01*
X5883750Y-65821750D01*
G75*
G02*
X6133750Y-66071750I0J-250000D01*
G01*
X6133750Y-67321750D01*
G75*
G02*
X5883750Y-67571750I-250000J0D01*
G01*
X5133750Y-67571750D01*
G75*
G02*
X4883750Y-67321750I0J250000D01*
G01*
G37*
G36*
G01*
X2083750Y-67321750D02*
X2083750Y-66071750D01*
G75*
G02*
X2333750Y-65821750I250000J0D01*
G01*
X3083750Y-65821750D01*
G75*
G02*
X3333750Y-66071750I0J-250000D01*
G01*
X3333750Y-67321750D01*
G75*
G02*
X3083750Y-67571750I-250000J0D01*
G01*
X2333750Y-67571750D01*
G75*
G02*
X2083750Y-67321750I0J250000D01*
G01*
G37*
%TD*%
%TO.C,D1*%
G36*
G01*
X4880750Y-50049750D02*
X4880750Y-48799750D01*
G75*
G02*
X5130750Y-48549750I250000J0D01*
G01*
X5880750Y-48549750D01*
G75*
G02*
X6130750Y-48799750I0J-250000D01*
G01*
X6130750Y-50049750D01*
G75*
G02*
X5880750Y-50299750I-250000J0D01*
G01*
X5130750Y-50299750D01*
G75*
G02*
X4880750Y-50049750I0J250000D01*
G01*
G37*
G36*
G01*
X2080750Y-50049750D02*
X2080750Y-48799750D01*
G75*
G02*
X2330750Y-48549750I250000J0D01*
G01*
X3080750Y-48549750D01*
G75*
G02*
X3330750Y-48799750I0J-250000D01*
G01*
X3330750Y-50049750D01*
G75*
G02*
X3080750Y-50299750I-250000J0D01*
G01*
X2330750Y-50299750D01*
G75*
G02*
X2080750Y-50049750I0J250000D01*
G01*
G37*
%TD*%
M02*
