%TF.GenerationSoftware,KiCad,Pcbnew,(5.1.10)-1*%
%TF.CreationDate,2021-09-03T09:57:26+02:00*%
%TF.ProjectId,T1,54312e6b-6963-4616-945f-706362585858,1.1*%
%TF.SameCoordinates,Original*%
%TF.FileFunction,Legend,Top*%
%TF.FilePolarity,Positive*%
%FSLAX46Y46*%
G04 Gerber Fmt 4.6, Leading zero omitted, Abs format (unit mm)*
G04 Created by KiCad (PCBNEW (5.1.10)-1) date 2021-09-03 09:57:26*
%MOMM*%
%LPD*%
G01*
G04 APERTURE LIST*
%ADD10C,0.300000*%
%ADD11C,0.120000*%
%ADD12C,0.150000*%
G04 APERTURE END LIST*
D10*
X71605785Y-130565857D02*
X71105785Y-130565857D01*
X71105785Y-131351571D02*
X71105785Y-129851571D01*
X71820071Y-129851571D01*
X73034357Y-131351571D02*
X73034357Y-130565857D01*
X72962928Y-130423000D01*
X72820071Y-130351571D01*
X72534357Y-130351571D01*
X72391500Y-130423000D01*
X73034357Y-131280142D02*
X72891500Y-131351571D01*
X72534357Y-131351571D01*
X72391500Y-131280142D01*
X72320071Y-131137285D01*
X72320071Y-130994428D01*
X72391500Y-130851571D01*
X72534357Y-130780142D01*
X72891500Y-130780142D01*
X73034357Y-130708714D01*
X73677214Y-131280142D02*
X73820071Y-131351571D01*
X74105785Y-131351571D01*
X74248642Y-131280142D01*
X74320071Y-131137285D01*
X74320071Y-131065857D01*
X74248642Y-130923000D01*
X74105785Y-130851571D01*
X73891500Y-130851571D01*
X73748642Y-130780142D01*
X73677214Y-130637285D01*
X73677214Y-130565857D01*
X73748642Y-130423000D01*
X73891500Y-130351571D01*
X74105785Y-130351571D01*
X74248642Y-130423000D01*
X74748642Y-130351571D02*
X75320071Y-130351571D01*
X74962928Y-129851571D02*
X74962928Y-131137285D01*
X75034357Y-131280142D01*
X75177214Y-131351571D01*
X75320071Y-131351571D01*
X75820071Y-131351571D02*
X75820071Y-129851571D01*
X76462928Y-131351571D02*
X76462928Y-130565857D01*
X76391500Y-130423000D01*
X76248642Y-130351571D01*
X76034357Y-130351571D01*
X75891500Y-130423000D01*
X75820071Y-130494428D01*
X78105785Y-129851571D02*
X78962928Y-129851571D01*
X78534357Y-131351571D02*
X78534357Y-129851571D01*
X80248642Y-131351571D02*
X79391500Y-131351571D01*
X79820071Y-131351571D02*
X79820071Y-129851571D01*
X79677214Y-130065857D01*
X79534357Y-130208714D01*
X79391500Y-130280142D01*
X220100535Y-130565857D02*
X219600535Y-130565857D01*
X219600535Y-131351571D02*
X219600535Y-129851571D01*
X220314821Y-129851571D01*
X221529107Y-131351571D02*
X221529107Y-130565857D01*
X221457678Y-130423000D01*
X221314821Y-130351571D01*
X221029107Y-130351571D01*
X220886250Y-130423000D01*
X221529107Y-131280142D02*
X221386250Y-131351571D01*
X221029107Y-131351571D01*
X220886250Y-131280142D01*
X220814821Y-131137285D01*
X220814821Y-130994428D01*
X220886250Y-130851571D01*
X221029107Y-130780142D01*
X221386250Y-130780142D01*
X221529107Y-130708714D01*
X222171964Y-131280142D02*
X222314821Y-131351571D01*
X222600535Y-131351571D01*
X222743392Y-131280142D01*
X222814821Y-131137285D01*
X222814821Y-131065857D01*
X222743392Y-130923000D01*
X222600535Y-130851571D01*
X222386250Y-130851571D01*
X222243392Y-130780142D01*
X222171964Y-130637285D01*
X222171964Y-130565857D01*
X222243392Y-130423000D01*
X222386250Y-130351571D01*
X222600535Y-130351571D01*
X222743392Y-130423000D01*
X223243392Y-130351571D02*
X223814821Y-130351571D01*
X223457678Y-129851571D02*
X223457678Y-131137285D01*
X223529107Y-131280142D01*
X223671964Y-131351571D01*
X223814821Y-131351571D01*
X224314821Y-131351571D02*
X224314821Y-129851571D01*
X224957678Y-131351571D02*
X224957678Y-130565857D01*
X224886250Y-130423000D01*
X224743392Y-130351571D01*
X224529107Y-130351571D01*
X224386250Y-130423000D01*
X224314821Y-130494428D01*
X226600535Y-129851571D02*
X227457678Y-129851571D01*
X227029107Y-131351571D02*
X227029107Y-129851571D01*
X228743392Y-131351571D02*
X227886250Y-131351571D01*
X228314821Y-131351571D02*
X228314821Y-129851571D01*
X228171964Y-130065857D01*
X228029107Y-130208714D01*
X227886250Y-130280142D01*
D11*
%TO.C,SW21*%
X87674750Y-53615750D02*
X87674750Y-39645750D01*
X101644750Y-53615750D02*
X87674750Y-53615750D01*
X101644750Y-39645750D02*
X101644750Y-53615750D01*
X87674750Y-39645750D02*
X101644750Y-39645750D01*
%TO.C,D+*%
X140092500Y-76633000D02*
X141492500Y-76633000D01*
X141492500Y-76633000D02*
X141492500Y-78033000D01*
X141492500Y-78033000D02*
X140092500Y-78033000D01*
X140092500Y-78033000D02*
X140092500Y-76633000D01*
%TO.C,D-*%
X140092500Y-79554000D02*
X141492500Y-79554000D01*
X141492500Y-79554000D02*
X141492500Y-80954000D01*
X141492500Y-80954000D02*
X140092500Y-80954000D01*
X140092500Y-80954000D02*
X140092500Y-79554000D01*
%TO.C,SW45*%
X179083000Y-93620750D02*
X179083000Y-79650750D01*
X193053000Y-93620750D02*
X179083000Y-93620750D01*
X193053000Y-79650750D02*
X193053000Y-93620750D01*
X179083000Y-79650750D02*
X193053000Y-79650750D01*
%TO.C,SW43*%
X179076650Y-55514400D02*
X179076650Y-41544400D01*
X193046650Y-55514400D02*
X179076650Y-55514400D01*
X193046650Y-41544400D02*
X193046650Y-55514400D01*
X179076650Y-41544400D02*
X193046650Y-41544400D01*
%TO.C,SW26*%
X106731100Y-55514400D02*
X106731100Y-41544400D01*
X120701100Y-55514400D02*
X106731100Y-55514400D01*
X120701100Y-41544400D02*
X120701100Y-55514400D01*
X106731100Y-41544400D02*
X120701100Y-41544400D01*
%TO.C,SW16*%
X68624750Y-50694750D02*
X68624750Y-36724750D01*
X82594750Y-50694750D02*
X68624750Y-50694750D01*
X82594750Y-36724750D02*
X82594750Y-50694750D01*
X68624750Y-36724750D02*
X82594750Y-36724750D01*
%TO.C,SW72*%
X279159000Y-133371750D02*
X279159000Y-119401750D01*
X293129000Y-133371750D02*
X279159000Y-133371750D01*
X293129000Y-119401750D02*
X293129000Y-133371750D01*
X279159000Y-119401750D02*
X293129000Y-119401750D01*
%TO.C,SW71*%
X279159000Y-114321750D02*
X279159000Y-100351750D01*
X293129000Y-114321750D02*
X279159000Y-114321750D01*
X293129000Y-100351750D02*
X293129000Y-114321750D01*
X279159000Y-100351750D02*
X293129000Y-100351750D01*
%TO.C,SW70*%
X279159000Y-95271750D02*
X279159000Y-81301750D01*
X293129000Y-95271750D02*
X279159000Y-95271750D01*
X293129000Y-81301750D02*
X293129000Y-95271750D01*
X279159000Y-81301750D02*
X293129000Y-81301750D01*
%TO.C,SW69*%
X279159000Y-76221750D02*
X279159000Y-62251750D01*
X293129000Y-76221750D02*
X279159000Y-76221750D01*
X293129000Y-62251750D02*
X293129000Y-76221750D01*
X279159000Y-62251750D02*
X293129000Y-62251750D01*
%TO.C,SW68*%
X279159000Y-57171750D02*
X279159000Y-43201750D01*
X293129000Y-57171750D02*
X279159000Y-57171750D01*
X293129000Y-43201750D02*
X293129000Y-57171750D01*
X279159000Y-43201750D02*
X293129000Y-43201750D01*
%TO.C,SW67*%
X255283000Y-133371750D02*
X255283000Y-119401750D01*
X269253000Y-133371750D02*
X255283000Y-133371750D01*
X269253000Y-119401750D02*
X269253000Y-133371750D01*
X255283000Y-119401750D02*
X269253000Y-119401750D01*
%TO.C,SW66*%
X255283000Y-114321750D02*
X255283000Y-100351750D01*
X269253000Y-114321750D02*
X255283000Y-114321750D01*
X269253000Y-100351750D02*
X269253000Y-114321750D01*
X255283000Y-100351750D02*
X269253000Y-100351750D01*
%TO.C,SW65*%
X255283000Y-95271750D02*
X255283000Y-81301750D01*
X269253000Y-95271750D02*
X255283000Y-95271750D01*
X269253000Y-81301750D02*
X269253000Y-95271750D01*
X255283000Y-81301750D02*
X269253000Y-81301750D01*
%TO.C,SW64*%
X255283000Y-76221750D02*
X255283000Y-62251750D01*
X269253000Y-76221750D02*
X255283000Y-76221750D01*
X269253000Y-62251750D02*
X269253000Y-76221750D01*
X255283000Y-62251750D02*
X269253000Y-62251750D01*
%TO.C,SW63*%
X255283000Y-57171750D02*
X255283000Y-43201750D01*
X269253000Y-57171750D02*
X255283000Y-57171750D01*
X269253000Y-43201750D02*
X269253000Y-57171750D01*
X255283000Y-43201750D02*
X269253000Y-43201750D01*
%TO.C,SW62*%
X236233000Y-129815750D02*
X236233000Y-115845750D01*
X250203000Y-129815750D02*
X236233000Y-129815750D01*
X250203000Y-115845750D02*
X250203000Y-129815750D01*
X236233000Y-115845750D02*
X250203000Y-115845750D01*
%TO.C,SW61*%
X236233000Y-110765750D02*
X236233000Y-96795750D01*
X250203000Y-110765750D02*
X236233000Y-110765750D01*
X250203000Y-96795750D02*
X250203000Y-110765750D01*
X236233000Y-96795750D02*
X250203000Y-96795750D01*
%TO.C,SW60*%
X236233000Y-91715750D02*
X236233000Y-77745750D01*
X250203000Y-91715750D02*
X236233000Y-91715750D01*
X250203000Y-77745750D02*
X250203000Y-91715750D01*
X236233000Y-77745750D02*
X250203000Y-77745750D01*
%TO.C,SW59*%
X236233000Y-72665750D02*
X236233000Y-58695750D01*
X250203000Y-72665750D02*
X236233000Y-72665750D01*
X250203000Y-58695750D02*
X250203000Y-72665750D01*
X236233000Y-58695750D02*
X250203000Y-58695750D01*
%TO.C,SW58*%
X236233000Y-53615750D02*
X236233000Y-39645750D01*
X250203000Y-53615750D02*
X236233000Y-53615750D01*
X250203000Y-39645750D02*
X250203000Y-53615750D01*
X236233000Y-39645750D02*
X250203000Y-39645750D01*
%TO.C,SW57*%
X217183000Y-126894750D02*
X217183000Y-112924750D01*
X231153000Y-126894750D02*
X217183000Y-126894750D01*
X231153000Y-112924750D02*
X231153000Y-126894750D01*
X217183000Y-112924750D02*
X231153000Y-112924750D01*
%TO.C,SW56*%
X217183000Y-107844750D02*
X217183000Y-93874750D01*
X231153000Y-107844750D02*
X217183000Y-107844750D01*
X231153000Y-93874750D02*
X231153000Y-107844750D01*
X217183000Y-93874750D02*
X231153000Y-93874750D01*
%TO.C,SW55*%
X217183000Y-88794750D02*
X217183000Y-74824750D01*
X231153000Y-88794750D02*
X217183000Y-88794750D01*
X231153000Y-74824750D02*
X231153000Y-88794750D01*
X217183000Y-74824750D02*
X231153000Y-74824750D01*
%TO.C,SW54*%
X217183000Y-69744750D02*
X217183000Y-55774750D01*
X231153000Y-69744750D02*
X217183000Y-69744750D01*
X231153000Y-55774750D02*
X231153000Y-69744750D01*
X217183000Y-55774750D02*
X231153000Y-55774750D01*
%TO.C,SW53*%
X217183000Y-50694750D02*
X217183000Y-36724750D01*
X231153000Y-50694750D02*
X217183000Y-50694750D01*
X231153000Y-36724750D02*
X231153000Y-50694750D01*
X217183000Y-36724750D02*
X231153000Y-36724750D01*
%TO.C,SW52*%
X198133000Y-129815750D02*
X198133000Y-115845750D01*
X212103000Y-129815750D02*
X198133000Y-129815750D01*
X212103000Y-115845750D02*
X212103000Y-129815750D01*
X198133000Y-115845750D02*
X212103000Y-115845750D01*
%TO.C,SW51*%
X198133000Y-110765750D02*
X198133000Y-96795750D01*
X212103000Y-110765750D02*
X198133000Y-110765750D01*
X212103000Y-96795750D02*
X212103000Y-110765750D01*
X198133000Y-96795750D02*
X212103000Y-96795750D01*
%TO.C,SW50*%
X198133000Y-91715750D02*
X198133000Y-77745750D01*
X212103000Y-91715750D02*
X198133000Y-91715750D01*
X212103000Y-77745750D02*
X212103000Y-91715750D01*
X198133000Y-77745750D02*
X212103000Y-77745750D01*
%TO.C,SW49*%
X198133000Y-72665750D02*
X198133000Y-58695750D01*
X212103000Y-72665750D02*
X198133000Y-72665750D01*
X212103000Y-58695750D02*
X212103000Y-72665750D01*
X198133000Y-58695750D02*
X212103000Y-58695750D01*
%TO.C,SW48*%
X198133000Y-53615750D02*
X198133000Y-39645750D01*
X212103000Y-53615750D02*
X198133000Y-53615750D01*
X212103000Y-39645750D02*
X212103000Y-53615750D01*
X198133000Y-39645750D02*
X212103000Y-39645750D01*
%TO.C,SW47*%
X179955313Y-137787846D02*
X172970313Y-125689472D01*
X192053688Y-130802846D02*
X179955313Y-137787846D01*
X185068688Y-118704472D02*
X192053688Y-130802846D01*
X172970313Y-125689472D02*
X185068688Y-118704472D01*
%TO.C,SW46*%
X179083000Y-112670750D02*
X179083000Y-98700750D01*
X193053000Y-112670750D02*
X179083000Y-112670750D01*
X193053000Y-98700750D02*
X193053000Y-112670750D01*
X179083000Y-98700750D02*
X193053000Y-98700750D01*
%TO.C,SW44*%
X179083000Y-74570750D02*
X179083000Y-60600750D01*
X193053000Y-74570750D02*
X179083000Y-74570750D01*
X193053000Y-60600750D02*
X193053000Y-74570750D01*
X179083000Y-60600750D02*
X193053000Y-60600750D01*
%TO.C,SW42*%
X165494000Y-151124031D02*
X155615718Y-141245750D01*
X175372282Y-141245750D02*
X165494000Y-151124031D01*
X165494000Y-131367468D02*
X175372282Y-141245750D01*
X155615718Y-141245750D02*
X165494000Y-131367468D01*
%TO.C,SW41*%
X160033000Y-114321750D02*
X160033000Y-100351750D01*
X174003000Y-114321750D02*
X160033000Y-114321750D01*
X174003000Y-100351750D02*
X174003000Y-114321750D01*
X160033000Y-100351750D02*
X174003000Y-100351750D01*
%TO.C,SW40*%
X160033000Y-95271750D02*
X160033000Y-81301750D01*
X174003000Y-95271750D02*
X160033000Y-95271750D01*
X174003000Y-81301750D02*
X174003000Y-95271750D01*
X160033000Y-81301750D02*
X174003000Y-81301750D01*
%TO.C,SW39*%
X160033000Y-76221750D02*
X160033000Y-62251750D01*
X174003000Y-76221750D02*
X160033000Y-76221750D01*
X174003000Y-62251750D02*
X174003000Y-76221750D01*
X160033000Y-62251750D02*
X174003000Y-62251750D01*
%TO.C,SW38*%
X160033000Y-57171750D02*
X160033000Y-43201750D01*
X174003000Y-57171750D02*
X160033000Y-57171750D01*
X174003000Y-43201750D02*
X174003000Y-57171750D01*
X160033000Y-43201750D02*
X174003000Y-43201750D01*
%TO.C,D68*%
X298081000Y-84611750D02*
X294196000Y-84611750D01*
X298081000Y-86881750D02*
X298081000Y-84611750D01*
X294196000Y-86881750D02*
X298081000Y-86881750D01*
%TO.C,D60*%
X255025000Y-119155750D02*
X251140000Y-119155750D01*
X255025000Y-121425750D02*
X255025000Y-119155750D01*
X251140000Y-121425750D02*
X255025000Y-121425750D01*
%TO.C,D45*%
X191092932Y-119119311D02*
X187728423Y-121061811D01*
X192227932Y-121085189D02*
X191092932Y-119119311D01*
X188863423Y-123027689D02*
X192227932Y-121085189D01*
%TO.C,J1*%
X137523250Y-32121250D02*
X137523250Y-30221250D01*
X137523250Y-36021250D02*
X137523250Y-34021250D01*
X128123250Y-32121250D02*
X128123250Y-30221250D01*
X128123250Y-36021250D02*
X128123250Y-34021250D01*
X137523250Y-30221250D02*
X128123250Y-30221250D01*
%TO.C,SW35*%
X124351315Y-141263801D02*
X134229596Y-131385519D01*
X134229596Y-151142083D02*
X124351315Y-141263801D01*
X144107878Y-141263801D02*
X134229596Y-151142083D01*
X134229596Y-131385519D02*
X144107878Y-141263801D01*
%TO.C,SW34*%
X125774750Y-114321750D02*
X125774750Y-100351750D01*
X139744750Y-114321750D02*
X125774750Y-114321750D01*
X139744750Y-100351750D02*
X139744750Y-114321750D01*
X125774750Y-100351750D02*
X139744750Y-100351750D01*
%TO.C,SW33*%
X125774750Y-95271750D02*
X125774750Y-81301750D01*
X139744750Y-95271750D02*
X125774750Y-95271750D01*
X139744750Y-81301750D02*
X139744750Y-95271750D01*
X125774750Y-81301750D02*
X139744750Y-81301750D01*
%TO.C,SW32*%
X125774750Y-76221750D02*
X125774750Y-62251750D01*
X139744750Y-76221750D02*
X125774750Y-76221750D01*
X139744750Y-62251750D02*
X139744750Y-76221750D01*
X125774750Y-62251750D02*
X139744750Y-62251750D01*
%TO.C,SW31*%
X125774750Y-57171750D02*
X125774750Y-43201750D01*
X139744750Y-57171750D02*
X125774750Y-57171750D01*
X139744750Y-43201750D02*
X139744750Y-57171750D01*
X125774750Y-43201750D02*
X139744750Y-43201750D01*
%TO.C,SW30*%
X107724063Y-130848437D02*
X114709063Y-118750063D01*
X119822438Y-137833437D02*
X107724063Y-130848437D01*
X126807438Y-125735063D02*
X119822438Y-137833437D01*
X114709063Y-118750063D02*
X126807438Y-125735063D01*
%TO.C,SW29*%
X106724750Y-112670750D02*
X106724750Y-98700750D01*
X120694750Y-112670750D02*
X106724750Y-112670750D01*
X120694750Y-98700750D02*
X120694750Y-112670750D01*
X106724750Y-98700750D02*
X120694750Y-98700750D01*
%TO.C,SW28*%
X106724750Y-93620750D02*
X106724750Y-79650750D01*
X120694750Y-93620750D02*
X106724750Y-93620750D01*
X120694750Y-79650750D02*
X120694750Y-93620750D01*
X106724750Y-79650750D02*
X120694750Y-79650750D01*
%TO.C,SW27*%
X106724750Y-74570750D02*
X106724750Y-60600750D01*
X120694750Y-74570750D02*
X106724750Y-74570750D01*
X120694750Y-60600750D02*
X120694750Y-74570750D01*
X106724750Y-60600750D02*
X120694750Y-60600750D01*
%TO.C,SW25*%
X87674750Y-129815750D02*
X87674750Y-115845750D01*
X101644750Y-129815750D02*
X87674750Y-129815750D01*
X101644750Y-115845750D02*
X101644750Y-129815750D01*
X87674750Y-115845750D02*
X101644750Y-115845750D01*
%TO.C,SW24*%
X87674750Y-110765750D02*
X87674750Y-96795750D01*
X101644750Y-110765750D02*
X87674750Y-110765750D01*
X101644750Y-96795750D02*
X101644750Y-110765750D01*
X87674750Y-96795750D02*
X101644750Y-96795750D01*
%TO.C,SW23*%
X87674750Y-91715750D02*
X87674750Y-77745750D01*
X101644750Y-91715750D02*
X87674750Y-91715750D01*
X101644750Y-77745750D02*
X101644750Y-91715750D01*
X87674750Y-77745750D02*
X101644750Y-77745750D01*
%TO.C,SW22*%
X87674750Y-72665750D02*
X87674750Y-58695750D01*
X101644750Y-72665750D02*
X87674750Y-72665750D01*
X101644750Y-58695750D02*
X101644750Y-72665750D01*
X87674750Y-58695750D02*
X101644750Y-58695750D01*
%TO.C,SW20*%
X68624750Y-126894750D02*
X68624750Y-112924750D01*
X82594750Y-126894750D02*
X68624750Y-126894750D01*
X82594750Y-112924750D02*
X82594750Y-126894750D01*
X68624750Y-112924750D02*
X82594750Y-112924750D01*
%TO.C,SW19*%
X68624750Y-107844750D02*
X68624750Y-93874750D01*
X82594750Y-107844750D02*
X68624750Y-107844750D01*
X82594750Y-93874750D02*
X82594750Y-107844750D01*
X68624750Y-93874750D02*
X82594750Y-93874750D01*
%TO.C,SW18*%
X68624750Y-88794750D02*
X68624750Y-74824750D01*
X82594750Y-88794750D02*
X68624750Y-88794750D01*
X82594750Y-74824750D02*
X82594750Y-88794750D01*
X68624750Y-74824750D02*
X82594750Y-74824750D01*
%TO.C,SW17*%
X68624750Y-69744750D02*
X68624750Y-55774750D01*
X82594750Y-69744750D02*
X68624750Y-69744750D01*
X82594750Y-55774750D02*
X82594750Y-69744750D01*
X68624750Y-55774750D02*
X82594750Y-55774750D01*
%TO.C,SW15*%
X49574750Y-129815750D02*
X49574750Y-115845750D01*
X63544750Y-129815750D02*
X49574750Y-129815750D01*
X63544750Y-115845750D02*
X63544750Y-129815750D01*
X49574750Y-115845750D02*
X63544750Y-115845750D01*
%TO.C,SW14*%
X49574750Y-110765750D02*
X49574750Y-96795750D01*
X63544750Y-110765750D02*
X49574750Y-110765750D01*
X63544750Y-96795750D02*
X63544750Y-110765750D01*
X49574750Y-96795750D02*
X63544750Y-96795750D01*
%TO.C,SW13*%
X49574750Y-91715750D02*
X49574750Y-77745750D01*
X63544750Y-91715750D02*
X49574750Y-91715750D01*
X63544750Y-77745750D02*
X63544750Y-91715750D01*
X49574750Y-77745750D02*
X63544750Y-77745750D01*
%TO.C,SW12*%
X49574750Y-72665750D02*
X49574750Y-58695750D01*
X63544750Y-72665750D02*
X49574750Y-72665750D01*
X63544750Y-58695750D02*
X63544750Y-72665750D01*
X49574750Y-58695750D02*
X63544750Y-58695750D01*
%TO.C,SW11*%
X49574750Y-53615750D02*
X49574750Y-39645750D01*
X63544750Y-53615750D02*
X49574750Y-53615750D01*
X63544750Y-39645750D02*
X63544750Y-53615750D01*
X49574750Y-39645750D02*
X63544750Y-39645750D01*
%TO.C,SW10*%
X30524750Y-133371750D02*
X30524750Y-119401750D01*
X44494750Y-133371750D02*
X30524750Y-133371750D01*
X44494750Y-119401750D02*
X44494750Y-133371750D01*
X30524750Y-119401750D02*
X44494750Y-119401750D01*
%TO.C,SW9*%
X30524750Y-114321750D02*
X30524750Y-100351750D01*
X44494750Y-114321750D02*
X30524750Y-114321750D01*
X44494750Y-100351750D02*
X44494750Y-114321750D01*
X30524750Y-100351750D02*
X44494750Y-100351750D01*
%TO.C,SW8*%
X30524750Y-95271750D02*
X30524750Y-81301750D01*
X44494750Y-95271750D02*
X30524750Y-95271750D01*
X44494750Y-81301750D02*
X44494750Y-95271750D01*
X30524750Y-81301750D02*
X44494750Y-81301750D01*
%TO.C,SW7*%
X30524750Y-76221750D02*
X30524750Y-62251750D01*
X44494750Y-76221750D02*
X30524750Y-76221750D01*
X44494750Y-62251750D02*
X44494750Y-76221750D01*
X30524750Y-62251750D02*
X44494750Y-62251750D01*
%TO.C,SW6*%
X30524750Y-57171750D02*
X30524750Y-43201750D01*
X44494750Y-57171750D02*
X30524750Y-57171750D01*
X44494750Y-43201750D02*
X44494750Y-57171750D01*
X30524750Y-43201750D02*
X44494750Y-43201750D01*
%TO.C,SW5*%
X6648750Y-133371750D02*
X6648750Y-119401750D01*
X20618750Y-133371750D02*
X6648750Y-133371750D01*
X20618750Y-119401750D02*
X20618750Y-133371750D01*
X6648750Y-119401750D02*
X20618750Y-119401750D01*
%TO.C,SW4*%
X6648750Y-114321750D02*
X6648750Y-100351750D01*
X20618750Y-114321750D02*
X6648750Y-114321750D01*
X20618750Y-100351750D02*
X20618750Y-114321750D01*
X6648750Y-100351750D02*
X20618750Y-100351750D01*
%TO.C,SW3*%
X6648750Y-95271750D02*
X6648750Y-81301750D01*
X20618750Y-95271750D02*
X6648750Y-95271750D01*
X20618750Y-81301750D02*
X20618750Y-95271750D01*
X6648750Y-81301750D02*
X20618750Y-81301750D01*
%TO.C,SW2*%
X6648750Y-76221750D02*
X6648750Y-62251750D01*
X20618750Y-76221750D02*
X6648750Y-76221750D01*
X20618750Y-62251750D02*
X20618750Y-76221750D01*
X6648750Y-62251750D02*
X20618750Y-62251750D01*
%TO.C,SW1*%
X6648750Y-57171750D02*
X6648750Y-43201750D01*
X20618750Y-57171750D02*
X6648750Y-57171750D01*
X20618750Y-43201750D02*
X20618750Y-57171750D01*
X6648750Y-43201750D02*
X20618750Y-43201750D01*
%TO.C,J3*%
X168889583Y-122507219D02*
X168524922Y-124575315D01*
X161214512Y-125723316D02*
X168108167Y-126938854D01*
X162412685Y-118928143D02*
X167435204Y-119813749D01*
X157587127Y-118077267D02*
X160049146Y-118511387D01*
X157456891Y-118815873D02*
X157587127Y-118077267D01*
X156388954Y-124872440D02*
X156519190Y-124133834D01*
X158850974Y-125306561D02*
X156388954Y-124872440D01*
%TO.C,J2*%
X131217215Y-124702315D02*
X130852554Y-122634219D01*
X137329452Y-119055143D02*
X130435798Y-120270680D01*
X138527625Y-125850316D02*
X133505105Y-126735922D01*
X143353183Y-124999440D02*
X140891163Y-125433561D01*
X143222947Y-124260834D02*
X143353183Y-124999440D01*
X142155010Y-118204267D02*
X142285246Y-118942873D01*
X139692991Y-118638387D02*
X142155010Y-118204267D01*
%TO.C,D70*%
X298081000Y-122711750D02*
X294196000Y-122711750D01*
X298081000Y-124981750D02*
X298081000Y-122711750D01*
X294196000Y-124981750D02*
X298081000Y-124981750D01*
%TO.C,D69*%
X298081000Y-103661750D02*
X294196000Y-103661750D01*
X298081000Y-105931750D02*
X298081000Y-103661750D01*
X294196000Y-105931750D02*
X298081000Y-105931750D01*
%TO.C,D67*%
X298081000Y-65561750D02*
X294196000Y-65561750D01*
X298081000Y-67831750D02*
X298081000Y-65561750D01*
X294196000Y-67831750D02*
X298081000Y-67831750D01*
%TO.C,D66*%
X298081000Y-47496000D02*
X294196000Y-47496000D01*
X298081000Y-49766000D02*
X298081000Y-47496000D01*
X294196000Y-49766000D02*
X298081000Y-49766000D01*
%TO.C,D65*%
X274078000Y-122711750D02*
X270193000Y-122711750D01*
X274078000Y-124981750D02*
X274078000Y-122711750D01*
X270193000Y-124981750D02*
X274078000Y-124981750D01*
%TO.C,D64*%
X274078000Y-103661750D02*
X270193000Y-103661750D01*
X274078000Y-105931750D02*
X274078000Y-103661750D01*
X270193000Y-105931750D02*
X274078000Y-105931750D01*
%TO.C,D63*%
X274075000Y-84611750D02*
X270190000Y-84611750D01*
X274075000Y-86881750D02*
X274075000Y-84611750D01*
X270190000Y-86881750D02*
X274075000Y-86881750D01*
%TO.C,D62*%
X274078000Y-65561750D02*
X270193000Y-65561750D01*
X274078000Y-67831750D02*
X274078000Y-65561750D01*
X270193000Y-67831750D02*
X274078000Y-67831750D01*
%TO.C,D61*%
X274078000Y-46511750D02*
X270193000Y-46511750D01*
X274078000Y-48781750D02*
X274078000Y-46511750D01*
X270193000Y-48781750D02*
X274078000Y-48781750D01*
%TO.C,D59*%
X255028000Y-100105750D02*
X251143000Y-100105750D01*
X255028000Y-102375750D02*
X255028000Y-100105750D01*
X251143000Y-102375750D02*
X255028000Y-102375750D01*
%TO.C,D58*%
X255028000Y-81055750D02*
X251143000Y-81055750D01*
X255028000Y-83325750D02*
X255028000Y-81055750D01*
X251143000Y-83325750D02*
X255028000Y-83325750D01*
%TO.C,D57*%
X255028000Y-62005750D02*
X251143000Y-62005750D01*
X255028000Y-64275750D02*
X255028000Y-62005750D01*
X251143000Y-64275750D02*
X255028000Y-64275750D01*
%TO.C,D56*%
X255028000Y-42955750D02*
X251143000Y-42955750D01*
X255028000Y-45225750D02*
X255028000Y-42955750D01*
X251143000Y-45225750D02*
X255028000Y-45225750D01*
%TO.C,D55*%
X235978000Y-116234750D02*
X232093000Y-116234750D01*
X235978000Y-118504750D02*
X235978000Y-116234750D01*
X232093000Y-118504750D02*
X235978000Y-118504750D01*
%TO.C,D54*%
X235978000Y-97184750D02*
X232093000Y-97184750D01*
X235978000Y-99454750D02*
X235978000Y-97184750D01*
X232093000Y-99454750D02*
X235978000Y-99454750D01*
%TO.C,D53*%
X236038500Y-78134750D02*
X232153500Y-78134750D01*
X236038500Y-80404750D02*
X236038500Y-78134750D01*
X232153500Y-80404750D02*
X236038500Y-80404750D01*
%TO.C,D52*%
X235978000Y-59084750D02*
X232093000Y-59084750D01*
X235978000Y-61354750D02*
X235978000Y-59084750D01*
X232093000Y-61354750D02*
X235978000Y-61354750D01*
%TO.C,D51*%
X235975000Y-40034750D02*
X232090000Y-40034750D01*
X235975000Y-42304750D02*
X235975000Y-40034750D01*
X232090000Y-42304750D02*
X235975000Y-42304750D01*
%TO.C,D50*%
X216928000Y-119155750D02*
X213043000Y-119155750D01*
X216928000Y-121425750D02*
X216928000Y-119155750D01*
X213043000Y-121425750D02*
X216928000Y-121425750D01*
%TO.C,D49*%
X216928000Y-100105750D02*
X213043000Y-100105750D01*
X216928000Y-102375750D02*
X216928000Y-100105750D01*
X213043000Y-102375750D02*
X216928000Y-102375750D01*
%TO.C,D48*%
X216928000Y-81055750D02*
X213043000Y-81055750D01*
X216928000Y-83325750D02*
X216928000Y-81055750D01*
X213043000Y-83325750D02*
X216928000Y-83325750D01*
%TO.C,D47*%
X216991500Y-62005750D02*
X213106500Y-62005750D01*
X216991500Y-64275750D02*
X216991500Y-62005750D01*
X213106500Y-64275750D02*
X216991500Y-64275750D01*
%TO.C,D46*%
X216928000Y-42955750D02*
X213043000Y-42955750D01*
X216928000Y-45225750D02*
X216928000Y-42955750D01*
X213043000Y-45225750D02*
X216928000Y-45225750D01*
%TO.C,D44*%
X197878000Y-102010750D02*
X193993000Y-102010750D01*
X197878000Y-104280750D02*
X197878000Y-102010750D01*
X193993000Y-104280750D02*
X197878000Y-104280750D01*
%TO.C,D43*%
X197878000Y-82960750D02*
X193993000Y-82960750D01*
X197878000Y-85230750D02*
X197878000Y-82960750D01*
X193993000Y-85230750D02*
X197878000Y-85230750D01*
%TO.C,D42*%
X197878000Y-63910750D02*
X193993000Y-63910750D01*
X197878000Y-66180750D02*
X197878000Y-63910750D01*
X193993000Y-66180750D02*
X197878000Y-66180750D01*
%TO.C,D41*%
X197878000Y-44860750D02*
X193993000Y-44860750D01*
X197878000Y-47130750D02*
X197878000Y-44860750D01*
X193993000Y-47130750D02*
X197878000Y-47130750D01*
%TO.C,D40*%
X171260173Y-130318445D02*
X168513063Y-133065555D01*
X172865305Y-131923577D02*
X171260173Y-130318445D01*
X170118195Y-134670687D02*
X172865305Y-131923577D01*
%TO.C,D39*%
X178828000Y-103661750D02*
X174943000Y-103661750D01*
X178828000Y-105931750D02*
X178828000Y-103661750D01*
X174943000Y-105931750D02*
X178828000Y-105931750D01*
%TO.C,D38*%
X178828000Y-84611750D02*
X174943000Y-84611750D01*
X178828000Y-86881750D02*
X178828000Y-84611750D01*
X174943000Y-86881750D02*
X178828000Y-86881750D01*
%TO.C,D37*%
X178828000Y-65561750D02*
X174943000Y-65561750D01*
X178828000Y-67831750D02*
X178828000Y-65561750D01*
X174943000Y-67831750D02*
X178828000Y-67831750D01*
%TO.C,D36*%
X178828000Y-46511750D02*
X174943000Y-46511750D01*
X178828000Y-48781750D02*
X178828000Y-46511750D01*
X174943000Y-48781750D02*
X178828000Y-48781750D01*
%TO.C,D35*%
X127039445Y-131923577D02*
X129786555Y-134670687D01*
X128644577Y-130318445D02*
X127039445Y-131923577D01*
X131391687Y-133065555D02*
X128644577Y-130318445D01*
%TO.C,D34*%
X120949750Y-105931750D02*
X124834750Y-105931750D01*
X120949750Y-103661750D02*
X120949750Y-105931750D01*
X124834750Y-103661750D02*
X120949750Y-103661750D01*
%TO.C,D33*%
X120949750Y-86881750D02*
X124834750Y-86881750D01*
X120949750Y-84611750D02*
X120949750Y-86881750D01*
X124834750Y-84611750D02*
X120949750Y-84611750D01*
%TO.C,D32*%
X120949750Y-67831750D02*
X124834750Y-67831750D01*
X120949750Y-65561750D02*
X120949750Y-67831750D01*
X124834750Y-65561750D02*
X120949750Y-65561750D01*
%TO.C,D31*%
X120949750Y-48781750D02*
X124834750Y-48781750D01*
X120949750Y-46511750D02*
X120949750Y-48781750D01*
X124834750Y-46511750D02*
X120949750Y-46511750D01*
%TO.C,D30*%
X107734382Y-121274189D02*
X111098891Y-123216689D01*
X108869382Y-119308311D02*
X107734382Y-121274189D01*
X112233891Y-121250811D02*
X108869382Y-119308311D01*
%TO.C,D29*%
X101899750Y-104153750D02*
X105784750Y-104153750D01*
X101899750Y-101883750D02*
X101899750Y-104153750D01*
X105784750Y-101883750D02*
X101899750Y-101883750D01*
%TO.C,D28*%
X101899750Y-85199000D02*
X105784750Y-85199000D01*
X101899750Y-82929000D02*
X101899750Y-85199000D01*
X105784750Y-82929000D02*
X101899750Y-82929000D01*
%TO.C,D27*%
X101899750Y-66180750D02*
X105784750Y-66180750D01*
X101899750Y-63910750D02*
X101899750Y-66180750D01*
X105784750Y-63910750D02*
X101899750Y-63910750D01*
%TO.C,D26*%
X101899750Y-47130750D02*
X105784750Y-47130750D01*
X101899750Y-44860750D02*
X101899750Y-47130750D01*
X105784750Y-44860750D02*
X101899750Y-44860750D01*
%TO.C,D25*%
X82849750Y-121425750D02*
X86734750Y-121425750D01*
X82849750Y-119155750D02*
X82849750Y-121425750D01*
X86734750Y-119155750D02*
X82849750Y-119155750D01*
%TO.C,D24*%
X82849750Y-102375750D02*
X86734750Y-102375750D01*
X82849750Y-100105750D02*
X82849750Y-102375750D01*
X86734750Y-100105750D02*
X82849750Y-100105750D01*
%TO.C,D23*%
X82849750Y-83198750D02*
X86734750Y-83198750D01*
X82849750Y-80928750D02*
X82849750Y-83198750D01*
X86734750Y-80928750D02*
X82849750Y-80928750D01*
%TO.C,D22*%
X82849750Y-64275750D02*
X86734750Y-64275750D01*
X82849750Y-62005750D02*
X82849750Y-64275750D01*
X86734750Y-62005750D02*
X82849750Y-62005750D01*
%TO.C,D21*%
X82849750Y-45225750D02*
X86734750Y-45225750D01*
X82849750Y-42955750D02*
X82849750Y-45225750D01*
X86734750Y-42955750D02*
X82849750Y-42955750D01*
%TO.C,D20*%
X63799750Y-118631750D02*
X67684750Y-118631750D01*
X63799750Y-116361750D02*
X63799750Y-118631750D01*
X67684750Y-116361750D02*
X63799750Y-116361750D01*
%TO.C,D19*%
X63799750Y-99581750D02*
X67684750Y-99581750D01*
X63799750Y-97311750D02*
X63799750Y-99581750D01*
X67684750Y-97311750D02*
X63799750Y-97311750D01*
%TO.C,D18*%
X63799750Y-80531750D02*
X67684750Y-80531750D01*
X63799750Y-78261750D02*
X63799750Y-80531750D01*
X67684750Y-78261750D02*
X63799750Y-78261750D01*
%TO.C,D17*%
X63799750Y-61481750D02*
X67684750Y-61481750D01*
X63799750Y-59211750D02*
X63799750Y-61481750D01*
X67684750Y-59211750D02*
X63799750Y-59211750D01*
%TO.C,D16*%
X63799750Y-42304750D02*
X67684750Y-42304750D01*
X63799750Y-40034750D02*
X63799750Y-42304750D01*
X67684750Y-40034750D02*
X63799750Y-40034750D01*
%TO.C,D15*%
X44749750Y-121425750D02*
X48634750Y-121425750D01*
X44749750Y-119155750D02*
X44749750Y-121425750D01*
X48634750Y-119155750D02*
X44749750Y-119155750D01*
%TO.C,D14*%
X44749750Y-102375750D02*
X48634750Y-102375750D01*
X44749750Y-100105750D02*
X44749750Y-102375750D01*
X48634750Y-100105750D02*
X44749750Y-100105750D01*
%TO.C,D13*%
X44749750Y-83325750D02*
X48634750Y-83325750D01*
X44749750Y-81055750D02*
X44749750Y-83325750D01*
X48634750Y-81055750D02*
X44749750Y-81055750D01*
%TO.C,D12*%
X44746750Y-64275750D02*
X48631750Y-64275750D01*
X44746750Y-62005750D02*
X44746750Y-64275750D01*
X48631750Y-62005750D02*
X44746750Y-62005750D01*
%TO.C,D11*%
X44752750Y-45225750D02*
X48637750Y-45225750D01*
X44752750Y-42955750D02*
X44752750Y-45225750D01*
X48637750Y-42955750D02*
X44752750Y-42955750D01*
%TO.C,D10*%
X25699750Y-124981750D02*
X29584750Y-124981750D01*
X25699750Y-122711750D02*
X25699750Y-124981750D01*
X29584750Y-122711750D02*
X25699750Y-122711750D01*
%TO.C,D9*%
X25699750Y-105931750D02*
X29584750Y-105931750D01*
X25699750Y-103661750D02*
X25699750Y-105931750D01*
X29584750Y-103661750D02*
X25699750Y-103661750D01*
%TO.C,D8*%
X25699750Y-86881750D02*
X29584750Y-86881750D01*
X25699750Y-84611750D02*
X25699750Y-86881750D01*
X29584750Y-84611750D02*
X25699750Y-84611750D01*
%TO.C,D7*%
X25699750Y-67831750D02*
X29584750Y-67831750D01*
X25699750Y-65561750D02*
X25699750Y-67831750D01*
X29584750Y-65561750D02*
X25699750Y-65561750D01*
%TO.C,D6*%
X25699750Y-48781750D02*
X29584750Y-48781750D01*
X25699750Y-46511750D02*
X25699750Y-48781750D01*
X29584750Y-46511750D02*
X25699750Y-46511750D01*
%TO.C,D5*%
X1823750Y-124981750D02*
X5708750Y-124981750D01*
X1823750Y-122711750D02*
X1823750Y-124981750D01*
X5708750Y-122711750D02*
X1823750Y-122711750D01*
%TO.C,D4*%
X1823750Y-105931750D02*
X5708750Y-105931750D01*
X1823750Y-103661750D02*
X1823750Y-105931750D01*
X5708750Y-103661750D02*
X1823750Y-103661750D01*
%TO.C,D3*%
X1823750Y-86881750D02*
X5708750Y-86881750D01*
X1823750Y-84611750D02*
X1823750Y-86881750D01*
X5708750Y-84611750D02*
X1823750Y-84611750D01*
%TO.C,D2*%
X1823750Y-67831750D02*
X5708750Y-67831750D01*
X1823750Y-65561750D02*
X1823750Y-67831750D01*
X5708750Y-65561750D02*
X1823750Y-65561750D01*
%TO.C,D1*%
X1820750Y-50559750D02*
X5705750Y-50559750D01*
X1820750Y-48289750D02*
X1820750Y-50559750D01*
X5705750Y-48289750D02*
X1820750Y-48289750D01*
%TO.C,GND*%
X126125500Y-34977000D02*
X126125500Y-36377000D01*
X126125500Y-36377000D02*
X124725500Y-36377000D01*
X124725500Y-36377000D02*
X124725500Y-34977000D01*
X124725500Y-34977000D02*
X126125500Y-34977000D01*
%TO.C,RESET*%
X124725500Y-38279000D02*
X126125500Y-38279000D01*
X124725500Y-39679000D02*
X124725500Y-38279000D01*
X126125500Y-39679000D02*
X124725500Y-39679000D01*
X126125500Y-38279000D02*
X126125500Y-39679000D01*
%TO.C,GND*%
X169842250Y-39425000D02*
X169842250Y-38025000D01*
X171242250Y-39425000D02*
X169842250Y-39425000D01*
X171242250Y-38025000D02*
X171242250Y-39425000D01*
X169842250Y-38025000D02*
X171242250Y-38025000D01*
%TO.C,RESET*%
X159682250Y-39552000D02*
X159682250Y-38152000D01*
X161082250Y-39552000D02*
X159682250Y-39552000D01*
X161082250Y-38152000D02*
X161082250Y-39552000D01*
X159682250Y-38152000D02*
X161082250Y-38152000D01*
%TO.C,D+*%
X158285250Y-76633000D02*
X159685250Y-76633000D01*
X159685250Y-76633000D02*
X159685250Y-78033000D01*
X159685250Y-78033000D02*
X158285250Y-78033000D01*
X158285250Y-78033000D02*
X158285250Y-76633000D01*
%TO.C,D-*%
X158285250Y-79554000D02*
X159685250Y-79554000D01*
X159685250Y-79554000D02*
X159685250Y-80954000D01*
X159685250Y-80954000D02*
X158285250Y-80954000D01*
X158285250Y-80954000D02*
X158285250Y-79554000D01*
%TO.C,SW21*%
D12*
X92850226Y-39161511D02*
X92993083Y-39209130D01*
X93231178Y-39209130D01*
X93326416Y-39161511D01*
X93374035Y-39113892D01*
X93421654Y-39018654D01*
X93421654Y-38923416D01*
X93374035Y-38828178D01*
X93326416Y-38780559D01*
X93231178Y-38732940D01*
X93040702Y-38685321D01*
X92945464Y-38637702D01*
X92897845Y-38590083D01*
X92850226Y-38494845D01*
X92850226Y-38399607D01*
X92897845Y-38304369D01*
X92945464Y-38256750D01*
X93040702Y-38209130D01*
X93278797Y-38209130D01*
X93421654Y-38256750D01*
X93754988Y-38209130D02*
X93993083Y-39209130D01*
X94183559Y-38494845D01*
X94374035Y-39209130D01*
X94612130Y-38209130D01*
X94945464Y-38304369D02*
X94993083Y-38256750D01*
X95088321Y-38209130D01*
X95326416Y-38209130D01*
X95421654Y-38256750D01*
X95469273Y-38304369D01*
X95516892Y-38399607D01*
X95516892Y-38494845D01*
X95469273Y-38637702D01*
X94897845Y-39209130D01*
X95516892Y-39209130D01*
X96469273Y-39209130D02*
X95897845Y-39209130D01*
X96183559Y-39209130D02*
X96183559Y-38209130D01*
X96088321Y-38351988D01*
X95993083Y-38447226D01*
X95897845Y-38494845D01*
%TO.C,D+*%
X139911547Y-76337380D02*
X139911547Y-75337380D01*
X140149642Y-75337380D01*
X140292500Y-75385000D01*
X140387738Y-75480238D01*
X140435357Y-75575476D01*
X140482976Y-75765952D01*
X140482976Y-75908809D01*
X140435357Y-76099285D01*
X140387738Y-76194523D01*
X140292500Y-76289761D01*
X140149642Y-76337380D01*
X139911547Y-76337380D01*
X140911547Y-75956428D02*
X141673452Y-75956428D01*
X141292500Y-76337380D02*
X141292500Y-75575476D01*
%TO.C,D-*%
X139911547Y-79258380D02*
X139911547Y-78258380D01*
X140149642Y-78258380D01*
X140292500Y-78306000D01*
X140387738Y-78401238D01*
X140435357Y-78496476D01*
X140482976Y-78686952D01*
X140482976Y-78829809D01*
X140435357Y-79020285D01*
X140387738Y-79115523D01*
X140292500Y-79210761D01*
X140149642Y-79258380D01*
X139911547Y-79258380D01*
X140911547Y-78877428D02*
X141673452Y-78877428D01*
%TO.C,SW45*%
X184258476Y-79166511D02*
X184401333Y-79214130D01*
X184639428Y-79214130D01*
X184734666Y-79166511D01*
X184782285Y-79118892D01*
X184829904Y-79023654D01*
X184829904Y-78928416D01*
X184782285Y-78833178D01*
X184734666Y-78785559D01*
X184639428Y-78737940D01*
X184448952Y-78690321D01*
X184353714Y-78642702D01*
X184306095Y-78595083D01*
X184258476Y-78499845D01*
X184258476Y-78404607D01*
X184306095Y-78309369D01*
X184353714Y-78261750D01*
X184448952Y-78214130D01*
X184687047Y-78214130D01*
X184829904Y-78261750D01*
X185163238Y-78214130D02*
X185401333Y-79214130D01*
X185591809Y-78499845D01*
X185782285Y-79214130D01*
X186020380Y-78214130D01*
X186829904Y-78547464D02*
X186829904Y-79214130D01*
X186591809Y-78166511D02*
X186353714Y-78880797D01*
X186972761Y-78880797D01*
X187829904Y-78214130D02*
X187353714Y-78214130D01*
X187306095Y-78690321D01*
X187353714Y-78642702D01*
X187448952Y-78595083D01*
X187687047Y-78595083D01*
X187782285Y-78642702D01*
X187829904Y-78690321D01*
X187877523Y-78785559D01*
X187877523Y-79023654D01*
X187829904Y-79118892D01*
X187782285Y-79166511D01*
X187687047Y-79214130D01*
X187448952Y-79214130D01*
X187353714Y-79166511D01*
X187306095Y-79118892D01*
%TO.C,SW43*%
X184252126Y-41060161D02*
X184394983Y-41107780D01*
X184633078Y-41107780D01*
X184728316Y-41060161D01*
X184775935Y-41012542D01*
X184823554Y-40917304D01*
X184823554Y-40822066D01*
X184775935Y-40726828D01*
X184728316Y-40679209D01*
X184633078Y-40631590D01*
X184442602Y-40583971D01*
X184347364Y-40536352D01*
X184299745Y-40488733D01*
X184252126Y-40393495D01*
X184252126Y-40298257D01*
X184299745Y-40203019D01*
X184347364Y-40155400D01*
X184442602Y-40107780D01*
X184680697Y-40107780D01*
X184823554Y-40155400D01*
X185156888Y-40107780D02*
X185394983Y-41107780D01*
X185585459Y-40393495D01*
X185775935Y-41107780D01*
X186014030Y-40107780D01*
X186823554Y-40441114D02*
X186823554Y-41107780D01*
X186585459Y-40060161D02*
X186347364Y-40774447D01*
X186966411Y-40774447D01*
X187252126Y-40107780D02*
X187871173Y-40107780D01*
X187537840Y-40488733D01*
X187680697Y-40488733D01*
X187775935Y-40536352D01*
X187823554Y-40583971D01*
X187871173Y-40679209D01*
X187871173Y-40917304D01*
X187823554Y-41012542D01*
X187775935Y-41060161D01*
X187680697Y-41107780D01*
X187394983Y-41107780D01*
X187299745Y-41060161D01*
X187252126Y-41012542D01*
%TO.C,SW26*%
X111906576Y-41060161D02*
X112049433Y-41107780D01*
X112287528Y-41107780D01*
X112382766Y-41060161D01*
X112430385Y-41012542D01*
X112478004Y-40917304D01*
X112478004Y-40822066D01*
X112430385Y-40726828D01*
X112382766Y-40679209D01*
X112287528Y-40631590D01*
X112097052Y-40583971D01*
X112001814Y-40536352D01*
X111954195Y-40488733D01*
X111906576Y-40393495D01*
X111906576Y-40298257D01*
X111954195Y-40203019D01*
X112001814Y-40155400D01*
X112097052Y-40107780D01*
X112335147Y-40107780D01*
X112478004Y-40155400D01*
X112811338Y-40107780D02*
X113049433Y-41107780D01*
X113239909Y-40393495D01*
X113430385Y-41107780D01*
X113668480Y-40107780D01*
X114001814Y-40203019D02*
X114049433Y-40155400D01*
X114144671Y-40107780D01*
X114382766Y-40107780D01*
X114478004Y-40155400D01*
X114525623Y-40203019D01*
X114573242Y-40298257D01*
X114573242Y-40393495D01*
X114525623Y-40536352D01*
X113954195Y-41107780D01*
X114573242Y-41107780D01*
X115430385Y-40107780D02*
X115239909Y-40107780D01*
X115144671Y-40155400D01*
X115097052Y-40203019D01*
X115001814Y-40345876D01*
X114954195Y-40536352D01*
X114954195Y-40917304D01*
X115001814Y-41012542D01*
X115049433Y-41060161D01*
X115144671Y-41107780D01*
X115335147Y-41107780D01*
X115430385Y-41060161D01*
X115478004Y-41012542D01*
X115525623Y-40917304D01*
X115525623Y-40679209D01*
X115478004Y-40583971D01*
X115430385Y-40536352D01*
X115335147Y-40488733D01*
X115144671Y-40488733D01*
X115049433Y-40536352D01*
X115001814Y-40583971D01*
X114954195Y-40679209D01*
%TO.C,SW16*%
X73800226Y-36240511D02*
X73943083Y-36288130D01*
X74181178Y-36288130D01*
X74276416Y-36240511D01*
X74324035Y-36192892D01*
X74371654Y-36097654D01*
X74371654Y-36002416D01*
X74324035Y-35907178D01*
X74276416Y-35859559D01*
X74181178Y-35811940D01*
X73990702Y-35764321D01*
X73895464Y-35716702D01*
X73847845Y-35669083D01*
X73800226Y-35573845D01*
X73800226Y-35478607D01*
X73847845Y-35383369D01*
X73895464Y-35335750D01*
X73990702Y-35288130D01*
X74228797Y-35288130D01*
X74371654Y-35335750D01*
X74704988Y-35288130D02*
X74943083Y-36288130D01*
X75133559Y-35573845D01*
X75324035Y-36288130D01*
X75562130Y-35288130D01*
X76466892Y-36288130D02*
X75895464Y-36288130D01*
X76181178Y-36288130D02*
X76181178Y-35288130D01*
X76085940Y-35430988D01*
X75990702Y-35526226D01*
X75895464Y-35573845D01*
X77324035Y-35288130D02*
X77133559Y-35288130D01*
X77038321Y-35335750D01*
X76990702Y-35383369D01*
X76895464Y-35526226D01*
X76847845Y-35716702D01*
X76847845Y-36097654D01*
X76895464Y-36192892D01*
X76943083Y-36240511D01*
X77038321Y-36288130D01*
X77228797Y-36288130D01*
X77324035Y-36240511D01*
X77371654Y-36192892D01*
X77419273Y-36097654D01*
X77419273Y-35859559D01*
X77371654Y-35764321D01*
X77324035Y-35716702D01*
X77228797Y-35669083D01*
X77038321Y-35669083D01*
X76943083Y-35716702D01*
X76895464Y-35764321D01*
X76847845Y-35859559D01*
%TO.C,SW72*%
X284334476Y-118917511D02*
X284477333Y-118965130D01*
X284715428Y-118965130D01*
X284810666Y-118917511D01*
X284858285Y-118869892D01*
X284905904Y-118774654D01*
X284905904Y-118679416D01*
X284858285Y-118584178D01*
X284810666Y-118536559D01*
X284715428Y-118488940D01*
X284524952Y-118441321D01*
X284429714Y-118393702D01*
X284382095Y-118346083D01*
X284334476Y-118250845D01*
X284334476Y-118155607D01*
X284382095Y-118060369D01*
X284429714Y-118012750D01*
X284524952Y-117965130D01*
X284763047Y-117965130D01*
X284905904Y-118012750D01*
X285239238Y-117965130D02*
X285477333Y-118965130D01*
X285667809Y-118250845D01*
X285858285Y-118965130D01*
X286096380Y-117965130D01*
X286382095Y-117965130D02*
X287048761Y-117965130D01*
X286620190Y-118965130D01*
X287382095Y-118060369D02*
X287429714Y-118012750D01*
X287524952Y-117965130D01*
X287763047Y-117965130D01*
X287858285Y-118012750D01*
X287905904Y-118060369D01*
X287953523Y-118155607D01*
X287953523Y-118250845D01*
X287905904Y-118393702D01*
X287334476Y-118965130D01*
X287953523Y-118965130D01*
%TO.C,SW71*%
X284334476Y-99867511D02*
X284477333Y-99915130D01*
X284715428Y-99915130D01*
X284810666Y-99867511D01*
X284858285Y-99819892D01*
X284905904Y-99724654D01*
X284905904Y-99629416D01*
X284858285Y-99534178D01*
X284810666Y-99486559D01*
X284715428Y-99438940D01*
X284524952Y-99391321D01*
X284429714Y-99343702D01*
X284382095Y-99296083D01*
X284334476Y-99200845D01*
X284334476Y-99105607D01*
X284382095Y-99010369D01*
X284429714Y-98962750D01*
X284524952Y-98915130D01*
X284763047Y-98915130D01*
X284905904Y-98962750D01*
X285239238Y-98915130D02*
X285477333Y-99915130D01*
X285667809Y-99200845D01*
X285858285Y-99915130D01*
X286096380Y-98915130D01*
X286382095Y-98915130D02*
X287048761Y-98915130D01*
X286620190Y-99915130D01*
X287953523Y-99915130D02*
X287382095Y-99915130D01*
X287667809Y-99915130D02*
X287667809Y-98915130D01*
X287572571Y-99057988D01*
X287477333Y-99153226D01*
X287382095Y-99200845D01*
%TO.C,SW70*%
X284334476Y-80817511D02*
X284477333Y-80865130D01*
X284715428Y-80865130D01*
X284810666Y-80817511D01*
X284858285Y-80769892D01*
X284905904Y-80674654D01*
X284905904Y-80579416D01*
X284858285Y-80484178D01*
X284810666Y-80436559D01*
X284715428Y-80388940D01*
X284524952Y-80341321D01*
X284429714Y-80293702D01*
X284382095Y-80246083D01*
X284334476Y-80150845D01*
X284334476Y-80055607D01*
X284382095Y-79960369D01*
X284429714Y-79912750D01*
X284524952Y-79865130D01*
X284763047Y-79865130D01*
X284905904Y-79912750D01*
X285239238Y-79865130D02*
X285477333Y-80865130D01*
X285667809Y-80150845D01*
X285858285Y-80865130D01*
X286096380Y-79865130D01*
X286382095Y-79865130D02*
X287048761Y-79865130D01*
X286620190Y-80865130D01*
X287620190Y-79865130D02*
X287715428Y-79865130D01*
X287810666Y-79912750D01*
X287858285Y-79960369D01*
X287905904Y-80055607D01*
X287953523Y-80246083D01*
X287953523Y-80484178D01*
X287905904Y-80674654D01*
X287858285Y-80769892D01*
X287810666Y-80817511D01*
X287715428Y-80865130D01*
X287620190Y-80865130D01*
X287524952Y-80817511D01*
X287477333Y-80769892D01*
X287429714Y-80674654D01*
X287382095Y-80484178D01*
X287382095Y-80246083D01*
X287429714Y-80055607D01*
X287477333Y-79960369D01*
X287524952Y-79912750D01*
X287620190Y-79865130D01*
%TO.C,SW69*%
X284334476Y-61767511D02*
X284477333Y-61815130D01*
X284715428Y-61815130D01*
X284810666Y-61767511D01*
X284858285Y-61719892D01*
X284905904Y-61624654D01*
X284905904Y-61529416D01*
X284858285Y-61434178D01*
X284810666Y-61386559D01*
X284715428Y-61338940D01*
X284524952Y-61291321D01*
X284429714Y-61243702D01*
X284382095Y-61196083D01*
X284334476Y-61100845D01*
X284334476Y-61005607D01*
X284382095Y-60910369D01*
X284429714Y-60862750D01*
X284524952Y-60815130D01*
X284763047Y-60815130D01*
X284905904Y-60862750D01*
X285239238Y-60815130D02*
X285477333Y-61815130D01*
X285667809Y-61100845D01*
X285858285Y-61815130D01*
X286096380Y-60815130D01*
X286905904Y-60815130D02*
X286715428Y-60815130D01*
X286620190Y-60862750D01*
X286572571Y-60910369D01*
X286477333Y-61053226D01*
X286429714Y-61243702D01*
X286429714Y-61624654D01*
X286477333Y-61719892D01*
X286524952Y-61767511D01*
X286620190Y-61815130D01*
X286810666Y-61815130D01*
X286905904Y-61767511D01*
X286953523Y-61719892D01*
X287001142Y-61624654D01*
X287001142Y-61386559D01*
X286953523Y-61291321D01*
X286905904Y-61243702D01*
X286810666Y-61196083D01*
X286620190Y-61196083D01*
X286524952Y-61243702D01*
X286477333Y-61291321D01*
X286429714Y-61386559D01*
X287477333Y-61815130D02*
X287667809Y-61815130D01*
X287763047Y-61767511D01*
X287810666Y-61719892D01*
X287905904Y-61577035D01*
X287953523Y-61386559D01*
X287953523Y-61005607D01*
X287905904Y-60910369D01*
X287858285Y-60862750D01*
X287763047Y-60815130D01*
X287572571Y-60815130D01*
X287477333Y-60862750D01*
X287429714Y-60910369D01*
X287382095Y-61005607D01*
X287382095Y-61243702D01*
X287429714Y-61338940D01*
X287477333Y-61386559D01*
X287572571Y-61434178D01*
X287763047Y-61434178D01*
X287858285Y-61386559D01*
X287905904Y-61338940D01*
X287953523Y-61243702D01*
%TO.C,SW68*%
X284334476Y-42717511D02*
X284477333Y-42765130D01*
X284715428Y-42765130D01*
X284810666Y-42717511D01*
X284858285Y-42669892D01*
X284905904Y-42574654D01*
X284905904Y-42479416D01*
X284858285Y-42384178D01*
X284810666Y-42336559D01*
X284715428Y-42288940D01*
X284524952Y-42241321D01*
X284429714Y-42193702D01*
X284382095Y-42146083D01*
X284334476Y-42050845D01*
X284334476Y-41955607D01*
X284382095Y-41860369D01*
X284429714Y-41812750D01*
X284524952Y-41765130D01*
X284763047Y-41765130D01*
X284905904Y-41812750D01*
X285239238Y-41765130D02*
X285477333Y-42765130D01*
X285667809Y-42050845D01*
X285858285Y-42765130D01*
X286096380Y-41765130D01*
X286905904Y-41765130D02*
X286715428Y-41765130D01*
X286620190Y-41812750D01*
X286572571Y-41860369D01*
X286477333Y-42003226D01*
X286429714Y-42193702D01*
X286429714Y-42574654D01*
X286477333Y-42669892D01*
X286524952Y-42717511D01*
X286620190Y-42765130D01*
X286810666Y-42765130D01*
X286905904Y-42717511D01*
X286953523Y-42669892D01*
X287001142Y-42574654D01*
X287001142Y-42336559D01*
X286953523Y-42241321D01*
X286905904Y-42193702D01*
X286810666Y-42146083D01*
X286620190Y-42146083D01*
X286524952Y-42193702D01*
X286477333Y-42241321D01*
X286429714Y-42336559D01*
X287572571Y-42193702D02*
X287477333Y-42146083D01*
X287429714Y-42098464D01*
X287382095Y-42003226D01*
X287382095Y-41955607D01*
X287429714Y-41860369D01*
X287477333Y-41812750D01*
X287572571Y-41765130D01*
X287763047Y-41765130D01*
X287858285Y-41812750D01*
X287905904Y-41860369D01*
X287953523Y-41955607D01*
X287953523Y-42003226D01*
X287905904Y-42098464D01*
X287858285Y-42146083D01*
X287763047Y-42193702D01*
X287572571Y-42193702D01*
X287477333Y-42241321D01*
X287429714Y-42288940D01*
X287382095Y-42384178D01*
X287382095Y-42574654D01*
X287429714Y-42669892D01*
X287477333Y-42717511D01*
X287572571Y-42765130D01*
X287763047Y-42765130D01*
X287858285Y-42717511D01*
X287905904Y-42669892D01*
X287953523Y-42574654D01*
X287953523Y-42384178D01*
X287905904Y-42288940D01*
X287858285Y-42241321D01*
X287763047Y-42193702D01*
%TO.C,SW67*%
X260458476Y-118917511D02*
X260601333Y-118965130D01*
X260839428Y-118965130D01*
X260934666Y-118917511D01*
X260982285Y-118869892D01*
X261029904Y-118774654D01*
X261029904Y-118679416D01*
X260982285Y-118584178D01*
X260934666Y-118536559D01*
X260839428Y-118488940D01*
X260648952Y-118441321D01*
X260553714Y-118393702D01*
X260506095Y-118346083D01*
X260458476Y-118250845D01*
X260458476Y-118155607D01*
X260506095Y-118060369D01*
X260553714Y-118012750D01*
X260648952Y-117965130D01*
X260887047Y-117965130D01*
X261029904Y-118012750D01*
X261363238Y-117965130D02*
X261601333Y-118965130D01*
X261791809Y-118250845D01*
X261982285Y-118965130D01*
X262220380Y-117965130D01*
X263029904Y-117965130D02*
X262839428Y-117965130D01*
X262744190Y-118012750D01*
X262696571Y-118060369D01*
X262601333Y-118203226D01*
X262553714Y-118393702D01*
X262553714Y-118774654D01*
X262601333Y-118869892D01*
X262648952Y-118917511D01*
X262744190Y-118965130D01*
X262934666Y-118965130D01*
X263029904Y-118917511D01*
X263077523Y-118869892D01*
X263125142Y-118774654D01*
X263125142Y-118536559D01*
X263077523Y-118441321D01*
X263029904Y-118393702D01*
X262934666Y-118346083D01*
X262744190Y-118346083D01*
X262648952Y-118393702D01*
X262601333Y-118441321D01*
X262553714Y-118536559D01*
X263458476Y-117965130D02*
X264125142Y-117965130D01*
X263696571Y-118965130D01*
%TO.C,SW66*%
X260458476Y-99867511D02*
X260601333Y-99915130D01*
X260839428Y-99915130D01*
X260934666Y-99867511D01*
X260982285Y-99819892D01*
X261029904Y-99724654D01*
X261029904Y-99629416D01*
X260982285Y-99534178D01*
X260934666Y-99486559D01*
X260839428Y-99438940D01*
X260648952Y-99391321D01*
X260553714Y-99343702D01*
X260506095Y-99296083D01*
X260458476Y-99200845D01*
X260458476Y-99105607D01*
X260506095Y-99010369D01*
X260553714Y-98962750D01*
X260648952Y-98915130D01*
X260887047Y-98915130D01*
X261029904Y-98962750D01*
X261363238Y-98915130D02*
X261601333Y-99915130D01*
X261791809Y-99200845D01*
X261982285Y-99915130D01*
X262220380Y-98915130D01*
X263029904Y-98915130D02*
X262839428Y-98915130D01*
X262744190Y-98962750D01*
X262696571Y-99010369D01*
X262601333Y-99153226D01*
X262553714Y-99343702D01*
X262553714Y-99724654D01*
X262601333Y-99819892D01*
X262648952Y-99867511D01*
X262744190Y-99915130D01*
X262934666Y-99915130D01*
X263029904Y-99867511D01*
X263077523Y-99819892D01*
X263125142Y-99724654D01*
X263125142Y-99486559D01*
X263077523Y-99391321D01*
X263029904Y-99343702D01*
X262934666Y-99296083D01*
X262744190Y-99296083D01*
X262648952Y-99343702D01*
X262601333Y-99391321D01*
X262553714Y-99486559D01*
X263982285Y-98915130D02*
X263791809Y-98915130D01*
X263696571Y-98962750D01*
X263648952Y-99010369D01*
X263553714Y-99153226D01*
X263506095Y-99343702D01*
X263506095Y-99724654D01*
X263553714Y-99819892D01*
X263601333Y-99867511D01*
X263696571Y-99915130D01*
X263887047Y-99915130D01*
X263982285Y-99867511D01*
X264029904Y-99819892D01*
X264077523Y-99724654D01*
X264077523Y-99486559D01*
X264029904Y-99391321D01*
X263982285Y-99343702D01*
X263887047Y-99296083D01*
X263696571Y-99296083D01*
X263601333Y-99343702D01*
X263553714Y-99391321D01*
X263506095Y-99486559D01*
%TO.C,SW65*%
X260458476Y-80817511D02*
X260601333Y-80865130D01*
X260839428Y-80865130D01*
X260934666Y-80817511D01*
X260982285Y-80769892D01*
X261029904Y-80674654D01*
X261029904Y-80579416D01*
X260982285Y-80484178D01*
X260934666Y-80436559D01*
X260839428Y-80388940D01*
X260648952Y-80341321D01*
X260553714Y-80293702D01*
X260506095Y-80246083D01*
X260458476Y-80150845D01*
X260458476Y-80055607D01*
X260506095Y-79960369D01*
X260553714Y-79912750D01*
X260648952Y-79865130D01*
X260887047Y-79865130D01*
X261029904Y-79912750D01*
X261363238Y-79865130D02*
X261601333Y-80865130D01*
X261791809Y-80150845D01*
X261982285Y-80865130D01*
X262220380Y-79865130D01*
X263029904Y-79865130D02*
X262839428Y-79865130D01*
X262744190Y-79912750D01*
X262696571Y-79960369D01*
X262601333Y-80103226D01*
X262553714Y-80293702D01*
X262553714Y-80674654D01*
X262601333Y-80769892D01*
X262648952Y-80817511D01*
X262744190Y-80865130D01*
X262934666Y-80865130D01*
X263029904Y-80817511D01*
X263077523Y-80769892D01*
X263125142Y-80674654D01*
X263125142Y-80436559D01*
X263077523Y-80341321D01*
X263029904Y-80293702D01*
X262934666Y-80246083D01*
X262744190Y-80246083D01*
X262648952Y-80293702D01*
X262601333Y-80341321D01*
X262553714Y-80436559D01*
X264029904Y-79865130D02*
X263553714Y-79865130D01*
X263506095Y-80341321D01*
X263553714Y-80293702D01*
X263648952Y-80246083D01*
X263887047Y-80246083D01*
X263982285Y-80293702D01*
X264029904Y-80341321D01*
X264077523Y-80436559D01*
X264077523Y-80674654D01*
X264029904Y-80769892D01*
X263982285Y-80817511D01*
X263887047Y-80865130D01*
X263648952Y-80865130D01*
X263553714Y-80817511D01*
X263506095Y-80769892D01*
%TO.C,SW64*%
X260458476Y-61767511D02*
X260601333Y-61815130D01*
X260839428Y-61815130D01*
X260934666Y-61767511D01*
X260982285Y-61719892D01*
X261029904Y-61624654D01*
X261029904Y-61529416D01*
X260982285Y-61434178D01*
X260934666Y-61386559D01*
X260839428Y-61338940D01*
X260648952Y-61291321D01*
X260553714Y-61243702D01*
X260506095Y-61196083D01*
X260458476Y-61100845D01*
X260458476Y-61005607D01*
X260506095Y-60910369D01*
X260553714Y-60862750D01*
X260648952Y-60815130D01*
X260887047Y-60815130D01*
X261029904Y-60862750D01*
X261363238Y-60815130D02*
X261601333Y-61815130D01*
X261791809Y-61100845D01*
X261982285Y-61815130D01*
X262220380Y-60815130D01*
X263029904Y-60815130D02*
X262839428Y-60815130D01*
X262744190Y-60862750D01*
X262696571Y-60910369D01*
X262601333Y-61053226D01*
X262553714Y-61243702D01*
X262553714Y-61624654D01*
X262601333Y-61719892D01*
X262648952Y-61767511D01*
X262744190Y-61815130D01*
X262934666Y-61815130D01*
X263029904Y-61767511D01*
X263077523Y-61719892D01*
X263125142Y-61624654D01*
X263125142Y-61386559D01*
X263077523Y-61291321D01*
X263029904Y-61243702D01*
X262934666Y-61196083D01*
X262744190Y-61196083D01*
X262648952Y-61243702D01*
X262601333Y-61291321D01*
X262553714Y-61386559D01*
X263982285Y-61148464D02*
X263982285Y-61815130D01*
X263744190Y-60767511D02*
X263506095Y-61481797D01*
X264125142Y-61481797D01*
%TO.C,SW63*%
X260458476Y-42717511D02*
X260601333Y-42765130D01*
X260839428Y-42765130D01*
X260934666Y-42717511D01*
X260982285Y-42669892D01*
X261029904Y-42574654D01*
X261029904Y-42479416D01*
X260982285Y-42384178D01*
X260934666Y-42336559D01*
X260839428Y-42288940D01*
X260648952Y-42241321D01*
X260553714Y-42193702D01*
X260506095Y-42146083D01*
X260458476Y-42050845D01*
X260458476Y-41955607D01*
X260506095Y-41860369D01*
X260553714Y-41812750D01*
X260648952Y-41765130D01*
X260887047Y-41765130D01*
X261029904Y-41812750D01*
X261363238Y-41765130D02*
X261601333Y-42765130D01*
X261791809Y-42050845D01*
X261982285Y-42765130D01*
X262220380Y-41765130D01*
X263029904Y-41765130D02*
X262839428Y-41765130D01*
X262744190Y-41812750D01*
X262696571Y-41860369D01*
X262601333Y-42003226D01*
X262553714Y-42193702D01*
X262553714Y-42574654D01*
X262601333Y-42669892D01*
X262648952Y-42717511D01*
X262744190Y-42765130D01*
X262934666Y-42765130D01*
X263029904Y-42717511D01*
X263077523Y-42669892D01*
X263125142Y-42574654D01*
X263125142Y-42336559D01*
X263077523Y-42241321D01*
X263029904Y-42193702D01*
X262934666Y-42146083D01*
X262744190Y-42146083D01*
X262648952Y-42193702D01*
X262601333Y-42241321D01*
X262553714Y-42336559D01*
X263458476Y-41765130D02*
X264077523Y-41765130D01*
X263744190Y-42146083D01*
X263887047Y-42146083D01*
X263982285Y-42193702D01*
X264029904Y-42241321D01*
X264077523Y-42336559D01*
X264077523Y-42574654D01*
X264029904Y-42669892D01*
X263982285Y-42717511D01*
X263887047Y-42765130D01*
X263601333Y-42765130D01*
X263506095Y-42717511D01*
X263458476Y-42669892D01*
%TO.C,SW62*%
X241408476Y-115361511D02*
X241551333Y-115409130D01*
X241789428Y-115409130D01*
X241884666Y-115361511D01*
X241932285Y-115313892D01*
X241979904Y-115218654D01*
X241979904Y-115123416D01*
X241932285Y-115028178D01*
X241884666Y-114980559D01*
X241789428Y-114932940D01*
X241598952Y-114885321D01*
X241503714Y-114837702D01*
X241456095Y-114790083D01*
X241408476Y-114694845D01*
X241408476Y-114599607D01*
X241456095Y-114504369D01*
X241503714Y-114456750D01*
X241598952Y-114409130D01*
X241837047Y-114409130D01*
X241979904Y-114456750D01*
X242313238Y-114409130D02*
X242551333Y-115409130D01*
X242741809Y-114694845D01*
X242932285Y-115409130D01*
X243170380Y-114409130D01*
X243979904Y-114409130D02*
X243789428Y-114409130D01*
X243694190Y-114456750D01*
X243646571Y-114504369D01*
X243551333Y-114647226D01*
X243503714Y-114837702D01*
X243503714Y-115218654D01*
X243551333Y-115313892D01*
X243598952Y-115361511D01*
X243694190Y-115409130D01*
X243884666Y-115409130D01*
X243979904Y-115361511D01*
X244027523Y-115313892D01*
X244075142Y-115218654D01*
X244075142Y-114980559D01*
X244027523Y-114885321D01*
X243979904Y-114837702D01*
X243884666Y-114790083D01*
X243694190Y-114790083D01*
X243598952Y-114837702D01*
X243551333Y-114885321D01*
X243503714Y-114980559D01*
X244456095Y-114504369D02*
X244503714Y-114456750D01*
X244598952Y-114409130D01*
X244837047Y-114409130D01*
X244932285Y-114456750D01*
X244979904Y-114504369D01*
X245027523Y-114599607D01*
X245027523Y-114694845D01*
X244979904Y-114837702D01*
X244408476Y-115409130D01*
X245027523Y-115409130D01*
%TO.C,SW61*%
X241408476Y-96311511D02*
X241551333Y-96359130D01*
X241789428Y-96359130D01*
X241884666Y-96311511D01*
X241932285Y-96263892D01*
X241979904Y-96168654D01*
X241979904Y-96073416D01*
X241932285Y-95978178D01*
X241884666Y-95930559D01*
X241789428Y-95882940D01*
X241598952Y-95835321D01*
X241503714Y-95787702D01*
X241456095Y-95740083D01*
X241408476Y-95644845D01*
X241408476Y-95549607D01*
X241456095Y-95454369D01*
X241503714Y-95406750D01*
X241598952Y-95359130D01*
X241837047Y-95359130D01*
X241979904Y-95406750D01*
X242313238Y-95359130D02*
X242551333Y-96359130D01*
X242741809Y-95644845D01*
X242932285Y-96359130D01*
X243170380Y-95359130D01*
X243979904Y-95359130D02*
X243789428Y-95359130D01*
X243694190Y-95406750D01*
X243646571Y-95454369D01*
X243551333Y-95597226D01*
X243503714Y-95787702D01*
X243503714Y-96168654D01*
X243551333Y-96263892D01*
X243598952Y-96311511D01*
X243694190Y-96359130D01*
X243884666Y-96359130D01*
X243979904Y-96311511D01*
X244027523Y-96263892D01*
X244075142Y-96168654D01*
X244075142Y-95930559D01*
X244027523Y-95835321D01*
X243979904Y-95787702D01*
X243884666Y-95740083D01*
X243694190Y-95740083D01*
X243598952Y-95787702D01*
X243551333Y-95835321D01*
X243503714Y-95930559D01*
X245027523Y-96359130D02*
X244456095Y-96359130D01*
X244741809Y-96359130D02*
X244741809Y-95359130D01*
X244646571Y-95501988D01*
X244551333Y-95597226D01*
X244456095Y-95644845D01*
%TO.C,SW60*%
X241408476Y-77261511D02*
X241551333Y-77309130D01*
X241789428Y-77309130D01*
X241884666Y-77261511D01*
X241932285Y-77213892D01*
X241979904Y-77118654D01*
X241979904Y-77023416D01*
X241932285Y-76928178D01*
X241884666Y-76880559D01*
X241789428Y-76832940D01*
X241598952Y-76785321D01*
X241503714Y-76737702D01*
X241456095Y-76690083D01*
X241408476Y-76594845D01*
X241408476Y-76499607D01*
X241456095Y-76404369D01*
X241503714Y-76356750D01*
X241598952Y-76309130D01*
X241837047Y-76309130D01*
X241979904Y-76356750D01*
X242313238Y-76309130D02*
X242551333Y-77309130D01*
X242741809Y-76594845D01*
X242932285Y-77309130D01*
X243170380Y-76309130D01*
X243979904Y-76309130D02*
X243789428Y-76309130D01*
X243694190Y-76356750D01*
X243646571Y-76404369D01*
X243551333Y-76547226D01*
X243503714Y-76737702D01*
X243503714Y-77118654D01*
X243551333Y-77213892D01*
X243598952Y-77261511D01*
X243694190Y-77309130D01*
X243884666Y-77309130D01*
X243979904Y-77261511D01*
X244027523Y-77213892D01*
X244075142Y-77118654D01*
X244075142Y-76880559D01*
X244027523Y-76785321D01*
X243979904Y-76737702D01*
X243884666Y-76690083D01*
X243694190Y-76690083D01*
X243598952Y-76737702D01*
X243551333Y-76785321D01*
X243503714Y-76880559D01*
X244694190Y-76309130D02*
X244789428Y-76309130D01*
X244884666Y-76356750D01*
X244932285Y-76404369D01*
X244979904Y-76499607D01*
X245027523Y-76690083D01*
X245027523Y-76928178D01*
X244979904Y-77118654D01*
X244932285Y-77213892D01*
X244884666Y-77261511D01*
X244789428Y-77309130D01*
X244694190Y-77309130D01*
X244598952Y-77261511D01*
X244551333Y-77213892D01*
X244503714Y-77118654D01*
X244456095Y-76928178D01*
X244456095Y-76690083D01*
X244503714Y-76499607D01*
X244551333Y-76404369D01*
X244598952Y-76356750D01*
X244694190Y-76309130D01*
%TO.C,SW59*%
X241408476Y-58211511D02*
X241551333Y-58259130D01*
X241789428Y-58259130D01*
X241884666Y-58211511D01*
X241932285Y-58163892D01*
X241979904Y-58068654D01*
X241979904Y-57973416D01*
X241932285Y-57878178D01*
X241884666Y-57830559D01*
X241789428Y-57782940D01*
X241598952Y-57735321D01*
X241503714Y-57687702D01*
X241456095Y-57640083D01*
X241408476Y-57544845D01*
X241408476Y-57449607D01*
X241456095Y-57354369D01*
X241503714Y-57306750D01*
X241598952Y-57259130D01*
X241837047Y-57259130D01*
X241979904Y-57306750D01*
X242313238Y-57259130D02*
X242551333Y-58259130D01*
X242741809Y-57544845D01*
X242932285Y-58259130D01*
X243170380Y-57259130D01*
X244027523Y-57259130D02*
X243551333Y-57259130D01*
X243503714Y-57735321D01*
X243551333Y-57687702D01*
X243646571Y-57640083D01*
X243884666Y-57640083D01*
X243979904Y-57687702D01*
X244027523Y-57735321D01*
X244075142Y-57830559D01*
X244075142Y-58068654D01*
X244027523Y-58163892D01*
X243979904Y-58211511D01*
X243884666Y-58259130D01*
X243646571Y-58259130D01*
X243551333Y-58211511D01*
X243503714Y-58163892D01*
X244551333Y-58259130D02*
X244741809Y-58259130D01*
X244837047Y-58211511D01*
X244884666Y-58163892D01*
X244979904Y-58021035D01*
X245027523Y-57830559D01*
X245027523Y-57449607D01*
X244979904Y-57354369D01*
X244932285Y-57306750D01*
X244837047Y-57259130D01*
X244646571Y-57259130D01*
X244551333Y-57306750D01*
X244503714Y-57354369D01*
X244456095Y-57449607D01*
X244456095Y-57687702D01*
X244503714Y-57782940D01*
X244551333Y-57830559D01*
X244646571Y-57878178D01*
X244837047Y-57878178D01*
X244932285Y-57830559D01*
X244979904Y-57782940D01*
X245027523Y-57687702D01*
%TO.C,SW58*%
X241408476Y-39161511D02*
X241551333Y-39209130D01*
X241789428Y-39209130D01*
X241884666Y-39161511D01*
X241932285Y-39113892D01*
X241979904Y-39018654D01*
X241979904Y-38923416D01*
X241932285Y-38828178D01*
X241884666Y-38780559D01*
X241789428Y-38732940D01*
X241598952Y-38685321D01*
X241503714Y-38637702D01*
X241456095Y-38590083D01*
X241408476Y-38494845D01*
X241408476Y-38399607D01*
X241456095Y-38304369D01*
X241503714Y-38256750D01*
X241598952Y-38209130D01*
X241837047Y-38209130D01*
X241979904Y-38256750D01*
X242313238Y-38209130D02*
X242551333Y-39209130D01*
X242741809Y-38494845D01*
X242932285Y-39209130D01*
X243170380Y-38209130D01*
X244027523Y-38209130D02*
X243551333Y-38209130D01*
X243503714Y-38685321D01*
X243551333Y-38637702D01*
X243646571Y-38590083D01*
X243884666Y-38590083D01*
X243979904Y-38637702D01*
X244027523Y-38685321D01*
X244075142Y-38780559D01*
X244075142Y-39018654D01*
X244027523Y-39113892D01*
X243979904Y-39161511D01*
X243884666Y-39209130D01*
X243646571Y-39209130D01*
X243551333Y-39161511D01*
X243503714Y-39113892D01*
X244646571Y-38637702D02*
X244551333Y-38590083D01*
X244503714Y-38542464D01*
X244456095Y-38447226D01*
X244456095Y-38399607D01*
X244503714Y-38304369D01*
X244551333Y-38256750D01*
X244646571Y-38209130D01*
X244837047Y-38209130D01*
X244932285Y-38256750D01*
X244979904Y-38304369D01*
X245027523Y-38399607D01*
X245027523Y-38447226D01*
X244979904Y-38542464D01*
X244932285Y-38590083D01*
X244837047Y-38637702D01*
X244646571Y-38637702D01*
X244551333Y-38685321D01*
X244503714Y-38732940D01*
X244456095Y-38828178D01*
X244456095Y-39018654D01*
X244503714Y-39113892D01*
X244551333Y-39161511D01*
X244646571Y-39209130D01*
X244837047Y-39209130D01*
X244932285Y-39161511D01*
X244979904Y-39113892D01*
X245027523Y-39018654D01*
X245027523Y-38828178D01*
X244979904Y-38732940D01*
X244932285Y-38685321D01*
X244837047Y-38637702D01*
%TO.C,SW57*%
X222358476Y-112440511D02*
X222501333Y-112488130D01*
X222739428Y-112488130D01*
X222834666Y-112440511D01*
X222882285Y-112392892D01*
X222929904Y-112297654D01*
X222929904Y-112202416D01*
X222882285Y-112107178D01*
X222834666Y-112059559D01*
X222739428Y-112011940D01*
X222548952Y-111964321D01*
X222453714Y-111916702D01*
X222406095Y-111869083D01*
X222358476Y-111773845D01*
X222358476Y-111678607D01*
X222406095Y-111583369D01*
X222453714Y-111535750D01*
X222548952Y-111488130D01*
X222787047Y-111488130D01*
X222929904Y-111535750D01*
X223263238Y-111488130D02*
X223501333Y-112488130D01*
X223691809Y-111773845D01*
X223882285Y-112488130D01*
X224120380Y-111488130D01*
X224977523Y-111488130D02*
X224501333Y-111488130D01*
X224453714Y-111964321D01*
X224501333Y-111916702D01*
X224596571Y-111869083D01*
X224834666Y-111869083D01*
X224929904Y-111916702D01*
X224977523Y-111964321D01*
X225025142Y-112059559D01*
X225025142Y-112297654D01*
X224977523Y-112392892D01*
X224929904Y-112440511D01*
X224834666Y-112488130D01*
X224596571Y-112488130D01*
X224501333Y-112440511D01*
X224453714Y-112392892D01*
X225358476Y-111488130D02*
X226025142Y-111488130D01*
X225596571Y-112488130D01*
%TO.C,SW56*%
X222358476Y-93390511D02*
X222501333Y-93438130D01*
X222739428Y-93438130D01*
X222834666Y-93390511D01*
X222882285Y-93342892D01*
X222929904Y-93247654D01*
X222929904Y-93152416D01*
X222882285Y-93057178D01*
X222834666Y-93009559D01*
X222739428Y-92961940D01*
X222548952Y-92914321D01*
X222453714Y-92866702D01*
X222406095Y-92819083D01*
X222358476Y-92723845D01*
X222358476Y-92628607D01*
X222406095Y-92533369D01*
X222453714Y-92485750D01*
X222548952Y-92438130D01*
X222787047Y-92438130D01*
X222929904Y-92485750D01*
X223263238Y-92438130D02*
X223501333Y-93438130D01*
X223691809Y-92723845D01*
X223882285Y-93438130D01*
X224120380Y-92438130D01*
X224977523Y-92438130D02*
X224501333Y-92438130D01*
X224453714Y-92914321D01*
X224501333Y-92866702D01*
X224596571Y-92819083D01*
X224834666Y-92819083D01*
X224929904Y-92866702D01*
X224977523Y-92914321D01*
X225025142Y-93009559D01*
X225025142Y-93247654D01*
X224977523Y-93342892D01*
X224929904Y-93390511D01*
X224834666Y-93438130D01*
X224596571Y-93438130D01*
X224501333Y-93390511D01*
X224453714Y-93342892D01*
X225882285Y-92438130D02*
X225691809Y-92438130D01*
X225596571Y-92485750D01*
X225548952Y-92533369D01*
X225453714Y-92676226D01*
X225406095Y-92866702D01*
X225406095Y-93247654D01*
X225453714Y-93342892D01*
X225501333Y-93390511D01*
X225596571Y-93438130D01*
X225787047Y-93438130D01*
X225882285Y-93390511D01*
X225929904Y-93342892D01*
X225977523Y-93247654D01*
X225977523Y-93009559D01*
X225929904Y-92914321D01*
X225882285Y-92866702D01*
X225787047Y-92819083D01*
X225596571Y-92819083D01*
X225501333Y-92866702D01*
X225453714Y-92914321D01*
X225406095Y-93009559D01*
%TO.C,SW55*%
X222358476Y-74340511D02*
X222501333Y-74388130D01*
X222739428Y-74388130D01*
X222834666Y-74340511D01*
X222882285Y-74292892D01*
X222929904Y-74197654D01*
X222929904Y-74102416D01*
X222882285Y-74007178D01*
X222834666Y-73959559D01*
X222739428Y-73911940D01*
X222548952Y-73864321D01*
X222453714Y-73816702D01*
X222406095Y-73769083D01*
X222358476Y-73673845D01*
X222358476Y-73578607D01*
X222406095Y-73483369D01*
X222453714Y-73435750D01*
X222548952Y-73388130D01*
X222787047Y-73388130D01*
X222929904Y-73435750D01*
X223263238Y-73388130D02*
X223501333Y-74388130D01*
X223691809Y-73673845D01*
X223882285Y-74388130D01*
X224120380Y-73388130D01*
X224977523Y-73388130D02*
X224501333Y-73388130D01*
X224453714Y-73864321D01*
X224501333Y-73816702D01*
X224596571Y-73769083D01*
X224834666Y-73769083D01*
X224929904Y-73816702D01*
X224977523Y-73864321D01*
X225025142Y-73959559D01*
X225025142Y-74197654D01*
X224977523Y-74292892D01*
X224929904Y-74340511D01*
X224834666Y-74388130D01*
X224596571Y-74388130D01*
X224501333Y-74340511D01*
X224453714Y-74292892D01*
X225929904Y-73388130D02*
X225453714Y-73388130D01*
X225406095Y-73864321D01*
X225453714Y-73816702D01*
X225548952Y-73769083D01*
X225787047Y-73769083D01*
X225882285Y-73816702D01*
X225929904Y-73864321D01*
X225977523Y-73959559D01*
X225977523Y-74197654D01*
X225929904Y-74292892D01*
X225882285Y-74340511D01*
X225787047Y-74388130D01*
X225548952Y-74388130D01*
X225453714Y-74340511D01*
X225406095Y-74292892D01*
%TO.C,SW54*%
X222358476Y-55290511D02*
X222501333Y-55338130D01*
X222739428Y-55338130D01*
X222834666Y-55290511D01*
X222882285Y-55242892D01*
X222929904Y-55147654D01*
X222929904Y-55052416D01*
X222882285Y-54957178D01*
X222834666Y-54909559D01*
X222739428Y-54861940D01*
X222548952Y-54814321D01*
X222453714Y-54766702D01*
X222406095Y-54719083D01*
X222358476Y-54623845D01*
X222358476Y-54528607D01*
X222406095Y-54433369D01*
X222453714Y-54385750D01*
X222548952Y-54338130D01*
X222787047Y-54338130D01*
X222929904Y-54385750D01*
X223263238Y-54338130D02*
X223501333Y-55338130D01*
X223691809Y-54623845D01*
X223882285Y-55338130D01*
X224120380Y-54338130D01*
X224977523Y-54338130D02*
X224501333Y-54338130D01*
X224453714Y-54814321D01*
X224501333Y-54766702D01*
X224596571Y-54719083D01*
X224834666Y-54719083D01*
X224929904Y-54766702D01*
X224977523Y-54814321D01*
X225025142Y-54909559D01*
X225025142Y-55147654D01*
X224977523Y-55242892D01*
X224929904Y-55290511D01*
X224834666Y-55338130D01*
X224596571Y-55338130D01*
X224501333Y-55290511D01*
X224453714Y-55242892D01*
X225882285Y-54671464D02*
X225882285Y-55338130D01*
X225644190Y-54290511D02*
X225406095Y-55004797D01*
X226025142Y-55004797D01*
%TO.C,SW53*%
X222358476Y-36240511D02*
X222501333Y-36288130D01*
X222739428Y-36288130D01*
X222834666Y-36240511D01*
X222882285Y-36192892D01*
X222929904Y-36097654D01*
X222929904Y-36002416D01*
X222882285Y-35907178D01*
X222834666Y-35859559D01*
X222739428Y-35811940D01*
X222548952Y-35764321D01*
X222453714Y-35716702D01*
X222406095Y-35669083D01*
X222358476Y-35573845D01*
X222358476Y-35478607D01*
X222406095Y-35383369D01*
X222453714Y-35335750D01*
X222548952Y-35288130D01*
X222787047Y-35288130D01*
X222929904Y-35335750D01*
X223263238Y-35288130D02*
X223501333Y-36288130D01*
X223691809Y-35573845D01*
X223882285Y-36288130D01*
X224120380Y-35288130D01*
X224977523Y-35288130D02*
X224501333Y-35288130D01*
X224453714Y-35764321D01*
X224501333Y-35716702D01*
X224596571Y-35669083D01*
X224834666Y-35669083D01*
X224929904Y-35716702D01*
X224977523Y-35764321D01*
X225025142Y-35859559D01*
X225025142Y-36097654D01*
X224977523Y-36192892D01*
X224929904Y-36240511D01*
X224834666Y-36288130D01*
X224596571Y-36288130D01*
X224501333Y-36240511D01*
X224453714Y-36192892D01*
X225358476Y-35288130D02*
X225977523Y-35288130D01*
X225644190Y-35669083D01*
X225787047Y-35669083D01*
X225882285Y-35716702D01*
X225929904Y-35764321D01*
X225977523Y-35859559D01*
X225977523Y-36097654D01*
X225929904Y-36192892D01*
X225882285Y-36240511D01*
X225787047Y-36288130D01*
X225501333Y-36288130D01*
X225406095Y-36240511D01*
X225358476Y-36192892D01*
%TO.C,SW52*%
X203308476Y-115361511D02*
X203451333Y-115409130D01*
X203689428Y-115409130D01*
X203784666Y-115361511D01*
X203832285Y-115313892D01*
X203879904Y-115218654D01*
X203879904Y-115123416D01*
X203832285Y-115028178D01*
X203784666Y-114980559D01*
X203689428Y-114932940D01*
X203498952Y-114885321D01*
X203403714Y-114837702D01*
X203356095Y-114790083D01*
X203308476Y-114694845D01*
X203308476Y-114599607D01*
X203356095Y-114504369D01*
X203403714Y-114456750D01*
X203498952Y-114409130D01*
X203737047Y-114409130D01*
X203879904Y-114456750D01*
X204213238Y-114409130D02*
X204451333Y-115409130D01*
X204641809Y-114694845D01*
X204832285Y-115409130D01*
X205070380Y-114409130D01*
X205927523Y-114409130D02*
X205451333Y-114409130D01*
X205403714Y-114885321D01*
X205451333Y-114837702D01*
X205546571Y-114790083D01*
X205784666Y-114790083D01*
X205879904Y-114837702D01*
X205927523Y-114885321D01*
X205975142Y-114980559D01*
X205975142Y-115218654D01*
X205927523Y-115313892D01*
X205879904Y-115361511D01*
X205784666Y-115409130D01*
X205546571Y-115409130D01*
X205451333Y-115361511D01*
X205403714Y-115313892D01*
X206356095Y-114504369D02*
X206403714Y-114456750D01*
X206498952Y-114409130D01*
X206737047Y-114409130D01*
X206832285Y-114456750D01*
X206879904Y-114504369D01*
X206927523Y-114599607D01*
X206927523Y-114694845D01*
X206879904Y-114837702D01*
X206308476Y-115409130D01*
X206927523Y-115409130D01*
%TO.C,SW51*%
X203308476Y-96311511D02*
X203451333Y-96359130D01*
X203689428Y-96359130D01*
X203784666Y-96311511D01*
X203832285Y-96263892D01*
X203879904Y-96168654D01*
X203879904Y-96073416D01*
X203832285Y-95978178D01*
X203784666Y-95930559D01*
X203689428Y-95882940D01*
X203498952Y-95835321D01*
X203403714Y-95787702D01*
X203356095Y-95740083D01*
X203308476Y-95644845D01*
X203308476Y-95549607D01*
X203356095Y-95454369D01*
X203403714Y-95406750D01*
X203498952Y-95359130D01*
X203737047Y-95359130D01*
X203879904Y-95406750D01*
X204213238Y-95359130D02*
X204451333Y-96359130D01*
X204641809Y-95644845D01*
X204832285Y-96359130D01*
X205070380Y-95359130D01*
X205927523Y-95359130D02*
X205451333Y-95359130D01*
X205403714Y-95835321D01*
X205451333Y-95787702D01*
X205546571Y-95740083D01*
X205784666Y-95740083D01*
X205879904Y-95787702D01*
X205927523Y-95835321D01*
X205975142Y-95930559D01*
X205975142Y-96168654D01*
X205927523Y-96263892D01*
X205879904Y-96311511D01*
X205784666Y-96359130D01*
X205546571Y-96359130D01*
X205451333Y-96311511D01*
X205403714Y-96263892D01*
X206927523Y-96359130D02*
X206356095Y-96359130D01*
X206641809Y-96359130D02*
X206641809Y-95359130D01*
X206546571Y-95501988D01*
X206451333Y-95597226D01*
X206356095Y-95644845D01*
%TO.C,SW50*%
X203308476Y-77261511D02*
X203451333Y-77309130D01*
X203689428Y-77309130D01*
X203784666Y-77261511D01*
X203832285Y-77213892D01*
X203879904Y-77118654D01*
X203879904Y-77023416D01*
X203832285Y-76928178D01*
X203784666Y-76880559D01*
X203689428Y-76832940D01*
X203498952Y-76785321D01*
X203403714Y-76737702D01*
X203356095Y-76690083D01*
X203308476Y-76594845D01*
X203308476Y-76499607D01*
X203356095Y-76404369D01*
X203403714Y-76356750D01*
X203498952Y-76309130D01*
X203737047Y-76309130D01*
X203879904Y-76356750D01*
X204213238Y-76309130D02*
X204451333Y-77309130D01*
X204641809Y-76594845D01*
X204832285Y-77309130D01*
X205070380Y-76309130D01*
X205927523Y-76309130D02*
X205451333Y-76309130D01*
X205403714Y-76785321D01*
X205451333Y-76737702D01*
X205546571Y-76690083D01*
X205784666Y-76690083D01*
X205879904Y-76737702D01*
X205927523Y-76785321D01*
X205975142Y-76880559D01*
X205975142Y-77118654D01*
X205927523Y-77213892D01*
X205879904Y-77261511D01*
X205784666Y-77309130D01*
X205546571Y-77309130D01*
X205451333Y-77261511D01*
X205403714Y-77213892D01*
X206594190Y-76309130D02*
X206689428Y-76309130D01*
X206784666Y-76356750D01*
X206832285Y-76404369D01*
X206879904Y-76499607D01*
X206927523Y-76690083D01*
X206927523Y-76928178D01*
X206879904Y-77118654D01*
X206832285Y-77213892D01*
X206784666Y-77261511D01*
X206689428Y-77309130D01*
X206594190Y-77309130D01*
X206498952Y-77261511D01*
X206451333Y-77213892D01*
X206403714Y-77118654D01*
X206356095Y-76928178D01*
X206356095Y-76690083D01*
X206403714Y-76499607D01*
X206451333Y-76404369D01*
X206498952Y-76356750D01*
X206594190Y-76309130D01*
%TO.C,SW49*%
X203308476Y-58211511D02*
X203451333Y-58259130D01*
X203689428Y-58259130D01*
X203784666Y-58211511D01*
X203832285Y-58163892D01*
X203879904Y-58068654D01*
X203879904Y-57973416D01*
X203832285Y-57878178D01*
X203784666Y-57830559D01*
X203689428Y-57782940D01*
X203498952Y-57735321D01*
X203403714Y-57687702D01*
X203356095Y-57640083D01*
X203308476Y-57544845D01*
X203308476Y-57449607D01*
X203356095Y-57354369D01*
X203403714Y-57306750D01*
X203498952Y-57259130D01*
X203737047Y-57259130D01*
X203879904Y-57306750D01*
X204213238Y-57259130D02*
X204451333Y-58259130D01*
X204641809Y-57544845D01*
X204832285Y-58259130D01*
X205070380Y-57259130D01*
X205879904Y-57592464D02*
X205879904Y-58259130D01*
X205641809Y-57211511D02*
X205403714Y-57925797D01*
X206022761Y-57925797D01*
X206451333Y-58259130D02*
X206641809Y-58259130D01*
X206737047Y-58211511D01*
X206784666Y-58163892D01*
X206879904Y-58021035D01*
X206927523Y-57830559D01*
X206927523Y-57449607D01*
X206879904Y-57354369D01*
X206832285Y-57306750D01*
X206737047Y-57259130D01*
X206546571Y-57259130D01*
X206451333Y-57306750D01*
X206403714Y-57354369D01*
X206356095Y-57449607D01*
X206356095Y-57687702D01*
X206403714Y-57782940D01*
X206451333Y-57830559D01*
X206546571Y-57878178D01*
X206737047Y-57878178D01*
X206832285Y-57830559D01*
X206879904Y-57782940D01*
X206927523Y-57687702D01*
%TO.C,SW48*%
X203308476Y-39161511D02*
X203451333Y-39209130D01*
X203689428Y-39209130D01*
X203784666Y-39161511D01*
X203832285Y-39113892D01*
X203879904Y-39018654D01*
X203879904Y-38923416D01*
X203832285Y-38828178D01*
X203784666Y-38780559D01*
X203689428Y-38732940D01*
X203498952Y-38685321D01*
X203403714Y-38637702D01*
X203356095Y-38590083D01*
X203308476Y-38494845D01*
X203308476Y-38399607D01*
X203356095Y-38304369D01*
X203403714Y-38256750D01*
X203498952Y-38209130D01*
X203737047Y-38209130D01*
X203879904Y-38256750D01*
X204213238Y-38209130D02*
X204451333Y-39209130D01*
X204641809Y-38494845D01*
X204832285Y-39209130D01*
X205070380Y-38209130D01*
X205879904Y-38542464D02*
X205879904Y-39209130D01*
X205641809Y-38161511D02*
X205403714Y-38875797D01*
X206022761Y-38875797D01*
X206546571Y-38637702D02*
X206451333Y-38590083D01*
X206403714Y-38542464D01*
X206356095Y-38447226D01*
X206356095Y-38399607D01*
X206403714Y-38304369D01*
X206451333Y-38256750D01*
X206546571Y-38209130D01*
X206737047Y-38209130D01*
X206832285Y-38256750D01*
X206879904Y-38304369D01*
X206927523Y-38399607D01*
X206927523Y-38447226D01*
X206879904Y-38542464D01*
X206832285Y-38590083D01*
X206737047Y-38637702D01*
X206546571Y-38637702D01*
X206451333Y-38685321D01*
X206403714Y-38732940D01*
X206356095Y-38828178D01*
X206356095Y-39018654D01*
X206403714Y-39113892D01*
X206451333Y-39161511D01*
X206546571Y-39209130D01*
X206737047Y-39209130D01*
X206832285Y-39161511D01*
X206879904Y-39113892D01*
X206927523Y-39018654D01*
X206927523Y-38828178D01*
X206879904Y-38732940D01*
X206832285Y-38685321D01*
X206737047Y-38637702D01*
%TO.C,SW47*%
X177210287Y-122682370D02*
X177357814Y-122652181D01*
X177564011Y-122533134D01*
X177622680Y-122444275D01*
X177640110Y-122379226D01*
X177633730Y-122272938D01*
X177586111Y-122190460D01*
X177497253Y-122131791D01*
X177432204Y-122114361D01*
X177325916Y-122120741D01*
X177137149Y-122174739D01*
X177030861Y-122181119D01*
X176965812Y-122163689D01*
X176876954Y-122105020D01*
X176829334Y-122022542D01*
X176822955Y-121916253D01*
X176840385Y-121851205D01*
X176899054Y-121762346D01*
X177105250Y-121643299D01*
X177252778Y-121613109D01*
X177517643Y-121405203D02*
X178223840Y-122152181D01*
X178031654Y-121438354D01*
X178553754Y-121961705D01*
X178259951Y-120976632D01*
X179127686Y-120860545D02*
X179461019Y-121437896D01*
X178731013Y-120649678D02*
X178881959Y-121387316D01*
X179418070Y-121077792D01*
X179332173Y-120357584D02*
X179909523Y-120024251D01*
X180038369Y-121104562D01*
%TO.C,SW46*%
X184258476Y-98216511D02*
X184401333Y-98264130D01*
X184639428Y-98264130D01*
X184734666Y-98216511D01*
X184782285Y-98168892D01*
X184829904Y-98073654D01*
X184829904Y-97978416D01*
X184782285Y-97883178D01*
X184734666Y-97835559D01*
X184639428Y-97787940D01*
X184448952Y-97740321D01*
X184353714Y-97692702D01*
X184306095Y-97645083D01*
X184258476Y-97549845D01*
X184258476Y-97454607D01*
X184306095Y-97359369D01*
X184353714Y-97311750D01*
X184448952Y-97264130D01*
X184687047Y-97264130D01*
X184829904Y-97311750D01*
X185163238Y-97264130D02*
X185401333Y-98264130D01*
X185591809Y-97549845D01*
X185782285Y-98264130D01*
X186020380Y-97264130D01*
X186829904Y-97597464D02*
X186829904Y-98264130D01*
X186591809Y-97216511D02*
X186353714Y-97930797D01*
X186972761Y-97930797D01*
X187782285Y-97264130D02*
X187591809Y-97264130D01*
X187496571Y-97311750D01*
X187448952Y-97359369D01*
X187353714Y-97502226D01*
X187306095Y-97692702D01*
X187306095Y-98073654D01*
X187353714Y-98168892D01*
X187401333Y-98216511D01*
X187496571Y-98264130D01*
X187687047Y-98264130D01*
X187782285Y-98216511D01*
X187829904Y-98168892D01*
X187877523Y-98073654D01*
X187877523Y-97835559D01*
X187829904Y-97740321D01*
X187782285Y-97692702D01*
X187687047Y-97645083D01*
X187496571Y-97645083D01*
X187401333Y-97692702D01*
X187353714Y-97740321D01*
X187306095Y-97835559D01*
%TO.C,SW44*%
X184258476Y-60116511D02*
X184401333Y-60164130D01*
X184639428Y-60164130D01*
X184734666Y-60116511D01*
X184782285Y-60068892D01*
X184829904Y-59973654D01*
X184829904Y-59878416D01*
X184782285Y-59783178D01*
X184734666Y-59735559D01*
X184639428Y-59687940D01*
X184448952Y-59640321D01*
X184353714Y-59592702D01*
X184306095Y-59545083D01*
X184258476Y-59449845D01*
X184258476Y-59354607D01*
X184306095Y-59259369D01*
X184353714Y-59211750D01*
X184448952Y-59164130D01*
X184687047Y-59164130D01*
X184829904Y-59211750D01*
X185163238Y-59164130D02*
X185401333Y-60164130D01*
X185591809Y-59449845D01*
X185782285Y-60164130D01*
X186020380Y-59164130D01*
X186829904Y-59497464D02*
X186829904Y-60164130D01*
X186591809Y-59116511D02*
X186353714Y-59830797D01*
X186972761Y-59830797D01*
X187782285Y-59497464D02*
X187782285Y-60164130D01*
X187544190Y-59116511D02*
X187306095Y-59830797D01*
X187925142Y-59830797D01*
%TO.C,SW42*%
X158932924Y-137243727D02*
X159067611Y-137176383D01*
X159235970Y-137008025D01*
X159269641Y-136907009D01*
X159269641Y-136839666D01*
X159235970Y-136738651D01*
X159168626Y-136671307D01*
X159067611Y-136637635D01*
X159000267Y-136637635D01*
X158899252Y-136671307D01*
X158730893Y-136772322D01*
X158629878Y-136805994D01*
X158562535Y-136805994D01*
X158461519Y-136772322D01*
X158394176Y-136704979D01*
X158360504Y-136603964D01*
X158360504Y-136536620D01*
X158394176Y-136435605D01*
X158562535Y-136267246D01*
X158697222Y-136199903D01*
X158899252Y-135930529D02*
X159774718Y-136469277D01*
X159404328Y-135829513D01*
X160044092Y-136199903D01*
X159505344Y-135324437D01*
X160313466Y-134987720D02*
X160784870Y-135459124D01*
X159875733Y-134886704D02*
X160212450Y-135560139D01*
X160650183Y-135122407D01*
X160481824Y-134482643D02*
X160481824Y-134415300D01*
X160515496Y-134314285D01*
X160683855Y-134145926D01*
X160784870Y-134112254D01*
X160852214Y-134112254D01*
X160953229Y-134145926D01*
X161020572Y-134213269D01*
X161087916Y-134347956D01*
X161087916Y-135156078D01*
X161525649Y-134718346D01*
%TO.C,SW41*%
X165208476Y-99867511D02*
X165351333Y-99915130D01*
X165589428Y-99915130D01*
X165684666Y-99867511D01*
X165732285Y-99819892D01*
X165779904Y-99724654D01*
X165779904Y-99629416D01*
X165732285Y-99534178D01*
X165684666Y-99486559D01*
X165589428Y-99438940D01*
X165398952Y-99391321D01*
X165303714Y-99343702D01*
X165256095Y-99296083D01*
X165208476Y-99200845D01*
X165208476Y-99105607D01*
X165256095Y-99010369D01*
X165303714Y-98962750D01*
X165398952Y-98915130D01*
X165637047Y-98915130D01*
X165779904Y-98962750D01*
X166113238Y-98915130D02*
X166351333Y-99915130D01*
X166541809Y-99200845D01*
X166732285Y-99915130D01*
X166970380Y-98915130D01*
X167779904Y-99248464D02*
X167779904Y-99915130D01*
X167541809Y-98867511D02*
X167303714Y-99581797D01*
X167922761Y-99581797D01*
X168827523Y-99915130D02*
X168256095Y-99915130D01*
X168541809Y-99915130D02*
X168541809Y-98915130D01*
X168446571Y-99057988D01*
X168351333Y-99153226D01*
X168256095Y-99200845D01*
%TO.C,SW40*%
X165208476Y-80817511D02*
X165351333Y-80865130D01*
X165589428Y-80865130D01*
X165684666Y-80817511D01*
X165732285Y-80769892D01*
X165779904Y-80674654D01*
X165779904Y-80579416D01*
X165732285Y-80484178D01*
X165684666Y-80436559D01*
X165589428Y-80388940D01*
X165398952Y-80341321D01*
X165303714Y-80293702D01*
X165256095Y-80246083D01*
X165208476Y-80150845D01*
X165208476Y-80055607D01*
X165256095Y-79960369D01*
X165303714Y-79912750D01*
X165398952Y-79865130D01*
X165637047Y-79865130D01*
X165779904Y-79912750D01*
X166113238Y-79865130D02*
X166351333Y-80865130D01*
X166541809Y-80150845D01*
X166732285Y-80865130D01*
X166970380Y-79865130D01*
X167779904Y-80198464D02*
X167779904Y-80865130D01*
X167541809Y-79817511D02*
X167303714Y-80531797D01*
X167922761Y-80531797D01*
X168494190Y-79865130D02*
X168589428Y-79865130D01*
X168684666Y-79912750D01*
X168732285Y-79960369D01*
X168779904Y-80055607D01*
X168827523Y-80246083D01*
X168827523Y-80484178D01*
X168779904Y-80674654D01*
X168732285Y-80769892D01*
X168684666Y-80817511D01*
X168589428Y-80865130D01*
X168494190Y-80865130D01*
X168398952Y-80817511D01*
X168351333Y-80769892D01*
X168303714Y-80674654D01*
X168256095Y-80484178D01*
X168256095Y-80246083D01*
X168303714Y-80055607D01*
X168351333Y-79960369D01*
X168398952Y-79912750D01*
X168494190Y-79865130D01*
%TO.C,SW39*%
X165208476Y-61767511D02*
X165351333Y-61815130D01*
X165589428Y-61815130D01*
X165684666Y-61767511D01*
X165732285Y-61719892D01*
X165779904Y-61624654D01*
X165779904Y-61529416D01*
X165732285Y-61434178D01*
X165684666Y-61386559D01*
X165589428Y-61338940D01*
X165398952Y-61291321D01*
X165303714Y-61243702D01*
X165256095Y-61196083D01*
X165208476Y-61100845D01*
X165208476Y-61005607D01*
X165256095Y-60910369D01*
X165303714Y-60862750D01*
X165398952Y-60815130D01*
X165637047Y-60815130D01*
X165779904Y-60862750D01*
X166113238Y-60815130D02*
X166351333Y-61815130D01*
X166541809Y-61100845D01*
X166732285Y-61815130D01*
X166970380Y-60815130D01*
X167256095Y-60815130D02*
X167875142Y-60815130D01*
X167541809Y-61196083D01*
X167684666Y-61196083D01*
X167779904Y-61243702D01*
X167827523Y-61291321D01*
X167875142Y-61386559D01*
X167875142Y-61624654D01*
X167827523Y-61719892D01*
X167779904Y-61767511D01*
X167684666Y-61815130D01*
X167398952Y-61815130D01*
X167303714Y-61767511D01*
X167256095Y-61719892D01*
X168351333Y-61815130D02*
X168541809Y-61815130D01*
X168637047Y-61767511D01*
X168684666Y-61719892D01*
X168779904Y-61577035D01*
X168827523Y-61386559D01*
X168827523Y-61005607D01*
X168779904Y-60910369D01*
X168732285Y-60862750D01*
X168637047Y-60815130D01*
X168446571Y-60815130D01*
X168351333Y-60862750D01*
X168303714Y-60910369D01*
X168256095Y-61005607D01*
X168256095Y-61243702D01*
X168303714Y-61338940D01*
X168351333Y-61386559D01*
X168446571Y-61434178D01*
X168637047Y-61434178D01*
X168732285Y-61386559D01*
X168779904Y-61338940D01*
X168827523Y-61243702D01*
%TO.C,SW38*%
X165208476Y-42717511D02*
X165351333Y-42765130D01*
X165589428Y-42765130D01*
X165684666Y-42717511D01*
X165732285Y-42669892D01*
X165779904Y-42574654D01*
X165779904Y-42479416D01*
X165732285Y-42384178D01*
X165684666Y-42336559D01*
X165589428Y-42288940D01*
X165398952Y-42241321D01*
X165303714Y-42193702D01*
X165256095Y-42146083D01*
X165208476Y-42050845D01*
X165208476Y-41955607D01*
X165256095Y-41860369D01*
X165303714Y-41812750D01*
X165398952Y-41765130D01*
X165637047Y-41765130D01*
X165779904Y-41812750D01*
X166113238Y-41765130D02*
X166351333Y-42765130D01*
X166541809Y-42050845D01*
X166732285Y-42765130D01*
X166970380Y-41765130D01*
X167256095Y-41765130D02*
X167875142Y-41765130D01*
X167541809Y-42146083D01*
X167684666Y-42146083D01*
X167779904Y-42193702D01*
X167827523Y-42241321D01*
X167875142Y-42336559D01*
X167875142Y-42574654D01*
X167827523Y-42669892D01*
X167779904Y-42717511D01*
X167684666Y-42765130D01*
X167398952Y-42765130D01*
X167303714Y-42717511D01*
X167256095Y-42669892D01*
X168446571Y-42193702D02*
X168351333Y-42146083D01*
X168303714Y-42098464D01*
X168256095Y-42003226D01*
X168256095Y-41955607D01*
X168303714Y-41860369D01*
X168351333Y-41812750D01*
X168446571Y-41765130D01*
X168637047Y-41765130D01*
X168732285Y-41812750D01*
X168779904Y-41860369D01*
X168827523Y-41955607D01*
X168827523Y-42003226D01*
X168779904Y-42098464D01*
X168732285Y-42146083D01*
X168637047Y-42193702D01*
X168446571Y-42193702D01*
X168351333Y-42241321D01*
X168303714Y-42288940D01*
X168256095Y-42384178D01*
X168256095Y-42574654D01*
X168303714Y-42669892D01*
X168351333Y-42717511D01*
X168446571Y-42765130D01*
X168637047Y-42765130D01*
X168732285Y-42717511D01*
X168779904Y-42669892D01*
X168827523Y-42574654D01*
X168827523Y-42384178D01*
X168779904Y-42288940D01*
X168732285Y-42241321D01*
X168637047Y-42193702D01*
%TO.C,D68*%
X294581714Y-88019130D02*
X294581714Y-87019130D01*
X294819809Y-87019130D01*
X294962666Y-87066750D01*
X295057904Y-87161988D01*
X295105523Y-87257226D01*
X295153142Y-87447702D01*
X295153142Y-87590559D01*
X295105523Y-87781035D01*
X295057904Y-87876273D01*
X294962666Y-87971511D01*
X294819809Y-88019130D01*
X294581714Y-88019130D01*
X296010285Y-87019130D02*
X295819809Y-87019130D01*
X295724571Y-87066750D01*
X295676952Y-87114369D01*
X295581714Y-87257226D01*
X295534095Y-87447702D01*
X295534095Y-87828654D01*
X295581714Y-87923892D01*
X295629333Y-87971511D01*
X295724571Y-88019130D01*
X295915047Y-88019130D01*
X296010285Y-87971511D01*
X296057904Y-87923892D01*
X296105523Y-87828654D01*
X296105523Y-87590559D01*
X296057904Y-87495321D01*
X296010285Y-87447702D01*
X295915047Y-87400083D01*
X295724571Y-87400083D01*
X295629333Y-87447702D01*
X295581714Y-87495321D01*
X295534095Y-87590559D01*
X296676952Y-87447702D02*
X296581714Y-87400083D01*
X296534095Y-87352464D01*
X296486476Y-87257226D01*
X296486476Y-87209607D01*
X296534095Y-87114369D01*
X296581714Y-87066750D01*
X296676952Y-87019130D01*
X296867428Y-87019130D01*
X296962666Y-87066750D01*
X297010285Y-87114369D01*
X297057904Y-87209607D01*
X297057904Y-87257226D01*
X297010285Y-87352464D01*
X296962666Y-87400083D01*
X296867428Y-87447702D01*
X296676952Y-87447702D01*
X296581714Y-87495321D01*
X296534095Y-87542940D01*
X296486476Y-87638178D01*
X296486476Y-87828654D01*
X296534095Y-87923892D01*
X296581714Y-87971511D01*
X296676952Y-88019130D01*
X296867428Y-88019130D01*
X296962666Y-87971511D01*
X297010285Y-87923892D01*
X297057904Y-87828654D01*
X297057904Y-87638178D01*
X297010285Y-87542940D01*
X296962666Y-87495321D01*
X296867428Y-87447702D01*
%TO.C,D60*%
X251525714Y-122563130D02*
X251525714Y-121563130D01*
X251763809Y-121563130D01*
X251906666Y-121610750D01*
X252001904Y-121705988D01*
X252049523Y-121801226D01*
X252097142Y-121991702D01*
X252097142Y-122134559D01*
X252049523Y-122325035D01*
X252001904Y-122420273D01*
X251906666Y-122515511D01*
X251763809Y-122563130D01*
X251525714Y-122563130D01*
X252954285Y-121563130D02*
X252763809Y-121563130D01*
X252668571Y-121610750D01*
X252620952Y-121658369D01*
X252525714Y-121801226D01*
X252478095Y-121991702D01*
X252478095Y-122372654D01*
X252525714Y-122467892D01*
X252573333Y-122515511D01*
X252668571Y-122563130D01*
X252859047Y-122563130D01*
X252954285Y-122515511D01*
X253001904Y-122467892D01*
X253049523Y-122372654D01*
X253049523Y-122134559D01*
X253001904Y-122039321D01*
X252954285Y-121991702D01*
X252859047Y-121944083D01*
X252668571Y-121944083D01*
X252573333Y-121991702D01*
X252525714Y-122039321D01*
X252478095Y-122134559D01*
X253668571Y-121563130D02*
X253763809Y-121563130D01*
X253859047Y-121610750D01*
X253906666Y-121658369D01*
X253954285Y-121753607D01*
X254001904Y-121944083D01*
X254001904Y-122182178D01*
X253954285Y-122372654D01*
X253906666Y-122467892D01*
X253859047Y-122515511D01*
X253763809Y-122563130D01*
X253668571Y-122563130D01*
X253573333Y-122515511D01*
X253525714Y-122467892D01*
X253478095Y-122372654D01*
X253430476Y-122182178D01*
X253430476Y-121944083D01*
X253478095Y-121753607D01*
X253525714Y-121658369D01*
X253573333Y-121610750D01*
X253668571Y-121563130D01*
%TO.C,D45*%
X189766152Y-123819832D02*
X189266152Y-122953806D01*
X189472348Y-122834759D01*
X189619876Y-122804569D01*
X189749973Y-122839429D01*
X189838832Y-122898098D01*
X189975309Y-123039246D01*
X190046738Y-123162964D01*
X190100736Y-123351730D01*
X190107116Y-123458019D01*
X190072257Y-123588116D01*
X189972348Y-123700784D01*
X189766152Y-123819832D01*
X190669998Y-122528196D02*
X191003331Y-123105546D01*
X190273325Y-122317329D02*
X190424271Y-123054966D01*
X190960382Y-122745442D01*
X191369356Y-121739521D02*
X190956963Y-121977616D01*
X191153819Y-122413818D01*
X191171249Y-122348770D01*
X191229918Y-122259911D01*
X191436115Y-122140864D01*
X191542403Y-122134484D01*
X191607451Y-122151914D01*
X191696310Y-122210583D01*
X191815357Y-122416779D01*
X191821737Y-122523067D01*
X191804307Y-122588116D01*
X191745638Y-122676975D01*
X191539442Y-122796022D01*
X191433154Y-122802402D01*
X191368105Y-122784972D01*
%TO.C,J1*%
X132458166Y-35764380D02*
X132458166Y-36478666D01*
X132410547Y-36621523D01*
X132315309Y-36716761D01*
X132172452Y-36764380D01*
X132077214Y-36764380D01*
X133458166Y-36764380D02*
X132886738Y-36764380D01*
X133172452Y-36764380D02*
X133172452Y-35764380D01*
X133077214Y-35907238D01*
X132981976Y-36002476D01*
X132886738Y-36050095D01*
%TO.C,SW35*%
X138231618Y-134702725D02*
X138298962Y-134837412D01*
X138467320Y-135005771D01*
X138568336Y-135039442D01*
X138635679Y-135039442D01*
X138736694Y-135005771D01*
X138804038Y-134938427D01*
X138837710Y-134837412D01*
X138837710Y-134770068D01*
X138804038Y-134669053D01*
X138703023Y-134500694D01*
X138669351Y-134399679D01*
X138669351Y-134332336D01*
X138703023Y-134231320D01*
X138770366Y-134163977D01*
X138871381Y-134130305D01*
X138938725Y-134130305D01*
X139039740Y-134163977D01*
X139208099Y-134332336D01*
X139275442Y-134467023D01*
X139544816Y-134669053D02*
X139006068Y-135544519D01*
X139645832Y-135174129D01*
X139275442Y-135813893D01*
X140150908Y-135275145D01*
X140352938Y-135477175D02*
X140790671Y-135914908D01*
X140285595Y-135948580D01*
X140386610Y-136049595D01*
X140420282Y-136150610D01*
X140420282Y-136217954D01*
X140386610Y-136318969D01*
X140218251Y-136487328D01*
X140117236Y-136520999D01*
X140049893Y-136520999D01*
X139948877Y-136487328D01*
X139746847Y-136285297D01*
X139713175Y-136184282D01*
X139713175Y-136116938D01*
X141430434Y-136554671D02*
X141093717Y-136217954D01*
X140723328Y-136520999D01*
X140790671Y-136520999D01*
X140891686Y-136554671D01*
X141060045Y-136723030D01*
X141093717Y-136824045D01*
X141093717Y-136891389D01*
X141060045Y-136992404D01*
X140891686Y-137160763D01*
X140790671Y-137194434D01*
X140723328Y-137194434D01*
X140622312Y-137160763D01*
X140453954Y-136992404D01*
X140420282Y-136891389D01*
X140420282Y-136824045D01*
%TO.C,SW34*%
X130950226Y-99867511D02*
X131093083Y-99915130D01*
X131331178Y-99915130D01*
X131426416Y-99867511D01*
X131474035Y-99819892D01*
X131521654Y-99724654D01*
X131521654Y-99629416D01*
X131474035Y-99534178D01*
X131426416Y-99486559D01*
X131331178Y-99438940D01*
X131140702Y-99391321D01*
X131045464Y-99343702D01*
X130997845Y-99296083D01*
X130950226Y-99200845D01*
X130950226Y-99105607D01*
X130997845Y-99010369D01*
X131045464Y-98962750D01*
X131140702Y-98915130D01*
X131378797Y-98915130D01*
X131521654Y-98962750D01*
X131854988Y-98915130D02*
X132093083Y-99915130D01*
X132283559Y-99200845D01*
X132474035Y-99915130D01*
X132712130Y-98915130D01*
X132997845Y-98915130D02*
X133616892Y-98915130D01*
X133283559Y-99296083D01*
X133426416Y-99296083D01*
X133521654Y-99343702D01*
X133569273Y-99391321D01*
X133616892Y-99486559D01*
X133616892Y-99724654D01*
X133569273Y-99819892D01*
X133521654Y-99867511D01*
X133426416Y-99915130D01*
X133140702Y-99915130D01*
X133045464Y-99867511D01*
X132997845Y-99819892D01*
X134474035Y-99248464D02*
X134474035Y-99915130D01*
X134235940Y-98867511D02*
X133997845Y-99581797D01*
X134616892Y-99581797D01*
%TO.C,SW33*%
X130950226Y-80817511D02*
X131093083Y-80865130D01*
X131331178Y-80865130D01*
X131426416Y-80817511D01*
X131474035Y-80769892D01*
X131521654Y-80674654D01*
X131521654Y-80579416D01*
X131474035Y-80484178D01*
X131426416Y-80436559D01*
X131331178Y-80388940D01*
X131140702Y-80341321D01*
X131045464Y-80293702D01*
X130997845Y-80246083D01*
X130950226Y-80150845D01*
X130950226Y-80055607D01*
X130997845Y-79960369D01*
X131045464Y-79912750D01*
X131140702Y-79865130D01*
X131378797Y-79865130D01*
X131521654Y-79912750D01*
X131854988Y-79865130D02*
X132093083Y-80865130D01*
X132283559Y-80150845D01*
X132474035Y-80865130D01*
X132712130Y-79865130D01*
X132997845Y-79865130D02*
X133616892Y-79865130D01*
X133283559Y-80246083D01*
X133426416Y-80246083D01*
X133521654Y-80293702D01*
X133569273Y-80341321D01*
X133616892Y-80436559D01*
X133616892Y-80674654D01*
X133569273Y-80769892D01*
X133521654Y-80817511D01*
X133426416Y-80865130D01*
X133140702Y-80865130D01*
X133045464Y-80817511D01*
X132997845Y-80769892D01*
X133950226Y-79865130D02*
X134569273Y-79865130D01*
X134235940Y-80246083D01*
X134378797Y-80246083D01*
X134474035Y-80293702D01*
X134521654Y-80341321D01*
X134569273Y-80436559D01*
X134569273Y-80674654D01*
X134521654Y-80769892D01*
X134474035Y-80817511D01*
X134378797Y-80865130D01*
X134093083Y-80865130D01*
X133997845Y-80817511D01*
X133950226Y-80769892D01*
%TO.C,SW32*%
X130950226Y-61767511D02*
X131093083Y-61815130D01*
X131331178Y-61815130D01*
X131426416Y-61767511D01*
X131474035Y-61719892D01*
X131521654Y-61624654D01*
X131521654Y-61529416D01*
X131474035Y-61434178D01*
X131426416Y-61386559D01*
X131331178Y-61338940D01*
X131140702Y-61291321D01*
X131045464Y-61243702D01*
X130997845Y-61196083D01*
X130950226Y-61100845D01*
X130950226Y-61005607D01*
X130997845Y-60910369D01*
X131045464Y-60862750D01*
X131140702Y-60815130D01*
X131378797Y-60815130D01*
X131521654Y-60862750D01*
X131854988Y-60815130D02*
X132093083Y-61815130D01*
X132283559Y-61100845D01*
X132474035Y-61815130D01*
X132712130Y-60815130D01*
X132997845Y-60815130D02*
X133616892Y-60815130D01*
X133283559Y-61196083D01*
X133426416Y-61196083D01*
X133521654Y-61243702D01*
X133569273Y-61291321D01*
X133616892Y-61386559D01*
X133616892Y-61624654D01*
X133569273Y-61719892D01*
X133521654Y-61767511D01*
X133426416Y-61815130D01*
X133140702Y-61815130D01*
X133045464Y-61767511D01*
X132997845Y-61719892D01*
X133997845Y-60910369D02*
X134045464Y-60862750D01*
X134140702Y-60815130D01*
X134378797Y-60815130D01*
X134474035Y-60862750D01*
X134521654Y-60910369D01*
X134569273Y-61005607D01*
X134569273Y-61100845D01*
X134521654Y-61243702D01*
X133950226Y-61815130D01*
X134569273Y-61815130D01*
%TO.C,SW31*%
X130950226Y-42717511D02*
X131093083Y-42765130D01*
X131331178Y-42765130D01*
X131426416Y-42717511D01*
X131474035Y-42669892D01*
X131521654Y-42574654D01*
X131521654Y-42479416D01*
X131474035Y-42384178D01*
X131426416Y-42336559D01*
X131331178Y-42288940D01*
X131140702Y-42241321D01*
X131045464Y-42193702D01*
X130997845Y-42146083D01*
X130950226Y-42050845D01*
X130950226Y-41955607D01*
X130997845Y-41860369D01*
X131045464Y-41812750D01*
X131140702Y-41765130D01*
X131378797Y-41765130D01*
X131521654Y-41812750D01*
X131854988Y-41765130D02*
X132093083Y-42765130D01*
X132283559Y-42050845D01*
X132474035Y-42765130D01*
X132712130Y-41765130D01*
X132997845Y-41765130D02*
X133616892Y-41765130D01*
X133283559Y-42146083D01*
X133426416Y-42146083D01*
X133521654Y-42193702D01*
X133569273Y-42241321D01*
X133616892Y-42336559D01*
X133616892Y-42574654D01*
X133569273Y-42669892D01*
X133521654Y-42717511D01*
X133426416Y-42765130D01*
X133140702Y-42765130D01*
X133045464Y-42717511D01*
X132997845Y-42669892D01*
X134569273Y-42765130D02*
X133997845Y-42765130D01*
X134283559Y-42765130D02*
X134283559Y-41765130D01*
X134188321Y-41907988D01*
X134093083Y-42003226D01*
X133997845Y-42050845D01*
%TO.C,SW30*%
X119433275Y-120918438D02*
X119533183Y-121031106D01*
X119739380Y-121150153D01*
X119845668Y-121156533D01*
X119910717Y-121139103D01*
X119999575Y-121080434D01*
X120047194Y-120997955D01*
X120053574Y-120891667D01*
X120036144Y-120826618D01*
X119977475Y-120737760D01*
X119836327Y-120601283D01*
X119777658Y-120512424D01*
X119760229Y-120447376D01*
X119766608Y-120341087D01*
X119814227Y-120258609D01*
X119903086Y-120199940D01*
X119968135Y-120182510D01*
X120074423Y-120188890D01*
X120280619Y-120307937D01*
X120380528Y-120420605D01*
X120693012Y-120546033D02*
X120399209Y-121531106D01*
X120921309Y-121007754D01*
X120729123Y-121721582D01*
X121435320Y-120974604D01*
X121682756Y-121117461D02*
X122218867Y-121426985D01*
X121739715Y-121590233D01*
X121863433Y-121661661D01*
X121922102Y-121750520D01*
X121939532Y-121815568D01*
X121933152Y-121921857D01*
X121814105Y-122128053D01*
X121725246Y-122186722D01*
X121660197Y-122204152D01*
X121553909Y-122197772D01*
X121306473Y-122054915D01*
X121247804Y-121966057D01*
X121230375Y-121901008D01*
X122754977Y-121736509D02*
X122837456Y-121784128D01*
X122896125Y-121872986D01*
X122913555Y-121938035D01*
X122907175Y-122044323D01*
X122853176Y-122233090D01*
X122734129Y-122439286D01*
X122597651Y-122580434D01*
X122508793Y-122639103D01*
X122443744Y-122656533D01*
X122337456Y-122650153D01*
X122254977Y-122602534D01*
X122196308Y-122513676D01*
X122178879Y-122448627D01*
X122185258Y-122342339D01*
X122239257Y-122153572D01*
X122358305Y-121947376D01*
X122494782Y-121806228D01*
X122583641Y-121747559D01*
X122648689Y-121730129D01*
X122754977Y-121736509D01*
%TO.C,SW29*%
X111900226Y-98216511D02*
X112043083Y-98264130D01*
X112281178Y-98264130D01*
X112376416Y-98216511D01*
X112424035Y-98168892D01*
X112471654Y-98073654D01*
X112471654Y-97978416D01*
X112424035Y-97883178D01*
X112376416Y-97835559D01*
X112281178Y-97787940D01*
X112090702Y-97740321D01*
X111995464Y-97692702D01*
X111947845Y-97645083D01*
X111900226Y-97549845D01*
X111900226Y-97454607D01*
X111947845Y-97359369D01*
X111995464Y-97311750D01*
X112090702Y-97264130D01*
X112328797Y-97264130D01*
X112471654Y-97311750D01*
X112804988Y-97264130D02*
X113043083Y-98264130D01*
X113233559Y-97549845D01*
X113424035Y-98264130D01*
X113662130Y-97264130D01*
X113995464Y-97359369D02*
X114043083Y-97311750D01*
X114138321Y-97264130D01*
X114376416Y-97264130D01*
X114471654Y-97311750D01*
X114519273Y-97359369D01*
X114566892Y-97454607D01*
X114566892Y-97549845D01*
X114519273Y-97692702D01*
X113947845Y-98264130D01*
X114566892Y-98264130D01*
X115043083Y-98264130D02*
X115233559Y-98264130D01*
X115328797Y-98216511D01*
X115376416Y-98168892D01*
X115471654Y-98026035D01*
X115519273Y-97835559D01*
X115519273Y-97454607D01*
X115471654Y-97359369D01*
X115424035Y-97311750D01*
X115328797Y-97264130D01*
X115138321Y-97264130D01*
X115043083Y-97311750D01*
X114995464Y-97359369D01*
X114947845Y-97454607D01*
X114947845Y-97692702D01*
X114995464Y-97787940D01*
X115043083Y-97835559D01*
X115138321Y-97883178D01*
X115328797Y-97883178D01*
X115424035Y-97835559D01*
X115471654Y-97787940D01*
X115519273Y-97692702D01*
%TO.C,SW28*%
X111900226Y-79166511D02*
X112043083Y-79214130D01*
X112281178Y-79214130D01*
X112376416Y-79166511D01*
X112424035Y-79118892D01*
X112471654Y-79023654D01*
X112471654Y-78928416D01*
X112424035Y-78833178D01*
X112376416Y-78785559D01*
X112281178Y-78737940D01*
X112090702Y-78690321D01*
X111995464Y-78642702D01*
X111947845Y-78595083D01*
X111900226Y-78499845D01*
X111900226Y-78404607D01*
X111947845Y-78309369D01*
X111995464Y-78261750D01*
X112090702Y-78214130D01*
X112328797Y-78214130D01*
X112471654Y-78261750D01*
X112804988Y-78214130D02*
X113043083Y-79214130D01*
X113233559Y-78499845D01*
X113424035Y-79214130D01*
X113662130Y-78214130D01*
X113995464Y-78309369D02*
X114043083Y-78261750D01*
X114138321Y-78214130D01*
X114376416Y-78214130D01*
X114471654Y-78261750D01*
X114519273Y-78309369D01*
X114566892Y-78404607D01*
X114566892Y-78499845D01*
X114519273Y-78642702D01*
X113947845Y-79214130D01*
X114566892Y-79214130D01*
X115138321Y-78642702D02*
X115043083Y-78595083D01*
X114995464Y-78547464D01*
X114947845Y-78452226D01*
X114947845Y-78404607D01*
X114995464Y-78309369D01*
X115043083Y-78261750D01*
X115138321Y-78214130D01*
X115328797Y-78214130D01*
X115424035Y-78261750D01*
X115471654Y-78309369D01*
X115519273Y-78404607D01*
X115519273Y-78452226D01*
X115471654Y-78547464D01*
X115424035Y-78595083D01*
X115328797Y-78642702D01*
X115138321Y-78642702D01*
X115043083Y-78690321D01*
X114995464Y-78737940D01*
X114947845Y-78833178D01*
X114947845Y-79023654D01*
X114995464Y-79118892D01*
X115043083Y-79166511D01*
X115138321Y-79214130D01*
X115328797Y-79214130D01*
X115424035Y-79166511D01*
X115471654Y-79118892D01*
X115519273Y-79023654D01*
X115519273Y-78833178D01*
X115471654Y-78737940D01*
X115424035Y-78690321D01*
X115328797Y-78642702D01*
%TO.C,SW27*%
X111900226Y-60116511D02*
X112043083Y-60164130D01*
X112281178Y-60164130D01*
X112376416Y-60116511D01*
X112424035Y-60068892D01*
X112471654Y-59973654D01*
X112471654Y-59878416D01*
X112424035Y-59783178D01*
X112376416Y-59735559D01*
X112281178Y-59687940D01*
X112090702Y-59640321D01*
X111995464Y-59592702D01*
X111947845Y-59545083D01*
X111900226Y-59449845D01*
X111900226Y-59354607D01*
X111947845Y-59259369D01*
X111995464Y-59211750D01*
X112090702Y-59164130D01*
X112328797Y-59164130D01*
X112471654Y-59211750D01*
X112804988Y-59164130D02*
X113043083Y-60164130D01*
X113233559Y-59449845D01*
X113424035Y-60164130D01*
X113662130Y-59164130D01*
X113995464Y-59259369D02*
X114043083Y-59211750D01*
X114138321Y-59164130D01*
X114376416Y-59164130D01*
X114471654Y-59211750D01*
X114519273Y-59259369D01*
X114566892Y-59354607D01*
X114566892Y-59449845D01*
X114519273Y-59592702D01*
X113947845Y-60164130D01*
X114566892Y-60164130D01*
X114900226Y-59164130D02*
X115566892Y-59164130D01*
X115138321Y-60164130D01*
%TO.C,SW25*%
X92850226Y-115361511D02*
X92993083Y-115409130D01*
X93231178Y-115409130D01*
X93326416Y-115361511D01*
X93374035Y-115313892D01*
X93421654Y-115218654D01*
X93421654Y-115123416D01*
X93374035Y-115028178D01*
X93326416Y-114980559D01*
X93231178Y-114932940D01*
X93040702Y-114885321D01*
X92945464Y-114837702D01*
X92897845Y-114790083D01*
X92850226Y-114694845D01*
X92850226Y-114599607D01*
X92897845Y-114504369D01*
X92945464Y-114456750D01*
X93040702Y-114409130D01*
X93278797Y-114409130D01*
X93421654Y-114456750D01*
X93754988Y-114409130D02*
X93993083Y-115409130D01*
X94183559Y-114694845D01*
X94374035Y-115409130D01*
X94612130Y-114409130D01*
X94945464Y-114504369D02*
X94993083Y-114456750D01*
X95088321Y-114409130D01*
X95326416Y-114409130D01*
X95421654Y-114456750D01*
X95469273Y-114504369D01*
X95516892Y-114599607D01*
X95516892Y-114694845D01*
X95469273Y-114837702D01*
X94897845Y-115409130D01*
X95516892Y-115409130D01*
X96421654Y-114409130D02*
X95945464Y-114409130D01*
X95897845Y-114885321D01*
X95945464Y-114837702D01*
X96040702Y-114790083D01*
X96278797Y-114790083D01*
X96374035Y-114837702D01*
X96421654Y-114885321D01*
X96469273Y-114980559D01*
X96469273Y-115218654D01*
X96421654Y-115313892D01*
X96374035Y-115361511D01*
X96278797Y-115409130D01*
X96040702Y-115409130D01*
X95945464Y-115361511D01*
X95897845Y-115313892D01*
%TO.C,SW24*%
X92850226Y-96311511D02*
X92993083Y-96359130D01*
X93231178Y-96359130D01*
X93326416Y-96311511D01*
X93374035Y-96263892D01*
X93421654Y-96168654D01*
X93421654Y-96073416D01*
X93374035Y-95978178D01*
X93326416Y-95930559D01*
X93231178Y-95882940D01*
X93040702Y-95835321D01*
X92945464Y-95787702D01*
X92897845Y-95740083D01*
X92850226Y-95644845D01*
X92850226Y-95549607D01*
X92897845Y-95454369D01*
X92945464Y-95406750D01*
X93040702Y-95359130D01*
X93278797Y-95359130D01*
X93421654Y-95406750D01*
X93754988Y-95359130D02*
X93993083Y-96359130D01*
X94183559Y-95644845D01*
X94374035Y-96359130D01*
X94612130Y-95359130D01*
X94945464Y-95454369D02*
X94993083Y-95406750D01*
X95088321Y-95359130D01*
X95326416Y-95359130D01*
X95421654Y-95406750D01*
X95469273Y-95454369D01*
X95516892Y-95549607D01*
X95516892Y-95644845D01*
X95469273Y-95787702D01*
X94897845Y-96359130D01*
X95516892Y-96359130D01*
X96374035Y-95692464D02*
X96374035Y-96359130D01*
X96135940Y-95311511D02*
X95897845Y-96025797D01*
X96516892Y-96025797D01*
%TO.C,SW23*%
X92850226Y-77261511D02*
X92993083Y-77309130D01*
X93231178Y-77309130D01*
X93326416Y-77261511D01*
X93374035Y-77213892D01*
X93421654Y-77118654D01*
X93421654Y-77023416D01*
X93374035Y-76928178D01*
X93326416Y-76880559D01*
X93231178Y-76832940D01*
X93040702Y-76785321D01*
X92945464Y-76737702D01*
X92897845Y-76690083D01*
X92850226Y-76594845D01*
X92850226Y-76499607D01*
X92897845Y-76404369D01*
X92945464Y-76356750D01*
X93040702Y-76309130D01*
X93278797Y-76309130D01*
X93421654Y-76356750D01*
X93754988Y-76309130D02*
X93993083Y-77309130D01*
X94183559Y-76594845D01*
X94374035Y-77309130D01*
X94612130Y-76309130D01*
X94945464Y-76404369D02*
X94993083Y-76356750D01*
X95088321Y-76309130D01*
X95326416Y-76309130D01*
X95421654Y-76356750D01*
X95469273Y-76404369D01*
X95516892Y-76499607D01*
X95516892Y-76594845D01*
X95469273Y-76737702D01*
X94897845Y-77309130D01*
X95516892Y-77309130D01*
X95850226Y-76309130D02*
X96469273Y-76309130D01*
X96135940Y-76690083D01*
X96278797Y-76690083D01*
X96374035Y-76737702D01*
X96421654Y-76785321D01*
X96469273Y-76880559D01*
X96469273Y-77118654D01*
X96421654Y-77213892D01*
X96374035Y-77261511D01*
X96278797Y-77309130D01*
X95993083Y-77309130D01*
X95897845Y-77261511D01*
X95850226Y-77213892D01*
%TO.C,SW22*%
X92850226Y-58211511D02*
X92993083Y-58259130D01*
X93231178Y-58259130D01*
X93326416Y-58211511D01*
X93374035Y-58163892D01*
X93421654Y-58068654D01*
X93421654Y-57973416D01*
X93374035Y-57878178D01*
X93326416Y-57830559D01*
X93231178Y-57782940D01*
X93040702Y-57735321D01*
X92945464Y-57687702D01*
X92897845Y-57640083D01*
X92850226Y-57544845D01*
X92850226Y-57449607D01*
X92897845Y-57354369D01*
X92945464Y-57306750D01*
X93040702Y-57259130D01*
X93278797Y-57259130D01*
X93421654Y-57306750D01*
X93754988Y-57259130D02*
X93993083Y-58259130D01*
X94183559Y-57544845D01*
X94374035Y-58259130D01*
X94612130Y-57259130D01*
X94945464Y-57354369D02*
X94993083Y-57306750D01*
X95088321Y-57259130D01*
X95326416Y-57259130D01*
X95421654Y-57306750D01*
X95469273Y-57354369D01*
X95516892Y-57449607D01*
X95516892Y-57544845D01*
X95469273Y-57687702D01*
X94897845Y-58259130D01*
X95516892Y-58259130D01*
X95897845Y-57354369D02*
X95945464Y-57306750D01*
X96040702Y-57259130D01*
X96278797Y-57259130D01*
X96374035Y-57306750D01*
X96421654Y-57354369D01*
X96469273Y-57449607D01*
X96469273Y-57544845D01*
X96421654Y-57687702D01*
X95850226Y-58259130D01*
X96469273Y-58259130D01*
%TO.C,SW20*%
X73800226Y-112440511D02*
X73943083Y-112488130D01*
X74181178Y-112488130D01*
X74276416Y-112440511D01*
X74324035Y-112392892D01*
X74371654Y-112297654D01*
X74371654Y-112202416D01*
X74324035Y-112107178D01*
X74276416Y-112059559D01*
X74181178Y-112011940D01*
X73990702Y-111964321D01*
X73895464Y-111916702D01*
X73847845Y-111869083D01*
X73800226Y-111773845D01*
X73800226Y-111678607D01*
X73847845Y-111583369D01*
X73895464Y-111535750D01*
X73990702Y-111488130D01*
X74228797Y-111488130D01*
X74371654Y-111535750D01*
X74704988Y-111488130D02*
X74943083Y-112488130D01*
X75133559Y-111773845D01*
X75324035Y-112488130D01*
X75562130Y-111488130D01*
X75895464Y-111583369D02*
X75943083Y-111535750D01*
X76038321Y-111488130D01*
X76276416Y-111488130D01*
X76371654Y-111535750D01*
X76419273Y-111583369D01*
X76466892Y-111678607D01*
X76466892Y-111773845D01*
X76419273Y-111916702D01*
X75847845Y-112488130D01*
X76466892Y-112488130D01*
X77085940Y-111488130D02*
X77181178Y-111488130D01*
X77276416Y-111535750D01*
X77324035Y-111583369D01*
X77371654Y-111678607D01*
X77419273Y-111869083D01*
X77419273Y-112107178D01*
X77371654Y-112297654D01*
X77324035Y-112392892D01*
X77276416Y-112440511D01*
X77181178Y-112488130D01*
X77085940Y-112488130D01*
X76990702Y-112440511D01*
X76943083Y-112392892D01*
X76895464Y-112297654D01*
X76847845Y-112107178D01*
X76847845Y-111869083D01*
X76895464Y-111678607D01*
X76943083Y-111583369D01*
X76990702Y-111535750D01*
X77085940Y-111488130D01*
%TO.C,SW19*%
X73800226Y-93390511D02*
X73943083Y-93438130D01*
X74181178Y-93438130D01*
X74276416Y-93390511D01*
X74324035Y-93342892D01*
X74371654Y-93247654D01*
X74371654Y-93152416D01*
X74324035Y-93057178D01*
X74276416Y-93009559D01*
X74181178Y-92961940D01*
X73990702Y-92914321D01*
X73895464Y-92866702D01*
X73847845Y-92819083D01*
X73800226Y-92723845D01*
X73800226Y-92628607D01*
X73847845Y-92533369D01*
X73895464Y-92485750D01*
X73990702Y-92438130D01*
X74228797Y-92438130D01*
X74371654Y-92485750D01*
X74704988Y-92438130D02*
X74943083Y-93438130D01*
X75133559Y-92723845D01*
X75324035Y-93438130D01*
X75562130Y-92438130D01*
X76466892Y-93438130D02*
X75895464Y-93438130D01*
X76181178Y-93438130D02*
X76181178Y-92438130D01*
X76085940Y-92580988D01*
X75990702Y-92676226D01*
X75895464Y-92723845D01*
X76943083Y-93438130D02*
X77133559Y-93438130D01*
X77228797Y-93390511D01*
X77276416Y-93342892D01*
X77371654Y-93200035D01*
X77419273Y-93009559D01*
X77419273Y-92628607D01*
X77371654Y-92533369D01*
X77324035Y-92485750D01*
X77228797Y-92438130D01*
X77038321Y-92438130D01*
X76943083Y-92485750D01*
X76895464Y-92533369D01*
X76847845Y-92628607D01*
X76847845Y-92866702D01*
X76895464Y-92961940D01*
X76943083Y-93009559D01*
X77038321Y-93057178D01*
X77228797Y-93057178D01*
X77324035Y-93009559D01*
X77371654Y-92961940D01*
X77419273Y-92866702D01*
%TO.C,SW18*%
X73800226Y-74340511D02*
X73943083Y-74388130D01*
X74181178Y-74388130D01*
X74276416Y-74340511D01*
X74324035Y-74292892D01*
X74371654Y-74197654D01*
X74371654Y-74102416D01*
X74324035Y-74007178D01*
X74276416Y-73959559D01*
X74181178Y-73911940D01*
X73990702Y-73864321D01*
X73895464Y-73816702D01*
X73847845Y-73769083D01*
X73800226Y-73673845D01*
X73800226Y-73578607D01*
X73847845Y-73483369D01*
X73895464Y-73435750D01*
X73990702Y-73388130D01*
X74228797Y-73388130D01*
X74371654Y-73435750D01*
X74704988Y-73388130D02*
X74943083Y-74388130D01*
X75133559Y-73673845D01*
X75324035Y-74388130D01*
X75562130Y-73388130D01*
X76466892Y-74388130D02*
X75895464Y-74388130D01*
X76181178Y-74388130D02*
X76181178Y-73388130D01*
X76085940Y-73530988D01*
X75990702Y-73626226D01*
X75895464Y-73673845D01*
X77038321Y-73816702D02*
X76943083Y-73769083D01*
X76895464Y-73721464D01*
X76847845Y-73626226D01*
X76847845Y-73578607D01*
X76895464Y-73483369D01*
X76943083Y-73435750D01*
X77038321Y-73388130D01*
X77228797Y-73388130D01*
X77324035Y-73435750D01*
X77371654Y-73483369D01*
X77419273Y-73578607D01*
X77419273Y-73626226D01*
X77371654Y-73721464D01*
X77324035Y-73769083D01*
X77228797Y-73816702D01*
X77038321Y-73816702D01*
X76943083Y-73864321D01*
X76895464Y-73911940D01*
X76847845Y-74007178D01*
X76847845Y-74197654D01*
X76895464Y-74292892D01*
X76943083Y-74340511D01*
X77038321Y-74388130D01*
X77228797Y-74388130D01*
X77324035Y-74340511D01*
X77371654Y-74292892D01*
X77419273Y-74197654D01*
X77419273Y-74007178D01*
X77371654Y-73911940D01*
X77324035Y-73864321D01*
X77228797Y-73816702D01*
%TO.C,SW17*%
X73800226Y-55290511D02*
X73943083Y-55338130D01*
X74181178Y-55338130D01*
X74276416Y-55290511D01*
X74324035Y-55242892D01*
X74371654Y-55147654D01*
X74371654Y-55052416D01*
X74324035Y-54957178D01*
X74276416Y-54909559D01*
X74181178Y-54861940D01*
X73990702Y-54814321D01*
X73895464Y-54766702D01*
X73847845Y-54719083D01*
X73800226Y-54623845D01*
X73800226Y-54528607D01*
X73847845Y-54433369D01*
X73895464Y-54385750D01*
X73990702Y-54338130D01*
X74228797Y-54338130D01*
X74371654Y-54385750D01*
X74704988Y-54338130D02*
X74943083Y-55338130D01*
X75133559Y-54623845D01*
X75324035Y-55338130D01*
X75562130Y-54338130D01*
X76466892Y-55338130D02*
X75895464Y-55338130D01*
X76181178Y-55338130D02*
X76181178Y-54338130D01*
X76085940Y-54480988D01*
X75990702Y-54576226D01*
X75895464Y-54623845D01*
X76800226Y-54338130D02*
X77466892Y-54338130D01*
X77038321Y-55338130D01*
%TO.C,SW15*%
X54750226Y-115361511D02*
X54893083Y-115409130D01*
X55131178Y-115409130D01*
X55226416Y-115361511D01*
X55274035Y-115313892D01*
X55321654Y-115218654D01*
X55321654Y-115123416D01*
X55274035Y-115028178D01*
X55226416Y-114980559D01*
X55131178Y-114932940D01*
X54940702Y-114885321D01*
X54845464Y-114837702D01*
X54797845Y-114790083D01*
X54750226Y-114694845D01*
X54750226Y-114599607D01*
X54797845Y-114504369D01*
X54845464Y-114456750D01*
X54940702Y-114409130D01*
X55178797Y-114409130D01*
X55321654Y-114456750D01*
X55654988Y-114409130D02*
X55893083Y-115409130D01*
X56083559Y-114694845D01*
X56274035Y-115409130D01*
X56512130Y-114409130D01*
X57416892Y-115409130D02*
X56845464Y-115409130D01*
X57131178Y-115409130D02*
X57131178Y-114409130D01*
X57035940Y-114551988D01*
X56940702Y-114647226D01*
X56845464Y-114694845D01*
X58321654Y-114409130D02*
X57845464Y-114409130D01*
X57797845Y-114885321D01*
X57845464Y-114837702D01*
X57940702Y-114790083D01*
X58178797Y-114790083D01*
X58274035Y-114837702D01*
X58321654Y-114885321D01*
X58369273Y-114980559D01*
X58369273Y-115218654D01*
X58321654Y-115313892D01*
X58274035Y-115361511D01*
X58178797Y-115409130D01*
X57940702Y-115409130D01*
X57845464Y-115361511D01*
X57797845Y-115313892D01*
%TO.C,SW14*%
X54750226Y-96311511D02*
X54893083Y-96359130D01*
X55131178Y-96359130D01*
X55226416Y-96311511D01*
X55274035Y-96263892D01*
X55321654Y-96168654D01*
X55321654Y-96073416D01*
X55274035Y-95978178D01*
X55226416Y-95930559D01*
X55131178Y-95882940D01*
X54940702Y-95835321D01*
X54845464Y-95787702D01*
X54797845Y-95740083D01*
X54750226Y-95644845D01*
X54750226Y-95549607D01*
X54797845Y-95454369D01*
X54845464Y-95406750D01*
X54940702Y-95359130D01*
X55178797Y-95359130D01*
X55321654Y-95406750D01*
X55654988Y-95359130D02*
X55893083Y-96359130D01*
X56083559Y-95644845D01*
X56274035Y-96359130D01*
X56512130Y-95359130D01*
X57416892Y-96359130D02*
X56845464Y-96359130D01*
X57131178Y-96359130D02*
X57131178Y-95359130D01*
X57035940Y-95501988D01*
X56940702Y-95597226D01*
X56845464Y-95644845D01*
X58274035Y-95692464D02*
X58274035Y-96359130D01*
X58035940Y-95311511D02*
X57797845Y-96025797D01*
X58416892Y-96025797D01*
%TO.C,SW13*%
X54750226Y-77261511D02*
X54893083Y-77309130D01*
X55131178Y-77309130D01*
X55226416Y-77261511D01*
X55274035Y-77213892D01*
X55321654Y-77118654D01*
X55321654Y-77023416D01*
X55274035Y-76928178D01*
X55226416Y-76880559D01*
X55131178Y-76832940D01*
X54940702Y-76785321D01*
X54845464Y-76737702D01*
X54797845Y-76690083D01*
X54750226Y-76594845D01*
X54750226Y-76499607D01*
X54797845Y-76404369D01*
X54845464Y-76356750D01*
X54940702Y-76309130D01*
X55178797Y-76309130D01*
X55321654Y-76356750D01*
X55654988Y-76309130D02*
X55893083Y-77309130D01*
X56083559Y-76594845D01*
X56274035Y-77309130D01*
X56512130Y-76309130D01*
X57416892Y-77309130D02*
X56845464Y-77309130D01*
X57131178Y-77309130D02*
X57131178Y-76309130D01*
X57035940Y-76451988D01*
X56940702Y-76547226D01*
X56845464Y-76594845D01*
X57750226Y-76309130D02*
X58369273Y-76309130D01*
X58035940Y-76690083D01*
X58178797Y-76690083D01*
X58274035Y-76737702D01*
X58321654Y-76785321D01*
X58369273Y-76880559D01*
X58369273Y-77118654D01*
X58321654Y-77213892D01*
X58274035Y-77261511D01*
X58178797Y-77309130D01*
X57893083Y-77309130D01*
X57797845Y-77261511D01*
X57750226Y-77213892D01*
%TO.C,SW12*%
X54750226Y-58211511D02*
X54893083Y-58259130D01*
X55131178Y-58259130D01*
X55226416Y-58211511D01*
X55274035Y-58163892D01*
X55321654Y-58068654D01*
X55321654Y-57973416D01*
X55274035Y-57878178D01*
X55226416Y-57830559D01*
X55131178Y-57782940D01*
X54940702Y-57735321D01*
X54845464Y-57687702D01*
X54797845Y-57640083D01*
X54750226Y-57544845D01*
X54750226Y-57449607D01*
X54797845Y-57354369D01*
X54845464Y-57306750D01*
X54940702Y-57259130D01*
X55178797Y-57259130D01*
X55321654Y-57306750D01*
X55654988Y-57259130D02*
X55893083Y-58259130D01*
X56083559Y-57544845D01*
X56274035Y-58259130D01*
X56512130Y-57259130D01*
X57416892Y-58259130D02*
X56845464Y-58259130D01*
X57131178Y-58259130D02*
X57131178Y-57259130D01*
X57035940Y-57401988D01*
X56940702Y-57497226D01*
X56845464Y-57544845D01*
X57797845Y-57354369D02*
X57845464Y-57306750D01*
X57940702Y-57259130D01*
X58178797Y-57259130D01*
X58274035Y-57306750D01*
X58321654Y-57354369D01*
X58369273Y-57449607D01*
X58369273Y-57544845D01*
X58321654Y-57687702D01*
X57750226Y-58259130D01*
X58369273Y-58259130D01*
%TO.C,SW11*%
X54750226Y-39161511D02*
X54893083Y-39209130D01*
X55131178Y-39209130D01*
X55226416Y-39161511D01*
X55274035Y-39113892D01*
X55321654Y-39018654D01*
X55321654Y-38923416D01*
X55274035Y-38828178D01*
X55226416Y-38780559D01*
X55131178Y-38732940D01*
X54940702Y-38685321D01*
X54845464Y-38637702D01*
X54797845Y-38590083D01*
X54750226Y-38494845D01*
X54750226Y-38399607D01*
X54797845Y-38304369D01*
X54845464Y-38256750D01*
X54940702Y-38209130D01*
X55178797Y-38209130D01*
X55321654Y-38256750D01*
X55654988Y-38209130D02*
X55893083Y-39209130D01*
X56083559Y-38494845D01*
X56274035Y-39209130D01*
X56512130Y-38209130D01*
X57416892Y-39209130D02*
X56845464Y-39209130D01*
X57131178Y-39209130D02*
X57131178Y-38209130D01*
X57035940Y-38351988D01*
X56940702Y-38447226D01*
X56845464Y-38494845D01*
X58369273Y-39209130D02*
X57797845Y-39209130D01*
X58083559Y-39209130D02*
X58083559Y-38209130D01*
X57988321Y-38351988D01*
X57893083Y-38447226D01*
X57797845Y-38494845D01*
%TO.C,SW10*%
X35700226Y-118917511D02*
X35843083Y-118965130D01*
X36081178Y-118965130D01*
X36176416Y-118917511D01*
X36224035Y-118869892D01*
X36271654Y-118774654D01*
X36271654Y-118679416D01*
X36224035Y-118584178D01*
X36176416Y-118536559D01*
X36081178Y-118488940D01*
X35890702Y-118441321D01*
X35795464Y-118393702D01*
X35747845Y-118346083D01*
X35700226Y-118250845D01*
X35700226Y-118155607D01*
X35747845Y-118060369D01*
X35795464Y-118012750D01*
X35890702Y-117965130D01*
X36128797Y-117965130D01*
X36271654Y-118012750D01*
X36604988Y-117965130D02*
X36843083Y-118965130D01*
X37033559Y-118250845D01*
X37224035Y-118965130D01*
X37462130Y-117965130D01*
X38366892Y-118965130D02*
X37795464Y-118965130D01*
X38081178Y-118965130D02*
X38081178Y-117965130D01*
X37985940Y-118107988D01*
X37890702Y-118203226D01*
X37795464Y-118250845D01*
X38985940Y-117965130D02*
X39081178Y-117965130D01*
X39176416Y-118012750D01*
X39224035Y-118060369D01*
X39271654Y-118155607D01*
X39319273Y-118346083D01*
X39319273Y-118584178D01*
X39271654Y-118774654D01*
X39224035Y-118869892D01*
X39176416Y-118917511D01*
X39081178Y-118965130D01*
X38985940Y-118965130D01*
X38890702Y-118917511D01*
X38843083Y-118869892D01*
X38795464Y-118774654D01*
X38747845Y-118584178D01*
X38747845Y-118346083D01*
X38795464Y-118155607D01*
X38843083Y-118060369D01*
X38890702Y-118012750D01*
X38985940Y-117965130D01*
%TO.C,SW9*%
X36176416Y-99867511D02*
X36319273Y-99915130D01*
X36557369Y-99915130D01*
X36652607Y-99867511D01*
X36700226Y-99819892D01*
X36747845Y-99724654D01*
X36747845Y-99629416D01*
X36700226Y-99534178D01*
X36652607Y-99486559D01*
X36557369Y-99438940D01*
X36366892Y-99391321D01*
X36271654Y-99343702D01*
X36224035Y-99296083D01*
X36176416Y-99200845D01*
X36176416Y-99105607D01*
X36224035Y-99010369D01*
X36271654Y-98962750D01*
X36366892Y-98915130D01*
X36604988Y-98915130D01*
X36747845Y-98962750D01*
X37081178Y-98915130D02*
X37319273Y-99915130D01*
X37509750Y-99200845D01*
X37700226Y-99915130D01*
X37938321Y-98915130D01*
X38366892Y-99915130D02*
X38557369Y-99915130D01*
X38652607Y-99867511D01*
X38700226Y-99819892D01*
X38795464Y-99677035D01*
X38843083Y-99486559D01*
X38843083Y-99105607D01*
X38795464Y-99010369D01*
X38747845Y-98962750D01*
X38652607Y-98915130D01*
X38462130Y-98915130D01*
X38366892Y-98962750D01*
X38319273Y-99010369D01*
X38271654Y-99105607D01*
X38271654Y-99343702D01*
X38319273Y-99438940D01*
X38366892Y-99486559D01*
X38462130Y-99534178D01*
X38652607Y-99534178D01*
X38747845Y-99486559D01*
X38795464Y-99438940D01*
X38843083Y-99343702D01*
%TO.C,SW8*%
X36176416Y-80817511D02*
X36319273Y-80865130D01*
X36557369Y-80865130D01*
X36652607Y-80817511D01*
X36700226Y-80769892D01*
X36747845Y-80674654D01*
X36747845Y-80579416D01*
X36700226Y-80484178D01*
X36652607Y-80436559D01*
X36557369Y-80388940D01*
X36366892Y-80341321D01*
X36271654Y-80293702D01*
X36224035Y-80246083D01*
X36176416Y-80150845D01*
X36176416Y-80055607D01*
X36224035Y-79960369D01*
X36271654Y-79912750D01*
X36366892Y-79865130D01*
X36604988Y-79865130D01*
X36747845Y-79912750D01*
X37081178Y-79865130D02*
X37319273Y-80865130D01*
X37509750Y-80150845D01*
X37700226Y-80865130D01*
X37938321Y-79865130D01*
X38462130Y-80293702D02*
X38366892Y-80246083D01*
X38319273Y-80198464D01*
X38271654Y-80103226D01*
X38271654Y-80055607D01*
X38319273Y-79960369D01*
X38366892Y-79912750D01*
X38462130Y-79865130D01*
X38652607Y-79865130D01*
X38747845Y-79912750D01*
X38795464Y-79960369D01*
X38843083Y-80055607D01*
X38843083Y-80103226D01*
X38795464Y-80198464D01*
X38747845Y-80246083D01*
X38652607Y-80293702D01*
X38462130Y-80293702D01*
X38366892Y-80341321D01*
X38319273Y-80388940D01*
X38271654Y-80484178D01*
X38271654Y-80674654D01*
X38319273Y-80769892D01*
X38366892Y-80817511D01*
X38462130Y-80865130D01*
X38652607Y-80865130D01*
X38747845Y-80817511D01*
X38795464Y-80769892D01*
X38843083Y-80674654D01*
X38843083Y-80484178D01*
X38795464Y-80388940D01*
X38747845Y-80341321D01*
X38652607Y-80293702D01*
%TO.C,SW7*%
X36176416Y-61767511D02*
X36319273Y-61815130D01*
X36557369Y-61815130D01*
X36652607Y-61767511D01*
X36700226Y-61719892D01*
X36747845Y-61624654D01*
X36747845Y-61529416D01*
X36700226Y-61434178D01*
X36652607Y-61386559D01*
X36557369Y-61338940D01*
X36366892Y-61291321D01*
X36271654Y-61243702D01*
X36224035Y-61196083D01*
X36176416Y-61100845D01*
X36176416Y-61005607D01*
X36224035Y-60910369D01*
X36271654Y-60862750D01*
X36366892Y-60815130D01*
X36604988Y-60815130D01*
X36747845Y-60862750D01*
X37081178Y-60815130D02*
X37319273Y-61815130D01*
X37509750Y-61100845D01*
X37700226Y-61815130D01*
X37938321Y-60815130D01*
X38224035Y-60815130D02*
X38890702Y-60815130D01*
X38462130Y-61815130D01*
%TO.C,SW6*%
X36176416Y-42717511D02*
X36319273Y-42765130D01*
X36557369Y-42765130D01*
X36652607Y-42717511D01*
X36700226Y-42669892D01*
X36747845Y-42574654D01*
X36747845Y-42479416D01*
X36700226Y-42384178D01*
X36652607Y-42336559D01*
X36557369Y-42288940D01*
X36366892Y-42241321D01*
X36271654Y-42193702D01*
X36224035Y-42146083D01*
X36176416Y-42050845D01*
X36176416Y-41955607D01*
X36224035Y-41860369D01*
X36271654Y-41812750D01*
X36366892Y-41765130D01*
X36604988Y-41765130D01*
X36747845Y-41812750D01*
X37081178Y-41765130D02*
X37319273Y-42765130D01*
X37509750Y-42050845D01*
X37700226Y-42765130D01*
X37938321Y-41765130D01*
X38747845Y-41765130D02*
X38557369Y-41765130D01*
X38462130Y-41812750D01*
X38414511Y-41860369D01*
X38319273Y-42003226D01*
X38271654Y-42193702D01*
X38271654Y-42574654D01*
X38319273Y-42669892D01*
X38366892Y-42717511D01*
X38462130Y-42765130D01*
X38652607Y-42765130D01*
X38747845Y-42717511D01*
X38795464Y-42669892D01*
X38843083Y-42574654D01*
X38843083Y-42336559D01*
X38795464Y-42241321D01*
X38747845Y-42193702D01*
X38652607Y-42146083D01*
X38462130Y-42146083D01*
X38366892Y-42193702D01*
X38319273Y-42241321D01*
X38271654Y-42336559D01*
%TO.C,SW5*%
X12300416Y-118917511D02*
X12443273Y-118965130D01*
X12681369Y-118965130D01*
X12776607Y-118917511D01*
X12824226Y-118869892D01*
X12871845Y-118774654D01*
X12871845Y-118679416D01*
X12824226Y-118584178D01*
X12776607Y-118536559D01*
X12681369Y-118488940D01*
X12490892Y-118441321D01*
X12395654Y-118393702D01*
X12348035Y-118346083D01*
X12300416Y-118250845D01*
X12300416Y-118155607D01*
X12348035Y-118060369D01*
X12395654Y-118012750D01*
X12490892Y-117965130D01*
X12728988Y-117965130D01*
X12871845Y-118012750D01*
X13205178Y-117965130D02*
X13443273Y-118965130D01*
X13633750Y-118250845D01*
X13824226Y-118965130D01*
X14062321Y-117965130D01*
X14919464Y-117965130D02*
X14443273Y-117965130D01*
X14395654Y-118441321D01*
X14443273Y-118393702D01*
X14538511Y-118346083D01*
X14776607Y-118346083D01*
X14871845Y-118393702D01*
X14919464Y-118441321D01*
X14967083Y-118536559D01*
X14967083Y-118774654D01*
X14919464Y-118869892D01*
X14871845Y-118917511D01*
X14776607Y-118965130D01*
X14538511Y-118965130D01*
X14443273Y-118917511D01*
X14395654Y-118869892D01*
%TO.C,SW4*%
X12300416Y-99867511D02*
X12443273Y-99915130D01*
X12681369Y-99915130D01*
X12776607Y-99867511D01*
X12824226Y-99819892D01*
X12871845Y-99724654D01*
X12871845Y-99629416D01*
X12824226Y-99534178D01*
X12776607Y-99486559D01*
X12681369Y-99438940D01*
X12490892Y-99391321D01*
X12395654Y-99343702D01*
X12348035Y-99296083D01*
X12300416Y-99200845D01*
X12300416Y-99105607D01*
X12348035Y-99010369D01*
X12395654Y-98962750D01*
X12490892Y-98915130D01*
X12728988Y-98915130D01*
X12871845Y-98962750D01*
X13205178Y-98915130D02*
X13443273Y-99915130D01*
X13633750Y-99200845D01*
X13824226Y-99915130D01*
X14062321Y-98915130D01*
X14871845Y-99248464D02*
X14871845Y-99915130D01*
X14633750Y-98867511D02*
X14395654Y-99581797D01*
X15014702Y-99581797D01*
%TO.C,SW3*%
X12300416Y-80817511D02*
X12443273Y-80865130D01*
X12681369Y-80865130D01*
X12776607Y-80817511D01*
X12824226Y-80769892D01*
X12871845Y-80674654D01*
X12871845Y-80579416D01*
X12824226Y-80484178D01*
X12776607Y-80436559D01*
X12681369Y-80388940D01*
X12490892Y-80341321D01*
X12395654Y-80293702D01*
X12348035Y-80246083D01*
X12300416Y-80150845D01*
X12300416Y-80055607D01*
X12348035Y-79960369D01*
X12395654Y-79912750D01*
X12490892Y-79865130D01*
X12728988Y-79865130D01*
X12871845Y-79912750D01*
X13205178Y-79865130D02*
X13443273Y-80865130D01*
X13633750Y-80150845D01*
X13824226Y-80865130D01*
X14062321Y-79865130D01*
X14348035Y-79865130D02*
X14967083Y-79865130D01*
X14633750Y-80246083D01*
X14776607Y-80246083D01*
X14871845Y-80293702D01*
X14919464Y-80341321D01*
X14967083Y-80436559D01*
X14967083Y-80674654D01*
X14919464Y-80769892D01*
X14871845Y-80817511D01*
X14776607Y-80865130D01*
X14490892Y-80865130D01*
X14395654Y-80817511D01*
X14348035Y-80769892D01*
%TO.C,SW2*%
X12300416Y-61767511D02*
X12443273Y-61815130D01*
X12681369Y-61815130D01*
X12776607Y-61767511D01*
X12824226Y-61719892D01*
X12871845Y-61624654D01*
X12871845Y-61529416D01*
X12824226Y-61434178D01*
X12776607Y-61386559D01*
X12681369Y-61338940D01*
X12490892Y-61291321D01*
X12395654Y-61243702D01*
X12348035Y-61196083D01*
X12300416Y-61100845D01*
X12300416Y-61005607D01*
X12348035Y-60910369D01*
X12395654Y-60862750D01*
X12490892Y-60815130D01*
X12728988Y-60815130D01*
X12871845Y-60862750D01*
X13205178Y-60815130D02*
X13443273Y-61815130D01*
X13633750Y-61100845D01*
X13824226Y-61815130D01*
X14062321Y-60815130D01*
X14395654Y-60910369D02*
X14443273Y-60862750D01*
X14538511Y-60815130D01*
X14776607Y-60815130D01*
X14871845Y-60862750D01*
X14919464Y-60910369D01*
X14967083Y-61005607D01*
X14967083Y-61100845D01*
X14919464Y-61243702D01*
X14348035Y-61815130D01*
X14967083Y-61815130D01*
%TO.C,SW1*%
X12300416Y-42717511D02*
X12443273Y-42765130D01*
X12681369Y-42765130D01*
X12776607Y-42717511D01*
X12824226Y-42669892D01*
X12871845Y-42574654D01*
X12871845Y-42479416D01*
X12824226Y-42384178D01*
X12776607Y-42336559D01*
X12681369Y-42288940D01*
X12490892Y-42241321D01*
X12395654Y-42193702D01*
X12348035Y-42146083D01*
X12300416Y-42050845D01*
X12300416Y-41955607D01*
X12348035Y-41860369D01*
X12395654Y-41812750D01*
X12490892Y-41765130D01*
X12728988Y-41765130D01*
X12871845Y-41812750D01*
X13205178Y-41765130D02*
X13443273Y-42765130D01*
X13633750Y-42050845D01*
X13824226Y-42765130D01*
X14062321Y-41765130D01*
X14967083Y-42765130D02*
X14395654Y-42765130D01*
X14681369Y-42765130D02*
X14681369Y-41765130D01*
X14586130Y-41907988D01*
X14490892Y-42003226D01*
X14395654Y-42050845D01*
%TO.C,J3*%
X162164877Y-117262182D02*
X162040843Y-117965616D01*
X161969140Y-118098034D01*
X161858811Y-118175288D01*
X161709855Y-118197376D01*
X161616064Y-118180838D01*
X162540042Y-117328334D02*
X163149685Y-117435830D01*
X162755264Y-117753113D01*
X162895951Y-117777919D01*
X162981473Y-117841353D01*
X163020100Y-117896518D01*
X163050458Y-117998578D01*
X163009113Y-118233056D01*
X162945679Y-118318578D01*
X162890515Y-118357205D01*
X162788454Y-118387562D01*
X162507081Y-118337949D01*
X162421559Y-118274515D01*
X162382932Y-118219351D01*
%TO.C,J2*%
X138483554Y-126368218D02*
X138607589Y-127071652D01*
X138585500Y-127220608D01*
X138508247Y-127330937D01*
X138375829Y-127402639D01*
X138282038Y-127419177D01*
X138922153Y-126387588D02*
X138960779Y-126332424D01*
X139046301Y-126268990D01*
X139280780Y-126227645D01*
X139382840Y-126258003D01*
X139438004Y-126296630D01*
X139501438Y-126382152D01*
X139517976Y-126475943D01*
X139495887Y-126624899D01*
X139032367Y-127286874D01*
X139642010Y-127179377D01*
%TO.C,D70*%
X294581714Y-126119130D02*
X294581714Y-125119130D01*
X294819809Y-125119130D01*
X294962666Y-125166750D01*
X295057904Y-125261988D01*
X295105523Y-125357226D01*
X295153142Y-125547702D01*
X295153142Y-125690559D01*
X295105523Y-125881035D01*
X295057904Y-125976273D01*
X294962666Y-126071511D01*
X294819809Y-126119130D01*
X294581714Y-126119130D01*
X295486476Y-125119130D02*
X296153142Y-125119130D01*
X295724571Y-126119130D01*
X296724571Y-125119130D02*
X296819809Y-125119130D01*
X296915047Y-125166750D01*
X296962666Y-125214369D01*
X297010285Y-125309607D01*
X297057904Y-125500083D01*
X297057904Y-125738178D01*
X297010285Y-125928654D01*
X296962666Y-126023892D01*
X296915047Y-126071511D01*
X296819809Y-126119130D01*
X296724571Y-126119130D01*
X296629333Y-126071511D01*
X296581714Y-126023892D01*
X296534095Y-125928654D01*
X296486476Y-125738178D01*
X296486476Y-125500083D01*
X296534095Y-125309607D01*
X296581714Y-125214369D01*
X296629333Y-125166750D01*
X296724571Y-125119130D01*
%TO.C,D69*%
X294581714Y-107069130D02*
X294581714Y-106069130D01*
X294819809Y-106069130D01*
X294962666Y-106116750D01*
X295057904Y-106211988D01*
X295105523Y-106307226D01*
X295153142Y-106497702D01*
X295153142Y-106640559D01*
X295105523Y-106831035D01*
X295057904Y-106926273D01*
X294962666Y-107021511D01*
X294819809Y-107069130D01*
X294581714Y-107069130D01*
X296010285Y-106069130D02*
X295819809Y-106069130D01*
X295724571Y-106116750D01*
X295676952Y-106164369D01*
X295581714Y-106307226D01*
X295534095Y-106497702D01*
X295534095Y-106878654D01*
X295581714Y-106973892D01*
X295629333Y-107021511D01*
X295724571Y-107069130D01*
X295915047Y-107069130D01*
X296010285Y-107021511D01*
X296057904Y-106973892D01*
X296105523Y-106878654D01*
X296105523Y-106640559D01*
X296057904Y-106545321D01*
X296010285Y-106497702D01*
X295915047Y-106450083D01*
X295724571Y-106450083D01*
X295629333Y-106497702D01*
X295581714Y-106545321D01*
X295534095Y-106640559D01*
X296581714Y-107069130D02*
X296772190Y-107069130D01*
X296867428Y-107021511D01*
X296915047Y-106973892D01*
X297010285Y-106831035D01*
X297057904Y-106640559D01*
X297057904Y-106259607D01*
X297010285Y-106164369D01*
X296962666Y-106116750D01*
X296867428Y-106069130D01*
X296676952Y-106069130D01*
X296581714Y-106116750D01*
X296534095Y-106164369D01*
X296486476Y-106259607D01*
X296486476Y-106497702D01*
X296534095Y-106592940D01*
X296581714Y-106640559D01*
X296676952Y-106688178D01*
X296867428Y-106688178D01*
X296962666Y-106640559D01*
X297010285Y-106592940D01*
X297057904Y-106497702D01*
%TO.C,D67*%
X294581714Y-68969130D02*
X294581714Y-67969130D01*
X294819809Y-67969130D01*
X294962666Y-68016750D01*
X295057904Y-68111988D01*
X295105523Y-68207226D01*
X295153142Y-68397702D01*
X295153142Y-68540559D01*
X295105523Y-68731035D01*
X295057904Y-68826273D01*
X294962666Y-68921511D01*
X294819809Y-68969130D01*
X294581714Y-68969130D01*
X296010285Y-67969130D02*
X295819809Y-67969130D01*
X295724571Y-68016750D01*
X295676952Y-68064369D01*
X295581714Y-68207226D01*
X295534095Y-68397702D01*
X295534095Y-68778654D01*
X295581714Y-68873892D01*
X295629333Y-68921511D01*
X295724571Y-68969130D01*
X295915047Y-68969130D01*
X296010285Y-68921511D01*
X296057904Y-68873892D01*
X296105523Y-68778654D01*
X296105523Y-68540559D01*
X296057904Y-68445321D01*
X296010285Y-68397702D01*
X295915047Y-68350083D01*
X295724571Y-68350083D01*
X295629333Y-68397702D01*
X295581714Y-68445321D01*
X295534095Y-68540559D01*
X296438857Y-67969130D02*
X297105523Y-67969130D01*
X296676952Y-68969130D01*
%TO.C,D66*%
X294581714Y-50903380D02*
X294581714Y-49903380D01*
X294819809Y-49903380D01*
X294962666Y-49951000D01*
X295057904Y-50046238D01*
X295105523Y-50141476D01*
X295153142Y-50331952D01*
X295153142Y-50474809D01*
X295105523Y-50665285D01*
X295057904Y-50760523D01*
X294962666Y-50855761D01*
X294819809Y-50903380D01*
X294581714Y-50903380D01*
X296010285Y-49903380D02*
X295819809Y-49903380D01*
X295724571Y-49951000D01*
X295676952Y-49998619D01*
X295581714Y-50141476D01*
X295534095Y-50331952D01*
X295534095Y-50712904D01*
X295581714Y-50808142D01*
X295629333Y-50855761D01*
X295724571Y-50903380D01*
X295915047Y-50903380D01*
X296010285Y-50855761D01*
X296057904Y-50808142D01*
X296105523Y-50712904D01*
X296105523Y-50474809D01*
X296057904Y-50379571D01*
X296010285Y-50331952D01*
X295915047Y-50284333D01*
X295724571Y-50284333D01*
X295629333Y-50331952D01*
X295581714Y-50379571D01*
X295534095Y-50474809D01*
X296962666Y-49903380D02*
X296772190Y-49903380D01*
X296676952Y-49951000D01*
X296629333Y-49998619D01*
X296534095Y-50141476D01*
X296486476Y-50331952D01*
X296486476Y-50712904D01*
X296534095Y-50808142D01*
X296581714Y-50855761D01*
X296676952Y-50903380D01*
X296867428Y-50903380D01*
X296962666Y-50855761D01*
X297010285Y-50808142D01*
X297057904Y-50712904D01*
X297057904Y-50474809D01*
X297010285Y-50379571D01*
X296962666Y-50331952D01*
X296867428Y-50284333D01*
X296676952Y-50284333D01*
X296581714Y-50331952D01*
X296534095Y-50379571D01*
X296486476Y-50474809D01*
%TO.C,D65*%
X270578714Y-126119130D02*
X270578714Y-125119130D01*
X270816809Y-125119130D01*
X270959666Y-125166750D01*
X271054904Y-125261988D01*
X271102523Y-125357226D01*
X271150142Y-125547702D01*
X271150142Y-125690559D01*
X271102523Y-125881035D01*
X271054904Y-125976273D01*
X270959666Y-126071511D01*
X270816809Y-126119130D01*
X270578714Y-126119130D01*
X272007285Y-125119130D02*
X271816809Y-125119130D01*
X271721571Y-125166750D01*
X271673952Y-125214369D01*
X271578714Y-125357226D01*
X271531095Y-125547702D01*
X271531095Y-125928654D01*
X271578714Y-126023892D01*
X271626333Y-126071511D01*
X271721571Y-126119130D01*
X271912047Y-126119130D01*
X272007285Y-126071511D01*
X272054904Y-126023892D01*
X272102523Y-125928654D01*
X272102523Y-125690559D01*
X272054904Y-125595321D01*
X272007285Y-125547702D01*
X271912047Y-125500083D01*
X271721571Y-125500083D01*
X271626333Y-125547702D01*
X271578714Y-125595321D01*
X271531095Y-125690559D01*
X273007285Y-125119130D02*
X272531095Y-125119130D01*
X272483476Y-125595321D01*
X272531095Y-125547702D01*
X272626333Y-125500083D01*
X272864428Y-125500083D01*
X272959666Y-125547702D01*
X273007285Y-125595321D01*
X273054904Y-125690559D01*
X273054904Y-125928654D01*
X273007285Y-126023892D01*
X272959666Y-126071511D01*
X272864428Y-126119130D01*
X272626333Y-126119130D01*
X272531095Y-126071511D01*
X272483476Y-126023892D01*
%TO.C,D64*%
X270578714Y-107069130D02*
X270578714Y-106069130D01*
X270816809Y-106069130D01*
X270959666Y-106116750D01*
X271054904Y-106211988D01*
X271102523Y-106307226D01*
X271150142Y-106497702D01*
X271150142Y-106640559D01*
X271102523Y-106831035D01*
X271054904Y-106926273D01*
X270959666Y-107021511D01*
X270816809Y-107069130D01*
X270578714Y-107069130D01*
X272007285Y-106069130D02*
X271816809Y-106069130D01*
X271721571Y-106116750D01*
X271673952Y-106164369D01*
X271578714Y-106307226D01*
X271531095Y-106497702D01*
X271531095Y-106878654D01*
X271578714Y-106973892D01*
X271626333Y-107021511D01*
X271721571Y-107069130D01*
X271912047Y-107069130D01*
X272007285Y-107021511D01*
X272054904Y-106973892D01*
X272102523Y-106878654D01*
X272102523Y-106640559D01*
X272054904Y-106545321D01*
X272007285Y-106497702D01*
X271912047Y-106450083D01*
X271721571Y-106450083D01*
X271626333Y-106497702D01*
X271578714Y-106545321D01*
X271531095Y-106640559D01*
X272959666Y-106402464D02*
X272959666Y-107069130D01*
X272721571Y-106021511D02*
X272483476Y-106735797D01*
X273102523Y-106735797D01*
%TO.C,D63*%
X270575714Y-88019130D02*
X270575714Y-87019130D01*
X270813809Y-87019130D01*
X270956666Y-87066750D01*
X271051904Y-87161988D01*
X271099523Y-87257226D01*
X271147142Y-87447702D01*
X271147142Y-87590559D01*
X271099523Y-87781035D01*
X271051904Y-87876273D01*
X270956666Y-87971511D01*
X270813809Y-88019130D01*
X270575714Y-88019130D01*
X272004285Y-87019130D02*
X271813809Y-87019130D01*
X271718571Y-87066750D01*
X271670952Y-87114369D01*
X271575714Y-87257226D01*
X271528095Y-87447702D01*
X271528095Y-87828654D01*
X271575714Y-87923892D01*
X271623333Y-87971511D01*
X271718571Y-88019130D01*
X271909047Y-88019130D01*
X272004285Y-87971511D01*
X272051904Y-87923892D01*
X272099523Y-87828654D01*
X272099523Y-87590559D01*
X272051904Y-87495321D01*
X272004285Y-87447702D01*
X271909047Y-87400083D01*
X271718571Y-87400083D01*
X271623333Y-87447702D01*
X271575714Y-87495321D01*
X271528095Y-87590559D01*
X272432857Y-87019130D02*
X273051904Y-87019130D01*
X272718571Y-87400083D01*
X272861428Y-87400083D01*
X272956666Y-87447702D01*
X273004285Y-87495321D01*
X273051904Y-87590559D01*
X273051904Y-87828654D01*
X273004285Y-87923892D01*
X272956666Y-87971511D01*
X272861428Y-88019130D01*
X272575714Y-88019130D01*
X272480476Y-87971511D01*
X272432857Y-87923892D01*
%TO.C,D62*%
X270578714Y-68969130D02*
X270578714Y-67969130D01*
X270816809Y-67969130D01*
X270959666Y-68016750D01*
X271054904Y-68111988D01*
X271102523Y-68207226D01*
X271150142Y-68397702D01*
X271150142Y-68540559D01*
X271102523Y-68731035D01*
X271054904Y-68826273D01*
X270959666Y-68921511D01*
X270816809Y-68969130D01*
X270578714Y-68969130D01*
X272007285Y-67969130D02*
X271816809Y-67969130D01*
X271721571Y-68016750D01*
X271673952Y-68064369D01*
X271578714Y-68207226D01*
X271531095Y-68397702D01*
X271531095Y-68778654D01*
X271578714Y-68873892D01*
X271626333Y-68921511D01*
X271721571Y-68969130D01*
X271912047Y-68969130D01*
X272007285Y-68921511D01*
X272054904Y-68873892D01*
X272102523Y-68778654D01*
X272102523Y-68540559D01*
X272054904Y-68445321D01*
X272007285Y-68397702D01*
X271912047Y-68350083D01*
X271721571Y-68350083D01*
X271626333Y-68397702D01*
X271578714Y-68445321D01*
X271531095Y-68540559D01*
X272483476Y-68064369D02*
X272531095Y-68016750D01*
X272626333Y-67969130D01*
X272864428Y-67969130D01*
X272959666Y-68016750D01*
X273007285Y-68064369D01*
X273054904Y-68159607D01*
X273054904Y-68254845D01*
X273007285Y-68397702D01*
X272435857Y-68969130D01*
X273054904Y-68969130D01*
%TO.C,D61*%
X270578714Y-49919130D02*
X270578714Y-48919130D01*
X270816809Y-48919130D01*
X270959666Y-48966750D01*
X271054904Y-49061988D01*
X271102523Y-49157226D01*
X271150142Y-49347702D01*
X271150142Y-49490559D01*
X271102523Y-49681035D01*
X271054904Y-49776273D01*
X270959666Y-49871511D01*
X270816809Y-49919130D01*
X270578714Y-49919130D01*
X272007285Y-48919130D02*
X271816809Y-48919130D01*
X271721571Y-48966750D01*
X271673952Y-49014369D01*
X271578714Y-49157226D01*
X271531095Y-49347702D01*
X271531095Y-49728654D01*
X271578714Y-49823892D01*
X271626333Y-49871511D01*
X271721571Y-49919130D01*
X271912047Y-49919130D01*
X272007285Y-49871511D01*
X272054904Y-49823892D01*
X272102523Y-49728654D01*
X272102523Y-49490559D01*
X272054904Y-49395321D01*
X272007285Y-49347702D01*
X271912047Y-49300083D01*
X271721571Y-49300083D01*
X271626333Y-49347702D01*
X271578714Y-49395321D01*
X271531095Y-49490559D01*
X273054904Y-49919130D02*
X272483476Y-49919130D01*
X272769190Y-49919130D02*
X272769190Y-48919130D01*
X272673952Y-49061988D01*
X272578714Y-49157226D01*
X272483476Y-49204845D01*
%TO.C,D59*%
X251528714Y-103513130D02*
X251528714Y-102513130D01*
X251766809Y-102513130D01*
X251909666Y-102560750D01*
X252004904Y-102655988D01*
X252052523Y-102751226D01*
X252100142Y-102941702D01*
X252100142Y-103084559D01*
X252052523Y-103275035D01*
X252004904Y-103370273D01*
X251909666Y-103465511D01*
X251766809Y-103513130D01*
X251528714Y-103513130D01*
X253004904Y-102513130D02*
X252528714Y-102513130D01*
X252481095Y-102989321D01*
X252528714Y-102941702D01*
X252623952Y-102894083D01*
X252862047Y-102894083D01*
X252957285Y-102941702D01*
X253004904Y-102989321D01*
X253052523Y-103084559D01*
X253052523Y-103322654D01*
X253004904Y-103417892D01*
X252957285Y-103465511D01*
X252862047Y-103513130D01*
X252623952Y-103513130D01*
X252528714Y-103465511D01*
X252481095Y-103417892D01*
X253528714Y-103513130D02*
X253719190Y-103513130D01*
X253814428Y-103465511D01*
X253862047Y-103417892D01*
X253957285Y-103275035D01*
X254004904Y-103084559D01*
X254004904Y-102703607D01*
X253957285Y-102608369D01*
X253909666Y-102560750D01*
X253814428Y-102513130D01*
X253623952Y-102513130D01*
X253528714Y-102560750D01*
X253481095Y-102608369D01*
X253433476Y-102703607D01*
X253433476Y-102941702D01*
X253481095Y-103036940D01*
X253528714Y-103084559D01*
X253623952Y-103132178D01*
X253814428Y-103132178D01*
X253909666Y-103084559D01*
X253957285Y-103036940D01*
X254004904Y-102941702D01*
%TO.C,D58*%
X251528714Y-84463130D02*
X251528714Y-83463130D01*
X251766809Y-83463130D01*
X251909666Y-83510750D01*
X252004904Y-83605988D01*
X252052523Y-83701226D01*
X252100142Y-83891702D01*
X252100142Y-84034559D01*
X252052523Y-84225035D01*
X252004904Y-84320273D01*
X251909666Y-84415511D01*
X251766809Y-84463130D01*
X251528714Y-84463130D01*
X253004904Y-83463130D02*
X252528714Y-83463130D01*
X252481095Y-83939321D01*
X252528714Y-83891702D01*
X252623952Y-83844083D01*
X252862047Y-83844083D01*
X252957285Y-83891702D01*
X253004904Y-83939321D01*
X253052523Y-84034559D01*
X253052523Y-84272654D01*
X253004904Y-84367892D01*
X252957285Y-84415511D01*
X252862047Y-84463130D01*
X252623952Y-84463130D01*
X252528714Y-84415511D01*
X252481095Y-84367892D01*
X253623952Y-83891702D02*
X253528714Y-83844083D01*
X253481095Y-83796464D01*
X253433476Y-83701226D01*
X253433476Y-83653607D01*
X253481095Y-83558369D01*
X253528714Y-83510750D01*
X253623952Y-83463130D01*
X253814428Y-83463130D01*
X253909666Y-83510750D01*
X253957285Y-83558369D01*
X254004904Y-83653607D01*
X254004904Y-83701226D01*
X253957285Y-83796464D01*
X253909666Y-83844083D01*
X253814428Y-83891702D01*
X253623952Y-83891702D01*
X253528714Y-83939321D01*
X253481095Y-83986940D01*
X253433476Y-84082178D01*
X253433476Y-84272654D01*
X253481095Y-84367892D01*
X253528714Y-84415511D01*
X253623952Y-84463130D01*
X253814428Y-84463130D01*
X253909666Y-84415511D01*
X253957285Y-84367892D01*
X254004904Y-84272654D01*
X254004904Y-84082178D01*
X253957285Y-83986940D01*
X253909666Y-83939321D01*
X253814428Y-83891702D01*
%TO.C,D57*%
X251528714Y-65413130D02*
X251528714Y-64413130D01*
X251766809Y-64413130D01*
X251909666Y-64460750D01*
X252004904Y-64555988D01*
X252052523Y-64651226D01*
X252100142Y-64841702D01*
X252100142Y-64984559D01*
X252052523Y-65175035D01*
X252004904Y-65270273D01*
X251909666Y-65365511D01*
X251766809Y-65413130D01*
X251528714Y-65413130D01*
X253004904Y-64413130D02*
X252528714Y-64413130D01*
X252481095Y-64889321D01*
X252528714Y-64841702D01*
X252623952Y-64794083D01*
X252862047Y-64794083D01*
X252957285Y-64841702D01*
X253004904Y-64889321D01*
X253052523Y-64984559D01*
X253052523Y-65222654D01*
X253004904Y-65317892D01*
X252957285Y-65365511D01*
X252862047Y-65413130D01*
X252623952Y-65413130D01*
X252528714Y-65365511D01*
X252481095Y-65317892D01*
X253385857Y-64413130D02*
X254052523Y-64413130D01*
X253623952Y-65413130D01*
%TO.C,D56*%
X251528714Y-46363130D02*
X251528714Y-45363130D01*
X251766809Y-45363130D01*
X251909666Y-45410750D01*
X252004904Y-45505988D01*
X252052523Y-45601226D01*
X252100142Y-45791702D01*
X252100142Y-45934559D01*
X252052523Y-46125035D01*
X252004904Y-46220273D01*
X251909666Y-46315511D01*
X251766809Y-46363130D01*
X251528714Y-46363130D01*
X253004904Y-45363130D02*
X252528714Y-45363130D01*
X252481095Y-45839321D01*
X252528714Y-45791702D01*
X252623952Y-45744083D01*
X252862047Y-45744083D01*
X252957285Y-45791702D01*
X253004904Y-45839321D01*
X253052523Y-45934559D01*
X253052523Y-46172654D01*
X253004904Y-46267892D01*
X252957285Y-46315511D01*
X252862047Y-46363130D01*
X252623952Y-46363130D01*
X252528714Y-46315511D01*
X252481095Y-46267892D01*
X253909666Y-45363130D02*
X253719190Y-45363130D01*
X253623952Y-45410750D01*
X253576333Y-45458369D01*
X253481095Y-45601226D01*
X253433476Y-45791702D01*
X253433476Y-46172654D01*
X253481095Y-46267892D01*
X253528714Y-46315511D01*
X253623952Y-46363130D01*
X253814428Y-46363130D01*
X253909666Y-46315511D01*
X253957285Y-46267892D01*
X254004904Y-46172654D01*
X254004904Y-45934559D01*
X253957285Y-45839321D01*
X253909666Y-45791702D01*
X253814428Y-45744083D01*
X253623952Y-45744083D01*
X253528714Y-45791702D01*
X253481095Y-45839321D01*
X253433476Y-45934559D01*
%TO.C,D55*%
X232478714Y-119642130D02*
X232478714Y-118642130D01*
X232716809Y-118642130D01*
X232859666Y-118689750D01*
X232954904Y-118784988D01*
X233002523Y-118880226D01*
X233050142Y-119070702D01*
X233050142Y-119213559D01*
X233002523Y-119404035D01*
X232954904Y-119499273D01*
X232859666Y-119594511D01*
X232716809Y-119642130D01*
X232478714Y-119642130D01*
X233954904Y-118642130D02*
X233478714Y-118642130D01*
X233431095Y-119118321D01*
X233478714Y-119070702D01*
X233573952Y-119023083D01*
X233812047Y-119023083D01*
X233907285Y-119070702D01*
X233954904Y-119118321D01*
X234002523Y-119213559D01*
X234002523Y-119451654D01*
X233954904Y-119546892D01*
X233907285Y-119594511D01*
X233812047Y-119642130D01*
X233573952Y-119642130D01*
X233478714Y-119594511D01*
X233431095Y-119546892D01*
X234907285Y-118642130D02*
X234431095Y-118642130D01*
X234383476Y-119118321D01*
X234431095Y-119070702D01*
X234526333Y-119023083D01*
X234764428Y-119023083D01*
X234859666Y-119070702D01*
X234907285Y-119118321D01*
X234954904Y-119213559D01*
X234954904Y-119451654D01*
X234907285Y-119546892D01*
X234859666Y-119594511D01*
X234764428Y-119642130D01*
X234526333Y-119642130D01*
X234431095Y-119594511D01*
X234383476Y-119546892D01*
%TO.C,D54*%
X232478714Y-100592130D02*
X232478714Y-99592130D01*
X232716809Y-99592130D01*
X232859666Y-99639750D01*
X232954904Y-99734988D01*
X233002523Y-99830226D01*
X233050142Y-100020702D01*
X233050142Y-100163559D01*
X233002523Y-100354035D01*
X232954904Y-100449273D01*
X232859666Y-100544511D01*
X232716809Y-100592130D01*
X232478714Y-100592130D01*
X233954904Y-99592130D02*
X233478714Y-99592130D01*
X233431095Y-100068321D01*
X233478714Y-100020702D01*
X233573952Y-99973083D01*
X233812047Y-99973083D01*
X233907285Y-100020702D01*
X233954904Y-100068321D01*
X234002523Y-100163559D01*
X234002523Y-100401654D01*
X233954904Y-100496892D01*
X233907285Y-100544511D01*
X233812047Y-100592130D01*
X233573952Y-100592130D01*
X233478714Y-100544511D01*
X233431095Y-100496892D01*
X234859666Y-99925464D02*
X234859666Y-100592130D01*
X234621571Y-99544511D02*
X234383476Y-100258797D01*
X235002523Y-100258797D01*
%TO.C,D53*%
X232539214Y-81542130D02*
X232539214Y-80542130D01*
X232777309Y-80542130D01*
X232920166Y-80589750D01*
X233015404Y-80684988D01*
X233063023Y-80780226D01*
X233110642Y-80970702D01*
X233110642Y-81113559D01*
X233063023Y-81304035D01*
X233015404Y-81399273D01*
X232920166Y-81494511D01*
X232777309Y-81542130D01*
X232539214Y-81542130D01*
X234015404Y-80542130D02*
X233539214Y-80542130D01*
X233491595Y-81018321D01*
X233539214Y-80970702D01*
X233634452Y-80923083D01*
X233872547Y-80923083D01*
X233967785Y-80970702D01*
X234015404Y-81018321D01*
X234063023Y-81113559D01*
X234063023Y-81351654D01*
X234015404Y-81446892D01*
X233967785Y-81494511D01*
X233872547Y-81542130D01*
X233634452Y-81542130D01*
X233539214Y-81494511D01*
X233491595Y-81446892D01*
X234396357Y-80542130D02*
X235015404Y-80542130D01*
X234682071Y-80923083D01*
X234824928Y-80923083D01*
X234920166Y-80970702D01*
X234967785Y-81018321D01*
X235015404Y-81113559D01*
X235015404Y-81351654D01*
X234967785Y-81446892D01*
X234920166Y-81494511D01*
X234824928Y-81542130D01*
X234539214Y-81542130D01*
X234443976Y-81494511D01*
X234396357Y-81446892D01*
%TO.C,D52*%
X232478714Y-62492130D02*
X232478714Y-61492130D01*
X232716809Y-61492130D01*
X232859666Y-61539750D01*
X232954904Y-61634988D01*
X233002523Y-61730226D01*
X233050142Y-61920702D01*
X233050142Y-62063559D01*
X233002523Y-62254035D01*
X232954904Y-62349273D01*
X232859666Y-62444511D01*
X232716809Y-62492130D01*
X232478714Y-62492130D01*
X233954904Y-61492130D02*
X233478714Y-61492130D01*
X233431095Y-61968321D01*
X233478714Y-61920702D01*
X233573952Y-61873083D01*
X233812047Y-61873083D01*
X233907285Y-61920702D01*
X233954904Y-61968321D01*
X234002523Y-62063559D01*
X234002523Y-62301654D01*
X233954904Y-62396892D01*
X233907285Y-62444511D01*
X233812047Y-62492130D01*
X233573952Y-62492130D01*
X233478714Y-62444511D01*
X233431095Y-62396892D01*
X234383476Y-61587369D02*
X234431095Y-61539750D01*
X234526333Y-61492130D01*
X234764428Y-61492130D01*
X234859666Y-61539750D01*
X234907285Y-61587369D01*
X234954904Y-61682607D01*
X234954904Y-61777845D01*
X234907285Y-61920702D01*
X234335857Y-62492130D01*
X234954904Y-62492130D01*
%TO.C,D51*%
X232475714Y-43442130D02*
X232475714Y-42442130D01*
X232713809Y-42442130D01*
X232856666Y-42489750D01*
X232951904Y-42584988D01*
X232999523Y-42680226D01*
X233047142Y-42870702D01*
X233047142Y-43013559D01*
X232999523Y-43204035D01*
X232951904Y-43299273D01*
X232856666Y-43394511D01*
X232713809Y-43442130D01*
X232475714Y-43442130D01*
X233951904Y-42442130D02*
X233475714Y-42442130D01*
X233428095Y-42918321D01*
X233475714Y-42870702D01*
X233570952Y-42823083D01*
X233809047Y-42823083D01*
X233904285Y-42870702D01*
X233951904Y-42918321D01*
X233999523Y-43013559D01*
X233999523Y-43251654D01*
X233951904Y-43346892D01*
X233904285Y-43394511D01*
X233809047Y-43442130D01*
X233570952Y-43442130D01*
X233475714Y-43394511D01*
X233428095Y-43346892D01*
X234951904Y-43442130D02*
X234380476Y-43442130D01*
X234666190Y-43442130D02*
X234666190Y-42442130D01*
X234570952Y-42584988D01*
X234475714Y-42680226D01*
X234380476Y-42727845D01*
%TO.C,D50*%
X213428714Y-122563130D02*
X213428714Y-121563130D01*
X213666809Y-121563130D01*
X213809666Y-121610750D01*
X213904904Y-121705988D01*
X213952523Y-121801226D01*
X214000142Y-121991702D01*
X214000142Y-122134559D01*
X213952523Y-122325035D01*
X213904904Y-122420273D01*
X213809666Y-122515511D01*
X213666809Y-122563130D01*
X213428714Y-122563130D01*
X214904904Y-121563130D02*
X214428714Y-121563130D01*
X214381095Y-122039321D01*
X214428714Y-121991702D01*
X214523952Y-121944083D01*
X214762047Y-121944083D01*
X214857285Y-121991702D01*
X214904904Y-122039321D01*
X214952523Y-122134559D01*
X214952523Y-122372654D01*
X214904904Y-122467892D01*
X214857285Y-122515511D01*
X214762047Y-122563130D01*
X214523952Y-122563130D01*
X214428714Y-122515511D01*
X214381095Y-122467892D01*
X215571571Y-121563130D02*
X215666809Y-121563130D01*
X215762047Y-121610750D01*
X215809666Y-121658369D01*
X215857285Y-121753607D01*
X215904904Y-121944083D01*
X215904904Y-122182178D01*
X215857285Y-122372654D01*
X215809666Y-122467892D01*
X215762047Y-122515511D01*
X215666809Y-122563130D01*
X215571571Y-122563130D01*
X215476333Y-122515511D01*
X215428714Y-122467892D01*
X215381095Y-122372654D01*
X215333476Y-122182178D01*
X215333476Y-121944083D01*
X215381095Y-121753607D01*
X215428714Y-121658369D01*
X215476333Y-121610750D01*
X215571571Y-121563130D01*
%TO.C,D49*%
X213428714Y-103513130D02*
X213428714Y-102513130D01*
X213666809Y-102513130D01*
X213809666Y-102560750D01*
X213904904Y-102655988D01*
X213952523Y-102751226D01*
X214000142Y-102941702D01*
X214000142Y-103084559D01*
X213952523Y-103275035D01*
X213904904Y-103370273D01*
X213809666Y-103465511D01*
X213666809Y-103513130D01*
X213428714Y-103513130D01*
X214857285Y-102846464D02*
X214857285Y-103513130D01*
X214619190Y-102465511D02*
X214381095Y-103179797D01*
X215000142Y-103179797D01*
X215428714Y-103513130D02*
X215619190Y-103513130D01*
X215714428Y-103465511D01*
X215762047Y-103417892D01*
X215857285Y-103275035D01*
X215904904Y-103084559D01*
X215904904Y-102703607D01*
X215857285Y-102608369D01*
X215809666Y-102560750D01*
X215714428Y-102513130D01*
X215523952Y-102513130D01*
X215428714Y-102560750D01*
X215381095Y-102608369D01*
X215333476Y-102703607D01*
X215333476Y-102941702D01*
X215381095Y-103036940D01*
X215428714Y-103084559D01*
X215523952Y-103132178D01*
X215714428Y-103132178D01*
X215809666Y-103084559D01*
X215857285Y-103036940D01*
X215904904Y-102941702D01*
%TO.C,D48*%
X213428714Y-84463130D02*
X213428714Y-83463130D01*
X213666809Y-83463130D01*
X213809666Y-83510750D01*
X213904904Y-83605988D01*
X213952523Y-83701226D01*
X214000142Y-83891702D01*
X214000142Y-84034559D01*
X213952523Y-84225035D01*
X213904904Y-84320273D01*
X213809666Y-84415511D01*
X213666809Y-84463130D01*
X213428714Y-84463130D01*
X214857285Y-83796464D02*
X214857285Y-84463130D01*
X214619190Y-83415511D02*
X214381095Y-84129797D01*
X215000142Y-84129797D01*
X215523952Y-83891702D02*
X215428714Y-83844083D01*
X215381095Y-83796464D01*
X215333476Y-83701226D01*
X215333476Y-83653607D01*
X215381095Y-83558369D01*
X215428714Y-83510750D01*
X215523952Y-83463130D01*
X215714428Y-83463130D01*
X215809666Y-83510750D01*
X215857285Y-83558369D01*
X215904904Y-83653607D01*
X215904904Y-83701226D01*
X215857285Y-83796464D01*
X215809666Y-83844083D01*
X215714428Y-83891702D01*
X215523952Y-83891702D01*
X215428714Y-83939321D01*
X215381095Y-83986940D01*
X215333476Y-84082178D01*
X215333476Y-84272654D01*
X215381095Y-84367892D01*
X215428714Y-84415511D01*
X215523952Y-84463130D01*
X215714428Y-84463130D01*
X215809666Y-84415511D01*
X215857285Y-84367892D01*
X215904904Y-84272654D01*
X215904904Y-84082178D01*
X215857285Y-83986940D01*
X215809666Y-83939321D01*
X215714428Y-83891702D01*
%TO.C,D47*%
X213492214Y-65413130D02*
X213492214Y-64413130D01*
X213730309Y-64413130D01*
X213873166Y-64460750D01*
X213968404Y-64555988D01*
X214016023Y-64651226D01*
X214063642Y-64841702D01*
X214063642Y-64984559D01*
X214016023Y-65175035D01*
X213968404Y-65270273D01*
X213873166Y-65365511D01*
X213730309Y-65413130D01*
X213492214Y-65413130D01*
X214920785Y-64746464D02*
X214920785Y-65413130D01*
X214682690Y-64365511D02*
X214444595Y-65079797D01*
X215063642Y-65079797D01*
X215349357Y-64413130D02*
X216016023Y-64413130D01*
X215587452Y-65413130D01*
%TO.C,D46*%
X213428714Y-46363130D02*
X213428714Y-45363130D01*
X213666809Y-45363130D01*
X213809666Y-45410750D01*
X213904904Y-45505988D01*
X213952523Y-45601226D01*
X214000142Y-45791702D01*
X214000142Y-45934559D01*
X213952523Y-46125035D01*
X213904904Y-46220273D01*
X213809666Y-46315511D01*
X213666809Y-46363130D01*
X213428714Y-46363130D01*
X214857285Y-45696464D02*
X214857285Y-46363130D01*
X214619190Y-45315511D02*
X214381095Y-46029797D01*
X215000142Y-46029797D01*
X215809666Y-45363130D02*
X215619190Y-45363130D01*
X215523952Y-45410750D01*
X215476333Y-45458369D01*
X215381095Y-45601226D01*
X215333476Y-45791702D01*
X215333476Y-46172654D01*
X215381095Y-46267892D01*
X215428714Y-46315511D01*
X215523952Y-46363130D01*
X215714428Y-46363130D01*
X215809666Y-46315511D01*
X215857285Y-46267892D01*
X215904904Y-46172654D01*
X215904904Y-45934559D01*
X215857285Y-45839321D01*
X215809666Y-45791702D01*
X215714428Y-45744083D01*
X215523952Y-45744083D01*
X215428714Y-45791702D01*
X215381095Y-45839321D01*
X215333476Y-45934559D01*
%TO.C,D44*%
X194378714Y-105418130D02*
X194378714Y-104418130D01*
X194616809Y-104418130D01*
X194759666Y-104465750D01*
X194854904Y-104560988D01*
X194902523Y-104656226D01*
X194950142Y-104846702D01*
X194950142Y-104989559D01*
X194902523Y-105180035D01*
X194854904Y-105275273D01*
X194759666Y-105370511D01*
X194616809Y-105418130D01*
X194378714Y-105418130D01*
X195807285Y-104751464D02*
X195807285Y-105418130D01*
X195569190Y-104370511D02*
X195331095Y-105084797D01*
X195950142Y-105084797D01*
X196759666Y-104751464D02*
X196759666Y-105418130D01*
X196521571Y-104370511D02*
X196283476Y-105084797D01*
X196902523Y-105084797D01*
%TO.C,D43*%
X194378714Y-86368130D02*
X194378714Y-85368130D01*
X194616809Y-85368130D01*
X194759666Y-85415750D01*
X194854904Y-85510988D01*
X194902523Y-85606226D01*
X194950142Y-85796702D01*
X194950142Y-85939559D01*
X194902523Y-86130035D01*
X194854904Y-86225273D01*
X194759666Y-86320511D01*
X194616809Y-86368130D01*
X194378714Y-86368130D01*
X195807285Y-85701464D02*
X195807285Y-86368130D01*
X195569190Y-85320511D02*
X195331095Y-86034797D01*
X195950142Y-86034797D01*
X196235857Y-85368130D02*
X196854904Y-85368130D01*
X196521571Y-85749083D01*
X196664428Y-85749083D01*
X196759666Y-85796702D01*
X196807285Y-85844321D01*
X196854904Y-85939559D01*
X196854904Y-86177654D01*
X196807285Y-86272892D01*
X196759666Y-86320511D01*
X196664428Y-86368130D01*
X196378714Y-86368130D01*
X196283476Y-86320511D01*
X196235857Y-86272892D01*
%TO.C,D42*%
X194378714Y-67318130D02*
X194378714Y-66318130D01*
X194616809Y-66318130D01*
X194759666Y-66365750D01*
X194854904Y-66460988D01*
X194902523Y-66556226D01*
X194950142Y-66746702D01*
X194950142Y-66889559D01*
X194902523Y-67080035D01*
X194854904Y-67175273D01*
X194759666Y-67270511D01*
X194616809Y-67318130D01*
X194378714Y-67318130D01*
X195807285Y-66651464D02*
X195807285Y-67318130D01*
X195569190Y-66270511D02*
X195331095Y-66984797D01*
X195950142Y-66984797D01*
X196283476Y-66413369D02*
X196331095Y-66365750D01*
X196426333Y-66318130D01*
X196664428Y-66318130D01*
X196759666Y-66365750D01*
X196807285Y-66413369D01*
X196854904Y-66508607D01*
X196854904Y-66603845D01*
X196807285Y-66746702D01*
X196235857Y-67318130D01*
X196854904Y-67318130D01*
%TO.C,D41*%
X194378714Y-48268130D02*
X194378714Y-47268130D01*
X194616809Y-47268130D01*
X194759666Y-47315750D01*
X194854904Y-47410988D01*
X194902523Y-47506226D01*
X194950142Y-47696702D01*
X194950142Y-47839559D01*
X194902523Y-48030035D01*
X194854904Y-48125273D01*
X194759666Y-48220511D01*
X194616809Y-48268130D01*
X194378714Y-48268130D01*
X195807285Y-47601464D02*
X195807285Y-48268130D01*
X195569190Y-47220511D02*
X195331095Y-47934797D01*
X195950142Y-47934797D01*
X196854904Y-48268130D02*
X196283476Y-48268130D01*
X196569190Y-48268130D02*
X196569190Y-47268130D01*
X196473952Y-47410988D01*
X196378714Y-47506226D01*
X196283476Y-47553845D01*
%TO.C,D40*%
X171195185Y-135202195D02*
X170488079Y-134495088D01*
X170656437Y-134326729D01*
X170791124Y-134259386D01*
X170925811Y-134259386D01*
X171026827Y-134293058D01*
X171195185Y-134394073D01*
X171296201Y-134495088D01*
X171397216Y-134663447D01*
X171430888Y-134764462D01*
X171430888Y-134899149D01*
X171363544Y-135033836D01*
X171195185Y-135202195D01*
X171733934Y-133720638D02*
X172205338Y-134192042D01*
X171296201Y-133619622D02*
X171632918Y-134293058D01*
X172070651Y-133855325D01*
X172003308Y-132979859D02*
X172070651Y-132912516D01*
X172171666Y-132878844D01*
X172239010Y-132878844D01*
X172340025Y-132912516D01*
X172508384Y-133013531D01*
X172676743Y-133181890D01*
X172777758Y-133350248D01*
X172811430Y-133451264D01*
X172811430Y-133518607D01*
X172777758Y-133619622D01*
X172710414Y-133686966D01*
X172609399Y-133720638D01*
X172542056Y-133720638D01*
X172441040Y-133686966D01*
X172272682Y-133585951D01*
X172104323Y-133417592D01*
X172003308Y-133249233D01*
X171969636Y-133148218D01*
X171969636Y-133080874D01*
X172003308Y-132979859D01*
%TO.C,D39*%
X175328714Y-107069130D02*
X175328714Y-106069130D01*
X175566809Y-106069130D01*
X175709666Y-106116750D01*
X175804904Y-106211988D01*
X175852523Y-106307226D01*
X175900142Y-106497702D01*
X175900142Y-106640559D01*
X175852523Y-106831035D01*
X175804904Y-106926273D01*
X175709666Y-107021511D01*
X175566809Y-107069130D01*
X175328714Y-107069130D01*
X176233476Y-106069130D02*
X176852523Y-106069130D01*
X176519190Y-106450083D01*
X176662047Y-106450083D01*
X176757285Y-106497702D01*
X176804904Y-106545321D01*
X176852523Y-106640559D01*
X176852523Y-106878654D01*
X176804904Y-106973892D01*
X176757285Y-107021511D01*
X176662047Y-107069130D01*
X176376333Y-107069130D01*
X176281095Y-107021511D01*
X176233476Y-106973892D01*
X177328714Y-107069130D02*
X177519190Y-107069130D01*
X177614428Y-107021511D01*
X177662047Y-106973892D01*
X177757285Y-106831035D01*
X177804904Y-106640559D01*
X177804904Y-106259607D01*
X177757285Y-106164369D01*
X177709666Y-106116750D01*
X177614428Y-106069130D01*
X177423952Y-106069130D01*
X177328714Y-106116750D01*
X177281095Y-106164369D01*
X177233476Y-106259607D01*
X177233476Y-106497702D01*
X177281095Y-106592940D01*
X177328714Y-106640559D01*
X177423952Y-106688178D01*
X177614428Y-106688178D01*
X177709666Y-106640559D01*
X177757285Y-106592940D01*
X177804904Y-106497702D01*
%TO.C,D38*%
X175328714Y-88019130D02*
X175328714Y-87019130D01*
X175566809Y-87019130D01*
X175709666Y-87066750D01*
X175804904Y-87161988D01*
X175852523Y-87257226D01*
X175900142Y-87447702D01*
X175900142Y-87590559D01*
X175852523Y-87781035D01*
X175804904Y-87876273D01*
X175709666Y-87971511D01*
X175566809Y-88019130D01*
X175328714Y-88019130D01*
X176233476Y-87019130D02*
X176852523Y-87019130D01*
X176519190Y-87400083D01*
X176662047Y-87400083D01*
X176757285Y-87447702D01*
X176804904Y-87495321D01*
X176852523Y-87590559D01*
X176852523Y-87828654D01*
X176804904Y-87923892D01*
X176757285Y-87971511D01*
X176662047Y-88019130D01*
X176376333Y-88019130D01*
X176281095Y-87971511D01*
X176233476Y-87923892D01*
X177423952Y-87447702D02*
X177328714Y-87400083D01*
X177281095Y-87352464D01*
X177233476Y-87257226D01*
X177233476Y-87209607D01*
X177281095Y-87114369D01*
X177328714Y-87066750D01*
X177423952Y-87019130D01*
X177614428Y-87019130D01*
X177709666Y-87066750D01*
X177757285Y-87114369D01*
X177804904Y-87209607D01*
X177804904Y-87257226D01*
X177757285Y-87352464D01*
X177709666Y-87400083D01*
X177614428Y-87447702D01*
X177423952Y-87447702D01*
X177328714Y-87495321D01*
X177281095Y-87542940D01*
X177233476Y-87638178D01*
X177233476Y-87828654D01*
X177281095Y-87923892D01*
X177328714Y-87971511D01*
X177423952Y-88019130D01*
X177614428Y-88019130D01*
X177709666Y-87971511D01*
X177757285Y-87923892D01*
X177804904Y-87828654D01*
X177804904Y-87638178D01*
X177757285Y-87542940D01*
X177709666Y-87495321D01*
X177614428Y-87447702D01*
%TO.C,D37*%
X175328714Y-68969130D02*
X175328714Y-67969130D01*
X175566809Y-67969130D01*
X175709666Y-68016750D01*
X175804904Y-68111988D01*
X175852523Y-68207226D01*
X175900142Y-68397702D01*
X175900142Y-68540559D01*
X175852523Y-68731035D01*
X175804904Y-68826273D01*
X175709666Y-68921511D01*
X175566809Y-68969130D01*
X175328714Y-68969130D01*
X176233476Y-67969130D02*
X176852523Y-67969130D01*
X176519190Y-68350083D01*
X176662047Y-68350083D01*
X176757285Y-68397702D01*
X176804904Y-68445321D01*
X176852523Y-68540559D01*
X176852523Y-68778654D01*
X176804904Y-68873892D01*
X176757285Y-68921511D01*
X176662047Y-68969130D01*
X176376333Y-68969130D01*
X176281095Y-68921511D01*
X176233476Y-68873892D01*
X177185857Y-67969130D02*
X177852523Y-67969130D01*
X177423952Y-68969130D01*
%TO.C,D36*%
X175328714Y-49919130D02*
X175328714Y-48919130D01*
X175566809Y-48919130D01*
X175709666Y-48966750D01*
X175804904Y-49061988D01*
X175852523Y-49157226D01*
X175900142Y-49347702D01*
X175900142Y-49490559D01*
X175852523Y-49681035D01*
X175804904Y-49776273D01*
X175709666Y-49871511D01*
X175566809Y-49919130D01*
X175328714Y-49919130D01*
X176233476Y-48919130D02*
X176852523Y-48919130D01*
X176519190Y-49300083D01*
X176662047Y-49300083D01*
X176757285Y-49347702D01*
X176804904Y-49395321D01*
X176852523Y-49490559D01*
X176852523Y-49728654D01*
X176804904Y-49823892D01*
X176757285Y-49871511D01*
X176662047Y-49919130D01*
X176376333Y-49919130D01*
X176281095Y-49871511D01*
X176233476Y-49823892D01*
X177709666Y-48919130D02*
X177519190Y-48919130D01*
X177423952Y-48966750D01*
X177376333Y-49014369D01*
X177281095Y-49157226D01*
X177233476Y-49347702D01*
X177233476Y-49728654D01*
X177281095Y-49823892D01*
X177328714Y-49871511D01*
X177423952Y-49919130D01*
X177614428Y-49919130D01*
X177709666Y-49871511D01*
X177757285Y-49823892D01*
X177804904Y-49728654D01*
X177804904Y-49490559D01*
X177757285Y-49395321D01*
X177709666Y-49347702D01*
X177614428Y-49300083D01*
X177423952Y-49300083D01*
X177328714Y-49347702D01*
X177281095Y-49395321D01*
X177233476Y-49490559D01*
%TO.C,D35*%
X129566172Y-130911067D02*
X130273279Y-130203961D01*
X130441638Y-130372319D01*
X130508981Y-130507006D01*
X130508981Y-130641693D01*
X130475309Y-130742709D01*
X130374294Y-130911067D01*
X130273279Y-131012083D01*
X130104920Y-131113098D01*
X130003905Y-131146770D01*
X129869218Y-131146770D01*
X129734531Y-131079426D01*
X129566172Y-130911067D01*
X130913042Y-130843724D02*
X131350775Y-131281457D01*
X130845699Y-131315128D01*
X130946714Y-131416144D01*
X130980386Y-131517159D01*
X130980386Y-131584503D01*
X130946714Y-131685518D01*
X130778355Y-131853877D01*
X130677340Y-131887548D01*
X130609996Y-131887548D01*
X130508981Y-131853877D01*
X130306951Y-131651846D01*
X130273279Y-131550831D01*
X130273279Y-131483487D01*
X131990538Y-131921220D02*
X131653821Y-131584503D01*
X131283432Y-131887548D01*
X131350775Y-131887548D01*
X131451790Y-131921220D01*
X131620149Y-132089579D01*
X131653821Y-132190594D01*
X131653821Y-132257938D01*
X131620149Y-132358953D01*
X131451790Y-132527312D01*
X131350775Y-132560983D01*
X131283432Y-132560983D01*
X131182416Y-132527312D01*
X131014058Y-132358953D01*
X130980386Y-132257938D01*
X130980386Y-132190594D01*
%TO.C,D34*%
X122020464Y-103429130D02*
X122020464Y-102429130D01*
X122258559Y-102429130D01*
X122401416Y-102476750D01*
X122496654Y-102571988D01*
X122544273Y-102667226D01*
X122591892Y-102857702D01*
X122591892Y-103000559D01*
X122544273Y-103191035D01*
X122496654Y-103286273D01*
X122401416Y-103381511D01*
X122258559Y-103429130D01*
X122020464Y-103429130D01*
X122925226Y-102429130D02*
X123544273Y-102429130D01*
X123210940Y-102810083D01*
X123353797Y-102810083D01*
X123449035Y-102857702D01*
X123496654Y-102905321D01*
X123544273Y-103000559D01*
X123544273Y-103238654D01*
X123496654Y-103333892D01*
X123449035Y-103381511D01*
X123353797Y-103429130D01*
X123068083Y-103429130D01*
X122972845Y-103381511D01*
X122925226Y-103333892D01*
X124401416Y-102762464D02*
X124401416Y-103429130D01*
X124163321Y-102381511D02*
X123925226Y-103095797D01*
X124544273Y-103095797D01*
%TO.C,D33*%
X122020464Y-84379130D02*
X122020464Y-83379130D01*
X122258559Y-83379130D01*
X122401416Y-83426750D01*
X122496654Y-83521988D01*
X122544273Y-83617226D01*
X122591892Y-83807702D01*
X122591892Y-83950559D01*
X122544273Y-84141035D01*
X122496654Y-84236273D01*
X122401416Y-84331511D01*
X122258559Y-84379130D01*
X122020464Y-84379130D01*
X122925226Y-83379130D02*
X123544273Y-83379130D01*
X123210940Y-83760083D01*
X123353797Y-83760083D01*
X123449035Y-83807702D01*
X123496654Y-83855321D01*
X123544273Y-83950559D01*
X123544273Y-84188654D01*
X123496654Y-84283892D01*
X123449035Y-84331511D01*
X123353797Y-84379130D01*
X123068083Y-84379130D01*
X122972845Y-84331511D01*
X122925226Y-84283892D01*
X123877607Y-83379130D02*
X124496654Y-83379130D01*
X124163321Y-83760083D01*
X124306178Y-83760083D01*
X124401416Y-83807702D01*
X124449035Y-83855321D01*
X124496654Y-83950559D01*
X124496654Y-84188654D01*
X124449035Y-84283892D01*
X124401416Y-84331511D01*
X124306178Y-84379130D01*
X124020464Y-84379130D01*
X123925226Y-84331511D01*
X123877607Y-84283892D01*
%TO.C,D32*%
X122020464Y-65329130D02*
X122020464Y-64329130D01*
X122258559Y-64329130D01*
X122401416Y-64376750D01*
X122496654Y-64471988D01*
X122544273Y-64567226D01*
X122591892Y-64757702D01*
X122591892Y-64900559D01*
X122544273Y-65091035D01*
X122496654Y-65186273D01*
X122401416Y-65281511D01*
X122258559Y-65329130D01*
X122020464Y-65329130D01*
X122925226Y-64329130D02*
X123544273Y-64329130D01*
X123210940Y-64710083D01*
X123353797Y-64710083D01*
X123449035Y-64757702D01*
X123496654Y-64805321D01*
X123544273Y-64900559D01*
X123544273Y-65138654D01*
X123496654Y-65233892D01*
X123449035Y-65281511D01*
X123353797Y-65329130D01*
X123068083Y-65329130D01*
X122972845Y-65281511D01*
X122925226Y-65233892D01*
X123925226Y-64424369D02*
X123972845Y-64376750D01*
X124068083Y-64329130D01*
X124306178Y-64329130D01*
X124401416Y-64376750D01*
X124449035Y-64424369D01*
X124496654Y-64519607D01*
X124496654Y-64614845D01*
X124449035Y-64757702D01*
X123877607Y-65329130D01*
X124496654Y-65329130D01*
%TO.C,D31*%
X122020464Y-46279130D02*
X122020464Y-45279130D01*
X122258559Y-45279130D01*
X122401416Y-45326750D01*
X122496654Y-45421988D01*
X122544273Y-45517226D01*
X122591892Y-45707702D01*
X122591892Y-45850559D01*
X122544273Y-46041035D01*
X122496654Y-46136273D01*
X122401416Y-46231511D01*
X122258559Y-46279130D01*
X122020464Y-46279130D01*
X122925226Y-45279130D02*
X123544273Y-45279130D01*
X123210940Y-45660083D01*
X123353797Y-45660083D01*
X123449035Y-45707702D01*
X123496654Y-45755321D01*
X123544273Y-45850559D01*
X123544273Y-46088654D01*
X123496654Y-46183892D01*
X123449035Y-46231511D01*
X123353797Y-46279130D01*
X123068083Y-46279130D01*
X122972845Y-46231511D01*
X122925226Y-46183892D01*
X124496654Y-46279130D02*
X123925226Y-46279130D01*
X124210940Y-46279130D02*
X124210940Y-45279130D01*
X124115702Y-45421988D01*
X124020464Y-45517226D01*
X123925226Y-45564845D01*
%TO.C,D30*%
X109912957Y-119642214D02*
X110412957Y-118776189D01*
X110619153Y-118895236D01*
X110719062Y-119007904D01*
X110753921Y-119138002D01*
X110747541Y-119244290D01*
X110693543Y-119433057D01*
X110622114Y-119556775D01*
X110485637Y-119697922D01*
X110396778Y-119756591D01*
X110266681Y-119791451D01*
X110119153Y-119761262D01*
X109912957Y-119642214D01*
X111196504Y-119228570D02*
X111732615Y-119538093D01*
X111253463Y-119701341D01*
X111377181Y-119772770D01*
X111435850Y-119861628D01*
X111453280Y-119926677D01*
X111446900Y-120032965D01*
X111327853Y-120239162D01*
X111238994Y-120297831D01*
X111173945Y-120315260D01*
X111067657Y-120308881D01*
X110820221Y-120166024D01*
X110761552Y-120077165D01*
X110744123Y-120012116D01*
X112268725Y-119847617D02*
X112351204Y-119895236D01*
X112409873Y-119984095D01*
X112427303Y-120049143D01*
X112420923Y-120155432D01*
X112366924Y-120344198D01*
X112247877Y-120550395D01*
X112111399Y-120691543D01*
X112022541Y-120750212D01*
X111957492Y-120767641D01*
X111851204Y-120761262D01*
X111768725Y-120713643D01*
X111710056Y-120624784D01*
X111692627Y-120559735D01*
X111699006Y-120453447D01*
X111753005Y-120264681D01*
X111872053Y-120058484D01*
X112008530Y-119917336D01*
X112097389Y-119858667D01*
X112162437Y-119841237D01*
X112268725Y-119847617D01*
%TO.C,D29*%
X102970464Y-101651130D02*
X102970464Y-100651130D01*
X103208559Y-100651130D01*
X103351416Y-100698750D01*
X103446654Y-100793988D01*
X103494273Y-100889226D01*
X103541892Y-101079702D01*
X103541892Y-101222559D01*
X103494273Y-101413035D01*
X103446654Y-101508273D01*
X103351416Y-101603511D01*
X103208559Y-101651130D01*
X102970464Y-101651130D01*
X103922845Y-100746369D02*
X103970464Y-100698750D01*
X104065702Y-100651130D01*
X104303797Y-100651130D01*
X104399035Y-100698750D01*
X104446654Y-100746369D01*
X104494273Y-100841607D01*
X104494273Y-100936845D01*
X104446654Y-101079702D01*
X103875226Y-101651130D01*
X104494273Y-101651130D01*
X104970464Y-101651130D02*
X105160940Y-101651130D01*
X105256178Y-101603511D01*
X105303797Y-101555892D01*
X105399035Y-101413035D01*
X105446654Y-101222559D01*
X105446654Y-100841607D01*
X105399035Y-100746369D01*
X105351416Y-100698750D01*
X105256178Y-100651130D01*
X105065702Y-100651130D01*
X104970464Y-100698750D01*
X104922845Y-100746369D01*
X104875226Y-100841607D01*
X104875226Y-101079702D01*
X104922845Y-101174940D01*
X104970464Y-101222559D01*
X105065702Y-101270178D01*
X105256178Y-101270178D01*
X105351416Y-101222559D01*
X105399035Y-101174940D01*
X105446654Y-101079702D01*
%TO.C,D28*%
X102970464Y-82696380D02*
X102970464Y-81696380D01*
X103208559Y-81696380D01*
X103351416Y-81744000D01*
X103446654Y-81839238D01*
X103494273Y-81934476D01*
X103541892Y-82124952D01*
X103541892Y-82267809D01*
X103494273Y-82458285D01*
X103446654Y-82553523D01*
X103351416Y-82648761D01*
X103208559Y-82696380D01*
X102970464Y-82696380D01*
X103922845Y-81791619D02*
X103970464Y-81744000D01*
X104065702Y-81696380D01*
X104303797Y-81696380D01*
X104399035Y-81744000D01*
X104446654Y-81791619D01*
X104494273Y-81886857D01*
X104494273Y-81982095D01*
X104446654Y-82124952D01*
X103875226Y-82696380D01*
X104494273Y-82696380D01*
X105065702Y-82124952D02*
X104970464Y-82077333D01*
X104922845Y-82029714D01*
X104875226Y-81934476D01*
X104875226Y-81886857D01*
X104922845Y-81791619D01*
X104970464Y-81744000D01*
X105065702Y-81696380D01*
X105256178Y-81696380D01*
X105351416Y-81744000D01*
X105399035Y-81791619D01*
X105446654Y-81886857D01*
X105446654Y-81934476D01*
X105399035Y-82029714D01*
X105351416Y-82077333D01*
X105256178Y-82124952D01*
X105065702Y-82124952D01*
X104970464Y-82172571D01*
X104922845Y-82220190D01*
X104875226Y-82315428D01*
X104875226Y-82505904D01*
X104922845Y-82601142D01*
X104970464Y-82648761D01*
X105065702Y-82696380D01*
X105256178Y-82696380D01*
X105351416Y-82648761D01*
X105399035Y-82601142D01*
X105446654Y-82505904D01*
X105446654Y-82315428D01*
X105399035Y-82220190D01*
X105351416Y-82172571D01*
X105256178Y-82124952D01*
%TO.C,D27*%
X102970464Y-63678130D02*
X102970464Y-62678130D01*
X103208559Y-62678130D01*
X103351416Y-62725750D01*
X103446654Y-62820988D01*
X103494273Y-62916226D01*
X103541892Y-63106702D01*
X103541892Y-63249559D01*
X103494273Y-63440035D01*
X103446654Y-63535273D01*
X103351416Y-63630511D01*
X103208559Y-63678130D01*
X102970464Y-63678130D01*
X103922845Y-62773369D02*
X103970464Y-62725750D01*
X104065702Y-62678130D01*
X104303797Y-62678130D01*
X104399035Y-62725750D01*
X104446654Y-62773369D01*
X104494273Y-62868607D01*
X104494273Y-62963845D01*
X104446654Y-63106702D01*
X103875226Y-63678130D01*
X104494273Y-63678130D01*
X104827607Y-62678130D02*
X105494273Y-62678130D01*
X105065702Y-63678130D01*
%TO.C,D26*%
X102970464Y-44628130D02*
X102970464Y-43628130D01*
X103208559Y-43628130D01*
X103351416Y-43675750D01*
X103446654Y-43770988D01*
X103494273Y-43866226D01*
X103541892Y-44056702D01*
X103541892Y-44199559D01*
X103494273Y-44390035D01*
X103446654Y-44485273D01*
X103351416Y-44580511D01*
X103208559Y-44628130D01*
X102970464Y-44628130D01*
X103922845Y-43723369D02*
X103970464Y-43675750D01*
X104065702Y-43628130D01*
X104303797Y-43628130D01*
X104399035Y-43675750D01*
X104446654Y-43723369D01*
X104494273Y-43818607D01*
X104494273Y-43913845D01*
X104446654Y-44056702D01*
X103875226Y-44628130D01*
X104494273Y-44628130D01*
X105351416Y-43628130D02*
X105160940Y-43628130D01*
X105065702Y-43675750D01*
X105018083Y-43723369D01*
X104922845Y-43866226D01*
X104875226Y-44056702D01*
X104875226Y-44437654D01*
X104922845Y-44532892D01*
X104970464Y-44580511D01*
X105065702Y-44628130D01*
X105256178Y-44628130D01*
X105351416Y-44580511D01*
X105399035Y-44532892D01*
X105446654Y-44437654D01*
X105446654Y-44199559D01*
X105399035Y-44104321D01*
X105351416Y-44056702D01*
X105256178Y-44009083D01*
X105065702Y-44009083D01*
X104970464Y-44056702D01*
X104922845Y-44104321D01*
X104875226Y-44199559D01*
%TO.C,D25*%
X83920464Y-118923130D02*
X83920464Y-117923130D01*
X84158559Y-117923130D01*
X84301416Y-117970750D01*
X84396654Y-118065988D01*
X84444273Y-118161226D01*
X84491892Y-118351702D01*
X84491892Y-118494559D01*
X84444273Y-118685035D01*
X84396654Y-118780273D01*
X84301416Y-118875511D01*
X84158559Y-118923130D01*
X83920464Y-118923130D01*
X84872845Y-118018369D02*
X84920464Y-117970750D01*
X85015702Y-117923130D01*
X85253797Y-117923130D01*
X85349035Y-117970750D01*
X85396654Y-118018369D01*
X85444273Y-118113607D01*
X85444273Y-118208845D01*
X85396654Y-118351702D01*
X84825226Y-118923130D01*
X85444273Y-118923130D01*
X86349035Y-117923130D02*
X85872845Y-117923130D01*
X85825226Y-118399321D01*
X85872845Y-118351702D01*
X85968083Y-118304083D01*
X86206178Y-118304083D01*
X86301416Y-118351702D01*
X86349035Y-118399321D01*
X86396654Y-118494559D01*
X86396654Y-118732654D01*
X86349035Y-118827892D01*
X86301416Y-118875511D01*
X86206178Y-118923130D01*
X85968083Y-118923130D01*
X85872845Y-118875511D01*
X85825226Y-118827892D01*
%TO.C,D24*%
X83920464Y-99873130D02*
X83920464Y-98873130D01*
X84158559Y-98873130D01*
X84301416Y-98920750D01*
X84396654Y-99015988D01*
X84444273Y-99111226D01*
X84491892Y-99301702D01*
X84491892Y-99444559D01*
X84444273Y-99635035D01*
X84396654Y-99730273D01*
X84301416Y-99825511D01*
X84158559Y-99873130D01*
X83920464Y-99873130D01*
X84872845Y-98968369D02*
X84920464Y-98920750D01*
X85015702Y-98873130D01*
X85253797Y-98873130D01*
X85349035Y-98920750D01*
X85396654Y-98968369D01*
X85444273Y-99063607D01*
X85444273Y-99158845D01*
X85396654Y-99301702D01*
X84825226Y-99873130D01*
X85444273Y-99873130D01*
X86301416Y-99206464D02*
X86301416Y-99873130D01*
X86063321Y-98825511D02*
X85825226Y-99539797D01*
X86444273Y-99539797D01*
%TO.C,D23*%
X83920464Y-80696130D02*
X83920464Y-79696130D01*
X84158559Y-79696130D01*
X84301416Y-79743750D01*
X84396654Y-79838988D01*
X84444273Y-79934226D01*
X84491892Y-80124702D01*
X84491892Y-80267559D01*
X84444273Y-80458035D01*
X84396654Y-80553273D01*
X84301416Y-80648511D01*
X84158559Y-80696130D01*
X83920464Y-80696130D01*
X84872845Y-79791369D02*
X84920464Y-79743750D01*
X85015702Y-79696130D01*
X85253797Y-79696130D01*
X85349035Y-79743750D01*
X85396654Y-79791369D01*
X85444273Y-79886607D01*
X85444273Y-79981845D01*
X85396654Y-80124702D01*
X84825226Y-80696130D01*
X85444273Y-80696130D01*
X85777607Y-79696130D02*
X86396654Y-79696130D01*
X86063321Y-80077083D01*
X86206178Y-80077083D01*
X86301416Y-80124702D01*
X86349035Y-80172321D01*
X86396654Y-80267559D01*
X86396654Y-80505654D01*
X86349035Y-80600892D01*
X86301416Y-80648511D01*
X86206178Y-80696130D01*
X85920464Y-80696130D01*
X85825226Y-80648511D01*
X85777607Y-80600892D01*
%TO.C,D22*%
X83920464Y-61773130D02*
X83920464Y-60773130D01*
X84158559Y-60773130D01*
X84301416Y-60820750D01*
X84396654Y-60915988D01*
X84444273Y-61011226D01*
X84491892Y-61201702D01*
X84491892Y-61344559D01*
X84444273Y-61535035D01*
X84396654Y-61630273D01*
X84301416Y-61725511D01*
X84158559Y-61773130D01*
X83920464Y-61773130D01*
X84872845Y-60868369D02*
X84920464Y-60820750D01*
X85015702Y-60773130D01*
X85253797Y-60773130D01*
X85349035Y-60820750D01*
X85396654Y-60868369D01*
X85444273Y-60963607D01*
X85444273Y-61058845D01*
X85396654Y-61201702D01*
X84825226Y-61773130D01*
X85444273Y-61773130D01*
X85825226Y-60868369D02*
X85872845Y-60820750D01*
X85968083Y-60773130D01*
X86206178Y-60773130D01*
X86301416Y-60820750D01*
X86349035Y-60868369D01*
X86396654Y-60963607D01*
X86396654Y-61058845D01*
X86349035Y-61201702D01*
X85777607Y-61773130D01*
X86396654Y-61773130D01*
%TO.C,D21*%
X83920464Y-42723130D02*
X83920464Y-41723130D01*
X84158559Y-41723130D01*
X84301416Y-41770750D01*
X84396654Y-41865988D01*
X84444273Y-41961226D01*
X84491892Y-42151702D01*
X84491892Y-42294559D01*
X84444273Y-42485035D01*
X84396654Y-42580273D01*
X84301416Y-42675511D01*
X84158559Y-42723130D01*
X83920464Y-42723130D01*
X84872845Y-41818369D02*
X84920464Y-41770750D01*
X85015702Y-41723130D01*
X85253797Y-41723130D01*
X85349035Y-41770750D01*
X85396654Y-41818369D01*
X85444273Y-41913607D01*
X85444273Y-42008845D01*
X85396654Y-42151702D01*
X84825226Y-42723130D01*
X85444273Y-42723130D01*
X86396654Y-42723130D02*
X85825226Y-42723130D01*
X86110940Y-42723130D02*
X86110940Y-41723130D01*
X86015702Y-41865988D01*
X85920464Y-41961226D01*
X85825226Y-42008845D01*
%TO.C,D20*%
X64870464Y-116129130D02*
X64870464Y-115129130D01*
X65108559Y-115129130D01*
X65251416Y-115176750D01*
X65346654Y-115271988D01*
X65394273Y-115367226D01*
X65441892Y-115557702D01*
X65441892Y-115700559D01*
X65394273Y-115891035D01*
X65346654Y-115986273D01*
X65251416Y-116081511D01*
X65108559Y-116129130D01*
X64870464Y-116129130D01*
X65822845Y-115224369D02*
X65870464Y-115176750D01*
X65965702Y-115129130D01*
X66203797Y-115129130D01*
X66299035Y-115176750D01*
X66346654Y-115224369D01*
X66394273Y-115319607D01*
X66394273Y-115414845D01*
X66346654Y-115557702D01*
X65775226Y-116129130D01*
X66394273Y-116129130D01*
X67013321Y-115129130D02*
X67108559Y-115129130D01*
X67203797Y-115176750D01*
X67251416Y-115224369D01*
X67299035Y-115319607D01*
X67346654Y-115510083D01*
X67346654Y-115748178D01*
X67299035Y-115938654D01*
X67251416Y-116033892D01*
X67203797Y-116081511D01*
X67108559Y-116129130D01*
X67013321Y-116129130D01*
X66918083Y-116081511D01*
X66870464Y-116033892D01*
X66822845Y-115938654D01*
X66775226Y-115748178D01*
X66775226Y-115510083D01*
X66822845Y-115319607D01*
X66870464Y-115224369D01*
X66918083Y-115176750D01*
X67013321Y-115129130D01*
%TO.C,D19*%
X64870464Y-97079130D02*
X64870464Y-96079130D01*
X65108559Y-96079130D01*
X65251416Y-96126750D01*
X65346654Y-96221988D01*
X65394273Y-96317226D01*
X65441892Y-96507702D01*
X65441892Y-96650559D01*
X65394273Y-96841035D01*
X65346654Y-96936273D01*
X65251416Y-97031511D01*
X65108559Y-97079130D01*
X64870464Y-97079130D01*
X66394273Y-97079130D02*
X65822845Y-97079130D01*
X66108559Y-97079130D02*
X66108559Y-96079130D01*
X66013321Y-96221988D01*
X65918083Y-96317226D01*
X65822845Y-96364845D01*
X66870464Y-97079130D02*
X67060940Y-97079130D01*
X67156178Y-97031511D01*
X67203797Y-96983892D01*
X67299035Y-96841035D01*
X67346654Y-96650559D01*
X67346654Y-96269607D01*
X67299035Y-96174369D01*
X67251416Y-96126750D01*
X67156178Y-96079130D01*
X66965702Y-96079130D01*
X66870464Y-96126750D01*
X66822845Y-96174369D01*
X66775226Y-96269607D01*
X66775226Y-96507702D01*
X66822845Y-96602940D01*
X66870464Y-96650559D01*
X66965702Y-96698178D01*
X67156178Y-96698178D01*
X67251416Y-96650559D01*
X67299035Y-96602940D01*
X67346654Y-96507702D01*
%TO.C,D18*%
X64870464Y-78029130D02*
X64870464Y-77029130D01*
X65108559Y-77029130D01*
X65251416Y-77076750D01*
X65346654Y-77171988D01*
X65394273Y-77267226D01*
X65441892Y-77457702D01*
X65441892Y-77600559D01*
X65394273Y-77791035D01*
X65346654Y-77886273D01*
X65251416Y-77981511D01*
X65108559Y-78029130D01*
X64870464Y-78029130D01*
X66394273Y-78029130D02*
X65822845Y-78029130D01*
X66108559Y-78029130D02*
X66108559Y-77029130D01*
X66013321Y-77171988D01*
X65918083Y-77267226D01*
X65822845Y-77314845D01*
X66965702Y-77457702D02*
X66870464Y-77410083D01*
X66822845Y-77362464D01*
X66775226Y-77267226D01*
X66775226Y-77219607D01*
X66822845Y-77124369D01*
X66870464Y-77076750D01*
X66965702Y-77029130D01*
X67156178Y-77029130D01*
X67251416Y-77076750D01*
X67299035Y-77124369D01*
X67346654Y-77219607D01*
X67346654Y-77267226D01*
X67299035Y-77362464D01*
X67251416Y-77410083D01*
X67156178Y-77457702D01*
X66965702Y-77457702D01*
X66870464Y-77505321D01*
X66822845Y-77552940D01*
X66775226Y-77648178D01*
X66775226Y-77838654D01*
X66822845Y-77933892D01*
X66870464Y-77981511D01*
X66965702Y-78029130D01*
X67156178Y-78029130D01*
X67251416Y-77981511D01*
X67299035Y-77933892D01*
X67346654Y-77838654D01*
X67346654Y-77648178D01*
X67299035Y-77552940D01*
X67251416Y-77505321D01*
X67156178Y-77457702D01*
%TO.C,D17*%
X64870464Y-58979130D02*
X64870464Y-57979130D01*
X65108559Y-57979130D01*
X65251416Y-58026750D01*
X65346654Y-58121988D01*
X65394273Y-58217226D01*
X65441892Y-58407702D01*
X65441892Y-58550559D01*
X65394273Y-58741035D01*
X65346654Y-58836273D01*
X65251416Y-58931511D01*
X65108559Y-58979130D01*
X64870464Y-58979130D01*
X66394273Y-58979130D02*
X65822845Y-58979130D01*
X66108559Y-58979130D02*
X66108559Y-57979130D01*
X66013321Y-58121988D01*
X65918083Y-58217226D01*
X65822845Y-58264845D01*
X66727607Y-57979130D02*
X67394273Y-57979130D01*
X66965702Y-58979130D01*
%TO.C,D16*%
X64870464Y-39802130D02*
X64870464Y-38802130D01*
X65108559Y-38802130D01*
X65251416Y-38849750D01*
X65346654Y-38944988D01*
X65394273Y-39040226D01*
X65441892Y-39230702D01*
X65441892Y-39373559D01*
X65394273Y-39564035D01*
X65346654Y-39659273D01*
X65251416Y-39754511D01*
X65108559Y-39802130D01*
X64870464Y-39802130D01*
X66394273Y-39802130D02*
X65822845Y-39802130D01*
X66108559Y-39802130D02*
X66108559Y-38802130D01*
X66013321Y-38944988D01*
X65918083Y-39040226D01*
X65822845Y-39087845D01*
X67251416Y-38802130D02*
X67060940Y-38802130D01*
X66965702Y-38849750D01*
X66918083Y-38897369D01*
X66822845Y-39040226D01*
X66775226Y-39230702D01*
X66775226Y-39611654D01*
X66822845Y-39706892D01*
X66870464Y-39754511D01*
X66965702Y-39802130D01*
X67156178Y-39802130D01*
X67251416Y-39754511D01*
X67299035Y-39706892D01*
X67346654Y-39611654D01*
X67346654Y-39373559D01*
X67299035Y-39278321D01*
X67251416Y-39230702D01*
X67156178Y-39183083D01*
X66965702Y-39183083D01*
X66870464Y-39230702D01*
X66822845Y-39278321D01*
X66775226Y-39373559D01*
%TO.C,D15*%
X45820464Y-118923130D02*
X45820464Y-117923130D01*
X46058559Y-117923130D01*
X46201416Y-117970750D01*
X46296654Y-118065988D01*
X46344273Y-118161226D01*
X46391892Y-118351702D01*
X46391892Y-118494559D01*
X46344273Y-118685035D01*
X46296654Y-118780273D01*
X46201416Y-118875511D01*
X46058559Y-118923130D01*
X45820464Y-118923130D01*
X47344273Y-118923130D02*
X46772845Y-118923130D01*
X47058559Y-118923130D02*
X47058559Y-117923130D01*
X46963321Y-118065988D01*
X46868083Y-118161226D01*
X46772845Y-118208845D01*
X48249035Y-117923130D02*
X47772845Y-117923130D01*
X47725226Y-118399321D01*
X47772845Y-118351702D01*
X47868083Y-118304083D01*
X48106178Y-118304083D01*
X48201416Y-118351702D01*
X48249035Y-118399321D01*
X48296654Y-118494559D01*
X48296654Y-118732654D01*
X48249035Y-118827892D01*
X48201416Y-118875511D01*
X48106178Y-118923130D01*
X47868083Y-118923130D01*
X47772845Y-118875511D01*
X47725226Y-118827892D01*
%TO.C,D14*%
X45820464Y-99873130D02*
X45820464Y-98873130D01*
X46058559Y-98873130D01*
X46201416Y-98920750D01*
X46296654Y-99015988D01*
X46344273Y-99111226D01*
X46391892Y-99301702D01*
X46391892Y-99444559D01*
X46344273Y-99635035D01*
X46296654Y-99730273D01*
X46201416Y-99825511D01*
X46058559Y-99873130D01*
X45820464Y-99873130D01*
X47344273Y-99873130D02*
X46772845Y-99873130D01*
X47058559Y-99873130D02*
X47058559Y-98873130D01*
X46963321Y-99015988D01*
X46868083Y-99111226D01*
X46772845Y-99158845D01*
X48201416Y-99206464D02*
X48201416Y-99873130D01*
X47963321Y-98825511D02*
X47725226Y-99539797D01*
X48344273Y-99539797D01*
%TO.C,D13*%
X45820464Y-80823130D02*
X45820464Y-79823130D01*
X46058559Y-79823130D01*
X46201416Y-79870750D01*
X46296654Y-79965988D01*
X46344273Y-80061226D01*
X46391892Y-80251702D01*
X46391892Y-80394559D01*
X46344273Y-80585035D01*
X46296654Y-80680273D01*
X46201416Y-80775511D01*
X46058559Y-80823130D01*
X45820464Y-80823130D01*
X47344273Y-80823130D02*
X46772845Y-80823130D01*
X47058559Y-80823130D02*
X47058559Y-79823130D01*
X46963321Y-79965988D01*
X46868083Y-80061226D01*
X46772845Y-80108845D01*
X47677607Y-79823130D02*
X48296654Y-79823130D01*
X47963321Y-80204083D01*
X48106178Y-80204083D01*
X48201416Y-80251702D01*
X48249035Y-80299321D01*
X48296654Y-80394559D01*
X48296654Y-80632654D01*
X48249035Y-80727892D01*
X48201416Y-80775511D01*
X48106178Y-80823130D01*
X47820464Y-80823130D01*
X47725226Y-80775511D01*
X47677607Y-80727892D01*
%TO.C,D12*%
X45817464Y-61773130D02*
X45817464Y-60773130D01*
X46055559Y-60773130D01*
X46198416Y-60820750D01*
X46293654Y-60915988D01*
X46341273Y-61011226D01*
X46388892Y-61201702D01*
X46388892Y-61344559D01*
X46341273Y-61535035D01*
X46293654Y-61630273D01*
X46198416Y-61725511D01*
X46055559Y-61773130D01*
X45817464Y-61773130D01*
X47341273Y-61773130D02*
X46769845Y-61773130D01*
X47055559Y-61773130D02*
X47055559Y-60773130D01*
X46960321Y-60915988D01*
X46865083Y-61011226D01*
X46769845Y-61058845D01*
X47722226Y-60868369D02*
X47769845Y-60820750D01*
X47865083Y-60773130D01*
X48103178Y-60773130D01*
X48198416Y-60820750D01*
X48246035Y-60868369D01*
X48293654Y-60963607D01*
X48293654Y-61058845D01*
X48246035Y-61201702D01*
X47674607Y-61773130D01*
X48293654Y-61773130D01*
%TO.C,D11*%
X45823464Y-42723130D02*
X45823464Y-41723130D01*
X46061559Y-41723130D01*
X46204416Y-41770750D01*
X46299654Y-41865988D01*
X46347273Y-41961226D01*
X46394892Y-42151702D01*
X46394892Y-42294559D01*
X46347273Y-42485035D01*
X46299654Y-42580273D01*
X46204416Y-42675511D01*
X46061559Y-42723130D01*
X45823464Y-42723130D01*
X47347273Y-42723130D02*
X46775845Y-42723130D01*
X47061559Y-42723130D02*
X47061559Y-41723130D01*
X46966321Y-41865988D01*
X46871083Y-41961226D01*
X46775845Y-42008845D01*
X48299654Y-42723130D02*
X47728226Y-42723130D01*
X48013940Y-42723130D02*
X48013940Y-41723130D01*
X47918702Y-41865988D01*
X47823464Y-41961226D01*
X47728226Y-42008845D01*
%TO.C,D10*%
X26770464Y-122479130D02*
X26770464Y-121479130D01*
X27008559Y-121479130D01*
X27151416Y-121526750D01*
X27246654Y-121621988D01*
X27294273Y-121717226D01*
X27341892Y-121907702D01*
X27341892Y-122050559D01*
X27294273Y-122241035D01*
X27246654Y-122336273D01*
X27151416Y-122431511D01*
X27008559Y-122479130D01*
X26770464Y-122479130D01*
X28294273Y-122479130D02*
X27722845Y-122479130D01*
X28008559Y-122479130D02*
X28008559Y-121479130D01*
X27913321Y-121621988D01*
X27818083Y-121717226D01*
X27722845Y-121764845D01*
X28913321Y-121479130D02*
X29008559Y-121479130D01*
X29103797Y-121526750D01*
X29151416Y-121574369D01*
X29199035Y-121669607D01*
X29246654Y-121860083D01*
X29246654Y-122098178D01*
X29199035Y-122288654D01*
X29151416Y-122383892D01*
X29103797Y-122431511D01*
X29008559Y-122479130D01*
X28913321Y-122479130D01*
X28818083Y-122431511D01*
X28770464Y-122383892D01*
X28722845Y-122288654D01*
X28675226Y-122098178D01*
X28675226Y-121860083D01*
X28722845Y-121669607D01*
X28770464Y-121574369D01*
X28818083Y-121526750D01*
X28913321Y-121479130D01*
%TO.C,D9*%
X27246654Y-103429130D02*
X27246654Y-102429130D01*
X27484750Y-102429130D01*
X27627607Y-102476750D01*
X27722845Y-102571988D01*
X27770464Y-102667226D01*
X27818083Y-102857702D01*
X27818083Y-103000559D01*
X27770464Y-103191035D01*
X27722845Y-103286273D01*
X27627607Y-103381511D01*
X27484750Y-103429130D01*
X27246654Y-103429130D01*
X28294273Y-103429130D02*
X28484750Y-103429130D01*
X28579988Y-103381511D01*
X28627607Y-103333892D01*
X28722845Y-103191035D01*
X28770464Y-103000559D01*
X28770464Y-102619607D01*
X28722845Y-102524369D01*
X28675226Y-102476750D01*
X28579988Y-102429130D01*
X28389511Y-102429130D01*
X28294273Y-102476750D01*
X28246654Y-102524369D01*
X28199035Y-102619607D01*
X28199035Y-102857702D01*
X28246654Y-102952940D01*
X28294273Y-103000559D01*
X28389511Y-103048178D01*
X28579988Y-103048178D01*
X28675226Y-103000559D01*
X28722845Y-102952940D01*
X28770464Y-102857702D01*
%TO.C,D8*%
X27246654Y-84379130D02*
X27246654Y-83379130D01*
X27484750Y-83379130D01*
X27627607Y-83426750D01*
X27722845Y-83521988D01*
X27770464Y-83617226D01*
X27818083Y-83807702D01*
X27818083Y-83950559D01*
X27770464Y-84141035D01*
X27722845Y-84236273D01*
X27627607Y-84331511D01*
X27484750Y-84379130D01*
X27246654Y-84379130D01*
X28389511Y-83807702D02*
X28294273Y-83760083D01*
X28246654Y-83712464D01*
X28199035Y-83617226D01*
X28199035Y-83569607D01*
X28246654Y-83474369D01*
X28294273Y-83426750D01*
X28389511Y-83379130D01*
X28579988Y-83379130D01*
X28675226Y-83426750D01*
X28722845Y-83474369D01*
X28770464Y-83569607D01*
X28770464Y-83617226D01*
X28722845Y-83712464D01*
X28675226Y-83760083D01*
X28579988Y-83807702D01*
X28389511Y-83807702D01*
X28294273Y-83855321D01*
X28246654Y-83902940D01*
X28199035Y-83998178D01*
X28199035Y-84188654D01*
X28246654Y-84283892D01*
X28294273Y-84331511D01*
X28389511Y-84379130D01*
X28579988Y-84379130D01*
X28675226Y-84331511D01*
X28722845Y-84283892D01*
X28770464Y-84188654D01*
X28770464Y-83998178D01*
X28722845Y-83902940D01*
X28675226Y-83855321D01*
X28579988Y-83807702D01*
%TO.C,D7*%
X27246654Y-65329130D02*
X27246654Y-64329130D01*
X27484750Y-64329130D01*
X27627607Y-64376750D01*
X27722845Y-64471988D01*
X27770464Y-64567226D01*
X27818083Y-64757702D01*
X27818083Y-64900559D01*
X27770464Y-65091035D01*
X27722845Y-65186273D01*
X27627607Y-65281511D01*
X27484750Y-65329130D01*
X27246654Y-65329130D01*
X28151416Y-64329130D02*
X28818083Y-64329130D01*
X28389511Y-65329130D01*
%TO.C,D6*%
X27246654Y-46279130D02*
X27246654Y-45279130D01*
X27484750Y-45279130D01*
X27627607Y-45326750D01*
X27722845Y-45421988D01*
X27770464Y-45517226D01*
X27818083Y-45707702D01*
X27818083Y-45850559D01*
X27770464Y-46041035D01*
X27722845Y-46136273D01*
X27627607Y-46231511D01*
X27484750Y-46279130D01*
X27246654Y-46279130D01*
X28675226Y-45279130D02*
X28484750Y-45279130D01*
X28389511Y-45326750D01*
X28341892Y-45374369D01*
X28246654Y-45517226D01*
X28199035Y-45707702D01*
X28199035Y-46088654D01*
X28246654Y-46183892D01*
X28294273Y-46231511D01*
X28389511Y-46279130D01*
X28579988Y-46279130D01*
X28675226Y-46231511D01*
X28722845Y-46183892D01*
X28770464Y-46088654D01*
X28770464Y-45850559D01*
X28722845Y-45755321D01*
X28675226Y-45707702D01*
X28579988Y-45660083D01*
X28389511Y-45660083D01*
X28294273Y-45707702D01*
X28246654Y-45755321D01*
X28199035Y-45850559D01*
%TO.C,D5*%
X3370654Y-122479130D02*
X3370654Y-121479130D01*
X3608750Y-121479130D01*
X3751607Y-121526750D01*
X3846845Y-121621988D01*
X3894464Y-121717226D01*
X3942083Y-121907702D01*
X3942083Y-122050559D01*
X3894464Y-122241035D01*
X3846845Y-122336273D01*
X3751607Y-122431511D01*
X3608750Y-122479130D01*
X3370654Y-122479130D01*
X4846845Y-121479130D02*
X4370654Y-121479130D01*
X4323035Y-121955321D01*
X4370654Y-121907702D01*
X4465892Y-121860083D01*
X4703988Y-121860083D01*
X4799226Y-121907702D01*
X4846845Y-121955321D01*
X4894464Y-122050559D01*
X4894464Y-122288654D01*
X4846845Y-122383892D01*
X4799226Y-122431511D01*
X4703988Y-122479130D01*
X4465892Y-122479130D01*
X4370654Y-122431511D01*
X4323035Y-122383892D01*
%TO.C,D4*%
X3370654Y-103429130D02*
X3370654Y-102429130D01*
X3608750Y-102429130D01*
X3751607Y-102476750D01*
X3846845Y-102571988D01*
X3894464Y-102667226D01*
X3942083Y-102857702D01*
X3942083Y-103000559D01*
X3894464Y-103191035D01*
X3846845Y-103286273D01*
X3751607Y-103381511D01*
X3608750Y-103429130D01*
X3370654Y-103429130D01*
X4799226Y-102762464D02*
X4799226Y-103429130D01*
X4561130Y-102381511D02*
X4323035Y-103095797D01*
X4942083Y-103095797D01*
%TO.C,D3*%
X3370654Y-84379130D02*
X3370654Y-83379130D01*
X3608750Y-83379130D01*
X3751607Y-83426750D01*
X3846845Y-83521988D01*
X3894464Y-83617226D01*
X3942083Y-83807702D01*
X3942083Y-83950559D01*
X3894464Y-84141035D01*
X3846845Y-84236273D01*
X3751607Y-84331511D01*
X3608750Y-84379130D01*
X3370654Y-84379130D01*
X4275416Y-83379130D02*
X4894464Y-83379130D01*
X4561130Y-83760083D01*
X4703988Y-83760083D01*
X4799226Y-83807702D01*
X4846845Y-83855321D01*
X4894464Y-83950559D01*
X4894464Y-84188654D01*
X4846845Y-84283892D01*
X4799226Y-84331511D01*
X4703988Y-84379130D01*
X4418273Y-84379130D01*
X4323035Y-84331511D01*
X4275416Y-84283892D01*
%TO.C,D2*%
X3370654Y-65329130D02*
X3370654Y-64329130D01*
X3608750Y-64329130D01*
X3751607Y-64376750D01*
X3846845Y-64471988D01*
X3894464Y-64567226D01*
X3942083Y-64757702D01*
X3942083Y-64900559D01*
X3894464Y-65091035D01*
X3846845Y-65186273D01*
X3751607Y-65281511D01*
X3608750Y-65329130D01*
X3370654Y-65329130D01*
X4323035Y-64424369D02*
X4370654Y-64376750D01*
X4465892Y-64329130D01*
X4703988Y-64329130D01*
X4799226Y-64376750D01*
X4846845Y-64424369D01*
X4894464Y-64519607D01*
X4894464Y-64614845D01*
X4846845Y-64757702D01*
X4275416Y-65329130D01*
X4894464Y-65329130D01*
%TO.C,D1*%
X3367654Y-48057130D02*
X3367654Y-47057130D01*
X3605750Y-47057130D01*
X3748607Y-47104750D01*
X3843845Y-47199988D01*
X3891464Y-47295226D01*
X3939083Y-47485702D01*
X3939083Y-47628559D01*
X3891464Y-47819035D01*
X3843845Y-47914273D01*
X3748607Y-48009511D01*
X3605750Y-48057130D01*
X3367654Y-48057130D01*
X4891464Y-48057130D02*
X4320035Y-48057130D01*
X4605750Y-48057130D02*
X4605750Y-47057130D01*
X4510511Y-47199988D01*
X4415273Y-47295226D01*
X4320035Y-47342845D01*
%TO.C,GND*%
X124663595Y-33526000D02*
X124568357Y-33478380D01*
X124425500Y-33478380D01*
X124282642Y-33526000D01*
X124187404Y-33621238D01*
X124139785Y-33716476D01*
X124092166Y-33906952D01*
X124092166Y-34049809D01*
X124139785Y-34240285D01*
X124187404Y-34335523D01*
X124282642Y-34430761D01*
X124425500Y-34478380D01*
X124520738Y-34478380D01*
X124663595Y-34430761D01*
X124711214Y-34383142D01*
X124711214Y-34049809D01*
X124520738Y-34049809D01*
X125139785Y-34478380D02*
X125139785Y-33478380D01*
X125711214Y-34478380D01*
X125711214Y-33478380D01*
X126187404Y-34478380D02*
X126187404Y-33478380D01*
X126425500Y-33478380D01*
X126568357Y-33526000D01*
X126663595Y-33621238D01*
X126711214Y-33716476D01*
X126758833Y-33906952D01*
X126758833Y-34049809D01*
X126711214Y-34240285D01*
X126663595Y-34335523D01*
X126568357Y-34430761D01*
X126425500Y-34478380D01*
X126187404Y-34478380D01*
%TO.C,RESET*%
X120544119Y-39431380D02*
X120210785Y-38955190D01*
X119972690Y-39431380D02*
X119972690Y-38431380D01*
X120353642Y-38431380D01*
X120448880Y-38479000D01*
X120496500Y-38526619D01*
X120544119Y-38621857D01*
X120544119Y-38764714D01*
X120496500Y-38859952D01*
X120448880Y-38907571D01*
X120353642Y-38955190D01*
X119972690Y-38955190D01*
X120972690Y-38907571D02*
X121306023Y-38907571D01*
X121448880Y-39431380D02*
X120972690Y-39431380D01*
X120972690Y-38431380D01*
X121448880Y-38431380D01*
X121829833Y-39383761D02*
X121972690Y-39431380D01*
X122210785Y-39431380D01*
X122306023Y-39383761D01*
X122353642Y-39336142D01*
X122401261Y-39240904D01*
X122401261Y-39145666D01*
X122353642Y-39050428D01*
X122306023Y-39002809D01*
X122210785Y-38955190D01*
X122020309Y-38907571D01*
X121925071Y-38859952D01*
X121877452Y-38812333D01*
X121829833Y-38717095D01*
X121829833Y-38621857D01*
X121877452Y-38526619D01*
X121925071Y-38479000D01*
X122020309Y-38431380D01*
X122258404Y-38431380D01*
X122401261Y-38479000D01*
X122829833Y-38907571D02*
X123163166Y-38907571D01*
X123306023Y-39431380D02*
X122829833Y-39431380D01*
X122829833Y-38431380D01*
X123306023Y-38431380D01*
X123591738Y-38431380D02*
X124163166Y-38431380D01*
X123877452Y-39431380D02*
X123877452Y-38431380D01*
%TO.C,GND*%
X172320345Y-38225000D02*
X172225107Y-38177380D01*
X172082250Y-38177380D01*
X171939392Y-38225000D01*
X171844154Y-38320238D01*
X171796535Y-38415476D01*
X171748916Y-38605952D01*
X171748916Y-38748809D01*
X171796535Y-38939285D01*
X171844154Y-39034523D01*
X171939392Y-39129761D01*
X172082250Y-39177380D01*
X172177488Y-39177380D01*
X172320345Y-39129761D01*
X172367964Y-39082142D01*
X172367964Y-38748809D01*
X172177488Y-38748809D01*
X172796535Y-39177380D02*
X172796535Y-38177380D01*
X173367964Y-39177380D01*
X173367964Y-38177380D01*
X173844154Y-39177380D02*
X173844154Y-38177380D01*
X174082250Y-38177380D01*
X174225107Y-38225000D01*
X174320345Y-38320238D01*
X174367964Y-38415476D01*
X174415583Y-38605952D01*
X174415583Y-38748809D01*
X174367964Y-38939285D01*
X174320345Y-39034523D01*
X174225107Y-39129761D01*
X174082250Y-39177380D01*
X173844154Y-39177380D01*
%TO.C,RESET*%
X162250619Y-39314380D02*
X161917285Y-38838190D01*
X161679190Y-39314380D02*
X161679190Y-38314380D01*
X162060142Y-38314380D01*
X162155380Y-38362000D01*
X162203000Y-38409619D01*
X162250619Y-38504857D01*
X162250619Y-38647714D01*
X162203000Y-38742952D01*
X162155380Y-38790571D01*
X162060142Y-38838190D01*
X161679190Y-38838190D01*
X162679190Y-38790571D02*
X163012523Y-38790571D01*
X163155380Y-39314380D02*
X162679190Y-39314380D01*
X162679190Y-38314380D01*
X163155380Y-38314380D01*
X163536333Y-39266761D02*
X163679190Y-39314380D01*
X163917285Y-39314380D01*
X164012523Y-39266761D01*
X164060142Y-39219142D01*
X164107761Y-39123904D01*
X164107761Y-39028666D01*
X164060142Y-38933428D01*
X164012523Y-38885809D01*
X163917285Y-38838190D01*
X163726809Y-38790571D01*
X163631571Y-38742952D01*
X163583952Y-38695333D01*
X163536333Y-38600095D01*
X163536333Y-38504857D01*
X163583952Y-38409619D01*
X163631571Y-38362000D01*
X163726809Y-38314380D01*
X163964904Y-38314380D01*
X164107761Y-38362000D01*
X164536333Y-38790571D02*
X164869666Y-38790571D01*
X165012523Y-39314380D02*
X164536333Y-39314380D01*
X164536333Y-38314380D01*
X165012523Y-38314380D01*
X165298238Y-38314380D02*
X165869666Y-38314380D01*
X165583952Y-39314380D02*
X165583952Y-38314380D01*
%TO.C,D+*%
X158104297Y-76337380D02*
X158104297Y-75337380D01*
X158342392Y-75337380D01*
X158485250Y-75385000D01*
X158580488Y-75480238D01*
X158628107Y-75575476D01*
X158675726Y-75765952D01*
X158675726Y-75908809D01*
X158628107Y-76099285D01*
X158580488Y-76194523D01*
X158485250Y-76289761D01*
X158342392Y-76337380D01*
X158104297Y-76337380D01*
X159104297Y-75956428D02*
X159866202Y-75956428D01*
X159485250Y-76337380D02*
X159485250Y-75575476D01*
%TO.C,D-*%
X158104297Y-79258380D02*
X158104297Y-78258380D01*
X158342392Y-78258380D01*
X158485250Y-78306000D01*
X158580488Y-78401238D01*
X158628107Y-78496476D01*
X158675726Y-78686952D01*
X158675726Y-78829809D01*
X158628107Y-79020285D01*
X158580488Y-79115523D01*
X158485250Y-79210761D01*
X158342392Y-79258380D01*
X158104297Y-79258380D01*
X159104297Y-78877428D02*
X159866202Y-78877428D01*
%TD*%
M02*
