%TF.GenerationSoftware,KiCad,Pcbnew,(5.1.10)-1*%
%TF.CreationDate,2021-08-09T17:58:55+02:00*%
%TF.ProjectId,T1,54312e6b-6963-4616-945f-706362585858,rev?*%
%TF.SameCoordinates,Original*%
%TF.FileFunction,Soldermask,Top*%
%TF.FilePolarity,Negative*%
%FSLAX46Y46*%
G04 Gerber Fmt 4.6, Leading zero omitted, Abs format (unit mm)*
G04 Created by KiCad (PCBNEW (5.1.10)-1) date 2021-08-09 17:58:55*
%MOMM*%
%LPD*%
G01*
G04 APERTURE LIST*
%ADD10C,5.000000*%
%ADD11C,1.700000*%
%ADD12C,4.000000*%
%ADD13C,2.200000*%
%ADD14R,0.600000X1.450000*%
%ADD15R,0.300000X1.450000*%
%ADD16O,1.000000X2.100000*%
%ADD17C,0.650000*%
%ADD18O,1.000000X1.600000*%
%ADD19C,2.000000*%
%ADD20C,1.000000*%
%ADD21C,1.900000*%
%ADD22R,1.900000X1.900000*%
G04 APERTURE END LIST*
D10*
%TO.C,REF\u002A\u002A*%
X290512500Y-58896250D03*
%TD*%
%TO.C,REF\u002A\u002A*%
X290512500Y-147796250D03*
%TD*%
%TO.C,REF\u002A\u002A*%
X158750000Y-166846250D03*
%TD*%
%TO.C,REF\u002A\u002A*%
X153193750Y-135096250D03*
%TD*%
%TO.C,REF\u002A\u002A*%
X124618750Y-135096250D03*
%TD*%
%TO.C,REF\u002A\u002A*%
X153193750Y-57308750D03*
%TD*%
%TO.C,REF\u002A\u002A*%
X124618750Y-57943750D03*
%TD*%
%TO.C,REF\u002A\u002A*%
X119062500Y-166846250D03*
%TD*%
%TO.C,REF\u002A\u002A*%
X-12700000Y-58737500D03*
%TD*%
%TO.C,REF\u002A\u002A*%
X-12700000Y-147796250D03*
%TD*%
D11*
%TO.C,SW43*%
X184302400Y-63398400D03*
X174142400Y-63398400D03*
D12*
X179222400Y-63398400D03*
D13*
X175412400Y-60858400D03*
X181762400Y-58318400D03*
%TD*%
D11*
%TO.C,SW26*%
X103606600Y-63398400D03*
X93446600Y-63398400D03*
D12*
X98526600Y-63398400D03*
D13*
X94716600Y-60858400D03*
X101066600Y-58318400D03*
%TD*%
D11*
%TO.C,SW16*%
X65500250Y-58578750D03*
X55340250Y-58578750D03*
D12*
X60420250Y-58578750D03*
D13*
X56610250Y-56038750D03*
X62960250Y-53498750D03*
%TD*%
D11*
%TO.C,SW72*%
X284384750Y-141255750D03*
X274224750Y-141255750D03*
D12*
X279304750Y-141255750D03*
D13*
X275494750Y-138715750D03*
X281844750Y-136175750D03*
%TD*%
D11*
%TO.C,SW71*%
X284384750Y-122205750D03*
X274224750Y-122205750D03*
D12*
X279304750Y-122205750D03*
D13*
X275494750Y-119665750D03*
X281844750Y-117125750D03*
%TD*%
D11*
%TO.C,SW70*%
X284384750Y-103155750D03*
X274224750Y-103155750D03*
D12*
X279304750Y-103155750D03*
D13*
X275494750Y-100615750D03*
X281844750Y-98075750D03*
%TD*%
D11*
%TO.C,SW69*%
X284384750Y-84105750D03*
X274224750Y-84105750D03*
D12*
X279304750Y-84105750D03*
D13*
X275494750Y-81565750D03*
X281844750Y-79025750D03*
%TD*%
D11*
%TO.C,SW68*%
X284384750Y-65055750D03*
X274224750Y-65055750D03*
D12*
X279304750Y-65055750D03*
D13*
X275494750Y-62515750D03*
X281844750Y-59975750D03*
%TD*%
D11*
%TO.C,SW67*%
X260508750Y-141255750D03*
X250348750Y-141255750D03*
D12*
X255428750Y-141255750D03*
D13*
X251618750Y-138715750D03*
X257968750Y-136175750D03*
%TD*%
D11*
%TO.C,SW66*%
X260508750Y-122205750D03*
X250348750Y-122205750D03*
D12*
X255428750Y-122205750D03*
D13*
X251618750Y-119665750D03*
X257968750Y-117125750D03*
%TD*%
D11*
%TO.C,SW65*%
X260508750Y-103155750D03*
X250348750Y-103155750D03*
D12*
X255428750Y-103155750D03*
D13*
X251618750Y-100615750D03*
X257968750Y-98075750D03*
%TD*%
D11*
%TO.C,SW64*%
X260508750Y-84105750D03*
X250348750Y-84105750D03*
D12*
X255428750Y-84105750D03*
D13*
X251618750Y-81565750D03*
X257968750Y-79025750D03*
%TD*%
D11*
%TO.C,SW63*%
X260508750Y-65055750D03*
X250348750Y-65055750D03*
D12*
X255428750Y-65055750D03*
D13*
X251618750Y-62515750D03*
X257968750Y-59975750D03*
%TD*%
D11*
%TO.C,SW62*%
X241458750Y-137699750D03*
X231298750Y-137699750D03*
D12*
X236378750Y-137699750D03*
D13*
X232568750Y-135159750D03*
X238918750Y-132619750D03*
%TD*%
D11*
%TO.C,SW61*%
X241458750Y-118649750D03*
X231298750Y-118649750D03*
D12*
X236378750Y-118649750D03*
D13*
X232568750Y-116109750D03*
X238918750Y-113569750D03*
%TD*%
D11*
%TO.C,SW60*%
X241458750Y-99599750D03*
X231298750Y-99599750D03*
D12*
X236378750Y-99599750D03*
D13*
X232568750Y-97059750D03*
X238918750Y-94519750D03*
%TD*%
D11*
%TO.C,SW59*%
X241458750Y-80549750D03*
X231298750Y-80549750D03*
D12*
X236378750Y-80549750D03*
D13*
X232568750Y-78009750D03*
X238918750Y-75469750D03*
%TD*%
D11*
%TO.C,SW58*%
X241458750Y-61499750D03*
X231298750Y-61499750D03*
D12*
X236378750Y-61499750D03*
D13*
X232568750Y-58959750D03*
X238918750Y-56419750D03*
%TD*%
D11*
%TO.C,SW57*%
X222408750Y-134778750D03*
X212248750Y-134778750D03*
D12*
X217328750Y-134778750D03*
D13*
X213518750Y-132238750D03*
X219868750Y-129698750D03*
%TD*%
D11*
%TO.C,SW56*%
X222408750Y-115728750D03*
X212248750Y-115728750D03*
D12*
X217328750Y-115728750D03*
D13*
X213518750Y-113188750D03*
X219868750Y-110648750D03*
%TD*%
D11*
%TO.C,SW55*%
X222408750Y-96678750D03*
X212248750Y-96678750D03*
D12*
X217328750Y-96678750D03*
D13*
X213518750Y-94138750D03*
X219868750Y-91598750D03*
%TD*%
D11*
%TO.C,SW54*%
X222408750Y-77628750D03*
X212248750Y-77628750D03*
D12*
X217328750Y-77628750D03*
D13*
X213518750Y-75088750D03*
X219868750Y-72548750D03*
%TD*%
D11*
%TO.C,SW53*%
X222408750Y-58578750D03*
X212248750Y-58578750D03*
D12*
X217328750Y-58578750D03*
D13*
X213518750Y-56038750D03*
X219868750Y-53498750D03*
%TD*%
D11*
%TO.C,SW52*%
X203358750Y-137699750D03*
X193198750Y-137699750D03*
D12*
X198278750Y-137699750D03*
D13*
X194468750Y-135159750D03*
X200818750Y-132619750D03*
%TD*%
D11*
%TO.C,SW51*%
X203358750Y-118649750D03*
X193198750Y-118649750D03*
D12*
X198278750Y-118649750D03*
D13*
X194468750Y-116109750D03*
X200818750Y-113569750D03*
%TD*%
D11*
%TO.C,SW50*%
X203358750Y-99599750D03*
X193198750Y-99599750D03*
D12*
X198278750Y-99599750D03*
D13*
X194468750Y-97059750D03*
X200818750Y-94519750D03*
%TD*%
D11*
%TO.C,SW49*%
X203358750Y-80549750D03*
X193198750Y-80549750D03*
D12*
X198278750Y-80549750D03*
D13*
X194468750Y-78009750D03*
X200818750Y-75469750D03*
%TD*%
D11*
%TO.C,SW48*%
X203358750Y-61499750D03*
X193198750Y-61499750D03*
D12*
X198278750Y-61499750D03*
D13*
X194468750Y-58959750D03*
X200818750Y-56419750D03*
%TD*%
D11*
%TO.C,SW47*%
X180072160Y-140575159D03*
X171273341Y-145655159D03*
D12*
X175672750Y-143115159D03*
D13*
X171103194Y-142820455D03*
X175332455Y-137445750D03*
%TD*%
D11*
%TO.C,SW46*%
X184308750Y-120554750D03*
X174148750Y-120554750D03*
D12*
X179228750Y-120554750D03*
D13*
X175418750Y-118014750D03*
X181768750Y-115474750D03*
%TD*%
D11*
%TO.C,SW45*%
X184308750Y-101504750D03*
X174148750Y-101504750D03*
D12*
X179228750Y-101504750D03*
D13*
X175418750Y-98964750D03*
X181768750Y-96424750D03*
%TD*%
D11*
%TO.C,SW44*%
X184308750Y-82454750D03*
X174148750Y-82454750D03*
D12*
X179228750Y-82454750D03*
D13*
X175418750Y-79914750D03*
X181768750Y-77374750D03*
%TD*%
D11*
%TO.C,SW42*%
X162246853Y-152522647D03*
X155062648Y-159706852D03*
D12*
X158654750Y-156114750D03*
D13*
X154164622Y-157012775D03*
X156858699Y-150726596D03*
%TD*%
D11*
%TO.C,SW41*%
X165258750Y-122205750D03*
X155098750Y-122205750D03*
D12*
X160178750Y-122205750D03*
D13*
X156368750Y-119665750D03*
X162718750Y-117125750D03*
%TD*%
D11*
%TO.C,SW40*%
X165258750Y-103155750D03*
X155098750Y-103155750D03*
D12*
X160178750Y-103155750D03*
D13*
X156368750Y-100615750D03*
X162718750Y-98075750D03*
%TD*%
D11*
%TO.C,SW39*%
X165258750Y-84105750D03*
X155098750Y-84105750D03*
D12*
X160178750Y-84105750D03*
D13*
X156368750Y-81565750D03*
X162718750Y-79025750D03*
%TD*%
D11*
%TO.C,SW38*%
X165258750Y-65055750D03*
X155098750Y-65055750D03*
D12*
X160178750Y-65055750D03*
D13*
X156368750Y-62515750D03*
X162718750Y-59975750D03*
%TD*%
%TO.C,D68*%
G36*
G01*
X288181750Y-99990750D02*
X288181750Y-101240750D01*
G75*
G02*
X287931750Y-101490750I-250000J0D01*
G01*
X287181750Y-101490750D01*
G75*
G02*
X286931750Y-101240750I0J250000D01*
G01*
X286931750Y-99990750D01*
G75*
G02*
X287181750Y-99740750I250000J0D01*
G01*
X287931750Y-99740750D01*
G75*
G02*
X288181750Y-99990750I0J-250000D01*
G01*
G37*
G36*
G01*
X290981750Y-99990750D02*
X290981750Y-101240750D01*
G75*
G02*
X290731750Y-101490750I-250000J0D01*
G01*
X289981750Y-101490750D01*
G75*
G02*
X289731750Y-101240750I0J250000D01*
G01*
X289731750Y-99990750D01*
G75*
G02*
X289981750Y-99740750I250000J0D01*
G01*
X290731750Y-99740750D01*
G75*
G02*
X290981750Y-99990750I0J-250000D01*
G01*
G37*
%TD*%
%TO.C,D60*%
G36*
G01*
X245125750Y-134534750D02*
X245125750Y-135784750D01*
G75*
G02*
X244875750Y-136034750I-250000J0D01*
G01*
X244125750Y-136034750D01*
G75*
G02*
X243875750Y-135784750I0J250000D01*
G01*
X243875750Y-134534750D01*
G75*
G02*
X244125750Y-134284750I250000J0D01*
G01*
X244875750Y-134284750D01*
G75*
G02*
X245125750Y-134534750I0J-250000D01*
G01*
G37*
G36*
G01*
X247925750Y-134534750D02*
X247925750Y-135784750D01*
G75*
G02*
X247675750Y-136034750I-250000J0D01*
G01*
X246925750Y-136034750D01*
G75*
G02*
X246675750Y-135784750I0J250000D01*
G01*
X246675750Y-134534750D01*
G75*
G02*
X246925750Y-134284750I250000J0D01*
G01*
X247675750Y-134284750D01*
G75*
G02*
X247925750Y-134534750I0J-250000D01*
G01*
G37*
%TD*%
%TO.C,D45*%
G36*
G01*
X181858644Y-135959984D02*
X182483644Y-137042516D01*
G75*
G02*
X182392138Y-137384022I-216506J-125000D01*
G01*
X181742618Y-137759022D01*
G75*
G02*
X181401112Y-137667516I-125000J216506D01*
G01*
X180776112Y-136584984D01*
G75*
G02*
X180867618Y-136243478I216506J125000D01*
G01*
X181517138Y-135868478D01*
G75*
G02*
X181858644Y-135959984I125000J-216506D01*
G01*
G37*
G36*
G01*
X184283516Y-134559984D02*
X184908516Y-135642516D01*
G75*
G02*
X184817010Y-135984022I-216506J-125000D01*
G01*
X184167490Y-136359022D01*
G75*
G02*
X183825984Y-136267516I-125000J216506D01*
G01*
X183200984Y-135184984D01*
G75*
G02*
X183292490Y-134843478I216506J125000D01*
G01*
X183942010Y-134468478D01*
G75*
G02*
X184283516Y-134559984I125000J-216506D01*
G01*
G37*
%TD*%
D14*
%TO.C,J1*%
X99461250Y-52527250D03*
X100261250Y-52527250D03*
X105161250Y-52527250D03*
X105961250Y-52527250D03*
X105961250Y-52527250D03*
X105161250Y-52527250D03*
X100261250Y-52527250D03*
X99461250Y-52527250D03*
D15*
X104461250Y-52527250D03*
X103961250Y-52527250D03*
X103461250Y-52527250D03*
X102461250Y-52527250D03*
X101961250Y-52527250D03*
X101461250Y-52527250D03*
X100961250Y-52527250D03*
X102961250Y-52527250D03*
D16*
X98391250Y-51612250D03*
X107031250Y-51612250D03*
D17*
X105601250Y-51082250D03*
D18*
X107031250Y-47432250D03*
D17*
X99821250Y-51082250D03*
D18*
X98391250Y-47432250D03*
%TD*%
D19*
%TO.C,SW37*%
X177727750Y-47656750D03*
X177727750Y-52156750D03*
X171227750Y-47656750D03*
X171227750Y-52156750D03*
%TD*%
%TO.C,SW36*%
X95368250Y-45878750D03*
X95368250Y-50378750D03*
X88868250Y-45878750D03*
X88868250Y-50378750D03*
%TD*%
D11*
%TO.C,SW35*%
X122632199Y-159724904D03*
X115447994Y-152540699D03*
D12*
X119040096Y-156132801D03*
D13*
X118142071Y-151642673D03*
X124428250Y-154336750D03*
%TD*%
D11*
%TO.C,SW34*%
X122650250Y-122205750D03*
X112490250Y-122205750D03*
D12*
X117570250Y-122205750D03*
D13*
X113760250Y-119665750D03*
X120110250Y-117125750D03*
%TD*%
D11*
%TO.C,SW33*%
X122650250Y-103155750D03*
X112490250Y-103155750D03*
D12*
X117570250Y-103155750D03*
D13*
X113760250Y-100615750D03*
X120110250Y-98075750D03*
%TD*%
D11*
%TO.C,SW32*%
X122650250Y-84105750D03*
X112490250Y-84105750D03*
D12*
X117570250Y-84105750D03*
D13*
X113760250Y-81565750D03*
X120110250Y-79025750D03*
%TD*%
D11*
%TO.C,SW31*%
X122650250Y-65055750D03*
X112490250Y-65055750D03*
D12*
X117570250Y-65055750D03*
D13*
X113760250Y-62515750D03*
X120110250Y-59975750D03*
%TD*%
D11*
%TO.C,SW30*%
X106475660Y-145700750D03*
X97676841Y-140620750D03*
D12*
X102076250Y-143160750D03*
D13*
X100046694Y-139056046D03*
X106815955Y-140031341D03*
%TD*%
D11*
%TO.C,SW29*%
X103600250Y-120554750D03*
X93440250Y-120554750D03*
D12*
X98520250Y-120554750D03*
D13*
X94710250Y-118014750D03*
X101060250Y-115474750D03*
%TD*%
D11*
%TO.C,SW28*%
X103600250Y-101504750D03*
X93440250Y-101504750D03*
D12*
X98520250Y-101504750D03*
D13*
X94710250Y-98964750D03*
X101060250Y-96424750D03*
%TD*%
D11*
%TO.C,SW27*%
X103600250Y-82454750D03*
X93440250Y-82454750D03*
D12*
X98520250Y-82454750D03*
D13*
X94710250Y-79914750D03*
X101060250Y-77374750D03*
%TD*%
D11*
%TO.C,SW25*%
X84550250Y-137699750D03*
X74390250Y-137699750D03*
D12*
X79470250Y-137699750D03*
D13*
X75660250Y-135159750D03*
X82010250Y-132619750D03*
%TD*%
D11*
%TO.C,SW24*%
X84550250Y-118649750D03*
X74390250Y-118649750D03*
D12*
X79470250Y-118649750D03*
D13*
X75660250Y-116109750D03*
X82010250Y-113569750D03*
%TD*%
D11*
%TO.C,SW23*%
X84550250Y-99599750D03*
X74390250Y-99599750D03*
D12*
X79470250Y-99599750D03*
D13*
X75660250Y-97059750D03*
X82010250Y-94519750D03*
%TD*%
D11*
%TO.C,SW22*%
X84550250Y-80549750D03*
X74390250Y-80549750D03*
D12*
X79470250Y-80549750D03*
D13*
X75660250Y-78009750D03*
X82010250Y-75469750D03*
%TD*%
D11*
%TO.C,SW21*%
X84550250Y-61499750D03*
X74390250Y-61499750D03*
D12*
X79470250Y-61499750D03*
D13*
X75660250Y-58959750D03*
X82010250Y-56419750D03*
%TD*%
D11*
%TO.C,SW20*%
X65500250Y-134778750D03*
X55340250Y-134778750D03*
D12*
X60420250Y-134778750D03*
D13*
X56610250Y-132238750D03*
X62960250Y-129698750D03*
%TD*%
D11*
%TO.C,SW19*%
X65500250Y-115728750D03*
X55340250Y-115728750D03*
D12*
X60420250Y-115728750D03*
D13*
X56610250Y-113188750D03*
X62960250Y-110648750D03*
%TD*%
D11*
%TO.C,SW18*%
X65500250Y-96678750D03*
X55340250Y-96678750D03*
D12*
X60420250Y-96678750D03*
D13*
X56610250Y-94138750D03*
X62960250Y-91598750D03*
%TD*%
D11*
%TO.C,SW17*%
X65500250Y-77628750D03*
X55340250Y-77628750D03*
D12*
X60420250Y-77628750D03*
D13*
X56610250Y-75088750D03*
X62960250Y-72548750D03*
%TD*%
D11*
%TO.C,SW15*%
X46450250Y-137699750D03*
X36290250Y-137699750D03*
D12*
X41370250Y-137699750D03*
D13*
X37560250Y-135159750D03*
X43910250Y-132619750D03*
%TD*%
D11*
%TO.C,SW14*%
X46450250Y-118649750D03*
X36290250Y-118649750D03*
D12*
X41370250Y-118649750D03*
D13*
X37560250Y-116109750D03*
X43910250Y-113569750D03*
%TD*%
D11*
%TO.C,SW13*%
X46450250Y-99599750D03*
X36290250Y-99599750D03*
D12*
X41370250Y-99599750D03*
D13*
X37560250Y-97059750D03*
X43910250Y-94519750D03*
%TD*%
D11*
%TO.C,SW12*%
X46450250Y-80549750D03*
X36290250Y-80549750D03*
D12*
X41370250Y-80549750D03*
D13*
X37560250Y-78009750D03*
X43910250Y-75469750D03*
%TD*%
D11*
%TO.C,SW11*%
X46450250Y-61499750D03*
X36290250Y-61499750D03*
D12*
X41370250Y-61499750D03*
D13*
X37560250Y-58959750D03*
X43910250Y-56419750D03*
%TD*%
D11*
%TO.C,SW10*%
X27400250Y-141255750D03*
X17240250Y-141255750D03*
D12*
X22320250Y-141255750D03*
D13*
X18510250Y-138715750D03*
X24860250Y-136175750D03*
%TD*%
D11*
%TO.C,SW9*%
X27400250Y-122205750D03*
X17240250Y-122205750D03*
D12*
X22320250Y-122205750D03*
D13*
X18510250Y-119665750D03*
X24860250Y-117125750D03*
%TD*%
D11*
%TO.C,SW8*%
X27400250Y-103155750D03*
X17240250Y-103155750D03*
D12*
X22320250Y-103155750D03*
D13*
X18510250Y-100615750D03*
X24860250Y-98075750D03*
%TD*%
D11*
%TO.C,SW7*%
X27400250Y-84105750D03*
X17240250Y-84105750D03*
D12*
X22320250Y-84105750D03*
D13*
X18510250Y-81565750D03*
X24860250Y-79025750D03*
%TD*%
D11*
%TO.C,SW6*%
X27400250Y-65055750D03*
X17240250Y-65055750D03*
D12*
X22320250Y-65055750D03*
D13*
X18510250Y-62515750D03*
X24860250Y-59975750D03*
%TD*%
D11*
%TO.C,SW5*%
X3524250Y-141255750D03*
X-6635750Y-141255750D03*
D12*
X-1555750Y-141255750D03*
D13*
X-5365750Y-138715750D03*
X984250Y-136175750D03*
%TD*%
D11*
%TO.C,SW4*%
X3524250Y-122205750D03*
X-6635750Y-122205750D03*
D12*
X-1555750Y-122205750D03*
D13*
X-5365750Y-119665750D03*
X984250Y-117125750D03*
%TD*%
D11*
%TO.C,SW3*%
X3524250Y-103155750D03*
X-6635750Y-103155750D03*
D12*
X-1555750Y-103155750D03*
D13*
X-5365750Y-100615750D03*
X984250Y-98075750D03*
%TD*%
D11*
%TO.C,SW2*%
X3524250Y-84105750D03*
X-6635750Y-84105750D03*
D12*
X-1555750Y-84105750D03*
D13*
X-5365750Y-81565750D03*
X984250Y-79025750D03*
%TD*%
D11*
%TO.C,SW1*%
X3524250Y-65055750D03*
X-6635750Y-65055750D03*
D12*
X-1555750Y-65055750D03*
D13*
X-5365750Y-62515750D03*
X984250Y-59975750D03*
%TD*%
D20*
%TO.C,J3*%
X160646750Y-47950750D03*
X160646750Y-52950750D03*
D21*
X164646750Y-52700750D03*
D22*
X164646750Y-48200750D03*
D21*
X157146750Y-53350750D03*
X157146750Y-47550750D03*
%TD*%
D20*
%TO.C,J2*%
X117102250Y-52950750D03*
X117102250Y-47950750D03*
D21*
X113102250Y-48200750D03*
D22*
X113102250Y-52700750D03*
D21*
X120602250Y-47550750D03*
X120602250Y-53350750D03*
%TD*%
%TO.C,D70*%
G36*
G01*
X288181750Y-138090750D02*
X288181750Y-139340750D01*
G75*
G02*
X287931750Y-139590750I-250000J0D01*
G01*
X287181750Y-139590750D01*
G75*
G02*
X286931750Y-139340750I0J250000D01*
G01*
X286931750Y-138090750D01*
G75*
G02*
X287181750Y-137840750I250000J0D01*
G01*
X287931750Y-137840750D01*
G75*
G02*
X288181750Y-138090750I0J-250000D01*
G01*
G37*
G36*
G01*
X290981750Y-138090750D02*
X290981750Y-139340750D01*
G75*
G02*
X290731750Y-139590750I-250000J0D01*
G01*
X289981750Y-139590750D01*
G75*
G02*
X289731750Y-139340750I0J250000D01*
G01*
X289731750Y-138090750D01*
G75*
G02*
X289981750Y-137840750I250000J0D01*
G01*
X290731750Y-137840750D01*
G75*
G02*
X290981750Y-138090750I0J-250000D01*
G01*
G37*
%TD*%
%TO.C,D69*%
G36*
G01*
X288181750Y-119040750D02*
X288181750Y-120290750D01*
G75*
G02*
X287931750Y-120540750I-250000J0D01*
G01*
X287181750Y-120540750D01*
G75*
G02*
X286931750Y-120290750I0J250000D01*
G01*
X286931750Y-119040750D01*
G75*
G02*
X287181750Y-118790750I250000J0D01*
G01*
X287931750Y-118790750D01*
G75*
G02*
X288181750Y-119040750I0J-250000D01*
G01*
G37*
G36*
G01*
X290981750Y-119040750D02*
X290981750Y-120290750D01*
G75*
G02*
X290731750Y-120540750I-250000J0D01*
G01*
X289981750Y-120540750D01*
G75*
G02*
X289731750Y-120290750I0J250000D01*
G01*
X289731750Y-119040750D01*
G75*
G02*
X289981750Y-118790750I250000J0D01*
G01*
X290731750Y-118790750D01*
G75*
G02*
X290981750Y-119040750I0J-250000D01*
G01*
G37*
%TD*%
%TO.C,D67*%
G36*
G01*
X288181750Y-80940750D02*
X288181750Y-82190750D01*
G75*
G02*
X287931750Y-82440750I-250000J0D01*
G01*
X287181750Y-82440750D01*
G75*
G02*
X286931750Y-82190750I0J250000D01*
G01*
X286931750Y-80940750D01*
G75*
G02*
X287181750Y-80690750I250000J0D01*
G01*
X287931750Y-80690750D01*
G75*
G02*
X288181750Y-80940750I0J-250000D01*
G01*
G37*
G36*
G01*
X290981750Y-80940750D02*
X290981750Y-82190750D01*
G75*
G02*
X290731750Y-82440750I-250000J0D01*
G01*
X289981750Y-82440750D01*
G75*
G02*
X289731750Y-82190750I0J250000D01*
G01*
X289731750Y-80940750D01*
G75*
G02*
X289981750Y-80690750I250000J0D01*
G01*
X290731750Y-80690750D01*
G75*
G02*
X290981750Y-80940750I0J-250000D01*
G01*
G37*
%TD*%
%TO.C,D66*%
G36*
G01*
X288181750Y-62875000D02*
X288181750Y-64125000D01*
G75*
G02*
X287931750Y-64375000I-250000J0D01*
G01*
X287181750Y-64375000D01*
G75*
G02*
X286931750Y-64125000I0J250000D01*
G01*
X286931750Y-62875000D01*
G75*
G02*
X287181750Y-62625000I250000J0D01*
G01*
X287931750Y-62625000D01*
G75*
G02*
X288181750Y-62875000I0J-250000D01*
G01*
G37*
G36*
G01*
X290981750Y-62875000D02*
X290981750Y-64125000D01*
G75*
G02*
X290731750Y-64375000I-250000J0D01*
G01*
X289981750Y-64375000D01*
G75*
G02*
X289731750Y-64125000I0J250000D01*
G01*
X289731750Y-62875000D01*
G75*
G02*
X289981750Y-62625000I250000J0D01*
G01*
X290731750Y-62625000D01*
G75*
G02*
X290981750Y-62875000I0J-250000D01*
G01*
G37*
%TD*%
%TO.C,D65*%
G36*
G01*
X264178750Y-138090750D02*
X264178750Y-139340750D01*
G75*
G02*
X263928750Y-139590750I-250000J0D01*
G01*
X263178750Y-139590750D01*
G75*
G02*
X262928750Y-139340750I0J250000D01*
G01*
X262928750Y-138090750D01*
G75*
G02*
X263178750Y-137840750I250000J0D01*
G01*
X263928750Y-137840750D01*
G75*
G02*
X264178750Y-138090750I0J-250000D01*
G01*
G37*
G36*
G01*
X266978750Y-138090750D02*
X266978750Y-139340750D01*
G75*
G02*
X266728750Y-139590750I-250000J0D01*
G01*
X265978750Y-139590750D01*
G75*
G02*
X265728750Y-139340750I0J250000D01*
G01*
X265728750Y-138090750D01*
G75*
G02*
X265978750Y-137840750I250000J0D01*
G01*
X266728750Y-137840750D01*
G75*
G02*
X266978750Y-138090750I0J-250000D01*
G01*
G37*
%TD*%
%TO.C,D64*%
G36*
G01*
X264178750Y-119040750D02*
X264178750Y-120290750D01*
G75*
G02*
X263928750Y-120540750I-250000J0D01*
G01*
X263178750Y-120540750D01*
G75*
G02*
X262928750Y-120290750I0J250000D01*
G01*
X262928750Y-119040750D01*
G75*
G02*
X263178750Y-118790750I250000J0D01*
G01*
X263928750Y-118790750D01*
G75*
G02*
X264178750Y-119040750I0J-250000D01*
G01*
G37*
G36*
G01*
X266978750Y-119040750D02*
X266978750Y-120290750D01*
G75*
G02*
X266728750Y-120540750I-250000J0D01*
G01*
X265978750Y-120540750D01*
G75*
G02*
X265728750Y-120290750I0J250000D01*
G01*
X265728750Y-119040750D01*
G75*
G02*
X265978750Y-118790750I250000J0D01*
G01*
X266728750Y-118790750D01*
G75*
G02*
X266978750Y-119040750I0J-250000D01*
G01*
G37*
%TD*%
%TO.C,D63*%
G36*
G01*
X264175750Y-99990750D02*
X264175750Y-101240750D01*
G75*
G02*
X263925750Y-101490750I-250000J0D01*
G01*
X263175750Y-101490750D01*
G75*
G02*
X262925750Y-101240750I0J250000D01*
G01*
X262925750Y-99990750D01*
G75*
G02*
X263175750Y-99740750I250000J0D01*
G01*
X263925750Y-99740750D01*
G75*
G02*
X264175750Y-99990750I0J-250000D01*
G01*
G37*
G36*
G01*
X266975750Y-99990750D02*
X266975750Y-101240750D01*
G75*
G02*
X266725750Y-101490750I-250000J0D01*
G01*
X265975750Y-101490750D01*
G75*
G02*
X265725750Y-101240750I0J250000D01*
G01*
X265725750Y-99990750D01*
G75*
G02*
X265975750Y-99740750I250000J0D01*
G01*
X266725750Y-99740750D01*
G75*
G02*
X266975750Y-99990750I0J-250000D01*
G01*
G37*
%TD*%
%TO.C,D62*%
G36*
G01*
X264178750Y-80940750D02*
X264178750Y-82190750D01*
G75*
G02*
X263928750Y-82440750I-250000J0D01*
G01*
X263178750Y-82440750D01*
G75*
G02*
X262928750Y-82190750I0J250000D01*
G01*
X262928750Y-80940750D01*
G75*
G02*
X263178750Y-80690750I250000J0D01*
G01*
X263928750Y-80690750D01*
G75*
G02*
X264178750Y-80940750I0J-250000D01*
G01*
G37*
G36*
G01*
X266978750Y-80940750D02*
X266978750Y-82190750D01*
G75*
G02*
X266728750Y-82440750I-250000J0D01*
G01*
X265978750Y-82440750D01*
G75*
G02*
X265728750Y-82190750I0J250000D01*
G01*
X265728750Y-80940750D01*
G75*
G02*
X265978750Y-80690750I250000J0D01*
G01*
X266728750Y-80690750D01*
G75*
G02*
X266978750Y-80940750I0J-250000D01*
G01*
G37*
%TD*%
%TO.C,D61*%
G36*
G01*
X264178750Y-61890750D02*
X264178750Y-63140750D01*
G75*
G02*
X263928750Y-63390750I-250000J0D01*
G01*
X263178750Y-63390750D01*
G75*
G02*
X262928750Y-63140750I0J250000D01*
G01*
X262928750Y-61890750D01*
G75*
G02*
X263178750Y-61640750I250000J0D01*
G01*
X263928750Y-61640750D01*
G75*
G02*
X264178750Y-61890750I0J-250000D01*
G01*
G37*
G36*
G01*
X266978750Y-61890750D02*
X266978750Y-63140750D01*
G75*
G02*
X266728750Y-63390750I-250000J0D01*
G01*
X265978750Y-63390750D01*
G75*
G02*
X265728750Y-63140750I0J250000D01*
G01*
X265728750Y-61890750D01*
G75*
G02*
X265978750Y-61640750I250000J0D01*
G01*
X266728750Y-61640750D01*
G75*
G02*
X266978750Y-61890750I0J-250000D01*
G01*
G37*
%TD*%
%TO.C,D59*%
G36*
G01*
X245128750Y-115484750D02*
X245128750Y-116734750D01*
G75*
G02*
X244878750Y-116984750I-250000J0D01*
G01*
X244128750Y-116984750D01*
G75*
G02*
X243878750Y-116734750I0J250000D01*
G01*
X243878750Y-115484750D01*
G75*
G02*
X244128750Y-115234750I250000J0D01*
G01*
X244878750Y-115234750D01*
G75*
G02*
X245128750Y-115484750I0J-250000D01*
G01*
G37*
G36*
G01*
X247928750Y-115484750D02*
X247928750Y-116734750D01*
G75*
G02*
X247678750Y-116984750I-250000J0D01*
G01*
X246928750Y-116984750D01*
G75*
G02*
X246678750Y-116734750I0J250000D01*
G01*
X246678750Y-115484750D01*
G75*
G02*
X246928750Y-115234750I250000J0D01*
G01*
X247678750Y-115234750D01*
G75*
G02*
X247928750Y-115484750I0J-250000D01*
G01*
G37*
%TD*%
%TO.C,D58*%
G36*
G01*
X245128750Y-96434750D02*
X245128750Y-97684750D01*
G75*
G02*
X244878750Y-97934750I-250000J0D01*
G01*
X244128750Y-97934750D01*
G75*
G02*
X243878750Y-97684750I0J250000D01*
G01*
X243878750Y-96434750D01*
G75*
G02*
X244128750Y-96184750I250000J0D01*
G01*
X244878750Y-96184750D01*
G75*
G02*
X245128750Y-96434750I0J-250000D01*
G01*
G37*
G36*
G01*
X247928750Y-96434750D02*
X247928750Y-97684750D01*
G75*
G02*
X247678750Y-97934750I-250000J0D01*
G01*
X246928750Y-97934750D01*
G75*
G02*
X246678750Y-97684750I0J250000D01*
G01*
X246678750Y-96434750D01*
G75*
G02*
X246928750Y-96184750I250000J0D01*
G01*
X247678750Y-96184750D01*
G75*
G02*
X247928750Y-96434750I0J-250000D01*
G01*
G37*
%TD*%
%TO.C,D57*%
G36*
G01*
X245128750Y-77384750D02*
X245128750Y-78634750D01*
G75*
G02*
X244878750Y-78884750I-250000J0D01*
G01*
X244128750Y-78884750D01*
G75*
G02*
X243878750Y-78634750I0J250000D01*
G01*
X243878750Y-77384750D01*
G75*
G02*
X244128750Y-77134750I250000J0D01*
G01*
X244878750Y-77134750D01*
G75*
G02*
X245128750Y-77384750I0J-250000D01*
G01*
G37*
G36*
G01*
X247928750Y-77384750D02*
X247928750Y-78634750D01*
G75*
G02*
X247678750Y-78884750I-250000J0D01*
G01*
X246928750Y-78884750D01*
G75*
G02*
X246678750Y-78634750I0J250000D01*
G01*
X246678750Y-77384750D01*
G75*
G02*
X246928750Y-77134750I250000J0D01*
G01*
X247678750Y-77134750D01*
G75*
G02*
X247928750Y-77384750I0J-250000D01*
G01*
G37*
%TD*%
%TO.C,D56*%
G36*
G01*
X245128750Y-58334750D02*
X245128750Y-59584750D01*
G75*
G02*
X244878750Y-59834750I-250000J0D01*
G01*
X244128750Y-59834750D01*
G75*
G02*
X243878750Y-59584750I0J250000D01*
G01*
X243878750Y-58334750D01*
G75*
G02*
X244128750Y-58084750I250000J0D01*
G01*
X244878750Y-58084750D01*
G75*
G02*
X245128750Y-58334750I0J-250000D01*
G01*
G37*
G36*
G01*
X247928750Y-58334750D02*
X247928750Y-59584750D01*
G75*
G02*
X247678750Y-59834750I-250000J0D01*
G01*
X246928750Y-59834750D01*
G75*
G02*
X246678750Y-59584750I0J250000D01*
G01*
X246678750Y-58334750D01*
G75*
G02*
X246928750Y-58084750I250000J0D01*
G01*
X247678750Y-58084750D01*
G75*
G02*
X247928750Y-58334750I0J-250000D01*
G01*
G37*
%TD*%
%TO.C,D55*%
G36*
G01*
X226078750Y-131613750D02*
X226078750Y-132863750D01*
G75*
G02*
X225828750Y-133113750I-250000J0D01*
G01*
X225078750Y-133113750D01*
G75*
G02*
X224828750Y-132863750I0J250000D01*
G01*
X224828750Y-131613750D01*
G75*
G02*
X225078750Y-131363750I250000J0D01*
G01*
X225828750Y-131363750D01*
G75*
G02*
X226078750Y-131613750I0J-250000D01*
G01*
G37*
G36*
G01*
X228878750Y-131613750D02*
X228878750Y-132863750D01*
G75*
G02*
X228628750Y-133113750I-250000J0D01*
G01*
X227878750Y-133113750D01*
G75*
G02*
X227628750Y-132863750I0J250000D01*
G01*
X227628750Y-131613750D01*
G75*
G02*
X227878750Y-131363750I250000J0D01*
G01*
X228628750Y-131363750D01*
G75*
G02*
X228878750Y-131613750I0J-250000D01*
G01*
G37*
%TD*%
%TO.C,D54*%
G36*
G01*
X226078750Y-112563750D02*
X226078750Y-113813750D01*
G75*
G02*
X225828750Y-114063750I-250000J0D01*
G01*
X225078750Y-114063750D01*
G75*
G02*
X224828750Y-113813750I0J250000D01*
G01*
X224828750Y-112563750D01*
G75*
G02*
X225078750Y-112313750I250000J0D01*
G01*
X225828750Y-112313750D01*
G75*
G02*
X226078750Y-112563750I0J-250000D01*
G01*
G37*
G36*
G01*
X228878750Y-112563750D02*
X228878750Y-113813750D01*
G75*
G02*
X228628750Y-114063750I-250000J0D01*
G01*
X227878750Y-114063750D01*
G75*
G02*
X227628750Y-113813750I0J250000D01*
G01*
X227628750Y-112563750D01*
G75*
G02*
X227878750Y-112313750I250000J0D01*
G01*
X228628750Y-112313750D01*
G75*
G02*
X228878750Y-112563750I0J-250000D01*
G01*
G37*
%TD*%
%TO.C,D53*%
G36*
G01*
X226139250Y-93513750D02*
X226139250Y-94763750D01*
G75*
G02*
X225889250Y-95013750I-250000J0D01*
G01*
X225139250Y-95013750D01*
G75*
G02*
X224889250Y-94763750I0J250000D01*
G01*
X224889250Y-93513750D01*
G75*
G02*
X225139250Y-93263750I250000J0D01*
G01*
X225889250Y-93263750D01*
G75*
G02*
X226139250Y-93513750I0J-250000D01*
G01*
G37*
G36*
G01*
X228939250Y-93513750D02*
X228939250Y-94763750D01*
G75*
G02*
X228689250Y-95013750I-250000J0D01*
G01*
X227939250Y-95013750D01*
G75*
G02*
X227689250Y-94763750I0J250000D01*
G01*
X227689250Y-93513750D01*
G75*
G02*
X227939250Y-93263750I250000J0D01*
G01*
X228689250Y-93263750D01*
G75*
G02*
X228939250Y-93513750I0J-250000D01*
G01*
G37*
%TD*%
%TO.C,D52*%
G36*
G01*
X226078750Y-74463750D02*
X226078750Y-75713750D01*
G75*
G02*
X225828750Y-75963750I-250000J0D01*
G01*
X225078750Y-75963750D01*
G75*
G02*
X224828750Y-75713750I0J250000D01*
G01*
X224828750Y-74463750D01*
G75*
G02*
X225078750Y-74213750I250000J0D01*
G01*
X225828750Y-74213750D01*
G75*
G02*
X226078750Y-74463750I0J-250000D01*
G01*
G37*
G36*
G01*
X228878750Y-74463750D02*
X228878750Y-75713750D01*
G75*
G02*
X228628750Y-75963750I-250000J0D01*
G01*
X227878750Y-75963750D01*
G75*
G02*
X227628750Y-75713750I0J250000D01*
G01*
X227628750Y-74463750D01*
G75*
G02*
X227878750Y-74213750I250000J0D01*
G01*
X228628750Y-74213750D01*
G75*
G02*
X228878750Y-74463750I0J-250000D01*
G01*
G37*
%TD*%
%TO.C,D51*%
G36*
G01*
X226075750Y-55413750D02*
X226075750Y-56663750D01*
G75*
G02*
X225825750Y-56913750I-250000J0D01*
G01*
X225075750Y-56913750D01*
G75*
G02*
X224825750Y-56663750I0J250000D01*
G01*
X224825750Y-55413750D01*
G75*
G02*
X225075750Y-55163750I250000J0D01*
G01*
X225825750Y-55163750D01*
G75*
G02*
X226075750Y-55413750I0J-250000D01*
G01*
G37*
G36*
G01*
X228875750Y-55413750D02*
X228875750Y-56663750D01*
G75*
G02*
X228625750Y-56913750I-250000J0D01*
G01*
X227875750Y-56913750D01*
G75*
G02*
X227625750Y-56663750I0J250000D01*
G01*
X227625750Y-55413750D01*
G75*
G02*
X227875750Y-55163750I250000J0D01*
G01*
X228625750Y-55163750D01*
G75*
G02*
X228875750Y-55413750I0J-250000D01*
G01*
G37*
%TD*%
%TO.C,D50*%
G36*
G01*
X207028750Y-134534750D02*
X207028750Y-135784750D01*
G75*
G02*
X206778750Y-136034750I-250000J0D01*
G01*
X206028750Y-136034750D01*
G75*
G02*
X205778750Y-135784750I0J250000D01*
G01*
X205778750Y-134534750D01*
G75*
G02*
X206028750Y-134284750I250000J0D01*
G01*
X206778750Y-134284750D01*
G75*
G02*
X207028750Y-134534750I0J-250000D01*
G01*
G37*
G36*
G01*
X209828750Y-134534750D02*
X209828750Y-135784750D01*
G75*
G02*
X209578750Y-136034750I-250000J0D01*
G01*
X208828750Y-136034750D01*
G75*
G02*
X208578750Y-135784750I0J250000D01*
G01*
X208578750Y-134534750D01*
G75*
G02*
X208828750Y-134284750I250000J0D01*
G01*
X209578750Y-134284750D01*
G75*
G02*
X209828750Y-134534750I0J-250000D01*
G01*
G37*
%TD*%
%TO.C,D49*%
G36*
G01*
X207028750Y-115484750D02*
X207028750Y-116734750D01*
G75*
G02*
X206778750Y-116984750I-250000J0D01*
G01*
X206028750Y-116984750D01*
G75*
G02*
X205778750Y-116734750I0J250000D01*
G01*
X205778750Y-115484750D01*
G75*
G02*
X206028750Y-115234750I250000J0D01*
G01*
X206778750Y-115234750D01*
G75*
G02*
X207028750Y-115484750I0J-250000D01*
G01*
G37*
G36*
G01*
X209828750Y-115484750D02*
X209828750Y-116734750D01*
G75*
G02*
X209578750Y-116984750I-250000J0D01*
G01*
X208828750Y-116984750D01*
G75*
G02*
X208578750Y-116734750I0J250000D01*
G01*
X208578750Y-115484750D01*
G75*
G02*
X208828750Y-115234750I250000J0D01*
G01*
X209578750Y-115234750D01*
G75*
G02*
X209828750Y-115484750I0J-250000D01*
G01*
G37*
%TD*%
%TO.C,D48*%
G36*
G01*
X207028750Y-96434750D02*
X207028750Y-97684750D01*
G75*
G02*
X206778750Y-97934750I-250000J0D01*
G01*
X206028750Y-97934750D01*
G75*
G02*
X205778750Y-97684750I0J250000D01*
G01*
X205778750Y-96434750D01*
G75*
G02*
X206028750Y-96184750I250000J0D01*
G01*
X206778750Y-96184750D01*
G75*
G02*
X207028750Y-96434750I0J-250000D01*
G01*
G37*
G36*
G01*
X209828750Y-96434750D02*
X209828750Y-97684750D01*
G75*
G02*
X209578750Y-97934750I-250000J0D01*
G01*
X208828750Y-97934750D01*
G75*
G02*
X208578750Y-97684750I0J250000D01*
G01*
X208578750Y-96434750D01*
G75*
G02*
X208828750Y-96184750I250000J0D01*
G01*
X209578750Y-96184750D01*
G75*
G02*
X209828750Y-96434750I0J-250000D01*
G01*
G37*
%TD*%
%TO.C,D47*%
G36*
G01*
X207092250Y-77384750D02*
X207092250Y-78634750D01*
G75*
G02*
X206842250Y-78884750I-250000J0D01*
G01*
X206092250Y-78884750D01*
G75*
G02*
X205842250Y-78634750I0J250000D01*
G01*
X205842250Y-77384750D01*
G75*
G02*
X206092250Y-77134750I250000J0D01*
G01*
X206842250Y-77134750D01*
G75*
G02*
X207092250Y-77384750I0J-250000D01*
G01*
G37*
G36*
G01*
X209892250Y-77384750D02*
X209892250Y-78634750D01*
G75*
G02*
X209642250Y-78884750I-250000J0D01*
G01*
X208892250Y-78884750D01*
G75*
G02*
X208642250Y-78634750I0J250000D01*
G01*
X208642250Y-77384750D01*
G75*
G02*
X208892250Y-77134750I250000J0D01*
G01*
X209642250Y-77134750D01*
G75*
G02*
X209892250Y-77384750I0J-250000D01*
G01*
G37*
%TD*%
%TO.C,D46*%
G36*
G01*
X207028750Y-58334750D02*
X207028750Y-59584750D01*
G75*
G02*
X206778750Y-59834750I-250000J0D01*
G01*
X206028750Y-59834750D01*
G75*
G02*
X205778750Y-59584750I0J250000D01*
G01*
X205778750Y-58334750D01*
G75*
G02*
X206028750Y-58084750I250000J0D01*
G01*
X206778750Y-58084750D01*
G75*
G02*
X207028750Y-58334750I0J-250000D01*
G01*
G37*
G36*
G01*
X209828750Y-58334750D02*
X209828750Y-59584750D01*
G75*
G02*
X209578750Y-59834750I-250000J0D01*
G01*
X208828750Y-59834750D01*
G75*
G02*
X208578750Y-59584750I0J250000D01*
G01*
X208578750Y-58334750D01*
G75*
G02*
X208828750Y-58084750I250000J0D01*
G01*
X209578750Y-58084750D01*
G75*
G02*
X209828750Y-58334750I0J-250000D01*
G01*
G37*
%TD*%
%TO.C,D44*%
G36*
G01*
X187978750Y-117389750D02*
X187978750Y-118639750D01*
G75*
G02*
X187728750Y-118889750I-250000J0D01*
G01*
X186978750Y-118889750D01*
G75*
G02*
X186728750Y-118639750I0J250000D01*
G01*
X186728750Y-117389750D01*
G75*
G02*
X186978750Y-117139750I250000J0D01*
G01*
X187728750Y-117139750D01*
G75*
G02*
X187978750Y-117389750I0J-250000D01*
G01*
G37*
G36*
G01*
X190778750Y-117389750D02*
X190778750Y-118639750D01*
G75*
G02*
X190528750Y-118889750I-250000J0D01*
G01*
X189778750Y-118889750D01*
G75*
G02*
X189528750Y-118639750I0J250000D01*
G01*
X189528750Y-117389750D01*
G75*
G02*
X189778750Y-117139750I250000J0D01*
G01*
X190528750Y-117139750D01*
G75*
G02*
X190778750Y-117389750I0J-250000D01*
G01*
G37*
%TD*%
%TO.C,D43*%
G36*
G01*
X187978750Y-98339750D02*
X187978750Y-99589750D01*
G75*
G02*
X187728750Y-99839750I-250000J0D01*
G01*
X186978750Y-99839750D01*
G75*
G02*
X186728750Y-99589750I0J250000D01*
G01*
X186728750Y-98339750D01*
G75*
G02*
X186978750Y-98089750I250000J0D01*
G01*
X187728750Y-98089750D01*
G75*
G02*
X187978750Y-98339750I0J-250000D01*
G01*
G37*
G36*
G01*
X190778750Y-98339750D02*
X190778750Y-99589750D01*
G75*
G02*
X190528750Y-99839750I-250000J0D01*
G01*
X189778750Y-99839750D01*
G75*
G02*
X189528750Y-99589750I0J250000D01*
G01*
X189528750Y-98339750D01*
G75*
G02*
X189778750Y-98089750I250000J0D01*
G01*
X190528750Y-98089750D01*
G75*
G02*
X190778750Y-98339750I0J-250000D01*
G01*
G37*
%TD*%
%TO.C,D42*%
G36*
G01*
X187978750Y-79289750D02*
X187978750Y-80539750D01*
G75*
G02*
X187728750Y-80789750I-250000J0D01*
G01*
X186978750Y-80789750D01*
G75*
G02*
X186728750Y-80539750I0J250000D01*
G01*
X186728750Y-79289750D01*
G75*
G02*
X186978750Y-79039750I250000J0D01*
G01*
X187728750Y-79039750D01*
G75*
G02*
X187978750Y-79289750I0J-250000D01*
G01*
G37*
G36*
G01*
X190778750Y-79289750D02*
X190778750Y-80539750D01*
G75*
G02*
X190528750Y-80789750I-250000J0D01*
G01*
X189778750Y-80789750D01*
G75*
G02*
X189528750Y-80539750I0J250000D01*
G01*
X189528750Y-79289750D01*
G75*
G02*
X189778750Y-79039750I250000J0D01*
G01*
X190528750Y-79039750D01*
G75*
G02*
X190778750Y-79289750I0J-250000D01*
G01*
G37*
%TD*%
%TO.C,D41*%
G36*
G01*
X187978750Y-60239750D02*
X187978750Y-61489750D01*
G75*
G02*
X187728750Y-61739750I-250000J0D01*
G01*
X186978750Y-61739750D01*
G75*
G02*
X186728750Y-61489750I0J250000D01*
G01*
X186728750Y-60239750D01*
G75*
G02*
X186978750Y-59989750I250000J0D01*
G01*
X187728750Y-59989750D01*
G75*
G02*
X187978750Y-60239750I0J-250000D01*
G01*
G37*
G36*
G01*
X190778750Y-60239750D02*
X190778750Y-61489750D01*
G75*
G02*
X190528750Y-61739750I-250000J0D01*
G01*
X189778750Y-61739750D01*
G75*
G02*
X189528750Y-61489750I0J250000D01*
G01*
X189528750Y-60239750D01*
G75*
G02*
X189778750Y-59989750I250000J0D01*
G01*
X190528750Y-59989750D01*
G75*
G02*
X190778750Y-60239750I0J-250000D01*
G01*
G37*
%TD*%
%TO.C,D40*%
G36*
G01*
X162617801Y-147711815D02*
X163501685Y-148595699D01*
G75*
G02*
X163501685Y-148949253I-176777J-176777D01*
G01*
X162971355Y-149479583D01*
G75*
G02*
X162617801Y-149479583I-176777J176777D01*
G01*
X161733917Y-148595699D01*
G75*
G02*
X161733917Y-148242145I176777J176777D01*
G01*
X162264247Y-147711815D01*
G75*
G02*
X162617801Y-147711815I176777J-176777D01*
G01*
G37*
G36*
G01*
X164597699Y-145731917D02*
X165481583Y-146615801D01*
G75*
G02*
X165481583Y-146969355I-176777J-176777D01*
G01*
X164951253Y-147499685D01*
G75*
G02*
X164597699Y-147499685I-176777J176777D01*
G01*
X163713815Y-146615801D01*
G75*
G02*
X163713815Y-146262247I176777J176777D01*
G01*
X164244145Y-145731917D01*
G75*
G02*
X164597699Y-145731917I176777J-176777D01*
G01*
G37*
%TD*%
%TO.C,D39*%
G36*
G01*
X168928750Y-119040750D02*
X168928750Y-120290750D01*
G75*
G02*
X168678750Y-120540750I-250000J0D01*
G01*
X167928750Y-120540750D01*
G75*
G02*
X167678750Y-120290750I0J250000D01*
G01*
X167678750Y-119040750D01*
G75*
G02*
X167928750Y-118790750I250000J0D01*
G01*
X168678750Y-118790750D01*
G75*
G02*
X168928750Y-119040750I0J-250000D01*
G01*
G37*
G36*
G01*
X171728750Y-119040750D02*
X171728750Y-120290750D01*
G75*
G02*
X171478750Y-120540750I-250000J0D01*
G01*
X170728750Y-120540750D01*
G75*
G02*
X170478750Y-120290750I0J250000D01*
G01*
X170478750Y-119040750D01*
G75*
G02*
X170728750Y-118790750I250000J0D01*
G01*
X171478750Y-118790750D01*
G75*
G02*
X171728750Y-119040750I0J-250000D01*
G01*
G37*
%TD*%
%TO.C,D38*%
G36*
G01*
X168928750Y-99990750D02*
X168928750Y-101240750D01*
G75*
G02*
X168678750Y-101490750I-250000J0D01*
G01*
X167928750Y-101490750D01*
G75*
G02*
X167678750Y-101240750I0J250000D01*
G01*
X167678750Y-99990750D01*
G75*
G02*
X167928750Y-99740750I250000J0D01*
G01*
X168678750Y-99740750D01*
G75*
G02*
X168928750Y-99990750I0J-250000D01*
G01*
G37*
G36*
G01*
X171728750Y-99990750D02*
X171728750Y-101240750D01*
G75*
G02*
X171478750Y-101490750I-250000J0D01*
G01*
X170728750Y-101490750D01*
G75*
G02*
X170478750Y-101240750I0J250000D01*
G01*
X170478750Y-99990750D01*
G75*
G02*
X170728750Y-99740750I250000J0D01*
G01*
X171478750Y-99740750D01*
G75*
G02*
X171728750Y-99990750I0J-250000D01*
G01*
G37*
%TD*%
%TO.C,D37*%
G36*
G01*
X168928750Y-80940750D02*
X168928750Y-82190750D01*
G75*
G02*
X168678750Y-82440750I-250000J0D01*
G01*
X167928750Y-82440750D01*
G75*
G02*
X167678750Y-82190750I0J250000D01*
G01*
X167678750Y-80940750D01*
G75*
G02*
X167928750Y-80690750I250000J0D01*
G01*
X168678750Y-80690750D01*
G75*
G02*
X168928750Y-80940750I0J-250000D01*
G01*
G37*
G36*
G01*
X171728750Y-80940750D02*
X171728750Y-82190750D01*
G75*
G02*
X171478750Y-82440750I-250000J0D01*
G01*
X170728750Y-82440750D01*
G75*
G02*
X170478750Y-82190750I0J250000D01*
G01*
X170478750Y-80940750D01*
G75*
G02*
X170728750Y-80690750I250000J0D01*
G01*
X171478750Y-80690750D01*
G75*
G02*
X171728750Y-80940750I0J-250000D01*
G01*
G37*
%TD*%
%TO.C,D36*%
G36*
G01*
X168928750Y-61890750D02*
X168928750Y-63140750D01*
G75*
G02*
X168678750Y-63390750I-250000J0D01*
G01*
X167928750Y-63390750D01*
G75*
G02*
X167678750Y-63140750I0J250000D01*
G01*
X167678750Y-61890750D01*
G75*
G02*
X167928750Y-61640750I250000J0D01*
G01*
X168678750Y-61640750D01*
G75*
G02*
X168928750Y-61890750I0J-250000D01*
G01*
G37*
G36*
G01*
X171728750Y-61890750D02*
X171728750Y-63140750D01*
G75*
G02*
X171478750Y-63390750I-250000J0D01*
G01*
X170728750Y-63390750D01*
G75*
G02*
X170478750Y-63140750I0J250000D01*
G01*
X170478750Y-61890750D01*
G75*
G02*
X170728750Y-61640750I250000J0D01*
G01*
X171478750Y-61640750D01*
G75*
G02*
X171728750Y-61890750I0J-250000D01*
G01*
G37*
%TD*%
%TO.C,D35*%
G36*
G01*
X114374315Y-148595699D02*
X115258199Y-147711815D01*
G75*
G02*
X115611753Y-147711815I176777J-176777D01*
G01*
X116142083Y-148242145D01*
G75*
G02*
X116142083Y-148595699I-176777J-176777D01*
G01*
X115258199Y-149479583D01*
G75*
G02*
X114904645Y-149479583I-176777J176777D01*
G01*
X114374315Y-148949253D01*
G75*
G02*
X114374315Y-148595699I176777J176777D01*
G01*
G37*
G36*
G01*
X112394417Y-146615801D02*
X113278301Y-145731917D01*
G75*
G02*
X113631855Y-145731917I176777J-176777D01*
G01*
X114162185Y-146262247D01*
G75*
G02*
X114162185Y-146615801I-176777J-176777D01*
G01*
X113278301Y-147499685D01*
G75*
G02*
X112924747Y-147499685I-176777J176777D01*
G01*
X112394417Y-146969355D01*
G75*
G02*
X112394417Y-146615801I176777J176777D01*
G01*
G37*
%TD*%
%TO.C,D34*%
G36*
G01*
X108820250Y-120290750D02*
X108820250Y-119040750D01*
G75*
G02*
X109070250Y-118790750I250000J0D01*
G01*
X109820250Y-118790750D01*
G75*
G02*
X110070250Y-119040750I0J-250000D01*
G01*
X110070250Y-120290750D01*
G75*
G02*
X109820250Y-120540750I-250000J0D01*
G01*
X109070250Y-120540750D01*
G75*
G02*
X108820250Y-120290750I0J250000D01*
G01*
G37*
G36*
G01*
X106020250Y-120290750D02*
X106020250Y-119040750D01*
G75*
G02*
X106270250Y-118790750I250000J0D01*
G01*
X107020250Y-118790750D01*
G75*
G02*
X107270250Y-119040750I0J-250000D01*
G01*
X107270250Y-120290750D01*
G75*
G02*
X107020250Y-120540750I-250000J0D01*
G01*
X106270250Y-120540750D01*
G75*
G02*
X106020250Y-120290750I0J250000D01*
G01*
G37*
%TD*%
%TO.C,D33*%
G36*
G01*
X108820250Y-101240750D02*
X108820250Y-99990750D01*
G75*
G02*
X109070250Y-99740750I250000J0D01*
G01*
X109820250Y-99740750D01*
G75*
G02*
X110070250Y-99990750I0J-250000D01*
G01*
X110070250Y-101240750D01*
G75*
G02*
X109820250Y-101490750I-250000J0D01*
G01*
X109070250Y-101490750D01*
G75*
G02*
X108820250Y-101240750I0J250000D01*
G01*
G37*
G36*
G01*
X106020250Y-101240750D02*
X106020250Y-99990750D01*
G75*
G02*
X106270250Y-99740750I250000J0D01*
G01*
X107020250Y-99740750D01*
G75*
G02*
X107270250Y-99990750I0J-250000D01*
G01*
X107270250Y-101240750D01*
G75*
G02*
X107020250Y-101490750I-250000J0D01*
G01*
X106270250Y-101490750D01*
G75*
G02*
X106020250Y-101240750I0J250000D01*
G01*
G37*
%TD*%
%TO.C,D32*%
G36*
G01*
X108820250Y-82190750D02*
X108820250Y-80940750D01*
G75*
G02*
X109070250Y-80690750I250000J0D01*
G01*
X109820250Y-80690750D01*
G75*
G02*
X110070250Y-80940750I0J-250000D01*
G01*
X110070250Y-82190750D01*
G75*
G02*
X109820250Y-82440750I-250000J0D01*
G01*
X109070250Y-82440750D01*
G75*
G02*
X108820250Y-82190750I0J250000D01*
G01*
G37*
G36*
G01*
X106020250Y-82190750D02*
X106020250Y-80940750D01*
G75*
G02*
X106270250Y-80690750I250000J0D01*
G01*
X107020250Y-80690750D01*
G75*
G02*
X107270250Y-80940750I0J-250000D01*
G01*
X107270250Y-82190750D01*
G75*
G02*
X107020250Y-82440750I-250000J0D01*
G01*
X106270250Y-82440750D01*
G75*
G02*
X106020250Y-82190750I0J250000D01*
G01*
G37*
%TD*%
%TO.C,D31*%
G36*
G01*
X108820250Y-63140750D02*
X108820250Y-61890750D01*
G75*
G02*
X109070250Y-61640750I250000J0D01*
G01*
X109820250Y-61640750D01*
G75*
G02*
X110070250Y-61890750I0J-250000D01*
G01*
X110070250Y-63140750D01*
G75*
G02*
X109820250Y-63390750I-250000J0D01*
G01*
X109070250Y-63390750D01*
G75*
G02*
X108820250Y-63140750I0J250000D01*
G01*
G37*
G36*
G01*
X106020250Y-63140750D02*
X106020250Y-61890750D01*
G75*
G02*
X106270250Y-61640750I250000J0D01*
G01*
X107020250Y-61640750D01*
G75*
G02*
X107270250Y-61890750I0J-250000D01*
G01*
X107270250Y-63140750D01*
G75*
G02*
X107020250Y-63390750I-250000J0D01*
G01*
X106270250Y-63390750D01*
G75*
G02*
X106020250Y-63140750I0J250000D01*
G01*
G37*
%TD*%
%TO.C,D30*%
G36*
G01*
X95449920Y-137231516D02*
X96074920Y-136148984D01*
G75*
G02*
X96416426Y-136057478I216506J-125000D01*
G01*
X97065946Y-136432478D01*
G75*
G02*
X97157452Y-136773984I-125000J-216506D01*
G01*
X96532452Y-137856516D01*
G75*
G02*
X96190946Y-137948022I-216506J125000D01*
G01*
X95541426Y-137573022D01*
G75*
G02*
X95449920Y-137231516I125000J216506D01*
G01*
G37*
G36*
G01*
X93025048Y-135831516D02*
X93650048Y-134748984D01*
G75*
G02*
X93991554Y-134657478I216506J-125000D01*
G01*
X94641074Y-135032478D01*
G75*
G02*
X94732580Y-135373984I-125000J-216506D01*
G01*
X94107580Y-136456516D01*
G75*
G02*
X93766074Y-136548022I-216506J125000D01*
G01*
X93116554Y-136173022D01*
G75*
G02*
X93025048Y-135831516I125000J216506D01*
G01*
G37*
%TD*%
%TO.C,D29*%
G36*
G01*
X89770250Y-118512750D02*
X89770250Y-117262750D01*
G75*
G02*
X90020250Y-117012750I250000J0D01*
G01*
X90770250Y-117012750D01*
G75*
G02*
X91020250Y-117262750I0J-250000D01*
G01*
X91020250Y-118512750D01*
G75*
G02*
X90770250Y-118762750I-250000J0D01*
G01*
X90020250Y-118762750D01*
G75*
G02*
X89770250Y-118512750I0J250000D01*
G01*
G37*
G36*
G01*
X86970250Y-118512750D02*
X86970250Y-117262750D01*
G75*
G02*
X87220250Y-117012750I250000J0D01*
G01*
X87970250Y-117012750D01*
G75*
G02*
X88220250Y-117262750I0J-250000D01*
G01*
X88220250Y-118512750D01*
G75*
G02*
X87970250Y-118762750I-250000J0D01*
G01*
X87220250Y-118762750D01*
G75*
G02*
X86970250Y-118512750I0J250000D01*
G01*
G37*
%TD*%
%TO.C,D28*%
G36*
G01*
X89770250Y-99558000D02*
X89770250Y-98308000D01*
G75*
G02*
X90020250Y-98058000I250000J0D01*
G01*
X90770250Y-98058000D01*
G75*
G02*
X91020250Y-98308000I0J-250000D01*
G01*
X91020250Y-99558000D01*
G75*
G02*
X90770250Y-99808000I-250000J0D01*
G01*
X90020250Y-99808000D01*
G75*
G02*
X89770250Y-99558000I0J250000D01*
G01*
G37*
G36*
G01*
X86970250Y-99558000D02*
X86970250Y-98308000D01*
G75*
G02*
X87220250Y-98058000I250000J0D01*
G01*
X87970250Y-98058000D01*
G75*
G02*
X88220250Y-98308000I0J-250000D01*
G01*
X88220250Y-99558000D01*
G75*
G02*
X87970250Y-99808000I-250000J0D01*
G01*
X87220250Y-99808000D01*
G75*
G02*
X86970250Y-99558000I0J250000D01*
G01*
G37*
%TD*%
%TO.C,D27*%
G36*
G01*
X89770250Y-80539750D02*
X89770250Y-79289750D01*
G75*
G02*
X90020250Y-79039750I250000J0D01*
G01*
X90770250Y-79039750D01*
G75*
G02*
X91020250Y-79289750I0J-250000D01*
G01*
X91020250Y-80539750D01*
G75*
G02*
X90770250Y-80789750I-250000J0D01*
G01*
X90020250Y-80789750D01*
G75*
G02*
X89770250Y-80539750I0J250000D01*
G01*
G37*
G36*
G01*
X86970250Y-80539750D02*
X86970250Y-79289750D01*
G75*
G02*
X87220250Y-79039750I250000J0D01*
G01*
X87970250Y-79039750D01*
G75*
G02*
X88220250Y-79289750I0J-250000D01*
G01*
X88220250Y-80539750D01*
G75*
G02*
X87970250Y-80789750I-250000J0D01*
G01*
X87220250Y-80789750D01*
G75*
G02*
X86970250Y-80539750I0J250000D01*
G01*
G37*
%TD*%
%TO.C,D26*%
G36*
G01*
X89770250Y-61489750D02*
X89770250Y-60239750D01*
G75*
G02*
X90020250Y-59989750I250000J0D01*
G01*
X90770250Y-59989750D01*
G75*
G02*
X91020250Y-60239750I0J-250000D01*
G01*
X91020250Y-61489750D01*
G75*
G02*
X90770250Y-61739750I-250000J0D01*
G01*
X90020250Y-61739750D01*
G75*
G02*
X89770250Y-61489750I0J250000D01*
G01*
G37*
G36*
G01*
X86970250Y-61489750D02*
X86970250Y-60239750D01*
G75*
G02*
X87220250Y-59989750I250000J0D01*
G01*
X87970250Y-59989750D01*
G75*
G02*
X88220250Y-60239750I0J-250000D01*
G01*
X88220250Y-61489750D01*
G75*
G02*
X87970250Y-61739750I-250000J0D01*
G01*
X87220250Y-61739750D01*
G75*
G02*
X86970250Y-61489750I0J250000D01*
G01*
G37*
%TD*%
%TO.C,D25*%
G36*
G01*
X70720250Y-135784750D02*
X70720250Y-134534750D01*
G75*
G02*
X70970250Y-134284750I250000J0D01*
G01*
X71720250Y-134284750D01*
G75*
G02*
X71970250Y-134534750I0J-250000D01*
G01*
X71970250Y-135784750D01*
G75*
G02*
X71720250Y-136034750I-250000J0D01*
G01*
X70970250Y-136034750D01*
G75*
G02*
X70720250Y-135784750I0J250000D01*
G01*
G37*
G36*
G01*
X67920250Y-135784750D02*
X67920250Y-134534750D01*
G75*
G02*
X68170250Y-134284750I250000J0D01*
G01*
X68920250Y-134284750D01*
G75*
G02*
X69170250Y-134534750I0J-250000D01*
G01*
X69170250Y-135784750D01*
G75*
G02*
X68920250Y-136034750I-250000J0D01*
G01*
X68170250Y-136034750D01*
G75*
G02*
X67920250Y-135784750I0J250000D01*
G01*
G37*
%TD*%
%TO.C,D24*%
G36*
G01*
X70720250Y-116734750D02*
X70720250Y-115484750D01*
G75*
G02*
X70970250Y-115234750I250000J0D01*
G01*
X71720250Y-115234750D01*
G75*
G02*
X71970250Y-115484750I0J-250000D01*
G01*
X71970250Y-116734750D01*
G75*
G02*
X71720250Y-116984750I-250000J0D01*
G01*
X70970250Y-116984750D01*
G75*
G02*
X70720250Y-116734750I0J250000D01*
G01*
G37*
G36*
G01*
X67920250Y-116734750D02*
X67920250Y-115484750D01*
G75*
G02*
X68170250Y-115234750I250000J0D01*
G01*
X68920250Y-115234750D01*
G75*
G02*
X69170250Y-115484750I0J-250000D01*
G01*
X69170250Y-116734750D01*
G75*
G02*
X68920250Y-116984750I-250000J0D01*
G01*
X68170250Y-116984750D01*
G75*
G02*
X67920250Y-116734750I0J250000D01*
G01*
G37*
%TD*%
%TO.C,D23*%
G36*
G01*
X70720250Y-97557750D02*
X70720250Y-96307750D01*
G75*
G02*
X70970250Y-96057750I250000J0D01*
G01*
X71720250Y-96057750D01*
G75*
G02*
X71970250Y-96307750I0J-250000D01*
G01*
X71970250Y-97557750D01*
G75*
G02*
X71720250Y-97807750I-250000J0D01*
G01*
X70970250Y-97807750D01*
G75*
G02*
X70720250Y-97557750I0J250000D01*
G01*
G37*
G36*
G01*
X67920250Y-97557750D02*
X67920250Y-96307750D01*
G75*
G02*
X68170250Y-96057750I250000J0D01*
G01*
X68920250Y-96057750D01*
G75*
G02*
X69170250Y-96307750I0J-250000D01*
G01*
X69170250Y-97557750D01*
G75*
G02*
X68920250Y-97807750I-250000J0D01*
G01*
X68170250Y-97807750D01*
G75*
G02*
X67920250Y-97557750I0J250000D01*
G01*
G37*
%TD*%
%TO.C,D22*%
G36*
G01*
X70720250Y-78634750D02*
X70720250Y-77384750D01*
G75*
G02*
X70970250Y-77134750I250000J0D01*
G01*
X71720250Y-77134750D01*
G75*
G02*
X71970250Y-77384750I0J-250000D01*
G01*
X71970250Y-78634750D01*
G75*
G02*
X71720250Y-78884750I-250000J0D01*
G01*
X70970250Y-78884750D01*
G75*
G02*
X70720250Y-78634750I0J250000D01*
G01*
G37*
G36*
G01*
X67920250Y-78634750D02*
X67920250Y-77384750D01*
G75*
G02*
X68170250Y-77134750I250000J0D01*
G01*
X68920250Y-77134750D01*
G75*
G02*
X69170250Y-77384750I0J-250000D01*
G01*
X69170250Y-78634750D01*
G75*
G02*
X68920250Y-78884750I-250000J0D01*
G01*
X68170250Y-78884750D01*
G75*
G02*
X67920250Y-78634750I0J250000D01*
G01*
G37*
%TD*%
%TO.C,D21*%
G36*
G01*
X70720250Y-59584750D02*
X70720250Y-58334750D01*
G75*
G02*
X70970250Y-58084750I250000J0D01*
G01*
X71720250Y-58084750D01*
G75*
G02*
X71970250Y-58334750I0J-250000D01*
G01*
X71970250Y-59584750D01*
G75*
G02*
X71720250Y-59834750I-250000J0D01*
G01*
X70970250Y-59834750D01*
G75*
G02*
X70720250Y-59584750I0J250000D01*
G01*
G37*
G36*
G01*
X67920250Y-59584750D02*
X67920250Y-58334750D01*
G75*
G02*
X68170250Y-58084750I250000J0D01*
G01*
X68920250Y-58084750D01*
G75*
G02*
X69170250Y-58334750I0J-250000D01*
G01*
X69170250Y-59584750D01*
G75*
G02*
X68920250Y-59834750I-250000J0D01*
G01*
X68170250Y-59834750D01*
G75*
G02*
X67920250Y-59584750I0J250000D01*
G01*
G37*
%TD*%
%TO.C,D20*%
G36*
G01*
X51670250Y-132990750D02*
X51670250Y-131740750D01*
G75*
G02*
X51920250Y-131490750I250000J0D01*
G01*
X52670250Y-131490750D01*
G75*
G02*
X52920250Y-131740750I0J-250000D01*
G01*
X52920250Y-132990750D01*
G75*
G02*
X52670250Y-133240750I-250000J0D01*
G01*
X51920250Y-133240750D01*
G75*
G02*
X51670250Y-132990750I0J250000D01*
G01*
G37*
G36*
G01*
X48870250Y-132990750D02*
X48870250Y-131740750D01*
G75*
G02*
X49120250Y-131490750I250000J0D01*
G01*
X49870250Y-131490750D01*
G75*
G02*
X50120250Y-131740750I0J-250000D01*
G01*
X50120250Y-132990750D01*
G75*
G02*
X49870250Y-133240750I-250000J0D01*
G01*
X49120250Y-133240750D01*
G75*
G02*
X48870250Y-132990750I0J250000D01*
G01*
G37*
%TD*%
%TO.C,D19*%
G36*
G01*
X51670250Y-113940750D02*
X51670250Y-112690750D01*
G75*
G02*
X51920250Y-112440750I250000J0D01*
G01*
X52670250Y-112440750D01*
G75*
G02*
X52920250Y-112690750I0J-250000D01*
G01*
X52920250Y-113940750D01*
G75*
G02*
X52670250Y-114190750I-250000J0D01*
G01*
X51920250Y-114190750D01*
G75*
G02*
X51670250Y-113940750I0J250000D01*
G01*
G37*
G36*
G01*
X48870250Y-113940750D02*
X48870250Y-112690750D01*
G75*
G02*
X49120250Y-112440750I250000J0D01*
G01*
X49870250Y-112440750D01*
G75*
G02*
X50120250Y-112690750I0J-250000D01*
G01*
X50120250Y-113940750D01*
G75*
G02*
X49870250Y-114190750I-250000J0D01*
G01*
X49120250Y-114190750D01*
G75*
G02*
X48870250Y-113940750I0J250000D01*
G01*
G37*
%TD*%
%TO.C,D18*%
G36*
G01*
X51670250Y-94890750D02*
X51670250Y-93640750D01*
G75*
G02*
X51920250Y-93390750I250000J0D01*
G01*
X52670250Y-93390750D01*
G75*
G02*
X52920250Y-93640750I0J-250000D01*
G01*
X52920250Y-94890750D01*
G75*
G02*
X52670250Y-95140750I-250000J0D01*
G01*
X51920250Y-95140750D01*
G75*
G02*
X51670250Y-94890750I0J250000D01*
G01*
G37*
G36*
G01*
X48870250Y-94890750D02*
X48870250Y-93640750D01*
G75*
G02*
X49120250Y-93390750I250000J0D01*
G01*
X49870250Y-93390750D01*
G75*
G02*
X50120250Y-93640750I0J-250000D01*
G01*
X50120250Y-94890750D01*
G75*
G02*
X49870250Y-95140750I-250000J0D01*
G01*
X49120250Y-95140750D01*
G75*
G02*
X48870250Y-94890750I0J250000D01*
G01*
G37*
%TD*%
%TO.C,D17*%
G36*
G01*
X51670250Y-75840750D02*
X51670250Y-74590750D01*
G75*
G02*
X51920250Y-74340750I250000J0D01*
G01*
X52670250Y-74340750D01*
G75*
G02*
X52920250Y-74590750I0J-250000D01*
G01*
X52920250Y-75840750D01*
G75*
G02*
X52670250Y-76090750I-250000J0D01*
G01*
X51920250Y-76090750D01*
G75*
G02*
X51670250Y-75840750I0J250000D01*
G01*
G37*
G36*
G01*
X48870250Y-75840750D02*
X48870250Y-74590750D01*
G75*
G02*
X49120250Y-74340750I250000J0D01*
G01*
X49870250Y-74340750D01*
G75*
G02*
X50120250Y-74590750I0J-250000D01*
G01*
X50120250Y-75840750D01*
G75*
G02*
X49870250Y-76090750I-250000J0D01*
G01*
X49120250Y-76090750D01*
G75*
G02*
X48870250Y-75840750I0J250000D01*
G01*
G37*
%TD*%
%TO.C,D16*%
G36*
G01*
X51670250Y-56663750D02*
X51670250Y-55413750D01*
G75*
G02*
X51920250Y-55163750I250000J0D01*
G01*
X52670250Y-55163750D01*
G75*
G02*
X52920250Y-55413750I0J-250000D01*
G01*
X52920250Y-56663750D01*
G75*
G02*
X52670250Y-56913750I-250000J0D01*
G01*
X51920250Y-56913750D01*
G75*
G02*
X51670250Y-56663750I0J250000D01*
G01*
G37*
G36*
G01*
X48870250Y-56663750D02*
X48870250Y-55413750D01*
G75*
G02*
X49120250Y-55163750I250000J0D01*
G01*
X49870250Y-55163750D01*
G75*
G02*
X50120250Y-55413750I0J-250000D01*
G01*
X50120250Y-56663750D01*
G75*
G02*
X49870250Y-56913750I-250000J0D01*
G01*
X49120250Y-56913750D01*
G75*
G02*
X48870250Y-56663750I0J250000D01*
G01*
G37*
%TD*%
%TO.C,D15*%
G36*
G01*
X32620250Y-135784750D02*
X32620250Y-134534750D01*
G75*
G02*
X32870250Y-134284750I250000J0D01*
G01*
X33620250Y-134284750D01*
G75*
G02*
X33870250Y-134534750I0J-250000D01*
G01*
X33870250Y-135784750D01*
G75*
G02*
X33620250Y-136034750I-250000J0D01*
G01*
X32870250Y-136034750D01*
G75*
G02*
X32620250Y-135784750I0J250000D01*
G01*
G37*
G36*
G01*
X29820250Y-135784750D02*
X29820250Y-134534750D01*
G75*
G02*
X30070250Y-134284750I250000J0D01*
G01*
X30820250Y-134284750D01*
G75*
G02*
X31070250Y-134534750I0J-250000D01*
G01*
X31070250Y-135784750D01*
G75*
G02*
X30820250Y-136034750I-250000J0D01*
G01*
X30070250Y-136034750D01*
G75*
G02*
X29820250Y-135784750I0J250000D01*
G01*
G37*
%TD*%
%TO.C,D14*%
G36*
G01*
X32620250Y-116734750D02*
X32620250Y-115484750D01*
G75*
G02*
X32870250Y-115234750I250000J0D01*
G01*
X33620250Y-115234750D01*
G75*
G02*
X33870250Y-115484750I0J-250000D01*
G01*
X33870250Y-116734750D01*
G75*
G02*
X33620250Y-116984750I-250000J0D01*
G01*
X32870250Y-116984750D01*
G75*
G02*
X32620250Y-116734750I0J250000D01*
G01*
G37*
G36*
G01*
X29820250Y-116734750D02*
X29820250Y-115484750D01*
G75*
G02*
X30070250Y-115234750I250000J0D01*
G01*
X30820250Y-115234750D01*
G75*
G02*
X31070250Y-115484750I0J-250000D01*
G01*
X31070250Y-116734750D01*
G75*
G02*
X30820250Y-116984750I-250000J0D01*
G01*
X30070250Y-116984750D01*
G75*
G02*
X29820250Y-116734750I0J250000D01*
G01*
G37*
%TD*%
%TO.C,D13*%
G36*
G01*
X32620250Y-97684750D02*
X32620250Y-96434750D01*
G75*
G02*
X32870250Y-96184750I250000J0D01*
G01*
X33620250Y-96184750D01*
G75*
G02*
X33870250Y-96434750I0J-250000D01*
G01*
X33870250Y-97684750D01*
G75*
G02*
X33620250Y-97934750I-250000J0D01*
G01*
X32870250Y-97934750D01*
G75*
G02*
X32620250Y-97684750I0J250000D01*
G01*
G37*
G36*
G01*
X29820250Y-97684750D02*
X29820250Y-96434750D01*
G75*
G02*
X30070250Y-96184750I250000J0D01*
G01*
X30820250Y-96184750D01*
G75*
G02*
X31070250Y-96434750I0J-250000D01*
G01*
X31070250Y-97684750D01*
G75*
G02*
X30820250Y-97934750I-250000J0D01*
G01*
X30070250Y-97934750D01*
G75*
G02*
X29820250Y-97684750I0J250000D01*
G01*
G37*
%TD*%
%TO.C,D12*%
G36*
G01*
X32617250Y-78634750D02*
X32617250Y-77384750D01*
G75*
G02*
X32867250Y-77134750I250000J0D01*
G01*
X33617250Y-77134750D01*
G75*
G02*
X33867250Y-77384750I0J-250000D01*
G01*
X33867250Y-78634750D01*
G75*
G02*
X33617250Y-78884750I-250000J0D01*
G01*
X32867250Y-78884750D01*
G75*
G02*
X32617250Y-78634750I0J250000D01*
G01*
G37*
G36*
G01*
X29817250Y-78634750D02*
X29817250Y-77384750D01*
G75*
G02*
X30067250Y-77134750I250000J0D01*
G01*
X30817250Y-77134750D01*
G75*
G02*
X31067250Y-77384750I0J-250000D01*
G01*
X31067250Y-78634750D01*
G75*
G02*
X30817250Y-78884750I-250000J0D01*
G01*
X30067250Y-78884750D01*
G75*
G02*
X29817250Y-78634750I0J250000D01*
G01*
G37*
%TD*%
%TO.C,D11*%
G36*
G01*
X32623250Y-59584750D02*
X32623250Y-58334750D01*
G75*
G02*
X32873250Y-58084750I250000J0D01*
G01*
X33623250Y-58084750D01*
G75*
G02*
X33873250Y-58334750I0J-250000D01*
G01*
X33873250Y-59584750D01*
G75*
G02*
X33623250Y-59834750I-250000J0D01*
G01*
X32873250Y-59834750D01*
G75*
G02*
X32623250Y-59584750I0J250000D01*
G01*
G37*
G36*
G01*
X29823250Y-59584750D02*
X29823250Y-58334750D01*
G75*
G02*
X30073250Y-58084750I250000J0D01*
G01*
X30823250Y-58084750D01*
G75*
G02*
X31073250Y-58334750I0J-250000D01*
G01*
X31073250Y-59584750D01*
G75*
G02*
X30823250Y-59834750I-250000J0D01*
G01*
X30073250Y-59834750D01*
G75*
G02*
X29823250Y-59584750I0J250000D01*
G01*
G37*
%TD*%
%TO.C,D10*%
G36*
G01*
X13570250Y-139340750D02*
X13570250Y-138090750D01*
G75*
G02*
X13820250Y-137840750I250000J0D01*
G01*
X14570250Y-137840750D01*
G75*
G02*
X14820250Y-138090750I0J-250000D01*
G01*
X14820250Y-139340750D01*
G75*
G02*
X14570250Y-139590750I-250000J0D01*
G01*
X13820250Y-139590750D01*
G75*
G02*
X13570250Y-139340750I0J250000D01*
G01*
G37*
G36*
G01*
X10770250Y-139340750D02*
X10770250Y-138090750D01*
G75*
G02*
X11020250Y-137840750I250000J0D01*
G01*
X11770250Y-137840750D01*
G75*
G02*
X12020250Y-138090750I0J-250000D01*
G01*
X12020250Y-139340750D01*
G75*
G02*
X11770250Y-139590750I-250000J0D01*
G01*
X11020250Y-139590750D01*
G75*
G02*
X10770250Y-139340750I0J250000D01*
G01*
G37*
%TD*%
%TO.C,D9*%
G36*
G01*
X13570250Y-120290750D02*
X13570250Y-119040750D01*
G75*
G02*
X13820250Y-118790750I250000J0D01*
G01*
X14570250Y-118790750D01*
G75*
G02*
X14820250Y-119040750I0J-250000D01*
G01*
X14820250Y-120290750D01*
G75*
G02*
X14570250Y-120540750I-250000J0D01*
G01*
X13820250Y-120540750D01*
G75*
G02*
X13570250Y-120290750I0J250000D01*
G01*
G37*
G36*
G01*
X10770250Y-120290750D02*
X10770250Y-119040750D01*
G75*
G02*
X11020250Y-118790750I250000J0D01*
G01*
X11770250Y-118790750D01*
G75*
G02*
X12020250Y-119040750I0J-250000D01*
G01*
X12020250Y-120290750D01*
G75*
G02*
X11770250Y-120540750I-250000J0D01*
G01*
X11020250Y-120540750D01*
G75*
G02*
X10770250Y-120290750I0J250000D01*
G01*
G37*
%TD*%
%TO.C,D8*%
G36*
G01*
X13570250Y-101240750D02*
X13570250Y-99990750D01*
G75*
G02*
X13820250Y-99740750I250000J0D01*
G01*
X14570250Y-99740750D01*
G75*
G02*
X14820250Y-99990750I0J-250000D01*
G01*
X14820250Y-101240750D01*
G75*
G02*
X14570250Y-101490750I-250000J0D01*
G01*
X13820250Y-101490750D01*
G75*
G02*
X13570250Y-101240750I0J250000D01*
G01*
G37*
G36*
G01*
X10770250Y-101240750D02*
X10770250Y-99990750D01*
G75*
G02*
X11020250Y-99740750I250000J0D01*
G01*
X11770250Y-99740750D01*
G75*
G02*
X12020250Y-99990750I0J-250000D01*
G01*
X12020250Y-101240750D01*
G75*
G02*
X11770250Y-101490750I-250000J0D01*
G01*
X11020250Y-101490750D01*
G75*
G02*
X10770250Y-101240750I0J250000D01*
G01*
G37*
%TD*%
%TO.C,D7*%
G36*
G01*
X13570250Y-82190750D02*
X13570250Y-80940750D01*
G75*
G02*
X13820250Y-80690750I250000J0D01*
G01*
X14570250Y-80690750D01*
G75*
G02*
X14820250Y-80940750I0J-250000D01*
G01*
X14820250Y-82190750D01*
G75*
G02*
X14570250Y-82440750I-250000J0D01*
G01*
X13820250Y-82440750D01*
G75*
G02*
X13570250Y-82190750I0J250000D01*
G01*
G37*
G36*
G01*
X10770250Y-82190750D02*
X10770250Y-80940750D01*
G75*
G02*
X11020250Y-80690750I250000J0D01*
G01*
X11770250Y-80690750D01*
G75*
G02*
X12020250Y-80940750I0J-250000D01*
G01*
X12020250Y-82190750D01*
G75*
G02*
X11770250Y-82440750I-250000J0D01*
G01*
X11020250Y-82440750D01*
G75*
G02*
X10770250Y-82190750I0J250000D01*
G01*
G37*
%TD*%
%TO.C,D6*%
G36*
G01*
X13570250Y-63140750D02*
X13570250Y-61890750D01*
G75*
G02*
X13820250Y-61640750I250000J0D01*
G01*
X14570250Y-61640750D01*
G75*
G02*
X14820250Y-61890750I0J-250000D01*
G01*
X14820250Y-63140750D01*
G75*
G02*
X14570250Y-63390750I-250000J0D01*
G01*
X13820250Y-63390750D01*
G75*
G02*
X13570250Y-63140750I0J250000D01*
G01*
G37*
G36*
G01*
X10770250Y-63140750D02*
X10770250Y-61890750D01*
G75*
G02*
X11020250Y-61640750I250000J0D01*
G01*
X11770250Y-61640750D01*
G75*
G02*
X12020250Y-61890750I0J-250000D01*
G01*
X12020250Y-63140750D01*
G75*
G02*
X11770250Y-63390750I-250000J0D01*
G01*
X11020250Y-63390750D01*
G75*
G02*
X10770250Y-63140750I0J250000D01*
G01*
G37*
%TD*%
%TO.C,D5*%
G36*
G01*
X-10305750Y-139340750D02*
X-10305750Y-138090750D01*
G75*
G02*
X-10055750Y-137840750I250000J0D01*
G01*
X-9305750Y-137840750D01*
G75*
G02*
X-9055750Y-138090750I0J-250000D01*
G01*
X-9055750Y-139340750D01*
G75*
G02*
X-9305750Y-139590750I-250000J0D01*
G01*
X-10055750Y-139590750D01*
G75*
G02*
X-10305750Y-139340750I0J250000D01*
G01*
G37*
G36*
G01*
X-13105750Y-139340750D02*
X-13105750Y-138090750D01*
G75*
G02*
X-12855750Y-137840750I250000J0D01*
G01*
X-12105750Y-137840750D01*
G75*
G02*
X-11855750Y-138090750I0J-250000D01*
G01*
X-11855750Y-139340750D01*
G75*
G02*
X-12105750Y-139590750I-250000J0D01*
G01*
X-12855750Y-139590750D01*
G75*
G02*
X-13105750Y-139340750I0J250000D01*
G01*
G37*
%TD*%
%TO.C,D4*%
G36*
G01*
X-10305750Y-120290750D02*
X-10305750Y-119040750D01*
G75*
G02*
X-10055750Y-118790750I250000J0D01*
G01*
X-9305750Y-118790750D01*
G75*
G02*
X-9055750Y-119040750I0J-250000D01*
G01*
X-9055750Y-120290750D01*
G75*
G02*
X-9305750Y-120540750I-250000J0D01*
G01*
X-10055750Y-120540750D01*
G75*
G02*
X-10305750Y-120290750I0J250000D01*
G01*
G37*
G36*
G01*
X-13105750Y-120290750D02*
X-13105750Y-119040750D01*
G75*
G02*
X-12855750Y-118790750I250000J0D01*
G01*
X-12105750Y-118790750D01*
G75*
G02*
X-11855750Y-119040750I0J-250000D01*
G01*
X-11855750Y-120290750D01*
G75*
G02*
X-12105750Y-120540750I-250000J0D01*
G01*
X-12855750Y-120540750D01*
G75*
G02*
X-13105750Y-120290750I0J250000D01*
G01*
G37*
%TD*%
%TO.C,D3*%
G36*
G01*
X-10305750Y-101240750D02*
X-10305750Y-99990750D01*
G75*
G02*
X-10055750Y-99740750I250000J0D01*
G01*
X-9305750Y-99740750D01*
G75*
G02*
X-9055750Y-99990750I0J-250000D01*
G01*
X-9055750Y-101240750D01*
G75*
G02*
X-9305750Y-101490750I-250000J0D01*
G01*
X-10055750Y-101490750D01*
G75*
G02*
X-10305750Y-101240750I0J250000D01*
G01*
G37*
G36*
G01*
X-13105750Y-101240750D02*
X-13105750Y-99990750D01*
G75*
G02*
X-12855750Y-99740750I250000J0D01*
G01*
X-12105750Y-99740750D01*
G75*
G02*
X-11855750Y-99990750I0J-250000D01*
G01*
X-11855750Y-101240750D01*
G75*
G02*
X-12105750Y-101490750I-250000J0D01*
G01*
X-12855750Y-101490750D01*
G75*
G02*
X-13105750Y-101240750I0J250000D01*
G01*
G37*
%TD*%
%TO.C,D2*%
G36*
G01*
X-10305750Y-82190750D02*
X-10305750Y-80940750D01*
G75*
G02*
X-10055750Y-80690750I250000J0D01*
G01*
X-9305750Y-80690750D01*
G75*
G02*
X-9055750Y-80940750I0J-250000D01*
G01*
X-9055750Y-82190750D01*
G75*
G02*
X-9305750Y-82440750I-250000J0D01*
G01*
X-10055750Y-82440750D01*
G75*
G02*
X-10305750Y-82190750I0J250000D01*
G01*
G37*
G36*
G01*
X-13105750Y-82190750D02*
X-13105750Y-80940750D01*
G75*
G02*
X-12855750Y-80690750I250000J0D01*
G01*
X-12105750Y-80690750D01*
G75*
G02*
X-11855750Y-80940750I0J-250000D01*
G01*
X-11855750Y-82190750D01*
G75*
G02*
X-12105750Y-82440750I-250000J0D01*
G01*
X-12855750Y-82440750D01*
G75*
G02*
X-13105750Y-82190750I0J250000D01*
G01*
G37*
%TD*%
%TO.C,D1*%
G36*
G01*
X-10308750Y-64918750D02*
X-10308750Y-63668750D01*
G75*
G02*
X-10058750Y-63418750I250000J0D01*
G01*
X-9308750Y-63418750D01*
G75*
G02*
X-9058750Y-63668750I0J-250000D01*
G01*
X-9058750Y-64918750D01*
G75*
G02*
X-9308750Y-65168750I-250000J0D01*
G01*
X-10058750Y-65168750D01*
G75*
G02*
X-10308750Y-64918750I0J250000D01*
G01*
G37*
G36*
G01*
X-13108750Y-64918750D02*
X-13108750Y-63668750D01*
G75*
G02*
X-12858750Y-63418750I250000J0D01*
G01*
X-12108750Y-63418750D01*
G75*
G02*
X-11858750Y-63668750I0J-250000D01*
G01*
X-11858750Y-64918750D01*
G75*
G02*
X-12108750Y-65168750I-250000J0D01*
G01*
X-12858750Y-65168750D01*
G75*
G02*
X-13108750Y-64918750I0J250000D01*
G01*
G37*
%TD*%
M02*
