%TF.GenerationSoftware,KiCad,Pcbnew,(5.1.10)-1*%
%TF.CreationDate,2021-09-02T18:22:41+02:00*%
%TF.ProjectId,T1,54312e6b-6963-4616-945f-706362585858,1.1*%
%TF.SameCoordinates,Original*%
%TF.FileFunction,Copper,L1,Top*%
%TF.FilePolarity,Positive*%
%FSLAX46Y46*%
G04 Gerber Fmt 4.6, Leading zero omitted, Abs format (unit mm)*
G04 Created by KiCad (PCBNEW (5.1.10)-1) date 2021-09-02 18:22:41*
%MOMM*%
%LPD*%
G01*
G04 APERTURE LIST*
%TA.AperFunction,ComponentPad*%
%ADD10C,2.200000*%
%TD*%
%TA.AperFunction,ComponentPad*%
%ADD11R,1.000000X1.000000*%
%TD*%
%TA.AperFunction,SMDPad,CuDef*%
%ADD12R,0.600000X1.450000*%
%TD*%
%TA.AperFunction,SMDPad,CuDef*%
%ADD13R,0.300000X1.450000*%
%TD*%
%TA.AperFunction,ComponentPad*%
%ADD14O,1.000000X2.100000*%
%TD*%
%TA.AperFunction,ComponentPad*%
%ADD15O,1.000000X1.600000*%
%TD*%
%TA.AperFunction,ComponentPad*%
%ADD16C,1.900000*%
%TD*%
%TA.AperFunction,ComponentPad*%
%ADD17C,0.100000*%
%TD*%
%TA.AperFunction,ViaPad*%
%ADD18C,0.800000*%
%TD*%
%TA.AperFunction,Conductor*%
%ADD19C,0.250000*%
%TD*%
G04 APERTURE END LIST*
D10*
%TO.P,SW21,2*%
%TO.N,Net-(D21-Pad2)*%
X90582750Y-44100750D03*
%TO.P,SW21,1*%
%TO.N,/leftButtonSheet/row1*%
X96932750Y-41560750D03*
%TD*%
D11*
%TO.P,D+,1*%
%TO.N,Net-(R3-Pad1)*%
X140525500Y-77343000D03*
%TD*%
%TO.P,D-,1*%
%TO.N,Net-(R2-Pad1)*%
X140525500Y-80264000D03*
%TD*%
D10*
%TO.P,SW45,2*%
%TO.N,Net-(D43-Pad2)*%
X181991000Y-84105750D03*
%TO.P,SW45,1*%
%TO.N,/rightButtonSheet/row3*%
X188341000Y-81565750D03*
%TD*%
%TO.P,SW43,2*%
%TO.N,Net-(D41-Pad2)*%
X181984650Y-45999400D03*
%TO.P,SW43,1*%
%TO.N,/rightButtonSheet/row1*%
X188334650Y-43459400D03*
%TD*%
%TO.P,SW26,2*%
%TO.N,Net-(D26-Pad2)*%
X109639100Y-45999400D03*
%TO.P,SW26,1*%
%TO.N,/leftButtonSheet/row1*%
X115989100Y-43459400D03*
%TD*%
%TO.P,SW16,2*%
%TO.N,Net-(D16-Pad2)*%
X71532750Y-41179750D03*
%TO.P,SW16,1*%
%TO.N,/leftButtonSheet/row1*%
X77882750Y-38639750D03*
%TD*%
%TO.P,SW72,2*%
%TO.N,Net-(D70-Pad2)*%
X282067000Y-123856750D03*
%TO.P,SW72,1*%
%TO.N,/rightButtonSheet/row5*%
X288417000Y-121316750D03*
%TD*%
%TO.P,SW71,2*%
%TO.N,Net-(D69-Pad2)*%
X282067000Y-104806750D03*
%TO.P,SW71,1*%
%TO.N,/rightButtonSheet/row4*%
X288417000Y-102266750D03*
%TD*%
%TO.P,SW70,2*%
%TO.N,Net-(D68-Pad2)*%
X282067000Y-85756750D03*
%TO.P,SW70,1*%
%TO.N,/rightButtonSheet/row3*%
X288417000Y-83216750D03*
%TD*%
%TO.P,SW69,2*%
%TO.N,Net-(D67-Pad2)*%
X282067000Y-66706750D03*
%TO.P,SW69,1*%
%TO.N,/rightButtonSheet/row2*%
X288417000Y-64166750D03*
%TD*%
%TO.P,SW68,2*%
%TO.N,Net-(D66-Pad2)*%
X282067000Y-47656750D03*
%TO.P,SW68,1*%
%TO.N,/rightButtonSheet/row1*%
X288417000Y-45116750D03*
%TD*%
%TO.P,SW67,2*%
%TO.N,Net-(D65-Pad2)*%
X258191000Y-123856750D03*
%TO.P,SW67,1*%
%TO.N,/rightButtonSheet/row5*%
X264541000Y-121316750D03*
%TD*%
%TO.P,SW66,2*%
%TO.N,Net-(D64-Pad2)*%
X258191000Y-104806750D03*
%TO.P,SW66,1*%
%TO.N,/rightButtonSheet/row4*%
X264541000Y-102266750D03*
%TD*%
%TO.P,SW65,2*%
%TO.N,Net-(D63-Pad2)*%
X258191000Y-85756750D03*
%TO.P,SW65,1*%
%TO.N,/rightButtonSheet/row3*%
X264541000Y-83216750D03*
%TD*%
%TO.P,SW64,2*%
%TO.N,Net-(D62-Pad2)*%
X258191000Y-66706750D03*
%TO.P,SW64,1*%
%TO.N,/rightButtonSheet/row2*%
X264541000Y-64166750D03*
%TD*%
%TO.P,SW63,2*%
%TO.N,Net-(D61-Pad2)*%
X258191000Y-47656750D03*
%TO.P,SW63,1*%
%TO.N,/rightButtonSheet/row1*%
X264541000Y-45116750D03*
%TD*%
%TO.P,SW62,2*%
%TO.N,Net-(D60-Pad2)*%
X239141000Y-120300750D03*
%TO.P,SW62,1*%
%TO.N,/rightButtonSheet/row5*%
X245491000Y-117760750D03*
%TD*%
%TO.P,SW61,2*%
%TO.N,Net-(D59-Pad2)*%
X239141000Y-101250750D03*
%TO.P,SW61,1*%
%TO.N,/rightButtonSheet/row4*%
X245491000Y-98710750D03*
%TD*%
%TO.P,SW60,2*%
%TO.N,Net-(D58-Pad2)*%
X239141000Y-82200750D03*
%TO.P,SW60,1*%
%TO.N,/rightButtonSheet/row3*%
X245491000Y-79660750D03*
%TD*%
%TO.P,SW59,2*%
%TO.N,Net-(D57-Pad2)*%
X239141000Y-63150750D03*
%TO.P,SW59,1*%
%TO.N,/rightButtonSheet/row2*%
X245491000Y-60610750D03*
%TD*%
%TO.P,SW58,2*%
%TO.N,Net-(D56-Pad2)*%
X239141000Y-44100750D03*
%TO.P,SW58,1*%
%TO.N,/rightButtonSheet/row1*%
X245491000Y-41560750D03*
%TD*%
%TO.P,SW57,2*%
%TO.N,Net-(D55-Pad2)*%
X220091000Y-117379750D03*
%TO.P,SW57,1*%
%TO.N,/rightButtonSheet/row5*%
X226441000Y-114839750D03*
%TD*%
%TO.P,SW56,2*%
%TO.N,Net-(D54-Pad2)*%
X220091000Y-98329750D03*
%TO.P,SW56,1*%
%TO.N,/rightButtonSheet/row4*%
X226441000Y-95789750D03*
%TD*%
%TO.P,SW55,2*%
%TO.N,Net-(D53-Pad2)*%
X220091000Y-79279750D03*
%TO.P,SW55,1*%
%TO.N,/rightButtonSheet/row3*%
X226441000Y-76739750D03*
%TD*%
%TO.P,SW54,2*%
%TO.N,Net-(D52-Pad2)*%
X220091000Y-60229750D03*
%TO.P,SW54,1*%
%TO.N,/rightButtonSheet/row2*%
X226441000Y-57689750D03*
%TD*%
%TO.P,SW53,2*%
%TO.N,Net-(D51-Pad2)*%
X220091000Y-41179750D03*
%TO.P,SW53,1*%
%TO.N,/rightButtonSheet/row1*%
X226441000Y-38639750D03*
%TD*%
%TO.P,SW52,2*%
%TO.N,Net-(D50-Pad2)*%
X201041000Y-120300750D03*
%TO.P,SW52,1*%
%TO.N,/rightButtonSheet/row5*%
X207391000Y-117760750D03*
%TD*%
%TO.P,SW51,2*%
%TO.N,Net-(D49-Pad2)*%
X201041000Y-101250750D03*
%TO.P,SW51,1*%
%TO.N,/rightButtonSheet/row4*%
X207391000Y-98710750D03*
%TD*%
%TO.P,SW50,2*%
%TO.N,Net-(D48-Pad2)*%
X201041000Y-82200750D03*
%TO.P,SW50,1*%
%TO.N,/rightButtonSheet/row3*%
X207391000Y-79660750D03*
%TD*%
%TO.P,SW49,2*%
%TO.N,Net-(D47-Pad2)*%
X201041000Y-63150750D03*
%TO.P,SW49,1*%
%TO.N,/rightButtonSheet/row2*%
X207391000Y-60610750D03*
%TD*%
%TO.P,SW48,2*%
%TO.N,Net-(D46-Pad2)*%
X201041000Y-44100750D03*
%TO.P,SW48,1*%
%TO.N,/rightButtonSheet/row1*%
X207391000Y-41560750D03*
%TD*%
%TO.P,SW47,2*%
%TO.N,Net-(D45-Pad2)*%
X177675444Y-127961455D03*
%TO.P,SW47,1*%
%TO.N,/rightButtonSheet/row5*%
X181904705Y-122586750D03*
%TD*%
%TO.P,SW46,2*%
%TO.N,Net-(D44-Pad2)*%
X181991000Y-103155750D03*
%TO.P,SW46,1*%
%TO.N,/rightButtonSheet/row4*%
X188341000Y-100615750D03*
%TD*%
%TO.P,SW44,2*%
%TO.N,Net-(D42-Pad2)*%
X181991000Y-65055750D03*
%TO.P,SW44,1*%
%TO.N,/rightButtonSheet/row2*%
X188341000Y-62515750D03*
%TD*%
%TO.P,SW42,2*%
%TO.N,Net-(D40-Pad2)*%
X160736872Y-142153775D03*
%TO.P,SW42,1*%
%TO.N,/rightButtonSheet/row5*%
X163430949Y-135867596D03*
%TD*%
%TO.P,SW41,2*%
%TO.N,Net-(D39-Pad2)*%
X162941000Y-104806750D03*
%TO.P,SW41,1*%
%TO.N,/rightButtonSheet/row4*%
X169291000Y-102266750D03*
%TD*%
%TO.P,SW40,2*%
%TO.N,Net-(D38-Pad2)*%
X162941000Y-85756750D03*
%TO.P,SW40,1*%
%TO.N,/rightButtonSheet/row3*%
X169291000Y-83216750D03*
%TD*%
%TO.P,SW39,2*%
%TO.N,Net-(D37-Pad2)*%
X162941000Y-66706750D03*
%TO.P,SW39,1*%
%TO.N,/rightButtonSheet/row2*%
X169291000Y-64166750D03*
%TD*%
%TO.P,SW38,2*%
%TO.N,Net-(D36-Pad2)*%
X162941000Y-47656750D03*
%TO.P,SW38,1*%
%TO.N,/rightButtonSheet/row1*%
X169291000Y-45116750D03*
%TD*%
%TO.P,D68,2*%
%TO.N,Net-(D68-Pad2)*%
%TA.AperFunction,SMDPad,CuDef*%
G36*
G01*
X294754000Y-85131750D02*
X294754000Y-86381750D01*
G75*
G02*
X294504000Y-86631750I-250000J0D01*
G01*
X293754000Y-86631750D01*
G75*
G02*
X293504000Y-86381750I0J250000D01*
G01*
X293504000Y-85131750D01*
G75*
G02*
X293754000Y-84881750I250000J0D01*
G01*
X294504000Y-84881750D01*
G75*
G02*
X294754000Y-85131750I0J-250000D01*
G01*
G37*
%TD.AperFunction*%
%TO.P,D68,1*%
%TO.N,/rightButtonSheet/column7*%
%TA.AperFunction,SMDPad,CuDef*%
G36*
G01*
X297554000Y-85131750D02*
X297554000Y-86381750D01*
G75*
G02*
X297304000Y-86631750I-250000J0D01*
G01*
X296554000Y-86631750D01*
G75*
G02*
X296304000Y-86381750I0J250000D01*
G01*
X296304000Y-85131750D01*
G75*
G02*
X296554000Y-84881750I250000J0D01*
G01*
X297304000Y-84881750D01*
G75*
G02*
X297554000Y-85131750I0J-250000D01*
G01*
G37*
%TD.AperFunction*%
%TD*%
%TO.P,D60,2*%
%TO.N,Net-(D60-Pad2)*%
%TA.AperFunction,SMDPad,CuDef*%
G36*
G01*
X251698000Y-119675750D02*
X251698000Y-120925750D01*
G75*
G02*
X251448000Y-121175750I-250000J0D01*
G01*
X250698000Y-121175750D01*
G75*
G02*
X250448000Y-120925750I0J250000D01*
G01*
X250448000Y-119675750D01*
G75*
G02*
X250698000Y-119425750I250000J0D01*
G01*
X251448000Y-119425750D01*
G75*
G02*
X251698000Y-119675750I0J-250000D01*
G01*
G37*
%TD.AperFunction*%
%TO.P,D60,1*%
%TO.N,/rightButtonSheet/column5*%
%TA.AperFunction,SMDPad,CuDef*%
G36*
G01*
X254498000Y-119675750D02*
X254498000Y-120925750D01*
G75*
G02*
X254248000Y-121175750I-250000J0D01*
G01*
X253498000Y-121175750D01*
G75*
G02*
X253248000Y-120925750I0J250000D01*
G01*
X253248000Y-119675750D01*
G75*
G02*
X253498000Y-119425750I250000J0D01*
G01*
X254248000Y-119425750D01*
G75*
G02*
X254498000Y-119675750I0J-250000D01*
G01*
G37*
%TD.AperFunction*%
%TD*%
%TO.P,D45,2*%
%TO.N,Net-(D45-Pad2)*%
%TA.AperFunction,SMDPad,CuDef*%
G36*
G01*
X188430894Y-121100984D02*
X189055894Y-122183516D01*
G75*
G02*
X188964388Y-122525022I-216506J-125000D01*
G01*
X188314868Y-122900022D01*
G75*
G02*
X187973362Y-122808516I-125000J216506D01*
G01*
X187348362Y-121725984D01*
G75*
G02*
X187439868Y-121384478I216506J125000D01*
G01*
X188089388Y-121009478D01*
G75*
G02*
X188430894Y-121100984I125000J-216506D01*
G01*
G37*
%TD.AperFunction*%
%TO.P,D45,1*%
%TO.N,/rightButtonSheet/column2*%
%TA.AperFunction,SMDPad,CuDef*%
G36*
G01*
X190855766Y-119700984D02*
X191480766Y-120783516D01*
G75*
G02*
X191389260Y-121125022I-216506J-125000D01*
G01*
X190739740Y-121500022D01*
G75*
G02*
X190398234Y-121408516I-125000J216506D01*
G01*
X189773234Y-120325984D01*
G75*
G02*
X189864740Y-119984478I216506J125000D01*
G01*
X190514260Y-119609478D01*
G75*
G02*
X190855766Y-119700984I125000J-216506D01*
G01*
G37*
%TD.AperFunction*%
%TD*%
D12*
%TO.P,J1,B1*%
%TO.N,GND*%
X129306250Y-38176250D03*
%TO.P,J1,A9*%
%TO.N,VCC*%
X130106250Y-38176250D03*
%TO.P,J1,B9*%
X135006250Y-38176250D03*
%TO.P,J1,B12*%
%TO.N,GND*%
X135806250Y-38176250D03*
%TO.P,J1,A1*%
X135806250Y-38176250D03*
%TO.P,J1,A4*%
%TO.N,VCC*%
X135006250Y-38176250D03*
%TO.P,J1,B4*%
X130106250Y-38176250D03*
%TO.P,J1,A12*%
%TO.N,GND*%
X129306250Y-38176250D03*
D13*
%TO.P,J1,B8*%
%TO.N,Net-(J1-PadB8)*%
X134306250Y-38176250D03*
%TO.P,J1,A5*%
%TO.N,Net-(J1-PadA5)*%
X133806250Y-38176250D03*
%TO.P,J1,B7*%
%TO.N,Net-(J1-PadA7)*%
X133306250Y-38176250D03*
%TO.P,J1,A7*%
X132306250Y-38176250D03*
%TO.P,J1,B6*%
%TO.N,Net-(J1-PadA6)*%
X131806250Y-38176250D03*
%TO.P,J1,A8*%
%TO.N,Net-(J1-PadA8)*%
X131306250Y-38176250D03*
%TO.P,J1,B5*%
%TO.N,Net-(J1-PadB5)*%
X130806250Y-38176250D03*
%TO.P,J1,A6*%
%TO.N,Net-(J1-PadA6)*%
X132806250Y-38176250D03*
D14*
%TO.P,J1,S1*%
%TO.N,GND*%
X128236250Y-37261250D03*
X136876250Y-37261250D03*
D15*
X136876250Y-33081250D03*
X128236250Y-33081250D03*
%TD*%
D10*
%TO.P,SW35,2*%
%TO.N,Net-(D35-Pad2)*%
X133064571Y-136783673D03*
%TO.P,SW35,1*%
%TO.N,/leftButtonSheet/row5*%
X139350750Y-139477750D03*
%TD*%
%TO.P,SW34,2*%
%TO.N,Net-(D34-Pad2)*%
X128682750Y-104806750D03*
%TO.P,SW34,1*%
%TO.N,/leftButtonSheet/row4*%
X135032750Y-102266750D03*
%TD*%
%TO.P,SW33,2*%
%TO.N,Net-(D33-Pad2)*%
X128682750Y-85756750D03*
%TO.P,SW33,1*%
%TO.N,/leftButtonSheet/row3*%
X135032750Y-83216750D03*
%TD*%
%TO.P,SW32,2*%
%TO.N,Net-(D32-Pad2)*%
X128682750Y-66706750D03*
%TO.P,SW32,1*%
%TO.N,/leftButtonSheet/row2*%
X135032750Y-64166750D03*
%TD*%
%TO.P,SW31,2*%
%TO.N,Net-(D31-Pad2)*%
X128682750Y-47656750D03*
%TO.P,SW31,1*%
%TO.N,/leftButtonSheet/row1*%
X135032750Y-45116750D03*
%TD*%
%TO.P,SW30,2*%
%TO.N,Net-(D30-Pad2)*%
X114969194Y-124197046D03*
%TO.P,SW30,1*%
%TO.N,/leftButtonSheet/row5*%
X121738455Y-125172341D03*
%TD*%
%TO.P,SW29,2*%
%TO.N,Net-(D29-Pad2)*%
X109632750Y-103155750D03*
%TO.P,SW29,1*%
%TO.N,/leftButtonSheet/row4*%
X115982750Y-100615750D03*
%TD*%
%TO.P,SW28,2*%
%TO.N,Net-(D28-Pad2)*%
X109632750Y-84105750D03*
%TO.P,SW28,1*%
%TO.N,/leftButtonSheet/row3*%
X115982750Y-81565750D03*
%TD*%
%TO.P,SW27,2*%
%TO.N,Net-(D27-Pad2)*%
X109632750Y-65055750D03*
%TO.P,SW27,1*%
%TO.N,/leftButtonSheet/row2*%
X115982750Y-62515750D03*
%TD*%
%TO.P,SW25,2*%
%TO.N,Net-(D25-Pad2)*%
X90582750Y-120300750D03*
%TO.P,SW25,1*%
%TO.N,/leftButtonSheet/row5*%
X96932750Y-117760750D03*
%TD*%
%TO.P,SW24,2*%
%TO.N,Net-(D24-Pad2)*%
X90582750Y-101250750D03*
%TO.P,SW24,1*%
%TO.N,/leftButtonSheet/row4*%
X96932750Y-98710750D03*
%TD*%
%TO.P,SW23,2*%
%TO.N,Net-(D23-Pad2)*%
X90582750Y-82200750D03*
%TO.P,SW23,1*%
%TO.N,/leftButtonSheet/row3*%
X96932750Y-79660750D03*
%TD*%
%TO.P,SW22,2*%
%TO.N,Net-(D22-Pad2)*%
X90582750Y-63150750D03*
%TO.P,SW22,1*%
%TO.N,/leftButtonSheet/row2*%
X96932750Y-60610750D03*
%TD*%
%TO.P,SW20,2*%
%TO.N,Net-(D20-Pad2)*%
X71532750Y-117379750D03*
%TO.P,SW20,1*%
%TO.N,/leftButtonSheet/row5*%
X77882750Y-114839750D03*
%TD*%
%TO.P,SW19,2*%
%TO.N,Net-(D19-Pad2)*%
X71532750Y-98329750D03*
%TO.P,SW19,1*%
%TO.N,/leftButtonSheet/row4*%
X77882750Y-95789750D03*
%TD*%
%TO.P,SW18,2*%
%TO.N,Net-(D18-Pad2)*%
X71532750Y-79279750D03*
%TO.P,SW18,1*%
%TO.N,/leftButtonSheet/row3*%
X77882750Y-76739750D03*
%TD*%
%TO.P,SW17,2*%
%TO.N,Net-(D17-Pad2)*%
X71532750Y-60229750D03*
%TO.P,SW17,1*%
%TO.N,/leftButtonSheet/row2*%
X77882750Y-57689750D03*
%TD*%
%TO.P,SW15,2*%
%TO.N,Net-(D15-Pad2)*%
X52482750Y-120300750D03*
%TO.P,SW15,1*%
%TO.N,/leftButtonSheet/row5*%
X58832750Y-117760750D03*
%TD*%
%TO.P,SW14,2*%
%TO.N,Net-(D14-Pad2)*%
X52482750Y-101250750D03*
%TO.P,SW14,1*%
%TO.N,/leftButtonSheet/row4*%
X58832750Y-98710750D03*
%TD*%
%TO.P,SW13,2*%
%TO.N,Net-(D13-Pad2)*%
X52482750Y-82200750D03*
%TO.P,SW13,1*%
%TO.N,/leftButtonSheet/row3*%
X58832750Y-79660750D03*
%TD*%
%TO.P,SW12,2*%
%TO.N,Net-(D12-Pad2)*%
X52482750Y-63150750D03*
%TO.P,SW12,1*%
%TO.N,/leftButtonSheet/row2*%
X58832750Y-60610750D03*
%TD*%
%TO.P,SW11,2*%
%TO.N,Net-(D11-Pad2)*%
X52482750Y-44100750D03*
%TO.P,SW11,1*%
%TO.N,/leftButtonSheet/row1*%
X58832750Y-41560750D03*
%TD*%
%TO.P,SW10,2*%
%TO.N,Net-(D10-Pad2)*%
X33432750Y-123856750D03*
%TO.P,SW10,1*%
%TO.N,/leftButtonSheet/row5*%
X39782750Y-121316750D03*
%TD*%
%TO.P,SW9,2*%
%TO.N,Net-(D9-Pad2)*%
X33432750Y-104806750D03*
%TO.P,SW9,1*%
%TO.N,/leftButtonSheet/row4*%
X39782750Y-102266750D03*
%TD*%
%TO.P,SW8,2*%
%TO.N,Net-(D8-Pad2)*%
X33432750Y-85756750D03*
%TO.P,SW8,1*%
%TO.N,/leftButtonSheet/row3*%
X39782750Y-83216750D03*
%TD*%
%TO.P,SW7,2*%
%TO.N,Net-(D7-Pad2)*%
X33432750Y-66706750D03*
%TO.P,SW7,1*%
%TO.N,/leftButtonSheet/row2*%
X39782750Y-64166750D03*
%TD*%
%TO.P,SW6,2*%
%TO.N,Net-(D6-Pad2)*%
X33432750Y-47656750D03*
%TO.P,SW6,1*%
%TO.N,/leftButtonSheet/row1*%
X39782750Y-45116750D03*
%TD*%
%TO.P,SW5,2*%
%TO.N,Net-(D5-Pad2)*%
X9556750Y-123856750D03*
%TO.P,SW5,1*%
%TO.N,/leftButtonSheet/row5*%
X15906750Y-121316750D03*
%TD*%
%TO.P,SW4,2*%
%TO.N,Net-(D4-Pad2)*%
X9556750Y-104806750D03*
%TO.P,SW4,1*%
%TO.N,/leftButtonSheet/row4*%
X15906750Y-102266750D03*
%TD*%
%TO.P,SW3,2*%
%TO.N,Net-(D3-Pad2)*%
X9556750Y-85756750D03*
%TO.P,SW3,1*%
%TO.N,/leftButtonSheet/row3*%
X15906750Y-83216750D03*
%TD*%
%TO.P,SW2,2*%
%TO.N,Net-(D2-Pad2)*%
X9556750Y-66706750D03*
%TO.P,SW2,1*%
%TO.N,/leftButtonSheet/row2*%
X15906750Y-64166750D03*
%TD*%
%TO.P,SW1,2*%
%TO.N,Net-(D1-Pad2)*%
X9556750Y-47656750D03*
%TO.P,SW1,1*%
%TO.N,/leftButtonSheet/row1*%
X15906750Y-45116750D03*
%TD*%
D16*
%TO.P,J3,S*%
%TO.N,Net-(C10-Pad2)*%
X167360179Y-125645531D03*
%TA.AperFunction,ComponentPad*%
D17*
%TO.P,J3,R*%
%TO.N,Net-(J3-PadR)*%
G36*
X167041063Y-121984498D02*
G01*
X167370994Y-120113363D01*
X169242129Y-120443294D01*
X168912198Y-122314429D01*
X167041063Y-121984498D01*
G37*
%TD.AperFunction*%
D16*
%TO.P,J3,T*%
%TO.N,Net-(C12-Pad2)*%
X159861250Y-124983294D03*
X160868409Y-119271409D03*
%TD*%
%TO.P,J2,S*%
%TO.N,GND*%
X131066541Y-121340896D03*
%TA.AperFunction,ComponentPad*%
D17*
%TO.P,J2,R*%
%TO.N,Net-(J2-PadR)*%
G36*
X132618560Y-124671998D02*
G01*
X132948491Y-126543133D01*
X131077356Y-126873064D01*
X130747425Y-125001929D01*
X132618560Y-124671998D01*
G37*
%TD.AperFunction*%
D16*
%TO.P,J2,T*%
%TO.N,VCC*%
X138339728Y-119398409D03*
X139346887Y-125110294D03*
%TD*%
%TO.P,D70,2*%
%TO.N,Net-(D70-Pad2)*%
%TA.AperFunction,SMDPad,CuDef*%
G36*
G01*
X294754000Y-123231750D02*
X294754000Y-124481750D01*
G75*
G02*
X294504000Y-124731750I-250000J0D01*
G01*
X293754000Y-124731750D01*
G75*
G02*
X293504000Y-124481750I0J250000D01*
G01*
X293504000Y-123231750D01*
G75*
G02*
X293754000Y-122981750I250000J0D01*
G01*
X294504000Y-122981750D01*
G75*
G02*
X294754000Y-123231750I0J-250000D01*
G01*
G37*
%TD.AperFunction*%
%TO.P,D70,1*%
%TO.N,/rightButtonSheet/column7*%
%TA.AperFunction,SMDPad,CuDef*%
G36*
G01*
X297554000Y-123231750D02*
X297554000Y-124481750D01*
G75*
G02*
X297304000Y-124731750I-250000J0D01*
G01*
X296554000Y-124731750D01*
G75*
G02*
X296304000Y-124481750I0J250000D01*
G01*
X296304000Y-123231750D01*
G75*
G02*
X296554000Y-122981750I250000J0D01*
G01*
X297304000Y-122981750D01*
G75*
G02*
X297554000Y-123231750I0J-250000D01*
G01*
G37*
%TD.AperFunction*%
%TD*%
%TO.P,D69,2*%
%TO.N,Net-(D69-Pad2)*%
%TA.AperFunction,SMDPad,CuDef*%
G36*
G01*
X294754000Y-104181750D02*
X294754000Y-105431750D01*
G75*
G02*
X294504000Y-105681750I-250000J0D01*
G01*
X293754000Y-105681750D01*
G75*
G02*
X293504000Y-105431750I0J250000D01*
G01*
X293504000Y-104181750D01*
G75*
G02*
X293754000Y-103931750I250000J0D01*
G01*
X294504000Y-103931750D01*
G75*
G02*
X294754000Y-104181750I0J-250000D01*
G01*
G37*
%TD.AperFunction*%
%TO.P,D69,1*%
%TO.N,/rightButtonSheet/column7*%
%TA.AperFunction,SMDPad,CuDef*%
G36*
G01*
X297554000Y-104181750D02*
X297554000Y-105431750D01*
G75*
G02*
X297304000Y-105681750I-250000J0D01*
G01*
X296554000Y-105681750D01*
G75*
G02*
X296304000Y-105431750I0J250000D01*
G01*
X296304000Y-104181750D01*
G75*
G02*
X296554000Y-103931750I250000J0D01*
G01*
X297304000Y-103931750D01*
G75*
G02*
X297554000Y-104181750I0J-250000D01*
G01*
G37*
%TD.AperFunction*%
%TD*%
%TO.P,D67,2*%
%TO.N,Net-(D67-Pad2)*%
%TA.AperFunction,SMDPad,CuDef*%
G36*
G01*
X294754000Y-66081750D02*
X294754000Y-67331750D01*
G75*
G02*
X294504000Y-67581750I-250000J0D01*
G01*
X293754000Y-67581750D01*
G75*
G02*
X293504000Y-67331750I0J250000D01*
G01*
X293504000Y-66081750D01*
G75*
G02*
X293754000Y-65831750I250000J0D01*
G01*
X294504000Y-65831750D01*
G75*
G02*
X294754000Y-66081750I0J-250000D01*
G01*
G37*
%TD.AperFunction*%
%TO.P,D67,1*%
%TO.N,/rightButtonSheet/column7*%
%TA.AperFunction,SMDPad,CuDef*%
G36*
G01*
X297554000Y-66081750D02*
X297554000Y-67331750D01*
G75*
G02*
X297304000Y-67581750I-250000J0D01*
G01*
X296554000Y-67581750D01*
G75*
G02*
X296304000Y-67331750I0J250000D01*
G01*
X296304000Y-66081750D01*
G75*
G02*
X296554000Y-65831750I250000J0D01*
G01*
X297304000Y-65831750D01*
G75*
G02*
X297554000Y-66081750I0J-250000D01*
G01*
G37*
%TD.AperFunction*%
%TD*%
%TO.P,D66,2*%
%TO.N,Net-(D66-Pad2)*%
%TA.AperFunction,SMDPad,CuDef*%
G36*
G01*
X294754000Y-48016000D02*
X294754000Y-49266000D01*
G75*
G02*
X294504000Y-49516000I-250000J0D01*
G01*
X293754000Y-49516000D01*
G75*
G02*
X293504000Y-49266000I0J250000D01*
G01*
X293504000Y-48016000D01*
G75*
G02*
X293754000Y-47766000I250000J0D01*
G01*
X294504000Y-47766000D01*
G75*
G02*
X294754000Y-48016000I0J-250000D01*
G01*
G37*
%TD.AperFunction*%
%TO.P,D66,1*%
%TO.N,/rightButtonSheet/column7*%
%TA.AperFunction,SMDPad,CuDef*%
G36*
G01*
X297554000Y-48016000D02*
X297554000Y-49266000D01*
G75*
G02*
X297304000Y-49516000I-250000J0D01*
G01*
X296554000Y-49516000D01*
G75*
G02*
X296304000Y-49266000I0J250000D01*
G01*
X296304000Y-48016000D01*
G75*
G02*
X296554000Y-47766000I250000J0D01*
G01*
X297304000Y-47766000D01*
G75*
G02*
X297554000Y-48016000I0J-250000D01*
G01*
G37*
%TD.AperFunction*%
%TD*%
%TO.P,D65,2*%
%TO.N,Net-(D65-Pad2)*%
%TA.AperFunction,SMDPad,CuDef*%
G36*
G01*
X270751000Y-123231750D02*
X270751000Y-124481750D01*
G75*
G02*
X270501000Y-124731750I-250000J0D01*
G01*
X269751000Y-124731750D01*
G75*
G02*
X269501000Y-124481750I0J250000D01*
G01*
X269501000Y-123231750D01*
G75*
G02*
X269751000Y-122981750I250000J0D01*
G01*
X270501000Y-122981750D01*
G75*
G02*
X270751000Y-123231750I0J-250000D01*
G01*
G37*
%TD.AperFunction*%
%TO.P,D65,1*%
%TO.N,/rightButtonSheet/column6*%
%TA.AperFunction,SMDPad,CuDef*%
G36*
G01*
X273551000Y-123231750D02*
X273551000Y-124481750D01*
G75*
G02*
X273301000Y-124731750I-250000J0D01*
G01*
X272551000Y-124731750D01*
G75*
G02*
X272301000Y-124481750I0J250000D01*
G01*
X272301000Y-123231750D01*
G75*
G02*
X272551000Y-122981750I250000J0D01*
G01*
X273301000Y-122981750D01*
G75*
G02*
X273551000Y-123231750I0J-250000D01*
G01*
G37*
%TD.AperFunction*%
%TD*%
%TO.P,D64,2*%
%TO.N,Net-(D64-Pad2)*%
%TA.AperFunction,SMDPad,CuDef*%
G36*
G01*
X270751000Y-104181750D02*
X270751000Y-105431750D01*
G75*
G02*
X270501000Y-105681750I-250000J0D01*
G01*
X269751000Y-105681750D01*
G75*
G02*
X269501000Y-105431750I0J250000D01*
G01*
X269501000Y-104181750D01*
G75*
G02*
X269751000Y-103931750I250000J0D01*
G01*
X270501000Y-103931750D01*
G75*
G02*
X270751000Y-104181750I0J-250000D01*
G01*
G37*
%TD.AperFunction*%
%TO.P,D64,1*%
%TO.N,/rightButtonSheet/column6*%
%TA.AperFunction,SMDPad,CuDef*%
G36*
G01*
X273551000Y-104181750D02*
X273551000Y-105431750D01*
G75*
G02*
X273301000Y-105681750I-250000J0D01*
G01*
X272551000Y-105681750D01*
G75*
G02*
X272301000Y-105431750I0J250000D01*
G01*
X272301000Y-104181750D01*
G75*
G02*
X272551000Y-103931750I250000J0D01*
G01*
X273301000Y-103931750D01*
G75*
G02*
X273551000Y-104181750I0J-250000D01*
G01*
G37*
%TD.AperFunction*%
%TD*%
%TO.P,D63,2*%
%TO.N,Net-(D63-Pad2)*%
%TA.AperFunction,SMDPad,CuDef*%
G36*
G01*
X270748000Y-85131750D02*
X270748000Y-86381750D01*
G75*
G02*
X270498000Y-86631750I-250000J0D01*
G01*
X269748000Y-86631750D01*
G75*
G02*
X269498000Y-86381750I0J250000D01*
G01*
X269498000Y-85131750D01*
G75*
G02*
X269748000Y-84881750I250000J0D01*
G01*
X270498000Y-84881750D01*
G75*
G02*
X270748000Y-85131750I0J-250000D01*
G01*
G37*
%TD.AperFunction*%
%TO.P,D63,1*%
%TO.N,/rightButtonSheet/column6*%
%TA.AperFunction,SMDPad,CuDef*%
G36*
G01*
X273548000Y-85131750D02*
X273548000Y-86381750D01*
G75*
G02*
X273298000Y-86631750I-250000J0D01*
G01*
X272548000Y-86631750D01*
G75*
G02*
X272298000Y-86381750I0J250000D01*
G01*
X272298000Y-85131750D01*
G75*
G02*
X272548000Y-84881750I250000J0D01*
G01*
X273298000Y-84881750D01*
G75*
G02*
X273548000Y-85131750I0J-250000D01*
G01*
G37*
%TD.AperFunction*%
%TD*%
%TO.P,D62,2*%
%TO.N,Net-(D62-Pad2)*%
%TA.AperFunction,SMDPad,CuDef*%
G36*
G01*
X270751000Y-66081750D02*
X270751000Y-67331750D01*
G75*
G02*
X270501000Y-67581750I-250000J0D01*
G01*
X269751000Y-67581750D01*
G75*
G02*
X269501000Y-67331750I0J250000D01*
G01*
X269501000Y-66081750D01*
G75*
G02*
X269751000Y-65831750I250000J0D01*
G01*
X270501000Y-65831750D01*
G75*
G02*
X270751000Y-66081750I0J-250000D01*
G01*
G37*
%TD.AperFunction*%
%TO.P,D62,1*%
%TO.N,/rightButtonSheet/column6*%
%TA.AperFunction,SMDPad,CuDef*%
G36*
G01*
X273551000Y-66081750D02*
X273551000Y-67331750D01*
G75*
G02*
X273301000Y-67581750I-250000J0D01*
G01*
X272551000Y-67581750D01*
G75*
G02*
X272301000Y-67331750I0J250000D01*
G01*
X272301000Y-66081750D01*
G75*
G02*
X272551000Y-65831750I250000J0D01*
G01*
X273301000Y-65831750D01*
G75*
G02*
X273551000Y-66081750I0J-250000D01*
G01*
G37*
%TD.AperFunction*%
%TD*%
%TO.P,D61,2*%
%TO.N,Net-(D61-Pad2)*%
%TA.AperFunction,SMDPad,CuDef*%
G36*
G01*
X270751000Y-47031750D02*
X270751000Y-48281750D01*
G75*
G02*
X270501000Y-48531750I-250000J0D01*
G01*
X269751000Y-48531750D01*
G75*
G02*
X269501000Y-48281750I0J250000D01*
G01*
X269501000Y-47031750D01*
G75*
G02*
X269751000Y-46781750I250000J0D01*
G01*
X270501000Y-46781750D01*
G75*
G02*
X270751000Y-47031750I0J-250000D01*
G01*
G37*
%TD.AperFunction*%
%TO.P,D61,1*%
%TO.N,/rightButtonSheet/column6*%
%TA.AperFunction,SMDPad,CuDef*%
G36*
G01*
X273551000Y-47031750D02*
X273551000Y-48281750D01*
G75*
G02*
X273301000Y-48531750I-250000J0D01*
G01*
X272551000Y-48531750D01*
G75*
G02*
X272301000Y-48281750I0J250000D01*
G01*
X272301000Y-47031750D01*
G75*
G02*
X272551000Y-46781750I250000J0D01*
G01*
X273301000Y-46781750D01*
G75*
G02*
X273551000Y-47031750I0J-250000D01*
G01*
G37*
%TD.AperFunction*%
%TD*%
%TO.P,D59,2*%
%TO.N,Net-(D59-Pad2)*%
%TA.AperFunction,SMDPad,CuDef*%
G36*
G01*
X251701000Y-100625750D02*
X251701000Y-101875750D01*
G75*
G02*
X251451000Y-102125750I-250000J0D01*
G01*
X250701000Y-102125750D01*
G75*
G02*
X250451000Y-101875750I0J250000D01*
G01*
X250451000Y-100625750D01*
G75*
G02*
X250701000Y-100375750I250000J0D01*
G01*
X251451000Y-100375750D01*
G75*
G02*
X251701000Y-100625750I0J-250000D01*
G01*
G37*
%TD.AperFunction*%
%TO.P,D59,1*%
%TO.N,/rightButtonSheet/column5*%
%TA.AperFunction,SMDPad,CuDef*%
G36*
G01*
X254501000Y-100625750D02*
X254501000Y-101875750D01*
G75*
G02*
X254251000Y-102125750I-250000J0D01*
G01*
X253501000Y-102125750D01*
G75*
G02*
X253251000Y-101875750I0J250000D01*
G01*
X253251000Y-100625750D01*
G75*
G02*
X253501000Y-100375750I250000J0D01*
G01*
X254251000Y-100375750D01*
G75*
G02*
X254501000Y-100625750I0J-250000D01*
G01*
G37*
%TD.AperFunction*%
%TD*%
%TO.P,D58,2*%
%TO.N,Net-(D58-Pad2)*%
%TA.AperFunction,SMDPad,CuDef*%
G36*
G01*
X251701000Y-81575750D02*
X251701000Y-82825750D01*
G75*
G02*
X251451000Y-83075750I-250000J0D01*
G01*
X250701000Y-83075750D01*
G75*
G02*
X250451000Y-82825750I0J250000D01*
G01*
X250451000Y-81575750D01*
G75*
G02*
X250701000Y-81325750I250000J0D01*
G01*
X251451000Y-81325750D01*
G75*
G02*
X251701000Y-81575750I0J-250000D01*
G01*
G37*
%TD.AperFunction*%
%TO.P,D58,1*%
%TO.N,/rightButtonSheet/column5*%
%TA.AperFunction,SMDPad,CuDef*%
G36*
G01*
X254501000Y-81575750D02*
X254501000Y-82825750D01*
G75*
G02*
X254251000Y-83075750I-250000J0D01*
G01*
X253501000Y-83075750D01*
G75*
G02*
X253251000Y-82825750I0J250000D01*
G01*
X253251000Y-81575750D01*
G75*
G02*
X253501000Y-81325750I250000J0D01*
G01*
X254251000Y-81325750D01*
G75*
G02*
X254501000Y-81575750I0J-250000D01*
G01*
G37*
%TD.AperFunction*%
%TD*%
%TO.P,D57,2*%
%TO.N,Net-(D57-Pad2)*%
%TA.AperFunction,SMDPad,CuDef*%
G36*
G01*
X251701000Y-62525750D02*
X251701000Y-63775750D01*
G75*
G02*
X251451000Y-64025750I-250000J0D01*
G01*
X250701000Y-64025750D01*
G75*
G02*
X250451000Y-63775750I0J250000D01*
G01*
X250451000Y-62525750D01*
G75*
G02*
X250701000Y-62275750I250000J0D01*
G01*
X251451000Y-62275750D01*
G75*
G02*
X251701000Y-62525750I0J-250000D01*
G01*
G37*
%TD.AperFunction*%
%TO.P,D57,1*%
%TO.N,/rightButtonSheet/column5*%
%TA.AperFunction,SMDPad,CuDef*%
G36*
G01*
X254501000Y-62525750D02*
X254501000Y-63775750D01*
G75*
G02*
X254251000Y-64025750I-250000J0D01*
G01*
X253501000Y-64025750D01*
G75*
G02*
X253251000Y-63775750I0J250000D01*
G01*
X253251000Y-62525750D01*
G75*
G02*
X253501000Y-62275750I250000J0D01*
G01*
X254251000Y-62275750D01*
G75*
G02*
X254501000Y-62525750I0J-250000D01*
G01*
G37*
%TD.AperFunction*%
%TD*%
%TO.P,D56,2*%
%TO.N,Net-(D56-Pad2)*%
%TA.AperFunction,SMDPad,CuDef*%
G36*
G01*
X251701000Y-43475750D02*
X251701000Y-44725750D01*
G75*
G02*
X251451000Y-44975750I-250000J0D01*
G01*
X250701000Y-44975750D01*
G75*
G02*
X250451000Y-44725750I0J250000D01*
G01*
X250451000Y-43475750D01*
G75*
G02*
X250701000Y-43225750I250000J0D01*
G01*
X251451000Y-43225750D01*
G75*
G02*
X251701000Y-43475750I0J-250000D01*
G01*
G37*
%TD.AperFunction*%
%TO.P,D56,1*%
%TO.N,/rightButtonSheet/column5*%
%TA.AperFunction,SMDPad,CuDef*%
G36*
G01*
X254501000Y-43475750D02*
X254501000Y-44725750D01*
G75*
G02*
X254251000Y-44975750I-250000J0D01*
G01*
X253501000Y-44975750D01*
G75*
G02*
X253251000Y-44725750I0J250000D01*
G01*
X253251000Y-43475750D01*
G75*
G02*
X253501000Y-43225750I250000J0D01*
G01*
X254251000Y-43225750D01*
G75*
G02*
X254501000Y-43475750I0J-250000D01*
G01*
G37*
%TD.AperFunction*%
%TD*%
%TO.P,D55,2*%
%TO.N,Net-(D55-Pad2)*%
%TA.AperFunction,SMDPad,CuDef*%
G36*
G01*
X232651000Y-116754750D02*
X232651000Y-118004750D01*
G75*
G02*
X232401000Y-118254750I-250000J0D01*
G01*
X231651000Y-118254750D01*
G75*
G02*
X231401000Y-118004750I0J250000D01*
G01*
X231401000Y-116754750D01*
G75*
G02*
X231651000Y-116504750I250000J0D01*
G01*
X232401000Y-116504750D01*
G75*
G02*
X232651000Y-116754750I0J-250000D01*
G01*
G37*
%TD.AperFunction*%
%TO.P,D55,1*%
%TO.N,/rightButtonSheet/column4*%
%TA.AperFunction,SMDPad,CuDef*%
G36*
G01*
X235451000Y-116754750D02*
X235451000Y-118004750D01*
G75*
G02*
X235201000Y-118254750I-250000J0D01*
G01*
X234451000Y-118254750D01*
G75*
G02*
X234201000Y-118004750I0J250000D01*
G01*
X234201000Y-116754750D01*
G75*
G02*
X234451000Y-116504750I250000J0D01*
G01*
X235201000Y-116504750D01*
G75*
G02*
X235451000Y-116754750I0J-250000D01*
G01*
G37*
%TD.AperFunction*%
%TD*%
%TO.P,D54,2*%
%TO.N,Net-(D54-Pad2)*%
%TA.AperFunction,SMDPad,CuDef*%
G36*
G01*
X232651000Y-97704750D02*
X232651000Y-98954750D01*
G75*
G02*
X232401000Y-99204750I-250000J0D01*
G01*
X231651000Y-99204750D01*
G75*
G02*
X231401000Y-98954750I0J250000D01*
G01*
X231401000Y-97704750D01*
G75*
G02*
X231651000Y-97454750I250000J0D01*
G01*
X232401000Y-97454750D01*
G75*
G02*
X232651000Y-97704750I0J-250000D01*
G01*
G37*
%TD.AperFunction*%
%TO.P,D54,1*%
%TO.N,/rightButtonSheet/column4*%
%TA.AperFunction,SMDPad,CuDef*%
G36*
G01*
X235451000Y-97704750D02*
X235451000Y-98954750D01*
G75*
G02*
X235201000Y-99204750I-250000J0D01*
G01*
X234451000Y-99204750D01*
G75*
G02*
X234201000Y-98954750I0J250000D01*
G01*
X234201000Y-97704750D01*
G75*
G02*
X234451000Y-97454750I250000J0D01*
G01*
X235201000Y-97454750D01*
G75*
G02*
X235451000Y-97704750I0J-250000D01*
G01*
G37*
%TD.AperFunction*%
%TD*%
%TO.P,D53,2*%
%TO.N,Net-(D53-Pad2)*%
%TA.AperFunction,SMDPad,CuDef*%
G36*
G01*
X232711500Y-78654750D02*
X232711500Y-79904750D01*
G75*
G02*
X232461500Y-80154750I-250000J0D01*
G01*
X231711500Y-80154750D01*
G75*
G02*
X231461500Y-79904750I0J250000D01*
G01*
X231461500Y-78654750D01*
G75*
G02*
X231711500Y-78404750I250000J0D01*
G01*
X232461500Y-78404750D01*
G75*
G02*
X232711500Y-78654750I0J-250000D01*
G01*
G37*
%TD.AperFunction*%
%TO.P,D53,1*%
%TO.N,/rightButtonSheet/column4*%
%TA.AperFunction,SMDPad,CuDef*%
G36*
G01*
X235511500Y-78654750D02*
X235511500Y-79904750D01*
G75*
G02*
X235261500Y-80154750I-250000J0D01*
G01*
X234511500Y-80154750D01*
G75*
G02*
X234261500Y-79904750I0J250000D01*
G01*
X234261500Y-78654750D01*
G75*
G02*
X234511500Y-78404750I250000J0D01*
G01*
X235261500Y-78404750D01*
G75*
G02*
X235511500Y-78654750I0J-250000D01*
G01*
G37*
%TD.AperFunction*%
%TD*%
%TO.P,D52,2*%
%TO.N,Net-(D52-Pad2)*%
%TA.AperFunction,SMDPad,CuDef*%
G36*
G01*
X232651000Y-59604750D02*
X232651000Y-60854750D01*
G75*
G02*
X232401000Y-61104750I-250000J0D01*
G01*
X231651000Y-61104750D01*
G75*
G02*
X231401000Y-60854750I0J250000D01*
G01*
X231401000Y-59604750D01*
G75*
G02*
X231651000Y-59354750I250000J0D01*
G01*
X232401000Y-59354750D01*
G75*
G02*
X232651000Y-59604750I0J-250000D01*
G01*
G37*
%TD.AperFunction*%
%TO.P,D52,1*%
%TO.N,/rightButtonSheet/column4*%
%TA.AperFunction,SMDPad,CuDef*%
G36*
G01*
X235451000Y-59604750D02*
X235451000Y-60854750D01*
G75*
G02*
X235201000Y-61104750I-250000J0D01*
G01*
X234451000Y-61104750D01*
G75*
G02*
X234201000Y-60854750I0J250000D01*
G01*
X234201000Y-59604750D01*
G75*
G02*
X234451000Y-59354750I250000J0D01*
G01*
X235201000Y-59354750D01*
G75*
G02*
X235451000Y-59604750I0J-250000D01*
G01*
G37*
%TD.AperFunction*%
%TD*%
%TO.P,D51,2*%
%TO.N,Net-(D51-Pad2)*%
%TA.AperFunction,SMDPad,CuDef*%
G36*
G01*
X232648000Y-40554750D02*
X232648000Y-41804750D01*
G75*
G02*
X232398000Y-42054750I-250000J0D01*
G01*
X231648000Y-42054750D01*
G75*
G02*
X231398000Y-41804750I0J250000D01*
G01*
X231398000Y-40554750D01*
G75*
G02*
X231648000Y-40304750I250000J0D01*
G01*
X232398000Y-40304750D01*
G75*
G02*
X232648000Y-40554750I0J-250000D01*
G01*
G37*
%TD.AperFunction*%
%TO.P,D51,1*%
%TO.N,/rightButtonSheet/column4*%
%TA.AperFunction,SMDPad,CuDef*%
G36*
G01*
X235448000Y-40554750D02*
X235448000Y-41804750D01*
G75*
G02*
X235198000Y-42054750I-250000J0D01*
G01*
X234448000Y-42054750D01*
G75*
G02*
X234198000Y-41804750I0J250000D01*
G01*
X234198000Y-40554750D01*
G75*
G02*
X234448000Y-40304750I250000J0D01*
G01*
X235198000Y-40304750D01*
G75*
G02*
X235448000Y-40554750I0J-250000D01*
G01*
G37*
%TD.AperFunction*%
%TD*%
%TO.P,D50,2*%
%TO.N,Net-(D50-Pad2)*%
%TA.AperFunction,SMDPad,CuDef*%
G36*
G01*
X213601000Y-119675750D02*
X213601000Y-120925750D01*
G75*
G02*
X213351000Y-121175750I-250000J0D01*
G01*
X212601000Y-121175750D01*
G75*
G02*
X212351000Y-120925750I0J250000D01*
G01*
X212351000Y-119675750D01*
G75*
G02*
X212601000Y-119425750I250000J0D01*
G01*
X213351000Y-119425750D01*
G75*
G02*
X213601000Y-119675750I0J-250000D01*
G01*
G37*
%TD.AperFunction*%
%TO.P,D50,1*%
%TO.N,/rightButtonSheet/column3*%
%TA.AperFunction,SMDPad,CuDef*%
G36*
G01*
X216401000Y-119675750D02*
X216401000Y-120925750D01*
G75*
G02*
X216151000Y-121175750I-250000J0D01*
G01*
X215401000Y-121175750D01*
G75*
G02*
X215151000Y-120925750I0J250000D01*
G01*
X215151000Y-119675750D01*
G75*
G02*
X215401000Y-119425750I250000J0D01*
G01*
X216151000Y-119425750D01*
G75*
G02*
X216401000Y-119675750I0J-250000D01*
G01*
G37*
%TD.AperFunction*%
%TD*%
%TO.P,D49,2*%
%TO.N,Net-(D49-Pad2)*%
%TA.AperFunction,SMDPad,CuDef*%
G36*
G01*
X213601000Y-100625750D02*
X213601000Y-101875750D01*
G75*
G02*
X213351000Y-102125750I-250000J0D01*
G01*
X212601000Y-102125750D01*
G75*
G02*
X212351000Y-101875750I0J250000D01*
G01*
X212351000Y-100625750D01*
G75*
G02*
X212601000Y-100375750I250000J0D01*
G01*
X213351000Y-100375750D01*
G75*
G02*
X213601000Y-100625750I0J-250000D01*
G01*
G37*
%TD.AperFunction*%
%TO.P,D49,1*%
%TO.N,/rightButtonSheet/column3*%
%TA.AperFunction,SMDPad,CuDef*%
G36*
G01*
X216401000Y-100625750D02*
X216401000Y-101875750D01*
G75*
G02*
X216151000Y-102125750I-250000J0D01*
G01*
X215401000Y-102125750D01*
G75*
G02*
X215151000Y-101875750I0J250000D01*
G01*
X215151000Y-100625750D01*
G75*
G02*
X215401000Y-100375750I250000J0D01*
G01*
X216151000Y-100375750D01*
G75*
G02*
X216401000Y-100625750I0J-250000D01*
G01*
G37*
%TD.AperFunction*%
%TD*%
%TO.P,D48,2*%
%TO.N,Net-(D48-Pad2)*%
%TA.AperFunction,SMDPad,CuDef*%
G36*
G01*
X213601000Y-81575750D02*
X213601000Y-82825750D01*
G75*
G02*
X213351000Y-83075750I-250000J0D01*
G01*
X212601000Y-83075750D01*
G75*
G02*
X212351000Y-82825750I0J250000D01*
G01*
X212351000Y-81575750D01*
G75*
G02*
X212601000Y-81325750I250000J0D01*
G01*
X213351000Y-81325750D01*
G75*
G02*
X213601000Y-81575750I0J-250000D01*
G01*
G37*
%TD.AperFunction*%
%TO.P,D48,1*%
%TO.N,/rightButtonSheet/column3*%
%TA.AperFunction,SMDPad,CuDef*%
G36*
G01*
X216401000Y-81575750D02*
X216401000Y-82825750D01*
G75*
G02*
X216151000Y-83075750I-250000J0D01*
G01*
X215401000Y-83075750D01*
G75*
G02*
X215151000Y-82825750I0J250000D01*
G01*
X215151000Y-81575750D01*
G75*
G02*
X215401000Y-81325750I250000J0D01*
G01*
X216151000Y-81325750D01*
G75*
G02*
X216401000Y-81575750I0J-250000D01*
G01*
G37*
%TD.AperFunction*%
%TD*%
%TO.P,D47,2*%
%TO.N,Net-(D47-Pad2)*%
%TA.AperFunction,SMDPad,CuDef*%
G36*
G01*
X213664500Y-62525750D02*
X213664500Y-63775750D01*
G75*
G02*
X213414500Y-64025750I-250000J0D01*
G01*
X212664500Y-64025750D01*
G75*
G02*
X212414500Y-63775750I0J250000D01*
G01*
X212414500Y-62525750D01*
G75*
G02*
X212664500Y-62275750I250000J0D01*
G01*
X213414500Y-62275750D01*
G75*
G02*
X213664500Y-62525750I0J-250000D01*
G01*
G37*
%TD.AperFunction*%
%TO.P,D47,1*%
%TO.N,/rightButtonSheet/column3*%
%TA.AperFunction,SMDPad,CuDef*%
G36*
G01*
X216464500Y-62525750D02*
X216464500Y-63775750D01*
G75*
G02*
X216214500Y-64025750I-250000J0D01*
G01*
X215464500Y-64025750D01*
G75*
G02*
X215214500Y-63775750I0J250000D01*
G01*
X215214500Y-62525750D01*
G75*
G02*
X215464500Y-62275750I250000J0D01*
G01*
X216214500Y-62275750D01*
G75*
G02*
X216464500Y-62525750I0J-250000D01*
G01*
G37*
%TD.AperFunction*%
%TD*%
%TO.P,D46,2*%
%TO.N,Net-(D46-Pad2)*%
%TA.AperFunction,SMDPad,CuDef*%
G36*
G01*
X213601000Y-43475750D02*
X213601000Y-44725750D01*
G75*
G02*
X213351000Y-44975750I-250000J0D01*
G01*
X212601000Y-44975750D01*
G75*
G02*
X212351000Y-44725750I0J250000D01*
G01*
X212351000Y-43475750D01*
G75*
G02*
X212601000Y-43225750I250000J0D01*
G01*
X213351000Y-43225750D01*
G75*
G02*
X213601000Y-43475750I0J-250000D01*
G01*
G37*
%TD.AperFunction*%
%TO.P,D46,1*%
%TO.N,/rightButtonSheet/column3*%
%TA.AperFunction,SMDPad,CuDef*%
G36*
G01*
X216401000Y-43475750D02*
X216401000Y-44725750D01*
G75*
G02*
X216151000Y-44975750I-250000J0D01*
G01*
X215401000Y-44975750D01*
G75*
G02*
X215151000Y-44725750I0J250000D01*
G01*
X215151000Y-43475750D01*
G75*
G02*
X215401000Y-43225750I250000J0D01*
G01*
X216151000Y-43225750D01*
G75*
G02*
X216401000Y-43475750I0J-250000D01*
G01*
G37*
%TD.AperFunction*%
%TD*%
%TO.P,D44,2*%
%TO.N,Net-(D44-Pad2)*%
%TA.AperFunction,SMDPad,CuDef*%
G36*
G01*
X194551000Y-102530750D02*
X194551000Y-103780750D01*
G75*
G02*
X194301000Y-104030750I-250000J0D01*
G01*
X193551000Y-104030750D01*
G75*
G02*
X193301000Y-103780750I0J250000D01*
G01*
X193301000Y-102530750D01*
G75*
G02*
X193551000Y-102280750I250000J0D01*
G01*
X194301000Y-102280750D01*
G75*
G02*
X194551000Y-102530750I0J-250000D01*
G01*
G37*
%TD.AperFunction*%
%TO.P,D44,1*%
%TO.N,/rightButtonSheet/column2*%
%TA.AperFunction,SMDPad,CuDef*%
G36*
G01*
X197351000Y-102530750D02*
X197351000Y-103780750D01*
G75*
G02*
X197101000Y-104030750I-250000J0D01*
G01*
X196351000Y-104030750D01*
G75*
G02*
X196101000Y-103780750I0J250000D01*
G01*
X196101000Y-102530750D01*
G75*
G02*
X196351000Y-102280750I250000J0D01*
G01*
X197101000Y-102280750D01*
G75*
G02*
X197351000Y-102530750I0J-250000D01*
G01*
G37*
%TD.AperFunction*%
%TD*%
%TO.P,D43,2*%
%TO.N,Net-(D43-Pad2)*%
%TA.AperFunction,SMDPad,CuDef*%
G36*
G01*
X194551000Y-83480750D02*
X194551000Y-84730750D01*
G75*
G02*
X194301000Y-84980750I-250000J0D01*
G01*
X193551000Y-84980750D01*
G75*
G02*
X193301000Y-84730750I0J250000D01*
G01*
X193301000Y-83480750D01*
G75*
G02*
X193551000Y-83230750I250000J0D01*
G01*
X194301000Y-83230750D01*
G75*
G02*
X194551000Y-83480750I0J-250000D01*
G01*
G37*
%TD.AperFunction*%
%TO.P,D43,1*%
%TO.N,/rightButtonSheet/column2*%
%TA.AperFunction,SMDPad,CuDef*%
G36*
G01*
X197351000Y-83480750D02*
X197351000Y-84730750D01*
G75*
G02*
X197101000Y-84980750I-250000J0D01*
G01*
X196351000Y-84980750D01*
G75*
G02*
X196101000Y-84730750I0J250000D01*
G01*
X196101000Y-83480750D01*
G75*
G02*
X196351000Y-83230750I250000J0D01*
G01*
X197101000Y-83230750D01*
G75*
G02*
X197351000Y-83480750I0J-250000D01*
G01*
G37*
%TD.AperFunction*%
%TD*%
%TO.P,D42,2*%
%TO.N,Net-(D42-Pad2)*%
%TA.AperFunction,SMDPad,CuDef*%
G36*
G01*
X194551000Y-64430750D02*
X194551000Y-65680750D01*
G75*
G02*
X194301000Y-65930750I-250000J0D01*
G01*
X193551000Y-65930750D01*
G75*
G02*
X193301000Y-65680750I0J250000D01*
G01*
X193301000Y-64430750D01*
G75*
G02*
X193551000Y-64180750I250000J0D01*
G01*
X194301000Y-64180750D01*
G75*
G02*
X194551000Y-64430750I0J-250000D01*
G01*
G37*
%TD.AperFunction*%
%TO.P,D42,1*%
%TO.N,/rightButtonSheet/column2*%
%TA.AperFunction,SMDPad,CuDef*%
G36*
G01*
X197351000Y-64430750D02*
X197351000Y-65680750D01*
G75*
G02*
X197101000Y-65930750I-250000J0D01*
G01*
X196351000Y-65930750D01*
G75*
G02*
X196101000Y-65680750I0J250000D01*
G01*
X196101000Y-64430750D01*
G75*
G02*
X196351000Y-64180750I250000J0D01*
G01*
X197101000Y-64180750D01*
G75*
G02*
X197351000Y-64430750I0J-250000D01*
G01*
G37*
%TD.AperFunction*%
%TD*%
%TO.P,D41,2*%
%TO.N,Net-(D41-Pad2)*%
%TA.AperFunction,SMDPad,CuDef*%
G36*
G01*
X194551000Y-45380750D02*
X194551000Y-46630750D01*
G75*
G02*
X194301000Y-46880750I-250000J0D01*
G01*
X193551000Y-46880750D01*
G75*
G02*
X193301000Y-46630750I0J250000D01*
G01*
X193301000Y-45380750D01*
G75*
G02*
X193551000Y-45130750I250000J0D01*
G01*
X194301000Y-45130750D01*
G75*
G02*
X194551000Y-45380750I0J-250000D01*
G01*
G37*
%TD.AperFunction*%
%TO.P,D41,1*%
%TO.N,/rightButtonSheet/column2*%
%TA.AperFunction,SMDPad,CuDef*%
G36*
G01*
X197351000Y-45380750D02*
X197351000Y-46630750D01*
G75*
G02*
X197101000Y-46880750I-250000J0D01*
G01*
X196351000Y-46880750D01*
G75*
G02*
X196101000Y-46630750I0J250000D01*
G01*
X196101000Y-45380750D01*
G75*
G02*
X196351000Y-45130750I250000J0D01*
G01*
X197101000Y-45130750D01*
G75*
G02*
X197351000Y-45380750I0J-250000D01*
G01*
G37*
%TD.AperFunction*%
%TD*%
%TO.P,D40,2*%
%TO.N,Net-(D40-Pad2)*%
%TA.AperFunction,SMDPad,CuDef*%
G36*
G01*
X169190051Y-132852815D02*
X170073935Y-133736699D01*
G75*
G02*
X170073935Y-134090253I-176777J-176777D01*
G01*
X169543605Y-134620583D01*
G75*
G02*
X169190051Y-134620583I-176777J176777D01*
G01*
X168306167Y-133736699D01*
G75*
G02*
X168306167Y-133383145I176777J176777D01*
G01*
X168836497Y-132852815D01*
G75*
G02*
X169190051Y-132852815I176777J-176777D01*
G01*
G37*
%TD.AperFunction*%
%TO.P,D40,1*%
%TO.N,/rightButtonSheet/column1*%
%TA.AperFunction,SMDPad,CuDef*%
G36*
G01*
X171169949Y-130872917D02*
X172053833Y-131756801D01*
G75*
G02*
X172053833Y-132110355I-176777J-176777D01*
G01*
X171523503Y-132640685D01*
G75*
G02*
X171169949Y-132640685I-176777J176777D01*
G01*
X170286065Y-131756801D01*
G75*
G02*
X170286065Y-131403247I176777J176777D01*
G01*
X170816395Y-130872917D01*
G75*
G02*
X171169949Y-130872917I176777J-176777D01*
G01*
G37*
%TD.AperFunction*%
%TD*%
%TO.P,D39,2*%
%TO.N,Net-(D39-Pad2)*%
%TA.AperFunction,SMDPad,CuDef*%
G36*
G01*
X175501000Y-104181750D02*
X175501000Y-105431750D01*
G75*
G02*
X175251000Y-105681750I-250000J0D01*
G01*
X174501000Y-105681750D01*
G75*
G02*
X174251000Y-105431750I0J250000D01*
G01*
X174251000Y-104181750D01*
G75*
G02*
X174501000Y-103931750I250000J0D01*
G01*
X175251000Y-103931750D01*
G75*
G02*
X175501000Y-104181750I0J-250000D01*
G01*
G37*
%TD.AperFunction*%
%TO.P,D39,1*%
%TO.N,/rightButtonSheet/column1*%
%TA.AperFunction,SMDPad,CuDef*%
G36*
G01*
X178301000Y-104181750D02*
X178301000Y-105431750D01*
G75*
G02*
X178051000Y-105681750I-250000J0D01*
G01*
X177301000Y-105681750D01*
G75*
G02*
X177051000Y-105431750I0J250000D01*
G01*
X177051000Y-104181750D01*
G75*
G02*
X177301000Y-103931750I250000J0D01*
G01*
X178051000Y-103931750D01*
G75*
G02*
X178301000Y-104181750I0J-250000D01*
G01*
G37*
%TD.AperFunction*%
%TD*%
%TO.P,D38,2*%
%TO.N,Net-(D38-Pad2)*%
%TA.AperFunction,SMDPad,CuDef*%
G36*
G01*
X175501000Y-85131750D02*
X175501000Y-86381750D01*
G75*
G02*
X175251000Y-86631750I-250000J0D01*
G01*
X174501000Y-86631750D01*
G75*
G02*
X174251000Y-86381750I0J250000D01*
G01*
X174251000Y-85131750D01*
G75*
G02*
X174501000Y-84881750I250000J0D01*
G01*
X175251000Y-84881750D01*
G75*
G02*
X175501000Y-85131750I0J-250000D01*
G01*
G37*
%TD.AperFunction*%
%TO.P,D38,1*%
%TO.N,/rightButtonSheet/column1*%
%TA.AperFunction,SMDPad,CuDef*%
G36*
G01*
X178301000Y-85131750D02*
X178301000Y-86381750D01*
G75*
G02*
X178051000Y-86631750I-250000J0D01*
G01*
X177301000Y-86631750D01*
G75*
G02*
X177051000Y-86381750I0J250000D01*
G01*
X177051000Y-85131750D01*
G75*
G02*
X177301000Y-84881750I250000J0D01*
G01*
X178051000Y-84881750D01*
G75*
G02*
X178301000Y-85131750I0J-250000D01*
G01*
G37*
%TD.AperFunction*%
%TD*%
%TO.P,D37,2*%
%TO.N,Net-(D37-Pad2)*%
%TA.AperFunction,SMDPad,CuDef*%
G36*
G01*
X175501000Y-66081750D02*
X175501000Y-67331750D01*
G75*
G02*
X175251000Y-67581750I-250000J0D01*
G01*
X174501000Y-67581750D01*
G75*
G02*
X174251000Y-67331750I0J250000D01*
G01*
X174251000Y-66081750D01*
G75*
G02*
X174501000Y-65831750I250000J0D01*
G01*
X175251000Y-65831750D01*
G75*
G02*
X175501000Y-66081750I0J-250000D01*
G01*
G37*
%TD.AperFunction*%
%TO.P,D37,1*%
%TO.N,/rightButtonSheet/column1*%
%TA.AperFunction,SMDPad,CuDef*%
G36*
G01*
X178301000Y-66081750D02*
X178301000Y-67331750D01*
G75*
G02*
X178051000Y-67581750I-250000J0D01*
G01*
X177301000Y-67581750D01*
G75*
G02*
X177051000Y-67331750I0J250000D01*
G01*
X177051000Y-66081750D01*
G75*
G02*
X177301000Y-65831750I250000J0D01*
G01*
X178051000Y-65831750D01*
G75*
G02*
X178301000Y-66081750I0J-250000D01*
G01*
G37*
%TD.AperFunction*%
%TD*%
%TO.P,D36,2*%
%TO.N,Net-(D36-Pad2)*%
%TA.AperFunction,SMDPad,CuDef*%
G36*
G01*
X175501000Y-47031750D02*
X175501000Y-48281750D01*
G75*
G02*
X175251000Y-48531750I-250000J0D01*
G01*
X174501000Y-48531750D01*
G75*
G02*
X174251000Y-48281750I0J250000D01*
G01*
X174251000Y-47031750D01*
G75*
G02*
X174501000Y-46781750I250000J0D01*
G01*
X175251000Y-46781750D01*
G75*
G02*
X175501000Y-47031750I0J-250000D01*
G01*
G37*
%TD.AperFunction*%
%TO.P,D36,1*%
%TO.N,/rightButtonSheet/column1*%
%TA.AperFunction,SMDPad,CuDef*%
G36*
G01*
X178301000Y-47031750D02*
X178301000Y-48281750D01*
G75*
G02*
X178051000Y-48531750I-250000J0D01*
G01*
X177301000Y-48531750D01*
G75*
G02*
X177051000Y-48281750I0J250000D01*
G01*
X177051000Y-47031750D01*
G75*
G02*
X177301000Y-46781750I250000J0D01*
G01*
X178051000Y-46781750D01*
G75*
G02*
X178301000Y-47031750I0J-250000D01*
G01*
G37*
%TD.AperFunction*%
%TD*%
%TO.P,D35,2*%
%TO.N,Net-(D35-Pad2)*%
%TA.AperFunction,SMDPad,CuDef*%
G36*
G01*
X129296815Y-133736699D02*
X130180699Y-132852815D01*
G75*
G02*
X130534253Y-132852815I176777J-176777D01*
G01*
X131064583Y-133383145D01*
G75*
G02*
X131064583Y-133736699I-176777J-176777D01*
G01*
X130180699Y-134620583D01*
G75*
G02*
X129827145Y-134620583I-176777J176777D01*
G01*
X129296815Y-134090253D01*
G75*
G02*
X129296815Y-133736699I176777J176777D01*
G01*
G37*
%TD.AperFunction*%
%TO.P,D35,1*%
%TO.N,/leftButtonSheet/column7*%
%TA.AperFunction,SMDPad,CuDef*%
G36*
G01*
X127316917Y-131756801D02*
X128200801Y-130872917D01*
G75*
G02*
X128554355Y-130872917I176777J-176777D01*
G01*
X129084685Y-131403247D01*
G75*
G02*
X129084685Y-131756801I-176777J-176777D01*
G01*
X128200801Y-132640685D01*
G75*
G02*
X127847247Y-132640685I-176777J176777D01*
G01*
X127316917Y-132110355D01*
G75*
G02*
X127316917Y-131756801I176777J176777D01*
G01*
G37*
%TD.AperFunction*%
%TD*%
%TO.P,D34,2*%
%TO.N,Net-(D34-Pad2)*%
%TA.AperFunction,SMDPad,CuDef*%
G36*
G01*
X123742750Y-105431750D02*
X123742750Y-104181750D01*
G75*
G02*
X123992750Y-103931750I250000J0D01*
G01*
X124742750Y-103931750D01*
G75*
G02*
X124992750Y-104181750I0J-250000D01*
G01*
X124992750Y-105431750D01*
G75*
G02*
X124742750Y-105681750I-250000J0D01*
G01*
X123992750Y-105681750D01*
G75*
G02*
X123742750Y-105431750I0J250000D01*
G01*
G37*
%TD.AperFunction*%
%TO.P,D34,1*%
%TO.N,/leftButtonSheet/column7*%
%TA.AperFunction,SMDPad,CuDef*%
G36*
G01*
X120942750Y-105431750D02*
X120942750Y-104181750D01*
G75*
G02*
X121192750Y-103931750I250000J0D01*
G01*
X121942750Y-103931750D01*
G75*
G02*
X122192750Y-104181750I0J-250000D01*
G01*
X122192750Y-105431750D01*
G75*
G02*
X121942750Y-105681750I-250000J0D01*
G01*
X121192750Y-105681750D01*
G75*
G02*
X120942750Y-105431750I0J250000D01*
G01*
G37*
%TD.AperFunction*%
%TD*%
%TO.P,D33,2*%
%TO.N,Net-(D33-Pad2)*%
%TA.AperFunction,SMDPad,CuDef*%
G36*
G01*
X123742750Y-86381750D02*
X123742750Y-85131750D01*
G75*
G02*
X123992750Y-84881750I250000J0D01*
G01*
X124742750Y-84881750D01*
G75*
G02*
X124992750Y-85131750I0J-250000D01*
G01*
X124992750Y-86381750D01*
G75*
G02*
X124742750Y-86631750I-250000J0D01*
G01*
X123992750Y-86631750D01*
G75*
G02*
X123742750Y-86381750I0J250000D01*
G01*
G37*
%TD.AperFunction*%
%TO.P,D33,1*%
%TO.N,/leftButtonSheet/column7*%
%TA.AperFunction,SMDPad,CuDef*%
G36*
G01*
X120942750Y-86381750D02*
X120942750Y-85131750D01*
G75*
G02*
X121192750Y-84881750I250000J0D01*
G01*
X121942750Y-84881750D01*
G75*
G02*
X122192750Y-85131750I0J-250000D01*
G01*
X122192750Y-86381750D01*
G75*
G02*
X121942750Y-86631750I-250000J0D01*
G01*
X121192750Y-86631750D01*
G75*
G02*
X120942750Y-86381750I0J250000D01*
G01*
G37*
%TD.AperFunction*%
%TD*%
%TO.P,D32,2*%
%TO.N,Net-(D32-Pad2)*%
%TA.AperFunction,SMDPad,CuDef*%
G36*
G01*
X123742750Y-67331750D02*
X123742750Y-66081750D01*
G75*
G02*
X123992750Y-65831750I250000J0D01*
G01*
X124742750Y-65831750D01*
G75*
G02*
X124992750Y-66081750I0J-250000D01*
G01*
X124992750Y-67331750D01*
G75*
G02*
X124742750Y-67581750I-250000J0D01*
G01*
X123992750Y-67581750D01*
G75*
G02*
X123742750Y-67331750I0J250000D01*
G01*
G37*
%TD.AperFunction*%
%TO.P,D32,1*%
%TO.N,/leftButtonSheet/column7*%
%TA.AperFunction,SMDPad,CuDef*%
G36*
G01*
X120942750Y-67331750D02*
X120942750Y-66081750D01*
G75*
G02*
X121192750Y-65831750I250000J0D01*
G01*
X121942750Y-65831750D01*
G75*
G02*
X122192750Y-66081750I0J-250000D01*
G01*
X122192750Y-67331750D01*
G75*
G02*
X121942750Y-67581750I-250000J0D01*
G01*
X121192750Y-67581750D01*
G75*
G02*
X120942750Y-67331750I0J250000D01*
G01*
G37*
%TD.AperFunction*%
%TD*%
%TO.P,D31,2*%
%TO.N,Net-(D31-Pad2)*%
%TA.AperFunction,SMDPad,CuDef*%
G36*
G01*
X123742750Y-48281750D02*
X123742750Y-47031750D01*
G75*
G02*
X123992750Y-46781750I250000J0D01*
G01*
X124742750Y-46781750D01*
G75*
G02*
X124992750Y-47031750I0J-250000D01*
G01*
X124992750Y-48281750D01*
G75*
G02*
X124742750Y-48531750I-250000J0D01*
G01*
X123992750Y-48531750D01*
G75*
G02*
X123742750Y-48281750I0J250000D01*
G01*
G37*
%TD.AperFunction*%
%TO.P,D31,1*%
%TO.N,/leftButtonSheet/column7*%
%TA.AperFunction,SMDPad,CuDef*%
G36*
G01*
X120942750Y-48281750D02*
X120942750Y-47031750D01*
G75*
G02*
X121192750Y-46781750I250000J0D01*
G01*
X121942750Y-46781750D01*
G75*
G02*
X122192750Y-47031750I0J-250000D01*
G01*
X122192750Y-48281750D01*
G75*
G02*
X121942750Y-48531750I-250000J0D01*
G01*
X121192750Y-48531750D01*
G75*
G02*
X120942750Y-48281750I0J250000D01*
G01*
G37*
%TD.AperFunction*%
%TD*%
%TO.P,D30,2*%
%TO.N,Net-(D30-Pad2)*%
%TA.AperFunction,SMDPad,CuDef*%
G36*
G01*
X110372420Y-122372516D02*
X110997420Y-121289984D01*
G75*
G02*
X111338926Y-121198478I216506J-125000D01*
G01*
X111988446Y-121573478D01*
G75*
G02*
X112079952Y-121914984I-125000J-216506D01*
G01*
X111454952Y-122997516D01*
G75*
G02*
X111113446Y-123089022I-216506J125000D01*
G01*
X110463926Y-122714022D01*
G75*
G02*
X110372420Y-122372516I125000J216506D01*
G01*
G37*
%TD.AperFunction*%
%TO.P,D30,1*%
%TO.N,/leftButtonSheet/column6*%
%TA.AperFunction,SMDPad,CuDef*%
G36*
G01*
X107947548Y-120972516D02*
X108572548Y-119889984D01*
G75*
G02*
X108914054Y-119798478I216506J-125000D01*
G01*
X109563574Y-120173478D01*
G75*
G02*
X109655080Y-120514984I-125000J-216506D01*
G01*
X109030080Y-121597516D01*
G75*
G02*
X108688574Y-121689022I-216506J125000D01*
G01*
X108039054Y-121314022D01*
G75*
G02*
X107947548Y-120972516I125000J216506D01*
G01*
G37*
%TD.AperFunction*%
%TD*%
%TO.P,D29,2*%
%TO.N,Net-(D29-Pad2)*%
%TA.AperFunction,SMDPad,CuDef*%
G36*
G01*
X104692750Y-103653750D02*
X104692750Y-102403750D01*
G75*
G02*
X104942750Y-102153750I250000J0D01*
G01*
X105692750Y-102153750D01*
G75*
G02*
X105942750Y-102403750I0J-250000D01*
G01*
X105942750Y-103653750D01*
G75*
G02*
X105692750Y-103903750I-250000J0D01*
G01*
X104942750Y-103903750D01*
G75*
G02*
X104692750Y-103653750I0J250000D01*
G01*
G37*
%TD.AperFunction*%
%TO.P,D29,1*%
%TO.N,/leftButtonSheet/column6*%
%TA.AperFunction,SMDPad,CuDef*%
G36*
G01*
X101892750Y-103653750D02*
X101892750Y-102403750D01*
G75*
G02*
X102142750Y-102153750I250000J0D01*
G01*
X102892750Y-102153750D01*
G75*
G02*
X103142750Y-102403750I0J-250000D01*
G01*
X103142750Y-103653750D01*
G75*
G02*
X102892750Y-103903750I-250000J0D01*
G01*
X102142750Y-103903750D01*
G75*
G02*
X101892750Y-103653750I0J250000D01*
G01*
G37*
%TD.AperFunction*%
%TD*%
%TO.P,D28,2*%
%TO.N,Net-(D28-Pad2)*%
%TA.AperFunction,SMDPad,CuDef*%
G36*
G01*
X104692750Y-84699000D02*
X104692750Y-83449000D01*
G75*
G02*
X104942750Y-83199000I250000J0D01*
G01*
X105692750Y-83199000D01*
G75*
G02*
X105942750Y-83449000I0J-250000D01*
G01*
X105942750Y-84699000D01*
G75*
G02*
X105692750Y-84949000I-250000J0D01*
G01*
X104942750Y-84949000D01*
G75*
G02*
X104692750Y-84699000I0J250000D01*
G01*
G37*
%TD.AperFunction*%
%TO.P,D28,1*%
%TO.N,/leftButtonSheet/column6*%
%TA.AperFunction,SMDPad,CuDef*%
G36*
G01*
X101892750Y-84699000D02*
X101892750Y-83449000D01*
G75*
G02*
X102142750Y-83199000I250000J0D01*
G01*
X102892750Y-83199000D01*
G75*
G02*
X103142750Y-83449000I0J-250000D01*
G01*
X103142750Y-84699000D01*
G75*
G02*
X102892750Y-84949000I-250000J0D01*
G01*
X102142750Y-84949000D01*
G75*
G02*
X101892750Y-84699000I0J250000D01*
G01*
G37*
%TD.AperFunction*%
%TD*%
%TO.P,D27,2*%
%TO.N,Net-(D27-Pad2)*%
%TA.AperFunction,SMDPad,CuDef*%
G36*
G01*
X104692750Y-65680750D02*
X104692750Y-64430750D01*
G75*
G02*
X104942750Y-64180750I250000J0D01*
G01*
X105692750Y-64180750D01*
G75*
G02*
X105942750Y-64430750I0J-250000D01*
G01*
X105942750Y-65680750D01*
G75*
G02*
X105692750Y-65930750I-250000J0D01*
G01*
X104942750Y-65930750D01*
G75*
G02*
X104692750Y-65680750I0J250000D01*
G01*
G37*
%TD.AperFunction*%
%TO.P,D27,1*%
%TO.N,/leftButtonSheet/column6*%
%TA.AperFunction,SMDPad,CuDef*%
G36*
G01*
X101892750Y-65680750D02*
X101892750Y-64430750D01*
G75*
G02*
X102142750Y-64180750I250000J0D01*
G01*
X102892750Y-64180750D01*
G75*
G02*
X103142750Y-64430750I0J-250000D01*
G01*
X103142750Y-65680750D01*
G75*
G02*
X102892750Y-65930750I-250000J0D01*
G01*
X102142750Y-65930750D01*
G75*
G02*
X101892750Y-65680750I0J250000D01*
G01*
G37*
%TD.AperFunction*%
%TD*%
%TO.P,D26,2*%
%TO.N,Net-(D26-Pad2)*%
%TA.AperFunction,SMDPad,CuDef*%
G36*
G01*
X104692750Y-46630750D02*
X104692750Y-45380750D01*
G75*
G02*
X104942750Y-45130750I250000J0D01*
G01*
X105692750Y-45130750D01*
G75*
G02*
X105942750Y-45380750I0J-250000D01*
G01*
X105942750Y-46630750D01*
G75*
G02*
X105692750Y-46880750I-250000J0D01*
G01*
X104942750Y-46880750D01*
G75*
G02*
X104692750Y-46630750I0J250000D01*
G01*
G37*
%TD.AperFunction*%
%TO.P,D26,1*%
%TO.N,/leftButtonSheet/column6*%
%TA.AperFunction,SMDPad,CuDef*%
G36*
G01*
X101892750Y-46630750D02*
X101892750Y-45380750D01*
G75*
G02*
X102142750Y-45130750I250000J0D01*
G01*
X102892750Y-45130750D01*
G75*
G02*
X103142750Y-45380750I0J-250000D01*
G01*
X103142750Y-46630750D01*
G75*
G02*
X102892750Y-46880750I-250000J0D01*
G01*
X102142750Y-46880750D01*
G75*
G02*
X101892750Y-46630750I0J250000D01*
G01*
G37*
%TD.AperFunction*%
%TD*%
%TO.P,D25,2*%
%TO.N,Net-(D25-Pad2)*%
%TA.AperFunction,SMDPad,CuDef*%
G36*
G01*
X85642750Y-120925750D02*
X85642750Y-119675750D01*
G75*
G02*
X85892750Y-119425750I250000J0D01*
G01*
X86642750Y-119425750D01*
G75*
G02*
X86892750Y-119675750I0J-250000D01*
G01*
X86892750Y-120925750D01*
G75*
G02*
X86642750Y-121175750I-250000J0D01*
G01*
X85892750Y-121175750D01*
G75*
G02*
X85642750Y-120925750I0J250000D01*
G01*
G37*
%TD.AperFunction*%
%TO.P,D25,1*%
%TO.N,/leftButtonSheet/column5*%
%TA.AperFunction,SMDPad,CuDef*%
G36*
G01*
X82842750Y-120925750D02*
X82842750Y-119675750D01*
G75*
G02*
X83092750Y-119425750I250000J0D01*
G01*
X83842750Y-119425750D01*
G75*
G02*
X84092750Y-119675750I0J-250000D01*
G01*
X84092750Y-120925750D01*
G75*
G02*
X83842750Y-121175750I-250000J0D01*
G01*
X83092750Y-121175750D01*
G75*
G02*
X82842750Y-120925750I0J250000D01*
G01*
G37*
%TD.AperFunction*%
%TD*%
%TO.P,D24,2*%
%TO.N,Net-(D24-Pad2)*%
%TA.AperFunction,SMDPad,CuDef*%
G36*
G01*
X85642750Y-101875750D02*
X85642750Y-100625750D01*
G75*
G02*
X85892750Y-100375750I250000J0D01*
G01*
X86642750Y-100375750D01*
G75*
G02*
X86892750Y-100625750I0J-250000D01*
G01*
X86892750Y-101875750D01*
G75*
G02*
X86642750Y-102125750I-250000J0D01*
G01*
X85892750Y-102125750D01*
G75*
G02*
X85642750Y-101875750I0J250000D01*
G01*
G37*
%TD.AperFunction*%
%TO.P,D24,1*%
%TO.N,/leftButtonSheet/column5*%
%TA.AperFunction,SMDPad,CuDef*%
G36*
G01*
X82842750Y-101875750D02*
X82842750Y-100625750D01*
G75*
G02*
X83092750Y-100375750I250000J0D01*
G01*
X83842750Y-100375750D01*
G75*
G02*
X84092750Y-100625750I0J-250000D01*
G01*
X84092750Y-101875750D01*
G75*
G02*
X83842750Y-102125750I-250000J0D01*
G01*
X83092750Y-102125750D01*
G75*
G02*
X82842750Y-101875750I0J250000D01*
G01*
G37*
%TD.AperFunction*%
%TD*%
%TO.P,D23,2*%
%TO.N,Net-(D23-Pad2)*%
%TA.AperFunction,SMDPad,CuDef*%
G36*
G01*
X85642750Y-82698750D02*
X85642750Y-81448750D01*
G75*
G02*
X85892750Y-81198750I250000J0D01*
G01*
X86642750Y-81198750D01*
G75*
G02*
X86892750Y-81448750I0J-250000D01*
G01*
X86892750Y-82698750D01*
G75*
G02*
X86642750Y-82948750I-250000J0D01*
G01*
X85892750Y-82948750D01*
G75*
G02*
X85642750Y-82698750I0J250000D01*
G01*
G37*
%TD.AperFunction*%
%TO.P,D23,1*%
%TO.N,/leftButtonSheet/column5*%
%TA.AperFunction,SMDPad,CuDef*%
G36*
G01*
X82842750Y-82698750D02*
X82842750Y-81448750D01*
G75*
G02*
X83092750Y-81198750I250000J0D01*
G01*
X83842750Y-81198750D01*
G75*
G02*
X84092750Y-81448750I0J-250000D01*
G01*
X84092750Y-82698750D01*
G75*
G02*
X83842750Y-82948750I-250000J0D01*
G01*
X83092750Y-82948750D01*
G75*
G02*
X82842750Y-82698750I0J250000D01*
G01*
G37*
%TD.AperFunction*%
%TD*%
%TO.P,D22,2*%
%TO.N,Net-(D22-Pad2)*%
%TA.AperFunction,SMDPad,CuDef*%
G36*
G01*
X85642750Y-63775750D02*
X85642750Y-62525750D01*
G75*
G02*
X85892750Y-62275750I250000J0D01*
G01*
X86642750Y-62275750D01*
G75*
G02*
X86892750Y-62525750I0J-250000D01*
G01*
X86892750Y-63775750D01*
G75*
G02*
X86642750Y-64025750I-250000J0D01*
G01*
X85892750Y-64025750D01*
G75*
G02*
X85642750Y-63775750I0J250000D01*
G01*
G37*
%TD.AperFunction*%
%TO.P,D22,1*%
%TO.N,/leftButtonSheet/column5*%
%TA.AperFunction,SMDPad,CuDef*%
G36*
G01*
X82842750Y-63775750D02*
X82842750Y-62525750D01*
G75*
G02*
X83092750Y-62275750I250000J0D01*
G01*
X83842750Y-62275750D01*
G75*
G02*
X84092750Y-62525750I0J-250000D01*
G01*
X84092750Y-63775750D01*
G75*
G02*
X83842750Y-64025750I-250000J0D01*
G01*
X83092750Y-64025750D01*
G75*
G02*
X82842750Y-63775750I0J250000D01*
G01*
G37*
%TD.AperFunction*%
%TD*%
%TO.P,D21,2*%
%TO.N,Net-(D21-Pad2)*%
%TA.AperFunction,SMDPad,CuDef*%
G36*
G01*
X85642750Y-44725750D02*
X85642750Y-43475750D01*
G75*
G02*
X85892750Y-43225750I250000J0D01*
G01*
X86642750Y-43225750D01*
G75*
G02*
X86892750Y-43475750I0J-250000D01*
G01*
X86892750Y-44725750D01*
G75*
G02*
X86642750Y-44975750I-250000J0D01*
G01*
X85892750Y-44975750D01*
G75*
G02*
X85642750Y-44725750I0J250000D01*
G01*
G37*
%TD.AperFunction*%
%TO.P,D21,1*%
%TO.N,/leftButtonSheet/column5*%
%TA.AperFunction,SMDPad,CuDef*%
G36*
G01*
X82842750Y-44725750D02*
X82842750Y-43475750D01*
G75*
G02*
X83092750Y-43225750I250000J0D01*
G01*
X83842750Y-43225750D01*
G75*
G02*
X84092750Y-43475750I0J-250000D01*
G01*
X84092750Y-44725750D01*
G75*
G02*
X83842750Y-44975750I-250000J0D01*
G01*
X83092750Y-44975750D01*
G75*
G02*
X82842750Y-44725750I0J250000D01*
G01*
G37*
%TD.AperFunction*%
%TD*%
%TO.P,D20,2*%
%TO.N,Net-(D20-Pad2)*%
%TA.AperFunction,SMDPad,CuDef*%
G36*
G01*
X66592750Y-118131750D02*
X66592750Y-116881750D01*
G75*
G02*
X66842750Y-116631750I250000J0D01*
G01*
X67592750Y-116631750D01*
G75*
G02*
X67842750Y-116881750I0J-250000D01*
G01*
X67842750Y-118131750D01*
G75*
G02*
X67592750Y-118381750I-250000J0D01*
G01*
X66842750Y-118381750D01*
G75*
G02*
X66592750Y-118131750I0J250000D01*
G01*
G37*
%TD.AperFunction*%
%TO.P,D20,1*%
%TO.N,/leftButtonSheet/column4*%
%TA.AperFunction,SMDPad,CuDef*%
G36*
G01*
X63792750Y-118131750D02*
X63792750Y-116881750D01*
G75*
G02*
X64042750Y-116631750I250000J0D01*
G01*
X64792750Y-116631750D01*
G75*
G02*
X65042750Y-116881750I0J-250000D01*
G01*
X65042750Y-118131750D01*
G75*
G02*
X64792750Y-118381750I-250000J0D01*
G01*
X64042750Y-118381750D01*
G75*
G02*
X63792750Y-118131750I0J250000D01*
G01*
G37*
%TD.AperFunction*%
%TD*%
%TO.P,D19,2*%
%TO.N,Net-(D19-Pad2)*%
%TA.AperFunction,SMDPad,CuDef*%
G36*
G01*
X66592750Y-99081750D02*
X66592750Y-97831750D01*
G75*
G02*
X66842750Y-97581750I250000J0D01*
G01*
X67592750Y-97581750D01*
G75*
G02*
X67842750Y-97831750I0J-250000D01*
G01*
X67842750Y-99081750D01*
G75*
G02*
X67592750Y-99331750I-250000J0D01*
G01*
X66842750Y-99331750D01*
G75*
G02*
X66592750Y-99081750I0J250000D01*
G01*
G37*
%TD.AperFunction*%
%TO.P,D19,1*%
%TO.N,/leftButtonSheet/column4*%
%TA.AperFunction,SMDPad,CuDef*%
G36*
G01*
X63792750Y-99081750D02*
X63792750Y-97831750D01*
G75*
G02*
X64042750Y-97581750I250000J0D01*
G01*
X64792750Y-97581750D01*
G75*
G02*
X65042750Y-97831750I0J-250000D01*
G01*
X65042750Y-99081750D01*
G75*
G02*
X64792750Y-99331750I-250000J0D01*
G01*
X64042750Y-99331750D01*
G75*
G02*
X63792750Y-99081750I0J250000D01*
G01*
G37*
%TD.AperFunction*%
%TD*%
%TO.P,D18,2*%
%TO.N,Net-(D18-Pad2)*%
%TA.AperFunction,SMDPad,CuDef*%
G36*
G01*
X66592750Y-80031750D02*
X66592750Y-78781750D01*
G75*
G02*
X66842750Y-78531750I250000J0D01*
G01*
X67592750Y-78531750D01*
G75*
G02*
X67842750Y-78781750I0J-250000D01*
G01*
X67842750Y-80031750D01*
G75*
G02*
X67592750Y-80281750I-250000J0D01*
G01*
X66842750Y-80281750D01*
G75*
G02*
X66592750Y-80031750I0J250000D01*
G01*
G37*
%TD.AperFunction*%
%TO.P,D18,1*%
%TO.N,/leftButtonSheet/column4*%
%TA.AperFunction,SMDPad,CuDef*%
G36*
G01*
X63792750Y-80031750D02*
X63792750Y-78781750D01*
G75*
G02*
X64042750Y-78531750I250000J0D01*
G01*
X64792750Y-78531750D01*
G75*
G02*
X65042750Y-78781750I0J-250000D01*
G01*
X65042750Y-80031750D01*
G75*
G02*
X64792750Y-80281750I-250000J0D01*
G01*
X64042750Y-80281750D01*
G75*
G02*
X63792750Y-80031750I0J250000D01*
G01*
G37*
%TD.AperFunction*%
%TD*%
%TO.P,D17,2*%
%TO.N,Net-(D17-Pad2)*%
%TA.AperFunction,SMDPad,CuDef*%
G36*
G01*
X66592750Y-60981750D02*
X66592750Y-59731750D01*
G75*
G02*
X66842750Y-59481750I250000J0D01*
G01*
X67592750Y-59481750D01*
G75*
G02*
X67842750Y-59731750I0J-250000D01*
G01*
X67842750Y-60981750D01*
G75*
G02*
X67592750Y-61231750I-250000J0D01*
G01*
X66842750Y-61231750D01*
G75*
G02*
X66592750Y-60981750I0J250000D01*
G01*
G37*
%TD.AperFunction*%
%TO.P,D17,1*%
%TO.N,/leftButtonSheet/column4*%
%TA.AperFunction,SMDPad,CuDef*%
G36*
G01*
X63792750Y-60981750D02*
X63792750Y-59731750D01*
G75*
G02*
X64042750Y-59481750I250000J0D01*
G01*
X64792750Y-59481750D01*
G75*
G02*
X65042750Y-59731750I0J-250000D01*
G01*
X65042750Y-60981750D01*
G75*
G02*
X64792750Y-61231750I-250000J0D01*
G01*
X64042750Y-61231750D01*
G75*
G02*
X63792750Y-60981750I0J250000D01*
G01*
G37*
%TD.AperFunction*%
%TD*%
%TO.P,D16,2*%
%TO.N,Net-(D16-Pad2)*%
%TA.AperFunction,SMDPad,CuDef*%
G36*
G01*
X66592750Y-41804750D02*
X66592750Y-40554750D01*
G75*
G02*
X66842750Y-40304750I250000J0D01*
G01*
X67592750Y-40304750D01*
G75*
G02*
X67842750Y-40554750I0J-250000D01*
G01*
X67842750Y-41804750D01*
G75*
G02*
X67592750Y-42054750I-250000J0D01*
G01*
X66842750Y-42054750D01*
G75*
G02*
X66592750Y-41804750I0J250000D01*
G01*
G37*
%TD.AperFunction*%
%TO.P,D16,1*%
%TO.N,/leftButtonSheet/column4*%
%TA.AperFunction,SMDPad,CuDef*%
G36*
G01*
X63792750Y-41804750D02*
X63792750Y-40554750D01*
G75*
G02*
X64042750Y-40304750I250000J0D01*
G01*
X64792750Y-40304750D01*
G75*
G02*
X65042750Y-40554750I0J-250000D01*
G01*
X65042750Y-41804750D01*
G75*
G02*
X64792750Y-42054750I-250000J0D01*
G01*
X64042750Y-42054750D01*
G75*
G02*
X63792750Y-41804750I0J250000D01*
G01*
G37*
%TD.AperFunction*%
%TD*%
%TO.P,D15,2*%
%TO.N,Net-(D15-Pad2)*%
%TA.AperFunction,SMDPad,CuDef*%
G36*
G01*
X47542750Y-120925750D02*
X47542750Y-119675750D01*
G75*
G02*
X47792750Y-119425750I250000J0D01*
G01*
X48542750Y-119425750D01*
G75*
G02*
X48792750Y-119675750I0J-250000D01*
G01*
X48792750Y-120925750D01*
G75*
G02*
X48542750Y-121175750I-250000J0D01*
G01*
X47792750Y-121175750D01*
G75*
G02*
X47542750Y-120925750I0J250000D01*
G01*
G37*
%TD.AperFunction*%
%TO.P,D15,1*%
%TO.N,/leftButtonSheet/column3*%
%TA.AperFunction,SMDPad,CuDef*%
G36*
G01*
X44742750Y-120925750D02*
X44742750Y-119675750D01*
G75*
G02*
X44992750Y-119425750I250000J0D01*
G01*
X45742750Y-119425750D01*
G75*
G02*
X45992750Y-119675750I0J-250000D01*
G01*
X45992750Y-120925750D01*
G75*
G02*
X45742750Y-121175750I-250000J0D01*
G01*
X44992750Y-121175750D01*
G75*
G02*
X44742750Y-120925750I0J250000D01*
G01*
G37*
%TD.AperFunction*%
%TD*%
%TO.P,D14,2*%
%TO.N,Net-(D14-Pad2)*%
%TA.AperFunction,SMDPad,CuDef*%
G36*
G01*
X47542750Y-101875750D02*
X47542750Y-100625750D01*
G75*
G02*
X47792750Y-100375750I250000J0D01*
G01*
X48542750Y-100375750D01*
G75*
G02*
X48792750Y-100625750I0J-250000D01*
G01*
X48792750Y-101875750D01*
G75*
G02*
X48542750Y-102125750I-250000J0D01*
G01*
X47792750Y-102125750D01*
G75*
G02*
X47542750Y-101875750I0J250000D01*
G01*
G37*
%TD.AperFunction*%
%TO.P,D14,1*%
%TO.N,/leftButtonSheet/column3*%
%TA.AperFunction,SMDPad,CuDef*%
G36*
G01*
X44742750Y-101875750D02*
X44742750Y-100625750D01*
G75*
G02*
X44992750Y-100375750I250000J0D01*
G01*
X45742750Y-100375750D01*
G75*
G02*
X45992750Y-100625750I0J-250000D01*
G01*
X45992750Y-101875750D01*
G75*
G02*
X45742750Y-102125750I-250000J0D01*
G01*
X44992750Y-102125750D01*
G75*
G02*
X44742750Y-101875750I0J250000D01*
G01*
G37*
%TD.AperFunction*%
%TD*%
%TO.P,D13,2*%
%TO.N,Net-(D13-Pad2)*%
%TA.AperFunction,SMDPad,CuDef*%
G36*
G01*
X47542750Y-82825750D02*
X47542750Y-81575750D01*
G75*
G02*
X47792750Y-81325750I250000J0D01*
G01*
X48542750Y-81325750D01*
G75*
G02*
X48792750Y-81575750I0J-250000D01*
G01*
X48792750Y-82825750D01*
G75*
G02*
X48542750Y-83075750I-250000J0D01*
G01*
X47792750Y-83075750D01*
G75*
G02*
X47542750Y-82825750I0J250000D01*
G01*
G37*
%TD.AperFunction*%
%TO.P,D13,1*%
%TO.N,/leftButtonSheet/column3*%
%TA.AperFunction,SMDPad,CuDef*%
G36*
G01*
X44742750Y-82825750D02*
X44742750Y-81575750D01*
G75*
G02*
X44992750Y-81325750I250000J0D01*
G01*
X45742750Y-81325750D01*
G75*
G02*
X45992750Y-81575750I0J-250000D01*
G01*
X45992750Y-82825750D01*
G75*
G02*
X45742750Y-83075750I-250000J0D01*
G01*
X44992750Y-83075750D01*
G75*
G02*
X44742750Y-82825750I0J250000D01*
G01*
G37*
%TD.AperFunction*%
%TD*%
%TO.P,D12,2*%
%TO.N,Net-(D12-Pad2)*%
%TA.AperFunction,SMDPad,CuDef*%
G36*
G01*
X47539750Y-63775750D02*
X47539750Y-62525750D01*
G75*
G02*
X47789750Y-62275750I250000J0D01*
G01*
X48539750Y-62275750D01*
G75*
G02*
X48789750Y-62525750I0J-250000D01*
G01*
X48789750Y-63775750D01*
G75*
G02*
X48539750Y-64025750I-250000J0D01*
G01*
X47789750Y-64025750D01*
G75*
G02*
X47539750Y-63775750I0J250000D01*
G01*
G37*
%TD.AperFunction*%
%TO.P,D12,1*%
%TO.N,/leftButtonSheet/column3*%
%TA.AperFunction,SMDPad,CuDef*%
G36*
G01*
X44739750Y-63775750D02*
X44739750Y-62525750D01*
G75*
G02*
X44989750Y-62275750I250000J0D01*
G01*
X45739750Y-62275750D01*
G75*
G02*
X45989750Y-62525750I0J-250000D01*
G01*
X45989750Y-63775750D01*
G75*
G02*
X45739750Y-64025750I-250000J0D01*
G01*
X44989750Y-64025750D01*
G75*
G02*
X44739750Y-63775750I0J250000D01*
G01*
G37*
%TD.AperFunction*%
%TD*%
%TO.P,D11,2*%
%TO.N,Net-(D11-Pad2)*%
%TA.AperFunction,SMDPad,CuDef*%
G36*
G01*
X47545750Y-44725750D02*
X47545750Y-43475750D01*
G75*
G02*
X47795750Y-43225750I250000J0D01*
G01*
X48545750Y-43225750D01*
G75*
G02*
X48795750Y-43475750I0J-250000D01*
G01*
X48795750Y-44725750D01*
G75*
G02*
X48545750Y-44975750I-250000J0D01*
G01*
X47795750Y-44975750D01*
G75*
G02*
X47545750Y-44725750I0J250000D01*
G01*
G37*
%TD.AperFunction*%
%TO.P,D11,1*%
%TO.N,/leftButtonSheet/column3*%
%TA.AperFunction,SMDPad,CuDef*%
G36*
G01*
X44745750Y-44725750D02*
X44745750Y-43475750D01*
G75*
G02*
X44995750Y-43225750I250000J0D01*
G01*
X45745750Y-43225750D01*
G75*
G02*
X45995750Y-43475750I0J-250000D01*
G01*
X45995750Y-44725750D01*
G75*
G02*
X45745750Y-44975750I-250000J0D01*
G01*
X44995750Y-44975750D01*
G75*
G02*
X44745750Y-44725750I0J250000D01*
G01*
G37*
%TD.AperFunction*%
%TD*%
%TO.P,D10,2*%
%TO.N,Net-(D10-Pad2)*%
%TA.AperFunction,SMDPad,CuDef*%
G36*
G01*
X28492750Y-124481750D02*
X28492750Y-123231750D01*
G75*
G02*
X28742750Y-122981750I250000J0D01*
G01*
X29492750Y-122981750D01*
G75*
G02*
X29742750Y-123231750I0J-250000D01*
G01*
X29742750Y-124481750D01*
G75*
G02*
X29492750Y-124731750I-250000J0D01*
G01*
X28742750Y-124731750D01*
G75*
G02*
X28492750Y-124481750I0J250000D01*
G01*
G37*
%TD.AperFunction*%
%TO.P,D10,1*%
%TO.N,/leftButtonSheet/column2*%
%TA.AperFunction,SMDPad,CuDef*%
G36*
G01*
X25692750Y-124481750D02*
X25692750Y-123231750D01*
G75*
G02*
X25942750Y-122981750I250000J0D01*
G01*
X26692750Y-122981750D01*
G75*
G02*
X26942750Y-123231750I0J-250000D01*
G01*
X26942750Y-124481750D01*
G75*
G02*
X26692750Y-124731750I-250000J0D01*
G01*
X25942750Y-124731750D01*
G75*
G02*
X25692750Y-124481750I0J250000D01*
G01*
G37*
%TD.AperFunction*%
%TD*%
%TO.P,D9,2*%
%TO.N,Net-(D9-Pad2)*%
%TA.AperFunction,SMDPad,CuDef*%
G36*
G01*
X28492750Y-105431750D02*
X28492750Y-104181750D01*
G75*
G02*
X28742750Y-103931750I250000J0D01*
G01*
X29492750Y-103931750D01*
G75*
G02*
X29742750Y-104181750I0J-250000D01*
G01*
X29742750Y-105431750D01*
G75*
G02*
X29492750Y-105681750I-250000J0D01*
G01*
X28742750Y-105681750D01*
G75*
G02*
X28492750Y-105431750I0J250000D01*
G01*
G37*
%TD.AperFunction*%
%TO.P,D9,1*%
%TO.N,/leftButtonSheet/column2*%
%TA.AperFunction,SMDPad,CuDef*%
G36*
G01*
X25692750Y-105431750D02*
X25692750Y-104181750D01*
G75*
G02*
X25942750Y-103931750I250000J0D01*
G01*
X26692750Y-103931750D01*
G75*
G02*
X26942750Y-104181750I0J-250000D01*
G01*
X26942750Y-105431750D01*
G75*
G02*
X26692750Y-105681750I-250000J0D01*
G01*
X25942750Y-105681750D01*
G75*
G02*
X25692750Y-105431750I0J250000D01*
G01*
G37*
%TD.AperFunction*%
%TD*%
%TO.P,D8,2*%
%TO.N,Net-(D8-Pad2)*%
%TA.AperFunction,SMDPad,CuDef*%
G36*
G01*
X28492750Y-86381750D02*
X28492750Y-85131750D01*
G75*
G02*
X28742750Y-84881750I250000J0D01*
G01*
X29492750Y-84881750D01*
G75*
G02*
X29742750Y-85131750I0J-250000D01*
G01*
X29742750Y-86381750D01*
G75*
G02*
X29492750Y-86631750I-250000J0D01*
G01*
X28742750Y-86631750D01*
G75*
G02*
X28492750Y-86381750I0J250000D01*
G01*
G37*
%TD.AperFunction*%
%TO.P,D8,1*%
%TO.N,/leftButtonSheet/column2*%
%TA.AperFunction,SMDPad,CuDef*%
G36*
G01*
X25692750Y-86381750D02*
X25692750Y-85131750D01*
G75*
G02*
X25942750Y-84881750I250000J0D01*
G01*
X26692750Y-84881750D01*
G75*
G02*
X26942750Y-85131750I0J-250000D01*
G01*
X26942750Y-86381750D01*
G75*
G02*
X26692750Y-86631750I-250000J0D01*
G01*
X25942750Y-86631750D01*
G75*
G02*
X25692750Y-86381750I0J250000D01*
G01*
G37*
%TD.AperFunction*%
%TD*%
%TO.P,D7,2*%
%TO.N,Net-(D7-Pad2)*%
%TA.AperFunction,SMDPad,CuDef*%
G36*
G01*
X28492750Y-67331750D02*
X28492750Y-66081750D01*
G75*
G02*
X28742750Y-65831750I250000J0D01*
G01*
X29492750Y-65831750D01*
G75*
G02*
X29742750Y-66081750I0J-250000D01*
G01*
X29742750Y-67331750D01*
G75*
G02*
X29492750Y-67581750I-250000J0D01*
G01*
X28742750Y-67581750D01*
G75*
G02*
X28492750Y-67331750I0J250000D01*
G01*
G37*
%TD.AperFunction*%
%TO.P,D7,1*%
%TO.N,/leftButtonSheet/column2*%
%TA.AperFunction,SMDPad,CuDef*%
G36*
G01*
X25692750Y-67331750D02*
X25692750Y-66081750D01*
G75*
G02*
X25942750Y-65831750I250000J0D01*
G01*
X26692750Y-65831750D01*
G75*
G02*
X26942750Y-66081750I0J-250000D01*
G01*
X26942750Y-67331750D01*
G75*
G02*
X26692750Y-67581750I-250000J0D01*
G01*
X25942750Y-67581750D01*
G75*
G02*
X25692750Y-67331750I0J250000D01*
G01*
G37*
%TD.AperFunction*%
%TD*%
%TO.P,D6,2*%
%TO.N,Net-(D6-Pad2)*%
%TA.AperFunction,SMDPad,CuDef*%
G36*
G01*
X28492750Y-48281750D02*
X28492750Y-47031750D01*
G75*
G02*
X28742750Y-46781750I250000J0D01*
G01*
X29492750Y-46781750D01*
G75*
G02*
X29742750Y-47031750I0J-250000D01*
G01*
X29742750Y-48281750D01*
G75*
G02*
X29492750Y-48531750I-250000J0D01*
G01*
X28742750Y-48531750D01*
G75*
G02*
X28492750Y-48281750I0J250000D01*
G01*
G37*
%TD.AperFunction*%
%TO.P,D6,1*%
%TO.N,/leftButtonSheet/column2*%
%TA.AperFunction,SMDPad,CuDef*%
G36*
G01*
X25692750Y-48281750D02*
X25692750Y-47031750D01*
G75*
G02*
X25942750Y-46781750I250000J0D01*
G01*
X26692750Y-46781750D01*
G75*
G02*
X26942750Y-47031750I0J-250000D01*
G01*
X26942750Y-48281750D01*
G75*
G02*
X26692750Y-48531750I-250000J0D01*
G01*
X25942750Y-48531750D01*
G75*
G02*
X25692750Y-48281750I0J250000D01*
G01*
G37*
%TD.AperFunction*%
%TD*%
%TO.P,D5,2*%
%TO.N,Net-(D5-Pad2)*%
%TA.AperFunction,SMDPad,CuDef*%
G36*
G01*
X4616750Y-124481750D02*
X4616750Y-123231750D01*
G75*
G02*
X4866750Y-122981750I250000J0D01*
G01*
X5616750Y-122981750D01*
G75*
G02*
X5866750Y-123231750I0J-250000D01*
G01*
X5866750Y-124481750D01*
G75*
G02*
X5616750Y-124731750I-250000J0D01*
G01*
X4866750Y-124731750D01*
G75*
G02*
X4616750Y-124481750I0J250000D01*
G01*
G37*
%TD.AperFunction*%
%TO.P,D5,1*%
%TO.N,/leftButtonSheet/column1*%
%TA.AperFunction,SMDPad,CuDef*%
G36*
G01*
X1816750Y-124481750D02*
X1816750Y-123231750D01*
G75*
G02*
X2066750Y-122981750I250000J0D01*
G01*
X2816750Y-122981750D01*
G75*
G02*
X3066750Y-123231750I0J-250000D01*
G01*
X3066750Y-124481750D01*
G75*
G02*
X2816750Y-124731750I-250000J0D01*
G01*
X2066750Y-124731750D01*
G75*
G02*
X1816750Y-124481750I0J250000D01*
G01*
G37*
%TD.AperFunction*%
%TD*%
%TO.P,D4,2*%
%TO.N,Net-(D4-Pad2)*%
%TA.AperFunction,SMDPad,CuDef*%
G36*
G01*
X4616750Y-105431750D02*
X4616750Y-104181750D01*
G75*
G02*
X4866750Y-103931750I250000J0D01*
G01*
X5616750Y-103931750D01*
G75*
G02*
X5866750Y-104181750I0J-250000D01*
G01*
X5866750Y-105431750D01*
G75*
G02*
X5616750Y-105681750I-250000J0D01*
G01*
X4866750Y-105681750D01*
G75*
G02*
X4616750Y-105431750I0J250000D01*
G01*
G37*
%TD.AperFunction*%
%TO.P,D4,1*%
%TO.N,/leftButtonSheet/column1*%
%TA.AperFunction,SMDPad,CuDef*%
G36*
G01*
X1816750Y-105431750D02*
X1816750Y-104181750D01*
G75*
G02*
X2066750Y-103931750I250000J0D01*
G01*
X2816750Y-103931750D01*
G75*
G02*
X3066750Y-104181750I0J-250000D01*
G01*
X3066750Y-105431750D01*
G75*
G02*
X2816750Y-105681750I-250000J0D01*
G01*
X2066750Y-105681750D01*
G75*
G02*
X1816750Y-105431750I0J250000D01*
G01*
G37*
%TD.AperFunction*%
%TD*%
%TO.P,D3,2*%
%TO.N,Net-(D3-Pad2)*%
%TA.AperFunction,SMDPad,CuDef*%
G36*
G01*
X4616750Y-86381750D02*
X4616750Y-85131750D01*
G75*
G02*
X4866750Y-84881750I250000J0D01*
G01*
X5616750Y-84881750D01*
G75*
G02*
X5866750Y-85131750I0J-250000D01*
G01*
X5866750Y-86381750D01*
G75*
G02*
X5616750Y-86631750I-250000J0D01*
G01*
X4866750Y-86631750D01*
G75*
G02*
X4616750Y-86381750I0J250000D01*
G01*
G37*
%TD.AperFunction*%
%TO.P,D3,1*%
%TO.N,/leftButtonSheet/column1*%
%TA.AperFunction,SMDPad,CuDef*%
G36*
G01*
X1816750Y-86381750D02*
X1816750Y-85131750D01*
G75*
G02*
X2066750Y-84881750I250000J0D01*
G01*
X2816750Y-84881750D01*
G75*
G02*
X3066750Y-85131750I0J-250000D01*
G01*
X3066750Y-86381750D01*
G75*
G02*
X2816750Y-86631750I-250000J0D01*
G01*
X2066750Y-86631750D01*
G75*
G02*
X1816750Y-86381750I0J250000D01*
G01*
G37*
%TD.AperFunction*%
%TD*%
%TO.P,D2,2*%
%TO.N,Net-(D2-Pad2)*%
%TA.AperFunction,SMDPad,CuDef*%
G36*
G01*
X4616750Y-67331750D02*
X4616750Y-66081750D01*
G75*
G02*
X4866750Y-65831750I250000J0D01*
G01*
X5616750Y-65831750D01*
G75*
G02*
X5866750Y-66081750I0J-250000D01*
G01*
X5866750Y-67331750D01*
G75*
G02*
X5616750Y-67581750I-250000J0D01*
G01*
X4866750Y-67581750D01*
G75*
G02*
X4616750Y-67331750I0J250000D01*
G01*
G37*
%TD.AperFunction*%
%TO.P,D2,1*%
%TO.N,/leftButtonSheet/column1*%
%TA.AperFunction,SMDPad,CuDef*%
G36*
G01*
X1816750Y-67331750D02*
X1816750Y-66081750D01*
G75*
G02*
X2066750Y-65831750I250000J0D01*
G01*
X2816750Y-65831750D01*
G75*
G02*
X3066750Y-66081750I0J-250000D01*
G01*
X3066750Y-67331750D01*
G75*
G02*
X2816750Y-67581750I-250000J0D01*
G01*
X2066750Y-67581750D01*
G75*
G02*
X1816750Y-67331750I0J250000D01*
G01*
G37*
%TD.AperFunction*%
%TD*%
%TO.P,D1,2*%
%TO.N,Net-(D1-Pad2)*%
%TA.AperFunction,SMDPad,CuDef*%
G36*
G01*
X4613750Y-50059750D02*
X4613750Y-48809750D01*
G75*
G02*
X4863750Y-48559750I250000J0D01*
G01*
X5613750Y-48559750D01*
G75*
G02*
X5863750Y-48809750I0J-250000D01*
G01*
X5863750Y-50059750D01*
G75*
G02*
X5613750Y-50309750I-250000J0D01*
G01*
X4863750Y-50309750D01*
G75*
G02*
X4613750Y-50059750I0J250000D01*
G01*
G37*
%TD.AperFunction*%
%TO.P,D1,1*%
%TO.N,/leftButtonSheet/column1*%
%TA.AperFunction,SMDPad,CuDef*%
G36*
G01*
X1813750Y-50059750D02*
X1813750Y-48809750D01*
G75*
G02*
X2063750Y-48559750I250000J0D01*
G01*
X2813750Y-48559750D01*
G75*
G02*
X3063750Y-48809750I0J-250000D01*
G01*
X3063750Y-50059750D01*
G75*
G02*
X2813750Y-50309750I-250000J0D01*
G01*
X2063750Y-50309750D01*
G75*
G02*
X1813750Y-50059750I0J250000D01*
G01*
G37*
%TD.AperFunction*%
%TD*%
D11*
%TO.P,TP1,1*%
%TO.N,GND*%
X125158500Y-35687000D03*
%TD*%
%TO.P,TP2,1*%
%TO.N,Net-(R1-Pad2)*%
X125158500Y-38989000D03*
%TD*%
%TO.P,TP3,1*%
%TO.N,Net-(C10-Pad2)*%
X170275250Y-38735000D03*
%TD*%
%TO.P,TP4,1*%
%TO.N,Net-(R5-Pad1)*%
X160115250Y-38862000D03*
%TD*%
%TO.P,D+,1*%
%TO.N,Net-(TP5-Pad1)*%
X158718250Y-77343000D03*
%TD*%
%TO.P,D-,1*%
%TO.N,Net-(TP6-Pad1)*%
X158718250Y-80264000D03*
%TD*%
D18*
%TO.N,VCC*%
X135572500Y-41656000D03*
X130111500Y-43688000D03*
X118427500Y-102616000D03*
X106743500Y-85471000D03*
X105242758Y-70254258D03*
X120332500Y-69596000D03*
X106616500Y-73914000D03*
%TO.N,GND*%
X100635568Y-81903068D03*
X119443500Y-56515000D03*
X111188500Y-56642000D03*
X84772500Y-69342000D03*
X104711500Y-67691000D03*
X106997500Y-66167000D03*
X106997500Y-63754000D03*
X101409500Y-76454000D03*
X101028500Y-86360000D03*
X88582500Y-73279000D03*
X89598500Y-70104000D03*
X74231500Y-75057000D03*
X74612500Y-78232000D03*
X113220500Y-78740000D03*
X116141500Y-78359000D03*
X124968000Y-43942000D03*
X126111000Y-46355000D03*
%TO.N,Net-(C8-Pad2)*%
X99187000Y-80835500D03*
X97980500Y-83947000D03*
%TO.N,Net-(C9-Pad1)*%
X188944250Y-70104000D03*
X191865250Y-66040000D03*
%TO.N,Net-(C10-Pad1)*%
X188321182Y-70981068D03*
X189198250Y-57199000D03*
X186404250Y-61468000D03*
%TO.N,/leftButtonSheet/column1*%
X25336500Y-72136000D03*
%TO.N,/leftButtonSheet/column2*%
X44132500Y-71120000D03*
%TO.N,/leftButtonSheet/column3*%
X63436500Y-69342000D03*
%TO.N,/leftButtonSheet/column4*%
X86423500Y-65151000D03*
X66484500Y-62611000D03*
X102425500Y-73914000D03*
%TO.N,/leftButtonSheet/column5*%
X85026500Y-61214000D03*
%TO.N,/leftButtonSheet/column6*%
X101954499Y-66511001D03*
X105092500Y-72517000D03*
%TO.N,/leftButtonSheet/column7*%
X121567750Y-74260250D03*
X121567750Y-78070250D03*
X109410500Y-68961000D03*
%TO.N,/rightButtonSheet/column1*%
X188944250Y-68326000D03*
%TO.N,/rightButtonSheet/column2*%
X190087250Y-63881000D03*
%TO.N,/rightButtonSheet/column3*%
X201561251Y-65741999D03*
%TO.N,/rightButtonSheet/column4*%
X199231250Y-67945000D03*
X217138250Y-69342000D03*
X212566250Y-70485000D03*
%TO.N,/rightButtonSheet/column5*%
X201482520Y-67021270D03*
X237585250Y-68580000D03*
X214471250Y-65659000D03*
%TO.N,/rightButtonSheet/column6*%
X200374250Y-68072000D03*
X256254250Y-72771000D03*
X214598250Y-68834000D03*
%TO.N,/rightButtonSheet/column7*%
X201390250Y-68072000D03*
X201390250Y-68072000D03*
X274867001Y-71571751D03*
X214598250Y-67310000D03*
%TO.N,Net-(J1-PadB5)*%
X131000500Y-36576000D03*
%TO.N,Net-(J1-PadA7)*%
X132524500Y-41275000D03*
X136969500Y-75819000D03*
X134519501Y-40549999D03*
%TO.N,Net-(J1-PadA6)*%
X139579490Y-71431010D03*
X133794500Y-41275000D03*
X132397500Y-42291000D03*
%TO.N,Net-(J1-PadA5)*%
X133667500Y-36703000D03*
%TO.N,Net-(J2-PadR)*%
X105346500Y-86868000D03*
X127063500Y-121793000D03*
%TO.N,Net-(R1-Pad2)*%
X96075500Y-73533000D03*
%TO.N,Net-(R2-Pad1)*%
X135445500Y-80137000D03*
X103759000Y-79883000D03*
%TO.N,Net-(R3-Pad1)*%
X102679500Y-79502000D03*
X133225000Y-75630500D03*
%TO.N,/leftButtonSheet/row1*%
X115989100Y-59410600D03*
X113423700Y-61976000D03*
%TO.N,/leftButtonSheet/row4*%
X94170500Y-78867000D03*
%TO.N,/leftButtonSheet/row5*%
X100838000Y-73342500D03*
%TO.N,/rightButtonSheet/row3*%
X196691250Y-75565000D03*
%TO.N,/rightButtonSheet/row4*%
X180181250Y-81534000D03*
X183102250Y-78613000D03*
%TO.N,Net-(C10-Pad2)*%
X175101250Y-81407000D03*
X175101250Y-75819000D03*
X196945250Y-78613000D03*
X194214750Y-70929500D03*
X192881250Y-72263000D03*
X193559522Y-78148272D03*
X165322250Y-42164000D03*
X162528250Y-44577000D03*
%TO.N,Net-(C12-Pad2)*%
X203168250Y-78486000D03*
X203549250Y-75184000D03*
X198342250Y-72898000D03*
X199929750Y-74485500D03*
X197350752Y-88900000D03*
X193677374Y-88992876D03*
X191817164Y-75867086D03*
X194024250Y-74295000D03*
%TD*%
D19*
%TO.N,VCC*%
X130106250Y-38613250D02*
X130111500Y-38618500D01*
X130106250Y-38176250D02*
X130106250Y-38613250D01*
X130111500Y-38618500D02*
X130111500Y-42672000D01*
X135006250Y-38914001D02*
X135572500Y-39480251D01*
X135006250Y-38176250D02*
X135006250Y-38914001D01*
X135572500Y-39480251D02*
X135572500Y-41656000D01*
X135572500Y-41656000D02*
X135572500Y-41656000D01*
X130111500Y-42672000D02*
X130111500Y-43688000D01*
X118427500Y-98449502D02*
X106743500Y-86765502D01*
X118427500Y-102616000D02*
X118427500Y-98449502D01*
X106743500Y-86765502D02*
X106743500Y-85471000D01*
X106743500Y-85471000D02*
X106743500Y-85471000D01*
X105642757Y-70654257D02*
X119274243Y-70654257D01*
X105242758Y-70254258D02*
X105642757Y-70654257D01*
X119274243Y-70654257D02*
X120332500Y-69596000D01*
X120332500Y-69596000D02*
X120332500Y-69596000D01*
X105242758Y-70254258D02*
X106616500Y-71628000D01*
X106616500Y-71628000D02*
X106616500Y-73914000D01*
X106616500Y-73914000D02*
X106616500Y-73914000D01*
%TO.N,GND*%
X111315500Y-56515000D02*
X111188500Y-56642000D01*
X119443500Y-56515000D02*
X111315500Y-56515000D01*
X104711500Y-67691000D02*
X105473500Y-67691000D01*
X105473500Y-67691000D02*
X106997500Y-66167000D01*
X106997500Y-66167000D02*
X106997500Y-66167000D01*
X111188500Y-56642000D02*
X111188500Y-59563000D01*
X111188500Y-59563000D02*
X106997500Y-63754000D01*
X106997500Y-63754000D02*
X106997500Y-63754000D01*
X129151250Y-38176250D02*
X128236250Y-37261250D01*
X129306250Y-38176250D02*
X129151250Y-38176250D01*
X135961250Y-38176250D02*
X136876250Y-37261250D01*
X135806250Y-38176250D02*
X135961250Y-38176250D01*
X100635568Y-77227932D02*
X101409500Y-76454000D01*
X100635568Y-81903068D02*
X100635568Y-77227932D01*
X101028500Y-82296000D02*
X101028500Y-86360000D01*
X100635568Y-81903068D02*
X101028500Y-82296000D01*
X88582500Y-73279000D02*
X88582500Y-71120000D01*
X88582500Y-71120000D02*
X89598500Y-70104000D01*
X89598500Y-70104000D02*
X89598500Y-70104000D01*
X74612500Y-75438000D02*
X74231500Y-75057000D01*
X74612500Y-78232000D02*
X74612500Y-75438000D01*
X115760500Y-78740000D02*
X116141500Y-78359000D01*
X113220500Y-78740000D02*
X115760500Y-78740000D01*
X126111000Y-45085000D02*
X124968000Y-43942000D01*
X126111000Y-46355000D02*
X126111000Y-45085000D01*
%TO.N,Net-(C8-Pad2)*%
X99187000Y-80835500D02*
X99187000Y-82740500D01*
X99187000Y-82740500D02*
X97980500Y-83947000D01*
X97980500Y-83947000D02*
X97980500Y-83947000D01*
%TO.N,Net-(C9-Pad1)*%
X192056001Y-68159751D02*
X192056001Y-66230751D01*
X190111752Y-70104000D02*
X192056001Y-68159751D01*
X188944250Y-70104000D02*
X190111752Y-70104000D01*
X192056001Y-66230751D02*
X191865250Y-66040000D01*
X191865250Y-66040000D02*
X191865250Y-66040000D01*
%TO.N,Net-(C10-Pad1)*%
X189198250Y-57199000D02*
X189198250Y-58674000D01*
X189198250Y-58674000D02*
X186404250Y-61468000D01*
X186404250Y-61468000D02*
X186404250Y-61468000D01*
%TO.N,Net-(D1-Pad2)*%
X7016750Y-47656750D02*
X9556750Y-47656750D01*
X5238750Y-49434750D02*
X7016750Y-47656750D01*
%TO.N,/leftButtonSheet/column1*%
X2438750Y-66703750D02*
X2441750Y-66706750D01*
X2438750Y-49434750D02*
X2438750Y-66703750D01*
X2441750Y-85756750D02*
X2441750Y-66706750D01*
X2441750Y-103819940D02*
X2441750Y-123856750D01*
X2441750Y-85756750D02*
X2441750Y-103819940D01*
X2441750Y-66706750D02*
X7871000Y-72136000D01*
X7871000Y-72136000D02*
X25336500Y-72136000D01*
X25336500Y-72136000D02*
X25590500Y-72136000D01*
%TO.N,Net-(D2-Pad2)*%
X9556750Y-66706750D02*
X5241750Y-66706750D01*
%TO.N,Net-(D3-Pad2)*%
X9556750Y-85756750D02*
X5241750Y-85756750D01*
%TO.N,Net-(D4-Pad2)*%
X9556750Y-104806750D02*
X5241750Y-104806750D01*
%TO.N,Net-(D5-Pad2)*%
X5241750Y-123856750D02*
X9556750Y-123856750D01*
%TO.N,Net-(D6-Pad2)*%
X33432750Y-47656750D02*
X29117750Y-47656750D01*
%TO.N,/leftButtonSheet/column2*%
X26317750Y-47656750D02*
X26317750Y-123856750D01*
X26317750Y-66706750D02*
X32382000Y-72771000D01*
X32382000Y-72771000D02*
X42481500Y-72771000D01*
X42481500Y-72771000D02*
X44132500Y-71120000D01*
X44132500Y-71120000D02*
X44132500Y-71120000D01*
%TO.N,Net-(D7-Pad2)*%
X33432750Y-66706750D02*
X29117750Y-66706750D01*
%TO.N,Net-(D8-Pad2)*%
X33432750Y-85756750D02*
X29117750Y-85756750D01*
%TO.N,Net-(D9-Pad2)*%
X33432750Y-104806750D02*
X29117750Y-104806750D01*
%TO.N,Net-(D10-Pad2)*%
X33432750Y-123856750D02*
X29117750Y-123856750D01*
%TO.N,Net-(D11-Pad2)*%
X52482750Y-44100750D02*
X48170750Y-44100750D01*
%TO.N,/leftButtonSheet/column3*%
X45367750Y-44103750D02*
X45370750Y-44100750D01*
X45367750Y-120300750D02*
X45367750Y-44103750D01*
X45364750Y-63150750D02*
X51556000Y-69342000D01*
X51556000Y-69342000D02*
X63436500Y-69342000D01*
X63436500Y-69342000D02*
X63436500Y-69342000D01*
%TO.N,Net-(D12-Pad2)*%
X52482750Y-63150750D02*
X48164750Y-63150750D01*
%TO.N,Net-(D13-Pad2)*%
X52482750Y-82200750D02*
X48167750Y-82200750D01*
%TO.N,Net-(D14-Pad2)*%
X52482750Y-101250750D02*
X48167750Y-101250750D01*
%TO.N,Net-(D15-Pad2)*%
X52482750Y-120300750D02*
X48167750Y-120300750D01*
%TO.N,Net-(D16-Pad2)*%
X71532750Y-41179750D02*
X67217750Y-41179750D01*
%TO.N,/leftButtonSheet/column4*%
X64417750Y-41179750D02*
X64417750Y-117506750D01*
X86423500Y-65151000D02*
X86423500Y-65151000D01*
X64417750Y-60544250D02*
X66484500Y-62611000D01*
X64417750Y-60356750D02*
X64417750Y-60544250D01*
X96423501Y-74258001D02*
X98996500Y-71685002D01*
X95530501Y-74258001D02*
X96423501Y-74258001D01*
X86423500Y-65151000D02*
X95530501Y-74258001D01*
X100762187Y-71685002D02*
X98996500Y-71685002D01*
X102425500Y-73348315D02*
X100762187Y-71685002D01*
X102425500Y-73914000D02*
X102425500Y-73348315D01*
%TO.N,Net-(D17-Pad2)*%
X67344750Y-60229750D02*
X67217750Y-60356750D01*
X71532750Y-60229750D02*
X67344750Y-60229750D01*
%TO.N,Net-(D18-Pad2)*%
X67344750Y-79279750D02*
X67217750Y-79406750D01*
X71532750Y-79279750D02*
X67344750Y-79279750D01*
%TO.N,Net-(D19-Pad2)*%
X67344750Y-98329750D02*
X67217750Y-98456750D01*
X71532750Y-98329750D02*
X67344750Y-98329750D01*
%TO.N,Net-(D20-Pad2)*%
X67344750Y-117379750D02*
X67217750Y-117506750D01*
X71532750Y-117379750D02*
X67344750Y-117379750D01*
%TO.N,Net-(D21-Pad2)*%
X90582750Y-44100750D02*
X86267750Y-44100750D01*
%TO.N,/leftButtonSheet/column5*%
X83467750Y-120300750D02*
X83467750Y-44100750D01*
X83467750Y-62772750D02*
X83467750Y-63150750D01*
X85026500Y-61214000D02*
X83467750Y-62772750D01*
%TO.N,Net-(D22-Pad2)*%
X86267750Y-63150750D02*
X90582750Y-63150750D01*
%TO.N,Net-(D23-Pad2)*%
X86394750Y-82200750D02*
X86267750Y-82073750D01*
X90582750Y-82200750D02*
X86394750Y-82200750D01*
%TO.N,Net-(D24-Pad2)*%
X90582750Y-101250750D02*
X86267750Y-101250750D01*
%TO.N,Net-(D25-Pad2)*%
X90582750Y-120300750D02*
X86267750Y-120300750D01*
%TO.N,Net-(D26-Pad2)*%
X105324100Y-45999400D02*
X105317750Y-46005750D01*
X109639100Y-45999400D02*
X105324100Y-45999400D01*
%TO.N,/leftButtonSheet/column6*%
X102517750Y-114460186D02*
X108801314Y-120743750D01*
X102517750Y-103028750D02*
X102517750Y-114460186D01*
X102517750Y-46005750D02*
X102517750Y-65055750D01*
X101954499Y-65619001D02*
X101954499Y-66511001D01*
X102517750Y-65055750D02*
X101954499Y-65619001D01*
X102517750Y-84074000D02*
X102517750Y-103028750D01*
X103822500Y-77343000D02*
X103822500Y-73787000D01*
X102388501Y-78776999D02*
X103822500Y-77343000D01*
X102331499Y-78776999D02*
X102388501Y-78776999D01*
X103822500Y-73787000D02*
X105092500Y-72517000D01*
X101954499Y-79153999D02*
X102331499Y-78776999D01*
X101954499Y-83510749D02*
X101954499Y-79153999D01*
X102517750Y-84074000D02*
X101954499Y-83510749D01*
%TO.N,Net-(D27-Pad2)*%
X109632750Y-65055750D02*
X105317750Y-65055750D01*
%TO.N,Net-(D28-Pad2)*%
X105349500Y-84105750D02*
X105317750Y-84074000D01*
X109632750Y-84105750D02*
X105349500Y-84105750D01*
%TO.N,Net-(D29-Pad2)*%
X109505750Y-103028750D02*
X109632750Y-103155750D01*
X105317750Y-103028750D02*
X109505750Y-103028750D01*
%TO.N,Net-(D30-Pad2)*%
X112915898Y-122143750D02*
X114969194Y-124197046D01*
X111226186Y-122143750D02*
X112915898Y-122143750D01*
%TO.N,Net-(D31-Pad2)*%
X128682750Y-47656750D02*
X124367750Y-47656750D01*
%TO.N,/leftButtonSheet/column7*%
X121567750Y-47656750D02*
X121567750Y-66706750D01*
X121567750Y-66706750D02*
X121567750Y-74260250D01*
X121567750Y-74260250D02*
X121567750Y-74260250D01*
X121567750Y-78070250D02*
X121567750Y-85756750D01*
X121567750Y-85756750D02*
X121567750Y-104806750D01*
X128200801Y-111439801D02*
X128200801Y-131756801D01*
X121567750Y-104806750D02*
X128200801Y-111439801D01*
X118353749Y-69920751D02*
X121567750Y-66706750D01*
X110370251Y-69920751D02*
X118353749Y-69920751D01*
X109410500Y-68961000D02*
X110370251Y-69920751D01*
%TO.N,Net-(D32-Pad2)*%
X128682750Y-66706750D02*
X124367750Y-66706750D01*
%TO.N,Net-(D33-Pad2)*%
X128682750Y-85756750D02*
X124367750Y-85756750D01*
%TO.N,Net-(D34-Pad2)*%
X128682750Y-104806750D02*
X124367750Y-104806750D01*
%TO.N,Net-(D35-Pad2)*%
X133064571Y-136620571D02*
X133064571Y-136783673D01*
X130180699Y-133736699D02*
X133064571Y-136620571D01*
%TO.N,Net-(D36-Pad2)*%
X162941000Y-47656750D02*
X174876000Y-47656750D01*
%TO.N,/rightButtonSheet/column1*%
X171169949Y-111312801D02*
X177676000Y-104806750D01*
X171169949Y-131756801D02*
X171169949Y-111312801D01*
X177676000Y-104806750D02*
X177676000Y-85756750D01*
X167865999Y-83900751D02*
X167865999Y-76516751D01*
X168606999Y-84641751D02*
X167865999Y-83900751D01*
X167865999Y-76516751D02*
X177676000Y-66706750D01*
X169975001Y-84641751D02*
X168606999Y-84641751D01*
X170060012Y-84556740D02*
X169975001Y-84641751D01*
X176475990Y-84556740D02*
X170060012Y-84556740D01*
X177676000Y-85756750D02*
X176475990Y-84556740D01*
X168606999Y-65591751D02*
X167865999Y-64850751D01*
X171485499Y-65591751D02*
X168606999Y-65591751D01*
X171570510Y-65506740D02*
X171485499Y-65591751D01*
X167865999Y-57466751D02*
X177676000Y-47656750D01*
X176475990Y-65506740D02*
X171570510Y-65506740D01*
X167865999Y-64850751D02*
X167865999Y-57466751D01*
X177676000Y-66706750D02*
X176475990Y-65506740D01*
X184684999Y-69920751D02*
X187349499Y-69920751D01*
X183475999Y-68711751D02*
X184684999Y-69920751D01*
X183475999Y-68445749D02*
X183475999Y-68711751D01*
X177962001Y-66420749D02*
X181450999Y-66420749D01*
X181450999Y-66420749D02*
X183475999Y-68445749D01*
X177676000Y-66706750D02*
X177962001Y-66420749D01*
X187349499Y-69920751D02*
X188944250Y-68326000D01*
X188944250Y-68326000D02*
X188944250Y-68326000D01*
%TO.N,Net-(D37-Pad2)*%
X162941000Y-66706750D02*
X174876000Y-66706750D01*
%TO.N,Net-(D38-Pad2)*%
X162941000Y-85756750D02*
X174876000Y-85756750D01*
%TO.N,Net-(D39-Pad2)*%
X162941000Y-104806750D02*
X174876000Y-104806750D01*
%TO.N,Net-(D40-Pad2)*%
X169153948Y-133736699D02*
X169190051Y-133736699D01*
X160736872Y-142153775D02*
X169153948Y-133736699D01*
%TO.N,Net-(D41-Pad2)*%
X193919650Y-45999400D02*
X193926000Y-46005750D01*
X181984650Y-45999400D02*
X193919650Y-45999400D01*
%TO.N,/rightButtonSheet/column2*%
X190627000Y-109254750D02*
X196726000Y-103155750D01*
X190627000Y-120554750D02*
X190627000Y-109254750D01*
X208816001Y-99394751D02*
X208816001Y-96195751D01*
X208075001Y-100135751D02*
X208816001Y-99394751D01*
X208816001Y-96195751D02*
X196726000Y-84105750D01*
X206706999Y-100135751D02*
X208075001Y-100135751D01*
X206396997Y-99825749D02*
X206706999Y-100135751D01*
X200056001Y-99825749D02*
X206396997Y-99825749D01*
X196726000Y-103155750D02*
X200056001Y-99825749D01*
X208075001Y-81085751D02*
X208816001Y-80344751D01*
X206706999Y-81085751D02*
X208075001Y-81085751D01*
X205965999Y-80344751D02*
X206706999Y-81085751D01*
X200486999Y-80344751D02*
X205965999Y-80344751D01*
X196726000Y-84105750D02*
X200486999Y-80344751D01*
X201725001Y-61725749D02*
X200056001Y-61725749D01*
X202035003Y-62035751D02*
X201725001Y-61725749D01*
X208075001Y-62035751D02*
X202035003Y-62035751D01*
X200056001Y-61725749D02*
X196726000Y-65055750D01*
X208816001Y-61294751D02*
X208075001Y-62035751D01*
X208816001Y-58095751D02*
X208816001Y-61294751D01*
X196726000Y-46005750D02*
X208816001Y-58095751D01*
X195151251Y-63481001D02*
X196726000Y-65055750D01*
X190487249Y-63481001D02*
X195151251Y-63481001D01*
X190087250Y-63881000D02*
X190487249Y-63481001D01*
X196726000Y-66886748D02*
X196726000Y-65055750D01*
X208816001Y-78976749D02*
X196726000Y-66886748D01*
X208816001Y-80344751D02*
X208816001Y-78976749D01*
%TO.N,Net-(D42-Pad2)*%
X181991000Y-65055750D02*
X193926000Y-65055750D01*
%TO.N,Net-(D43-Pad2)*%
X181991000Y-84105750D02*
X193926000Y-84105750D01*
%TO.N,Net-(D44-Pad2)*%
X181991000Y-103155750D02*
X193926000Y-103155750D01*
%TO.N,Net-(D45-Pad2)*%
X185237783Y-121954750D02*
X188202128Y-121954750D01*
X179231078Y-127961455D02*
X185237783Y-121954750D01*
X177675444Y-127961455D02*
X179231078Y-127961455D01*
%TO.N,Net-(D46-Pad2)*%
X201041000Y-44100750D02*
X212976000Y-44100750D01*
%TO.N,/rightButtonSheet/column3*%
X215776000Y-83125748D02*
X215776000Y-44100750D01*
X215776000Y-120300750D02*
X215776000Y-83125748D01*
X214639490Y-64350760D02*
X215839500Y-63150750D01*
X212426320Y-64350760D02*
X214639490Y-64350760D01*
X211441309Y-63365749D02*
X212426320Y-64350760D01*
X203734999Y-63365749D02*
X211441309Y-63365749D01*
X201561251Y-65539497D02*
X203734999Y-63365749D01*
X201561251Y-65741999D02*
X201561251Y-65539497D01*
%TO.N,Net-(D47-Pad2)*%
X212374511Y-62485761D02*
X213039500Y-63150750D01*
X201705989Y-62485761D02*
X212374511Y-62485761D01*
X201041000Y-63150750D02*
X201705989Y-62485761D01*
%TO.N,Net-(D48-Pad2)*%
X201041000Y-82200750D02*
X212976000Y-82200750D01*
%TO.N,Net-(D49-Pad2)*%
X201041000Y-101250750D02*
X212976000Y-101250750D01*
%TO.N,Net-(D50-Pad2)*%
X201041000Y-120300750D02*
X212976000Y-120300750D01*
%TO.N,Net-(D51-Pad2)*%
X220091000Y-41179750D02*
X232023000Y-41179750D01*
%TO.N,/rightButtonSheet/column4*%
X234823000Y-117376750D02*
X234826000Y-117379750D01*
X234823000Y-41179750D02*
X234823000Y-117376750D01*
X199231250Y-68510685D02*
X201205565Y-70485000D01*
X199231250Y-67945000D02*
X199231250Y-68510685D01*
X201205565Y-70485000D02*
X212566250Y-70485000D01*
X234886500Y-79279750D02*
X234886500Y-75152250D01*
X234886500Y-75152250D02*
X229076250Y-69342000D01*
X229076250Y-69342000D02*
X217138250Y-69342000D01*
X217138250Y-69342000D02*
X217138250Y-69342000D01*
X212566250Y-70485000D02*
X212566250Y-70485000D01*
%TO.N,Net-(D52-Pad2)*%
X220091000Y-60229750D02*
X232026000Y-60229750D01*
%TO.N,Net-(D53-Pad2)*%
X220091000Y-79279750D02*
X232086500Y-79279750D01*
%TO.N,Net-(D54-Pad2)*%
X220091000Y-98329750D02*
X232026000Y-98329750D01*
%TO.N,Net-(D55-Pad2)*%
X220091000Y-117379750D02*
X232026000Y-117379750D01*
%TO.N,Net-(D56-Pad2)*%
X239141000Y-44100750D02*
X251076000Y-44100750D01*
%TO.N,/rightButtonSheet/column5*%
X253876000Y-120297750D02*
X253873000Y-120300750D01*
X253876000Y-44100750D02*
X253876000Y-120297750D01*
X202477001Y-68015751D02*
X211987499Y-68015751D01*
X201482520Y-67021270D02*
X202477001Y-68015751D01*
X211987499Y-68015751D02*
X213709250Y-66294000D01*
X253876000Y-63150750D02*
X248446750Y-68580000D01*
X248446750Y-68580000D02*
X242665250Y-68580000D01*
X242665250Y-68580000D02*
X237585250Y-68580000D01*
X237585250Y-68580000D02*
X237585250Y-68580000D01*
X213836250Y-66294000D02*
X214471250Y-65659000D01*
X213709250Y-66294000D02*
X213836250Y-66294000D01*
%TO.N,Net-(D57-Pad2)*%
X239141000Y-63150750D02*
X251076000Y-63150750D01*
%TO.N,Net-(D58-Pad2)*%
X239141000Y-82200750D02*
X251076000Y-82200750D01*
%TO.N,Net-(D59-Pad2)*%
X239141000Y-101250750D02*
X251076000Y-101250750D01*
%TO.N,Net-(D60-Pad2)*%
X239141000Y-120300750D02*
X251073000Y-120300750D01*
%TO.N,Net-(D61-Pad2)*%
X258191000Y-47656750D02*
X270126000Y-47656750D01*
%TO.N,/rightButtonSheet/column6*%
X272926000Y-47656750D02*
X272926000Y-123856750D01*
X200374250Y-68637685D02*
X201459565Y-69723000D01*
X200374250Y-68072000D02*
X200374250Y-68637685D01*
X272926000Y-66706750D02*
X266861750Y-72771000D01*
X266861750Y-72771000D02*
X256127250Y-72771000D01*
X256127250Y-72771000D02*
X256254250Y-72771000D01*
X256254250Y-72771000D02*
X256254250Y-72771000D01*
X201459565Y-69723000D02*
X213709250Y-69723000D01*
X213709250Y-69723000D02*
X214598250Y-68834000D01*
X214598250Y-68834000D02*
X214598250Y-68834000D01*
%TO.N,Net-(D62-Pad2)*%
X258191000Y-66706750D02*
X270126000Y-66706750D01*
%TO.N,Net-(D63-Pad2)*%
X258191000Y-85756750D02*
X270123000Y-85756750D01*
%TO.N,Net-(D64-Pad2)*%
X258191000Y-104806750D02*
X270126000Y-104806750D01*
%TO.N,Net-(D65-Pad2)*%
X258191000Y-123856750D02*
X270126000Y-123856750D01*
%TO.N,Net-(D66-Pad2)*%
X293144750Y-47656750D02*
X294129000Y-48641000D01*
X282067000Y-47656750D02*
X293144750Y-47656750D01*
%TO.N,/rightButtonSheet/column7*%
X296929000Y-48641000D02*
X296929000Y-123856750D01*
X201390250Y-68072000D02*
X202152250Y-68834000D01*
X292063999Y-71571751D02*
X274867001Y-71571751D01*
X296929000Y-66706750D02*
X292063999Y-71571751D01*
X274867001Y-71571751D02*
X274867001Y-71571751D01*
X202152250Y-68834000D02*
X213074250Y-68834000D01*
X213074250Y-68834000D02*
X214598250Y-67310000D01*
X214598250Y-67310000D02*
X214598250Y-67310000D01*
%TO.N,Net-(D67-Pad2)*%
X294129000Y-66706750D02*
X282067000Y-66706750D01*
%TO.N,Net-(D68-Pad2)*%
X294129000Y-85756750D02*
X282067000Y-85756750D01*
%TO.N,Net-(D69-Pad2)*%
X282067000Y-104806750D02*
X294129000Y-104806750D01*
%TO.N,Net-(D70-Pad2)*%
X282067000Y-123856750D02*
X294129000Y-123856750D01*
%TO.N,Net-(J1-PadB5)*%
X130806250Y-38176250D02*
X130806250Y-36770250D01*
X130806250Y-36770250D02*
X131000500Y-36576000D01*
X131000500Y-36576000D02*
X131000500Y-36576000D01*
%TO.N,Net-(J1-PadA7)*%
X133306250Y-38754750D02*
X133286500Y-38774500D01*
X133306250Y-38176250D02*
X133306250Y-38754750D01*
X132524500Y-41275000D02*
X132524500Y-41275000D01*
X138747751Y-74040749D02*
X136969500Y-75819000D01*
X138747751Y-46722749D02*
X138747751Y-74040749D01*
X135716751Y-43691749D02*
X138747751Y-46722749D01*
X134941249Y-43691749D02*
X135716751Y-43691749D01*
X132524500Y-41275000D02*
X134941249Y-43691749D01*
X132306250Y-41056750D02*
X132524500Y-41275000D01*
X132524500Y-40513000D02*
X132524500Y-41275000D01*
X132761589Y-40275911D02*
X132524500Y-40513000D01*
X132761589Y-39879409D02*
X132761589Y-40275911D01*
X132306250Y-39424070D02*
X132761589Y-39879409D01*
X132306250Y-38176250D02*
X132306250Y-39424070D01*
X134683500Y-40386000D02*
X134519501Y-40549999D01*
X133666998Y-39497000D02*
X133306250Y-39136252D01*
X134810500Y-39497000D02*
X133666998Y-39497000D01*
X134937500Y-39624000D02*
X134810500Y-39497000D01*
X134937500Y-40132000D02*
X134937500Y-39624000D01*
X133306250Y-39136252D02*
X133306250Y-38176250D01*
X134519501Y-40549999D02*
X134937500Y-40132000D01*
%TO.N,Net-(J1-PadA6)*%
X133794500Y-41275000D02*
X133667500Y-41148000D01*
X139579490Y-50361990D02*
X139579490Y-71431010D01*
X139255500Y-50038000D02*
X139579490Y-50361990D01*
X139255500Y-49276000D02*
X139255500Y-50038000D01*
X139579490Y-48952010D02*
X139255500Y-49276000D01*
X139579490Y-48837990D02*
X139579490Y-48952010D01*
X139255500Y-48514000D02*
X139579490Y-48837990D01*
X139255500Y-48133000D02*
X139255500Y-48514000D01*
X139509500Y-47625000D02*
X139509500Y-47879000D01*
X139255500Y-47371000D02*
X139509500Y-47625000D01*
X139255500Y-46990000D02*
X139255500Y-47371000D01*
X139509500Y-47879000D02*
X139255500Y-48133000D01*
X139579490Y-46666010D02*
X139255500Y-46990000D01*
X139579490Y-46551990D02*
X139579490Y-46666010D01*
X139255500Y-46228000D02*
X139579490Y-46551990D01*
X138889412Y-46228000D02*
X139255500Y-46228000D01*
X136207500Y-43546088D02*
X136349412Y-43688000D01*
X135572500Y-42926000D02*
X135699500Y-43053000D01*
X136080500Y-43053000D02*
X136207500Y-43180000D01*
X134810500Y-42291000D02*
X134937500Y-42418000D01*
X135699500Y-43053000D02*
X136080500Y-43053000D01*
X135572500Y-42545000D02*
X135572500Y-42926000D01*
X135445500Y-42418000D02*
X135572500Y-42545000D01*
X136715500Y-43688000D02*
X136842500Y-43815000D01*
X134810500Y-41783000D02*
X134810500Y-42291000D01*
X136207500Y-43180000D02*
X136207500Y-43546088D01*
X134937500Y-42418000D02*
X135445500Y-42418000D01*
X134683500Y-41656000D02*
X134810500Y-41783000D01*
X134175500Y-41656000D02*
X134683500Y-41656000D01*
X138246956Y-45585544D02*
X138613044Y-45585544D01*
X133794500Y-41275000D02*
X134175500Y-41656000D01*
X136349412Y-43688000D02*
X136715500Y-43688000D01*
X136842500Y-43815000D02*
X136842500Y-44181088D01*
X136842500Y-44181088D02*
X136984412Y-44323000D01*
X137350500Y-44323000D02*
X137477500Y-44450000D01*
X137477500Y-44450000D02*
X137477500Y-44816088D01*
X136984412Y-44323000D02*
X137350500Y-44323000D01*
X137477500Y-44816088D02*
X137619412Y-44958000D01*
X138613044Y-45585544D02*
X138747500Y-45720000D01*
X138112500Y-45085000D02*
X138112500Y-45451088D01*
X137619412Y-44958000D02*
X137985500Y-44958000D01*
X137985500Y-44958000D02*
X138112500Y-45085000D01*
X138112500Y-45451088D02*
X138246956Y-45585544D01*
X138747500Y-45720000D02*
X138747500Y-46086088D01*
X138747500Y-46086088D02*
X138889412Y-46228000D01*
X133597502Y-41275000D02*
X133794500Y-41275000D01*
X131806250Y-38183250D02*
X131781251Y-38208249D01*
X131806250Y-38176250D02*
X131806250Y-38183250D01*
X132806250Y-39287660D02*
X133211599Y-39693009D01*
X132806250Y-38176250D02*
X132806250Y-39287660D01*
X133211599Y-40692099D02*
X133794500Y-41275000D01*
X133211599Y-39693009D02*
X133211599Y-40692099D01*
X131799499Y-39143003D02*
X131799499Y-41692999D01*
X131806250Y-39136252D02*
X131799499Y-39143003D01*
X131806250Y-38176250D02*
X131806250Y-39136252D01*
X131799499Y-41692999D02*
X132397500Y-42291000D01*
X132397500Y-42291000D02*
X132397500Y-42291000D01*
%TO.N,Net-(J1-PadA5)*%
X133806250Y-38176250D02*
X133806250Y-36841750D01*
X133806250Y-36841750D02*
X133667500Y-36703000D01*
X133667500Y-36703000D02*
X133667500Y-36703000D01*
%TO.N,Net-(J2-PadR)*%
X105346500Y-94258502D02*
X127063500Y-115975502D01*
X105346500Y-86868000D02*
X105346500Y-94258502D01*
X127063500Y-115975502D02*
X127063500Y-121793000D01*
X127063500Y-121793000D02*
X127063500Y-121793000D01*
%TO.N,Net-(R1-Pad2)*%
X92067749Y-69525249D02*
X92067749Y-52306749D01*
X96075500Y-73533000D02*
X92067749Y-69525249D01*
X96717751Y-47656747D02*
X92067749Y-52306749D01*
X125158500Y-38989000D02*
X125158500Y-40894000D01*
X114995097Y-44574399D02*
X99800099Y-44574399D01*
X115305099Y-44884401D02*
X114995097Y-44574399D01*
X121168099Y-44884401D02*
X115305099Y-44884401D01*
X99800099Y-44574399D02*
X96717751Y-47656747D01*
X125158500Y-40894000D02*
X121168099Y-44884401D01*
%TO.N,Net-(R2-Pad1)*%
X135445500Y-80137000D02*
X135445500Y-80137000D01*
X128079500Y-76708000D02*
X106743500Y-76708000D01*
X131508500Y-80137000D02*
X128079500Y-76708000D01*
X135445500Y-80137000D02*
X131508500Y-80137000D01*
X106743500Y-76898500D02*
X103759000Y-79883000D01*
X106743500Y-76708000D02*
X106743500Y-76898500D01*
%TO.N,Net-(R3-Pad1)*%
X102679500Y-79502000D02*
X106489500Y-75692000D01*
X106551000Y-75630500D02*
X106489500Y-75692000D01*
X133225000Y-75630500D02*
X106551000Y-75630500D01*
%TO.N,/leftButtonSheet/row1*%
X115989100Y-59410600D02*
X113423700Y-61976000D01*
X113423700Y-61976000D02*
X113423700Y-61976000D01*
%TO.N,/leftButtonSheet/row4*%
X92067749Y-93845749D02*
X96932750Y-98710750D01*
X92067749Y-79893733D02*
X92067749Y-93845749D01*
X93094482Y-78867000D02*
X92067749Y-79893733D01*
X94170500Y-78867000D02*
X93094482Y-78867000D01*
%TO.N,/leftButtonSheet/row5*%
X100647751Y-114045749D02*
X96932750Y-117760750D01*
X100647751Y-87654753D02*
X100647751Y-114045749D01*
X95167501Y-82174503D02*
X100647751Y-87654753D01*
X95167501Y-78314275D02*
X95167501Y-82174503D01*
X100139276Y-73342500D02*
X95167501Y-78314275D01*
X100838000Y-73342500D02*
X100139276Y-73342500D01*
%TO.N,/rightButtonSheet/row1*%
X170948350Y-43459400D02*
X188334650Y-43459400D01*
X169291000Y-45116750D02*
X170948350Y-43459400D01*
X190233300Y-41560750D02*
X207391000Y-41560750D01*
X188334650Y-43459400D02*
X190233300Y-41560750D01*
%TO.N,/rightButtonSheet/row2*%
X170942000Y-62515750D02*
X188341000Y-62515750D01*
X169291000Y-64166750D02*
X170942000Y-62515750D01*
X190246000Y-60610750D02*
X207391000Y-60610750D01*
X188341000Y-62515750D02*
X190246000Y-60610750D01*
%TO.N,/rightButtonSheet/row3*%
X187226001Y-82680749D02*
X188341000Y-81565750D01*
X169827001Y-82680749D02*
X187226001Y-82680749D01*
X169291000Y-83216750D02*
X169827001Y-82680749D01*
X207391000Y-79660750D02*
X200787000Y-79660750D01*
X200787000Y-79660750D02*
X196691250Y-75565000D01*
X196691250Y-75565000D02*
X196691250Y-75565000D01*
X194341750Y-75565000D02*
X188341000Y-81565750D01*
X196691250Y-75565000D02*
X194341750Y-75565000D01*
%TO.N,/rightButtonSheet/row4*%
X181671759Y-80043491D02*
X180181250Y-81534000D01*
X180181250Y-81534000D02*
X180181250Y-81534000D01*
X190246000Y-98710750D02*
X188341000Y-100615750D01*
X207391000Y-98710750D02*
X190246000Y-98710750D01*
X181671759Y-80043491D02*
X183102250Y-78613000D01*
X183102250Y-78613000D02*
X183102250Y-78613000D01*
%TO.N,Net-(C10-Pad2)*%
X175101250Y-81407000D02*
X175101250Y-75819000D01*
X175101250Y-75819000D02*
X175101250Y-75819000D01*
X196945250Y-78613000D02*
X196945250Y-78613000D01*
X194214750Y-70929500D02*
X192881250Y-72263000D01*
X192881250Y-72263000D02*
X192881250Y-72263000D01*
X189325250Y-75819000D02*
X192881250Y-72263000D01*
X175101250Y-75819000D02*
X189325250Y-75819000D01*
X194024250Y-78613000D02*
X193559522Y-78148272D01*
X196945250Y-78613000D02*
X194024250Y-78613000D01*
X162909250Y-44577000D02*
X162528250Y-44577000D01*
X165322250Y-42164000D02*
X162909250Y-44577000D01*
%TO.N,Net-(C12-Pad2)*%
X160868409Y-123976135D02*
X159861250Y-124983294D01*
X160868409Y-119271409D02*
X160868409Y-123976135D01*
X203168250Y-78486000D02*
X203168250Y-75565000D01*
X203168250Y-75565000D02*
X203549250Y-75184000D01*
X203549250Y-75184000D02*
X203549250Y-75184000D01*
X198342250Y-72898000D02*
X199929750Y-74485500D01*
X199929750Y-74485500D02*
X199993250Y-74549000D01*
X193770250Y-88900000D02*
X193677374Y-88992876D01*
X197350752Y-88900000D02*
X193770250Y-88900000D01*
X193389250Y-74295000D02*
X191817164Y-75867086D01*
X194024250Y-74295000D02*
X193389250Y-74295000D01*
%TD*%
M02*
