M48
; DRILL file {KiCad (5.1.10)-1} date 09/02/21 18:22:40
; FORMAT={-:-/ absolute / inch / decimal}
; #@! TF.CreationDate,2021-09-02T18:22:40+02:00
; #@! TF.GenerationSoftware,Kicad,Pcbnew,(5.1.10)-1
; #@! TF.FileFunction,NonPlated,1,2,NPTH
FMAT,2
INCH
T1C0.0256
T2C0.0394
T3C0.0669
T4C0.0866
T5C0.1575
%
G90
G05
T1
X5.105Y-1.4461
X5.3325Y-1.4461
T2
X5.3135Y-4.7402
X5.3477Y-4.934
X6.4322Y-4.929
X6.4664Y-4.7352
T3
X0.3262Y-1.9763
X0.3262Y-2.7262
X0.3262Y-3.4762
X0.3262Y-4.2263
X0.3262Y-4.9763
X0.7262Y-1.9763
X0.7262Y-2.7262
X0.7262Y-3.4762
X0.7262Y-4.2263
X0.7262Y-4.9763
X1.2662Y-1.9763
X1.2662Y-2.7262
X1.2662Y-3.4762
X1.2662Y-4.2263
X1.2662Y-4.9763
X1.6663Y-1.9763
X1.6663Y-2.7262
X1.6663Y-3.4762
X1.6663Y-4.2263
X1.6663Y-4.9763
X2.0162Y-1.8362
X2.0162Y-2.5863
X2.0162Y-3.3362
X2.0162Y-4.0862
X2.0162Y-4.8362
X2.4162Y-1.8362
X2.4162Y-2.5863
X2.4162Y-3.3362
X2.4162Y-4.0862
X2.4162Y-4.8362
X2.7662Y-1.7212
X2.7662Y-2.4712
X2.7662Y-3.2212
X2.7662Y-3.9712
X2.7662Y-4.7212
X3.1662Y-1.7212
X3.1662Y-2.4712
X3.1662Y-3.2212
X3.1662Y-3.9712
X3.1662Y-4.7212
X3.5162Y-1.8362
X3.5162Y-2.5863
X3.5162Y-3.3362
X3.5162Y-4.0862
X3.5162Y-4.8362
X3.9162Y-1.8362
X3.9162Y-2.5863
X3.9162Y-3.3362
X3.9162Y-4.0862
X3.9162Y-4.8362
X4.2663Y-2.6612
X4.2663Y-3.4112
X4.2663Y-4.1612
X4.2665Y-1.911
X4.433Y-4.9512
X4.6662Y-2.6612
X4.6662Y-3.4112
X4.6662Y-4.1612
X4.6665Y-1.911
X4.7795Y-5.1513
X5.0163Y-1.9763
X5.0163Y-2.7262
X5.0163Y-3.4762
X5.0163Y-4.2263
X5.1327Y-5.4205
X5.4155Y-5.7034
X5.4162Y-1.9763
X5.4162Y-2.7262
X5.4162Y-3.4762
X5.4162Y-4.2263
X6.3636Y-5.7027
X6.365Y-1.9763
X6.365Y-2.7262
X6.365Y-3.4762
X6.365Y-4.2263
X6.6464Y-5.4198
X6.765Y-1.9763
X6.765Y-2.7262
X6.765Y-3.4762
X6.765Y-4.2263
X7.0018Y-5.1495
X7.1147Y-1.911
X7.115Y-2.6612
X7.115Y-3.4112
X7.115Y-4.1612
X7.3482Y-4.9495
X7.5148Y-1.911
X7.515Y-2.6612
X7.515Y-3.4112
X7.515Y-4.1612
X7.865Y-1.8362
X7.865Y-2.5863
X7.865Y-3.3362
X7.865Y-4.0862
X7.865Y-4.8362
X8.265Y-1.8362
X8.265Y-2.5863
X8.265Y-3.3362
X8.265Y-4.0862
X8.265Y-4.8362
X8.615Y-1.7212
X8.615Y-2.4712
X8.615Y-3.2212
X8.615Y-3.9712
X8.615Y-4.7212
X9.015Y-1.7212
X9.015Y-2.4712
X9.015Y-3.2212
X9.015Y-3.9712
X9.015Y-4.7212
X9.365Y-1.8362
X9.365Y-2.5863
X9.365Y-3.3362
X9.365Y-4.0862
X9.365Y-4.8362
X9.765Y-1.8362
X9.765Y-2.5863
X9.765Y-3.3362
X9.765Y-4.0862
X9.765Y-4.8362
X10.115Y-1.9763
X10.115Y-2.7262
X10.115Y-3.4762
X10.115Y-4.2263
X10.115Y-4.9763
X10.515Y-1.9763
X10.515Y-2.7262
X10.515Y-3.4762
X10.515Y-4.2263
X10.515Y-4.9763
X11.055Y-1.9763
X11.055Y-2.7262
X11.055Y-3.4762
X11.055Y-4.2263
X11.055Y-4.9763
X11.455Y-1.9763
X11.455Y-2.7262
X11.455Y-3.4762
X11.455Y-4.2263
X11.455Y-4.9763
T4
X0.0938Y-1.7188
X0.0938Y-5.2188
X5.2775Y-5.95
X5.435Y-5.075
X5.5075Y-1.685
X6.2737Y-1.685
X6.345Y-5.07
X6.5038Y-5.95
X11.6875Y-1.7188
X11.6875Y-5.2188
T5
X0.5262Y-1.9763
X0.5262Y-2.7262
X0.5262Y-3.4762
X0.5262Y-4.2263
X0.5262Y-4.9763
X1.4663Y-1.9763
X1.4663Y-2.7262
X1.4663Y-3.4762
X1.4663Y-4.2263
X1.4663Y-4.9763
X2.2163Y-1.8362
X2.2163Y-2.5863
X2.2163Y-3.3362
X2.2163Y-4.0862
X2.2163Y-4.8362
X2.9663Y-1.7212
X2.9663Y-2.4712
X2.9663Y-3.2212
X2.9663Y-3.9712
X2.9663Y-4.7212
X3.7163Y-1.8362
X3.7163Y-2.5863
X3.7163Y-3.3362
X3.7163Y-4.0862
X3.7163Y-4.8362
X4.4662Y-2.6612
X4.4662Y-3.4112
X4.4662Y-4.1612
X4.4665Y-1.911
X4.6063Y-5.0512
X5.2162Y-1.9763
X5.2162Y-2.7262
X5.2162Y-3.4762
X5.2162Y-4.2263
X5.2741Y-5.562
X6.505Y-5.5613
X6.565Y-1.9763
X6.565Y-2.7262
X6.565Y-3.4762
X6.565Y-4.2263
X7.175Y-5.0495
X7.3148Y-1.911
X7.315Y-2.6612
X7.315Y-3.4112
X7.315Y-4.1612
X8.065Y-1.8362
X8.065Y-2.5863
X8.065Y-3.3362
X8.065Y-4.0862
X8.065Y-4.8362
X8.815Y-1.7212
X8.815Y-2.4712
X8.815Y-3.2212
X8.815Y-3.9712
X8.815Y-4.7212
X9.565Y-1.8362
X9.565Y-2.5863
X9.565Y-3.3362
X9.565Y-4.0862
X9.565Y-4.8362
X10.315Y-1.9763
X10.315Y-2.7262
X10.315Y-3.4762
X10.315Y-4.2263
X10.315Y-4.9763
X11.255Y-1.9763
X11.255Y-2.7262
X11.255Y-3.4762
X11.255Y-4.2263
X11.255Y-4.9763
T0
M30
