M48
; DRILL file {KiCad (5.1.10)-1} date 09/03/21 09:57:25
; FORMAT={-:-/ absolute / inch / decimal}
; #@! TF.CreationDate,2021-09-03T09:57:25+02:00
; #@! TF.GenerationSoftware,Kicad,Pcbnew,(5.1.10)-1
; #@! TF.FileFunction,NonPlated,1,2,NPTH
FMAT,2
INCH
T1C0.0256
T2C0.0394
T3C0.0669
T4C0.0866
T5C0.1575
%
G90
G05
T1
X5.1155Y-1.4457
X5.343Y-1.4457
T2
X5.324Y-4.7398
X5.3582Y-4.9336
X6.4427Y-4.9286
X6.4769Y-4.7348
T3
X0.3368Y-1.9759
X0.3368Y-2.7259
X0.3368Y-3.4759
X0.3368Y-4.2259
X0.3368Y-4.9759
X0.7368Y-1.9759
X0.7368Y-2.7259
X0.7368Y-3.4759
X0.7368Y-4.2259
X0.7368Y-4.9759
X1.2768Y-1.9759
X1.2768Y-2.7259
X1.2768Y-3.4759
X1.2768Y-4.2259
X1.2768Y-4.9759
X1.6768Y-1.9759
X1.6768Y-2.7259
X1.6768Y-3.4759
X1.6768Y-4.2259
X1.6768Y-4.9759
X2.0268Y-1.8359
X2.0268Y-2.5859
X2.0268Y-3.3359
X2.0268Y-4.0859
X2.0268Y-4.8359
X2.4268Y-1.8359
X2.4268Y-2.5859
X2.4268Y-3.3359
X2.4268Y-4.0859
X2.4268Y-4.8359
X2.7768Y-1.7209
X2.7768Y-2.4709
X2.7768Y-3.2209
X2.7768Y-3.9709
X2.7768Y-4.7209
X3.1768Y-1.7209
X3.1768Y-2.4709
X3.1768Y-3.2209
X3.1768Y-3.9709
X3.1768Y-4.7209
X3.5268Y-1.8359
X3.5268Y-2.5859
X3.5268Y-3.3359
X3.5268Y-4.0859
X3.5268Y-4.8359
X3.9268Y-1.8359
X3.9268Y-2.5859
X3.9268Y-3.3359
X3.9268Y-4.0859
X3.9268Y-4.8359
X4.2768Y-2.6609
X4.2768Y-3.4109
X4.2768Y-4.1609
X4.277Y-1.9106
X4.4436Y-4.9509
X4.6768Y-2.6609
X4.6768Y-3.4109
X4.6768Y-4.1609
X4.677Y-1.9106
X4.79Y-5.1509
X5.0268Y-1.9759
X5.0268Y-2.7259
X5.0268Y-3.4759
X5.0268Y-4.2259
X5.1432Y-5.4201
X5.4261Y-5.703
X5.4268Y-1.9759
X5.4268Y-2.7259
X5.4268Y-3.4759
X5.4268Y-4.2259
X6.3741Y-5.7023
X6.3755Y-1.9759
X6.3755Y-2.7259
X6.3755Y-3.4759
X6.3755Y-4.2259
X6.6569Y-5.4194
X6.7755Y-1.9759
X6.7755Y-2.7259
X6.7755Y-3.4759
X6.7755Y-4.2259
X7.0123Y-5.1491
X7.1253Y-1.9106
X7.1255Y-2.6609
X7.1255Y-3.4109
X7.1255Y-4.1609
X7.3587Y-4.9491
X7.5253Y-1.9106
X7.5255Y-2.6609
X7.5255Y-3.4109
X7.5255Y-4.1609
X7.8755Y-1.8359
X7.8755Y-2.5859
X7.8755Y-3.3359
X7.8755Y-4.0859
X7.8755Y-4.8359
X8.2755Y-1.8359
X8.2755Y-2.5859
X8.2755Y-3.3359
X8.2755Y-4.0859
X8.2755Y-4.8359
X8.6255Y-1.7209
X8.6255Y-2.4709
X8.6255Y-3.2209
X8.6255Y-3.9709
X8.6255Y-4.7209
X9.0255Y-1.7209
X9.0255Y-2.4709
X9.0255Y-3.2209
X9.0255Y-3.9709
X9.0255Y-4.7209
X9.3755Y-1.8359
X9.3755Y-2.5859
X9.3755Y-3.3359
X9.3755Y-4.0859
X9.3755Y-4.8359
X9.7755Y-1.8359
X9.7755Y-2.5859
X9.7755Y-3.3359
X9.7755Y-4.0859
X9.7755Y-4.8359
X10.1255Y-1.9759
X10.1255Y-2.7259
X10.1255Y-3.4759
X10.1255Y-4.2259
X10.1255Y-4.9759
X10.5255Y-1.9759
X10.5255Y-2.7259
X10.5255Y-3.4759
X10.5255Y-4.2259
X10.5255Y-4.9759
X11.0655Y-1.9759
X11.0655Y-2.7259
X11.0655Y-3.4759
X11.0655Y-4.2259
X11.0655Y-4.9759
X11.4655Y-1.9759
X11.4655Y-2.7259
X11.4655Y-3.4759
X11.4655Y-4.2259
X11.4655Y-4.9759
T4
X0.1043Y-1.7184
X0.1043Y-5.2184
X5.288Y-5.9496
X5.4455Y-5.0746
X5.518Y-1.6846
X6.2843Y-1.6846
X6.3555Y-5.0696
X6.5143Y-5.9496
X11.698Y-1.7184
X11.698Y-5.2184
T5
X0.5368Y-1.9759
X0.5368Y-2.7259
X0.5368Y-3.4759
X0.5368Y-4.2259
X0.5368Y-4.9759
X1.4768Y-1.9759
X1.4768Y-2.7259
X1.4768Y-3.4759
X1.4768Y-4.2259
X1.4768Y-4.9759
X2.2268Y-1.8359
X2.2268Y-2.5859
X2.2268Y-3.3359
X2.2268Y-4.0859
X2.2268Y-4.8359
X2.9768Y-1.7209
X2.9768Y-2.4709
X2.9768Y-3.2209
X2.9768Y-3.9709
X2.9768Y-4.7209
X3.7268Y-1.8359
X3.7268Y-2.5859
X3.7268Y-3.3359
X3.7268Y-4.0859
X3.7268Y-4.8359
X4.4768Y-2.6609
X4.4768Y-3.4109
X4.4768Y-4.1609
X4.477Y-1.9106
X4.6168Y-5.0509
X5.2268Y-1.9759
X5.2268Y-2.7259
X5.2268Y-3.4759
X5.2268Y-4.2259
X5.2846Y-5.5616
X6.5155Y-5.5609
X6.5755Y-1.9759
X6.5755Y-2.7259
X6.5755Y-3.4759
X6.5755Y-4.2259
X7.1855Y-5.0491
X7.3253Y-1.9106
X7.3255Y-2.6609
X7.3255Y-3.4109
X7.3255Y-4.1609
X8.0755Y-1.8359
X8.0755Y-2.5859
X8.0755Y-3.3359
X8.0755Y-4.0859
X8.0755Y-4.8359
X8.8255Y-1.7209
X8.8255Y-2.4709
X8.8255Y-3.2209
X8.8255Y-3.9709
X8.8255Y-4.7209
X9.5755Y-1.8359
X9.5755Y-2.5859
X9.5755Y-3.3359
X9.5755Y-4.0859
X9.5755Y-4.8359
X10.3255Y-1.9759
X10.3255Y-2.7259
X10.3255Y-3.4759
X10.3255Y-4.2259
X10.3255Y-4.9759
X11.2655Y-1.9759
X11.2655Y-2.7259
X11.2655Y-3.4759
X11.2655Y-4.2259
X11.2655Y-4.9759
T0
M30
