M48
; DRILL file {KiCad (5.1.10)-1} date 09/02/21 18:22:40
; FORMAT={-:-/ absolute / inch / decimal}
; #@! TF.CreationDate,2021-09-02T18:22:40+02:00
; #@! TF.GenerationSoftware,Kicad,Pcbnew,(5.1.10)-1
; #@! TF.FileFunction,Plated,1,2,PTH
FMAT,2
INCH
T1C0.0157
T2C0.0197
T3C0.0236
T4C0.0472
T5C0.0591
%
G90
G05
T1
X0.9975Y-2.84
X1.7375Y-2.8
X2.4975Y-2.73
X2.6175Y-2.465
X2.9225Y-2.955
X2.9375Y-3.08
X3.3375Y-2.73
X3.3475Y-2.41
X3.4025Y-2.565
X3.4875Y-2.885
X3.5275Y-2.76
X3.7075Y-3.105
X3.7825Y-2.895
X3.8575Y-3.305
X3.905Y-3.1825
X3.962Y-3.2245
X3.97Y-2.8875
X3.9775Y-3.4
X3.9925Y-3.01
X4.014Y-2.6185
X4.0325Y-2.91
X4.0425Y-3.13
X4.085Y-3.145
X4.1225Y-2.665
X4.1375Y-2.855
X4.1434Y-2.7659
X4.1475Y-3.42
X4.1975Y-2.91
X4.2025Y-3.365
X4.2125Y-2.51
X4.2125Y-2.605
X4.3075Y-2.715
X4.3775Y-2.23
X4.4575Y-3.1
X4.4655Y-2.44
X4.5665Y-2.339
X4.5725Y-3.085
X4.6625Y-4.04
X4.7025Y-2.225
X4.7375Y-2.74
X4.7861Y-2.9236
X4.7861Y-3.0736
X4.92Y-1.73
X4.965Y-1.825
X5.0025Y-4.795
X5.1225Y-1.72
X5.1575Y-1.44
X5.2125Y-1.665
X5.2175Y-1.625
X5.2451Y-2.9776
X5.2625Y-1.445
X5.2675Y-1.625
X5.296Y-1.5965
X5.3325Y-3.155
X5.3375Y-1.64
X5.3925Y-2.985
X5.4953Y-2.8122
X6.3987Y-1.755
X6.5088Y-1.66
X6.8937Y-2.985
X6.8937Y-3.205
X7.0938Y-3.21
X7.2088Y-3.095
X7.3388Y-2.42
X7.4142Y-2.7945
X7.4387Y-2.69
X7.4387Y-2.76
X7.4487Y-2.2519
X7.4837Y-2.515
X7.5519Y-2.9869
X7.5537Y-2.6
X7.5938Y-2.845
X7.6205Y-3.0767
X7.6251Y-3.5037
X7.6387Y-2.925
X7.6463Y-2.7925
X7.7437Y-2.975
X7.7538Y-3.095
X7.7697Y-3.5
X7.8087Y-2.87
X7.8438Y-2.675
X7.8712Y-2.9325
X7.8887Y-2.68
X7.9287Y-2.68
X7.9287Y-2.68
X7.9324Y-2.6386
X7.9355Y-2.5883
X7.9988Y-3.09
X8.0137Y-2.96
X8.3688Y-2.775
X8.4437Y-2.585
X8.4488Y-2.65
X8.4488Y-2.71
X8.5488Y-2.73
X9.3537Y-2.7
X10.0887Y-2.865
X10.8215Y-2.8178
T2
X4.9275Y-1.405
X4.9275Y-1.535
X5.5325Y-3.045
X5.5325Y-3.16
X6.2488Y-3.045
X6.2488Y-3.16
X6.3037Y-1.53
X6.7037Y-1.525
T4
X5.1601Y-4.7772
X5.1909Y-4.9517
X5.4464Y-4.7007
X5.4861Y-4.9256
X6.2938Y-4.9206
X6.3334Y-4.6957
X6.589Y-4.9467
X6.6197Y-4.7722
T5
X0.3762Y-1.8762
X0.3762Y-2.6262
X0.3762Y-3.3762
X0.3762Y-4.1262
X0.3762Y-4.8762
X0.6262Y-1.7762
X0.6262Y-2.5263
X0.6262Y-3.2763
X0.6262Y-4.0263
X0.6262Y-4.7763
X1.3162Y-1.8762
X1.3162Y-2.6262
X1.3162Y-3.3762
X1.3162Y-4.1262
X1.3162Y-4.8762
X1.5662Y-1.7762
X1.5662Y-2.5263
X1.5662Y-3.2763
X1.5662Y-4.0263
X1.5662Y-4.7763
X2.0663Y-1.7363
X2.0663Y-2.4863
X2.0663Y-3.2363
X2.0663Y-3.9863
X2.0663Y-4.7363
X2.3163Y-1.6362
X2.3163Y-2.3862
X2.3163Y-3.1362
X2.3163Y-3.8862
X2.3163Y-4.6362
X2.8163Y-1.6212
X2.8163Y-2.3712
X2.8163Y-3.1212
X2.8163Y-3.8712
X2.8163Y-4.6212
X3.0663Y-1.5212
X3.0663Y-2.2712
X3.0663Y-3.0212
X3.0663Y-3.7712
X3.0663Y-4.5213
X3.5662Y-1.7363
X3.5662Y-2.4863
X3.5662Y-3.2363
X3.5662Y-3.9863
X3.5662Y-4.7363
X3.8162Y-1.6362
X3.8162Y-2.3862
X3.8162Y-3.1362
X3.8162Y-3.8862
X3.8162Y-4.6362
X4.3163Y-2.5612
X4.3163Y-3.3112
X4.3163Y-4.0613
X4.3165Y-1.811
X4.5263Y-4.8896
X4.5663Y-2.4613
X4.5663Y-3.2112
X4.5663Y-3.9612
X4.5665Y-1.711
X4.7929Y-4.928
X5.0663Y-1.8762
X5.0663Y-2.6262
X5.0663Y-3.3762
X5.0663Y-4.1262
X5.2388Y-5.3852
X5.3163Y-1.7762
X5.3163Y-2.5263
X5.3163Y-3.2763
X5.3163Y-4.0263
X5.4863Y-5.4912
X6.3282Y-5.5966
X6.415Y-1.8762
X6.415Y-2.6262
X6.415Y-3.3762
X6.415Y-4.1262
X6.4343Y-5.3491
X6.665Y-1.7762
X6.665Y-2.5263
X6.665Y-3.2763
X6.665Y-4.0263
X6.9951Y-5.0379
X7.1616Y-4.8262
X7.1647Y-1.811
X7.165Y-2.5612
X7.165Y-3.3112
X7.165Y-4.0613
X7.4147Y-1.711
X7.415Y-2.4613
X7.415Y-3.2112
X7.415Y-3.9612
X7.915Y-1.7363
X7.915Y-2.4863
X7.915Y-3.2363
X7.915Y-3.9863
X7.915Y-4.7363
X8.165Y-1.6362
X8.165Y-2.3862
X8.165Y-3.1362
X8.165Y-3.8862
X8.165Y-4.6362
X8.665Y-1.6212
X8.665Y-2.3712
X8.665Y-3.1212
X8.665Y-3.8712
X8.665Y-4.6212
X8.915Y-1.5212
X8.915Y-2.2712
X8.915Y-3.0212
X8.915Y-3.7712
X8.915Y-4.5213
X9.415Y-1.7363
X9.415Y-2.4863
X9.415Y-3.2363
X9.415Y-3.9863
X9.415Y-4.7363
X9.665Y-1.6362
X9.665Y-2.3862
X9.665Y-3.1362
X9.665Y-3.8862
X9.665Y-4.6362
X10.165Y-1.8762
X10.165Y-2.6262
X10.165Y-3.3762
X10.165Y-4.1262
X10.165Y-4.8762
X10.415Y-1.7762
X10.415Y-2.5263
X10.415Y-3.2763
X10.415Y-4.0263
X10.415Y-4.7763
X11.105Y-1.8762
X11.105Y-2.6262
X11.105Y-3.3762
X11.105Y-4.1262
X11.105Y-4.8762
X11.355Y-1.7762
X11.355Y-2.5263
X11.355Y-3.2763
X11.355Y-4.0263
X11.355Y-4.7763
T3
G00X5.0487Y-1.3142
M15
G01X5.0487Y-1.2906
M16
G05
G00X5.0487Y-1.4886
M15
G01X5.0487Y-1.4453
M16
G05
G00X5.3888Y-1.3142
M15
G01X5.3888Y-1.2906
M16
G05
G00X5.3888Y-1.4886
M15
G01X5.3888Y-1.4453
M16
G05
T0
M30
