%TF.GenerationSoftware,KiCad,Pcbnew,(5.1.10)-1*%
%TF.CreationDate,2021-08-08T19:29:01+02:00*%
%TF.ProjectId,T1,54312e6b-6963-4616-945f-706362585858,rev?*%
%TF.SameCoordinates,Original*%
%TF.FileFunction,Paste,Top*%
%TF.FilePolarity,Positive*%
%FSLAX46Y46*%
G04 Gerber Fmt 4.6, Leading zero omitted, Abs format (unit mm)*
G04 Created by KiCad (PCBNEW (5.1.10)-1) date 2021-08-08 19:29:01*
%MOMM*%
%LPD*%
G01*
G04 APERTURE LIST*
%ADD10R,0.600000X1.450000*%
%ADD11R,0.300000X1.450000*%
G04 APERTURE END LIST*
%TO.C,D68*%
G36*
G01*
X288181750Y-99990750D02*
X288181750Y-101240750D01*
G75*
G02*
X287931750Y-101490750I-250000J0D01*
G01*
X287181750Y-101490750D01*
G75*
G02*
X286931750Y-101240750I0J250000D01*
G01*
X286931750Y-99990750D01*
G75*
G02*
X287181750Y-99740750I250000J0D01*
G01*
X287931750Y-99740750D01*
G75*
G02*
X288181750Y-99990750I0J-250000D01*
G01*
G37*
G36*
G01*
X290981750Y-99990750D02*
X290981750Y-101240750D01*
G75*
G02*
X290731750Y-101490750I-250000J0D01*
G01*
X289981750Y-101490750D01*
G75*
G02*
X289731750Y-101240750I0J250000D01*
G01*
X289731750Y-99990750D01*
G75*
G02*
X289981750Y-99740750I250000J0D01*
G01*
X290731750Y-99740750D01*
G75*
G02*
X290981750Y-99990750I0J-250000D01*
G01*
G37*
%TD*%
%TO.C,D60*%
G36*
G01*
X245125750Y-134534750D02*
X245125750Y-135784750D01*
G75*
G02*
X244875750Y-136034750I-250000J0D01*
G01*
X244125750Y-136034750D01*
G75*
G02*
X243875750Y-135784750I0J250000D01*
G01*
X243875750Y-134534750D01*
G75*
G02*
X244125750Y-134284750I250000J0D01*
G01*
X244875750Y-134284750D01*
G75*
G02*
X245125750Y-134534750I0J-250000D01*
G01*
G37*
G36*
G01*
X247925750Y-134534750D02*
X247925750Y-135784750D01*
G75*
G02*
X247675750Y-136034750I-250000J0D01*
G01*
X246925750Y-136034750D01*
G75*
G02*
X246675750Y-135784750I0J250000D01*
G01*
X246675750Y-134534750D01*
G75*
G02*
X246925750Y-134284750I250000J0D01*
G01*
X247675750Y-134284750D01*
G75*
G02*
X247925750Y-134534750I0J-250000D01*
G01*
G37*
%TD*%
%TO.C,D45*%
G36*
G01*
X181858644Y-135959984D02*
X182483644Y-137042516D01*
G75*
G02*
X182392138Y-137384022I-216506J-125000D01*
G01*
X181742618Y-137759022D01*
G75*
G02*
X181401112Y-137667516I-125000J216506D01*
G01*
X180776112Y-136584984D01*
G75*
G02*
X180867618Y-136243478I216506J125000D01*
G01*
X181517138Y-135868478D01*
G75*
G02*
X181858644Y-135959984I125000J-216506D01*
G01*
G37*
G36*
G01*
X184283516Y-134559984D02*
X184908516Y-135642516D01*
G75*
G02*
X184817010Y-135984022I-216506J-125000D01*
G01*
X184167490Y-136359022D01*
G75*
G02*
X183825984Y-136267516I-125000J216506D01*
G01*
X183200984Y-135184984D01*
G75*
G02*
X183292490Y-134843478I216506J125000D01*
G01*
X183942010Y-134468478D01*
G75*
G02*
X184283516Y-134559984I125000J-216506D01*
G01*
G37*
%TD*%
D10*
%TO.C,J1*%
X99461250Y-52527250D03*
X100261250Y-52527250D03*
X105161250Y-52527250D03*
X105961250Y-52527250D03*
X105961250Y-52527250D03*
X105161250Y-52527250D03*
X100261250Y-52527250D03*
X99461250Y-52527250D03*
D11*
X104461250Y-52527250D03*
X103961250Y-52527250D03*
X103461250Y-52527250D03*
X102461250Y-52527250D03*
X101961250Y-52527250D03*
X101461250Y-52527250D03*
X100961250Y-52527250D03*
X102961250Y-52527250D03*
%TD*%
%TO.C,D70*%
G36*
G01*
X288181750Y-138090750D02*
X288181750Y-139340750D01*
G75*
G02*
X287931750Y-139590750I-250000J0D01*
G01*
X287181750Y-139590750D01*
G75*
G02*
X286931750Y-139340750I0J250000D01*
G01*
X286931750Y-138090750D01*
G75*
G02*
X287181750Y-137840750I250000J0D01*
G01*
X287931750Y-137840750D01*
G75*
G02*
X288181750Y-138090750I0J-250000D01*
G01*
G37*
G36*
G01*
X290981750Y-138090750D02*
X290981750Y-139340750D01*
G75*
G02*
X290731750Y-139590750I-250000J0D01*
G01*
X289981750Y-139590750D01*
G75*
G02*
X289731750Y-139340750I0J250000D01*
G01*
X289731750Y-138090750D01*
G75*
G02*
X289981750Y-137840750I250000J0D01*
G01*
X290731750Y-137840750D01*
G75*
G02*
X290981750Y-138090750I0J-250000D01*
G01*
G37*
%TD*%
%TO.C,D69*%
G36*
G01*
X288181750Y-119040750D02*
X288181750Y-120290750D01*
G75*
G02*
X287931750Y-120540750I-250000J0D01*
G01*
X287181750Y-120540750D01*
G75*
G02*
X286931750Y-120290750I0J250000D01*
G01*
X286931750Y-119040750D01*
G75*
G02*
X287181750Y-118790750I250000J0D01*
G01*
X287931750Y-118790750D01*
G75*
G02*
X288181750Y-119040750I0J-250000D01*
G01*
G37*
G36*
G01*
X290981750Y-119040750D02*
X290981750Y-120290750D01*
G75*
G02*
X290731750Y-120540750I-250000J0D01*
G01*
X289981750Y-120540750D01*
G75*
G02*
X289731750Y-120290750I0J250000D01*
G01*
X289731750Y-119040750D01*
G75*
G02*
X289981750Y-118790750I250000J0D01*
G01*
X290731750Y-118790750D01*
G75*
G02*
X290981750Y-119040750I0J-250000D01*
G01*
G37*
%TD*%
%TO.C,D67*%
G36*
G01*
X288181750Y-80940750D02*
X288181750Y-82190750D01*
G75*
G02*
X287931750Y-82440750I-250000J0D01*
G01*
X287181750Y-82440750D01*
G75*
G02*
X286931750Y-82190750I0J250000D01*
G01*
X286931750Y-80940750D01*
G75*
G02*
X287181750Y-80690750I250000J0D01*
G01*
X287931750Y-80690750D01*
G75*
G02*
X288181750Y-80940750I0J-250000D01*
G01*
G37*
G36*
G01*
X290981750Y-80940750D02*
X290981750Y-82190750D01*
G75*
G02*
X290731750Y-82440750I-250000J0D01*
G01*
X289981750Y-82440750D01*
G75*
G02*
X289731750Y-82190750I0J250000D01*
G01*
X289731750Y-80940750D01*
G75*
G02*
X289981750Y-80690750I250000J0D01*
G01*
X290731750Y-80690750D01*
G75*
G02*
X290981750Y-80940750I0J-250000D01*
G01*
G37*
%TD*%
%TO.C,D66*%
G36*
G01*
X288181750Y-61890750D02*
X288181750Y-63140750D01*
G75*
G02*
X287931750Y-63390750I-250000J0D01*
G01*
X287181750Y-63390750D01*
G75*
G02*
X286931750Y-63140750I0J250000D01*
G01*
X286931750Y-61890750D01*
G75*
G02*
X287181750Y-61640750I250000J0D01*
G01*
X287931750Y-61640750D01*
G75*
G02*
X288181750Y-61890750I0J-250000D01*
G01*
G37*
G36*
G01*
X290981750Y-61890750D02*
X290981750Y-63140750D01*
G75*
G02*
X290731750Y-63390750I-250000J0D01*
G01*
X289981750Y-63390750D01*
G75*
G02*
X289731750Y-63140750I0J250000D01*
G01*
X289731750Y-61890750D01*
G75*
G02*
X289981750Y-61640750I250000J0D01*
G01*
X290731750Y-61640750D01*
G75*
G02*
X290981750Y-61890750I0J-250000D01*
G01*
G37*
%TD*%
%TO.C,D65*%
G36*
G01*
X264178750Y-138090750D02*
X264178750Y-139340750D01*
G75*
G02*
X263928750Y-139590750I-250000J0D01*
G01*
X263178750Y-139590750D01*
G75*
G02*
X262928750Y-139340750I0J250000D01*
G01*
X262928750Y-138090750D01*
G75*
G02*
X263178750Y-137840750I250000J0D01*
G01*
X263928750Y-137840750D01*
G75*
G02*
X264178750Y-138090750I0J-250000D01*
G01*
G37*
G36*
G01*
X266978750Y-138090750D02*
X266978750Y-139340750D01*
G75*
G02*
X266728750Y-139590750I-250000J0D01*
G01*
X265978750Y-139590750D01*
G75*
G02*
X265728750Y-139340750I0J250000D01*
G01*
X265728750Y-138090750D01*
G75*
G02*
X265978750Y-137840750I250000J0D01*
G01*
X266728750Y-137840750D01*
G75*
G02*
X266978750Y-138090750I0J-250000D01*
G01*
G37*
%TD*%
%TO.C,D64*%
G36*
G01*
X264178750Y-119040750D02*
X264178750Y-120290750D01*
G75*
G02*
X263928750Y-120540750I-250000J0D01*
G01*
X263178750Y-120540750D01*
G75*
G02*
X262928750Y-120290750I0J250000D01*
G01*
X262928750Y-119040750D01*
G75*
G02*
X263178750Y-118790750I250000J0D01*
G01*
X263928750Y-118790750D01*
G75*
G02*
X264178750Y-119040750I0J-250000D01*
G01*
G37*
G36*
G01*
X266978750Y-119040750D02*
X266978750Y-120290750D01*
G75*
G02*
X266728750Y-120540750I-250000J0D01*
G01*
X265978750Y-120540750D01*
G75*
G02*
X265728750Y-120290750I0J250000D01*
G01*
X265728750Y-119040750D01*
G75*
G02*
X265978750Y-118790750I250000J0D01*
G01*
X266728750Y-118790750D01*
G75*
G02*
X266978750Y-119040750I0J-250000D01*
G01*
G37*
%TD*%
%TO.C,D63*%
G36*
G01*
X264175750Y-99990750D02*
X264175750Y-101240750D01*
G75*
G02*
X263925750Y-101490750I-250000J0D01*
G01*
X263175750Y-101490750D01*
G75*
G02*
X262925750Y-101240750I0J250000D01*
G01*
X262925750Y-99990750D01*
G75*
G02*
X263175750Y-99740750I250000J0D01*
G01*
X263925750Y-99740750D01*
G75*
G02*
X264175750Y-99990750I0J-250000D01*
G01*
G37*
G36*
G01*
X266975750Y-99990750D02*
X266975750Y-101240750D01*
G75*
G02*
X266725750Y-101490750I-250000J0D01*
G01*
X265975750Y-101490750D01*
G75*
G02*
X265725750Y-101240750I0J250000D01*
G01*
X265725750Y-99990750D01*
G75*
G02*
X265975750Y-99740750I250000J0D01*
G01*
X266725750Y-99740750D01*
G75*
G02*
X266975750Y-99990750I0J-250000D01*
G01*
G37*
%TD*%
%TO.C,D62*%
G36*
G01*
X264178750Y-80940750D02*
X264178750Y-82190750D01*
G75*
G02*
X263928750Y-82440750I-250000J0D01*
G01*
X263178750Y-82440750D01*
G75*
G02*
X262928750Y-82190750I0J250000D01*
G01*
X262928750Y-80940750D01*
G75*
G02*
X263178750Y-80690750I250000J0D01*
G01*
X263928750Y-80690750D01*
G75*
G02*
X264178750Y-80940750I0J-250000D01*
G01*
G37*
G36*
G01*
X266978750Y-80940750D02*
X266978750Y-82190750D01*
G75*
G02*
X266728750Y-82440750I-250000J0D01*
G01*
X265978750Y-82440750D01*
G75*
G02*
X265728750Y-82190750I0J250000D01*
G01*
X265728750Y-80940750D01*
G75*
G02*
X265978750Y-80690750I250000J0D01*
G01*
X266728750Y-80690750D01*
G75*
G02*
X266978750Y-80940750I0J-250000D01*
G01*
G37*
%TD*%
%TO.C,D61*%
G36*
G01*
X264178750Y-61890750D02*
X264178750Y-63140750D01*
G75*
G02*
X263928750Y-63390750I-250000J0D01*
G01*
X263178750Y-63390750D01*
G75*
G02*
X262928750Y-63140750I0J250000D01*
G01*
X262928750Y-61890750D01*
G75*
G02*
X263178750Y-61640750I250000J0D01*
G01*
X263928750Y-61640750D01*
G75*
G02*
X264178750Y-61890750I0J-250000D01*
G01*
G37*
G36*
G01*
X266978750Y-61890750D02*
X266978750Y-63140750D01*
G75*
G02*
X266728750Y-63390750I-250000J0D01*
G01*
X265978750Y-63390750D01*
G75*
G02*
X265728750Y-63140750I0J250000D01*
G01*
X265728750Y-61890750D01*
G75*
G02*
X265978750Y-61640750I250000J0D01*
G01*
X266728750Y-61640750D01*
G75*
G02*
X266978750Y-61890750I0J-250000D01*
G01*
G37*
%TD*%
%TO.C,D59*%
G36*
G01*
X245128750Y-115484750D02*
X245128750Y-116734750D01*
G75*
G02*
X244878750Y-116984750I-250000J0D01*
G01*
X244128750Y-116984750D01*
G75*
G02*
X243878750Y-116734750I0J250000D01*
G01*
X243878750Y-115484750D01*
G75*
G02*
X244128750Y-115234750I250000J0D01*
G01*
X244878750Y-115234750D01*
G75*
G02*
X245128750Y-115484750I0J-250000D01*
G01*
G37*
G36*
G01*
X247928750Y-115484750D02*
X247928750Y-116734750D01*
G75*
G02*
X247678750Y-116984750I-250000J0D01*
G01*
X246928750Y-116984750D01*
G75*
G02*
X246678750Y-116734750I0J250000D01*
G01*
X246678750Y-115484750D01*
G75*
G02*
X246928750Y-115234750I250000J0D01*
G01*
X247678750Y-115234750D01*
G75*
G02*
X247928750Y-115484750I0J-250000D01*
G01*
G37*
%TD*%
%TO.C,D58*%
G36*
G01*
X245128750Y-96434750D02*
X245128750Y-97684750D01*
G75*
G02*
X244878750Y-97934750I-250000J0D01*
G01*
X244128750Y-97934750D01*
G75*
G02*
X243878750Y-97684750I0J250000D01*
G01*
X243878750Y-96434750D01*
G75*
G02*
X244128750Y-96184750I250000J0D01*
G01*
X244878750Y-96184750D01*
G75*
G02*
X245128750Y-96434750I0J-250000D01*
G01*
G37*
G36*
G01*
X247928750Y-96434750D02*
X247928750Y-97684750D01*
G75*
G02*
X247678750Y-97934750I-250000J0D01*
G01*
X246928750Y-97934750D01*
G75*
G02*
X246678750Y-97684750I0J250000D01*
G01*
X246678750Y-96434750D01*
G75*
G02*
X246928750Y-96184750I250000J0D01*
G01*
X247678750Y-96184750D01*
G75*
G02*
X247928750Y-96434750I0J-250000D01*
G01*
G37*
%TD*%
%TO.C,D57*%
G36*
G01*
X245128750Y-77384750D02*
X245128750Y-78634750D01*
G75*
G02*
X244878750Y-78884750I-250000J0D01*
G01*
X244128750Y-78884750D01*
G75*
G02*
X243878750Y-78634750I0J250000D01*
G01*
X243878750Y-77384750D01*
G75*
G02*
X244128750Y-77134750I250000J0D01*
G01*
X244878750Y-77134750D01*
G75*
G02*
X245128750Y-77384750I0J-250000D01*
G01*
G37*
G36*
G01*
X247928750Y-77384750D02*
X247928750Y-78634750D01*
G75*
G02*
X247678750Y-78884750I-250000J0D01*
G01*
X246928750Y-78884750D01*
G75*
G02*
X246678750Y-78634750I0J250000D01*
G01*
X246678750Y-77384750D01*
G75*
G02*
X246928750Y-77134750I250000J0D01*
G01*
X247678750Y-77134750D01*
G75*
G02*
X247928750Y-77384750I0J-250000D01*
G01*
G37*
%TD*%
%TO.C,D56*%
G36*
G01*
X245128750Y-58334750D02*
X245128750Y-59584750D01*
G75*
G02*
X244878750Y-59834750I-250000J0D01*
G01*
X244128750Y-59834750D01*
G75*
G02*
X243878750Y-59584750I0J250000D01*
G01*
X243878750Y-58334750D01*
G75*
G02*
X244128750Y-58084750I250000J0D01*
G01*
X244878750Y-58084750D01*
G75*
G02*
X245128750Y-58334750I0J-250000D01*
G01*
G37*
G36*
G01*
X247928750Y-58334750D02*
X247928750Y-59584750D01*
G75*
G02*
X247678750Y-59834750I-250000J0D01*
G01*
X246928750Y-59834750D01*
G75*
G02*
X246678750Y-59584750I0J250000D01*
G01*
X246678750Y-58334750D01*
G75*
G02*
X246928750Y-58084750I250000J0D01*
G01*
X247678750Y-58084750D01*
G75*
G02*
X247928750Y-58334750I0J-250000D01*
G01*
G37*
%TD*%
%TO.C,D55*%
G36*
G01*
X226078750Y-131613750D02*
X226078750Y-132863750D01*
G75*
G02*
X225828750Y-133113750I-250000J0D01*
G01*
X225078750Y-133113750D01*
G75*
G02*
X224828750Y-132863750I0J250000D01*
G01*
X224828750Y-131613750D01*
G75*
G02*
X225078750Y-131363750I250000J0D01*
G01*
X225828750Y-131363750D01*
G75*
G02*
X226078750Y-131613750I0J-250000D01*
G01*
G37*
G36*
G01*
X228878750Y-131613750D02*
X228878750Y-132863750D01*
G75*
G02*
X228628750Y-133113750I-250000J0D01*
G01*
X227878750Y-133113750D01*
G75*
G02*
X227628750Y-132863750I0J250000D01*
G01*
X227628750Y-131613750D01*
G75*
G02*
X227878750Y-131363750I250000J0D01*
G01*
X228628750Y-131363750D01*
G75*
G02*
X228878750Y-131613750I0J-250000D01*
G01*
G37*
%TD*%
%TO.C,D54*%
G36*
G01*
X226078750Y-112563750D02*
X226078750Y-113813750D01*
G75*
G02*
X225828750Y-114063750I-250000J0D01*
G01*
X225078750Y-114063750D01*
G75*
G02*
X224828750Y-113813750I0J250000D01*
G01*
X224828750Y-112563750D01*
G75*
G02*
X225078750Y-112313750I250000J0D01*
G01*
X225828750Y-112313750D01*
G75*
G02*
X226078750Y-112563750I0J-250000D01*
G01*
G37*
G36*
G01*
X228878750Y-112563750D02*
X228878750Y-113813750D01*
G75*
G02*
X228628750Y-114063750I-250000J0D01*
G01*
X227878750Y-114063750D01*
G75*
G02*
X227628750Y-113813750I0J250000D01*
G01*
X227628750Y-112563750D01*
G75*
G02*
X227878750Y-112313750I250000J0D01*
G01*
X228628750Y-112313750D01*
G75*
G02*
X228878750Y-112563750I0J-250000D01*
G01*
G37*
%TD*%
%TO.C,D53*%
G36*
G01*
X226139250Y-93513750D02*
X226139250Y-94763750D01*
G75*
G02*
X225889250Y-95013750I-250000J0D01*
G01*
X225139250Y-95013750D01*
G75*
G02*
X224889250Y-94763750I0J250000D01*
G01*
X224889250Y-93513750D01*
G75*
G02*
X225139250Y-93263750I250000J0D01*
G01*
X225889250Y-93263750D01*
G75*
G02*
X226139250Y-93513750I0J-250000D01*
G01*
G37*
G36*
G01*
X228939250Y-93513750D02*
X228939250Y-94763750D01*
G75*
G02*
X228689250Y-95013750I-250000J0D01*
G01*
X227939250Y-95013750D01*
G75*
G02*
X227689250Y-94763750I0J250000D01*
G01*
X227689250Y-93513750D01*
G75*
G02*
X227939250Y-93263750I250000J0D01*
G01*
X228689250Y-93263750D01*
G75*
G02*
X228939250Y-93513750I0J-250000D01*
G01*
G37*
%TD*%
%TO.C,D52*%
G36*
G01*
X226078750Y-74463750D02*
X226078750Y-75713750D01*
G75*
G02*
X225828750Y-75963750I-250000J0D01*
G01*
X225078750Y-75963750D01*
G75*
G02*
X224828750Y-75713750I0J250000D01*
G01*
X224828750Y-74463750D01*
G75*
G02*
X225078750Y-74213750I250000J0D01*
G01*
X225828750Y-74213750D01*
G75*
G02*
X226078750Y-74463750I0J-250000D01*
G01*
G37*
G36*
G01*
X228878750Y-74463750D02*
X228878750Y-75713750D01*
G75*
G02*
X228628750Y-75963750I-250000J0D01*
G01*
X227878750Y-75963750D01*
G75*
G02*
X227628750Y-75713750I0J250000D01*
G01*
X227628750Y-74463750D01*
G75*
G02*
X227878750Y-74213750I250000J0D01*
G01*
X228628750Y-74213750D01*
G75*
G02*
X228878750Y-74463750I0J-250000D01*
G01*
G37*
%TD*%
%TO.C,D51*%
G36*
G01*
X226075750Y-55413750D02*
X226075750Y-56663750D01*
G75*
G02*
X225825750Y-56913750I-250000J0D01*
G01*
X225075750Y-56913750D01*
G75*
G02*
X224825750Y-56663750I0J250000D01*
G01*
X224825750Y-55413750D01*
G75*
G02*
X225075750Y-55163750I250000J0D01*
G01*
X225825750Y-55163750D01*
G75*
G02*
X226075750Y-55413750I0J-250000D01*
G01*
G37*
G36*
G01*
X228875750Y-55413750D02*
X228875750Y-56663750D01*
G75*
G02*
X228625750Y-56913750I-250000J0D01*
G01*
X227875750Y-56913750D01*
G75*
G02*
X227625750Y-56663750I0J250000D01*
G01*
X227625750Y-55413750D01*
G75*
G02*
X227875750Y-55163750I250000J0D01*
G01*
X228625750Y-55163750D01*
G75*
G02*
X228875750Y-55413750I0J-250000D01*
G01*
G37*
%TD*%
%TO.C,D50*%
G36*
G01*
X207028750Y-134534750D02*
X207028750Y-135784750D01*
G75*
G02*
X206778750Y-136034750I-250000J0D01*
G01*
X206028750Y-136034750D01*
G75*
G02*
X205778750Y-135784750I0J250000D01*
G01*
X205778750Y-134534750D01*
G75*
G02*
X206028750Y-134284750I250000J0D01*
G01*
X206778750Y-134284750D01*
G75*
G02*
X207028750Y-134534750I0J-250000D01*
G01*
G37*
G36*
G01*
X209828750Y-134534750D02*
X209828750Y-135784750D01*
G75*
G02*
X209578750Y-136034750I-250000J0D01*
G01*
X208828750Y-136034750D01*
G75*
G02*
X208578750Y-135784750I0J250000D01*
G01*
X208578750Y-134534750D01*
G75*
G02*
X208828750Y-134284750I250000J0D01*
G01*
X209578750Y-134284750D01*
G75*
G02*
X209828750Y-134534750I0J-250000D01*
G01*
G37*
%TD*%
%TO.C,D49*%
G36*
G01*
X207028750Y-115484750D02*
X207028750Y-116734750D01*
G75*
G02*
X206778750Y-116984750I-250000J0D01*
G01*
X206028750Y-116984750D01*
G75*
G02*
X205778750Y-116734750I0J250000D01*
G01*
X205778750Y-115484750D01*
G75*
G02*
X206028750Y-115234750I250000J0D01*
G01*
X206778750Y-115234750D01*
G75*
G02*
X207028750Y-115484750I0J-250000D01*
G01*
G37*
G36*
G01*
X209828750Y-115484750D02*
X209828750Y-116734750D01*
G75*
G02*
X209578750Y-116984750I-250000J0D01*
G01*
X208828750Y-116984750D01*
G75*
G02*
X208578750Y-116734750I0J250000D01*
G01*
X208578750Y-115484750D01*
G75*
G02*
X208828750Y-115234750I250000J0D01*
G01*
X209578750Y-115234750D01*
G75*
G02*
X209828750Y-115484750I0J-250000D01*
G01*
G37*
%TD*%
%TO.C,D48*%
G36*
G01*
X207028750Y-96434750D02*
X207028750Y-97684750D01*
G75*
G02*
X206778750Y-97934750I-250000J0D01*
G01*
X206028750Y-97934750D01*
G75*
G02*
X205778750Y-97684750I0J250000D01*
G01*
X205778750Y-96434750D01*
G75*
G02*
X206028750Y-96184750I250000J0D01*
G01*
X206778750Y-96184750D01*
G75*
G02*
X207028750Y-96434750I0J-250000D01*
G01*
G37*
G36*
G01*
X209828750Y-96434750D02*
X209828750Y-97684750D01*
G75*
G02*
X209578750Y-97934750I-250000J0D01*
G01*
X208828750Y-97934750D01*
G75*
G02*
X208578750Y-97684750I0J250000D01*
G01*
X208578750Y-96434750D01*
G75*
G02*
X208828750Y-96184750I250000J0D01*
G01*
X209578750Y-96184750D01*
G75*
G02*
X209828750Y-96434750I0J-250000D01*
G01*
G37*
%TD*%
%TO.C,D47*%
G36*
G01*
X207092250Y-77384750D02*
X207092250Y-78634750D01*
G75*
G02*
X206842250Y-78884750I-250000J0D01*
G01*
X206092250Y-78884750D01*
G75*
G02*
X205842250Y-78634750I0J250000D01*
G01*
X205842250Y-77384750D01*
G75*
G02*
X206092250Y-77134750I250000J0D01*
G01*
X206842250Y-77134750D01*
G75*
G02*
X207092250Y-77384750I0J-250000D01*
G01*
G37*
G36*
G01*
X209892250Y-77384750D02*
X209892250Y-78634750D01*
G75*
G02*
X209642250Y-78884750I-250000J0D01*
G01*
X208892250Y-78884750D01*
G75*
G02*
X208642250Y-78634750I0J250000D01*
G01*
X208642250Y-77384750D01*
G75*
G02*
X208892250Y-77134750I250000J0D01*
G01*
X209642250Y-77134750D01*
G75*
G02*
X209892250Y-77384750I0J-250000D01*
G01*
G37*
%TD*%
%TO.C,D46*%
G36*
G01*
X207028750Y-58334750D02*
X207028750Y-59584750D01*
G75*
G02*
X206778750Y-59834750I-250000J0D01*
G01*
X206028750Y-59834750D01*
G75*
G02*
X205778750Y-59584750I0J250000D01*
G01*
X205778750Y-58334750D01*
G75*
G02*
X206028750Y-58084750I250000J0D01*
G01*
X206778750Y-58084750D01*
G75*
G02*
X207028750Y-58334750I0J-250000D01*
G01*
G37*
G36*
G01*
X209828750Y-58334750D02*
X209828750Y-59584750D01*
G75*
G02*
X209578750Y-59834750I-250000J0D01*
G01*
X208828750Y-59834750D01*
G75*
G02*
X208578750Y-59584750I0J250000D01*
G01*
X208578750Y-58334750D01*
G75*
G02*
X208828750Y-58084750I250000J0D01*
G01*
X209578750Y-58084750D01*
G75*
G02*
X209828750Y-58334750I0J-250000D01*
G01*
G37*
%TD*%
%TO.C,D44*%
G36*
G01*
X187978750Y-117389750D02*
X187978750Y-118639750D01*
G75*
G02*
X187728750Y-118889750I-250000J0D01*
G01*
X186978750Y-118889750D01*
G75*
G02*
X186728750Y-118639750I0J250000D01*
G01*
X186728750Y-117389750D01*
G75*
G02*
X186978750Y-117139750I250000J0D01*
G01*
X187728750Y-117139750D01*
G75*
G02*
X187978750Y-117389750I0J-250000D01*
G01*
G37*
G36*
G01*
X190778750Y-117389750D02*
X190778750Y-118639750D01*
G75*
G02*
X190528750Y-118889750I-250000J0D01*
G01*
X189778750Y-118889750D01*
G75*
G02*
X189528750Y-118639750I0J250000D01*
G01*
X189528750Y-117389750D01*
G75*
G02*
X189778750Y-117139750I250000J0D01*
G01*
X190528750Y-117139750D01*
G75*
G02*
X190778750Y-117389750I0J-250000D01*
G01*
G37*
%TD*%
%TO.C,D43*%
G36*
G01*
X187978750Y-98339750D02*
X187978750Y-99589750D01*
G75*
G02*
X187728750Y-99839750I-250000J0D01*
G01*
X186978750Y-99839750D01*
G75*
G02*
X186728750Y-99589750I0J250000D01*
G01*
X186728750Y-98339750D01*
G75*
G02*
X186978750Y-98089750I250000J0D01*
G01*
X187728750Y-98089750D01*
G75*
G02*
X187978750Y-98339750I0J-250000D01*
G01*
G37*
G36*
G01*
X190778750Y-98339750D02*
X190778750Y-99589750D01*
G75*
G02*
X190528750Y-99839750I-250000J0D01*
G01*
X189778750Y-99839750D01*
G75*
G02*
X189528750Y-99589750I0J250000D01*
G01*
X189528750Y-98339750D01*
G75*
G02*
X189778750Y-98089750I250000J0D01*
G01*
X190528750Y-98089750D01*
G75*
G02*
X190778750Y-98339750I0J-250000D01*
G01*
G37*
%TD*%
%TO.C,D42*%
G36*
G01*
X187978750Y-79289750D02*
X187978750Y-80539750D01*
G75*
G02*
X187728750Y-80789750I-250000J0D01*
G01*
X186978750Y-80789750D01*
G75*
G02*
X186728750Y-80539750I0J250000D01*
G01*
X186728750Y-79289750D01*
G75*
G02*
X186978750Y-79039750I250000J0D01*
G01*
X187728750Y-79039750D01*
G75*
G02*
X187978750Y-79289750I0J-250000D01*
G01*
G37*
G36*
G01*
X190778750Y-79289750D02*
X190778750Y-80539750D01*
G75*
G02*
X190528750Y-80789750I-250000J0D01*
G01*
X189778750Y-80789750D01*
G75*
G02*
X189528750Y-80539750I0J250000D01*
G01*
X189528750Y-79289750D01*
G75*
G02*
X189778750Y-79039750I250000J0D01*
G01*
X190528750Y-79039750D01*
G75*
G02*
X190778750Y-79289750I0J-250000D01*
G01*
G37*
%TD*%
%TO.C,D41*%
G36*
G01*
X187978750Y-60239750D02*
X187978750Y-61489750D01*
G75*
G02*
X187728750Y-61739750I-250000J0D01*
G01*
X186978750Y-61739750D01*
G75*
G02*
X186728750Y-61489750I0J250000D01*
G01*
X186728750Y-60239750D01*
G75*
G02*
X186978750Y-59989750I250000J0D01*
G01*
X187728750Y-59989750D01*
G75*
G02*
X187978750Y-60239750I0J-250000D01*
G01*
G37*
G36*
G01*
X190778750Y-60239750D02*
X190778750Y-61489750D01*
G75*
G02*
X190528750Y-61739750I-250000J0D01*
G01*
X189778750Y-61739750D01*
G75*
G02*
X189528750Y-61489750I0J250000D01*
G01*
X189528750Y-60239750D01*
G75*
G02*
X189778750Y-59989750I250000J0D01*
G01*
X190528750Y-59989750D01*
G75*
G02*
X190778750Y-60239750I0J-250000D01*
G01*
G37*
%TD*%
%TO.C,D40*%
G36*
G01*
X162617801Y-147711815D02*
X163501685Y-148595699D01*
G75*
G02*
X163501685Y-148949253I-176777J-176777D01*
G01*
X162971355Y-149479583D01*
G75*
G02*
X162617801Y-149479583I-176777J176777D01*
G01*
X161733917Y-148595699D01*
G75*
G02*
X161733917Y-148242145I176777J176777D01*
G01*
X162264247Y-147711815D01*
G75*
G02*
X162617801Y-147711815I176777J-176777D01*
G01*
G37*
G36*
G01*
X164597699Y-145731917D02*
X165481583Y-146615801D01*
G75*
G02*
X165481583Y-146969355I-176777J-176777D01*
G01*
X164951253Y-147499685D01*
G75*
G02*
X164597699Y-147499685I-176777J176777D01*
G01*
X163713815Y-146615801D01*
G75*
G02*
X163713815Y-146262247I176777J176777D01*
G01*
X164244145Y-145731917D01*
G75*
G02*
X164597699Y-145731917I176777J-176777D01*
G01*
G37*
%TD*%
%TO.C,D39*%
G36*
G01*
X168928750Y-119040750D02*
X168928750Y-120290750D01*
G75*
G02*
X168678750Y-120540750I-250000J0D01*
G01*
X167928750Y-120540750D01*
G75*
G02*
X167678750Y-120290750I0J250000D01*
G01*
X167678750Y-119040750D01*
G75*
G02*
X167928750Y-118790750I250000J0D01*
G01*
X168678750Y-118790750D01*
G75*
G02*
X168928750Y-119040750I0J-250000D01*
G01*
G37*
G36*
G01*
X171728750Y-119040750D02*
X171728750Y-120290750D01*
G75*
G02*
X171478750Y-120540750I-250000J0D01*
G01*
X170728750Y-120540750D01*
G75*
G02*
X170478750Y-120290750I0J250000D01*
G01*
X170478750Y-119040750D01*
G75*
G02*
X170728750Y-118790750I250000J0D01*
G01*
X171478750Y-118790750D01*
G75*
G02*
X171728750Y-119040750I0J-250000D01*
G01*
G37*
%TD*%
%TO.C,D38*%
G36*
G01*
X168928750Y-99990750D02*
X168928750Y-101240750D01*
G75*
G02*
X168678750Y-101490750I-250000J0D01*
G01*
X167928750Y-101490750D01*
G75*
G02*
X167678750Y-101240750I0J250000D01*
G01*
X167678750Y-99990750D01*
G75*
G02*
X167928750Y-99740750I250000J0D01*
G01*
X168678750Y-99740750D01*
G75*
G02*
X168928750Y-99990750I0J-250000D01*
G01*
G37*
G36*
G01*
X171728750Y-99990750D02*
X171728750Y-101240750D01*
G75*
G02*
X171478750Y-101490750I-250000J0D01*
G01*
X170728750Y-101490750D01*
G75*
G02*
X170478750Y-101240750I0J250000D01*
G01*
X170478750Y-99990750D01*
G75*
G02*
X170728750Y-99740750I250000J0D01*
G01*
X171478750Y-99740750D01*
G75*
G02*
X171728750Y-99990750I0J-250000D01*
G01*
G37*
%TD*%
%TO.C,D37*%
G36*
G01*
X168928750Y-80940750D02*
X168928750Y-82190750D01*
G75*
G02*
X168678750Y-82440750I-250000J0D01*
G01*
X167928750Y-82440750D01*
G75*
G02*
X167678750Y-82190750I0J250000D01*
G01*
X167678750Y-80940750D01*
G75*
G02*
X167928750Y-80690750I250000J0D01*
G01*
X168678750Y-80690750D01*
G75*
G02*
X168928750Y-80940750I0J-250000D01*
G01*
G37*
G36*
G01*
X171728750Y-80940750D02*
X171728750Y-82190750D01*
G75*
G02*
X171478750Y-82440750I-250000J0D01*
G01*
X170728750Y-82440750D01*
G75*
G02*
X170478750Y-82190750I0J250000D01*
G01*
X170478750Y-80940750D01*
G75*
G02*
X170728750Y-80690750I250000J0D01*
G01*
X171478750Y-80690750D01*
G75*
G02*
X171728750Y-80940750I0J-250000D01*
G01*
G37*
%TD*%
%TO.C,D36*%
G36*
G01*
X168928750Y-61890750D02*
X168928750Y-63140750D01*
G75*
G02*
X168678750Y-63390750I-250000J0D01*
G01*
X167928750Y-63390750D01*
G75*
G02*
X167678750Y-63140750I0J250000D01*
G01*
X167678750Y-61890750D01*
G75*
G02*
X167928750Y-61640750I250000J0D01*
G01*
X168678750Y-61640750D01*
G75*
G02*
X168928750Y-61890750I0J-250000D01*
G01*
G37*
G36*
G01*
X171728750Y-61890750D02*
X171728750Y-63140750D01*
G75*
G02*
X171478750Y-63390750I-250000J0D01*
G01*
X170728750Y-63390750D01*
G75*
G02*
X170478750Y-63140750I0J250000D01*
G01*
X170478750Y-61890750D01*
G75*
G02*
X170728750Y-61640750I250000J0D01*
G01*
X171478750Y-61640750D01*
G75*
G02*
X171728750Y-61890750I0J-250000D01*
G01*
G37*
%TD*%
%TO.C,D35*%
G36*
G01*
X114374315Y-148595699D02*
X115258199Y-147711815D01*
G75*
G02*
X115611753Y-147711815I176777J-176777D01*
G01*
X116142083Y-148242145D01*
G75*
G02*
X116142083Y-148595699I-176777J-176777D01*
G01*
X115258199Y-149479583D01*
G75*
G02*
X114904645Y-149479583I-176777J176777D01*
G01*
X114374315Y-148949253D01*
G75*
G02*
X114374315Y-148595699I176777J176777D01*
G01*
G37*
G36*
G01*
X112394417Y-146615801D02*
X113278301Y-145731917D01*
G75*
G02*
X113631855Y-145731917I176777J-176777D01*
G01*
X114162185Y-146262247D01*
G75*
G02*
X114162185Y-146615801I-176777J-176777D01*
G01*
X113278301Y-147499685D01*
G75*
G02*
X112924747Y-147499685I-176777J176777D01*
G01*
X112394417Y-146969355D01*
G75*
G02*
X112394417Y-146615801I176777J176777D01*
G01*
G37*
%TD*%
%TO.C,D34*%
G36*
G01*
X108820250Y-119782750D02*
X108820250Y-118532750D01*
G75*
G02*
X109070250Y-118282750I250000J0D01*
G01*
X109820250Y-118282750D01*
G75*
G02*
X110070250Y-118532750I0J-250000D01*
G01*
X110070250Y-119782750D01*
G75*
G02*
X109820250Y-120032750I-250000J0D01*
G01*
X109070250Y-120032750D01*
G75*
G02*
X108820250Y-119782750I0J250000D01*
G01*
G37*
G36*
G01*
X106020250Y-119782750D02*
X106020250Y-118532750D01*
G75*
G02*
X106270250Y-118282750I250000J0D01*
G01*
X107020250Y-118282750D01*
G75*
G02*
X107270250Y-118532750I0J-250000D01*
G01*
X107270250Y-119782750D01*
G75*
G02*
X107020250Y-120032750I-250000J0D01*
G01*
X106270250Y-120032750D01*
G75*
G02*
X106020250Y-119782750I0J250000D01*
G01*
G37*
%TD*%
%TO.C,D33*%
G36*
G01*
X108820250Y-100732750D02*
X108820250Y-99482750D01*
G75*
G02*
X109070250Y-99232750I250000J0D01*
G01*
X109820250Y-99232750D01*
G75*
G02*
X110070250Y-99482750I0J-250000D01*
G01*
X110070250Y-100732750D01*
G75*
G02*
X109820250Y-100982750I-250000J0D01*
G01*
X109070250Y-100982750D01*
G75*
G02*
X108820250Y-100732750I0J250000D01*
G01*
G37*
G36*
G01*
X106020250Y-100732750D02*
X106020250Y-99482750D01*
G75*
G02*
X106270250Y-99232750I250000J0D01*
G01*
X107020250Y-99232750D01*
G75*
G02*
X107270250Y-99482750I0J-250000D01*
G01*
X107270250Y-100732750D01*
G75*
G02*
X107020250Y-100982750I-250000J0D01*
G01*
X106270250Y-100982750D01*
G75*
G02*
X106020250Y-100732750I0J250000D01*
G01*
G37*
%TD*%
%TO.C,D32*%
G36*
G01*
X108820250Y-81682750D02*
X108820250Y-80432750D01*
G75*
G02*
X109070250Y-80182750I250000J0D01*
G01*
X109820250Y-80182750D01*
G75*
G02*
X110070250Y-80432750I0J-250000D01*
G01*
X110070250Y-81682750D01*
G75*
G02*
X109820250Y-81932750I-250000J0D01*
G01*
X109070250Y-81932750D01*
G75*
G02*
X108820250Y-81682750I0J250000D01*
G01*
G37*
G36*
G01*
X106020250Y-81682750D02*
X106020250Y-80432750D01*
G75*
G02*
X106270250Y-80182750I250000J0D01*
G01*
X107020250Y-80182750D01*
G75*
G02*
X107270250Y-80432750I0J-250000D01*
G01*
X107270250Y-81682750D01*
G75*
G02*
X107020250Y-81932750I-250000J0D01*
G01*
X106270250Y-81932750D01*
G75*
G02*
X106020250Y-81682750I0J250000D01*
G01*
G37*
%TD*%
%TO.C,D31*%
G36*
G01*
X108820250Y-62632750D02*
X108820250Y-61382750D01*
G75*
G02*
X109070250Y-61132750I250000J0D01*
G01*
X109820250Y-61132750D01*
G75*
G02*
X110070250Y-61382750I0J-250000D01*
G01*
X110070250Y-62632750D01*
G75*
G02*
X109820250Y-62882750I-250000J0D01*
G01*
X109070250Y-62882750D01*
G75*
G02*
X108820250Y-62632750I0J250000D01*
G01*
G37*
G36*
G01*
X106020250Y-62632750D02*
X106020250Y-61382750D01*
G75*
G02*
X106270250Y-61132750I250000J0D01*
G01*
X107020250Y-61132750D01*
G75*
G02*
X107270250Y-61382750I0J-250000D01*
G01*
X107270250Y-62632750D01*
G75*
G02*
X107020250Y-62882750I-250000J0D01*
G01*
X106270250Y-62882750D01*
G75*
G02*
X106020250Y-62632750I0J250000D01*
G01*
G37*
%TD*%
%TO.C,D30*%
G36*
G01*
X95449920Y-137231516D02*
X96074920Y-136148984D01*
G75*
G02*
X96416426Y-136057478I216506J-125000D01*
G01*
X97065946Y-136432478D01*
G75*
G02*
X97157452Y-136773984I-125000J-216506D01*
G01*
X96532452Y-137856516D01*
G75*
G02*
X96190946Y-137948022I-216506J125000D01*
G01*
X95541426Y-137573022D01*
G75*
G02*
X95449920Y-137231516I125000J216506D01*
G01*
G37*
G36*
G01*
X93025048Y-135831516D02*
X93650048Y-134748984D01*
G75*
G02*
X93991554Y-134657478I216506J-125000D01*
G01*
X94641074Y-135032478D01*
G75*
G02*
X94732580Y-135373984I-125000J-216506D01*
G01*
X94107580Y-136456516D01*
G75*
G02*
X93766074Y-136548022I-216506J125000D01*
G01*
X93116554Y-136173022D01*
G75*
G02*
X93025048Y-135831516I125000J216506D01*
G01*
G37*
%TD*%
%TO.C,D29*%
G36*
G01*
X89770250Y-117115750D02*
X89770250Y-115865750D01*
G75*
G02*
X90020250Y-115615750I250000J0D01*
G01*
X90770250Y-115615750D01*
G75*
G02*
X91020250Y-115865750I0J-250000D01*
G01*
X91020250Y-117115750D01*
G75*
G02*
X90770250Y-117365750I-250000J0D01*
G01*
X90020250Y-117365750D01*
G75*
G02*
X89770250Y-117115750I0J250000D01*
G01*
G37*
G36*
G01*
X86970250Y-117115750D02*
X86970250Y-115865750D01*
G75*
G02*
X87220250Y-115615750I250000J0D01*
G01*
X87970250Y-115615750D01*
G75*
G02*
X88220250Y-115865750I0J-250000D01*
G01*
X88220250Y-117115750D01*
G75*
G02*
X87970250Y-117365750I-250000J0D01*
G01*
X87220250Y-117365750D01*
G75*
G02*
X86970250Y-117115750I0J250000D01*
G01*
G37*
%TD*%
%TO.C,D28*%
G36*
G01*
X89770250Y-98192750D02*
X89770250Y-96942750D01*
G75*
G02*
X90020250Y-96692750I250000J0D01*
G01*
X90770250Y-96692750D01*
G75*
G02*
X91020250Y-96942750I0J-250000D01*
G01*
X91020250Y-98192750D01*
G75*
G02*
X90770250Y-98442750I-250000J0D01*
G01*
X90020250Y-98442750D01*
G75*
G02*
X89770250Y-98192750I0J250000D01*
G01*
G37*
G36*
G01*
X86970250Y-98192750D02*
X86970250Y-96942750D01*
G75*
G02*
X87220250Y-96692750I250000J0D01*
G01*
X87970250Y-96692750D01*
G75*
G02*
X88220250Y-96942750I0J-250000D01*
G01*
X88220250Y-98192750D01*
G75*
G02*
X87970250Y-98442750I-250000J0D01*
G01*
X87220250Y-98442750D01*
G75*
G02*
X86970250Y-98192750I0J250000D01*
G01*
G37*
%TD*%
%TO.C,D27*%
G36*
G01*
X89770250Y-79142750D02*
X89770250Y-77892750D01*
G75*
G02*
X90020250Y-77642750I250000J0D01*
G01*
X90770250Y-77642750D01*
G75*
G02*
X91020250Y-77892750I0J-250000D01*
G01*
X91020250Y-79142750D01*
G75*
G02*
X90770250Y-79392750I-250000J0D01*
G01*
X90020250Y-79392750D01*
G75*
G02*
X89770250Y-79142750I0J250000D01*
G01*
G37*
G36*
G01*
X86970250Y-79142750D02*
X86970250Y-77892750D01*
G75*
G02*
X87220250Y-77642750I250000J0D01*
G01*
X87970250Y-77642750D01*
G75*
G02*
X88220250Y-77892750I0J-250000D01*
G01*
X88220250Y-79142750D01*
G75*
G02*
X87970250Y-79392750I-250000J0D01*
G01*
X87220250Y-79392750D01*
G75*
G02*
X86970250Y-79142750I0J250000D01*
G01*
G37*
%TD*%
%TO.C,D26*%
G36*
G01*
X89770250Y-60092750D02*
X89770250Y-58842750D01*
G75*
G02*
X90020250Y-58592750I250000J0D01*
G01*
X90770250Y-58592750D01*
G75*
G02*
X91020250Y-58842750I0J-250000D01*
G01*
X91020250Y-60092750D01*
G75*
G02*
X90770250Y-60342750I-250000J0D01*
G01*
X90020250Y-60342750D01*
G75*
G02*
X89770250Y-60092750I0J250000D01*
G01*
G37*
G36*
G01*
X86970250Y-60092750D02*
X86970250Y-58842750D01*
G75*
G02*
X87220250Y-58592750I250000J0D01*
G01*
X87970250Y-58592750D01*
G75*
G02*
X88220250Y-58842750I0J-250000D01*
G01*
X88220250Y-60092750D01*
G75*
G02*
X87970250Y-60342750I-250000J0D01*
G01*
X87220250Y-60342750D01*
G75*
G02*
X86970250Y-60092750I0J250000D01*
G01*
G37*
%TD*%
%TO.C,D25*%
G36*
G01*
X70720250Y-133752750D02*
X70720250Y-132502750D01*
G75*
G02*
X70970250Y-132252750I250000J0D01*
G01*
X71720250Y-132252750D01*
G75*
G02*
X71970250Y-132502750I0J-250000D01*
G01*
X71970250Y-133752750D01*
G75*
G02*
X71720250Y-134002750I-250000J0D01*
G01*
X70970250Y-134002750D01*
G75*
G02*
X70720250Y-133752750I0J250000D01*
G01*
G37*
G36*
G01*
X67920250Y-133752750D02*
X67920250Y-132502750D01*
G75*
G02*
X68170250Y-132252750I250000J0D01*
G01*
X68920250Y-132252750D01*
G75*
G02*
X69170250Y-132502750I0J-250000D01*
G01*
X69170250Y-133752750D01*
G75*
G02*
X68920250Y-134002750I-250000J0D01*
G01*
X68170250Y-134002750D01*
G75*
G02*
X67920250Y-133752750I0J250000D01*
G01*
G37*
%TD*%
%TO.C,D24*%
G36*
G01*
X70720250Y-114702750D02*
X70720250Y-113452750D01*
G75*
G02*
X70970250Y-113202750I250000J0D01*
G01*
X71720250Y-113202750D01*
G75*
G02*
X71970250Y-113452750I0J-250000D01*
G01*
X71970250Y-114702750D01*
G75*
G02*
X71720250Y-114952750I-250000J0D01*
G01*
X70970250Y-114952750D01*
G75*
G02*
X70720250Y-114702750I0J250000D01*
G01*
G37*
G36*
G01*
X67920250Y-114702750D02*
X67920250Y-113452750D01*
G75*
G02*
X68170250Y-113202750I250000J0D01*
G01*
X68920250Y-113202750D01*
G75*
G02*
X69170250Y-113452750I0J-250000D01*
G01*
X69170250Y-114702750D01*
G75*
G02*
X68920250Y-114952750I-250000J0D01*
G01*
X68170250Y-114952750D01*
G75*
G02*
X67920250Y-114702750I0J250000D01*
G01*
G37*
%TD*%
%TO.C,D23*%
G36*
G01*
X70720250Y-95525750D02*
X70720250Y-94275750D01*
G75*
G02*
X70970250Y-94025750I250000J0D01*
G01*
X71720250Y-94025750D01*
G75*
G02*
X71970250Y-94275750I0J-250000D01*
G01*
X71970250Y-95525750D01*
G75*
G02*
X71720250Y-95775750I-250000J0D01*
G01*
X70970250Y-95775750D01*
G75*
G02*
X70720250Y-95525750I0J250000D01*
G01*
G37*
G36*
G01*
X67920250Y-95525750D02*
X67920250Y-94275750D01*
G75*
G02*
X68170250Y-94025750I250000J0D01*
G01*
X68920250Y-94025750D01*
G75*
G02*
X69170250Y-94275750I0J-250000D01*
G01*
X69170250Y-95525750D01*
G75*
G02*
X68920250Y-95775750I-250000J0D01*
G01*
X68170250Y-95775750D01*
G75*
G02*
X67920250Y-95525750I0J250000D01*
G01*
G37*
%TD*%
%TO.C,D22*%
G36*
G01*
X70720250Y-76602750D02*
X70720250Y-75352750D01*
G75*
G02*
X70970250Y-75102750I250000J0D01*
G01*
X71720250Y-75102750D01*
G75*
G02*
X71970250Y-75352750I0J-250000D01*
G01*
X71970250Y-76602750D01*
G75*
G02*
X71720250Y-76852750I-250000J0D01*
G01*
X70970250Y-76852750D01*
G75*
G02*
X70720250Y-76602750I0J250000D01*
G01*
G37*
G36*
G01*
X67920250Y-76602750D02*
X67920250Y-75352750D01*
G75*
G02*
X68170250Y-75102750I250000J0D01*
G01*
X68920250Y-75102750D01*
G75*
G02*
X69170250Y-75352750I0J-250000D01*
G01*
X69170250Y-76602750D01*
G75*
G02*
X68920250Y-76852750I-250000J0D01*
G01*
X68170250Y-76852750D01*
G75*
G02*
X67920250Y-76602750I0J250000D01*
G01*
G37*
%TD*%
%TO.C,D21*%
G36*
G01*
X70720250Y-57552750D02*
X70720250Y-56302750D01*
G75*
G02*
X70970250Y-56052750I250000J0D01*
G01*
X71720250Y-56052750D01*
G75*
G02*
X71970250Y-56302750I0J-250000D01*
G01*
X71970250Y-57552750D01*
G75*
G02*
X71720250Y-57802750I-250000J0D01*
G01*
X70970250Y-57802750D01*
G75*
G02*
X70720250Y-57552750I0J250000D01*
G01*
G37*
G36*
G01*
X67920250Y-57552750D02*
X67920250Y-56302750D01*
G75*
G02*
X68170250Y-56052750I250000J0D01*
G01*
X68920250Y-56052750D01*
G75*
G02*
X69170250Y-56302750I0J-250000D01*
G01*
X69170250Y-57552750D01*
G75*
G02*
X68920250Y-57802750I-250000J0D01*
G01*
X68170250Y-57802750D01*
G75*
G02*
X67920250Y-57552750I0J250000D01*
G01*
G37*
%TD*%
%TO.C,D20*%
G36*
G01*
X51670250Y-135022750D02*
X51670250Y-133772750D01*
G75*
G02*
X51920250Y-133522750I250000J0D01*
G01*
X52670250Y-133522750D01*
G75*
G02*
X52920250Y-133772750I0J-250000D01*
G01*
X52920250Y-135022750D01*
G75*
G02*
X52670250Y-135272750I-250000J0D01*
G01*
X51920250Y-135272750D01*
G75*
G02*
X51670250Y-135022750I0J250000D01*
G01*
G37*
G36*
G01*
X48870250Y-135022750D02*
X48870250Y-133772750D01*
G75*
G02*
X49120250Y-133522750I250000J0D01*
G01*
X49870250Y-133522750D01*
G75*
G02*
X50120250Y-133772750I0J-250000D01*
G01*
X50120250Y-135022750D01*
G75*
G02*
X49870250Y-135272750I-250000J0D01*
G01*
X49120250Y-135272750D01*
G75*
G02*
X48870250Y-135022750I0J250000D01*
G01*
G37*
%TD*%
%TO.C,D19*%
G36*
G01*
X51670250Y-115972750D02*
X51670250Y-114722750D01*
G75*
G02*
X51920250Y-114472750I250000J0D01*
G01*
X52670250Y-114472750D01*
G75*
G02*
X52920250Y-114722750I0J-250000D01*
G01*
X52920250Y-115972750D01*
G75*
G02*
X52670250Y-116222750I-250000J0D01*
G01*
X51920250Y-116222750D01*
G75*
G02*
X51670250Y-115972750I0J250000D01*
G01*
G37*
G36*
G01*
X48870250Y-115972750D02*
X48870250Y-114722750D01*
G75*
G02*
X49120250Y-114472750I250000J0D01*
G01*
X49870250Y-114472750D01*
G75*
G02*
X50120250Y-114722750I0J-250000D01*
G01*
X50120250Y-115972750D01*
G75*
G02*
X49870250Y-116222750I-250000J0D01*
G01*
X49120250Y-116222750D01*
G75*
G02*
X48870250Y-115972750I0J250000D01*
G01*
G37*
%TD*%
%TO.C,D18*%
G36*
G01*
X51670250Y-96922750D02*
X51670250Y-95672750D01*
G75*
G02*
X51920250Y-95422750I250000J0D01*
G01*
X52670250Y-95422750D01*
G75*
G02*
X52920250Y-95672750I0J-250000D01*
G01*
X52920250Y-96922750D01*
G75*
G02*
X52670250Y-97172750I-250000J0D01*
G01*
X51920250Y-97172750D01*
G75*
G02*
X51670250Y-96922750I0J250000D01*
G01*
G37*
G36*
G01*
X48870250Y-96922750D02*
X48870250Y-95672750D01*
G75*
G02*
X49120250Y-95422750I250000J0D01*
G01*
X49870250Y-95422750D01*
G75*
G02*
X50120250Y-95672750I0J-250000D01*
G01*
X50120250Y-96922750D01*
G75*
G02*
X49870250Y-97172750I-250000J0D01*
G01*
X49120250Y-97172750D01*
G75*
G02*
X48870250Y-96922750I0J250000D01*
G01*
G37*
%TD*%
%TO.C,D17*%
G36*
G01*
X51670250Y-77872750D02*
X51670250Y-76622750D01*
G75*
G02*
X51920250Y-76372750I250000J0D01*
G01*
X52670250Y-76372750D01*
G75*
G02*
X52920250Y-76622750I0J-250000D01*
G01*
X52920250Y-77872750D01*
G75*
G02*
X52670250Y-78122750I-250000J0D01*
G01*
X51920250Y-78122750D01*
G75*
G02*
X51670250Y-77872750I0J250000D01*
G01*
G37*
G36*
G01*
X48870250Y-77872750D02*
X48870250Y-76622750D01*
G75*
G02*
X49120250Y-76372750I250000J0D01*
G01*
X49870250Y-76372750D01*
G75*
G02*
X50120250Y-76622750I0J-250000D01*
G01*
X50120250Y-77872750D01*
G75*
G02*
X49870250Y-78122750I-250000J0D01*
G01*
X49120250Y-78122750D01*
G75*
G02*
X48870250Y-77872750I0J250000D01*
G01*
G37*
%TD*%
%TO.C,D16*%
G36*
G01*
X51670250Y-58695750D02*
X51670250Y-57445750D01*
G75*
G02*
X51920250Y-57195750I250000J0D01*
G01*
X52670250Y-57195750D01*
G75*
G02*
X52920250Y-57445750I0J-250000D01*
G01*
X52920250Y-58695750D01*
G75*
G02*
X52670250Y-58945750I-250000J0D01*
G01*
X51920250Y-58945750D01*
G75*
G02*
X51670250Y-58695750I0J250000D01*
G01*
G37*
G36*
G01*
X48870250Y-58695750D02*
X48870250Y-57445750D01*
G75*
G02*
X49120250Y-57195750I250000J0D01*
G01*
X49870250Y-57195750D01*
G75*
G02*
X50120250Y-57445750I0J-250000D01*
G01*
X50120250Y-58695750D01*
G75*
G02*
X49870250Y-58945750I-250000J0D01*
G01*
X49120250Y-58945750D01*
G75*
G02*
X48870250Y-58695750I0J250000D01*
G01*
G37*
%TD*%
%TO.C,D15*%
G36*
G01*
X32620250Y-138832750D02*
X32620250Y-137582750D01*
G75*
G02*
X32870250Y-137332750I250000J0D01*
G01*
X33620250Y-137332750D01*
G75*
G02*
X33870250Y-137582750I0J-250000D01*
G01*
X33870250Y-138832750D01*
G75*
G02*
X33620250Y-139082750I-250000J0D01*
G01*
X32870250Y-139082750D01*
G75*
G02*
X32620250Y-138832750I0J250000D01*
G01*
G37*
G36*
G01*
X29820250Y-138832750D02*
X29820250Y-137582750D01*
G75*
G02*
X30070250Y-137332750I250000J0D01*
G01*
X30820250Y-137332750D01*
G75*
G02*
X31070250Y-137582750I0J-250000D01*
G01*
X31070250Y-138832750D01*
G75*
G02*
X30820250Y-139082750I-250000J0D01*
G01*
X30070250Y-139082750D01*
G75*
G02*
X29820250Y-138832750I0J250000D01*
G01*
G37*
%TD*%
%TO.C,D14*%
G36*
G01*
X32620250Y-119782750D02*
X32620250Y-118532750D01*
G75*
G02*
X32870250Y-118282750I250000J0D01*
G01*
X33620250Y-118282750D01*
G75*
G02*
X33870250Y-118532750I0J-250000D01*
G01*
X33870250Y-119782750D01*
G75*
G02*
X33620250Y-120032750I-250000J0D01*
G01*
X32870250Y-120032750D01*
G75*
G02*
X32620250Y-119782750I0J250000D01*
G01*
G37*
G36*
G01*
X29820250Y-119782750D02*
X29820250Y-118532750D01*
G75*
G02*
X30070250Y-118282750I250000J0D01*
G01*
X30820250Y-118282750D01*
G75*
G02*
X31070250Y-118532750I0J-250000D01*
G01*
X31070250Y-119782750D01*
G75*
G02*
X30820250Y-120032750I-250000J0D01*
G01*
X30070250Y-120032750D01*
G75*
G02*
X29820250Y-119782750I0J250000D01*
G01*
G37*
%TD*%
%TO.C,D13*%
G36*
G01*
X32620250Y-100732750D02*
X32620250Y-99482750D01*
G75*
G02*
X32870250Y-99232750I250000J0D01*
G01*
X33620250Y-99232750D01*
G75*
G02*
X33870250Y-99482750I0J-250000D01*
G01*
X33870250Y-100732750D01*
G75*
G02*
X33620250Y-100982750I-250000J0D01*
G01*
X32870250Y-100982750D01*
G75*
G02*
X32620250Y-100732750I0J250000D01*
G01*
G37*
G36*
G01*
X29820250Y-100732750D02*
X29820250Y-99482750D01*
G75*
G02*
X30070250Y-99232750I250000J0D01*
G01*
X30820250Y-99232750D01*
G75*
G02*
X31070250Y-99482750I0J-250000D01*
G01*
X31070250Y-100732750D01*
G75*
G02*
X30820250Y-100982750I-250000J0D01*
G01*
X30070250Y-100982750D01*
G75*
G02*
X29820250Y-100732750I0J250000D01*
G01*
G37*
%TD*%
%TO.C,D12*%
G36*
G01*
X32617250Y-81682750D02*
X32617250Y-80432750D01*
G75*
G02*
X32867250Y-80182750I250000J0D01*
G01*
X33617250Y-80182750D01*
G75*
G02*
X33867250Y-80432750I0J-250000D01*
G01*
X33867250Y-81682750D01*
G75*
G02*
X33617250Y-81932750I-250000J0D01*
G01*
X32867250Y-81932750D01*
G75*
G02*
X32617250Y-81682750I0J250000D01*
G01*
G37*
G36*
G01*
X29817250Y-81682750D02*
X29817250Y-80432750D01*
G75*
G02*
X30067250Y-80182750I250000J0D01*
G01*
X30817250Y-80182750D01*
G75*
G02*
X31067250Y-80432750I0J-250000D01*
G01*
X31067250Y-81682750D01*
G75*
G02*
X30817250Y-81932750I-250000J0D01*
G01*
X30067250Y-81932750D01*
G75*
G02*
X29817250Y-81682750I0J250000D01*
G01*
G37*
%TD*%
%TO.C,D11*%
G36*
G01*
X32623250Y-62632750D02*
X32623250Y-61382750D01*
G75*
G02*
X32873250Y-61132750I250000J0D01*
G01*
X33623250Y-61132750D01*
G75*
G02*
X33873250Y-61382750I0J-250000D01*
G01*
X33873250Y-62632750D01*
G75*
G02*
X33623250Y-62882750I-250000J0D01*
G01*
X32873250Y-62882750D01*
G75*
G02*
X32623250Y-62632750I0J250000D01*
G01*
G37*
G36*
G01*
X29823250Y-62632750D02*
X29823250Y-61382750D01*
G75*
G02*
X30073250Y-61132750I250000J0D01*
G01*
X30823250Y-61132750D01*
G75*
G02*
X31073250Y-61382750I0J-250000D01*
G01*
X31073250Y-62632750D01*
G75*
G02*
X30823250Y-62882750I-250000J0D01*
G01*
X30073250Y-62882750D01*
G75*
G02*
X29823250Y-62632750I0J250000D01*
G01*
G37*
%TD*%
%TO.C,D10*%
G36*
G01*
X13570250Y-139340750D02*
X13570250Y-138090750D01*
G75*
G02*
X13820250Y-137840750I250000J0D01*
G01*
X14570250Y-137840750D01*
G75*
G02*
X14820250Y-138090750I0J-250000D01*
G01*
X14820250Y-139340750D01*
G75*
G02*
X14570250Y-139590750I-250000J0D01*
G01*
X13820250Y-139590750D01*
G75*
G02*
X13570250Y-139340750I0J250000D01*
G01*
G37*
G36*
G01*
X10770250Y-139340750D02*
X10770250Y-138090750D01*
G75*
G02*
X11020250Y-137840750I250000J0D01*
G01*
X11770250Y-137840750D01*
G75*
G02*
X12020250Y-138090750I0J-250000D01*
G01*
X12020250Y-139340750D01*
G75*
G02*
X11770250Y-139590750I-250000J0D01*
G01*
X11020250Y-139590750D01*
G75*
G02*
X10770250Y-139340750I0J250000D01*
G01*
G37*
%TD*%
%TO.C,D9*%
G36*
G01*
X13570250Y-120290750D02*
X13570250Y-119040750D01*
G75*
G02*
X13820250Y-118790750I250000J0D01*
G01*
X14570250Y-118790750D01*
G75*
G02*
X14820250Y-119040750I0J-250000D01*
G01*
X14820250Y-120290750D01*
G75*
G02*
X14570250Y-120540750I-250000J0D01*
G01*
X13820250Y-120540750D01*
G75*
G02*
X13570250Y-120290750I0J250000D01*
G01*
G37*
G36*
G01*
X10770250Y-120290750D02*
X10770250Y-119040750D01*
G75*
G02*
X11020250Y-118790750I250000J0D01*
G01*
X11770250Y-118790750D01*
G75*
G02*
X12020250Y-119040750I0J-250000D01*
G01*
X12020250Y-120290750D01*
G75*
G02*
X11770250Y-120540750I-250000J0D01*
G01*
X11020250Y-120540750D01*
G75*
G02*
X10770250Y-120290750I0J250000D01*
G01*
G37*
%TD*%
%TO.C,D8*%
G36*
G01*
X13570250Y-101240750D02*
X13570250Y-99990750D01*
G75*
G02*
X13820250Y-99740750I250000J0D01*
G01*
X14570250Y-99740750D01*
G75*
G02*
X14820250Y-99990750I0J-250000D01*
G01*
X14820250Y-101240750D01*
G75*
G02*
X14570250Y-101490750I-250000J0D01*
G01*
X13820250Y-101490750D01*
G75*
G02*
X13570250Y-101240750I0J250000D01*
G01*
G37*
G36*
G01*
X10770250Y-101240750D02*
X10770250Y-99990750D01*
G75*
G02*
X11020250Y-99740750I250000J0D01*
G01*
X11770250Y-99740750D01*
G75*
G02*
X12020250Y-99990750I0J-250000D01*
G01*
X12020250Y-101240750D01*
G75*
G02*
X11770250Y-101490750I-250000J0D01*
G01*
X11020250Y-101490750D01*
G75*
G02*
X10770250Y-101240750I0J250000D01*
G01*
G37*
%TD*%
%TO.C,D7*%
G36*
G01*
X13570250Y-82190750D02*
X13570250Y-80940750D01*
G75*
G02*
X13820250Y-80690750I250000J0D01*
G01*
X14570250Y-80690750D01*
G75*
G02*
X14820250Y-80940750I0J-250000D01*
G01*
X14820250Y-82190750D01*
G75*
G02*
X14570250Y-82440750I-250000J0D01*
G01*
X13820250Y-82440750D01*
G75*
G02*
X13570250Y-82190750I0J250000D01*
G01*
G37*
G36*
G01*
X10770250Y-82190750D02*
X10770250Y-80940750D01*
G75*
G02*
X11020250Y-80690750I250000J0D01*
G01*
X11770250Y-80690750D01*
G75*
G02*
X12020250Y-80940750I0J-250000D01*
G01*
X12020250Y-82190750D01*
G75*
G02*
X11770250Y-82440750I-250000J0D01*
G01*
X11020250Y-82440750D01*
G75*
G02*
X10770250Y-82190750I0J250000D01*
G01*
G37*
%TD*%
%TO.C,D6*%
G36*
G01*
X13570250Y-63140750D02*
X13570250Y-61890750D01*
G75*
G02*
X13820250Y-61640750I250000J0D01*
G01*
X14570250Y-61640750D01*
G75*
G02*
X14820250Y-61890750I0J-250000D01*
G01*
X14820250Y-63140750D01*
G75*
G02*
X14570250Y-63390750I-250000J0D01*
G01*
X13820250Y-63390750D01*
G75*
G02*
X13570250Y-63140750I0J250000D01*
G01*
G37*
G36*
G01*
X10770250Y-63140750D02*
X10770250Y-61890750D01*
G75*
G02*
X11020250Y-61640750I250000J0D01*
G01*
X11770250Y-61640750D01*
G75*
G02*
X12020250Y-61890750I0J-250000D01*
G01*
X12020250Y-63140750D01*
G75*
G02*
X11770250Y-63390750I-250000J0D01*
G01*
X11020250Y-63390750D01*
G75*
G02*
X10770250Y-63140750I0J250000D01*
G01*
G37*
%TD*%
%TO.C,D5*%
G36*
G01*
X-10305750Y-139340750D02*
X-10305750Y-138090750D01*
G75*
G02*
X-10055750Y-137840750I250000J0D01*
G01*
X-9305750Y-137840750D01*
G75*
G02*
X-9055750Y-138090750I0J-250000D01*
G01*
X-9055750Y-139340750D01*
G75*
G02*
X-9305750Y-139590750I-250000J0D01*
G01*
X-10055750Y-139590750D01*
G75*
G02*
X-10305750Y-139340750I0J250000D01*
G01*
G37*
G36*
G01*
X-13105750Y-139340750D02*
X-13105750Y-138090750D01*
G75*
G02*
X-12855750Y-137840750I250000J0D01*
G01*
X-12105750Y-137840750D01*
G75*
G02*
X-11855750Y-138090750I0J-250000D01*
G01*
X-11855750Y-139340750D01*
G75*
G02*
X-12105750Y-139590750I-250000J0D01*
G01*
X-12855750Y-139590750D01*
G75*
G02*
X-13105750Y-139340750I0J250000D01*
G01*
G37*
%TD*%
%TO.C,D4*%
G36*
G01*
X-10305750Y-120290750D02*
X-10305750Y-119040750D01*
G75*
G02*
X-10055750Y-118790750I250000J0D01*
G01*
X-9305750Y-118790750D01*
G75*
G02*
X-9055750Y-119040750I0J-250000D01*
G01*
X-9055750Y-120290750D01*
G75*
G02*
X-9305750Y-120540750I-250000J0D01*
G01*
X-10055750Y-120540750D01*
G75*
G02*
X-10305750Y-120290750I0J250000D01*
G01*
G37*
G36*
G01*
X-13105750Y-120290750D02*
X-13105750Y-119040750D01*
G75*
G02*
X-12855750Y-118790750I250000J0D01*
G01*
X-12105750Y-118790750D01*
G75*
G02*
X-11855750Y-119040750I0J-250000D01*
G01*
X-11855750Y-120290750D01*
G75*
G02*
X-12105750Y-120540750I-250000J0D01*
G01*
X-12855750Y-120540750D01*
G75*
G02*
X-13105750Y-120290750I0J250000D01*
G01*
G37*
%TD*%
%TO.C,D3*%
G36*
G01*
X-10305750Y-101240750D02*
X-10305750Y-99990750D01*
G75*
G02*
X-10055750Y-99740750I250000J0D01*
G01*
X-9305750Y-99740750D01*
G75*
G02*
X-9055750Y-99990750I0J-250000D01*
G01*
X-9055750Y-101240750D01*
G75*
G02*
X-9305750Y-101490750I-250000J0D01*
G01*
X-10055750Y-101490750D01*
G75*
G02*
X-10305750Y-101240750I0J250000D01*
G01*
G37*
G36*
G01*
X-13105750Y-101240750D02*
X-13105750Y-99990750D01*
G75*
G02*
X-12855750Y-99740750I250000J0D01*
G01*
X-12105750Y-99740750D01*
G75*
G02*
X-11855750Y-99990750I0J-250000D01*
G01*
X-11855750Y-101240750D01*
G75*
G02*
X-12105750Y-101490750I-250000J0D01*
G01*
X-12855750Y-101490750D01*
G75*
G02*
X-13105750Y-101240750I0J250000D01*
G01*
G37*
%TD*%
%TO.C,D2*%
G36*
G01*
X-10305750Y-82190750D02*
X-10305750Y-80940750D01*
G75*
G02*
X-10055750Y-80690750I250000J0D01*
G01*
X-9305750Y-80690750D01*
G75*
G02*
X-9055750Y-80940750I0J-250000D01*
G01*
X-9055750Y-82190750D01*
G75*
G02*
X-9305750Y-82440750I-250000J0D01*
G01*
X-10055750Y-82440750D01*
G75*
G02*
X-10305750Y-82190750I0J250000D01*
G01*
G37*
G36*
G01*
X-13105750Y-82190750D02*
X-13105750Y-80940750D01*
G75*
G02*
X-12855750Y-80690750I250000J0D01*
G01*
X-12105750Y-80690750D01*
G75*
G02*
X-11855750Y-80940750I0J-250000D01*
G01*
X-11855750Y-82190750D01*
G75*
G02*
X-12105750Y-82440750I-250000J0D01*
G01*
X-12855750Y-82440750D01*
G75*
G02*
X-13105750Y-82190750I0J250000D01*
G01*
G37*
%TD*%
%TO.C,D1*%
G36*
G01*
X-10308750Y-63140750D02*
X-10308750Y-61890750D01*
G75*
G02*
X-10058750Y-61640750I250000J0D01*
G01*
X-9308750Y-61640750D01*
G75*
G02*
X-9058750Y-61890750I0J-250000D01*
G01*
X-9058750Y-63140750D01*
G75*
G02*
X-9308750Y-63390750I-250000J0D01*
G01*
X-10058750Y-63390750D01*
G75*
G02*
X-10308750Y-63140750I0J250000D01*
G01*
G37*
G36*
G01*
X-13108750Y-63140750D02*
X-13108750Y-61890750D01*
G75*
G02*
X-12858750Y-61640750I250000J0D01*
G01*
X-12108750Y-61640750D01*
G75*
G02*
X-11858750Y-61890750I0J-250000D01*
G01*
X-11858750Y-63140750D01*
G75*
G02*
X-12108750Y-63390750I-250000J0D01*
G01*
X-12858750Y-63390750D01*
G75*
G02*
X-13108750Y-63140750I0J250000D01*
G01*
G37*
%TD*%
M02*
