%TF.GenerationSoftware,KiCad,Pcbnew,(5.1.10)-1*%
%TF.CreationDate,2021-09-03T09:57:26+02:00*%
%TF.ProjectId,T1,54312e6b-6963-4616-945f-706362585858,1.1*%
%TF.SameCoordinates,Original*%
%TF.FileFunction,Paste,Bot*%
%TF.FilePolarity,Positive*%
%FSLAX46Y46*%
G04 Gerber Fmt 4.6, Leading zero omitted, Abs format (unit mm)*
G04 Created by KiCad (PCBNEW (5.1.10)-1) date 2021-09-03 09:57:26*
%MOMM*%
%LPD*%
G01*
G04 APERTURE LIST*
%ADD10C,0.100000*%
%ADD11R,0.900000X0.800000*%
G04 APERTURE END LIST*
%TO.C,C12*%
G36*
G01*
X161419000Y-112369999D02*
X161419000Y-113670001D01*
G75*
G02*
X161169001Y-113920000I-249999J0D01*
G01*
X160518999Y-113920000D01*
G75*
G02*
X160269000Y-113670001I0J249999D01*
G01*
X160269000Y-112369999D01*
G75*
G02*
X160518999Y-112120000I249999J0D01*
G01*
X161169001Y-112120000D01*
G75*
G02*
X161419000Y-112369999I0J-249999D01*
G01*
G37*
G36*
G01*
X164369000Y-112369999D02*
X164369000Y-113670001D01*
G75*
G02*
X164119001Y-113920000I-249999J0D01*
G01*
X163468999Y-113920000D01*
G75*
G02*
X163219000Y-113670001I0J249999D01*
G01*
X163219000Y-112369999D01*
G75*
G02*
X163468999Y-112120000I249999J0D01*
G01*
X164119001Y-112120000D01*
G75*
G02*
X164369000Y-112369999I0J-249999D01*
G01*
G37*
%TD*%
D10*
%TO.C,U2*%
G36*
X196673548Y-81443060D02*
G01*
X197062456Y-81054152D01*
X198123116Y-82114812D01*
X197734208Y-82503720D01*
X196673548Y-81443060D01*
G37*
G36*
X197239233Y-80877374D02*
G01*
X197628141Y-80488466D01*
X198688801Y-81549126D01*
X198299893Y-81938034D01*
X197239233Y-80877374D01*
G37*
G36*
X197804918Y-80311689D02*
G01*
X198193826Y-79922781D01*
X199254486Y-80983441D01*
X198865578Y-81372349D01*
X197804918Y-80311689D01*
G37*
G36*
X198370604Y-79746004D02*
G01*
X198759512Y-79357096D01*
X199820172Y-80417756D01*
X199431264Y-80806664D01*
X198370604Y-79746004D01*
G37*
G36*
X198936289Y-79180318D02*
G01*
X199325197Y-78791410D01*
X200385857Y-79852070D01*
X199996949Y-80240978D01*
X198936289Y-79180318D01*
G37*
G36*
X199501975Y-78614633D02*
G01*
X199890883Y-78225725D01*
X200951543Y-79286385D01*
X200562635Y-79675293D01*
X199501975Y-78614633D01*
G37*
G36*
X200067660Y-78048947D02*
G01*
X200456568Y-77660039D01*
X201517228Y-78720699D01*
X201128320Y-79109607D01*
X200067660Y-78048947D01*
G37*
G36*
X200633346Y-77483262D02*
G01*
X201022254Y-77094354D01*
X202082914Y-78155014D01*
X201694006Y-78543922D01*
X200633346Y-77483262D01*
G37*
G36*
X201199031Y-76917576D02*
G01*
X201587939Y-76528668D01*
X202648599Y-77589328D01*
X202259691Y-77978236D01*
X201199031Y-76917576D01*
G37*
G36*
X201764716Y-76351891D02*
G01*
X202153624Y-75962983D01*
X203214284Y-77023643D01*
X202825376Y-77412551D01*
X201764716Y-76351891D01*
G37*
G36*
X202330402Y-75786206D02*
G01*
X202719310Y-75397298D01*
X203779970Y-76457958D01*
X203391062Y-76846866D01*
X202330402Y-75786206D01*
G37*
G36*
X202719310Y-74442702D02*
G01*
X202330402Y-74053794D01*
X203391062Y-72993134D01*
X203779970Y-73382042D01*
X202719310Y-74442702D01*
G37*
G36*
X202153624Y-73877017D02*
G01*
X201764716Y-73488109D01*
X202825376Y-72427449D01*
X203214284Y-72816357D01*
X202153624Y-73877017D01*
G37*
G36*
X201587939Y-73311332D02*
G01*
X201199031Y-72922424D01*
X202259691Y-71861764D01*
X202648599Y-72250672D01*
X201587939Y-73311332D01*
G37*
G36*
X201022254Y-72745646D02*
G01*
X200633346Y-72356738D01*
X201694006Y-71296078D01*
X202082914Y-71684986D01*
X201022254Y-72745646D01*
G37*
G36*
X200456568Y-72179961D02*
G01*
X200067660Y-71791053D01*
X201128320Y-70730393D01*
X201517228Y-71119301D01*
X200456568Y-72179961D01*
G37*
G36*
X199890883Y-71614275D02*
G01*
X199501975Y-71225367D01*
X200562635Y-70164707D01*
X200951543Y-70553615D01*
X199890883Y-71614275D01*
G37*
G36*
X199325197Y-71048590D02*
G01*
X198936289Y-70659682D01*
X199996949Y-69599022D01*
X200385857Y-69987930D01*
X199325197Y-71048590D01*
G37*
G36*
X198759512Y-70482904D02*
G01*
X198370604Y-70093996D01*
X199431264Y-69033336D01*
X199820172Y-69422244D01*
X198759512Y-70482904D01*
G37*
G36*
X198193826Y-69917219D02*
G01*
X197804918Y-69528311D01*
X198865578Y-68467651D01*
X199254486Y-68856559D01*
X198193826Y-69917219D01*
G37*
G36*
X197628141Y-69351534D02*
G01*
X197239233Y-68962626D01*
X198299893Y-67901966D01*
X198688801Y-68290874D01*
X197628141Y-69351534D01*
G37*
G36*
X197062456Y-68785848D02*
G01*
X196673548Y-68396940D01*
X197734208Y-67336280D01*
X198123116Y-67725188D01*
X197062456Y-68785848D01*
G37*
G36*
X194269384Y-67725188D02*
G01*
X194658292Y-67336280D01*
X195718952Y-68396940D01*
X195330044Y-68785848D01*
X194269384Y-67725188D01*
G37*
G36*
X193703699Y-68290874D02*
G01*
X194092607Y-67901966D01*
X195153267Y-68962626D01*
X194764359Y-69351534D01*
X193703699Y-68290874D01*
G37*
G36*
X193138014Y-68856559D02*
G01*
X193526922Y-68467651D01*
X194587582Y-69528311D01*
X194198674Y-69917219D01*
X193138014Y-68856559D01*
G37*
G36*
X192572328Y-69422244D02*
G01*
X192961236Y-69033336D01*
X194021896Y-70093996D01*
X193632988Y-70482904D01*
X192572328Y-69422244D01*
G37*
G36*
X192006643Y-69987930D02*
G01*
X192395551Y-69599022D01*
X193456211Y-70659682D01*
X193067303Y-71048590D01*
X192006643Y-69987930D01*
G37*
G36*
X191440957Y-70553615D02*
G01*
X191829865Y-70164707D01*
X192890525Y-71225367D01*
X192501617Y-71614275D01*
X191440957Y-70553615D01*
G37*
G36*
X190875272Y-71119301D02*
G01*
X191264180Y-70730393D01*
X192324840Y-71791053D01*
X191935932Y-72179961D01*
X190875272Y-71119301D01*
G37*
G36*
X190309586Y-71684986D02*
G01*
X190698494Y-71296078D01*
X191759154Y-72356738D01*
X191370246Y-72745646D01*
X190309586Y-71684986D01*
G37*
G36*
X189743901Y-72250672D02*
G01*
X190132809Y-71861764D01*
X191193469Y-72922424D01*
X190804561Y-73311332D01*
X189743901Y-72250672D01*
G37*
G36*
X189178216Y-72816357D02*
G01*
X189567124Y-72427449D01*
X190627784Y-73488109D01*
X190238876Y-73877017D01*
X189178216Y-72816357D01*
G37*
G36*
X188612530Y-73382042D02*
G01*
X189001438Y-72993134D01*
X190062098Y-74053794D01*
X189673190Y-74442702D01*
X188612530Y-73382042D01*
G37*
G36*
X189001438Y-76846866D02*
G01*
X188612530Y-76457958D01*
X189673190Y-75397298D01*
X190062098Y-75786206D01*
X189001438Y-76846866D01*
G37*
G36*
X189567124Y-77412551D02*
G01*
X189178216Y-77023643D01*
X190238876Y-75962983D01*
X190627784Y-76351891D01*
X189567124Y-77412551D01*
G37*
G36*
X190132809Y-77978236D02*
G01*
X189743901Y-77589328D01*
X190804561Y-76528668D01*
X191193469Y-76917576D01*
X190132809Y-77978236D01*
G37*
G36*
X190698494Y-78543922D02*
G01*
X190309586Y-78155014D01*
X191370246Y-77094354D01*
X191759154Y-77483262D01*
X190698494Y-78543922D01*
G37*
G36*
X191264180Y-79109607D02*
G01*
X190875272Y-78720699D01*
X191935932Y-77660039D01*
X192324840Y-78048947D01*
X191264180Y-79109607D01*
G37*
G36*
X191829865Y-79675293D02*
G01*
X191440957Y-79286385D01*
X192501617Y-78225725D01*
X192890525Y-78614633D01*
X191829865Y-79675293D01*
G37*
G36*
X192395551Y-80240978D02*
G01*
X192006643Y-79852070D01*
X193067303Y-78791410D01*
X193456211Y-79180318D01*
X192395551Y-80240978D01*
G37*
G36*
X192961236Y-80806664D02*
G01*
X192572328Y-80417756D01*
X193632988Y-79357096D01*
X194021896Y-79746004D01*
X192961236Y-80806664D01*
G37*
G36*
X193526922Y-81372349D02*
G01*
X193138014Y-80983441D01*
X194198674Y-79922781D01*
X194587582Y-80311689D01*
X193526922Y-81372349D01*
G37*
G36*
X194092607Y-81938034D02*
G01*
X193703699Y-81549126D01*
X194764359Y-80488466D01*
X195153267Y-80877374D01*
X194092607Y-81938034D01*
G37*
G36*
X194658292Y-82503720D02*
G01*
X194269384Y-82114812D01*
X195330044Y-81054152D01*
X195718952Y-81443060D01*
X194658292Y-82503720D01*
G37*
%TD*%
%TO.C,U1*%
G36*
X105328798Y-81951060D02*
G01*
X105717706Y-81562152D01*
X106778366Y-82622812D01*
X106389458Y-83011720D01*
X105328798Y-81951060D01*
G37*
G36*
X105894483Y-81385374D02*
G01*
X106283391Y-80996466D01*
X107344051Y-82057126D01*
X106955143Y-82446034D01*
X105894483Y-81385374D01*
G37*
G36*
X106460168Y-80819689D02*
G01*
X106849076Y-80430781D01*
X107909736Y-81491441D01*
X107520828Y-81880349D01*
X106460168Y-80819689D01*
G37*
G36*
X107025854Y-80254004D02*
G01*
X107414762Y-79865096D01*
X108475422Y-80925756D01*
X108086514Y-81314664D01*
X107025854Y-80254004D01*
G37*
G36*
X107591539Y-79688318D02*
G01*
X107980447Y-79299410D01*
X109041107Y-80360070D01*
X108652199Y-80748978D01*
X107591539Y-79688318D01*
G37*
G36*
X108157225Y-79122633D02*
G01*
X108546133Y-78733725D01*
X109606793Y-79794385D01*
X109217885Y-80183293D01*
X108157225Y-79122633D01*
G37*
G36*
X108722910Y-78556947D02*
G01*
X109111818Y-78168039D01*
X110172478Y-79228699D01*
X109783570Y-79617607D01*
X108722910Y-78556947D01*
G37*
G36*
X109288596Y-77991262D02*
G01*
X109677504Y-77602354D01*
X110738164Y-78663014D01*
X110349256Y-79051922D01*
X109288596Y-77991262D01*
G37*
G36*
X109854281Y-77425576D02*
G01*
X110243189Y-77036668D01*
X111303849Y-78097328D01*
X110914941Y-78486236D01*
X109854281Y-77425576D01*
G37*
G36*
X110419966Y-76859891D02*
G01*
X110808874Y-76470983D01*
X111869534Y-77531643D01*
X111480626Y-77920551D01*
X110419966Y-76859891D01*
G37*
G36*
X110985652Y-76294206D02*
G01*
X111374560Y-75905298D01*
X112435220Y-76965958D01*
X112046312Y-77354866D01*
X110985652Y-76294206D01*
G37*
G36*
X111374560Y-74950702D02*
G01*
X110985652Y-74561794D01*
X112046312Y-73501134D01*
X112435220Y-73890042D01*
X111374560Y-74950702D01*
G37*
G36*
X110808874Y-74385017D02*
G01*
X110419966Y-73996109D01*
X111480626Y-72935449D01*
X111869534Y-73324357D01*
X110808874Y-74385017D01*
G37*
G36*
X110243189Y-73819332D02*
G01*
X109854281Y-73430424D01*
X110914941Y-72369764D01*
X111303849Y-72758672D01*
X110243189Y-73819332D01*
G37*
G36*
X109677504Y-73253646D02*
G01*
X109288596Y-72864738D01*
X110349256Y-71804078D01*
X110738164Y-72192986D01*
X109677504Y-73253646D01*
G37*
G36*
X109111818Y-72687961D02*
G01*
X108722910Y-72299053D01*
X109783570Y-71238393D01*
X110172478Y-71627301D01*
X109111818Y-72687961D01*
G37*
G36*
X108546133Y-72122275D02*
G01*
X108157225Y-71733367D01*
X109217885Y-70672707D01*
X109606793Y-71061615D01*
X108546133Y-72122275D01*
G37*
G36*
X107980447Y-71556590D02*
G01*
X107591539Y-71167682D01*
X108652199Y-70107022D01*
X109041107Y-70495930D01*
X107980447Y-71556590D01*
G37*
G36*
X107414762Y-70990904D02*
G01*
X107025854Y-70601996D01*
X108086514Y-69541336D01*
X108475422Y-69930244D01*
X107414762Y-70990904D01*
G37*
G36*
X106849076Y-70425219D02*
G01*
X106460168Y-70036311D01*
X107520828Y-68975651D01*
X107909736Y-69364559D01*
X106849076Y-70425219D01*
G37*
G36*
X106283391Y-69859534D02*
G01*
X105894483Y-69470626D01*
X106955143Y-68409966D01*
X107344051Y-68798874D01*
X106283391Y-69859534D01*
G37*
G36*
X105717706Y-69293848D02*
G01*
X105328798Y-68904940D01*
X106389458Y-67844280D01*
X106778366Y-68233188D01*
X105717706Y-69293848D01*
G37*
G36*
X102924634Y-68233188D02*
G01*
X103313542Y-67844280D01*
X104374202Y-68904940D01*
X103985294Y-69293848D01*
X102924634Y-68233188D01*
G37*
G36*
X102358949Y-68798874D02*
G01*
X102747857Y-68409966D01*
X103808517Y-69470626D01*
X103419609Y-69859534D01*
X102358949Y-68798874D01*
G37*
G36*
X101793264Y-69364559D02*
G01*
X102182172Y-68975651D01*
X103242832Y-70036311D01*
X102853924Y-70425219D01*
X101793264Y-69364559D01*
G37*
G36*
X101227578Y-69930244D02*
G01*
X101616486Y-69541336D01*
X102677146Y-70601996D01*
X102288238Y-70990904D01*
X101227578Y-69930244D01*
G37*
G36*
X100661893Y-70495930D02*
G01*
X101050801Y-70107022D01*
X102111461Y-71167682D01*
X101722553Y-71556590D01*
X100661893Y-70495930D01*
G37*
G36*
X100096207Y-71061615D02*
G01*
X100485115Y-70672707D01*
X101545775Y-71733367D01*
X101156867Y-72122275D01*
X100096207Y-71061615D01*
G37*
G36*
X99530522Y-71627301D02*
G01*
X99919430Y-71238393D01*
X100980090Y-72299053D01*
X100591182Y-72687961D01*
X99530522Y-71627301D01*
G37*
G36*
X98964836Y-72192986D02*
G01*
X99353744Y-71804078D01*
X100414404Y-72864738D01*
X100025496Y-73253646D01*
X98964836Y-72192986D01*
G37*
G36*
X98399151Y-72758672D02*
G01*
X98788059Y-72369764D01*
X99848719Y-73430424D01*
X99459811Y-73819332D01*
X98399151Y-72758672D01*
G37*
G36*
X97833466Y-73324357D02*
G01*
X98222374Y-72935449D01*
X99283034Y-73996109D01*
X98894126Y-74385017D01*
X97833466Y-73324357D01*
G37*
G36*
X97267780Y-73890042D02*
G01*
X97656688Y-73501134D01*
X98717348Y-74561794D01*
X98328440Y-74950702D01*
X97267780Y-73890042D01*
G37*
G36*
X97656688Y-77354866D02*
G01*
X97267780Y-76965958D01*
X98328440Y-75905298D01*
X98717348Y-76294206D01*
X97656688Y-77354866D01*
G37*
G36*
X98222374Y-77920551D02*
G01*
X97833466Y-77531643D01*
X98894126Y-76470983D01*
X99283034Y-76859891D01*
X98222374Y-77920551D01*
G37*
G36*
X98788059Y-78486236D02*
G01*
X98399151Y-78097328D01*
X99459811Y-77036668D01*
X99848719Y-77425576D01*
X98788059Y-78486236D01*
G37*
G36*
X99353744Y-79051922D02*
G01*
X98964836Y-78663014D01*
X100025496Y-77602354D01*
X100414404Y-77991262D01*
X99353744Y-79051922D01*
G37*
G36*
X99919430Y-79617607D02*
G01*
X99530522Y-79228699D01*
X100591182Y-78168039D01*
X100980090Y-78556947D01*
X99919430Y-79617607D01*
G37*
G36*
X100485115Y-80183293D02*
G01*
X100096207Y-79794385D01*
X101156867Y-78733725D01*
X101545775Y-79122633D01*
X100485115Y-80183293D01*
G37*
G36*
X101050801Y-80748978D02*
G01*
X100661893Y-80360070D01*
X101722553Y-79299410D01*
X102111461Y-79688318D01*
X101050801Y-80748978D01*
G37*
G36*
X101616486Y-81314664D02*
G01*
X101227578Y-80925756D01*
X102288238Y-79865096D01*
X102677146Y-80254004D01*
X101616486Y-81314664D01*
G37*
G36*
X102182172Y-81880349D02*
G01*
X101793264Y-81491441D01*
X102853924Y-80430781D01*
X103242832Y-80819689D01*
X102182172Y-81880349D01*
G37*
G36*
X102747857Y-82446034D02*
G01*
X102358949Y-82057126D01*
X103419609Y-80996466D01*
X103808517Y-81385374D01*
X102747857Y-82446034D01*
G37*
G36*
X103313542Y-83011720D02*
G01*
X102924634Y-82622812D01*
X103985294Y-81562152D01*
X104374202Y-81951060D01*
X103313542Y-83011720D01*
G37*
%TD*%
%TO.C,R8*%
G36*
G01*
X130737747Y-34386250D02*
X131987753Y-34386250D01*
G75*
G02*
X132237750Y-34636247I0J-249997D01*
G01*
X132237750Y-35261253D01*
G75*
G02*
X131987753Y-35511250I-249997J0D01*
G01*
X130737747Y-35511250D01*
G75*
G02*
X130487750Y-35261253I0J249997D01*
G01*
X130487750Y-34636247D01*
G75*
G02*
X130737747Y-34386250I249997J0D01*
G01*
G37*
G36*
G01*
X130737747Y-31461250D02*
X131987753Y-31461250D01*
G75*
G02*
X132237750Y-31711247I0J-249997D01*
G01*
X132237750Y-32336253D01*
G75*
G02*
X131987753Y-32586250I-249997J0D01*
G01*
X130737747Y-32586250D01*
G75*
G02*
X130487750Y-32336253I0J249997D01*
G01*
X130487750Y-31711247D01*
G75*
G02*
X130737747Y-31461250I249997J0D01*
G01*
G37*
%TD*%
%TO.C,R7*%
G36*
G01*
X133468247Y-34386250D02*
X134718253Y-34386250D01*
G75*
G02*
X134968250Y-34636247I0J-249997D01*
G01*
X134968250Y-35261253D01*
G75*
G02*
X134718253Y-35511250I-249997J0D01*
G01*
X133468247Y-35511250D01*
G75*
G02*
X133218250Y-35261253I0J249997D01*
G01*
X133218250Y-34636247D01*
G75*
G02*
X133468247Y-34386250I249997J0D01*
G01*
G37*
G36*
G01*
X133468247Y-31461250D02*
X134718253Y-31461250D01*
G75*
G02*
X134968250Y-31711247I0J-249997D01*
G01*
X134968250Y-32336253D01*
G75*
G02*
X134718253Y-32586250I-249997J0D01*
G01*
X133468247Y-32586250D01*
G75*
G02*
X133218250Y-32336253I0J249997D01*
G01*
X133218250Y-31711247D01*
G75*
G02*
X133468247Y-31461250I249997J0D01*
G01*
G37*
%TD*%
%TO.C,R6*%
G36*
G01*
X216400250Y-73005003D02*
X216400250Y-71754997D01*
G75*
G02*
X216650247Y-71505000I249997J0D01*
G01*
X217275253Y-71505000D01*
G75*
G02*
X217525250Y-71754997I0J-249997D01*
G01*
X217525250Y-73005003D01*
G75*
G02*
X217275253Y-73255000I-249997J0D01*
G01*
X216650247Y-73255000D01*
G75*
G02*
X216400250Y-73005003I0J249997D01*
G01*
G37*
G36*
G01*
X213475250Y-73005003D02*
X213475250Y-71754997D01*
G75*
G02*
X213725247Y-71505000I249997J0D01*
G01*
X214350253Y-71505000D01*
G75*
G02*
X214600250Y-71754997I0J-249997D01*
G01*
X214600250Y-73005003D01*
G75*
G02*
X214350253Y-73255000I-249997J0D01*
G01*
X213725247Y-73255000D01*
G75*
G02*
X213475250Y-73005003I0J249997D01*
G01*
G37*
%TD*%
%TO.C,R5*%
G36*
G01*
X177136253Y-55097000D02*
X175886247Y-55097000D01*
G75*
G02*
X175636250Y-54847003I0J249997D01*
G01*
X175636250Y-54221997D01*
G75*
G02*
X175886247Y-53972000I249997J0D01*
G01*
X177136253Y-53972000D01*
G75*
G02*
X177386250Y-54221997I0J-249997D01*
G01*
X177386250Y-54847003D01*
G75*
G02*
X177136253Y-55097000I-249997J0D01*
G01*
G37*
G36*
G01*
X177136253Y-58022000D02*
X175886247Y-58022000D01*
G75*
G02*
X175636250Y-57772003I0J249997D01*
G01*
X175636250Y-57146997D01*
G75*
G02*
X175886247Y-56897000I249997J0D01*
G01*
X177136253Y-56897000D01*
G75*
G02*
X177386250Y-57146997I0J-249997D01*
G01*
X177386250Y-57772003D01*
G75*
G02*
X177136253Y-58022000I-249997J0D01*
G01*
G37*
%TD*%
%TO.C,R4*%
G36*
G01*
X123403497Y-73661000D02*
X124653503Y-73661000D01*
G75*
G02*
X124903500Y-73910997I0J-249997D01*
G01*
X124903500Y-74536003D01*
G75*
G02*
X124653503Y-74786000I-249997J0D01*
G01*
X123403497Y-74786000D01*
G75*
G02*
X123153500Y-74536003I0J249997D01*
G01*
X123153500Y-73910997D01*
G75*
G02*
X123403497Y-73661000I249997J0D01*
G01*
G37*
G36*
G01*
X123403497Y-70736000D02*
X124653503Y-70736000D01*
G75*
G02*
X124903500Y-70985997I0J-249997D01*
G01*
X124903500Y-71611003D01*
G75*
G02*
X124653503Y-71861000I-249997J0D01*
G01*
X123403497Y-71861000D01*
G75*
G02*
X123153500Y-71611003I0J249997D01*
G01*
X123153500Y-70985997D01*
G75*
G02*
X123403497Y-70736000I249997J0D01*
G01*
G37*
%TD*%
%TO.C,R3*%
G36*
G01*
X135066500Y-73405997D02*
X135066500Y-74656003D01*
G75*
G02*
X134816503Y-74906000I-249997J0D01*
G01*
X134191497Y-74906000D01*
G75*
G02*
X133941500Y-74656003I0J249997D01*
G01*
X133941500Y-73405997D01*
G75*
G02*
X134191497Y-73156000I249997J0D01*
G01*
X134816503Y-73156000D01*
G75*
G02*
X135066500Y-73405997I0J-249997D01*
G01*
G37*
G36*
G01*
X137991500Y-73405997D02*
X137991500Y-74656003D01*
G75*
G02*
X137741503Y-74906000I-249997J0D01*
G01*
X137116497Y-74906000D01*
G75*
G02*
X136866500Y-74656003I0J249997D01*
G01*
X136866500Y-73405997D01*
G75*
G02*
X137116497Y-73156000I249997J0D01*
G01*
X137741503Y-73156000D01*
G75*
G02*
X137991500Y-73405997I0J-249997D01*
G01*
G37*
%TD*%
%TO.C,R2*%
G36*
G01*
X135066500Y-76834997D02*
X135066500Y-78085003D01*
G75*
G02*
X134816503Y-78335000I-249997J0D01*
G01*
X134191497Y-78335000D01*
G75*
G02*
X133941500Y-78085003I0J249997D01*
G01*
X133941500Y-76834997D01*
G75*
G02*
X134191497Y-76585000I249997J0D01*
G01*
X134816503Y-76585000D01*
G75*
G02*
X135066500Y-76834997I0J-249997D01*
G01*
G37*
G36*
G01*
X137991500Y-76834997D02*
X137991500Y-78085003D01*
G75*
G02*
X137741503Y-78335000I-249997J0D01*
G01*
X137116497Y-78335000D01*
G75*
G02*
X136866500Y-78085003I0J249997D01*
G01*
X136866500Y-76834997D01*
G75*
G02*
X137116497Y-76585000I249997J0D01*
G01*
X137741503Y-76585000D01*
G75*
G02*
X137991500Y-76834997I0J-249997D01*
G01*
G37*
%TD*%
%TO.C,R1*%
G36*
G01*
X93411503Y-75798000D02*
X92161497Y-75798000D01*
G75*
G02*
X91911500Y-75548003I0J249997D01*
G01*
X91911500Y-74922997D01*
G75*
G02*
X92161497Y-74673000I249997J0D01*
G01*
X93411503Y-74673000D01*
G75*
G02*
X93661500Y-74922997I0J-249997D01*
G01*
X93661500Y-75548003D01*
G75*
G02*
X93411503Y-75798000I-249997J0D01*
G01*
G37*
G36*
G01*
X93411503Y-78723000D02*
X92161497Y-78723000D01*
G75*
G02*
X91911500Y-78473003I0J249997D01*
G01*
X91911500Y-77847997D01*
G75*
G02*
X92161497Y-77598000I249997J0D01*
G01*
X93411503Y-77598000D01*
G75*
G02*
X93661500Y-77847997I0J-249997D01*
G01*
X93661500Y-78473003D01*
G75*
G02*
X93411503Y-78723000I-249997J0D01*
G01*
G37*
%TD*%
%TO.C,C11*%
G36*
G01*
X177411250Y-74046001D02*
X177411250Y-72745999D01*
G75*
G02*
X177661249Y-72496000I249999J0D01*
G01*
X178311251Y-72496000D01*
G75*
G02*
X178561250Y-72745999I0J-249999D01*
G01*
X178561250Y-74046001D01*
G75*
G02*
X178311251Y-74296000I-249999J0D01*
G01*
X177661249Y-74296000D01*
G75*
G02*
X177411250Y-74046001I0J249999D01*
G01*
G37*
G36*
G01*
X174461250Y-74046001D02*
X174461250Y-72745999D01*
G75*
G02*
X174711249Y-72496000I249999J0D01*
G01*
X175361251Y-72496000D01*
G75*
G02*
X175611250Y-72745999I0J-249999D01*
G01*
X175611250Y-74046001D01*
G75*
G02*
X175361251Y-74296000I-249999J0D01*
G01*
X174711249Y-74296000D01*
G75*
G02*
X174461250Y-74046001I0J249999D01*
G01*
G37*
%TD*%
%TO.C,C10*%
G36*
G01*
X190720249Y-57659000D02*
X192020251Y-57659000D01*
G75*
G02*
X192270250Y-57908999I0J-249999D01*
G01*
X192270250Y-58559001D01*
G75*
G02*
X192020251Y-58809000I-249999J0D01*
G01*
X190720249Y-58809000D01*
G75*
G02*
X190470250Y-58559001I0J249999D01*
G01*
X190470250Y-57908999D01*
G75*
G02*
X190720249Y-57659000I249999J0D01*
G01*
G37*
G36*
G01*
X190720249Y-54709000D02*
X192020251Y-54709000D01*
G75*
G02*
X192270250Y-54958999I0J-249999D01*
G01*
X192270250Y-55609001D01*
G75*
G02*
X192020251Y-55859000I-249999J0D01*
G01*
X190720249Y-55859000D01*
G75*
G02*
X190470250Y-55609001I0J249999D01*
G01*
X190470250Y-54958999D01*
G75*
G02*
X190720249Y-54709000I249999J0D01*
G01*
G37*
%TD*%
%TO.C,C9*%
G36*
G01*
X199005251Y-55937000D02*
X197705249Y-55937000D01*
G75*
G02*
X197455250Y-55687001I0J249999D01*
G01*
X197455250Y-55036999D01*
G75*
G02*
X197705249Y-54787000I249999J0D01*
G01*
X199005251Y-54787000D01*
G75*
G02*
X199255250Y-55036999I0J-249999D01*
G01*
X199255250Y-55687001D01*
G75*
G02*
X199005251Y-55937000I-249999J0D01*
G01*
G37*
G36*
G01*
X199005251Y-58887000D02*
X197705249Y-58887000D01*
G75*
G02*
X197455250Y-58637001I0J249999D01*
G01*
X197455250Y-57986999D01*
G75*
G02*
X197705249Y-57737000I249999J0D01*
G01*
X199005251Y-57737000D01*
G75*
G02*
X199255250Y-57986999I0J-249999D01*
G01*
X199255250Y-58637001D01*
G75*
G02*
X199005251Y-58887000I-249999J0D01*
G01*
G37*
%TD*%
%TO.C,C8*%
G36*
G01*
X98073517Y-89729224D02*
X97154276Y-88809983D01*
G75*
G02*
X97154276Y-88456431I176776J176776D01*
G01*
X97613897Y-87996810D01*
G75*
G02*
X97967449Y-87996810I176776J-176776D01*
G01*
X98886690Y-88916051D01*
G75*
G02*
X98886690Y-89269603I-176776J-176776D01*
G01*
X98427069Y-89729224D01*
G75*
G02*
X98073517Y-89729224I-176776J176776D01*
G01*
G37*
G36*
G01*
X95987551Y-91815190D02*
X95068310Y-90895949D01*
G75*
G02*
X95068310Y-90542397I176776J176776D01*
G01*
X95527931Y-90082776D01*
G75*
G02*
X95881483Y-90082776I176776J-176776D01*
G01*
X96800724Y-91002017D01*
G75*
G02*
X96800724Y-91355569I-176776J-176776D01*
G01*
X96341103Y-91815190D01*
G75*
G02*
X95987551Y-91815190I-176776J176776D01*
G01*
G37*
%TD*%
%TO.C,C7*%
G36*
G01*
X86044500Y-76936999D02*
X86044500Y-78237001D01*
G75*
G02*
X85794501Y-78487000I-249999J0D01*
G01*
X85144499Y-78487000D01*
G75*
G02*
X84894500Y-78237001I0J249999D01*
G01*
X84894500Y-76936999D01*
G75*
G02*
X85144499Y-76687000I249999J0D01*
G01*
X85794501Y-76687000D01*
G75*
G02*
X86044500Y-76936999I0J-249999D01*
G01*
G37*
G36*
G01*
X88994500Y-76936999D02*
X88994500Y-78237001D01*
G75*
G02*
X88744501Y-78487000I-249999J0D01*
G01*
X88094499Y-78487000D01*
G75*
G02*
X87844500Y-78237001I0J249999D01*
G01*
X87844500Y-76936999D01*
G75*
G02*
X88094499Y-76687000I249999J0D01*
G01*
X88744501Y-76687000D01*
G75*
G02*
X88994500Y-76936999I0J-249999D01*
G01*
G37*
%TD*%
%TO.C,C6*%
G36*
G01*
X87893500Y-71506001D02*
X87893500Y-70205999D01*
G75*
G02*
X88143499Y-69956000I249999J0D01*
G01*
X88793501Y-69956000D01*
G75*
G02*
X89043500Y-70205999I0J-249999D01*
G01*
X89043500Y-71506001D01*
G75*
G02*
X88793501Y-71756000I-249999J0D01*
G01*
X88143499Y-71756000D01*
G75*
G02*
X87893500Y-71506001I0J249999D01*
G01*
G37*
G36*
G01*
X84943500Y-71506001D02*
X84943500Y-70205999D01*
G75*
G02*
X85193499Y-69956000I249999J0D01*
G01*
X85843501Y-69956000D01*
G75*
G02*
X86093500Y-70205999I0J-249999D01*
G01*
X86093500Y-71506001D01*
G75*
G02*
X85843501Y-71756000I-249999J0D01*
G01*
X85193499Y-71756000D01*
G75*
G02*
X84943500Y-71506001I0J249999D01*
G01*
G37*
%TD*%
%TO.C,C5*%
G36*
G01*
X136713499Y-58738500D02*
X138013501Y-58738500D01*
G75*
G02*
X138263500Y-58988499I0J-249999D01*
G01*
X138263500Y-59638501D01*
G75*
G02*
X138013501Y-59888500I-249999J0D01*
G01*
X136713499Y-59888500D01*
G75*
G02*
X136463500Y-59638501I0J249999D01*
G01*
X136463500Y-58988499D01*
G75*
G02*
X136713499Y-58738500I249999J0D01*
G01*
G37*
G36*
G01*
X136713499Y-55788500D02*
X138013501Y-55788500D01*
G75*
G02*
X138263500Y-56038499I0J-249999D01*
G01*
X138263500Y-56688501D01*
G75*
G02*
X138013501Y-56938500I-249999J0D01*
G01*
X136713499Y-56938500D01*
G75*
G02*
X136463500Y-56688501I0J249999D01*
G01*
X136463500Y-56038499D01*
G75*
G02*
X136713499Y-55788500I249999J0D01*
G01*
G37*
%TD*%
%TO.C,C4*%
G36*
G01*
X133792499Y-58753000D02*
X135092501Y-58753000D01*
G75*
G02*
X135342500Y-59002999I0J-249999D01*
G01*
X135342500Y-59653001D01*
G75*
G02*
X135092501Y-59903000I-249999J0D01*
G01*
X133792499Y-59903000D01*
G75*
G02*
X133542500Y-59653001I0J249999D01*
G01*
X133542500Y-59002999D01*
G75*
G02*
X133792499Y-58753000I249999J0D01*
G01*
G37*
G36*
G01*
X133792499Y-55803000D02*
X135092501Y-55803000D01*
G75*
G02*
X135342500Y-56052999I0J-249999D01*
G01*
X135342500Y-56703001D01*
G75*
G02*
X135092501Y-56953000I-249999J0D01*
G01*
X133792499Y-56953000D01*
G75*
G02*
X133542500Y-56703001I0J249999D01*
G01*
X133542500Y-56052999D01*
G75*
G02*
X133792499Y-55803000I249999J0D01*
G01*
G37*
%TD*%
%TO.C,C3*%
G36*
G01*
X131061999Y-58738500D02*
X132362001Y-58738500D01*
G75*
G02*
X132612000Y-58988499I0J-249999D01*
G01*
X132612000Y-59638501D01*
G75*
G02*
X132362001Y-59888500I-249999J0D01*
G01*
X131061999Y-59888500D01*
G75*
G02*
X130812000Y-59638501I0J249999D01*
G01*
X130812000Y-58988499D01*
G75*
G02*
X131061999Y-58738500I249999J0D01*
G01*
G37*
G36*
G01*
X131061999Y-55788500D02*
X132362001Y-55788500D01*
G75*
G02*
X132612000Y-56038499I0J-249999D01*
G01*
X132612000Y-56688501D01*
G75*
G02*
X132362001Y-56938500I-249999J0D01*
G01*
X131061999Y-56938500D01*
G75*
G02*
X130812000Y-56688501I0J249999D01*
G01*
X130812000Y-56038499D01*
G75*
G02*
X131061999Y-55788500I249999J0D01*
G01*
G37*
%TD*%
%TO.C,C2*%
G36*
G01*
X128299749Y-58738500D02*
X129599751Y-58738500D01*
G75*
G02*
X129849750Y-58988499I0J-249999D01*
G01*
X129849750Y-59638501D01*
G75*
G02*
X129599751Y-59888500I-249999J0D01*
G01*
X128299749Y-59888500D01*
G75*
G02*
X128049750Y-59638501I0J249999D01*
G01*
X128049750Y-58988499D01*
G75*
G02*
X128299749Y-58738500I249999J0D01*
G01*
G37*
G36*
G01*
X128299749Y-55788500D02*
X129599751Y-55788500D01*
G75*
G02*
X129849750Y-56038499I0J-249999D01*
G01*
X129849750Y-56688501D01*
G75*
G02*
X129599751Y-56938500I-249999J0D01*
G01*
X128299749Y-56938500D01*
G75*
G02*
X128049750Y-56688501I0J249999D01*
G01*
X128049750Y-56038499D01*
G75*
G02*
X128299749Y-55788500I249999J0D01*
G01*
G37*
%TD*%
%TO.C,C1*%
G36*
G01*
X125537499Y-58753000D02*
X126837501Y-58753000D01*
G75*
G02*
X127087500Y-59002999I0J-249999D01*
G01*
X127087500Y-59653001D01*
G75*
G02*
X126837501Y-59903000I-249999J0D01*
G01*
X125537499Y-59903000D01*
G75*
G02*
X125287500Y-59653001I0J249999D01*
G01*
X125287500Y-59002999D01*
G75*
G02*
X125537499Y-58753000I249999J0D01*
G01*
G37*
G36*
G01*
X125537499Y-55803000D02*
X126837501Y-55803000D01*
G75*
G02*
X127087500Y-56052999I0J-249999D01*
G01*
X127087500Y-56703001D01*
G75*
G02*
X126837501Y-56953000I-249999J0D01*
G01*
X125537499Y-56953000D01*
G75*
G02*
X125287500Y-56703001I0J249999D01*
G01*
X125287500Y-56052999D01*
G75*
G02*
X125537499Y-55803000I249999J0D01*
G01*
G37*
%TD*%
D11*
%TO.C,Y1*%
X87644500Y-74962000D03*
X86244500Y-74962000D03*
X86244500Y-73862000D03*
X87644500Y-73862000D03*
%TD*%
%TO.C,Y2*%
X194226250Y-57182000D03*
X195626250Y-57182000D03*
X195626250Y-56082000D03*
X194226250Y-56082000D03*
%TD*%
M02*
