%TF.GenerationSoftware,KiCad,Pcbnew,(5.1.10)-1*%
%TF.CreationDate,2021-09-03T09:57:26+02:00*%
%TF.ProjectId,T1,54312e6b-6963-4616-945f-706362585858,1.1*%
%TF.SameCoordinates,Original*%
%TF.FileFunction,Profile,NP*%
%FSLAX46Y46*%
G04 Gerber Fmt 4.6, Leading zero omitted, Abs format (unit mm)*
G04 Created by KiCad (PCBNEW (5.1.10)-1) date 2021-09-03 09:57:26*
%MOMM*%
%LPD*%
G01*
G04 APERTURE LIST*
%TA.AperFunction,Profile*%
%ADD10C,0.050000*%
%TD*%
G04 APERTURE END LIST*
D10*
X292620400Y-158607600D02*
G75*
G02*
X289953400Y-161274600I-2667000J0D01*
G01*
X8524400Y-161277000D02*
G75*
G02*
X5857400Y-158610000I0J2667000D01*
G01*
X292237000Y-23101600D02*
G75*
G02*
X294904000Y-25768600I0J-2667000D01*
G01*
X5347000Y-25771000D02*
G75*
G02*
X8014000Y-23104000I2667000J0D01*
G01*
X297923250Y-40503000D02*
X294907000Y-40503000D01*
X240043000Y-36947000D02*
X235058250Y-36947000D01*
X162192000Y-36947000D02*
X160001250Y-36947000D01*
X53480000Y-36947000D02*
X48209500Y-36947000D01*
X5347000Y-40503000D02*
X1854500Y-40503000D01*
X292621000Y-136007000D02*
X297923250Y-136007000D01*
X196609000Y-132451000D02*
X195688250Y-132448733D01*
X103264000Y-132451000D02*
X104216500Y-132448733D01*
X202451000Y-140579000D02*
X286779000Y-140579000D01*
X292621000Y-156200000D02*
X292620400Y-158607600D01*
X134252000Y-156200000D02*
X196609000Y-156200000D01*
X292621000Y-137277000D02*
X292621000Y-156200000D01*
X286779000Y-137277000D02*
X286779000Y-140579000D01*
X202451000Y-133721000D02*
X202451000Y-140579000D01*
X196609000Y-133721000D02*
X196609000Y-156200000D01*
X97422000Y-140833000D02*
X11570000Y-140833000D01*
X97422000Y-133721000D02*
X97422000Y-140833000D01*
X103264000Y-133721000D02*
X103264000Y-156200000D01*
X5855000Y-156200000D02*
X5857400Y-158610000D01*
X5855000Y-137277000D02*
X5855000Y-156200000D01*
X11570000Y-140833000D02*
X11570000Y-137277000D01*
X134252000Y-156200000D02*
X103264000Y-156200000D01*
X289953400Y-161274600D02*
X8524400Y-161277000D01*
X294904000Y-25768600D02*
X294907000Y-28184000D01*
X108217000Y-23104000D02*
X292237000Y-23101600D01*
X294907000Y-39233000D02*
X294907000Y-28184000D01*
X289065000Y-32502000D02*
X289065000Y-39233000D01*
X245885000Y-32502000D02*
X289065000Y-32502000D01*
X245885000Y-35677000D02*
X245885000Y-32502000D01*
X240043000Y-31613000D02*
X240043000Y-35677000D01*
X168034000Y-31613000D02*
X240043000Y-31613000D01*
X168034000Y-35550000D02*
X168034000Y-31613000D01*
X162192000Y-28184000D02*
X162192000Y-35677000D01*
X126505000Y-28184000D02*
X162192000Y-28184000D01*
X5347000Y-25771000D02*
X5347000Y-28184000D01*
X106947000Y-23104000D02*
X8014000Y-23104000D01*
X5347000Y-28311000D02*
X5347000Y-28184000D01*
X5347000Y-39233000D02*
X5347000Y-28311000D01*
X11189000Y-33391000D02*
X11189000Y-39233000D01*
X53480000Y-33391000D02*
X11189000Y-33391000D01*
X53480000Y-35677000D02*
X53480000Y-33391000D01*
X59322000Y-31486000D02*
X59322000Y-35677000D01*
X101105000Y-31486000D02*
X59322000Y-31486000D01*
X101105000Y-35677000D02*
X101105000Y-31486000D01*
X106947000Y-23104000D02*
X108217000Y-23104000D01*
X106947000Y-28184000D02*
X126505000Y-28184000D01*
X106947000Y-35677000D02*
X106947000Y-28184000D01*
X5347000Y-39233000D02*
X5347000Y-40503000D01*
X11189000Y-39233000D02*
X11189000Y-40503000D01*
X11011905Y-39741000D02*
G75*
G03*
X11011905Y-39741000I-457905J0D01*
G01*
X6439905Y-39741000D02*
G75*
G03*
X6439905Y-39741000I-457905J0D01*
G01*
X9868905Y-39741000D02*
G75*
G03*
X9868905Y-39741000I-457905J0D01*
G01*
X7582905Y-39741000D02*
G75*
G03*
X7582905Y-39741000I-457905J0D01*
G01*
X8725905Y-39741000D02*
G75*
G03*
X8725905Y-39741000I-457905J0D01*
G01*
X53480000Y-35677000D02*
X53480000Y-36947000D01*
X59322000Y-35677000D02*
X59322000Y-36947000D01*
X59144905Y-36185000D02*
G75*
G03*
X59144905Y-36185000I-457905J0D01*
G01*
X54572905Y-36185000D02*
G75*
G03*
X54572905Y-36185000I-457905J0D01*
G01*
X58001905Y-36185000D02*
G75*
G03*
X58001905Y-36185000I-457905J0D01*
G01*
X55715905Y-36185000D02*
G75*
G03*
X55715905Y-36185000I-457905J0D01*
G01*
X56858905Y-36185000D02*
G75*
G03*
X56858905Y-36185000I-457905J0D01*
G01*
X101105000Y-35677000D02*
X101105000Y-36947000D01*
X106947000Y-35677000D02*
X106947000Y-36947000D01*
X106769905Y-36185000D02*
G75*
G03*
X106769905Y-36185000I-457905J0D01*
G01*
X102197905Y-36185000D02*
G75*
G03*
X102197905Y-36185000I-457905J0D01*
G01*
X105626905Y-36185000D02*
G75*
G03*
X105626905Y-36185000I-457905J0D01*
G01*
X103340905Y-36185000D02*
G75*
G03*
X103340905Y-36185000I-457905J0D01*
G01*
X104483905Y-36185000D02*
G75*
G03*
X104483905Y-36185000I-457905J0D01*
G01*
X162192000Y-35677000D02*
X162192000Y-36947000D01*
X168034000Y-35550000D02*
X168034000Y-36947000D01*
X167856905Y-36185000D02*
G75*
G03*
X167856905Y-36185000I-457905J0D01*
G01*
X163284905Y-36185000D02*
G75*
G03*
X163284905Y-36185000I-457905J0D01*
G01*
X166713905Y-36185000D02*
G75*
G03*
X166713905Y-36185000I-457905J0D01*
G01*
X164427905Y-36185000D02*
G75*
G03*
X164427905Y-36185000I-457905J0D01*
G01*
X165570905Y-36185000D02*
G75*
G03*
X165570905Y-36185000I-457905J0D01*
G01*
X240043000Y-35677000D02*
X240043000Y-36947000D01*
X245885000Y-35677000D02*
X245885000Y-36947000D01*
X245707905Y-36185000D02*
G75*
G03*
X245707905Y-36185000I-457905J0D01*
G01*
X241135905Y-36185000D02*
G75*
G03*
X241135905Y-36185000I-457905J0D01*
G01*
X244564905Y-36185000D02*
G75*
G03*
X244564905Y-36185000I-457905J0D01*
G01*
X242278905Y-36185000D02*
G75*
G03*
X242278905Y-36185000I-457905J0D01*
G01*
X243421905Y-36185000D02*
G75*
G03*
X243421905Y-36185000I-457905J0D01*
G01*
X289065000Y-39233000D02*
X289065000Y-40503000D01*
X294907000Y-39233000D02*
X294907000Y-40503000D01*
X294729905Y-39741000D02*
G75*
G03*
X294729905Y-39741000I-457905J0D01*
G01*
X290157905Y-39741000D02*
G75*
G03*
X290157905Y-39741000I-457905J0D01*
G01*
X293586905Y-39741000D02*
G75*
G03*
X293586905Y-39741000I-457905J0D01*
G01*
X291300905Y-39741000D02*
G75*
G03*
X291300905Y-39741000I-457905J0D01*
G01*
X292443905Y-39741000D02*
G75*
G03*
X292443905Y-39741000I-457905J0D01*
G01*
X286779000Y-136007000D02*
X286779000Y-137277000D01*
X292621000Y-136007000D02*
X292621000Y-137277000D01*
X292443905Y-136515000D02*
G75*
G03*
X292443905Y-136515000I-457905J0D01*
G01*
X287871905Y-136515000D02*
G75*
G03*
X287871905Y-136515000I-457905J0D01*
G01*
X291300905Y-136515000D02*
G75*
G03*
X291300905Y-136515000I-457905J0D01*
G01*
X289014905Y-136515000D02*
G75*
G03*
X289014905Y-136515000I-457905J0D01*
G01*
X290157905Y-136515000D02*
G75*
G03*
X290157905Y-136515000I-457905J0D01*
G01*
X196609000Y-132451000D02*
X196609000Y-133721000D01*
X202451000Y-132451000D02*
X202451000Y-133721000D01*
X202273905Y-132959000D02*
G75*
G03*
X202273905Y-132959000I-457905J0D01*
G01*
X197701905Y-132959000D02*
G75*
G03*
X197701905Y-132959000I-457905J0D01*
G01*
X201130905Y-132959000D02*
G75*
G03*
X201130905Y-132959000I-457905J0D01*
G01*
X198844905Y-132959000D02*
G75*
G03*
X198844905Y-132959000I-457905J0D01*
G01*
X199987905Y-132959000D02*
G75*
G03*
X199987905Y-132959000I-457905J0D01*
G01*
X97422000Y-132451000D02*
X97422000Y-133721000D01*
X103264000Y-132451000D02*
X103264000Y-133721000D01*
X103086905Y-132959000D02*
G75*
G03*
X103086905Y-132959000I-457905J0D01*
G01*
X98514905Y-132959000D02*
G75*
G03*
X98514905Y-132959000I-457905J0D01*
G01*
X101943905Y-132959000D02*
G75*
G03*
X101943905Y-132959000I-457905J0D01*
G01*
X99657905Y-132959000D02*
G75*
G03*
X99657905Y-132959000I-457905J0D01*
G01*
X100800905Y-132959000D02*
G75*
G03*
X100800905Y-132959000I-457905J0D01*
G01*
X11570000Y-136007000D02*
X11570000Y-137277000D01*
X11570000Y-136007000D02*
X45923500Y-136007000D01*
X5855000Y-136007000D02*
X5855000Y-137277000D01*
X1854500Y-136007000D02*
X5855000Y-136007000D01*
X6897810Y-136515000D02*
G75*
G03*
X6897810Y-136515000I-457905J0D01*
G01*
X11469810Y-136515000D02*
G75*
G03*
X11469810Y-136515000I-457905J0D01*
G01*
X9183810Y-136515000D02*
G75*
G03*
X9183810Y-136515000I-457905J0D01*
G01*
X10326810Y-136515000D02*
G75*
G03*
X10326810Y-136515000I-457905J0D01*
G01*
X8040810Y-136515000D02*
G75*
G03*
X8040810Y-136515000I-457905J0D01*
G01*
X143586501Y-125085000D02*
G75*
G03*
X143586501Y-136768999I10667999J-5842000D01*
G01*
X156191249Y-125085000D02*
G75*
G02*
X156191249Y-136768999I-10667999J-5842000D01*
G01*
X193656250Y-133086000D02*
X179178250Y-141341000D01*
X195688250Y-132448733D02*
G75*
G03*
X193656250Y-133086000I0J-3558267D01*
G01*
X152762250Y-142229998D02*
G75*
G02*
X152762250Y-140198000I1015999J1015999D01*
G01*
X297923250Y-40503000D02*
G75*
G02*
X300590250Y-43170000I0J-2667000D01*
G01*
X300590250Y-133340000D02*
G75*
G02*
X297923250Y-136007000I-2667000J0D01*
G01*
X251314250Y-132451000D02*
G75*
G02*
X252584250Y-133721000I0J-1270000D01*
G01*
X253854250Y-136007000D02*
G75*
G02*
X252584250Y-134737000I0J1270000D01*
G01*
X254108250Y-40503000D02*
G75*
G02*
X252838250Y-39233000I0J1270000D01*
G01*
X251568250Y-36947000D02*
G75*
G02*
X252838250Y-38217000I0J-1270000D01*
G01*
X235058250Y-36947000D02*
G75*
G02*
X233788250Y-35677000I0J1270000D01*
G01*
X232518250Y-34026000D02*
G75*
G02*
X233788250Y-35296000I0J-1270000D01*
G01*
X214484250Y-35677000D02*
X214484250Y-35296000D01*
X214484250Y-35296000D02*
G75*
G02*
X215754250Y-34026000I1270000J0D01*
G01*
X214484250Y-35677000D02*
G75*
G02*
X213214250Y-36947000I-1270000J0D01*
G01*
X147015500Y-140198002D02*
X143586500Y-136769000D01*
X147015500Y-140198002D02*
G75*
G02*
X147015500Y-142230000I-1015999J-1015999D01*
G01*
X166478250Y-153914000D02*
G75*
G02*
X164446252Y-153914000I-1015999J1015999D01*
G01*
X135204500Y-154041000D02*
G75*
G02*
X133172502Y-154041000I-1015999J1015999D01*
G01*
X120599500Y-141468000D02*
X133172500Y-154041000D01*
X106248500Y-133086000D02*
X106629500Y-133340000D01*
X107518500Y-133848000D02*
X120599500Y-141468000D01*
X107518500Y-133848000D02*
X106629500Y-133340000D01*
X104216500Y-132448733D02*
G75*
G02*
X106248500Y-133086000I0J-3558267D01*
G01*
X1854500Y-136007000D02*
G75*
G02*
X-812500Y-133340000I0J2667000D01*
G01*
X-812500Y-43170000D02*
G75*
G02*
X1854500Y-40503000I2667000J0D01*
G01*
X47193500Y-133721000D02*
G75*
G02*
X48463500Y-132451000I1270000J0D01*
G01*
X47193500Y-134737000D02*
G75*
G02*
X45923500Y-136007000I-1270000J0D01*
G01*
X46939500Y-39233000D02*
G75*
G02*
X45669500Y-40503000I-1270000J0D01*
G01*
X46939500Y-38217000D02*
G75*
G02*
X48209500Y-36947000I1270000J0D01*
G01*
X65989500Y-35677000D02*
G75*
G02*
X64719500Y-36947000I-1270000J0D01*
G01*
X86563500Y-36947000D02*
G75*
G02*
X85293500Y-35677000I0J1270000D01*
G01*
X65989500Y-35296000D02*
G75*
G02*
X67259500Y-34026000I1270000J0D01*
G01*
X84023500Y-34026000D02*
G75*
G02*
X85293500Y-35296000I0J-1270000D01*
G01*
X120726500Y-36947000D02*
X106947000Y-36947000D01*
X123393500Y-34280000D02*
X123393500Y-32893000D01*
X123393500Y-34280000D02*
G75*
G02*
X120726500Y-36947000I-2667000J0D01*
G01*
X157334250Y-39614000D02*
G75*
G02*
X160001250Y-36947000I2667000J0D01*
G01*
X139776500Y-30216000D02*
X126060500Y-30216000D01*
X123393519Y-32893000D02*
G75*
G02*
X126060500Y-30216000I2666981J10000D01*
G01*
X142443500Y-38725000D02*
X142443500Y-32893000D01*
X139776500Y-30215981D02*
G75*
G02*
X142443500Y-32893000I0J-2667019D01*
G01*
X85293500Y-35677000D02*
X85293500Y-35296000D01*
X101105000Y-36947000D02*
X86563500Y-36947000D01*
X84023500Y-34026000D02*
X67259500Y-34026000D01*
X65989500Y-35296000D02*
X65989500Y-35677000D01*
X152762250Y-140198000D02*
X156191250Y-136769000D01*
X164446252Y-153914000D02*
X152762250Y-142229998D01*
X178924250Y-141468000D02*
X166478250Y-153914000D01*
X179178250Y-141341000D02*
X178924250Y-141468000D01*
X214738250Y-132451000D02*
X202451000Y-132451000D01*
X233534250Y-132451000D02*
X214738250Y-132451000D01*
X251314250Y-132451000D02*
X233534250Y-132451000D01*
X252584250Y-134737000D02*
X252584250Y-133721000D01*
X286779000Y-136007000D02*
X253854250Y-136007000D01*
X300590250Y-43170000D02*
X300590250Y-133340000D01*
X254108250Y-40503000D02*
X289065000Y-40503000D01*
X252838250Y-38217000D02*
X252838250Y-39233000D01*
X245885000Y-36947000D02*
X251568250Y-36947000D01*
X233788250Y-35296000D02*
X233788250Y-35677000D01*
X157334250Y-39614000D02*
X157334250Y-40503000D01*
X213214250Y-36947000D02*
X168034000Y-36947000D01*
X232518250Y-34026000D02*
X215754250Y-34026000D01*
X157334250Y-116068000D02*
X157334250Y-40503000D01*
X157334250Y-118862000D02*
X156191250Y-125085000D01*
X157334250Y-116957000D02*
X157334250Y-118862000D01*
X157334250Y-116068000D02*
X157334250Y-116957000D01*
X142443500Y-116195000D02*
X142443500Y-41138000D01*
X142443500Y-118989000D02*
X143586500Y-125085000D01*
X142443500Y-116957000D02*
X142443500Y-118989000D01*
X142443500Y-116195000D02*
X142443500Y-116957000D01*
X135204500Y-154041000D02*
X147015500Y-142230000D01*
X85039500Y-132451000D02*
X97422000Y-132451000D01*
X66243500Y-132451000D02*
X85039500Y-132451000D01*
X48463500Y-132451000D02*
X66243500Y-132451000D01*
X47193500Y-134737000D02*
X47193500Y-133721000D01*
X-812500Y-43170000D02*
X-812500Y-133340000D01*
X45669500Y-40503000D02*
X11189000Y-40503000D01*
X46939500Y-38217000D02*
X46939500Y-39233000D01*
X64719500Y-36947000D02*
X59322000Y-36947000D01*
X142443500Y-41138000D02*
X142443500Y-38725000D01*
M02*
