M48
; DRILL file {KiCad (5.1.10)-1} date 09/03/21 09:57:25
; FORMAT={-:-/ absolute / inch / decimal}
; #@! TF.CreationDate,2021-09-03T09:57:25+02:00
; #@! TF.GenerationSoftware,Kicad,Pcbnew,(5.1.10)-1
; #@! TF.FileFunction,Plated,1,2,PTH
FMAT,2
INCH
T1C0.0157
T2C0.0197
T3C0.0236
T4C0.0472
T5C0.0591
%
G90
G05
T1
X1.008Y-2.8396
X1.748Y-2.7996
X2.508Y-2.7296
X2.628Y-2.4646
X2.933Y-2.9546
X2.948Y-3.0796
X3.348Y-2.7296
X3.358Y-2.4096
X3.413Y-2.5646
X3.498Y-2.8846
X3.538Y-2.7596
X3.718Y-3.1046
X3.793Y-2.8946
X3.868Y-3.3046
X3.9155Y-3.1821
X3.9725Y-3.2241
X3.9805Y-2.8871
X3.988Y-3.3996
X4.003Y-3.0096
X4.0245Y-2.6181
X4.043Y-2.9096
X4.053Y-3.1296
X4.0955Y-3.1446
X4.133Y-2.6646
X4.148Y-2.8546
X4.1539Y-2.7655
X4.158Y-3.4196
X4.208Y-2.9096
X4.213Y-3.3646
X4.223Y-2.5096
X4.223Y-2.6046
X4.318Y-2.7146
X4.388Y-2.2296
X4.468Y-3.0996
X4.476Y-2.4396
X4.577Y-2.3386
X4.583Y-3.0846
X4.673Y-4.0396
X4.713Y-2.2246
X4.748Y-2.7396
X4.7966Y-2.9232
X4.7966Y-3.0732
X4.9305Y-1.7296
X4.9755Y-1.8246
X5.013Y-4.7946
X5.133Y-1.7196
X5.168Y-1.4396
X5.223Y-1.6646
X5.228Y-1.6246
X5.2556Y-2.9772
X5.273Y-1.4446
X5.278Y-1.6246
X5.3066Y-1.5961
X5.343Y-3.1546
X5.348Y-1.6396
X5.403Y-2.9846
X5.5058Y-2.8119
X6.4093Y-1.7546
X6.5193Y-1.6596
X6.9043Y-2.9846
X6.9043Y-3.2046
X7.1043Y-3.2096
X7.2193Y-3.0946
X7.3493Y-2.4196
X7.4247Y-2.7941
X7.4493Y-2.6896
X7.4493Y-2.7596
X7.4593Y-2.2515
X7.4943Y-2.5146
X7.5624Y-2.9865
X7.5643Y-2.5996
X7.6043Y-2.8446
X7.631Y-3.0763
X7.6356Y-3.5033
X7.6493Y-2.9246
X7.6568Y-2.7921
X7.7543Y-2.9746
X7.7643Y-3.0946
X7.7802Y-3.4996
X7.8193Y-2.8696
X7.8543Y-2.6746
X7.8818Y-2.9321
X7.8993Y-2.6796
X7.9393Y-2.6796
X7.9393Y-2.6796
X7.9429Y-2.6382
X7.946Y-2.5879
X8.0093Y-3.0896
X8.0243Y-2.9596
X8.3793Y-2.7746
X8.4543Y-2.5846
X8.4593Y-2.6496
X8.4593Y-2.7096
X8.5593Y-2.7296
X9.3643Y-2.6996
X10.0993Y-2.8646
X10.832Y-2.8174
T2
X4.938Y-1.4046
X4.938Y-1.5346
X5.543Y-3.0446
X5.543Y-3.1596
X6.2593Y-3.0446
X6.2593Y-3.1596
X6.3143Y-1.5296
X6.7143Y-1.5246
T4
X5.1706Y-4.7768
X5.2014Y-4.9513
X5.457Y-4.7003
X5.4966Y-4.9252
X6.3043Y-4.9202
X6.3439Y-4.6953
X6.5995Y-4.9463
X6.6303Y-4.7718
T5
X0.3868Y-1.8759
X0.3868Y-2.6259
X0.3868Y-3.3759
X0.3868Y-4.1259
X0.3868Y-4.8759
X0.6368Y-1.7759
X0.6368Y-2.5259
X0.6368Y-3.2759
X0.6368Y-4.0259
X0.6368Y-4.7759
X1.3268Y-1.8759
X1.3268Y-2.6259
X1.3268Y-3.3759
X1.3268Y-4.1259
X1.3268Y-4.8759
X1.5768Y-1.7759
X1.5768Y-2.5259
X1.5768Y-3.2759
X1.5768Y-4.0259
X1.5768Y-4.7759
X2.0768Y-1.7359
X2.0768Y-2.4859
X2.0768Y-3.2359
X2.0768Y-3.9859
X2.0768Y-4.7359
X2.3268Y-1.6359
X2.3268Y-2.3859
X2.3268Y-3.1359
X2.3268Y-3.8859
X2.3268Y-4.6359
X2.8268Y-1.6209
X2.8268Y-2.3709
X2.8268Y-3.1209
X2.8268Y-3.8709
X2.8268Y-4.6209
X3.0768Y-1.5209
X3.0768Y-2.2709
X3.0768Y-3.0209
X3.0768Y-3.7709
X3.0768Y-4.5209
X3.5768Y-1.7359
X3.5768Y-2.4859
X3.5768Y-3.2359
X3.5768Y-3.9859
X3.5768Y-4.7359
X3.8268Y-1.6359
X3.8268Y-2.3859
X3.8268Y-3.1359
X3.8268Y-3.8859
X3.8268Y-4.6359
X4.3268Y-2.5609
X4.3268Y-3.3109
X4.3268Y-4.0609
X4.327Y-1.8106
X4.5369Y-4.8893
X4.5768Y-2.4609
X4.5768Y-3.2109
X4.5768Y-3.9609
X4.577Y-1.7106
X4.8034Y-4.9277
X5.0768Y-1.8759
X5.0768Y-2.6259
X5.0768Y-3.3759
X5.0768Y-4.1259
X5.2493Y-5.3848
X5.3268Y-1.7759
X5.3268Y-2.5259
X5.3268Y-3.2759
X5.3268Y-4.0259
X5.4968Y-5.4909
X6.3387Y-5.5962
X6.4255Y-1.8759
X6.4255Y-2.6259
X6.4255Y-3.3759
X6.4255Y-4.1259
X6.4448Y-5.3487
X6.6755Y-1.7759
X6.6755Y-2.5259
X6.6755Y-3.2759
X6.6755Y-4.0259
X7.0056Y-5.0375
X7.1721Y-4.8259
X7.1753Y-1.8106
X7.1755Y-2.5609
X7.1755Y-3.3109
X7.1755Y-4.0609
X7.4253Y-1.7106
X7.4255Y-2.4609
X7.4255Y-3.2109
X7.4255Y-3.9609
X7.9255Y-1.7359
X7.9255Y-2.4859
X7.9255Y-3.2359
X7.9255Y-3.9859
X7.9255Y-4.7359
X8.1755Y-1.6359
X8.1755Y-2.3859
X8.1755Y-3.1359
X8.1755Y-3.8859
X8.1755Y-4.6359
X8.6755Y-1.6209
X8.6755Y-2.3709
X8.6755Y-3.1209
X8.6755Y-3.8709
X8.6755Y-4.6209
X8.9255Y-1.5209
X8.9255Y-2.2709
X8.9255Y-3.0209
X8.9255Y-3.7709
X8.9255Y-4.5209
X9.4255Y-1.7359
X9.4255Y-2.4859
X9.4255Y-3.2359
X9.4255Y-3.9859
X9.4255Y-4.7359
X9.6755Y-1.6359
X9.6755Y-2.3859
X9.6755Y-3.1359
X9.6755Y-3.8859
X9.6755Y-4.6359
X10.1755Y-1.8759
X10.1755Y-2.6259
X10.1755Y-3.3759
X10.1755Y-4.1259
X10.1755Y-4.8759
X10.4255Y-1.7759
X10.4255Y-2.5259
X10.4255Y-3.2759
X10.4255Y-4.0259
X10.4255Y-4.7759
X11.1155Y-1.8759
X11.1155Y-2.6259
X11.1155Y-3.3759
X11.1155Y-4.1259
X11.1155Y-4.8759
X11.3655Y-1.7759
X11.3655Y-2.5259
X11.3655Y-3.2759
X11.3655Y-4.0259
X11.3655Y-4.7759
T3
G00X5.0592Y-1.3138
M15
G01X5.0592Y-1.2902
M16
G05
G00X5.0592Y-1.4882
M15
G01X5.0592Y-1.4449
M16
G05
G00X5.3993Y-1.3138
M15
G01X5.3993Y-1.2902
M16
G05
G00X5.3993Y-1.4882
M15
G01X5.3993Y-1.4449
M16
G05
T0
M30
