%TF.GenerationSoftware,KiCad,Pcbnew,(5.1.10)-1*%
%TF.CreationDate,2021-08-08T19:30:52+02:00*%
%TF.ProjectId,T1,54312e6b-6963-4616-945f-706362585858,rev?*%
%TF.SameCoordinates,Original*%
%TF.FileFunction,Paste,Bot*%
%TF.FilePolarity,Positive*%
%FSLAX46Y46*%
G04 Gerber Fmt 4.6, Leading zero omitted, Abs format (unit mm)*
G04 Created by KiCad (PCBNEW (5.1.10)-1) date 2021-08-08 19:30:52*
%MOMM*%
%LPD*%
G01*
G04 APERTURE LIST*
%ADD10R,0.900000X0.800000*%
%ADD11R,0.550000X1.500000*%
%ADD12R,1.500000X0.550000*%
G04 APERTURE END LIST*
D10*
%TO.C,Y2*%
X189704750Y-58874750D03*
X191104750Y-58874750D03*
X191104750Y-57774750D03*
X189704750Y-57774750D03*
%TD*%
%TO.C,Y1*%
X89438250Y-60906750D03*
X90838250Y-60906750D03*
X90838250Y-59806750D03*
X89438250Y-59806750D03*
%TD*%
D11*
%TO.C,U2*%
X184499750Y-74057750D03*
X185299750Y-74057750D03*
X186099750Y-74057750D03*
X186899750Y-74057750D03*
X187699750Y-74057750D03*
X188499750Y-74057750D03*
X189299750Y-74057750D03*
X190099750Y-74057750D03*
X190899750Y-74057750D03*
X191699750Y-74057750D03*
X192499750Y-74057750D03*
D12*
X194199750Y-72357750D03*
X194199750Y-71557750D03*
X194199750Y-70757750D03*
X194199750Y-69957750D03*
X194199750Y-69157750D03*
X194199750Y-68357750D03*
X194199750Y-67557750D03*
X194199750Y-66757750D03*
X194199750Y-65957750D03*
X194199750Y-65157750D03*
X194199750Y-64357750D03*
D11*
X192499750Y-62657750D03*
X191699750Y-62657750D03*
X190899750Y-62657750D03*
X190099750Y-62657750D03*
X189299750Y-62657750D03*
X188499750Y-62657750D03*
X187699750Y-62657750D03*
X186899750Y-62657750D03*
X186099750Y-62657750D03*
X185299750Y-62657750D03*
X184499750Y-62657750D03*
D12*
X182799750Y-64357750D03*
X182799750Y-65157750D03*
X182799750Y-65957750D03*
X182799750Y-66757750D03*
X182799750Y-67557750D03*
X182799750Y-68357750D03*
X182799750Y-69157750D03*
X182799750Y-69957750D03*
X182799750Y-70757750D03*
X182799750Y-71557750D03*
X182799750Y-72357750D03*
%TD*%
D11*
%TO.C,U1*%
X87852750Y-76343750D03*
X88652750Y-76343750D03*
X89452750Y-76343750D03*
X90252750Y-76343750D03*
X91052750Y-76343750D03*
X91852750Y-76343750D03*
X92652750Y-76343750D03*
X93452750Y-76343750D03*
X94252750Y-76343750D03*
X95052750Y-76343750D03*
X95852750Y-76343750D03*
D12*
X97552750Y-74643750D03*
X97552750Y-73843750D03*
X97552750Y-73043750D03*
X97552750Y-72243750D03*
X97552750Y-71443750D03*
X97552750Y-70643750D03*
X97552750Y-69843750D03*
X97552750Y-69043750D03*
X97552750Y-68243750D03*
X97552750Y-67443750D03*
X97552750Y-66643750D03*
D11*
X95852750Y-64943750D03*
X95052750Y-64943750D03*
X94252750Y-64943750D03*
X93452750Y-64943750D03*
X92652750Y-64943750D03*
X91852750Y-64943750D03*
X91052750Y-64943750D03*
X90252750Y-64943750D03*
X89452750Y-64943750D03*
X88652750Y-64943750D03*
X87852750Y-64943750D03*
D12*
X86152750Y-66643750D03*
X86152750Y-67443750D03*
X86152750Y-68243750D03*
X86152750Y-69043750D03*
X86152750Y-69843750D03*
X86152750Y-70643750D03*
X86152750Y-71443750D03*
X86152750Y-72243750D03*
X86152750Y-73043750D03*
X86152750Y-73843750D03*
X86152750Y-74643750D03*
%TD*%
%TO.C,R8*%
G36*
G01*
X114194751Y-56789750D02*
X112944749Y-56789750D01*
G75*
G02*
X112694750Y-56539751I0J249999D01*
G01*
X112694750Y-55914749D01*
G75*
G02*
X112944749Y-55664750I249999J0D01*
G01*
X114194751Y-55664750D01*
G75*
G02*
X114444750Y-55914749I0J-249999D01*
G01*
X114444750Y-56539751D01*
G75*
G02*
X114194751Y-56789750I-249999J0D01*
G01*
G37*
G36*
G01*
X114194751Y-59714750D02*
X112944749Y-59714750D01*
G75*
G02*
X112694750Y-59464751I0J249999D01*
G01*
X112694750Y-58839749D01*
G75*
G02*
X112944749Y-58589750I249999J0D01*
G01*
X114194751Y-58589750D01*
G75*
G02*
X114444750Y-58839749I0J-249999D01*
G01*
X114444750Y-59464751D01*
G75*
G02*
X114194751Y-59714750I-249999J0D01*
G01*
G37*
%TD*%
%TO.C,R7*%
G36*
G01*
X111464251Y-56789750D02*
X110214249Y-56789750D01*
G75*
G02*
X109964250Y-56539751I0J249999D01*
G01*
X109964250Y-55914749D01*
G75*
G02*
X110214249Y-55664750I249999J0D01*
G01*
X111464251Y-55664750D01*
G75*
G02*
X111714250Y-55914749I0J-249999D01*
G01*
X111714250Y-56539751D01*
G75*
G02*
X111464251Y-56789750I-249999J0D01*
G01*
G37*
G36*
G01*
X111464251Y-59714750D02*
X110214249Y-59714750D01*
G75*
G02*
X109964250Y-59464751I0J249999D01*
G01*
X109964250Y-58839749D01*
G75*
G02*
X110214249Y-58589750I249999J0D01*
G01*
X111464251Y-58589750D01*
G75*
G02*
X111714250Y-58839749I0J-249999D01*
G01*
X111714250Y-59464751D01*
G75*
G02*
X111464251Y-59714750I-249999J0D01*
G01*
G37*
%TD*%
%TO.C,R6*%
G36*
G01*
X199792751Y-67519250D02*
X198542749Y-67519250D01*
G75*
G02*
X198292750Y-67269251I0J249999D01*
G01*
X198292750Y-66644249D01*
G75*
G02*
X198542749Y-66394250I249999J0D01*
G01*
X199792751Y-66394250D01*
G75*
G02*
X200042750Y-66644249I0J-249999D01*
G01*
X200042750Y-67269251D01*
G75*
G02*
X199792751Y-67519250I-249999J0D01*
G01*
G37*
G36*
G01*
X199792751Y-70444250D02*
X198542749Y-70444250D01*
G75*
G02*
X198292750Y-70194251I0J249999D01*
G01*
X198292750Y-69569249D01*
G75*
G02*
X198542749Y-69319250I249999J0D01*
G01*
X199792751Y-69319250D01*
G75*
G02*
X200042750Y-69569249I0J-249999D01*
G01*
X200042750Y-70194251D01*
G75*
G02*
X199792751Y-70444250I-249999J0D01*
G01*
G37*
%TD*%
%TO.C,R5*%
G36*
G01*
X185715749Y-57573750D02*
X186965751Y-57573750D01*
G75*
G02*
X187215750Y-57823749I0J-249999D01*
G01*
X187215750Y-58448751D01*
G75*
G02*
X186965751Y-58698750I-249999J0D01*
G01*
X185715749Y-58698750D01*
G75*
G02*
X185465750Y-58448751I0J249999D01*
G01*
X185465750Y-57823749D01*
G75*
G02*
X185715749Y-57573750I249999J0D01*
G01*
G37*
G36*
G01*
X185715749Y-54648750D02*
X186965751Y-54648750D01*
G75*
G02*
X187215750Y-54898749I0J-249999D01*
G01*
X187215750Y-55523751D01*
G75*
G02*
X186965751Y-55773750I-249999J0D01*
G01*
X185715749Y-55773750D01*
G75*
G02*
X185465750Y-55523751I0J249999D01*
G01*
X185465750Y-54898749D01*
G75*
G02*
X185715749Y-54648750I249999J0D01*
G01*
G37*
%TD*%
%TO.C,R4*%
G36*
G01*
X103738250Y-74824751D02*
X103738250Y-73574749D01*
G75*
G02*
X103988249Y-73324750I249999J0D01*
G01*
X104613251Y-73324750D01*
G75*
G02*
X104863250Y-73574749I0J-249999D01*
G01*
X104863250Y-74824751D01*
G75*
G02*
X104613251Y-75074750I-249999J0D01*
G01*
X103988249Y-75074750D01*
G75*
G02*
X103738250Y-74824751I0J249999D01*
G01*
G37*
G36*
G01*
X100813250Y-74824751D02*
X100813250Y-73574749D01*
G75*
G02*
X101063249Y-73324750I249999J0D01*
G01*
X101688251Y-73324750D01*
G75*
G02*
X101938250Y-73574749I0J-249999D01*
G01*
X101938250Y-74824751D01*
G75*
G02*
X101688251Y-75074750I-249999J0D01*
G01*
X101063249Y-75074750D01*
G75*
G02*
X100813250Y-74824751I0J249999D01*
G01*
G37*
%TD*%
%TO.C,R3*%
G36*
G01*
X78379750Y-69193249D02*
X78379750Y-70443251D01*
G75*
G02*
X78129751Y-70693250I-249999J0D01*
G01*
X77504749Y-70693250D01*
G75*
G02*
X77254750Y-70443251I0J249999D01*
G01*
X77254750Y-69193249D01*
G75*
G02*
X77504749Y-68943250I249999J0D01*
G01*
X78129751Y-68943250D01*
G75*
G02*
X78379750Y-69193249I0J-249999D01*
G01*
G37*
G36*
G01*
X81304750Y-69193249D02*
X81304750Y-70443251D01*
G75*
G02*
X81054751Y-70693250I-249999J0D01*
G01*
X80429749Y-70693250D01*
G75*
G02*
X80179750Y-70443251I0J249999D01*
G01*
X80179750Y-69193249D01*
G75*
G02*
X80429749Y-68943250I249999J0D01*
G01*
X81054751Y-68943250D01*
G75*
G02*
X81304750Y-69193249I0J-249999D01*
G01*
G37*
%TD*%
%TO.C,R2*%
G36*
G01*
X78379750Y-71669749D02*
X78379750Y-72919751D01*
G75*
G02*
X78129751Y-73169750I-249999J0D01*
G01*
X77504749Y-73169750D01*
G75*
G02*
X77254750Y-72919751I0J249999D01*
G01*
X77254750Y-71669749D01*
G75*
G02*
X77504749Y-71419750I249999J0D01*
G01*
X78129751Y-71419750D01*
G75*
G02*
X78379750Y-71669749I0J-249999D01*
G01*
G37*
G36*
G01*
X81304750Y-71669749D02*
X81304750Y-72919751D01*
G75*
G02*
X81054751Y-73169750I-249999J0D01*
G01*
X80429749Y-73169750D01*
G75*
G02*
X80179750Y-72919751I0J249999D01*
G01*
X80179750Y-71669749D01*
G75*
G02*
X80429749Y-71419750I249999J0D01*
G01*
X81054751Y-71419750D01*
G75*
G02*
X81304750Y-71669749I0J-249999D01*
G01*
G37*
%TD*%
%TO.C,R1*%
G36*
G01*
X84158250Y-59858749D02*
X84158250Y-61108751D01*
G75*
G02*
X83908251Y-61358750I-249999J0D01*
G01*
X83283249Y-61358750D01*
G75*
G02*
X83033250Y-61108751I0J249999D01*
G01*
X83033250Y-59858749D01*
G75*
G02*
X83283249Y-59608750I249999J0D01*
G01*
X83908251Y-59608750D01*
G75*
G02*
X84158250Y-59858749I0J-249999D01*
G01*
G37*
G36*
G01*
X87083250Y-59858749D02*
X87083250Y-61108751D01*
G75*
G02*
X86833251Y-61358750I-249999J0D01*
G01*
X86208249Y-61358750D01*
G75*
G02*
X85958250Y-61108751I0J249999D01*
G01*
X85958250Y-59858749D01*
G75*
G02*
X86208249Y-59608750I249999J0D01*
G01*
X86833251Y-59608750D01*
G75*
G02*
X87083250Y-59858749I0J-249999D01*
G01*
G37*
%TD*%
%TO.C,C11*%
G36*
G01*
X177588750Y-69388751D02*
X177588750Y-68088749D01*
G75*
G02*
X177838749Y-67838750I249999J0D01*
G01*
X178488751Y-67838750D01*
G75*
G02*
X178738750Y-68088749I0J-249999D01*
G01*
X178738750Y-69388751D01*
G75*
G02*
X178488751Y-69638750I-249999J0D01*
G01*
X177838749Y-69638750D01*
G75*
G02*
X177588750Y-69388751I0J249999D01*
G01*
G37*
G36*
G01*
X174638750Y-69388751D02*
X174638750Y-68088749D01*
G75*
G02*
X174888749Y-67838750I249999J0D01*
G01*
X175538751Y-67838750D01*
G75*
G02*
X175788750Y-68088749I0J-249999D01*
G01*
X175788750Y-69388751D01*
G75*
G02*
X175538751Y-69638750I-249999J0D01*
G01*
X174888749Y-69638750D01*
G75*
G02*
X174638750Y-69388751I0J249999D01*
G01*
G37*
%TD*%
%TO.C,C10*%
G36*
G01*
X189784751Y-53614750D02*
X188484749Y-53614750D01*
G75*
G02*
X188234750Y-53364751I0J249999D01*
G01*
X188234750Y-52714749D01*
G75*
G02*
X188484749Y-52464750I249999J0D01*
G01*
X189784751Y-52464750D01*
G75*
G02*
X190034750Y-52714749I0J-249999D01*
G01*
X190034750Y-53364751D01*
G75*
G02*
X189784751Y-53614750I-249999J0D01*
G01*
G37*
G36*
G01*
X189784751Y-56564750D02*
X188484749Y-56564750D01*
G75*
G02*
X188234750Y-56314751I0J249999D01*
G01*
X188234750Y-55664749D01*
G75*
G02*
X188484749Y-55414750I249999J0D01*
G01*
X189784751Y-55414750D01*
G75*
G02*
X190034750Y-55664749I0J-249999D01*
G01*
X190034750Y-56314751D01*
G75*
G02*
X189784751Y-56564750I-249999J0D01*
G01*
G37*
%TD*%
%TO.C,C9*%
G36*
G01*
X192324751Y-53614750D02*
X191024749Y-53614750D01*
G75*
G02*
X190774750Y-53364751I0J249999D01*
G01*
X190774750Y-52714749D01*
G75*
G02*
X191024749Y-52464750I249999J0D01*
G01*
X192324751Y-52464750D01*
G75*
G02*
X192574750Y-52714749I0J-249999D01*
G01*
X192574750Y-53364751D01*
G75*
G02*
X192324751Y-53614750I-249999J0D01*
G01*
G37*
G36*
G01*
X192324751Y-56564750D02*
X191024749Y-56564750D01*
G75*
G02*
X190774750Y-56314751I0J249999D01*
G01*
X190774750Y-55664749D01*
G75*
G02*
X191024749Y-55414750I249999J0D01*
G01*
X192324751Y-55414750D01*
G75*
G02*
X192574750Y-55664749I0J-249999D01*
G01*
X192574750Y-56314751D01*
G75*
G02*
X192324751Y-56564750I-249999J0D01*
G01*
G37*
%TD*%
%TO.C,C8*%
G36*
G01*
X80116250Y-67864751D02*
X80116250Y-66564749D01*
G75*
G02*
X80366249Y-66314750I249999J0D01*
G01*
X81016251Y-66314750D01*
G75*
G02*
X81266250Y-66564749I0J-249999D01*
G01*
X81266250Y-67864751D01*
G75*
G02*
X81016251Y-68114750I-249999J0D01*
G01*
X80366249Y-68114750D01*
G75*
G02*
X80116250Y-67864751I0J249999D01*
G01*
G37*
G36*
G01*
X77166250Y-67864751D02*
X77166250Y-66564749D01*
G75*
G02*
X77416249Y-66314750I249999J0D01*
G01*
X78066251Y-66314750D01*
G75*
G02*
X78316250Y-66564749I0J-249999D01*
G01*
X78316250Y-67864751D01*
G75*
G02*
X78066251Y-68114750I-249999J0D01*
G01*
X77416249Y-68114750D01*
G75*
G02*
X77166250Y-67864751I0J249999D01*
G01*
G37*
%TD*%
%TO.C,C7*%
G36*
G01*
X89518251Y-55265750D02*
X88218249Y-55265750D01*
G75*
G02*
X87968250Y-55015751I0J249999D01*
G01*
X87968250Y-54365749D01*
G75*
G02*
X88218249Y-54115750I249999J0D01*
G01*
X89518251Y-54115750D01*
G75*
G02*
X89768250Y-54365749I0J-249999D01*
G01*
X89768250Y-55015751D01*
G75*
G02*
X89518251Y-55265750I-249999J0D01*
G01*
G37*
G36*
G01*
X89518251Y-58215750D02*
X88218249Y-58215750D01*
G75*
G02*
X87968250Y-57965751I0J249999D01*
G01*
X87968250Y-57315749D01*
G75*
G02*
X88218249Y-57065750I249999J0D01*
G01*
X89518251Y-57065750D01*
G75*
G02*
X89768250Y-57315749I0J-249999D01*
G01*
X89768250Y-57965751D01*
G75*
G02*
X89518251Y-58215750I-249999J0D01*
G01*
G37*
%TD*%
%TO.C,C6*%
G36*
G01*
X92058251Y-55265750D02*
X90758249Y-55265750D01*
G75*
G02*
X90508250Y-55015751I0J249999D01*
G01*
X90508250Y-54365749D01*
G75*
G02*
X90758249Y-54115750I249999J0D01*
G01*
X92058251Y-54115750D01*
G75*
G02*
X92308250Y-54365749I0J-249999D01*
G01*
X92308250Y-55015751D01*
G75*
G02*
X92058251Y-55265750I-249999J0D01*
G01*
G37*
G36*
G01*
X92058251Y-58215750D02*
X90758249Y-58215750D01*
G75*
G02*
X90508250Y-57965751I0J249999D01*
G01*
X90508250Y-57315749D01*
G75*
G02*
X90758249Y-57065750I249999J0D01*
G01*
X92058251Y-57065750D01*
G75*
G02*
X92308250Y-57315749I0J-249999D01*
G01*
X92308250Y-57965751D01*
G75*
G02*
X92058251Y-58215750I-249999J0D01*
G01*
G37*
%TD*%
%TO.C,C5*%
G36*
G01*
X107081750Y-76407249D02*
X107081750Y-77707251D01*
G75*
G02*
X106831751Y-77957250I-249999J0D01*
G01*
X106181749Y-77957250D01*
G75*
G02*
X105931750Y-77707251I0J249999D01*
G01*
X105931750Y-76407249D01*
G75*
G02*
X106181749Y-76157250I249999J0D01*
G01*
X106831751Y-76157250D01*
G75*
G02*
X107081750Y-76407249I0J-249999D01*
G01*
G37*
G36*
G01*
X110031750Y-76407249D02*
X110031750Y-77707251D01*
G75*
G02*
X109781751Y-77957250I-249999J0D01*
G01*
X109131749Y-77957250D01*
G75*
G02*
X108881750Y-77707251I0J249999D01*
G01*
X108881750Y-76407249D01*
G75*
G02*
X109131749Y-76157250I249999J0D01*
G01*
X109781751Y-76157250D01*
G75*
G02*
X110031750Y-76407249I0J-249999D01*
G01*
G37*
%TD*%
%TO.C,C4*%
G36*
G01*
X107081750Y-73613249D02*
X107081750Y-74913251D01*
G75*
G02*
X106831751Y-75163250I-249999J0D01*
G01*
X106181749Y-75163250D01*
G75*
G02*
X105931750Y-74913251I0J249999D01*
G01*
X105931750Y-73613249D01*
G75*
G02*
X106181749Y-73363250I249999J0D01*
G01*
X106831751Y-73363250D01*
G75*
G02*
X107081750Y-73613249I0J-249999D01*
G01*
G37*
G36*
G01*
X110031750Y-73613249D02*
X110031750Y-74913251D01*
G75*
G02*
X109781751Y-75163250I-249999J0D01*
G01*
X109131749Y-75163250D01*
G75*
G02*
X108881750Y-74913251I0J249999D01*
G01*
X108881750Y-73613249D01*
G75*
G02*
X109131749Y-73363250I249999J0D01*
G01*
X109781751Y-73363250D01*
G75*
G02*
X110031750Y-73613249I0J-249999D01*
G01*
G37*
%TD*%
%TO.C,C3*%
G36*
G01*
X107081750Y-70692249D02*
X107081750Y-71992251D01*
G75*
G02*
X106831751Y-72242250I-249999J0D01*
G01*
X106181749Y-72242250D01*
G75*
G02*
X105931750Y-71992251I0J249999D01*
G01*
X105931750Y-70692249D01*
G75*
G02*
X106181749Y-70442250I249999J0D01*
G01*
X106831751Y-70442250D01*
G75*
G02*
X107081750Y-70692249I0J-249999D01*
G01*
G37*
G36*
G01*
X110031750Y-70692249D02*
X110031750Y-71992251D01*
G75*
G02*
X109781751Y-72242250I-249999J0D01*
G01*
X109131749Y-72242250D01*
G75*
G02*
X108881750Y-71992251I0J249999D01*
G01*
X108881750Y-70692249D01*
G75*
G02*
X109131749Y-70442250I249999J0D01*
G01*
X109781751Y-70442250D01*
G75*
G02*
X110031750Y-70692249I0J-249999D01*
G01*
G37*
%TD*%
%TO.C,C2*%
G36*
G01*
X107081750Y-67644249D02*
X107081750Y-68944251D01*
G75*
G02*
X106831751Y-69194250I-249999J0D01*
G01*
X106181749Y-69194250D01*
G75*
G02*
X105931750Y-68944251I0J249999D01*
G01*
X105931750Y-67644249D01*
G75*
G02*
X106181749Y-67394250I249999J0D01*
G01*
X106831751Y-67394250D01*
G75*
G02*
X107081750Y-67644249I0J-249999D01*
G01*
G37*
G36*
G01*
X110031750Y-67644249D02*
X110031750Y-68944251D01*
G75*
G02*
X109781751Y-69194250I-249999J0D01*
G01*
X109131749Y-69194250D01*
G75*
G02*
X108881750Y-68944251I0J249999D01*
G01*
X108881750Y-67644249D01*
G75*
G02*
X109131749Y-67394250I249999J0D01*
G01*
X109781751Y-67394250D01*
G75*
G02*
X110031750Y-67644249I0J-249999D01*
G01*
G37*
%TD*%
%TO.C,C1*%
G36*
G01*
X107081750Y-64342249D02*
X107081750Y-65642251D01*
G75*
G02*
X106831751Y-65892250I-249999J0D01*
G01*
X106181749Y-65892250D01*
G75*
G02*
X105931750Y-65642251I0J249999D01*
G01*
X105931750Y-64342249D01*
G75*
G02*
X106181749Y-64092250I249999J0D01*
G01*
X106831751Y-64092250D01*
G75*
G02*
X107081750Y-64342249I0J-249999D01*
G01*
G37*
G36*
G01*
X110031750Y-64342249D02*
X110031750Y-65642251D01*
G75*
G02*
X109781751Y-65892250I-249999J0D01*
G01*
X109131749Y-65892250D01*
G75*
G02*
X108881750Y-65642251I0J249999D01*
G01*
X108881750Y-64342249D01*
G75*
G02*
X109131749Y-64092250I249999J0D01*
G01*
X109781751Y-64092250D01*
G75*
G02*
X110031750Y-64342249I0J-249999D01*
G01*
G37*
%TD*%
M02*
