%TF.GenerationSoftware,KiCad,Pcbnew,(5.1.10)-1*%
%TF.CreationDate,2021-08-08T19:30:52+02:00*%
%TF.ProjectId,T1,54312e6b-6963-4616-945f-706362585858,rev?*%
%TF.SameCoordinates,Original*%
%TF.FileFunction,Soldermask,Bot*%
%TF.FilePolarity,Negative*%
%FSLAX46Y46*%
G04 Gerber Fmt 4.6, Leading zero omitted, Abs format (unit mm)*
G04 Created by KiCad (PCBNEW (5.1.10)-1) date 2021-08-08 19:30:52*
%MOMM*%
%LPD*%
G01*
G04 APERTURE LIST*
%ADD10C,1.700000*%
%ADD11C,4.000000*%
%ADD12C,2.200000*%
%ADD13O,1.000000X2.100000*%
%ADD14C,0.650000*%
%ADD15O,1.000000X1.600000*%
%ADD16R,0.900000X0.800000*%
%ADD17R,0.550000X1.500000*%
%ADD18R,1.500000X0.550000*%
%ADD19C,2.000000*%
%ADD20C,1.000000*%
%ADD21C,1.900000*%
%ADD22R,1.900000X1.900000*%
G04 APERTURE END LIST*
D10*
%TO.C,SW43*%
X174148750Y-63404750D03*
D11*
X179228750Y-63404750D03*
D12*
X175418750Y-60864750D03*
X181768750Y-58324750D03*
%TD*%
D10*
%TO.C,SW16*%
X65500250Y-58578750D03*
X55340250Y-58578750D03*
D11*
X60420250Y-58578750D03*
D12*
X56610250Y-56038750D03*
X62960250Y-53498750D03*
%TD*%
D10*
%TO.C,SW26*%
X103600250Y-63404750D03*
X93440250Y-63404750D03*
D11*
X98520250Y-63404750D03*
D12*
X94710250Y-60864750D03*
X101060250Y-58324750D03*
%TD*%
D10*
%TO.C,SW72*%
X284384750Y-141255750D03*
X274224750Y-141255750D03*
D11*
X279304750Y-141255750D03*
D12*
X275494750Y-138715750D03*
X281844750Y-136175750D03*
%TD*%
D10*
%TO.C,SW71*%
X284384750Y-122205750D03*
X274224750Y-122205750D03*
D11*
X279304750Y-122205750D03*
D12*
X275494750Y-119665750D03*
X281844750Y-117125750D03*
%TD*%
D10*
%TO.C,SW70*%
X284384750Y-103155750D03*
X274224750Y-103155750D03*
D11*
X279304750Y-103155750D03*
D12*
X275494750Y-100615750D03*
X281844750Y-98075750D03*
%TD*%
D10*
%TO.C,SW69*%
X284384750Y-84105750D03*
X274224750Y-84105750D03*
D11*
X279304750Y-84105750D03*
D12*
X275494750Y-81565750D03*
X281844750Y-79025750D03*
%TD*%
D10*
%TO.C,SW68*%
X284384750Y-65055750D03*
X274224750Y-65055750D03*
D11*
X279304750Y-65055750D03*
D12*
X275494750Y-62515750D03*
X281844750Y-59975750D03*
%TD*%
D10*
%TO.C,SW67*%
X260508750Y-141255750D03*
X250348750Y-141255750D03*
D11*
X255428750Y-141255750D03*
D12*
X251618750Y-138715750D03*
X257968750Y-136175750D03*
%TD*%
D10*
%TO.C,SW66*%
X260508750Y-122205750D03*
X250348750Y-122205750D03*
D11*
X255428750Y-122205750D03*
D12*
X251618750Y-119665750D03*
X257968750Y-117125750D03*
%TD*%
D10*
%TO.C,SW65*%
X260508750Y-103155750D03*
X250348750Y-103155750D03*
D11*
X255428750Y-103155750D03*
D12*
X251618750Y-100615750D03*
X257968750Y-98075750D03*
%TD*%
D10*
%TO.C,SW64*%
X260508750Y-84105750D03*
X250348750Y-84105750D03*
D11*
X255428750Y-84105750D03*
D12*
X251618750Y-81565750D03*
X257968750Y-79025750D03*
%TD*%
D10*
%TO.C,SW63*%
X260508750Y-65055750D03*
X250348750Y-65055750D03*
D11*
X255428750Y-65055750D03*
D12*
X251618750Y-62515750D03*
X257968750Y-59975750D03*
%TD*%
D10*
%TO.C,SW62*%
X241458750Y-137699750D03*
X231298750Y-137699750D03*
D11*
X236378750Y-137699750D03*
D12*
X232568750Y-135159750D03*
X238918750Y-132619750D03*
%TD*%
D10*
%TO.C,SW61*%
X241458750Y-118649750D03*
X231298750Y-118649750D03*
D11*
X236378750Y-118649750D03*
D12*
X232568750Y-116109750D03*
X238918750Y-113569750D03*
%TD*%
D10*
%TO.C,SW60*%
X241458750Y-99599750D03*
X231298750Y-99599750D03*
D11*
X236378750Y-99599750D03*
D12*
X232568750Y-97059750D03*
X238918750Y-94519750D03*
%TD*%
D10*
%TO.C,SW59*%
X241458750Y-80549750D03*
X231298750Y-80549750D03*
D11*
X236378750Y-80549750D03*
D12*
X232568750Y-78009750D03*
X238918750Y-75469750D03*
%TD*%
D10*
%TO.C,SW58*%
X241458750Y-61499750D03*
X231298750Y-61499750D03*
D11*
X236378750Y-61499750D03*
D12*
X232568750Y-58959750D03*
X238918750Y-56419750D03*
%TD*%
D10*
%TO.C,SW57*%
X222408750Y-134778750D03*
X212248750Y-134778750D03*
D11*
X217328750Y-134778750D03*
D12*
X213518750Y-132238750D03*
X219868750Y-129698750D03*
%TD*%
D10*
%TO.C,SW56*%
X222408750Y-115728750D03*
X212248750Y-115728750D03*
D11*
X217328750Y-115728750D03*
D12*
X213518750Y-113188750D03*
X219868750Y-110648750D03*
%TD*%
D10*
%TO.C,SW55*%
X222408750Y-96678750D03*
X212248750Y-96678750D03*
D11*
X217328750Y-96678750D03*
D12*
X213518750Y-94138750D03*
X219868750Y-91598750D03*
%TD*%
D10*
%TO.C,SW54*%
X222408750Y-77628750D03*
X212248750Y-77628750D03*
D11*
X217328750Y-77628750D03*
D12*
X213518750Y-75088750D03*
X219868750Y-72548750D03*
%TD*%
D10*
%TO.C,SW53*%
X222408750Y-58578750D03*
X212248750Y-58578750D03*
D11*
X217328750Y-58578750D03*
D12*
X213518750Y-56038750D03*
X219868750Y-53498750D03*
%TD*%
D10*
%TO.C,SW52*%
X203358750Y-137699750D03*
X193198750Y-137699750D03*
D11*
X198278750Y-137699750D03*
D12*
X194468750Y-135159750D03*
X200818750Y-132619750D03*
%TD*%
D10*
%TO.C,SW51*%
X203358750Y-118649750D03*
X193198750Y-118649750D03*
D11*
X198278750Y-118649750D03*
D12*
X194468750Y-116109750D03*
X200818750Y-113569750D03*
%TD*%
D10*
%TO.C,SW50*%
X203358750Y-99599750D03*
X193198750Y-99599750D03*
D11*
X198278750Y-99599750D03*
D12*
X194468750Y-97059750D03*
X200818750Y-94519750D03*
%TD*%
D10*
%TO.C,SW49*%
X203358750Y-80549750D03*
X193198750Y-80549750D03*
D11*
X198278750Y-80549750D03*
D12*
X194468750Y-78009750D03*
X200818750Y-75469750D03*
%TD*%
D10*
%TO.C,SW48*%
X203358750Y-61499750D03*
X193198750Y-61499750D03*
D11*
X198278750Y-61499750D03*
D12*
X194468750Y-58959750D03*
X200818750Y-56419750D03*
%TD*%
D10*
%TO.C,SW47*%
X180072160Y-140575159D03*
X171273341Y-145655159D03*
D11*
X175672750Y-143115159D03*
D12*
X171103194Y-142820455D03*
X175332455Y-137445750D03*
%TD*%
D10*
%TO.C,SW46*%
X184308750Y-120554750D03*
X174148750Y-120554750D03*
D11*
X179228750Y-120554750D03*
D12*
X175418750Y-118014750D03*
X181768750Y-115474750D03*
%TD*%
D10*
%TO.C,SW45*%
X184308750Y-101504750D03*
X174148750Y-101504750D03*
D11*
X179228750Y-101504750D03*
D12*
X175418750Y-98964750D03*
X181768750Y-96424750D03*
%TD*%
D10*
%TO.C,SW44*%
X184308750Y-82454750D03*
X174148750Y-82454750D03*
D11*
X179228750Y-82454750D03*
D12*
X175418750Y-79914750D03*
X181768750Y-77374750D03*
%TD*%
D10*
%TO.C,SW42*%
X162246853Y-152522647D03*
X155062648Y-159706852D03*
D11*
X158654750Y-156114750D03*
D12*
X154164622Y-157012775D03*
X156858699Y-150726596D03*
%TD*%
D10*
%TO.C,SW41*%
X165258750Y-122205750D03*
X155098750Y-122205750D03*
D11*
X160178750Y-122205750D03*
D12*
X156368750Y-119665750D03*
X162718750Y-117125750D03*
%TD*%
D10*
%TO.C,SW40*%
X165258750Y-103155750D03*
X155098750Y-103155750D03*
D11*
X160178750Y-103155750D03*
D12*
X156368750Y-100615750D03*
X162718750Y-98075750D03*
%TD*%
D10*
%TO.C,SW39*%
X165258750Y-84105750D03*
X155098750Y-84105750D03*
D11*
X160178750Y-84105750D03*
D12*
X156368750Y-81565750D03*
X162718750Y-79025750D03*
%TD*%
D10*
%TO.C,SW38*%
X165258750Y-65055750D03*
X155098750Y-65055750D03*
D11*
X160178750Y-65055750D03*
D12*
X156368750Y-62515750D03*
X162718750Y-59975750D03*
%TD*%
D13*
%TO.C,J1*%
X98391250Y-51612250D03*
X107031250Y-51612250D03*
D14*
X105601250Y-51082250D03*
D15*
X107031250Y-47432250D03*
D14*
X99821250Y-51082250D03*
D15*
X98391250Y-47432250D03*
%TD*%
D16*
%TO.C,Y2*%
X189704750Y-58874750D03*
X191104750Y-58874750D03*
X191104750Y-57774750D03*
X189704750Y-57774750D03*
%TD*%
%TO.C,Y1*%
X89438250Y-60906750D03*
X90838250Y-60906750D03*
X90838250Y-59806750D03*
X89438250Y-59806750D03*
%TD*%
D17*
%TO.C,U2*%
X184499750Y-74057750D03*
X185299750Y-74057750D03*
X186099750Y-74057750D03*
X186899750Y-74057750D03*
X187699750Y-74057750D03*
X188499750Y-74057750D03*
X189299750Y-74057750D03*
X190099750Y-74057750D03*
X190899750Y-74057750D03*
X191699750Y-74057750D03*
X192499750Y-74057750D03*
D18*
X194199750Y-72357750D03*
X194199750Y-71557750D03*
X194199750Y-70757750D03*
X194199750Y-69957750D03*
X194199750Y-69157750D03*
X194199750Y-68357750D03*
X194199750Y-67557750D03*
X194199750Y-66757750D03*
X194199750Y-65957750D03*
X194199750Y-65157750D03*
X194199750Y-64357750D03*
D17*
X192499750Y-62657750D03*
X191699750Y-62657750D03*
X190899750Y-62657750D03*
X190099750Y-62657750D03*
X189299750Y-62657750D03*
X188499750Y-62657750D03*
X187699750Y-62657750D03*
X186899750Y-62657750D03*
X186099750Y-62657750D03*
X185299750Y-62657750D03*
X184499750Y-62657750D03*
D18*
X182799750Y-64357750D03*
X182799750Y-65157750D03*
X182799750Y-65957750D03*
X182799750Y-66757750D03*
X182799750Y-67557750D03*
X182799750Y-68357750D03*
X182799750Y-69157750D03*
X182799750Y-69957750D03*
X182799750Y-70757750D03*
X182799750Y-71557750D03*
X182799750Y-72357750D03*
%TD*%
D17*
%TO.C,U1*%
X87852750Y-76343750D03*
X88652750Y-76343750D03*
X89452750Y-76343750D03*
X90252750Y-76343750D03*
X91052750Y-76343750D03*
X91852750Y-76343750D03*
X92652750Y-76343750D03*
X93452750Y-76343750D03*
X94252750Y-76343750D03*
X95052750Y-76343750D03*
X95852750Y-76343750D03*
D18*
X97552750Y-74643750D03*
X97552750Y-73843750D03*
X97552750Y-73043750D03*
X97552750Y-72243750D03*
X97552750Y-71443750D03*
X97552750Y-70643750D03*
X97552750Y-69843750D03*
X97552750Y-69043750D03*
X97552750Y-68243750D03*
X97552750Y-67443750D03*
X97552750Y-66643750D03*
D17*
X95852750Y-64943750D03*
X95052750Y-64943750D03*
X94252750Y-64943750D03*
X93452750Y-64943750D03*
X92652750Y-64943750D03*
X91852750Y-64943750D03*
X91052750Y-64943750D03*
X90252750Y-64943750D03*
X89452750Y-64943750D03*
X88652750Y-64943750D03*
X87852750Y-64943750D03*
D18*
X86152750Y-66643750D03*
X86152750Y-67443750D03*
X86152750Y-68243750D03*
X86152750Y-69043750D03*
X86152750Y-69843750D03*
X86152750Y-70643750D03*
X86152750Y-71443750D03*
X86152750Y-72243750D03*
X86152750Y-73043750D03*
X86152750Y-73843750D03*
X86152750Y-74643750D03*
%TD*%
D19*
%TO.C,SW37*%
X177727750Y-47656750D03*
X177727750Y-52156750D03*
X171227750Y-47656750D03*
X171227750Y-52156750D03*
%TD*%
%TO.C,SW36*%
X95368250Y-45878750D03*
X95368250Y-50378750D03*
X88868250Y-45878750D03*
X88868250Y-50378750D03*
%TD*%
D10*
%TO.C,SW35*%
X122632199Y-159724904D03*
X115447994Y-152540699D03*
D11*
X119040096Y-156132801D03*
D12*
X118142071Y-151642673D03*
X124428250Y-154336750D03*
%TD*%
D10*
%TO.C,SW34*%
X122650250Y-122205750D03*
X112490250Y-122205750D03*
D11*
X117570250Y-122205750D03*
D12*
X113760250Y-119665750D03*
X120110250Y-117125750D03*
%TD*%
D10*
%TO.C,SW33*%
X122650250Y-103155750D03*
X112490250Y-103155750D03*
D11*
X117570250Y-103155750D03*
D12*
X113760250Y-100615750D03*
X120110250Y-98075750D03*
%TD*%
D10*
%TO.C,SW32*%
X122650250Y-84105750D03*
X112490250Y-84105750D03*
D11*
X117570250Y-84105750D03*
D12*
X113760250Y-81565750D03*
X120110250Y-79025750D03*
%TD*%
D10*
%TO.C,SW31*%
X122650250Y-65055750D03*
X112490250Y-65055750D03*
D11*
X117570250Y-65055750D03*
D12*
X113760250Y-62515750D03*
X120110250Y-59975750D03*
%TD*%
D10*
%TO.C,SW30*%
X106475660Y-145700750D03*
X97676841Y-140620750D03*
D11*
X102076250Y-143160750D03*
D12*
X100046694Y-139056046D03*
X106815955Y-140031341D03*
%TD*%
D10*
%TO.C,SW29*%
X103600250Y-120554750D03*
X93440250Y-120554750D03*
D11*
X98520250Y-120554750D03*
D12*
X94710250Y-118014750D03*
X101060250Y-115474750D03*
%TD*%
D10*
%TO.C,SW28*%
X103600250Y-101504750D03*
X93440250Y-101504750D03*
D11*
X98520250Y-101504750D03*
D12*
X94710250Y-98964750D03*
X101060250Y-96424750D03*
%TD*%
D10*
%TO.C,SW27*%
X103600250Y-82454750D03*
X93440250Y-82454750D03*
D11*
X98520250Y-82454750D03*
D12*
X94710250Y-79914750D03*
X101060250Y-77374750D03*
%TD*%
D10*
%TO.C,SW25*%
X84550250Y-137699750D03*
X74390250Y-137699750D03*
D11*
X79470250Y-137699750D03*
D12*
X75660250Y-135159750D03*
X82010250Y-132619750D03*
%TD*%
D10*
%TO.C,SW24*%
X84550250Y-118649750D03*
X74390250Y-118649750D03*
D11*
X79470250Y-118649750D03*
D12*
X75660250Y-116109750D03*
X82010250Y-113569750D03*
%TD*%
D10*
%TO.C,SW23*%
X84550250Y-99599750D03*
X74390250Y-99599750D03*
D11*
X79470250Y-99599750D03*
D12*
X75660250Y-97059750D03*
X82010250Y-94519750D03*
%TD*%
D10*
%TO.C,SW22*%
X84550250Y-80549750D03*
X74390250Y-80549750D03*
D11*
X79470250Y-80549750D03*
D12*
X75660250Y-78009750D03*
X82010250Y-75469750D03*
%TD*%
D10*
%TO.C,SW21*%
X84550250Y-61499750D03*
X74390250Y-61499750D03*
D11*
X79470250Y-61499750D03*
D12*
X75660250Y-58959750D03*
X82010250Y-56419750D03*
%TD*%
D10*
%TO.C,SW20*%
X65500250Y-134778750D03*
X55340250Y-134778750D03*
D11*
X60420250Y-134778750D03*
D12*
X56610250Y-132238750D03*
X62960250Y-129698750D03*
%TD*%
D10*
%TO.C,SW19*%
X65500250Y-115728750D03*
X55340250Y-115728750D03*
D11*
X60420250Y-115728750D03*
D12*
X56610250Y-113188750D03*
X62960250Y-110648750D03*
%TD*%
D10*
%TO.C,SW18*%
X65500250Y-96678750D03*
X55340250Y-96678750D03*
D11*
X60420250Y-96678750D03*
D12*
X56610250Y-94138750D03*
X62960250Y-91598750D03*
%TD*%
D10*
%TO.C,SW17*%
X65500250Y-77628750D03*
X55340250Y-77628750D03*
D11*
X60420250Y-77628750D03*
D12*
X56610250Y-75088750D03*
X62960250Y-72548750D03*
%TD*%
D10*
%TO.C,SW15*%
X46450250Y-137699750D03*
X36290250Y-137699750D03*
D11*
X41370250Y-137699750D03*
D12*
X37560250Y-135159750D03*
X43910250Y-132619750D03*
%TD*%
D10*
%TO.C,SW14*%
X46450250Y-118649750D03*
X36290250Y-118649750D03*
D11*
X41370250Y-118649750D03*
D12*
X37560250Y-116109750D03*
X43910250Y-113569750D03*
%TD*%
D10*
%TO.C,SW13*%
X46450250Y-99599750D03*
X36290250Y-99599750D03*
D11*
X41370250Y-99599750D03*
D12*
X37560250Y-97059750D03*
X43910250Y-94519750D03*
%TD*%
D10*
%TO.C,SW12*%
X46450250Y-80549750D03*
X36290250Y-80549750D03*
D11*
X41370250Y-80549750D03*
D12*
X37560250Y-78009750D03*
X43910250Y-75469750D03*
%TD*%
D10*
%TO.C,SW11*%
X46450250Y-61499750D03*
X36290250Y-61499750D03*
D11*
X41370250Y-61499750D03*
D12*
X37560250Y-58959750D03*
X43910250Y-56419750D03*
%TD*%
D10*
%TO.C,SW10*%
X27400250Y-141255750D03*
X17240250Y-141255750D03*
D11*
X22320250Y-141255750D03*
D12*
X18510250Y-138715750D03*
X24860250Y-136175750D03*
%TD*%
D10*
%TO.C,SW9*%
X27400250Y-122205750D03*
X17240250Y-122205750D03*
D11*
X22320250Y-122205750D03*
D12*
X18510250Y-119665750D03*
X24860250Y-117125750D03*
%TD*%
D10*
%TO.C,SW8*%
X27400250Y-103155750D03*
X17240250Y-103155750D03*
D11*
X22320250Y-103155750D03*
D12*
X18510250Y-100615750D03*
X24860250Y-98075750D03*
%TD*%
D10*
%TO.C,SW7*%
X27400250Y-84105750D03*
X17240250Y-84105750D03*
D11*
X22320250Y-84105750D03*
D12*
X18510250Y-81565750D03*
X24860250Y-79025750D03*
%TD*%
D10*
%TO.C,SW6*%
X27400250Y-65055750D03*
X17240250Y-65055750D03*
D11*
X22320250Y-65055750D03*
D12*
X18510250Y-62515750D03*
X24860250Y-59975750D03*
%TD*%
D10*
%TO.C,SW5*%
X3524250Y-141255750D03*
X-6635750Y-141255750D03*
D11*
X-1555750Y-141255750D03*
D12*
X-5365750Y-138715750D03*
X984250Y-136175750D03*
%TD*%
D10*
%TO.C,SW4*%
X3524250Y-122205750D03*
X-6635750Y-122205750D03*
D11*
X-1555750Y-122205750D03*
D12*
X-5365750Y-119665750D03*
X984250Y-117125750D03*
%TD*%
D10*
%TO.C,SW3*%
X3524250Y-103155750D03*
X-6635750Y-103155750D03*
D11*
X-1555750Y-103155750D03*
D12*
X-5365750Y-100615750D03*
X984250Y-98075750D03*
%TD*%
D10*
%TO.C,SW2*%
X3524250Y-84105750D03*
X-6635750Y-84105750D03*
D11*
X-1555750Y-84105750D03*
D12*
X-5365750Y-81565750D03*
X984250Y-79025750D03*
%TD*%
D10*
%TO.C,SW1*%
X3524250Y-65055750D03*
X-6635750Y-65055750D03*
D11*
X-1555750Y-65055750D03*
D12*
X-5365750Y-62515750D03*
X984250Y-59975750D03*
%TD*%
%TO.C,R8*%
G36*
G01*
X114194751Y-56789750D02*
X112944749Y-56789750D01*
G75*
G02*
X112694750Y-56539751I0J249999D01*
G01*
X112694750Y-55914749D01*
G75*
G02*
X112944749Y-55664750I249999J0D01*
G01*
X114194751Y-55664750D01*
G75*
G02*
X114444750Y-55914749I0J-249999D01*
G01*
X114444750Y-56539751D01*
G75*
G02*
X114194751Y-56789750I-249999J0D01*
G01*
G37*
G36*
G01*
X114194751Y-59714750D02*
X112944749Y-59714750D01*
G75*
G02*
X112694750Y-59464751I0J249999D01*
G01*
X112694750Y-58839749D01*
G75*
G02*
X112944749Y-58589750I249999J0D01*
G01*
X114194751Y-58589750D01*
G75*
G02*
X114444750Y-58839749I0J-249999D01*
G01*
X114444750Y-59464751D01*
G75*
G02*
X114194751Y-59714750I-249999J0D01*
G01*
G37*
%TD*%
%TO.C,R7*%
G36*
G01*
X111464251Y-56789750D02*
X110214249Y-56789750D01*
G75*
G02*
X109964250Y-56539751I0J249999D01*
G01*
X109964250Y-55914749D01*
G75*
G02*
X110214249Y-55664750I249999J0D01*
G01*
X111464251Y-55664750D01*
G75*
G02*
X111714250Y-55914749I0J-249999D01*
G01*
X111714250Y-56539751D01*
G75*
G02*
X111464251Y-56789750I-249999J0D01*
G01*
G37*
G36*
G01*
X111464251Y-59714750D02*
X110214249Y-59714750D01*
G75*
G02*
X109964250Y-59464751I0J249999D01*
G01*
X109964250Y-58839749D01*
G75*
G02*
X110214249Y-58589750I249999J0D01*
G01*
X111464251Y-58589750D01*
G75*
G02*
X111714250Y-58839749I0J-249999D01*
G01*
X111714250Y-59464751D01*
G75*
G02*
X111464251Y-59714750I-249999J0D01*
G01*
G37*
%TD*%
%TO.C,R6*%
G36*
G01*
X199792751Y-67519250D02*
X198542749Y-67519250D01*
G75*
G02*
X198292750Y-67269251I0J249999D01*
G01*
X198292750Y-66644249D01*
G75*
G02*
X198542749Y-66394250I249999J0D01*
G01*
X199792751Y-66394250D01*
G75*
G02*
X200042750Y-66644249I0J-249999D01*
G01*
X200042750Y-67269251D01*
G75*
G02*
X199792751Y-67519250I-249999J0D01*
G01*
G37*
G36*
G01*
X199792751Y-70444250D02*
X198542749Y-70444250D01*
G75*
G02*
X198292750Y-70194251I0J249999D01*
G01*
X198292750Y-69569249D01*
G75*
G02*
X198542749Y-69319250I249999J0D01*
G01*
X199792751Y-69319250D01*
G75*
G02*
X200042750Y-69569249I0J-249999D01*
G01*
X200042750Y-70194251D01*
G75*
G02*
X199792751Y-70444250I-249999J0D01*
G01*
G37*
%TD*%
%TO.C,R5*%
G36*
G01*
X185715749Y-57573750D02*
X186965751Y-57573750D01*
G75*
G02*
X187215750Y-57823749I0J-249999D01*
G01*
X187215750Y-58448751D01*
G75*
G02*
X186965751Y-58698750I-249999J0D01*
G01*
X185715749Y-58698750D01*
G75*
G02*
X185465750Y-58448751I0J249999D01*
G01*
X185465750Y-57823749D01*
G75*
G02*
X185715749Y-57573750I249999J0D01*
G01*
G37*
G36*
G01*
X185715749Y-54648750D02*
X186965751Y-54648750D01*
G75*
G02*
X187215750Y-54898749I0J-249999D01*
G01*
X187215750Y-55523751D01*
G75*
G02*
X186965751Y-55773750I-249999J0D01*
G01*
X185715749Y-55773750D01*
G75*
G02*
X185465750Y-55523751I0J249999D01*
G01*
X185465750Y-54898749D01*
G75*
G02*
X185715749Y-54648750I249999J0D01*
G01*
G37*
%TD*%
%TO.C,R4*%
G36*
G01*
X103738250Y-74824751D02*
X103738250Y-73574749D01*
G75*
G02*
X103988249Y-73324750I249999J0D01*
G01*
X104613251Y-73324750D01*
G75*
G02*
X104863250Y-73574749I0J-249999D01*
G01*
X104863250Y-74824751D01*
G75*
G02*
X104613251Y-75074750I-249999J0D01*
G01*
X103988249Y-75074750D01*
G75*
G02*
X103738250Y-74824751I0J249999D01*
G01*
G37*
G36*
G01*
X100813250Y-74824751D02*
X100813250Y-73574749D01*
G75*
G02*
X101063249Y-73324750I249999J0D01*
G01*
X101688251Y-73324750D01*
G75*
G02*
X101938250Y-73574749I0J-249999D01*
G01*
X101938250Y-74824751D01*
G75*
G02*
X101688251Y-75074750I-249999J0D01*
G01*
X101063249Y-75074750D01*
G75*
G02*
X100813250Y-74824751I0J249999D01*
G01*
G37*
%TD*%
%TO.C,R3*%
G36*
G01*
X78379750Y-69193249D02*
X78379750Y-70443251D01*
G75*
G02*
X78129751Y-70693250I-249999J0D01*
G01*
X77504749Y-70693250D01*
G75*
G02*
X77254750Y-70443251I0J249999D01*
G01*
X77254750Y-69193249D01*
G75*
G02*
X77504749Y-68943250I249999J0D01*
G01*
X78129751Y-68943250D01*
G75*
G02*
X78379750Y-69193249I0J-249999D01*
G01*
G37*
G36*
G01*
X81304750Y-69193249D02*
X81304750Y-70443251D01*
G75*
G02*
X81054751Y-70693250I-249999J0D01*
G01*
X80429749Y-70693250D01*
G75*
G02*
X80179750Y-70443251I0J249999D01*
G01*
X80179750Y-69193249D01*
G75*
G02*
X80429749Y-68943250I249999J0D01*
G01*
X81054751Y-68943250D01*
G75*
G02*
X81304750Y-69193249I0J-249999D01*
G01*
G37*
%TD*%
%TO.C,R2*%
G36*
G01*
X78379750Y-71669749D02*
X78379750Y-72919751D01*
G75*
G02*
X78129751Y-73169750I-249999J0D01*
G01*
X77504749Y-73169750D01*
G75*
G02*
X77254750Y-72919751I0J249999D01*
G01*
X77254750Y-71669749D01*
G75*
G02*
X77504749Y-71419750I249999J0D01*
G01*
X78129751Y-71419750D01*
G75*
G02*
X78379750Y-71669749I0J-249999D01*
G01*
G37*
G36*
G01*
X81304750Y-71669749D02*
X81304750Y-72919751D01*
G75*
G02*
X81054751Y-73169750I-249999J0D01*
G01*
X80429749Y-73169750D01*
G75*
G02*
X80179750Y-72919751I0J249999D01*
G01*
X80179750Y-71669749D01*
G75*
G02*
X80429749Y-71419750I249999J0D01*
G01*
X81054751Y-71419750D01*
G75*
G02*
X81304750Y-71669749I0J-249999D01*
G01*
G37*
%TD*%
%TO.C,R1*%
G36*
G01*
X84158250Y-59858749D02*
X84158250Y-61108751D01*
G75*
G02*
X83908251Y-61358750I-249999J0D01*
G01*
X83283249Y-61358750D01*
G75*
G02*
X83033250Y-61108751I0J249999D01*
G01*
X83033250Y-59858749D01*
G75*
G02*
X83283249Y-59608750I249999J0D01*
G01*
X83908251Y-59608750D01*
G75*
G02*
X84158250Y-59858749I0J-249999D01*
G01*
G37*
G36*
G01*
X87083250Y-59858749D02*
X87083250Y-61108751D01*
G75*
G02*
X86833251Y-61358750I-249999J0D01*
G01*
X86208249Y-61358750D01*
G75*
G02*
X85958250Y-61108751I0J249999D01*
G01*
X85958250Y-59858749D01*
G75*
G02*
X86208249Y-59608750I249999J0D01*
G01*
X86833251Y-59608750D01*
G75*
G02*
X87083250Y-59858749I0J-249999D01*
G01*
G37*
%TD*%
D20*
%TO.C,J3*%
X160646750Y-47950750D03*
X160646750Y-52950750D03*
D21*
X164646750Y-52700750D03*
D22*
X164646750Y-48200750D03*
D21*
X157146750Y-53350750D03*
X157146750Y-47550750D03*
%TD*%
D20*
%TO.C,J2*%
X117102250Y-52950750D03*
X117102250Y-47950750D03*
D21*
X113102250Y-48200750D03*
D22*
X113102250Y-52700750D03*
D21*
X120602250Y-47550750D03*
X120602250Y-53350750D03*
%TD*%
%TO.C,C11*%
G36*
G01*
X177588750Y-69388751D02*
X177588750Y-68088749D01*
G75*
G02*
X177838749Y-67838750I249999J0D01*
G01*
X178488751Y-67838750D01*
G75*
G02*
X178738750Y-68088749I0J-249999D01*
G01*
X178738750Y-69388751D01*
G75*
G02*
X178488751Y-69638750I-249999J0D01*
G01*
X177838749Y-69638750D01*
G75*
G02*
X177588750Y-69388751I0J249999D01*
G01*
G37*
G36*
G01*
X174638750Y-69388751D02*
X174638750Y-68088749D01*
G75*
G02*
X174888749Y-67838750I249999J0D01*
G01*
X175538751Y-67838750D01*
G75*
G02*
X175788750Y-68088749I0J-249999D01*
G01*
X175788750Y-69388751D01*
G75*
G02*
X175538751Y-69638750I-249999J0D01*
G01*
X174888749Y-69638750D01*
G75*
G02*
X174638750Y-69388751I0J249999D01*
G01*
G37*
%TD*%
%TO.C,C10*%
G36*
G01*
X189784751Y-53614750D02*
X188484749Y-53614750D01*
G75*
G02*
X188234750Y-53364751I0J249999D01*
G01*
X188234750Y-52714749D01*
G75*
G02*
X188484749Y-52464750I249999J0D01*
G01*
X189784751Y-52464750D01*
G75*
G02*
X190034750Y-52714749I0J-249999D01*
G01*
X190034750Y-53364751D01*
G75*
G02*
X189784751Y-53614750I-249999J0D01*
G01*
G37*
G36*
G01*
X189784751Y-56564750D02*
X188484749Y-56564750D01*
G75*
G02*
X188234750Y-56314751I0J249999D01*
G01*
X188234750Y-55664749D01*
G75*
G02*
X188484749Y-55414750I249999J0D01*
G01*
X189784751Y-55414750D01*
G75*
G02*
X190034750Y-55664749I0J-249999D01*
G01*
X190034750Y-56314751D01*
G75*
G02*
X189784751Y-56564750I-249999J0D01*
G01*
G37*
%TD*%
%TO.C,C9*%
G36*
G01*
X192324751Y-53614750D02*
X191024749Y-53614750D01*
G75*
G02*
X190774750Y-53364751I0J249999D01*
G01*
X190774750Y-52714749D01*
G75*
G02*
X191024749Y-52464750I249999J0D01*
G01*
X192324751Y-52464750D01*
G75*
G02*
X192574750Y-52714749I0J-249999D01*
G01*
X192574750Y-53364751D01*
G75*
G02*
X192324751Y-53614750I-249999J0D01*
G01*
G37*
G36*
G01*
X192324751Y-56564750D02*
X191024749Y-56564750D01*
G75*
G02*
X190774750Y-56314751I0J249999D01*
G01*
X190774750Y-55664749D01*
G75*
G02*
X191024749Y-55414750I249999J0D01*
G01*
X192324751Y-55414750D01*
G75*
G02*
X192574750Y-55664749I0J-249999D01*
G01*
X192574750Y-56314751D01*
G75*
G02*
X192324751Y-56564750I-249999J0D01*
G01*
G37*
%TD*%
%TO.C,C8*%
G36*
G01*
X80116250Y-67864751D02*
X80116250Y-66564749D01*
G75*
G02*
X80366249Y-66314750I249999J0D01*
G01*
X81016251Y-66314750D01*
G75*
G02*
X81266250Y-66564749I0J-249999D01*
G01*
X81266250Y-67864751D01*
G75*
G02*
X81016251Y-68114750I-249999J0D01*
G01*
X80366249Y-68114750D01*
G75*
G02*
X80116250Y-67864751I0J249999D01*
G01*
G37*
G36*
G01*
X77166250Y-67864751D02*
X77166250Y-66564749D01*
G75*
G02*
X77416249Y-66314750I249999J0D01*
G01*
X78066251Y-66314750D01*
G75*
G02*
X78316250Y-66564749I0J-249999D01*
G01*
X78316250Y-67864751D01*
G75*
G02*
X78066251Y-68114750I-249999J0D01*
G01*
X77416249Y-68114750D01*
G75*
G02*
X77166250Y-67864751I0J249999D01*
G01*
G37*
%TD*%
%TO.C,C7*%
G36*
G01*
X89518251Y-55265750D02*
X88218249Y-55265750D01*
G75*
G02*
X87968250Y-55015751I0J249999D01*
G01*
X87968250Y-54365749D01*
G75*
G02*
X88218249Y-54115750I249999J0D01*
G01*
X89518251Y-54115750D01*
G75*
G02*
X89768250Y-54365749I0J-249999D01*
G01*
X89768250Y-55015751D01*
G75*
G02*
X89518251Y-55265750I-249999J0D01*
G01*
G37*
G36*
G01*
X89518251Y-58215750D02*
X88218249Y-58215750D01*
G75*
G02*
X87968250Y-57965751I0J249999D01*
G01*
X87968250Y-57315749D01*
G75*
G02*
X88218249Y-57065750I249999J0D01*
G01*
X89518251Y-57065750D01*
G75*
G02*
X89768250Y-57315749I0J-249999D01*
G01*
X89768250Y-57965751D01*
G75*
G02*
X89518251Y-58215750I-249999J0D01*
G01*
G37*
%TD*%
%TO.C,C6*%
G36*
G01*
X92058251Y-55265750D02*
X90758249Y-55265750D01*
G75*
G02*
X90508250Y-55015751I0J249999D01*
G01*
X90508250Y-54365749D01*
G75*
G02*
X90758249Y-54115750I249999J0D01*
G01*
X92058251Y-54115750D01*
G75*
G02*
X92308250Y-54365749I0J-249999D01*
G01*
X92308250Y-55015751D01*
G75*
G02*
X92058251Y-55265750I-249999J0D01*
G01*
G37*
G36*
G01*
X92058251Y-58215750D02*
X90758249Y-58215750D01*
G75*
G02*
X90508250Y-57965751I0J249999D01*
G01*
X90508250Y-57315749D01*
G75*
G02*
X90758249Y-57065750I249999J0D01*
G01*
X92058251Y-57065750D01*
G75*
G02*
X92308250Y-57315749I0J-249999D01*
G01*
X92308250Y-57965751D01*
G75*
G02*
X92058251Y-58215750I-249999J0D01*
G01*
G37*
%TD*%
%TO.C,C5*%
G36*
G01*
X107081750Y-76407249D02*
X107081750Y-77707251D01*
G75*
G02*
X106831751Y-77957250I-249999J0D01*
G01*
X106181749Y-77957250D01*
G75*
G02*
X105931750Y-77707251I0J249999D01*
G01*
X105931750Y-76407249D01*
G75*
G02*
X106181749Y-76157250I249999J0D01*
G01*
X106831751Y-76157250D01*
G75*
G02*
X107081750Y-76407249I0J-249999D01*
G01*
G37*
G36*
G01*
X110031750Y-76407249D02*
X110031750Y-77707251D01*
G75*
G02*
X109781751Y-77957250I-249999J0D01*
G01*
X109131749Y-77957250D01*
G75*
G02*
X108881750Y-77707251I0J249999D01*
G01*
X108881750Y-76407249D01*
G75*
G02*
X109131749Y-76157250I249999J0D01*
G01*
X109781751Y-76157250D01*
G75*
G02*
X110031750Y-76407249I0J-249999D01*
G01*
G37*
%TD*%
%TO.C,C4*%
G36*
G01*
X107081750Y-73613249D02*
X107081750Y-74913251D01*
G75*
G02*
X106831751Y-75163250I-249999J0D01*
G01*
X106181749Y-75163250D01*
G75*
G02*
X105931750Y-74913251I0J249999D01*
G01*
X105931750Y-73613249D01*
G75*
G02*
X106181749Y-73363250I249999J0D01*
G01*
X106831751Y-73363250D01*
G75*
G02*
X107081750Y-73613249I0J-249999D01*
G01*
G37*
G36*
G01*
X110031750Y-73613249D02*
X110031750Y-74913251D01*
G75*
G02*
X109781751Y-75163250I-249999J0D01*
G01*
X109131749Y-75163250D01*
G75*
G02*
X108881750Y-74913251I0J249999D01*
G01*
X108881750Y-73613249D01*
G75*
G02*
X109131749Y-73363250I249999J0D01*
G01*
X109781751Y-73363250D01*
G75*
G02*
X110031750Y-73613249I0J-249999D01*
G01*
G37*
%TD*%
%TO.C,C3*%
G36*
G01*
X107081750Y-70692249D02*
X107081750Y-71992251D01*
G75*
G02*
X106831751Y-72242250I-249999J0D01*
G01*
X106181749Y-72242250D01*
G75*
G02*
X105931750Y-71992251I0J249999D01*
G01*
X105931750Y-70692249D01*
G75*
G02*
X106181749Y-70442250I249999J0D01*
G01*
X106831751Y-70442250D01*
G75*
G02*
X107081750Y-70692249I0J-249999D01*
G01*
G37*
G36*
G01*
X110031750Y-70692249D02*
X110031750Y-71992251D01*
G75*
G02*
X109781751Y-72242250I-249999J0D01*
G01*
X109131749Y-72242250D01*
G75*
G02*
X108881750Y-71992251I0J249999D01*
G01*
X108881750Y-70692249D01*
G75*
G02*
X109131749Y-70442250I249999J0D01*
G01*
X109781751Y-70442250D01*
G75*
G02*
X110031750Y-70692249I0J-249999D01*
G01*
G37*
%TD*%
%TO.C,C2*%
G36*
G01*
X107081750Y-67644249D02*
X107081750Y-68944251D01*
G75*
G02*
X106831751Y-69194250I-249999J0D01*
G01*
X106181749Y-69194250D01*
G75*
G02*
X105931750Y-68944251I0J249999D01*
G01*
X105931750Y-67644249D01*
G75*
G02*
X106181749Y-67394250I249999J0D01*
G01*
X106831751Y-67394250D01*
G75*
G02*
X107081750Y-67644249I0J-249999D01*
G01*
G37*
G36*
G01*
X110031750Y-67644249D02*
X110031750Y-68944251D01*
G75*
G02*
X109781751Y-69194250I-249999J0D01*
G01*
X109131749Y-69194250D01*
G75*
G02*
X108881750Y-68944251I0J249999D01*
G01*
X108881750Y-67644249D01*
G75*
G02*
X109131749Y-67394250I249999J0D01*
G01*
X109781751Y-67394250D01*
G75*
G02*
X110031750Y-67644249I0J-249999D01*
G01*
G37*
%TD*%
%TO.C,C1*%
G36*
G01*
X107081750Y-64342249D02*
X107081750Y-65642251D01*
G75*
G02*
X106831751Y-65892250I-249999J0D01*
G01*
X106181749Y-65892250D01*
G75*
G02*
X105931750Y-65642251I0J249999D01*
G01*
X105931750Y-64342249D01*
G75*
G02*
X106181749Y-64092250I249999J0D01*
G01*
X106831751Y-64092250D01*
G75*
G02*
X107081750Y-64342249I0J-249999D01*
G01*
G37*
G36*
G01*
X110031750Y-64342249D02*
X110031750Y-65642251D01*
G75*
G02*
X109781751Y-65892250I-249999J0D01*
G01*
X109131749Y-65892250D01*
G75*
G02*
X108881750Y-65642251I0J249999D01*
G01*
X108881750Y-64342249D01*
G75*
G02*
X109131749Y-64092250I249999J0D01*
G01*
X109781751Y-64092250D01*
G75*
G02*
X110031750Y-64342249I0J-249999D01*
G01*
G37*
%TD*%
M02*
