%TF.GenerationSoftware,KiCad,Pcbnew,(5.1.10)-1*%
%TF.CreationDate,2021-08-08T19:30:52+02:00*%
%TF.ProjectId,T1,54312e6b-6963-4616-945f-706362585858,rev?*%
%TF.SameCoordinates,Original*%
%TF.FileFunction,Copper,L1,Top*%
%TF.FilePolarity,Positive*%
%FSLAX46Y46*%
G04 Gerber Fmt 4.6, Leading zero omitted, Abs format (unit mm)*
G04 Created by KiCad (PCBNEW (5.1.10)-1) date 2021-08-08 19:30:52*
%MOMM*%
%LPD*%
G01*
G04 APERTURE LIST*
%TA.AperFunction,ComponentPad*%
%ADD10C,2.200000*%
%TD*%
%TA.AperFunction,SMDPad,CuDef*%
%ADD11R,0.600000X1.450000*%
%TD*%
%TA.AperFunction,SMDPad,CuDef*%
%ADD12R,0.300000X1.450000*%
%TD*%
%TA.AperFunction,ComponentPad*%
%ADD13O,1.000000X2.100000*%
%TD*%
%TA.AperFunction,ComponentPad*%
%ADD14O,1.000000X1.600000*%
%TD*%
%TA.AperFunction,ComponentPad*%
%ADD15C,2.000000*%
%TD*%
%TA.AperFunction,ComponentPad*%
%ADD16C,1.900000*%
%TD*%
%TA.AperFunction,ComponentPad*%
%ADD17R,1.900000X1.900000*%
%TD*%
%TA.AperFunction,ViaPad*%
%ADD18C,0.800000*%
%TD*%
%TA.AperFunction,Conductor*%
%ADD19C,0.250000*%
%TD*%
G04 APERTURE END LIST*
D10*
%TO.P,SW43,2*%
%TO.N,Net-(D41-Pad2)*%
X175418750Y-60864750D03*
%TO.P,SW43,1*%
%TO.N,/rightButtonSheet/row1*%
X181768750Y-58324750D03*
%TD*%
%TO.P,SW16,2*%
%TO.N,Net-(D16-Pad2)*%
X56610250Y-56038750D03*
%TO.P,SW16,1*%
%TO.N,/leftButtonSheet/row1*%
X62960250Y-53498750D03*
%TD*%
%TO.P,SW26,2*%
%TO.N,Net-(D26-Pad2)*%
X94710250Y-60864750D03*
%TO.P,SW26,1*%
%TO.N,/leftButtonSheet/row1*%
X101060250Y-58324750D03*
%TD*%
%TO.P,SW72,2*%
%TO.N,Net-(D70-Pad2)*%
X275494750Y-138715750D03*
%TO.P,SW72,1*%
%TO.N,/rightButtonSheet/row5*%
X281844750Y-136175750D03*
%TD*%
%TO.P,SW71,2*%
%TO.N,Net-(D69-Pad2)*%
X275494750Y-119665750D03*
%TO.P,SW71,1*%
%TO.N,/rightButtonSheet/row4*%
X281844750Y-117125750D03*
%TD*%
%TO.P,SW70,2*%
%TO.N,Net-(D68-Pad2)*%
X275494750Y-100615750D03*
%TO.P,SW70,1*%
%TO.N,/rightButtonSheet/row3*%
X281844750Y-98075750D03*
%TD*%
%TO.P,SW69,2*%
%TO.N,Net-(D67-Pad2)*%
X275494750Y-81565750D03*
%TO.P,SW69,1*%
%TO.N,/rightButtonSheet/row2*%
X281844750Y-79025750D03*
%TD*%
%TO.P,SW68,2*%
%TO.N,Net-(D66-Pad2)*%
X275494750Y-62515750D03*
%TO.P,SW68,1*%
%TO.N,/rightButtonSheet/row1*%
X281844750Y-59975750D03*
%TD*%
%TO.P,SW67,2*%
%TO.N,Net-(D65-Pad2)*%
X251618750Y-138715750D03*
%TO.P,SW67,1*%
%TO.N,/rightButtonSheet/row5*%
X257968750Y-136175750D03*
%TD*%
%TO.P,SW66,2*%
%TO.N,Net-(D64-Pad2)*%
X251618750Y-119665750D03*
%TO.P,SW66,1*%
%TO.N,/rightButtonSheet/row4*%
X257968750Y-117125750D03*
%TD*%
%TO.P,SW65,2*%
%TO.N,Net-(D63-Pad2)*%
X251618750Y-100615750D03*
%TO.P,SW65,1*%
%TO.N,/rightButtonSheet/row3*%
X257968750Y-98075750D03*
%TD*%
%TO.P,SW64,2*%
%TO.N,Net-(D62-Pad2)*%
X251618750Y-81565750D03*
%TO.P,SW64,1*%
%TO.N,/rightButtonSheet/row2*%
X257968750Y-79025750D03*
%TD*%
%TO.P,SW63,2*%
%TO.N,Net-(D61-Pad2)*%
X251618750Y-62515750D03*
%TO.P,SW63,1*%
%TO.N,/rightButtonSheet/row1*%
X257968750Y-59975750D03*
%TD*%
%TO.P,SW62,2*%
%TO.N,Net-(D60-Pad2)*%
X232568750Y-135159750D03*
%TO.P,SW62,1*%
%TO.N,/rightButtonSheet/row5*%
X238918750Y-132619750D03*
%TD*%
%TO.P,SW61,2*%
%TO.N,Net-(D59-Pad2)*%
X232568750Y-116109750D03*
%TO.P,SW61,1*%
%TO.N,/rightButtonSheet/row4*%
X238918750Y-113569750D03*
%TD*%
%TO.P,SW60,2*%
%TO.N,Net-(D58-Pad2)*%
X232568750Y-97059750D03*
%TO.P,SW60,1*%
%TO.N,/rightButtonSheet/row3*%
X238918750Y-94519750D03*
%TD*%
%TO.P,SW59,2*%
%TO.N,Net-(D57-Pad2)*%
X232568750Y-78009750D03*
%TO.P,SW59,1*%
%TO.N,/rightButtonSheet/row2*%
X238918750Y-75469750D03*
%TD*%
%TO.P,SW58,2*%
%TO.N,Net-(D56-Pad2)*%
X232568750Y-58959750D03*
%TO.P,SW58,1*%
%TO.N,/rightButtonSheet/row1*%
X238918750Y-56419750D03*
%TD*%
%TO.P,SW57,2*%
%TO.N,Net-(D55-Pad2)*%
X213518750Y-132238750D03*
%TO.P,SW57,1*%
%TO.N,/rightButtonSheet/row5*%
X219868750Y-129698750D03*
%TD*%
%TO.P,SW56,2*%
%TO.N,Net-(D54-Pad2)*%
X213518750Y-113188750D03*
%TO.P,SW56,1*%
%TO.N,/rightButtonSheet/row4*%
X219868750Y-110648750D03*
%TD*%
%TO.P,SW55,2*%
%TO.N,Net-(D53-Pad2)*%
X213518750Y-94138750D03*
%TO.P,SW55,1*%
%TO.N,/rightButtonSheet/row3*%
X219868750Y-91598750D03*
%TD*%
%TO.P,SW54,2*%
%TO.N,Net-(D52-Pad2)*%
X213518750Y-75088750D03*
%TO.P,SW54,1*%
%TO.N,/rightButtonSheet/row2*%
X219868750Y-72548750D03*
%TD*%
%TO.P,SW53,2*%
%TO.N,Net-(D51-Pad2)*%
X213518750Y-56038750D03*
%TO.P,SW53,1*%
%TO.N,/rightButtonSheet/row1*%
X219868750Y-53498750D03*
%TD*%
%TO.P,SW52,2*%
%TO.N,Net-(D50-Pad2)*%
X194468750Y-135159750D03*
%TO.P,SW52,1*%
%TO.N,/rightButtonSheet/row5*%
X200818750Y-132619750D03*
%TD*%
%TO.P,SW51,2*%
%TO.N,Net-(D49-Pad2)*%
X194468750Y-116109750D03*
%TO.P,SW51,1*%
%TO.N,/rightButtonSheet/row4*%
X200818750Y-113569750D03*
%TD*%
%TO.P,SW50,2*%
%TO.N,Net-(D48-Pad2)*%
X194468750Y-97059750D03*
%TO.P,SW50,1*%
%TO.N,/rightButtonSheet/row3*%
X200818750Y-94519750D03*
%TD*%
%TO.P,SW49,2*%
%TO.N,Net-(D47-Pad2)*%
X194468750Y-78009750D03*
%TO.P,SW49,1*%
%TO.N,/rightButtonSheet/row2*%
X200818750Y-75469750D03*
%TD*%
%TO.P,SW48,2*%
%TO.N,Net-(D46-Pad2)*%
X194468750Y-58959750D03*
%TO.P,SW48,1*%
%TO.N,/rightButtonSheet/row1*%
X200818750Y-56419750D03*
%TD*%
%TO.P,SW47,2*%
%TO.N,Net-(D45-Pad2)*%
X171103194Y-142820455D03*
%TO.P,SW47,1*%
%TO.N,/rightButtonSheet/row5*%
X175332455Y-137445750D03*
%TD*%
%TO.P,SW46,2*%
%TO.N,Net-(D44-Pad2)*%
X175418750Y-118014750D03*
%TO.P,SW46,1*%
%TO.N,/rightButtonSheet/row4*%
X181768750Y-115474750D03*
%TD*%
%TO.P,SW45,2*%
%TO.N,Net-(D43-Pad2)*%
X175418750Y-98964750D03*
%TO.P,SW45,1*%
%TO.N,/rightButtonSheet/row3*%
X181768750Y-96424750D03*
%TD*%
%TO.P,SW44,2*%
%TO.N,Net-(D42-Pad2)*%
X175418750Y-79914750D03*
%TO.P,SW44,1*%
%TO.N,/rightButtonSheet/row2*%
X181768750Y-77374750D03*
%TD*%
%TO.P,SW42,2*%
%TO.N,Net-(D40-Pad2)*%
X154164622Y-157012775D03*
%TO.P,SW42,1*%
%TO.N,/rightButtonSheet/row5*%
X156858699Y-150726596D03*
%TD*%
%TO.P,SW41,2*%
%TO.N,Net-(D39-Pad2)*%
X156368750Y-119665750D03*
%TO.P,SW41,1*%
%TO.N,/rightButtonSheet/row4*%
X162718750Y-117125750D03*
%TD*%
%TO.P,SW40,2*%
%TO.N,Net-(D38-Pad2)*%
X156368750Y-100615750D03*
%TO.P,SW40,1*%
%TO.N,/rightButtonSheet/row3*%
X162718750Y-98075750D03*
%TD*%
%TO.P,SW39,2*%
%TO.N,Net-(D37-Pad2)*%
X156368750Y-81565750D03*
%TO.P,SW39,1*%
%TO.N,/rightButtonSheet/row2*%
X162718750Y-79025750D03*
%TD*%
%TO.P,SW38,2*%
%TO.N,Net-(D36-Pad2)*%
X156368750Y-62515750D03*
%TO.P,SW38,1*%
%TO.N,/rightButtonSheet/row1*%
X162718750Y-59975750D03*
%TD*%
%TO.P,D68,2*%
%TO.N,Net-(D68-Pad2)*%
%TA.AperFunction,SMDPad,CuDef*%
G36*
G01*
X288181750Y-99990750D02*
X288181750Y-101240750D01*
G75*
G02*
X287931750Y-101490750I-250000J0D01*
G01*
X287181750Y-101490750D01*
G75*
G02*
X286931750Y-101240750I0J250000D01*
G01*
X286931750Y-99990750D01*
G75*
G02*
X287181750Y-99740750I250000J0D01*
G01*
X287931750Y-99740750D01*
G75*
G02*
X288181750Y-99990750I0J-250000D01*
G01*
G37*
%TD.AperFunction*%
%TO.P,D68,1*%
%TO.N,/rightButtonSheet/column7*%
%TA.AperFunction,SMDPad,CuDef*%
G36*
G01*
X290981750Y-99990750D02*
X290981750Y-101240750D01*
G75*
G02*
X290731750Y-101490750I-250000J0D01*
G01*
X289981750Y-101490750D01*
G75*
G02*
X289731750Y-101240750I0J250000D01*
G01*
X289731750Y-99990750D01*
G75*
G02*
X289981750Y-99740750I250000J0D01*
G01*
X290731750Y-99740750D01*
G75*
G02*
X290981750Y-99990750I0J-250000D01*
G01*
G37*
%TD.AperFunction*%
%TD*%
%TO.P,D60,2*%
%TO.N,Net-(D60-Pad2)*%
%TA.AperFunction,SMDPad,CuDef*%
G36*
G01*
X245125750Y-134534750D02*
X245125750Y-135784750D01*
G75*
G02*
X244875750Y-136034750I-250000J0D01*
G01*
X244125750Y-136034750D01*
G75*
G02*
X243875750Y-135784750I0J250000D01*
G01*
X243875750Y-134534750D01*
G75*
G02*
X244125750Y-134284750I250000J0D01*
G01*
X244875750Y-134284750D01*
G75*
G02*
X245125750Y-134534750I0J-250000D01*
G01*
G37*
%TD.AperFunction*%
%TO.P,D60,1*%
%TO.N,/rightButtonSheet/column5*%
%TA.AperFunction,SMDPad,CuDef*%
G36*
G01*
X247925750Y-134534750D02*
X247925750Y-135784750D01*
G75*
G02*
X247675750Y-136034750I-250000J0D01*
G01*
X246925750Y-136034750D01*
G75*
G02*
X246675750Y-135784750I0J250000D01*
G01*
X246675750Y-134534750D01*
G75*
G02*
X246925750Y-134284750I250000J0D01*
G01*
X247675750Y-134284750D01*
G75*
G02*
X247925750Y-134534750I0J-250000D01*
G01*
G37*
%TD.AperFunction*%
%TD*%
%TO.P,D45,2*%
%TO.N,Net-(D45-Pad2)*%
%TA.AperFunction,SMDPad,CuDef*%
G36*
G01*
X181858644Y-135959984D02*
X182483644Y-137042516D01*
G75*
G02*
X182392138Y-137384022I-216506J-125000D01*
G01*
X181742618Y-137759022D01*
G75*
G02*
X181401112Y-137667516I-125000J216506D01*
G01*
X180776112Y-136584984D01*
G75*
G02*
X180867618Y-136243478I216506J125000D01*
G01*
X181517138Y-135868478D01*
G75*
G02*
X181858644Y-135959984I125000J-216506D01*
G01*
G37*
%TD.AperFunction*%
%TO.P,D45,1*%
%TO.N,/rightButtonSheet/column2*%
%TA.AperFunction,SMDPad,CuDef*%
G36*
G01*
X184283516Y-134559984D02*
X184908516Y-135642516D01*
G75*
G02*
X184817010Y-135984022I-216506J-125000D01*
G01*
X184167490Y-136359022D01*
G75*
G02*
X183825984Y-136267516I-125000J216506D01*
G01*
X183200984Y-135184984D01*
G75*
G02*
X183292490Y-134843478I216506J125000D01*
G01*
X183942010Y-134468478D01*
G75*
G02*
X184283516Y-134559984I125000J-216506D01*
G01*
G37*
%TD.AperFunction*%
%TD*%
D11*
%TO.P,J1,B1*%
%TO.N,GND*%
X99461250Y-52527250D03*
%TO.P,J1,A9*%
%TO.N,VCC*%
X100261250Y-52527250D03*
%TO.P,J1,B9*%
X105161250Y-52527250D03*
%TO.P,J1,B12*%
%TO.N,GND*%
X105961250Y-52527250D03*
%TO.P,J1,A1*%
X105961250Y-52527250D03*
%TO.P,J1,A4*%
%TO.N,VCC*%
X105161250Y-52527250D03*
%TO.P,J1,B4*%
X100261250Y-52527250D03*
%TO.P,J1,A12*%
%TO.N,GND*%
X99461250Y-52527250D03*
D12*
%TO.P,J1,B8*%
%TO.N,Net-(J1-PadB8)*%
X104461250Y-52527250D03*
%TO.P,J1,A5*%
%TO.N,Net-(J1-PadA5)*%
X103961250Y-52527250D03*
%TO.P,J1,B7*%
%TO.N,Net-(J1-PadA7)*%
X103461250Y-52527250D03*
%TO.P,J1,A7*%
X102461250Y-52527250D03*
%TO.P,J1,B6*%
%TO.N,Net-(J1-PadA6)*%
X101961250Y-52527250D03*
%TO.P,J1,A8*%
%TO.N,Net-(J1-PadA8)*%
X101461250Y-52527250D03*
%TO.P,J1,B5*%
%TO.N,Net-(J1-PadB5)*%
X100961250Y-52527250D03*
%TO.P,J1,A6*%
%TO.N,Net-(J1-PadA6)*%
X102961250Y-52527250D03*
D13*
%TO.P,J1,S1*%
%TO.N,GND*%
X98391250Y-51612250D03*
X107031250Y-51612250D03*
D14*
X107031250Y-47432250D03*
X98391250Y-47432250D03*
%TD*%
D15*
%TO.P,SW37,1*%
%TO.N,Net-(C10-Pad2)*%
X177727750Y-47656750D03*
%TO.P,SW37,2*%
%TO.N,Net-(R5-Pad2)*%
X177727750Y-52156750D03*
%TO.P,SW37,1*%
%TO.N,Net-(C10-Pad2)*%
X171227750Y-47656750D03*
%TO.P,SW37,2*%
%TO.N,Net-(R5-Pad2)*%
X171227750Y-52156750D03*
%TD*%
%TO.P,SW36,1*%
%TO.N,GND*%
X95368250Y-45878750D03*
%TO.P,SW36,2*%
%TO.N,Net-(R1-Pad2)*%
X95368250Y-50378750D03*
%TO.P,SW36,1*%
%TO.N,GND*%
X88868250Y-45878750D03*
%TO.P,SW36,2*%
%TO.N,Net-(R1-Pad2)*%
X88868250Y-50378750D03*
%TD*%
D10*
%TO.P,SW35,2*%
%TO.N,Net-(D35-Pad2)*%
X118142071Y-151642673D03*
%TO.P,SW35,1*%
%TO.N,/leftButtonSheet/row5*%
X124428250Y-154336750D03*
%TD*%
%TO.P,SW34,2*%
%TO.N,Net-(D34-Pad2)*%
X113760250Y-119665750D03*
%TO.P,SW34,1*%
%TO.N,/leftButtonSheet/row4*%
X120110250Y-117125750D03*
%TD*%
%TO.P,SW33,2*%
%TO.N,Net-(D33-Pad2)*%
X113760250Y-100615750D03*
%TO.P,SW33,1*%
%TO.N,/leftButtonSheet/row3*%
X120110250Y-98075750D03*
%TD*%
%TO.P,SW32,2*%
%TO.N,Net-(D32-Pad2)*%
X113760250Y-81565750D03*
%TO.P,SW32,1*%
%TO.N,/leftButtonSheet/row2*%
X120110250Y-79025750D03*
%TD*%
%TO.P,SW31,2*%
%TO.N,Net-(D31-Pad2)*%
X113760250Y-62515750D03*
%TO.P,SW31,1*%
%TO.N,/leftButtonSheet/row1*%
X120110250Y-59975750D03*
%TD*%
%TO.P,SW30,2*%
%TO.N,Net-(D30-Pad2)*%
X100046694Y-139056046D03*
%TO.P,SW30,1*%
%TO.N,/leftButtonSheet/row5*%
X106815955Y-140031341D03*
%TD*%
%TO.P,SW29,2*%
%TO.N,Net-(D29-Pad2)*%
X94710250Y-118014750D03*
%TO.P,SW29,1*%
%TO.N,/leftButtonSheet/row4*%
X101060250Y-115474750D03*
%TD*%
%TO.P,SW28,2*%
%TO.N,Net-(D28-Pad2)*%
X94710250Y-98964750D03*
%TO.P,SW28,1*%
%TO.N,/leftButtonSheet/row3*%
X101060250Y-96424750D03*
%TD*%
%TO.P,SW27,2*%
%TO.N,Net-(D27-Pad2)*%
X94710250Y-79914750D03*
%TO.P,SW27,1*%
%TO.N,/leftButtonSheet/row2*%
X101060250Y-77374750D03*
%TD*%
%TO.P,SW25,2*%
%TO.N,Net-(D25-Pad2)*%
X75660250Y-135159750D03*
%TO.P,SW25,1*%
%TO.N,/leftButtonSheet/row5*%
X82010250Y-132619750D03*
%TD*%
%TO.P,SW24,2*%
%TO.N,Net-(D24-Pad2)*%
X75660250Y-116109750D03*
%TO.P,SW24,1*%
%TO.N,/leftButtonSheet/row4*%
X82010250Y-113569750D03*
%TD*%
%TO.P,SW23,2*%
%TO.N,Net-(D23-Pad2)*%
X75660250Y-97059750D03*
%TO.P,SW23,1*%
%TO.N,/leftButtonSheet/row3*%
X82010250Y-94519750D03*
%TD*%
%TO.P,SW22,2*%
%TO.N,Net-(D22-Pad2)*%
X75660250Y-78009750D03*
%TO.P,SW22,1*%
%TO.N,/leftButtonSheet/row2*%
X82010250Y-75469750D03*
%TD*%
%TO.P,SW21,2*%
%TO.N,Net-(D21-Pad2)*%
X75660250Y-58959750D03*
%TO.P,SW21,1*%
%TO.N,/leftButtonSheet/row1*%
X82010250Y-56419750D03*
%TD*%
%TO.P,SW20,2*%
%TO.N,Net-(D20-Pad2)*%
X56610250Y-132238750D03*
%TO.P,SW20,1*%
%TO.N,/leftButtonSheet/row5*%
X62960250Y-129698750D03*
%TD*%
%TO.P,SW19,2*%
%TO.N,Net-(D19-Pad2)*%
X56610250Y-113188750D03*
%TO.P,SW19,1*%
%TO.N,/leftButtonSheet/row4*%
X62960250Y-110648750D03*
%TD*%
%TO.P,SW18,2*%
%TO.N,Net-(D18-Pad2)*%
X56610250Y-94138750D03*
%TO.P,SW18,1*%
%TO.N,/leftButtonSheet/row3*%
X62960250Y-91598750D03*
%TD*%
%TO.P,SW17,2*%
%TO.N,Net-(D17-Pad2)*%
X56610250Y-75088750D03*
%TO.P,SW17,1*%
%TO.N,/leftButtonSheet/row2*%
X62960250Y-72548750D03*
%TD*%
%TO.P,SW15,2*%
%TO.N,Net-(D15-Pad2)*%
X37560250Y-135159750D03*
%TO.P,SW15,1*%
%TO.N,/leftButtonSheet/row5*%
X43910250Y-132619750D03*
%TD*%
%TO.P,SW14,2*%
%TO.N,Net-(D14-Pad2)*%
X37560250Y-116109750D03*
%TO.P,SW14,1*%
%TO.N,/leftButtonSheet/row4*%
X43910250Y-113569750D03*
%TD*%
%TO.P,SW13,2*%
%TO.N,Net-(D13-Pad2)*%
X37560250Y-97059750D03*
%TO.P,SW13,1*%
%TO.N,/leftButtonSheet/row3*%
X43910250Y-94519750D03*
%TD*%
%TO.P,SW12,2*%
%TO.N,Net-(D12-Pad2)*%
X37560250Y-78009750D03*
%TO.P,SW12,1*%
%TO.N,/leftButtonSheet/row2*%
X43910250Y-75469750D03*
%TD*%
%TO.P,SW11,2*%
%TO.N,Net-(D11-Pad2)*%
X37560250Y-58959750D03*
%TO.P,SW11,1*%
%TO.N,/leftButtonSheet/row1*%
X43910250Y-56419750D03*
%TD*%
%TO.P,SW10,2*%
%TO.N,Net-(D10-Pad2)*%
X18510250Y-138715750D03*
%TO.P,SW10,1*%
%TO.N,/leftButtonSheet/row5*%
X24860250Y-136175750D03*
%TD*%
%TO.P,SW9,2*%
%TO.N,Net-(D9-Pad2)*%
X18510250Y-119665750D03*
%TO.P,SW9,1*%
%TO.N,/leftButtonSheet/row4*%
X24860250Y-117125750D03*
%TD*%
%TO.P,SW8,2*%
%TO.N,Net-(D8-Pad2)*%
X18510250Y-100615750D03*
%TO.P,SW8,1*%
%TO.N,/leftButtonSheet/row3*%
X24860250Y-98075750D03*
%TD*%
%TO.P,SW7,2*%
%TO.N,Net-(D7-Pad2)*%
X18510250Y-81565750D03*
%TO.P,SW7,1*%
%TO.N,/leftButtonSheet/row2*%
X24860250Y-79025750D03*
%TD*%
%TO.P,SW6,2*%
%TO.N,Net-(D6-Pad2)*%
X18510250Y-62515750D03*
%TO.P,SW6,1*%
%TO.N,/leftButtonSheet/row1*%
X24860250Y-59975750D03*
%TD*%
%TO.P,SW5,2*%
%TO.N,Net-(D5-Pad2)*%
X-5365750Y-138715750D03*
%TO.P,SW5,1*%
%TO.N,/leftButtonSheet/row5*%
X984250Y-136175750D03*
%TD*%
%TO.P,SW4,2*%
%TO.N,Net-(D4-Pad2)*%
X-5365750Y-119665750D03*
%TO.P,SW4,1*%
%TO.N,/leftButtonSheet/row4*%
X984250Y-117125750D03*
%TD*%
%TO.P,SW3,2*%
%TO.N,Net-(D3-Pad2)*%
X-5365750Y-100615750D03*
%TO.P,SW3,1*%
%TO.N,/leftButtonSheet/row3*%
X984250Y-98075750D03*
%TD*%
%TO.P,SW2,2*%
%TO.N,Net-(D2-Pad2)*%
X-5365750Y-81565750D03*
%TO.P,SW2,1*%
%TO.N,/leftButtonSheet/row2*%
X984250Y-79025750D03*
%TD*%
%TO.P,SW1,2*%
%TO.N,Net-(D1-Pad2)*%
X-5365750Y-62515750D03*
%TO.P,SW1,1*%
%TO.N,/leftButtonSheet/row1*%
X984250Y-59975750D03*
%TD*%
D16*
%TO.P,J3,S*%
%TO.N,Net-(C10-Pad2)*%
X164646750Y-52700750D03*
D17*
%TO.P,J3,R*%
%TO.N,Net-(J3-PadR)*%
X164646750Y-48200750D03*
D16*
%TO.P,J3,T*%
%TO.N,Net-(J3-PadT)*%
X157146750Y-53350750D03*
X157146750Y-47550750D03*
%TD*%
%TO.P,J2,S*%
%TO.N,GND*%
X113102250Y-48200750D03*
D17*
%TO.P,J2,R*%
%TO.N,Net-(J2-PadR)*%
X113102250Y-52700750D03*
D16*
%TO.P,J2,T*%
%TO.N,VCC*%
X120602250Y-47550750D03*
X120602250Y-53350750D03*
%TD*%
%TO.P,D70,2*%
%TO.N,Net-(D70-Pad2)*%
%TA.AperFunction,SMDPad,CuDef*%
G36*
G01*
X288181750Y-138090750D02*
X288181750Y-139340750D01*
G75*
G02*
X287931750Y-139590750I-250000J0D01*
G01*
X287181750Y-139590750D01*
G75*
G02*
X286931750Y-139340750I0J250000D01*
G01*
X286931750Y-138090750D01*
G75*
G02*
X287181750Y-137840750I250000J0D01*
G01*
X287931750Y-137840750D01*
G75*
G02*
X288181750Y-138090750I0J-250000D01*
G01*
G37*
%TD.AperFunction*%
%TO.P,D70,1*%
%TO.N,/rightButtonSheet/column7*%
%TA.AperFunction,SMDPad,CuDef*%
G36*
G01*
X290981750Y-138090750D02*
X290981750Y-139340750D01*
G75*
G02*
X290731750Y-139590750I-250000J0D01*
G01*
X289981750Y-139590750D01*
G75*
G02*
X289731750Y-139340750I0J250000D01*
G01*
X289731750Y-138090750D01*
G75*
G02*
X289981750Y-137840750I250000J0D01*
G01*
X290731750Y-137840750D01*
G75*
G02*
X290981750Y-138090750I0J-250000D01*
G01*
G37*
%TD.AperFunction*%
%TD*%
%TO.P,D69,2*%
%TO.N,Net-(D69-Pad2)*%
%TA.AperFunction,SMDPad,CuDef*%
G36*
G01*
X288181750Y-119040750D02*
X288181750Y-120290750D01*
G75*
G02*
X287931750Y-120540750I-250000J0D01*
G01*
X287181750Y-120540750D01*
G75*
G02*
X286931750Y-120290750I0J250000D01*
G01*
X286931750Y-119040750D01*
G75*
G02*
X287181750Y-118790750I250000J0D01*
G01*
X287931750Y-118790750D01*
G75*
G02*
X288181750Y-119040750I0J-250000D01*
G01*
G37*
%TD.AperFunction*%
%TO.P,D69,1*%
%TO.N,/rightButtonSheet/column7*%
%TA.AperFunction,SMDPad,CuDef*%
G36*
G01*
X290981750Y-119040750D02*
X290981750Y-120290750D01*
G75*
G02*
X290731750Y-120540750I-250000J0D01*
G01*
X289981750Y-120540750D01*
G75*
G02*
X289731750Y-120290750I0J250000D01*
G01*
X289731750Y-119040750D01*
G75*
G02*
X289981750Y-118790750I250000J0D01*
G01*
X290731750Y-118790750D01*
G75*
G02*
X290981750Y-119040750I0J-250000D01*
G01*
G37*
%TD.AperFunction*%
%TD*%
%TO.P,D67,2*%
%TO.N,Net-(D67-Pad2)*%
%TA.AperFunction,SMDPad,CuDef*%
G36*
G01*
X288181750Y-80940750D02*
X288181750Y-82190750D01*
G75*
G02*
X287931750Y-82440750I-250000J0D01*
G01*
X287181750Y-82440750D01*
G75*
G02*
X286931750Y-82190750I0J250000D01*
G01*
X286931750Y-80940750D01*
G75*
G02*
X287181750Y-80690750I250000J0D01*
G01*
X287931750Y-80690750D01*
G75*
G02*
X288181750Y-80940750I0J-250000D01*
G01*
G37*
%TD.AperFunction*%
%TO.P,D67,1*%
%TO.N,/rightButtonSheet/column7*%
%TA.AperFunction,SMDPad,CuDef*%
G36*
G01*
X290981750Y-80940750D02*
X290981750Y-82190750D01*
G75*
G02*
X290731750Y-82440750I-250000J0D01*
G01*
X289981750Y-82440750D01*
G75*
G02*
X289731750Y-82190750I0J250000D01*
G01*
X289731750Y-80940750D01*
G75*
G02*
X289981750Y-80690750I250000J0D01*
G01*
X290731750Y-80690750D01*
G75*
G02*
X290981750Y-80940750I0J-250000D01*
G01*
G37*
%TD.AperFunction*%
%TD*%
%TO.P,D66,2*%
%TO.N,Net-(D66-Pad2)*%
%TA.AperFunction,SMDPad,CuDef*%
G36*
G01*
X288181750Y-61890750D02*
X288181750Y-63140750D01*
G75*
G02*
X287931750Y-63390750I-250000J0D01*
G01*
X287181750Y-63390750D01*
G75*
G02*
X286931750Y-63140750I0J250000D01*
G01*
X286931750Y-61890750D01*
G75*
G02*
X287181750Y-61640750I250000J0D01*
G01*
X287931750Y-61640750D01*
G75*
G02*
X288181750Y-61890750I0J-250000D01*
G01*
G37*
%TD.AperFunction*%
%TO.P,D66,1*%
%TO.N,/rightButtonSheet/column7*%
%TA.AperFunction,SMDPad,CuDef*%
G36*
G01*
X290981750Y-61890750D02*
X290981750Y-63140750D01*
G75*
G02*
X290731750Y-63390750I-250000J0D01*
G01*
X289981750Y-63390750D01*
G75*
G02*
X289731750Y-63140750I0J250000D01*
G01*
X289731750Y-61890750D01*
G75*
G02*
X289981750Y-61640750I250000J0D01*
G01*
X290731750Y-61640750D01*
G75*
G02*
X290981750Y-61890750I0J-250000D01*
G01*
G37*
%TD.AperFunction*%
%TD*%
%TO.P,D65,2*%
%TO.N,Net-(D65-Pad2)*%
%TA.AperFunction,SMDPad,CuDef*%
G36*
G01*
X264178750Y-138090750D02*
X264178750Y-139340750D01*
G75*
G02*
X263928750Y-139590750I-250000J0D01*
G01*
X263178750Y-139590750D01*
G75*
G02*
X262928750Y-139340750I0J250000D01*
G01*
X262928750Y-138090750D01*
G75*
G02*
X263178750Y-137840750I250000J0D01*
G01*
X263928750Y-137840750D01*
G75*
G02*
X264178750Y-138090750I0J-250000D01*
G01*
G37*
%TD.AperFunction*%
%TO.P,D65,1*%
%TO.N,/rightButtonSheet/column6*%
%TA.AperFunction,SMDPad,CuDef*%
G36*
G01*
X266978750Y-138090750D02*
X266978750Y-139340750D01*
G75*
G02*
X266728750Y-139590750I-250000J0D01*
G01*
X265978750Y-139590750D01*
G75*
G02*
X265728750Y-139340750I0J250000D01*
G01*
X265728750Y-138090750D01*
G75*
G02*
X265978750Y-137840750I250000J0D01*
G01*
X266728750Y-137840750D01*
G75*
G02*
X266978750Y-138090750I0J-250000D01*
G01*
G37*
%TD.AperFunction*%
%TD*%
%TO.P,D64,2*%
%TO.N,Net-(D64-Pad2)*%
%TA.AperFunction,SMDPad,CuDef*%
G36*
G01*
X264178750Y-119040750D02*
X264178750Y-120290750D01*
G75*
G02*
X263928750Y-120540750I-250000J0D01*
G01*
X263178750Y-120540750D01*
G75*
G02*
X262928750Y-120290750I0J250000D01*
G01*
X262928750Y-119040750D01*
G75*
G02*
X263178750Y-118790750I250000J0D01*
G01*
X263928750Y-118790750D01*
G75*
G02*
X264178750Y-119040750I0J-250000D01*
G01*
G37*
%TD.AperFunction*%
%TO.P,D64,1*%
%TO.N,/rightButtonSheet/column6*%
%TA.AperFunction,SMDPad,CuDef*%
G36*
G01*
X266978750Y-119040750D02*
X266978750Y-120290750D01*
G75*
G02*
X266728750Y-120540750I-250000J0D01*
G01*
X265978750Y-120540750D01*
G75*
G02*
X265728750Y-120290750I0J250000D01*
G01*
X265728750Y-119040750D01*
G75*
G02*
X265978750Y-118790750I250000J0D01*
G01*
X266728750Y-118790750D01*
G75*
G02*
X266978750Y-119040750I0J-250000D01*
G01*
G37*
%TD.AperFunction*%
%TD*%
%TO.P,D63,2*%
%TO.N,Net-(D63-Pad2)*%
%TA.AperFunction,SMDPad,CuDef*%
G36*
G01*
X264175750Y-99990750D02*
X264175750Y-101240750D01*
G75*
G02*
X263925750Y-101490750I-250000J0D01*
G01*
X263175750Y-101490750D01*
G75*
G02*
X262925750Y-101240750I0J250000D01*
G01*
X262925750Y-99990750D01*
G75*
G02*
X263175750Y-99740750I250000J0D01*
G01*
X263925750Y-99740750D01*
G75*
G02*
X264175750Y-99990750I0J-250000D01*
G01*
G37*
%TD.AperFunction*%
%TO.P,D63,1*%
%TO.N,/rightButtonSheet/column6*%
%TA.AperFunction,SMDPad,CuDef*%
G36*
G01*
X266975750Y-99990750D02*
X266975750Y-101240750D01*
G75*
G02*
X266725750Y-101490750I-250000J0D01*
G01*
X265975750Y-101490750D01*
G75*
G02*
X265725750Y-101240750I0J250000D01*
G01*
X265725750Y-99990750D01*
G75*
G02*
X265975750Y-99740750I250000J0D01*
G01*
X266725750Y-99740750D01*
G75*
G02*
X266975750Y-99990750I0J-250000D01*
G01*
G37*
%TD.AperFunction*%
%TD*%
%TO.P,D62,2*%
%TO.N,Net-(D62-Pad2)*%
%TA.AperFunction,SMDPad,CuDef*%
G36*
G01*
X264178750Y-80940750D02*
X264178750Y-82190750D01*
G75*
G02*
X263928750Y-82440750I-250000J0D01*
G01*
X263178750Y-82440750D01*
G75*
G02*
X262928750Y-82190750I0J250000D01*
G01*
X262928750Y-80940750D01*
G75*
G02*
X263178750Y-80690750I250000J0D01*
G01*
X263928750Y-80690750D01*
G75*
G02*
X264178750Y-80940750I0J-250000D01*
G01*
G37*
%TD.AperFunction*%
%TO.P,D62,1*%
%TO.N,/rightButtonSheet/column6*%
%TA.AperFunction,SMDPad,CuDef*%
G36*
G01*
X266978750Y-80940750D02*
X266978750Y-82190750D01*
G75*
G02*
X266728750Y-82440750I-250000J0D01*
G01*
X265978750Y-82440750D01*
G75*
G02*
X265728750Y-82190750I0J250000D01*
G01*
X265728750Y-80940750D01*
G75*
G02*
X265978750Y-80690750I250000J0D01*
G01*
X266728750Y-80690750D01*
G75*
G02*
X266978750Y-80940750I0J-250000D01*
G01*
G37*
%TD.AperFunction*%
%TD*%
%TO.P,D61,2*%
%TO.N,Net-(D61-Pad2)*%
%TA.AperFunction,SMDPad,CuDef*%
G36*
G01*
X264178750Y-61890750D02*
X264178750Y-63140750D01*
G75*
G02*
X263928750Y-63390750I-250000J0D01*
G01*
X263178750Y-63390750D01*
G75*
G02*
X262928750Y-63140750I0J250000D01*
G01*
X262928750Y-61890750D01*
G75*
G02*
X263178750Y-61640750I250000J0D01*
G01*
X263928750Y-61640750D01*
G75*
G02*
X264178750Y-61890750I0J-250000D01*
G01*
G37*
%TD.AperFunction*%
%TO.P,D61,1*%
%TO.N,/rightButtonSheet/column6*%
%TA.AperFunction,SMDPad,CuDef*%
G36*
G01*
X266978750Y-61890750D02*
X266978750Y-63140750D01*
G75*
G02*
X266728750Y-63390750I-250000J0D01*
G01*
X265978750Y-63390750D01*
G75*
G02*
X265728750Y-63140750I0J250000D01*
G01*
X265728750Y-61890750D01*
G75*
G02*
X265978750Y-61640750I250000J0D01*
G01*
X266728750Y-61640750D01*
G75*
G02*
X266978750Y-61890750I0J-250000D01*
G01*
G37*
%TD.AperFunction*%
%TD*%
%TO.P,D59,2*%
%TO.N,Net-(D59-Pad2)*%
%TA.AperFunction,SMDPad,CuDef*%
G36*
G01*
X245128750Y-115484750D02*
X245128750Y-116734750D01*
G75*
G02*
X244878750Y-116984750I-250000J0D01*
G01*
X244128750Y-116984750D01*
G75*
G02*
X243878750Y-116734750I0J250000D01*
G01*
X243878750Y-115484750D01*
G75*
G02*
X244128750Y-115234750I250000J0D01*
G01*
X244878750Y-115234750D01*
G75*
G02*
X245128750Y-115484750I0J-250000D01*
G01*
G37*
%TD.AperFunction*%
%TO.P,D59,1*%
%TO.N,/rightButtonSheet/column5*%
%TA.AperFunction,SMDPad,CuDef*%
G36*
G01*
X247928750Y-115484750D02*
X247928750Y-116734750D01*
G75*
G02*
X247678750Y-116984750I-250000J0D01*
G01*
X246928750Y-116984750D01*
G75*
G02*
X246678750Y-116734750I0J250000D01*
G01*
X246678750Y-115484750D01*
G75*
G02*
X246928750Y-115234750I250000J0D01*
G01*
X247678750Y-115234750D01*
G75*
G02*
X247928750Y-115484750I0J-250000D01*
G01*
G37*
%TD.AperFunction*%
%TD*%
%TO.P,D58,2*%
%TO.N,Net-(D58-Pad2)*%
%TA.AperFunction,SMDPad,CuDef*%
G36*
G01*
X245128750Y-96434750D02*
X245128750Y-97684750D01*
G75*
G02*
X244878750Y-97934750I-250000J0D01*
G01*
X244128750Y-97934750D01*
G75*
G02*
X243878750Y-97684750I0J250000D01*
G01*
X243878750Y-96434750D01*
G75*
G02*
X244128750Y-96184750I250000J0D01*
G01*
X244878750Y-96184750D01*
G75*
G02*
X245128750Y-96434750I0J-250000D01*
G01*
G37*
%TD.AperFunction*%
%TO.P,D58,1*%
%TO.N,/rightButtonSheet/column5*%
%TA.AperFunction,SMDPad,CuDef*%
G36*
G01*
X247928750Y-96434750D02*
X247928750Y-97684750D01*
G75*
G02*
X247678750Y-97934750I-250000J0D01*
G01*
X246928750Y-97934750D01*
G75*
G02*
X246678750Y-97684750I0J250000D01*
G01*
X246678750Y-96434750D01*
G75*
G02*
X246928750Y-96184750I250000J0D01*
G01*
X247678750Y-96184750D01*
G75*
G02*
X247928750Y-96434750I0J-250000D01*
G01*
G37*
%TD.AperFunction*%
%TD*%
%TO.P,D57,2*%
%TO.N,Net-(D57-Pad2)*%
%TA.AperFunction,SMDPad,CuDef*%
G36*
G01*
X245128750Y-77384750D02*
X245128750Y-78634750D01*
G75*
G02*
X244878750Y-78884750I-250000J0D01*
G01*
X244128750Y-78884750D01*
G75*
G02*
X243878750Y-78634750I0J250000D01*
G01*
X243878750Y-77384750D01*
G75*
G02*
X244128750Y-77134750I250000J0D01*
G01*
X244878750Y-77134750D01*
G75*
G02*
X245128750Y-77384750I0J-250000D01*
G01*
G37*
%TD.AperFunction*%
%TO.P,D57,1*%
%TO.N,/rightButtonSheet/column5*%
%TA.AperFunction,SMDPad,CuDef*%
G36*
G01*
X247928750Y-77384750D02*
X247928750Y-78634750D01*
G75*
G02*
X247678750Y-78884750I-250000J0D01*
G01*
X246928750Y-78884750D01*
G75*
G02*
X246678750Y-78634750I0J250000D01*
G01*
X246678750Y-77384750D01*
G75*
G02*
X246928750Y-77134750I250000J0D01*
G01*
X247678750Y-77134750D01*
G75*
G02*
X247928750Y-77384750I0J-250000D01*
G01*
G37*
%TD.AperFunction*%
%TD*%
%TO.P,D56,2*%
%TO.N,Net-(D56-Pad2)*%
%TA.AperFunction,SMDPad,CuDef*%
G36*
G01*
X245128750Y-58334750D02*
X245128750Y-59584750D01*
G75*
G02*
X244878750Y-59834750I-250000J0D01*
G01*
X244128750Y-59834750D01*
G75*
G02*
X243878750Y-59584750I0J250000D01*
G01*
X243878750Y-58334750D01*
G75*
G02*
X244128750Y-58084750I250000J0D01*
G01*
X244878750Y-58084750D01*
G75*
G02*
X245128750Y-58334750I0J-250000D01*
G01*
G37*
%TD.AperFunction*%
%TO.P,D56,1*%
%TO.N,/rightButtonSheet/column5*%
%TA.AperFunction,SMDPad,CuDef*%
G36*
G01*
X247928750Y-58334750D02*
X247928750Y-59584750D01*
G75*
G02*
X247678750Y-59834750I-250000J0D01*
G01*
X246928750Y-59834750D01*
G75*
G02*
X246678750Y-59584750I0J250000D01*
G01*
X246678750Y-58334750D01*
G75*
G02*
X246928750Y-58084750I250000J0D01*
G01*
X247678750Y-58084750D01*
G75*
G02*
X247928750Y-58334750I0J-250000D01*
G01*
G37*
%TD.AperFunction*%
%TD*%
%TO.P,D55,2*%
%TO.N,Net-(D55-Pad2)*%
%TA.AperFunction,SMDPad,CuDef*%
G36*
G01*
X226078750Y-131613750D02*
X226078750Y-132863750D01*
G75*
G02*
X225828750Y-133113750I-250000J0D01*
G01*
X225078750Y-133113750D01*
G75*
G02*
X224828750Y-132863750I0J250000D01*
G01*
X224828750Y-131613750D01*
G75*
G02*
X225078750Y-131363750I250000J0D01*
G01*
X225828750Y-131363750D01*
G75*
G02*
X226078750Y-131613750I0J-250000D01*
G01*
G37*
%TD.AperFunction*%
%TO.P,D55,1*%
%TO.N,/rightButtonSheet/column4*%
%TA.AperFunction,SMDPad,CuDef*%
G36*
G01*
X228878750Y-131613750D02*
X228878750Y-132863750D01*
G75*
G02*
X228628750Y-133113750I-250000J0D01*
G01*
X227878750Y-133113750D01*
G75*
G02*
X227628750Y-132863750I0J250000D01*
G01*
X227628750Y-131613750D01*
G75*
G02*
X227878750Y-131363750I250000J0D01*
G01*
X228628750Y-131363750D01*
G75*
G02*
X228878750Y-131613750I0J-250000D01*
G01*
G37*
%TD.AperFunction*%
%TD*%
%TO.P,D54,2*%
%TO.N,Net-(D54-Pad2)*%
%TA.AperFunction,SMDPad,CuDef*%
G36*
G01*
X226078750Y-112563750D02*
X226078750Y-113813750D01*
G75*
G02*
X225828750Y-114063750I-250000J0D01*
G01*
X225078750Y-114063750D01*
G75*
G02*
X224828750Y-113813750I0J250000D01*
G01*
X224828750Y-112563750D01*
G75*
G02*
X225078750Y-112313750I250000J0D01*
G01*
X225828750Y-112313750D01*
G75*
G02*
X226078750Y-112563750I0J-250000D01*
G01*
G37*
%TD.AperFunction*%
%TO.P,D54,1*%
%TO.N,/rightButtonSheet/column4*%
%TA.AperFunction,SMDPad,CuDef*%
G36*
G01*
X228878750Y-112563750D02*
X228878750Y-113813750D01*
G75*
G02*
X228628750Y-114063750I-250000J0D01*
G01*
X227878750Y-114063750D01*
G75*
G02*
X227628750Y-113813750I0J250000D01*
G01*
X227628750Y-112563750D01*
G75*
G02*
X227878750Y-112313750I250000J0D01*
G01*
X228628750Y-112313750D01*
G75*
G02*
X228878750Y-112563750I0J-250000D01*
G01*
G37*
%TD.AperFunction*%
%TD*%
%TO.P,D53,2*%
%TO.N,Net-(D53-Pad2)*%
%TA.AperFunction,SMDPad,CuDef*%
G36*
G01*
X226139250Y-93513750D02*
X226139250Y-94763750D01*
G75*
G02*
X225889250Y-95013750I-250000J0D01*
G01*
X225139250Y-95013750D01*
G75*
G02*
X224889250Y-94763750I0J250000D01*
G01*
X224889250Y-93513750D01*
G75*
G02*
X225139250Y-93263750I250000J0D01*
G01*
X225889250Y-93263750D01*
G75*
G02*
X226139250Y-93513750I0J-250000D01*
G01*
G37*
%TD.AperFunction*%
%TO.P,D53,1*%
%TO.N,/rightButtonSheet/column4*%
%TA.AperFunction,SMDPad,CuDef*%
G36*
G01*
X228939250Y-93513750D02*
X228939250Y-94763750D01*
G75*
G02*
X228689250Y-95013750I-250000J0D01*
G01*
X227939250Y-95013750D01*
G75*
G02*
X227689250Y-94763750I0J250000D01*
G01*
X227689250Y-93513750D01*
G75*
G02*
X227939250Y-93263750I250000J0D01*
G01*
X228689250Y-93263750D01*
G75*
G02*
X228939250Y-93513750I0J-250000D01*
G01*
G37*
%TD.AperFunction*%
%TD*%
%TO.P,D52,2*%
%TO.N,Net-(D52-Pad2)*%
%TA.AperFunction,SMDPad,CuDef*%
G36*
G01*
X226078750Y-74463750D02*
X226078750Y-75713750D01*
G75*
G02*
X225828750Y-75963750I-250000J0D01*
G01*
X225078750Y-75963750D01*
G75*
G02*
X224828750Y-75713750I0J250000D01*
G01*
X224828750Y-74463750D01*
G75*
G02*
X225078750Y-74213750I250000J0D01*
G01*
X225828750Y-74213750D01*
G75*
G02*
X226078750Y-74463750I0J-250000D01*
G01*
G37*
%TD.AperFunction*%
%TO.P,D52,1*%
%TO.N,/rightButtonSheet/column4*%
%TA.AperFunction,SMDPad,CuDef*%
G36*
G01*
X228878750Y-74463750D02*
X228878750Y-75713750D01*
G75*
G02*
X228628750Y-75963750I-250000J0D01*
G01*
X227878750Y-75963750D01*
G75*
G02*
X227628750Y-75713750I0J250000D01*
G01*
X227628750Y-74463750D01*
G75*
G02*
X227878750Y-74213750I250000J0D01*
G01*
X228628750Y-74213750D01*
G75*
G02*
X228878750Y-74463750I0J-250000D01*
G01*
G37*
%TD.AperFunction*%
%TD*%
%TO.P,D51,2*%
%TO.N,Net-(D51-Pad2)*%
%TA.AperFunction,SMDPad,CuDef*%
G36*
G01*
X226075750Y-55413750D02*
X226075750Y-56663750D01*
G75*
G02*
X225825750Y-56913750I-250000J0D01*
G01*
X225075750Y-56913750D01*
G75*
G02*
X224825750Y-56663750I0J250000D01*
G01*
X224825750Y-55413750D01*
G75*
G02*
X225075750Y-55163750I250000J0D01*
G01*
X225825750Y-55163750D01*
G75*
G02*
X226075750Y-55413750I0J-250000D01*
G01*
G37*
%TD.AperFunction*%
%TO.P,D51,1*%
%TO.N,/rightButtonSheet/column4*%
%TA.AperFunction,SMDPad,CuDef*%
G36*
G01*
X228875750Y-55413750D02*
X228875750Y-56663750D01*
G75*
G02*
X228625750Y-56913750I-250000J0D01*
G01*
X227875750Y-56913750D01*
G75*
G02*
X227625750Y-56663750I0J250000D01*
G01*
X227625750Y-55413750D01*
G75*
G02*
X227875750Y-55163750I250000J0D01*
G01*
X228625750Y-55163750D01*
G75*
G02*
X228875750Y-55413750I0J-250000D01*
G01*
G37*
%TD.AperFunction*%
%TD*%
%TO.P,D50,2*%
%TO.N,Net-(D50-Pad2)*%
%TA.AperFunction,SMDPad,CuDef*%
G36*
G01*
X207028750Y-134534750D02*
X207028750Y-135784750D01*
G75*
G02*
X206778750Y-136034750I-250000J0D01*
G01*
X206028750Y-136034750D01*
G75*
G02*
X205778750Y-135784750I0J250000D01*
G01*
X205778750Y-134534750D01*
G75*
G02*
X206028750Y-134284750I250000J0D01*
G01*
X206778750Y-134284750D01*
G75*
G02*
X207028750Y-134534750I0J-250000D01*
G01*
G37*
%TD.AperFunction*%
%TO.P,D50,1*%
%TO.N,/rightButtonSheet/column3*%
%TA.AperFunction,SMDPad,CuDef*%
G36*
G01*
X209828750Y-134534750D02*
X209828750Y-135784750D01*
G75*
G02*
X209578750Y-136034750I-250000J0D01*
G01*
X208828750Y-136034750D01*
G75*
G02*
X208578750Y-135784750I0J250000D01*
G01*
X208578750Y-134534750D01*
G75*
G02*
X208828750Y-134284750I250000J0D01*
G01*
X209578750Y-134284750D01*
G75*
G02*
X209828750Y-134534750I0J-250000D01*
G01*
G37*
%TD.AperFunction*%
%TD*%
%TO.P,D49,2*%
%TO.N,Net-(D49-Pad2)*%
%TA.AperFunction,SMDPad,CuDef*%
G36*
G01*
X207028750Y-115484750D02*
X207028750Y-116734750D01*
G75*
G02*
X206778750Y-116984750I-250000J0D01*
G01*
X206028750Y-116984750D01*
G75*
G02*
X205778750Y-116734750I0J250000D01*
G01*
X205778750Y-115484750D01*
G75*
G02*
X206028750Y-115234750I250000J0D01*
G01*
X206778750Y-115234750D01*
G75*
G02*
X207028750Y-115484750I0J-250000D01*
G01*
G37*
%TD.AperFunction*%
%TO.P,D49,1*%
%TO.N,/rightButtonSheet/column3*%
%TA.AperFunction,SMDPad,CuDef*%
G36*
G01*
X209828750Y-115484750D02*
X209828750Y-116734750D01*
G75*
G02*
X209578750Y-116984750I-250000J0D01*
G01*
X208828750Y-116984750D01*
G75*
G02*
X208578750Y-116734750I0J250000D01*
G01*
X208578750Y-115484750D01*
G75*
G02*
X208828750Y-115234750I250000J0D01*
G01*
X209578750Y-115234750D01*
G75*
G02*
X209828750Y-115484750I0J-250000D01*
G01*
G37*
%TD.AperFunction*%
%TD*%
%TO.P,D48,2*%
%TO.N,Net-(D48-Pad2)*%
%TA.AperFunction,SMDPad,CuDef*%
G36*
G01*
X207028750Y-96434750D02*
X207028750Y-97684750D01*
G75*
G02*
X206778750Y-97934750I-250000J0D01*
G01*
X206028750Y-97934750D01*
G75*
G02*
X205778750Y-97684750I0J250000D01*
G01*
X205778750Y-96434750D01*
G75*
G02*
X206028750Y-96184750I250000J0D01*
G01*
X206778750Y-96184750D01*
G75*
G02*
X207028750Y-96434750I0J-250000D01*
G01*
G37*
%TD.AperFunction*%
%TO.P,D48,1*%
%TO.N,/rightButtonSheet/column3*%
%TA.AperFunction,SMDPad,CuDef*%
G36*
G01*
X209828750Y-96434750D02*
X209828750Y-97684750D01*
G75*
G02*
X209578750Y-97934750I-250000J0D01*
G01*
X208828750Y-97934750D01*
G75*
G02*
X208578750Y-97684750I0J250000D01*
G01*
X208578750Y-96434750D01*
G75*
G02*
X208828750Y-96184750I250000J0D01*
G01*
X209578750Y-96184750D01*
G75*
G02*
X209828750Y-96434750I0J-250000D01*
G01*
G37*
%TD.AperFunction*%
%TD*%
%TO.P,D47,2*%
%TO.N,Net-(D47-Pad2)*%
%TA.AperFunction,SMDPad,CuDef*%
G36*
G01*
X207092250Y-77384750D02*
X207092250Y-78634750D01*
G75*
G02*
X206842250Y-78884750I-250000J0D01*
G01*
X206092250Y-78884750D01*
G75*
G02*
X205842250Y-78634750I0J250000D01*
G01*
X205842250Y-77384750D01*
G75*
G02*
X206092250Y-77134750I250000J0D01*
G01*
X206842250Y-77134750D01*
G75*
G02*
X207092250Y-77384750I0J-250000D01*
G01*
G37*
%TD.AperFunction*%
%TO.P,D47,1*%
%TO.N,/rightButtonSheet/column3*%
%TA.AperFunction,SMDPad,CuDef*%
G36*
G01*
X209892250Y-77384750D02*
X209892250Y-78634750D01*
G75*
G02*
X209642250Y-78884750I-250000J0D01*
G01*
X208892250Y-78884750D01*
G75*
G02*
X208642250Y-78634750I0J250000D01*
G01*
X208642250Y-77384750D01*
G75*
G02*
X208892250Y-77134750I250000J0D01*
G01*
X209642250Y-77134750D01*
G75*
G02*
X209892250Y-77384750I0J-250000D01*
G01*
G37*
%TD.AperFunction*%
%TD*%
%TO.P,D46,2*%
%TO.N,Net-(D46-Pad2)*%
%TA.AperFunction,SMDPad,CuDef*%
G36*
G01*
X207028750Y-58334750D02*
X207028750Y-59584750D01*
G75*
G02*
X206778750Y-59834750I-250000J0D01*
G01*
X206028750Y-59834750D01*
G75*
G02*
X205778750Y-59584750I0J250000D01*
G01*
X205778750Y-58334750D01*
G75*
G02*
X206028750Y-58084750I250000J0D01*
G01*
X206778750Y-58084750D01*
G75*
G02*
X207028750Y-58334750I0J-250000D01*
G01*
G37*
%TD.AperFunction*%
%TO.P,D46,1*%
%TO.N,/rightButtonSheet/column3*%
%TA.AperFunction,SMDPad,CuDef*%
G36*
G01*
X209828750Y-58334750D02*
X209828750Y-59584750D01*
G75*
G02*
X209578750Y-59834750I-250000J0D01*
G01*
X208828750Y-59834750D01*
G75*
G02*
X208578750Y-59584750I0J250000D01*
G01*
X208578750Y-58334750D01*
G75*
G02*
X208828750Y-58084750I250000J0D01*
G01*
X209578750Y-58084750D01*
G75*
G02*
X209828750Y-58334750I0J-250000D01*
G01*
G37*
%TD.AperFunction*%
%TD*%
%TO.P,D44,2*%
%TO.N,Net-(D44-Pad2)*%
%TA.AperFunction,SMDPad,CuDef*%
G36*
G01*
X187978750Y-117389750D02*
X187978750Y-118639750D01*
G75*
G02*
X187728750Y-118889750I-250000J0D01*
G01*
X186978750Y-118889750D01*
G75*
G02*
X186728750Y-118639750I0J250000D01*
G01*
X186728750Y-117389750D01*
G75*
G02*
X186978750Y-117139750I250000J0D01*
G01*
X187728750Y-117139750D01*
G75*
G02*
X187978750Y-117389750I0J-250000D01*
G01*
G37*
%TD.AperFunction*%
%TO.P,D44,1*%
%TO.N,/rightButtonSheet/column2*%
%TA.AperFunction,SMDPad,CuDef*%
G36*
G01*
X190778750Y-117389750D02*
X190778750Y-118639750D01*
G75*
G02*
X190528750Y-118889750I-250000J0D01*
G01*
X189778750Y-118889750D01*
G75*
G02*
X189528750Y-118639750I0J250000D01*
G01*
X189528750Y-117389750D01*
G75*
G02*
X189778750Y-117139750I250000J0D01*
G01*
X190528750Y-117139750D01*
G75*
G02*
X190778750Y-117389750I0J-250000D01*
G01*
G37*
%TD.AperFunction*%
%TD*%
%TO.P,D43,2*%
%TO.N,Net-(D43-Pad2)*%
%TA.AperFunction,SMDPad,CuDef*%
G36*
G01*
X187978750Y-98339750D02*
X187978750Y-99589750D01*
G75*
G02*
X187728750Y-99839750I-250000J0D01*
G01*
X186978750Y-99839750D01*
G75*
G02*
X186728750Y-99589750I0J250000D01*
G01*
X186728750Y-98339750D01*
G75*
G02*
X186978750Y-98089750I250000J0D01*
G01*
X187728750Y-98089750D01*
G75*
G02*
X187978750Y-98339750I0J-250000D01*
G01*
G37*
%TD.AperFunction*%
%TO.P,D43,1*%
%TO.N,/rightButtonSheet/column2*%
%TA.AperFunction,SMDPad,CuDef*%
G36*
G01*
X190778750Y-98339750D02*
X190778750Y-99589750D01*
G75*
G02*
X190528750Y-99839750I-250000J0D01*
G01*
X189778750Y-99839750D01*
G75*
G02*
X189528750Y-99589750I0J250000D01*
G01*
X189528750Y-98339750D01*
G75*
G02*
X189778750Y-98089750I250000J0D01*
G01*
X190528750Y-98089750D01*
G75*
G02*
X190778750Y-98339750I0J-250000D01*
G01*
G37*
%TD.AperFunction*%
%TD*%
%TO.P,D42,2*%
%TO.N,Net-(D42-Pad2)*%
%TA.AperFunction,SMDPad,CuDef*%
G36*
G01*
X187978750Y-79289750D02*
X187978750Y-80539750D01*
G75*
G02*
X187728750Y-80789750I-250000J0D01*
G01*
X186978750Y-80789750D01*
G75*
G02*
X186728750Y-80539750I0J250000D01*
G01*
X186728750Y-79289750D01*
G75*
G02*
X186978750Y-79039750I250000J0D01*
G01*
X187728750Y-79039750D01*
G75*
G02*
X187978750Y-79289750I0J-250000D01*
G01*
G37*
%TD.AperFunction*%
%TO.P,D42,1*%
%TO.N,/rightButtonSheet/column2*%
%TA.AperFunction,SMDPad,CuDef*%
G36*
G01*
X190778750Y-79289750D02*
X190778750Y-80539750D01*
G75*
G02*
X190528750Y-80789750I-250000J0D01*
G01*
X189778750Y-80789750D01*
G75*
G02*
X189528750Y-80539750I0J250000D01*
G01*
X189528750Y-79289750D01*
G75*
G02*
X189778750Y-79039750I250000J0D01*
G01*
X190528750Y-79039750D01*
G75*
G02*
X190778750Y-79289750I0J-250000D01*
G01*
G37*
%TD.AperFunction*%
%TD*%
%TO.P,D41,2*%
%TO.N,Net-(D41-Pad2)*%
%TA.AperFunction,SMDPad,CuDef*%
G36*
G01*
X187978750Y-60239750D02*
X187978750Y-61489750D01*
G75*
G02*
X187728750Y-61739750I-250000J0D01*
G01*
X186978750Y-61739750D01*
G75*
G02*
X186728750Y-61489750I0J250000D01*
G01*
X186728750Y-60239750D01*
G75*
G02*
X186978750Y-59989750I250000J0D01*
G01*
X187728750Y-59989750D01*
G75*
G02*
X187978750Y-60239750I0J-250000D01*
G01*
G37*
%TD.AperFunction*%
%TO.P,D41,1*%
%TO.N,/rightButtonSheet/column2*%
%TA.AperFunction,SMDPad,CuDef*%
G36*
G01*
X190778750Y-60239750D02*
X190778750Y-61489750D01*
G75*
G02*
X190528750Y-61739750I-250000J0D01*
G01*
X189778750Y-61739750D01*
G75*
G02*
X189528750Y-61489750I0J250000D01*
G01*
X189528750Y-60239750D01*
G75*
G02*
X189778750Y-59989750I250000J0D01*
G01*
X190528750Y-59989750D01*
G75*
G02*
X190778750Y-60239750I0J-250000D01*
G01*
G37*
%TD.AperFunction*%
%TD*%
%TO.P,D40,2*%
%TO.N,Net-(D40-Pad2)*%
%TA.AperFunction,SMDPad,CuDef*%
G36*
G01*
X162617801Y-147711815D02*
X163501685Y-148595699D01*
G75*
G02*
X163501685Y-148949253I-176777J-176777D01*
G01*
X162971355Y-149479583D01*
G75*
G02*
X162617801Y-149479583I-176777J176777D01*
G01*
X161733917Y-148595699D01*
G75*
G02*
X161733917Y-148242145I176777J176777D01*
G01*
X162264247Y-147711815D01*
G75*
G02*
X162617801Y-147711815I176777J-176777D01*
G01*
G37*
%TD.AperFunction*%
%TO.P,D40,1*%
%TO.N,/rightButtonSheet/column1*%
%TA.AperFunction,SMDPad,CuDef*%
G36*
G01*
X164597699Y-145731917D02*
X165481583Y-146615801D01*
G75*
G02*
X165481583Y-146969355I-176777J-176777D01*
G01*
X164951253Y-147499685D01*
G75*
G02*
X164597699Y-147499685I-176777J176777D01*
G01*
X163713815Y-146615801D01*
G75*
G02*
X163713815Y-146262247I176777J176777D01*
G01*
X164244145Y-145731917D01*
G75*
G02*
X164597699Y-145731917I176777J-176777D01*
G01*
G37*
%TD.AperFunction*%
%TD*%
%TO.P,D39,2*%
%TO.N,Net-(D39-Pad2)*%
%TA.AperFunction,SMDPad,CuDef*%
G36*
G01*
X168928750Y-119040750D02*
X168928750Y-120290750D01*
G75*
G02*
X168678750Y-120540750I-250000J0D01*
G01*
X167928750Y-120540750D01*
G75*
G02*
X167678750Y-120290750I0J250000D01*
G01*
X167678750Y-119040750D01*
G75*
G02*
X167928750Y-118790750I250000J0D01*
G01*
X168678750Y-118790750D01*
G75*
G02*
X168928750Y-119040750I0J-250000D01*
G01*
G37*
%TD.AperFunction*%
%TO.P,D39,1*%
%TO.N,/rightButtonSheet/column1*%
%TA.AperFunction,SMDPad,CuDef*%
G36*
G01*
X171728750Y-119040750D02*
X171728750Y-120290750D01*
G75*
G02*
X171478750Y-120540750I-250000J0D01*
G01*
X170728750Y-120540750D01*
G75*
G02*
X170478750Y-120290750I0J250000D01*
G01*
X170478750Y-119040750D01*
G75*
G02*
X170728750Y-118790750I250000J0D01*
G01*
X171478750Y-118790750D01*
G75*
G02*
X171728750Y-119040750I0J-250000D01*
G01*
G37*
%TD.AperFunction*%
%TD*%
%TO.P,D38,2*%
%TO.N,Net-(D38-Pad2)*%
%TA.AperFunction,SMDPad,CuDef*%
G36*
G01*
X168928750Y-99990750D02*
X168928750Y-101240750D01*
G75*
G02*
X168678750Y-101490750I-250000J0D01*
G01*
X167928750Y-101490750D01*
G75*
G02*
X167678750Y-101240750I0J250000D01*
G01*
X167678750Y-99990750D01*
G75*
G02*
X167928750Y-99740750I250000J0D01*
G01*
X168678750Y-99740750D01*
G75*
G02*
X168928750Y-99990750I0J-250000D01*
G01*
G37*
%TD.AperFunction*%
%TO.P,D38,1*%
%TO.N,/rightButtonSheet/column1*%
%TA.AperFunction,SMDPad,CuDef*%
G36*
G01*
X171728750Y-99990750D02*
X171728750Y-101240750D01*
G75*
G02*
X171478750Y-101490750I-250000J0D01*
G01*
X170728750Y-101490750D01*
G75*
G02*
X170478750Y-101240750I0J250000D01*
G01*
X170478750Y-99990750D01*
G75*
G02*
X170728750Y-99740750I250000J0D01*
G01*
X171478750Y-99740750D01*
G75*
G02*
X171728750Y-99990750I0J-250000D01*
G01*
G37*
%TD.AperFunction*%
%TD*%
%TO.P,D37,2*%
%TO.N,Net-(D37-Pad2)*%
%TA.AperFunction,SMDPad,CuDef*%
G36*
G01*
X168928750Y-80940750D02*
X168928750Y-82190750D01*
G75*
G02*
X168678750Y-82440750I-250000J0D01*
G01*
X167928750Y-82440750D01*
G75*
G02*
X167678750Y-82190750I0J250000D01*
G01*
X167678750Y-80940750D01*
G75*
G02*
X167928750Y-80690750I250000J0D01*
G01*
X168678750Y-80690750D01*
G75*
G02*
X168928750Y-80940750I0J-250000D01*
G01*
G37*
%TD.AperFunction*%
%TO.P,D37,1*%
%TO.N,/rightButtonSheet/column1*%
%TA.AperFunction,SMDPad,CuDef*%
G36*
G01*
X171728750Y-80940750D02*
X171728750Y-82190750D01*
G75*
G02*
X171478750Y-82440750I-250000J0D01*
G01*
X170728750Y-82440750D01*
G75*
G02*
X170478750Y-82190750I0J250000D01*
G01*
X170478750Y-80940750D01*
G75*
G02*
X170728750Y-80690750I250000J0D01*
G01*
X171478750Y-80690750D01*
G75*
G02*
X171728750Y-80940750I0J-250000D01*
G01*
G37*
%TD.AperFunction*%
%TD*%
%TO.P,D36,2*%
%TO.N,Net-(D36-Pad2)*%
%TA.AperFunction,SMDPad,CuDef*%
G36*
G01*
X168928750Y-61890750D02*
X168928750Y-63140750D01*
G75*
G02*
X168678750Y-63390750I-250000J0D01*
G01*
X167928750Y-63390750D01*
G75*
G02*
X167678750Y-63140750I0J250000D01*
G01*
X167678750Y-61890750D01*
G75*
G02*
X167928750Y-61640750I250000J0D01*
G01*
X168678750Y-61640750D01*
G75*
G02*
X168928750Y-61890750I0J-250000D01*
G01*
G37*
%TD.AperFunction*%
%TO.P,D36,1*%
%TO.N,/rightButtonSheet/column1*%
%TA.AperFunction,SMDPad,CuDef*%
G36*
G01*
X171728750Y-61890750D02*
X171728750Y-63140750D01*
G75*
G02*
X171478750Y-63390750I-250000J0D01*
G01*
X170728750Y-63390750D01*
G75*
G02*
X170478750Y-63140750I0J250000D01*
G01*
X170478750Y-61890750D01*
G75*
G02*
X170728750Y-61640750I250000J0D01*
G01*
X171478750Y-61640750D01*
G75*
G02*
X171728750Y-61890750I0J-250000D01*
G01*
G37*
%TD.AperFunction*%
%TD*%
%TO.P,D35,2*%
%TO.N,Net-(D35-Pad2)*%
%TA.AperFunction,SMDPad,CuDef*%
G36*
G01*
X114374315Y-148595699D02*
X115258199Y-147711815D01*
G75*
G02*
X115611753Y-147711815I176777J-176777D01*
G01*
X116142083Y-148242145D01*
G75*
G02*
X116142083Y-148595699I-176777J-176777D01*
G01*
X115258199Y-149479583D01*
G75*
G02*
X114904645Y-149479583I-176777J176777D01*
G01*
X114374315Y-148949253D01*
G75*
G02*
X114374315Y-148595699I176777J176777D01*
G01*
G37*
%TD.AperFunction*%
%TO.P,D35,1*%
%TO.N,/leftButtonSheet/column7*%
%TA.AperFunction,SMDPad,CuDef*%
G36*
G01*
X112394417Y-146615801D02*
X113278301Y-145731917D01*
G75*
G02*
X113631855Y-145731917I176777J-176777D01*
G01*
X114162185Y-146262247D01*
G75*
G02*
X114162185Y-146615801I-176777J-176777D01*
G01*
X113278301Y-147499685D01*
G75*
G02*
X112924747Y-147499685I-176777J176777D01*
G01*
X112394417Y-146969355D01*
G75*
G02*
X112394417Y-146615801I176777J176777D01*
G01*
G37*
%TD.AperFunction*%
%TD*%
%TO.P,D34,2*%
%TO.N,Net-(D34-Pad2)*%
%TA.AperFunction,SMDPad,CuDef*%
G36*
G01*
X108820250Y-119782750D02*
X108820250Y-118532750D01*
G75*
G02*
X109070250Y-118282750I250000J0D01*
G01*
X109820250Y-118282750D01*
G75*
G02*
X110070250Y-118532750I0J-250000D01*
G01*
X110070250Y-119782750D01*
G75*
G02*
X109820250Y-120032750I-250000J0D01*
G01*
X109070250Y-120032750D01*
G75*
G02*
X108820250Y-119782750I0J250000D01*
G01*
G37*
%TD.AperFunction*%
%TO.P,D34,1*%
%TO.N,/leftButtonSheet/column7*%
%TA.AperFunction,SMDPad,CuDef*%
G36*
G01*
X106020250Y-119782750D02*
X106020250Y-118532750D01*
G75*
G02*
X106270250Y-118282750I250000J0D01*
G01*
X107020250Y-118282750D01*
G75*
G02*
X107270250Y-118532750I0J-250000D01*
G01*
X107270250Y-119782750D01*
G75*
G02*
X107020250Y-120032750I-250000J0D01*
G01*
X106270250Y-120032750D01*
G75*
G02*
X106020250Y-119782750I0J250000D01*
G01*
G37*
%TD.AperFunction*%
%TD*%
%TO.P,D33,2*%
%TO.N,Net-(D33-Pad2)*%
%TA.AperFunction,SMDPad,CuDef*%
G36*
G01*
X108820250Y-100732750D02*
X108820250Y-99482750D01*
G75*
G02*
X109070250Y-99232750I250000J0D01*
G01*
X109820250Y-99232750D01*
G75*
G02*
X110070250Y-99482750I0J-250000D01*
G01*
X110070250Y-100732750D01*
G75*
G02*
X109820250Y-100982750I-250000J0D01*
G01*
X109070250Y-100982750D01*
G75*
G02*
X108820250Y-100732750I0J250000D01*
G01*
G37*
%TD.AperFunction*%
%TO.P,D33,1*%
%TO.N,/leftButtonSheet/column7*%
%TA.AperFunction,SMDPad,CuDef*%
G36*
G01*
X106020250Y-100732750D02*
X106020250Y-99482750D01*
G75*
G02*
X106270250Y-99232750I250000J0D01*
G01*
X107020250Y-99232750D01*
G75*
G02*
X107270250Y-99482750I0J-250000D01*
G01*
X107270250Y-100732750D01*
G75*
G02*
X107020250Y-100982750I-250000J0D01*
G01*
X106270250Y-100982750D01*
G75*
G02*
X106020250Y-100732750I0J250000D01*
G01*
G37*
%TD.AperFunction*%
%TD*%
%TO.P,D32,2*%
%TO.N,Net-(D32-Pad2)*%
%TA.AperFunction,SMDPad,CuDef*%
G36*
G01*
X108820250Y-81682750D02*
X108820250Y-80432750D01*
G75*
G02*
X109070250Y-80182750I250000J0D01*
G01*
X109820250Y-80182750D01*
G75*
G02*
X110070250Y-80432750I0J-250000D01*
G01*
X110070250Y-81682750D01*
G75*
G02*
X109820250Y-81932750I-250000J0D01*
G01*
X109070250Y-81932750D01*
G75*
G02*
X108820250Y-81682750I0J250000D01*
G01*
G37*
%TD.AperFunction*%
%TO.P,D32,1*%
%TO.N,/leftButtonSheet/column7*%
%TA.AperFunction,SMDPad,CuDef*%
G36*
G01*
X106020250Y-81682750D02*
X106020250Y-80432750D01*
G75*
G02*
X106270250Y-80182750I250000J0D01*
G01*
X107020250Y-80182750D01*
G75*
G02*
X107270250Y-80432750I0J-250000D01*
G01*
X107270250Y-81682750D01*
G75*
G02*
X107020250Y-81932750I-250000J0D01*
G01*
X106270250Y-81932750D01*
G75*
G02*
X106020250Y-81682750I0J250000D01*
G01*
G37*
%TD.AperFunction*%
%TD*%
%TO.P,D31,2*%
%TO.N,Net-(D31-Pad2)*%
%TA.AperFunction,SMDPad,CuDef*%
G36*
G01*
X108820250Y-62632750D02*
X108820250Y-61382750D01*
G75*
G02*
X109070250Y-61132750I250000J0D01*
G01*
X109820250Y-61132750D01*
G75*
G02*
X110070250Y-61382750I0J-250000D01*
G01*
X110070250Y-62632750D01*
G75*
G02*
X109820250Y-62882750I-250000J0D01*
G01*
X109070250Y-62882750D01*
G75*
G02*
X108820250Y-62632750I0J250000D01*
G01*
G37*
%TD.AperFunction*%
%TO.P,D31,1*%
%TO.N,/leftButtonSheet/column7*%
%TA.AperFunction,SMDPad,CuDef*%
G36*
G01*
X106020250Y-62632750D02*
X106020250Y-61382750D01*
G75*
G02*
X106270250Y-61132750I250000J0D01*
G01*
X107020250Y-61132750D01*
G75*
G02*
X107270250Y-61382750I0J-250000D01*
G01*
X107270250Y-62632750D01*
G75*
G02*
X107020250Y-62882750I-250000J0D01*
G01*
X106270250Y-62882750D01*
G75*
G02*
X106020250Y-62632750I0J250000D01*
G01*
G37*
%TD.AperFunction*%
%TD*%
%TO.P,D30,2*%
%TO.N,Net-(D30-Pad2)*%
%TA.AperFunction,SMDPad,CuDef*%
G36*
G01*
X95449920Y-137231516D02*
X96074920Y-136148984D01*
G75*
G02*
X96416426Y-136057478I216506J-125000D01*
G01*
X97065946Y-136432478D01*
G75*
G02*
X97157452Y-136773984I-125000J-216506D01*
G01*
X96532452Y-137856516D01*
G75*
G02*
X96190946Y-137948022I-216506J125000D01*
G01*
X95541426Y-137573022D01*
G75*
G02*
X95449920Y-137231516I125000J216506D01*
G01*
G37*
%TD.AperFunction*%
%TO.P,D30,1*%
%TO.N,/leftButtonSheet/column6*%
%TA.AperFunction,SMDPad,CuDef*%
G36*
G01*
X93025048Y-135831516D02*
X93650048Y-134748984D01*
G75*
G02*
X93991554Y-134657478I216506J-125000D01*
G01*
X94641074Y-135032478D01*
G75*
G02*
X94732580Y-135373984I-125000J-216506D01*
G01*
X94107580Y-136456516D01*
G75*
G02*
X93766074Y-136548022I-216506J125000D01*
G01*
X93116554Y-136173022D01*
G75*
G02*
X93025048Y-135831516I125000J216506D01*
G01*
G37*
%TD.AperFunction*%
%TD*%
%TO.P,D29,2*%
%TO.N,Net-(D29-Pad2)*%
%TA.AperFunction,SMDPad,CuDef*%
G36*
G01*
X89770250Y-117115750D02*
X89770250Y-115865750D01*
G75*
G02*
X90020250Y-115615750I250000J0D01*
G01*
X90770250Y-115615750D01*
G75*
G02*
X91020250Y-115865750I0J-250000D01*
G01*
X91020250Y-117115750D01*
G75*
G02*
X90770250Y-117365750I-250000J0D01*
G01*
X90020250Y-117365750D01*
G75*
G02*
X89770250Y-117115750I0J250000D01*
G01*
G37*
%TD.AperFunction*%
%TO.P,D29,1*%
%TO.N,/leftButtonSheet/column6*%
%TA.AperFunction,SMDPad,CuDef*%
G36*
G01*
X86970250Y-117115750D02*
X86970250Y-115865750D01*
G75*
G02*
X87220250Y-115615750I250000J0D01*
G01*
X87970250Y-115615750D01*
G75*
G02*
X88220250Y-115865750I0J-250000D01*
G01*
X88220250Y-117115750D01*
G75*
G02*
X87970250Y-117365750I-250000J0D01*
G01*
X87220250Y-117365750D01*
G75*
G02*
X86970250Y-117115750I0J250000D01*
G01*
G37*
%TD.AperFunction*%
%TD*%
%TO.P,D28,2*%
%TO.N,Net-(D28-Pad2)*%
%TA.AperFunction,SMDPad,CuDef*%
G36*
G01*
X89770250Y-98192750D02*
X89770250Y-96942750D01*
G75*
G02*
X90020250Y-96692750I250000J0D01*
G01*
X90770250Y-96692750D01*
G75*
G02*
X91020250Y-96942750I0J-250000D01*
G01*
X91020250Y-98192750D01*
G75*
G02*
X90770250Y-98442750I-250000J0D01*
G01*
X90020250Y-98442750D01*
G75*
G02*
X89770250Y-98192750I0J250000D01*
G01*
G37*
%TD.AperFunction*%
%TO.P,D28,1*%
%TO.N,/leftButtonSheet/column6*%
%TA.AperFunction,SMDPad,CuDef*%
G36*
G01*
X86970250Y-98192750D02*
X86970250Y-96942750D01*
G75*
G02*
X87220250Y-96692750I250000J0D01*
G01*
X87970250Y-96692750D01*
G75*
G02*
X88220250Y-96942750I0J-250000D01*
G01*
X88220250Y-98192750D01*
G75*
G02*
X87970250Y-98442750I-250000J0D01*
G01*
X87220250Y-98442750D01*
G75*
G02*
X86970250Y-98192750I0J250000D01*
G01*
G37*
%TD.AperFunction*%
%TD*%
%TO.P,D27,2*%
%TO.N,Net-(D27-Pad2)*%
%TA.AperFunction,SMDPad,CuDef*%
G36*
G01*
X89770250Y-79142750D02*
X89770250Y-77892750D01*
G75*
G02*
X90020250Y-77642750I250000J0D01*
G01*
X90770250Y-77642750D01*
G75*
G02*
X91020250Y-77892750I0J-250000D01*
G01*
X91020250Y-79142750D01*
G75*
G02*
X90770250Y-79392750I-250000J0D01*
G01*
X90020250Y-79392750D01*
G75*
G02*
X89770250Y-79142750I0J250000D01*
G01*
G37*
%TD.AperFunction*%
%TO.P,D27,1*%
%TO.N,/leftButtonSheet/column6*%
%TA.AperFunction,SMDPad,CuDef*%
G36*
G01*
X86970250Y-79142750D02*
X86970250Y-77892750D01*
G75*
G02*
X87220250Y-77642750I250000J0D01*
G01*
X87970250Y-77642750D01*
G75*
G02*
X88220250Y-77892750I0J-250000D01*
G01*
X88220250Y-79142750D01*
G75*
G02*
X87970250Y-79392750I-250000J0D01*
G01*
X87220250Y-79392750D01*
G75*
G02*
X86970250Y-79142750I0J250000D01*
G01*
G37*
%TD.AperFunction*%
%TD*%
%TO.P,D26,2*%
%TO.N,Net-(D26-Pad2)*%
%TA.AperFunction,SMDPad,CuDef*%
G36*
G01*
X89770250Y-60092750D02*
X89770250Y-58842750D01*
G75*
G02*
X90020250Y-58592750I250000J0D01*
G01*
X90770250Y-58592750D01*
G75*
G02*
X91020250Y-58842750I0J-250000D01*
G01*
X91020250Y-60092750D01*
G75*
G02*
X90770250Y-60342750I-250000J0D01*
G01*
X90020250Y-60342750D01*
G75*
G02*
X89770250Y-60092750I0J250000D01*
G01*
G37*
%TD.AperFunction*%
%TO.P,D26,1*%
%TO.N,/leftButtonSheet/column6*%
%TA.AperFunction,SMDPad,CuDef*%
G36*
G01*
X86970250Y-60092750D02*
X86970250Y-58842750D01*
G75*
G02*
X87220250Y-58592750I250000J0D01*
G01*
X87970250Y-58592750D01*
G75*
G02*
X88220250Y-58842750I0J-250000D01*
G01*
X88220250Y-60092750D01*
G75*
G02*
X87970250Y-60342750I-250000J0D01*
G01*
X87220250Y-60342750D01*
G75*
G02*
X86970250Y-60092750I0J250000D01*
G01*
G37*
%TD.AperFunction*%
%TD*%
%TO.P,D25,2*%
%TO.N,Net-(D25-Pad2)*%
%TA.AperFunction,SMDPad,CuDef*%
G36*
G01*
X70720250Y-133752750D02*
X70720250Y-132502750D01*
G75*
G02*
X70970250Y-132252750I250000J0D01*
G01*
X71720250Y-132252750D01*
G75*
G02*
X71970250Y-132502750I0J-250000D01*
G01*
X71970250Y-133752750D01*
G75*
G02*
X71720250Y-134002750I-250000J0D01*
G01*
X70970250Y-134002750D01*
G75*
G02*
X70720250Y-133752750I0J250000D01*
G01*
G37*
%TD.AperFunction*%
%TO.P,D25,1*%
%TO.N,/leftButtonSheet/column5*%
%TA.AperFunction,SMDPad,CuDef*%
G36*
G01*
X67920250Y-133752750D02*
X67920250Y-132502750D01*
G75*
G02*
X68170250Y-132252750I250000J0D01*
G01*
X68920250Y-132252750D01*
G75*
G02*
X69170250Y-132502750I0J-250000D01*
G01*
X69170250Y-133752750D01*
G75*
G02*
X68920250Y-134002750I-250000J0D01*
G01*
X68170250Y-134002750D01*
G75*
G02*
X67920250Y-133752750I0J250000D01*
G01*
G37*
%TD.AperFunction*%
%TD*%
%TO.P,D24,2*%
%TO.N,Net-(D24-Pad2)*%
%TA.AperFunction,SMDPad,CuDef*%
G36*
G01*
X70720250Y-114702750D02*
X70720250Y-113452750D01*
G75*
G02*
X70970250Y-113202750I250000J0D01*
G01*
X71720250Y-113202750D01*
G75*
G02*
X71970250Y-113452750I0J-250000D01*
G01*
X71970250Y-114702750D01*
G75*
G02*
X71720250Y-114952750I-250000J0D01*
G01*
X70970250Y-114952750D01*
G75*
G02*
X70720250Y-114702750I0J250000D01*
G01*
G37*
%TD.AperFunction*%
%TO.P,D24,1*%
%TO.N,/leftButtonSheet/column5*%
%TA.AperFunction,SMDPad,CuDef*%
G36*
G01*
X67920250Y-114702750D02*
X67920250Y-113452750D01*
G75*
G02*
X68170250Y-113202750I250000J0D01*
G01*
X68920250Y-113202750D01*
G75*
G02*
X69170250Y-113452750I0J-250000D01*
G01*
X69170250Y-114702750D01*
G75*
G02*
X68920250Y-114952750I-250000J0D01*
G01*
X68170250Y-114952750D01*
G75*
G02*
X67920250Y-114702750I0J250000D01*
G01*
G37*
%TD.AperFunction*%
%TD*%
%TO.P,D23,2*%
%TO.N,Net-(D23-Pad2)*%
%TA.AperFunction,SMDPad,CuDef*%
G36*
G01*
X70720250Y-95525750D02*
X70720250Y-94275750D01*
G75*
G02*
X70970250Y-94025750I250000J0D01*
G01*
X71720250Y-94025750D01*
G75*
G02*
X71970250Y-94275750I0J-250000D01*
G01*
X71970250Y-95525750D01*
G75*
G02*
X71720250Y-95775750I-250000J0D01*
G01*
X70970250Y-95775750D01*
G75*
G02*
X70720250Y-95525750I0J250000D01*
G01*
G37*
%TD.AperFunction*%
%TO.P,D23,1*%
%TO.N,/leftButtonSheet/column5*%
%TA.AperFunction,SMDPad,CuDef*%
G36*
G01*
X67920250Y-95525750D02*
X67920250Y-94275750D01*
G75*
G02*
X68170250Y-94025750I250000J0D01*
G01*
X68920250Y-94025750D01*
G75*
G02*
X69170250Y-94275750I0J-250000D01*
G01*
X69170250Y-95525750D01*
G75*
G02*
X68920250Y-95775750I-250000J0D01*
G01*
X68170250Y-95775750D01*
G75*
G02*
X67920250Y-95525750I0J250000D01*
G01*
G37*
%TD.AperFunction*%
%TD*%
%TO.P,D22,2*%
%TO.N,Net-(D22-Pad2)*%
%TA.AperFunction,SMDPad,CuDef*%
G36*
G01*
X70720250Y-76602750D02*
X70720250Y-75352750D01*
G75*
G02*
X70970250Y-75102750I250000J0D01*
G01*
X71720250Y-75102750D01*
G75*
G02*
X71970250Y-75352750I0J-250000D01*
G01*
X71970250Y-76602750D01*
G75*
G02*
X71720250Y-76852750I-250000J0D01*
G01*
X70970250Y-76852750D01*
G75*
G02*
X70720250Y-76602750I0J250000D01*
G01*
G37*
%TD.AperFunction*%
%TO.P,D22,1*%
%TO.N,/leftButtonSheet/column5*%
%TA.AperFunction,SMDPad,CuDef*%
G36*
G01*
X67920250Y-76602750D02*
X67920250Y-75352750D01*
G75*
G02*
X68170250Y-75102750I250000J0D01*
G01*
X68920250Y-75102750D01*
G75*
G02*
X69170250Y-75352750I0J-250000D01*
G01*
X69170250Y-76602750D01*
G75*
G02*
X68920250Y-76852750I-250000J0D01*
G01*
X68170250Y-76852750D01*
G75*
G02*
X67920250Y-76602750I0J250000D01*
G01*
G37*
%TD.AperFunction*%
%TD*%
%TO.P,D21,2*%
%TO.N,Net-(D21-Pad2)*%
%TA.AperFunction,SMDPad,CuDef*%
G36*
G01*
X70720250Y-57552750D02*
X70720250Y-56302750D01*
G75*
G02*
X70970250Y-56052750I250000J0D01*
G01*
X71720250Y-56052750D01*
G75*
G02*
X71970250Y-56302750I0J-250000D01*
G01*
X71970250Y-57552750D01*
G75*
G02*
X71720250Y-57802750I-250000J0D01*
G01*
X70970250Y-57802750D01*
G75*
G02*
X70720250Y-57552750I0J250000D01*
G01*
G37*
%TD.AperFunction*%
%TO.P,D21,1*%
%TO.N,/leftButtonSheet/column5*%
%TA.AperFunction,SMDPad,CuDef*%
G36*
G01*
X67920250Y-57552750D02*
X67920250Y-56302750D01*
G75*
G02*
X68170250Y-56052750I250000J0D01*
G01*
X68920250Y-56052750D01*
G75*
G02*
X69170250Y-56302750I0J-250000D01*
G01*
X69170250Y-57552750D01*
G75*
G02*
X68920250Y-57802750I-250000J0D01*
G01*
X68170250Y-57802750D01*
G75*
G02*
X67920250Y-57552750I0J250000D01*
G01*
G37*
%TD.AperFunction*%
%TD*%
%TO.P,D20,2*%
%TO.N,Net-(D20-Pad2)*%
%TA.AperFunction,SMDPad,CuDef*%
G36*
G01*
X51670250Y-135022750D02*
X51670250Y-133772750D01*
G75*
G02*
X51920250Y-133522750I250000J0D01*
G01*
X52670250Y-133522750D01*
G75*
G02*
X52920250Y-133772750I0J-250000D01*
G01*
X52920250Y-135022750D01*
G75*
G02*
X52670250Y-135272750I-250000J0D01*
G01*
X51920250Y-135272750D01*
G75*
G02*
X51670250Y-135022750I0J250000D01*
G01*
G37*
%TD.AperFunction*%
%TO.P,D20,1*%
%TO.N,/leftButtonSheet/column4*%
%TA.AperFunction,SMDPad,CuDef*%
G36*
G01*
X48870250Y-135022750D02*
X48870250Y-133772750D01*
G75*
G02*
X49120250Y-133522750I250000J0D01*
G01*
X49870250Y-133522750D01*
G75*
G02*
X50120250Y-133772750I0J-250000D01*
G01*
X50120250Y-135022750D01*
G75*
G02*
X49870250Y-135272750I-250000J0D01*
G01*
X49120250Y-135272750D01*
G75*
G02*
X48870250Y-135022750I0J250000D01*
G01*
G37*
%TD.AperFunction*%
%TD*%
%TO.P,D19,2*%
%TO.N,Net-(D19-Pad2)*%
%TA.AperFunction,SMDPad,CuDef*%
G36*
G01*
X51670250Y-115972750D02*
X51670250Y-114722750D01*
G75*
G02*
X51920250Y-114472750I250000J0D01*
G01*
X52670250Y-114472750D01*
G75*
G02*
X52920250Y-114722750I0J-250000D01*
G01*
X52920250Y-115972750D01*
G75*
G02*
X52670250Y-116222750I-250000J0D01*
G01*
X51920250Y-116222750D01*
G75*
G02*
X51670250Y-115972750I0J250000D01*
G01*
G37*
%TD.AperFunction*%
%TO.P,D19,1*%
%TO.N,/leftButtonSheet/column4*%
%TA.AperFunction,SMDPad,CuDef*%
G36*
G01*
X48870250Y-115972750D02*
X48870250Y-114722750D01*
G75*
G02*
X49120250Y-114472750I250000J0D01*
G01*
X49870250Y-114472750D01*
G75*
G02*
X50120250Y-114722750I0J-250000D01*
G01*
X50120250Y-115972750D01*
G75*
G02*
X49870250Y-116222750I-250000J0D01*
G01*
X49120250Y-116222750D01*
G75*
G02*
X48870250Y-115972750I0J250000D01*
G01*
G37*
%TD.AperFunction*%
%TD*%
%TO.P,D18,2*%
%TO.N,Net-(D18-Pad2)*%
%TA.AperFunction,SMDPad,CuDef*%
G36*
G01*
X51670250Y-96922750D02*
X51670250Y-95672750D01*
G75*
G02*
X51920250Y-95422750I250000J0D01*
G01*
X52670250Y-95422750D01*
G75*
G02*
X52920250Y-95672750I0J-250000D01*
G01*
X52920250Y-96922750D01*
G75*
G02*
X52670250Y-97172750I-250000J0D01*
G01*
X51920250Y-97172750D01*
G75*
G02*
X51670250Y-96922750I0J250000D01*
G01*
G37*
%TD.AperFunction*%
%TO.P,D18,1*%
%TO.N,/leftButtonSheet/column4*%
%TA.AperFunction,SMDPad,CuDef*%
G36*
G01*
X48870250Y-96922750D02*
X48870250Y-95672750D01*
G75*
G02*
X49120250Y-95422750I250000J0D01*
G01*
X49870250Y-95422750D01*
G75*
G02*
X50120250Y-95672750I0J-250000D01*
G01*
X50120250Y-96922750D01*
G75*
G02*
X49870250Y-97172750I-250000J0D01*
G01*
X49120250Y-97172750D01*
G75*
G02*
X48870250Y-96922750I0J250000D01*
G01*
G37*
%TD.AperFunction*%
%TD*%
%TO.P,D17,2*%
%TO.N,Net-(D17-Pad2)*%
%TA.AperFunction,SMDPad,CuDef*%
G36*
G01*
X51670250Y-77872750D02*
X51670250Y-76622750D01*
G75*
G02*
X51920250Y-76372750I250000J0D01*
G01*
X52670250Y-76372750D01*
G75*
G02*
X52920250Y-76622750I0J-250000D01*
G01*
X52920250Y-77872750D01*
G75*
G02*
X52670250Y-78122750I-250000J0D01*
G01*
X51920250Y-78122750D01*
G75*
G02*
X51670250Y-77872750I0J250000D01*
G01*
G37*
%TD.AperFunction*%
%TO.P,D17,1*%
%TO.N,/leftButtonSheet/column4*%
%TA.AperFunction,SMDPad,CuDef*%
G36*
G01*
X48870250Y-77872750D02*
X48870250Y-76622750D01*
G75*
G02*
X49120250Y-76372750I250000J0D01*
G01*
X49870250Y-76372750D01*
G75*
G02*
X50120250Y-76622750I0J-250000D01*
G01*
X50120250Y-77872750D01*
G75*
G02*
X49870250Y-78122750I-250000J0D01*
G01*
X49120250Y-78122750D01*
G75*
G02*
X48870250Y-77872750I0J250000D01*
G01*
G37*
%TD.AperFunction*%
%TD*%
%TO.P,D16,2*%
%TO.N,Net-(D16-Pad2)*%
%TA.AperFunction,SMDPad,CuDef*%
G36*
G01*
X51670250Y-58695750D02*
X51670250Y-57445750D01*
G75*
G02*
X51920250Y-57195750I250000J0D01*
G01*
X52670250Y-57195750D01*
G75*
G02*
X52920250Y-57445750I0J-250000D01*
G01*
X52920250Y-58695750D01*
G75*
G02*
X52670250Y-58945750I-250000J0D01*
G01*
X51920250Y-58945750D01*
G75*
G02*
X51670250Y-58695750I0J250000D01*
G01*
G37*
%TD.AperFunction*%
%TO.P,D16,1*%
%TO.N,/leftButtonSheet/column4*%
%TA.AperFunction,SMDPad,CuDef*%
G36*
G01*
X48870250Y-58695750D02*
X48870250Y-57445750D01*
G75*
G02*
X49120250Y-57195750I250000J0D01*
G01*
X49870250Y-57195750D01*
G75*
G02*
X50120250Y-57445750I0J-250000D01*
G01*
X50120250Y-58695750D01*
G75*
G02*
X49870250Y-58945750I-250000J0D01*
G01*
X49120250Y-58945750D01*
G75*
G02*
X48870250Y-58695750I0J250000D01*
G01*
G37*
%TD.AperFunction*%
%TD*%
%TO.P,D15,2*%
%TO.N,Net-(D15-Pad2)*%
%TA.AperFunction,SMDPad,CuDef*%
G36*
G01*
X32620250Y-138832750D02*
X32620250Y-137582750D01*
G75*
G02*
X32870250Y-137332750I250000J0D01*
G01*
X33620250Y-137332750D01*
G75*
G02*
X33870250Y-137582750I0J-250000D01*
G01*
X33870250Y-138832750D01*
G75*
G02*
X33620250Y-139082750I-250000J0D01*
G01*
X32870250Y-139082750D01*
G75*
G02*
X32620250Y-138832750I0J250000D01*
G01*
G37*
%TD.AperFunction*%
%TO.P,D15,1*%
%TO.N,/leftButtonSheet/column3*%
%TA.AperFunction,SMDPad,CuDef*%
G36*
G01*
X29820250Y-138832750D02*
X29820250Y-137582750D01*
G75*
G02*
X30070250Y-137332750I250000J0D01*
G01*
X30820250Y-137332750D01*
G75*
G02*
X31070250Y-137582750I0J-250000D01*
G01*
X31070250Y-138832750D01*
G75*
G02*
X30820250Y-139082750I-250000J0D01*
G01*
X30070250Y-139082750D01*
G75*
G02*
X29820250Y-138832750I0J250000D01*
G01*
G37*
%TD.AperFunction*%
%TD*%
%TO.P,D14,2*%
%TO.N,Net-(D14-Pad2)*%
%TA.AperFunction,SMDPad,CuDef*%
G36*
G01*
X32620250Y-119782750D02*
X32620250Y-118532750D01*
G75*
G02*
X32870250Y-118282750I250000J0D01*
G01*
X33620250Y-118282750D01*
G75*
G02*
X33870250Y-118532750I0J-250000D01*
G01*
X33870250Y-119782750D01*
G75*
G02*
X33620250Y-120032750I-250000J0D01*
G01*
X32870250Y-120032750D01*
G75*
G02*
X32620250Y-119782750I0J250000D01*
G01*
G37*
%TD.AperFunction*%
%TO.P,D14,1*%
%TO.N,/leftButtonSheet/column3*%
%TA.AperFunction,SMDPad,CuDef*%
G36*
G01*
X29820250Y-119782750D02*
X29820250Y-118532750D01*
G75*
G02*
X30070250Y-118282750I250000J0D01*
G01*
X30820250Y-118282750D01*
G75*
G02*
X31070250Y-118532750I0J-250000D01*
G01*
X31070250Y-119782750D01*
G75*
G02*
X30820250Y-120032750I-250000J0D01*
G01*
X30070250Y-120032750D01*
G75*
G02*
X29820250Y-119782750I0J250000D01*
G01*
G37*
%TD.AperFunction*%
%TD*%
%TO.P,D13,2*%
%TO.N,Net-(D13-Pad2)*%
%TA.AperFunction,SMDPad,CuDef*%
G36*
G01*
X32620250Y-100732750D02*
X32620250Y-99482750D01*
G75*
G02*
X32870250Y-99232750I250000J0D01*
G01*
X33620250Y-99232750D01*
G75*
G02*
X33870250Y-99482750I0J-250000D01*
G01*
X33870250Y-100732750D01*
G75*
G02*
X33620250Y-100982750I-250000J0D01*
G01*
X32870250Y-100982750D01*
G75*
G02*
X32620250Y-100732750I0J250000D01*
G01*
G37*
%TD.AperFunction*%
%TO.P,D13,1*%
%TO.N,/leftButtonSheet/column3*%
%TA.AperFunction,SMDPad,CuDef*%
G36*
G01*
X29820250Y-100732750D02*
X29820250Y-99482750D01*
G75*
G02*
X30070250Y-99232750I250000J0D01*
G01*
X30820250Y-99232750D01*
G75*
G02*
X31070250Y-99482750I0J-250000D01*
G01*
X31070250Y-100732750D01*
G75*
G02*
X30820250Y-100982750I-250000J0D01*
G01*
X30070250Y-100982750D01*
G75*
G02*
X29820250Y-100732750I0J250000D01*
G01*
G37*
%TD.AperFunction*%
%TD*%
%TO.P,D12,2*%
%TO.N,Net-(D12-Pad2)*%
%TA.AperFunction,SMDPad,CuDef*%
G36*
G01*
X32617250Y-81682750D02*
X32617250Y-80432750D01*
G75*
G02*
X32867250Y-80182750I250000J0D01*
G01*
X33617250Y-80182750D01*
G75*
G02*
X33867250Y-80432750I0J-250000D01*
G01*
X33867250Y-81682750D01*
G75*
G02*
X33617250Y-81932750I-250000J0D01*
G01*
X32867250Y-81932750D01*
G75*
G02*
X32617250Y-81682750I0J250000D01*
G01*
G37*
%TD.AperFunction*%
%TO.P,D12,1*%
%TO.N,/leftButtonSheet/column3*%
%TA.AperFunction,SMDPad,CuDef*%
G36*
G01*
X29817250Y-81682750D02*
X29817250Y-80432750D01*
G75*
G02*
X30067250Y-80182750I250000J0D01*
G01*
X30817250Y-80182750D01*
G75*
G02*
X31067250Y-80432750I0J-250000D01*
G01*
X31067250Y-81682750D01*
G75*
G02*
X30817250Y-81932750I-250000J0D01*
G01*
X30067250Y-81932750D01*
G75*
G02*
X29817250Y-81682750I0J250000D01*
G01*
G37*
%TD.AperFunction*%
%TD*%
%TO.P,D11,2*%
%TO.N,Net-(D11-Pad2)*%
%TA.AperFunction,SMDPad,CuDef*%
G36*
G01*
X32623250Y-62632750D02*
X32623250Y-61382750D01*
G75*
G02*
X32873250Y-61132750I250000J0D01*
G01*
X33623250Y-61132750D01*
G75*
G02*
X33873250Y-61382750I0J-250000D01*
G01*
X33873250Y-62632750D01*
G75*
G02*
X33623250Y-62882750I-250000J0D01*
G01*
X32873250Y-62882750D01*
G75*
G02*
X32623250Y-62632750I0J250000D01*
G01*
G37*
%TD.AperFunction*%
%TO.P,D11,1*%
%TO.N,/leftButtonSheet/column3*%
%TA.AperFunction,SMDPad,CuDef*%
G36*
G01*
X29823250Y-62632750D02*
X29823250Y-61382750D01*
G75*
G02*
X30073250Y-61132750I250000J0D01*
G01*
X30823250Y-61132750D01*
G75*
G02*
X31073250Y-61382750I0J-250000D01*
G01*
X31073250Y-62632750D01*
G75*
G02*
X30823250Y-62882750I-250000J0D01*
G01*
X30073250Y-62882750D01*
G75*
G02*
X29823250Y-62632750I0J250000D01*
G01*
G37*
%TD.AperFunction*%
%TD*%
%TO.P,D10,2*%
%TO.N,Net-(D10-Pad2)*%
%TA.AperFunction,SMDPad,CuDef*%
G36*
G01*
X13570250Y-139340750D02*
X13570250Y-138090750D01*
G75*
G02*
X13820250Y-137840750I250000J0D01*
G01*
X14570250Y-137840750D01*
G75*
G02*
X14820250Y-138090750I0J-250000D01*
G01*
X14820250Y-139340750D01*
G75*
G02*
X14570250Y-139590750I-250000J0D01*
G01*
X13820250Y-139590750D01*
G75*
G02*
X13570250Y-139340750I0J250000D01*
G01*
G37*
%TD.AperFunction*%
%TO.P,D10,1*%
%TO.N,/leftButtonSheet/column2*%
%TA.AperFunction,SMDPad,CuDef*%
G36*
G01*
X10770250Y-139340750D02*
X10770250Y-138090750D01*
G75*
G02*
X11020250Y-137840750I250000J0D01*
G01*
X11770250Y-137840750D01*
G75*
G02*
X12020250Y-138090750I0J-250000D01*
G01*
X12020250Y-139340750D01*
G75*
G02*
X11770250Y-139590750I-250000J0D01*
G01*
X11020250Y-139590750D01*
G75*
G02*
X10770250Y-139340750I0J250000D01*
G01*
G37*
%TD.AperFunction*%
%TD*%
%TO.P,D9,2*%
%TO.N,Net-(D9-Pad2)*%
%TA.AperFunction,SMDPad,CuDef*%
G36*
G01*
X13570250Y-120290750D02*
X13570250Y-119040750D01*
G75*
G02*
X13820250Y-118790750I250000J0D01*
G01*
X14570250Y-118790750D01*
G75*
G02*
X14820250Y-119040750I0J-250000D01*
G01*
X14820250Y-120290750D01*
G75*
G02*
X14570250Y-120540750I-250000J0D01*
G01*
X13820250Y-120540750D01*
G75*
G02*
X13570250Y-120290750I0J250000D01*
G01*
G37*
%TD.AperFunction*%
%TO.P,D9,1*%
%TO.N,/leftButtonSheet/column2*%
%TA.AperFunction,SMDPad,CuDef*%
G36*
G01*
X10770250Y-120290750D02*
X10770250Y-119040750D01*
G75*
G02*
X11020250Y-118790750I250000J0D01*
G01*
X11770250Y-118790750D01*
G75*
G02*
X12020250Y-119040750I0J-250000D01*
G01*
X12020250Y-120290750D01*
G75*
G02*
X11770250Y-120540750I-250000J0D01*
G01*
X11020250Y-120540750D01*
G75*
G02*
X10770250Y-120290750I0J250000D01*
G01*
G37*
%TD.AperFunction*%
%TD*%
%TO.P,D8,2*%
%TO.N,Net-(D8-Pad2)*%
%TA.AperFunction,SMDPad,CuDef*%
G36*
G01*
X13570250Y-101240750D02*
X13570250Y-99990750D01*
G75*
G02*
X13820250Y-99740750I250000J0D01*
G01*
X14570250Y-99740750D01*
G75*
G02*
X14820250Y-99990750I0J-250000D01*
G01*
X14820250Y-101240750D01*
G75*
G02*
X14570250Y-101490750I-250000J0D01*
G01*
X13820250Y-101490750D01*
G75*
G02*
X13570250Y-101240750I0J250000D01*
G01*
G37*
%TD.AperFunction*%
%TO.P,D8,1*%
%TO.N,/leftButtonSheet/column2*%
%TA.AperFunction,SMDPad,CuDef*%
G36*
G01*
X10770250Y-101240750D02*
X10770250Y-99990750D01*
G75*
G02*
X11020250Y-99740750I250000J0D01*
G01*
X11770250Y-99740750D01*
G75*
G02*
X12020250Y-99990750I0J-250000D01*
G01*
X12020250Y-101240750D01*
G75*
G02*
X11770250Y-101490750I-250000J0D01*
G01*
X11020250Y-101490750D01*
G75*
G02*
X10770250Y-101240750I0J250000D01*
G01*
G37*
%TD.AperFunction*%
%TD*%
%TO.P,D7,2*%
%TO.N,Net-(D7-Pad2)*%
%TA.AperFunction,SMDPad,CuDef*%
G36*
G01*
X13570250Y-82190750D02*
X13570250Y-80940750D01*
G75*
G02*
X13820250Y-80690750I250000J0D01*
G01*
X14570250Y-80690750D01*
G75*
G02*
X14820250Y-80940750I0J-250000D01*
G01*
X14820250Y-82190750D01*
G75*
G02*
X14570250Y-82440750I-250000J0D01*
G01*
X13820250Y-82440750D01*
G75*
G02*
X13570250Y-82190750I0J250000D01*
G01*
G37*
%TD.AperFunction*%
%TO.P,D7,1*%
%TO.N,/leftButtonSheet/column2*%
%TA.AperFunction,SMDPad,CuDef*%
G36*
G01*
X10770250Y-82190750D02*
X10770250Y-80940750D01*
G75*
G02*
X11020250Y-80690750I250000J0D01*
G01*
X11770250Y-80690750D01*
G75*
G02*
X12020250Y-80940750I0J-250000D01*
G01*
X12020250Y-82190750D01*
G75*
G02*
X11770250Y-82440750I-250000J0D01*
G01*
X11020250Y-82440750D01*
G75*
G02*
X10770250Y-82190750I0J250000D01*
G01*
G37*
%TD.AperFunction*%
%TD*%
%TO.P,D6,2*%
%TO.N,Net-(D6-Pad2)*%
%TA.AperFunction,SMDPad,CuDef*%
G36*
G01*
X13570250Y-63140750D02*
X13570250Y-61890750D01*
G75*
G02*
X13820250Y-61640750I250000J0D01*
G01*
X14570250Y-61640750D01*
G75*
G02*
X14820250Y-61890750I0J-250000D01*
G01*
X14820250Y-63140750D01*
G75*
G02*
X14570250Y-63390750I-250000J0D01*
G01*
X13820250Y-63390750D01*
G75*
G02*
X13570250Y-63140750I0J250000D01*
G01*
G37*
%TD.AperFunction*%
%TO.P,D6,1*%
%TO.N,/leftButtonSheet/column2*%
%TA.AperFunction,SMDPad,CuDef*%
G36*
G01*
X10770250Y-63140750D02*
X10770250Y-61890750D01*
G75*
G02*
X11020250Y-61640750I250000J0D01*
G01*
X11770250Y-61640750D01*
G75*
G02*
X12020250Y-61890750I0J-250000D01*
G01*
X12020250Y-63140750D01*
G75*
G02*
X11770250Y-63390750I-250000J0D01*
G01*
X11020250Y-63390750D01*
G75*
G02*
X10770250Y-63140750I0J250000D01*
G01*
G37*
%TD.AperFunction*%
%TD*%
%TO.P,D5,2*%
%TO.N,Net-(D5-Pad2)*%
%TA.AperFunction,SMDPad,CuDef*%
G36*
G01*
X-10305750Y-139340750D02*
X-10305750Y-138090750D01*
G75*
G02*
X-10055750Y-137840750I250000J0D01*
G01*
X-9305750Y-137840750D01*
G75*
G02*
X-9055750Y-138090750I0J-250000D01*
G01*
X-9055750Y-139340750D01*
G75*
G02*
X-9305750Y-139590750I-250000J0D01*
G01*
X-10055750Y-139590750D01*
G75*
G02*
X-10305750Y-139340750I0J250000D01*
G01*
G37*
%TD.AperFunction*%
%TO.P,D5,1*%
%TO.N,/leftButtonSheet/column1*%
%TA.AperFunction,SMDPad,CuDef*%
G36*
G01*
X-13105750Y-139340750D02*
X-13105750Y-138090750D01*
G75*
G02*
X-12855750Y-137840750I250000J0D01*
G01*
X-12105750Y-137840750D01*
G75*
G02*
X-11855750Y-138090750I0J-250000D01*
G01*
X-11855750Y-139340750D01*
G75*
G02*
X-12105750Y-139590750I-250000J0D01*
G01*
X-12855750Y-139590750D01*
G75*
G02*
X-13105750Y-139340750I0J250000D01*
G01*
G37*
%TD.AperFunction*%
%TD*%
%TO.P,D4,2*%
%TO.N,Net-(D4-Pad2)*%
%TA.AperFunction,SMDPad,CuDef*%
G36*
G01*
X-10305750Y-120290750D02*
X-10305750Y-119040750D01*
G75*
G02*
X-10055750Y-118790750I250000J0D01*
G01*
X-9305750Y-118790750D01*
G75*
G02*
X-9055750Y-119040750I0J-250000D01*
G01*
X-9055750Y-120290750D01*
G75*
G02*
X-9305750Y-120540750I-250000J0D01*
G01*
X-10055750Y-120540750D01*
G75*
G02*
X-10305750Y-120290750I0J250000D01*
G01*
G37*
%TD.AperFunction*%
%TO.P,D4,1*%
%TO.N,/leftButtonSheet/column1*%
%TA.AperFunction,SMDPad,CuDef*%
G36*
G01*
X-13105750Y-120290750D02*
X-13105750Y-119040750D01*
G75*
G02*
X-12855750Y-118790750I250000J0D01*
G01*
X-12105750Y-118790750D01*
G75*
G02*
X-11855750Y-119040750I0J-250000D01*
G01*
X-11855750Y-120290750D01*
G75*
G02*
X-12105750Y-120540750I-250000J0D01*
G01*
X-12855750Y-120540750D01*
G75*
G02*
X-13105750Y-120290750I0J250000D01*
G01*
G37*
%TD.AperFunction*%
%TD*%
%TO.P,D3,2*%
%TO.N,Net-(D3-Pad2)*%
%TA.AperFunction,SMDPad,CuDef*%
G36*
G01*
X-10305750Y-101240750D02*
X-10305750Y-99990750D01*
G75*
G02*
X-10055750Y-99740750I250000J0D01*
G01*
X-9305750Y-99740750D01*
G75*
G02*
X-9055750Y-99990750I0J-250000D01*
G01*
X-9055750Y-101240750D01*
G75*
G02*
X-9305750Y-101490750I-250000J0D01*
G01*
X-10055750Y-101490750D01*
G75*
G02*
X-10305750Y-101240750I0J250000D01*
G01*
G37*
%TD.AperFunction*%
%TO.P,D3,1*%
%TO.N,/leftButtonSheet/column1*%
%TA.AperFunction,SMDPad,CuDef*%
G36*
G01*
X-13105750Y-101240750D02*
X-13105750Y-99990750D01*
G75*
G02*
X-12855750Y-99740750I250000J0D01*
G01*
X-12105750Y-99740750D01*
G75*
G02*
X-11855750Y-99990750I0J-250000D01*
G01*
X-11855750Y-101240750D01*
G75*
G02*
X-12105750Y-101490750I-250000J0D01*
G01*
X-12855750Y-101490750D01*
G75*
G02*
X-13105750Y-101240750I0J250000D01*
G01*
G37*
%TD.AperFunction*%
%TD*%
%TO.P,D2,2*%
%TO.N,Net-(D2-Pad2)*%
%TA.AperFunction,SMDPad,CuDef*%
G36*
G01*
X-10305750Y-82190750D02*
X-10305750Y-80940750D01*
G75*
G02*
X-10055750Y-80690750I250000J0D01*
G01*
X-9305750Y-80690750D01*
G75*
G02*
X-9055750Y-80940750I0J-250000D01*
G01*
X-9055750Y-82190750D01*
G75*
G02*
X-9305750Y-82440750I-250000J0D01*
G01*
X-10055750Y-82440750D01*
G75*
G02*
X-10305750Y-82190750I0J250000D01*
G01*
G37*
%TD.AperFunction*%
%TO.P,D2,1*%
%TO.N,/leftButtonSheet/column1*%
%TA.AperFunction,SMDPad,CuDef*%
G36*
G01*
X-13105750Y-82190750D02*
X-13105750Y-80940750D01*
G75*
G02*
X-12855750Y-80690750I250000J0D01*
G01*
X-12105750Y-80690750D01*
G75*
G02*
X-11855750Y-80940750I0J-250000D01*
G01*
X-11855750Y-82190750D01*
G75*
G02*
X-12105750Y-82440750I-250000J0D01*
G01*
X-12855750Y-82440750D01*
G75*
G02*
X-13105750Y-82190750I0J250000D01*
G01*
G37*
%TD.AperFunction*%
%TD*%
%TO.P,D1,2*%
%TO.N,Net-(D1-Pad2)*%
%TA.AperFunction,SMDPad,CuDef*%
G36*
G01*
X-10308750Y-63140750D02*
X-10308750Y-61890750D01*
G75*
G02*
X-10058750Y-61640750I250000J0D01*
G01*
X-9308750Y-61640750D01*
G75*
G02*
X-9058750Y-61890750I0J-250000D01*
G01*
X-9058750Y-63140750D01*
G75*
G02*
X-9308750Y-63390750I-250000J0D01*
G01*
X-10058750Y-63390750D01*
G75*
G02*
X-10308750Y-63140750I0J250000D01*
G01*
G37*
%TD.AperFunction*%
%TO.P,D1,1*%
%TO.N,/leftButtonSheet/column1*%
%TA.AperFunction,SMDPad,CuDef*%
G36*
G01*
X-13108750Y-63140750D02*
X-13108750Y-61890750D01*
G75*
G02*
X-12858750Y-61640750I250000J0D01*
G01*
X-12108750Y-61640750D01*
G75*
G02*
X-11858750Y-61890750I0J-250000D01*
G01*
X-11858750Y-63140750D01*
G75*
G02*
X-12108750Y-63390750I-250000J0D01*
G01*
X-12858750Y-63390750D01*
G75*
G02*
X-13108750Y-63140750I0J250000D01*
G01*
G37*
%TD.AperFunction*%
%TD*%
D18*
%TO.N,VCC*%
X106506750Y-59008750D03*
X98171000Y-77724000D03*
X98171000Y-79248000D03*
X102362000Y-80137000D03*
X104013000Y-77978000D03*
%TO.N,GND*%
X79502000Y-64897000D03*
X82550000Y-63627000D03*
X79502000Y-67813690D03*
X90551000Y-66294000D03*
X96012000Y-66675000D03*
X103473750Y-66643750D03*
X103473750Y-68802750D03*
X84328000Y-55118000D03*
X83820000Y-57150000D03*
X84455000Y-76327000D03*
X82550000Y-77978000D03*
%TO.N,/leftButtonSheet/column1*%
X10414000Y-72898000D03*
X12827000Y-72898000D03*
X29337000Y-72898000D03*
X31496000Y-72898000D03*
X48641000Y-71120000D03*
X50546000Y-71120000D03*
X67310000Y-69977000D03*
X88301999Y-68797001D03*
X69342000Y-69977000D03*
%TO.N,/leftButtonSheet/column2*%
X29337000Y-71374000D03*
X31496000Y-71374000D03*
X48641000Y-70104000D03*
X50419000Y-69342000D03*
X67310000Y-68834000D03*
X88392000Y-70104000D03*
X71374000Y-70866000D03*
%TO.N,/leftButtonSheet/column3*%
X48641000Y-67818000D03*
X50292000Y-67818000D03*
X67310000Y-67818000D03*
X88265000Y-71628000D03*
X74041000Y-71628000D03*
%TO.N,/leftButtonSheet/column4*%
X99314000Y-68834000D03*
X90170000Y-83693000D03*
X51816000Y-80391000D03*
%TO.N,/leftButtonSheet/column5*%
X95852750Y-62451750D03*
%TO.N,/leftButtonSheet/column6*%
X88011000Y-73406000D03*
%TO.N,/leftButtonSheet/column7*%
X100549250Y-69942250D03*
%TO.N,/rightButtonSheet/column1*%
X188976000Y-68326000D03*
%TO.N,/rightButtonSheet/column2*%
X190153750Y-65624250D03*
%TO.N,/rightButtonSheet/column3*%
X192786000Y-57404000D03*
%TO.N,/rightButtonSheet/column4*%
X207899000Y-65532000D03*
X220853000Y-65532000D03*
X197104000Y-66294000D03*
%TO.N,/rightButtonSheet/column5*%
X229362000Y-64135000D03*
X226187000Y-64135000D03*
X192278000Y-64008000D03*
X208153000Y-64008000D03*
%TO.N,/rightButtonSheet/column6*%
X248539000Y-68199000D03*
X245237000Y-68199000D03*
X229362000Y-65786000D03*
X226314000Y-65786000D03*
X196088000Y-67056000D03*
X208407000Y-67056000D03*
%TO.N,/rightButtonSheet/column7*%
X268033500Y-69278500D03*
X265112500Y-69278500D03*
X248539000Y-69850000D03*
X245237000Y-69850000D03*
X229362000Y-68072000D03*
X226441000Y-68072000D03*
%TO.N,Net-(J1-PadB5)*%
X100965000Y-54737000D03*
%TO.N,Net-(J1-PadA7)*%
X89916000Y-53213000D03*
X81280000Y-54229000D03*
X79375000Y-56134000D03*
%TO.N,Net-(J1-PadA6)*%
X90551000Y-52324000D03*
X80391000Y-53594000D03*
X78359000Y-55626000D03*
%TO.N,Net-(J1-PadA5)*%
X103961250Y-54788750D03*
%TO.N,Net-(J2-PadR)*%
X90170000Y-74168000D03*
%TO.N,Net-(J3-PadR)*%
X165519810Y-60833000D03*
%TO.N,Net-(J3-PadT)*%
X185293000Y-67564000D03*
X180975000Y-67564000D03*
X195954250Y-65157750D03*
X191039000Y-71597000D03*
%TO.N,Net-(R1-Pad2)*%
X83629500Y-58483500D03*
%TO.N,Net-(R5-Pad2)*%
X177673000Y-56388000D03*
%TO.N,/leftButtonSheet/row1*%
X101727000Y-65786000D03*
X101727000Y-68834000D03*
%TO.N,/leftButtonSheet/row3*%
X100818750Y-72243750D03*
%TO.N,/leftButtonSheet/row4*%
X88392000Y-95504000D03*
X88519000Y-67056000D03*
%TO.N,/leftButtonSheet/row5*%
X89662000Y-114554000D03*
X92583000Y-68072000D03*
%TO.N,/rightButtonSheet/row3*%
X196195750Y-69957750D03*
X198501000Y-76708000D03*
%TO.N,/rightButtonSheet/row4*%
X184785000Y-96393000D03*
X185674000Y-70993000D03*
X184531000Y-78994000D03*
X184785000Y-91313000D03*
%TO.N,/rightButtonSheet/row5*%
X191516000Y-114681000D03*
X191516000Y-107442000D03*
X188214000Y-70485000D03*
X189230000Y-91821000D03*
X191516000Y-91821000D03*
%TO.N,Net-(C10-Pad2)*%
X179705000Y-71120000D03*
X181102000Y-74041000D03*
X206375000Y-51943000D03*
X206248000Y-55118000D03*
X187325000Y-69342000D03*
X189230000Y-69469000D03*
X192151000Y-70231000D03*
X192151000Y-76200000D03*
X158877000Y-50419000D03*
X155321000Y-50546000D03*
%TD*%
D19*
%TO.N,VCC*%
X105161250Y-51767248D02*
X105161250Y-52527250D01*
X100261250Y-52527250D02*
X100261250Y-51604252D01*
X105161250Y-57663250D02*
X106506750Y-59008750D01*
X105161250Y-52527250D02*
X105161250Y-57663250D01*
X104421242Y-51027240D02*
X105161250Y-51767248D01*
X100838262Y-51027240D02*
X104421242Y-51027240D01*
X100261250Y-51604252D02*
X100838262Y-51027240D01*
X120602250Y-47550750D02*
X120602250Y-53350750D01*
X106506750Y-56811248D02*
X106506750Y-59008750D01*
X111892249Y-51425749D02*
X106506750Y-56811248D01*
X118677249Y-51425749D02*
X111892249Y-51425749D01*
X120602250Y-53350750D02*
X118677249Y-51425749D01*
X98171000Y-77724000D02*
X98171000Y-79248000D01*
X98171000Y-79248000D02*
X98171000Y-79248000D01*
X102362000Y-80137000D02*
X104013000Y-78486000D01*
X104013000Y-78486000D02*
X104013000Y-77978000D01*
X104013000Y-77978000D02*
X104013000Y-77978000D01*
%TO.N,GND*%
X79502000Y-64897000D02*
X82042000Y-64897000D01*
X82550000Y-64389000D02*
X82042000Y-64897000D01*
X82550000Y-63627000D02*
X82550000Y-64389000D01*
X79502000Y-64897000D02*
X79502000Y-67813690D01*
X90551000Y-66294000D02*
X95631000Y-66294000D01*
X95631000Y-66294000D02*
X96012000Y-66675000D01*
X96012000Y-66675000D02*
X96012000Y-66675000D01*
X103473750Y-66643750D02*
X103473750Y-68802750D01*
X103473750Y-68802750D02*
X103473750Y-68802750D01*
X84328000Y-55118000D02*
X84328000Y-56642000D01*
X84328000Y-56642000D02*
X83820000Y-57150000D01*
X83820000Y-57150000D02*
X83820000Y-57150000D01*
X82804000Y-77978000D02*
X82550000Y-77978000D01*
X84455000Y-76327000D02*
X82804000Y-77978000D01*
%TO.N,Net-(D1-Pad2)*%
X-9683750Y-62515750D02*
X-5365750Y-62515750D01*
%TO.N,/leftButtonSheet/column1*%
X-12483750Y-81562750D02*
X-12480750Y-81565750D01*
X-12483750Y-62515750D02*
X-12483750Y-81562750D01*
X-12480750Y-81565750D02*
X-12480750Y-100615750D01*
X-12480750Y-100615750D02*
X-12480750Y-119665750D01*
X-12480750Y-119665750D02*
X-12480750Y-138715750D01*
X-12483750Y-62515750D02*
X-12483750Y-62267750D01*
X-12483750Y-62515750D02*
X-2101500Y-72898000D01*
X-2101500Y-72898000D02*
X10414000Y-72898000D01*
X10414000Y-72898000D02*
X10414000Y-72898000D01*
X12827000Y-72898000D02*
X29337000Y-72898000D01*
X29337000Y-72898000D02*
X29337000Y-72898000D01*
X31496000Y-72898000D02*
X44577000Y-72898000D01*
X44577000Y-72898000D02*
X46355000Y-71120000D01*
X46355000Y-71120000D02*
X48641000Y-71120000D01*
X48641000Y-71120000D02*
X48641000Y-71120000D01*
X50546000Y-71120000D02*
X51689000Y-69977000D01*
X51689000Y-69977000D02*
X67310000Y-69977000D01*
X67310000Y-69977000D02*
X67310000Y-69977000D01*
X88301999Y-68797001D02*
X78649999Y-68797001D01*
X77470000Y-69977000D02*
X78649999Y-68797001D01*
X69342000Y-69977000D02*
X77470000Y-69977000D01*
%TO.N,Net-(D2-Pad2)*%
X-9680750Y-81565750D02*
X-5365750Y-81565750D01*
%TO.N,Net-(D3-Pad2)*%
X-9680750Y-100615750D02*
X-5365750Y-100615750D01*
%TO.N,Net-(D4-Pad2)*%
X-9680750Y-119665750D02*
X-5365750Y-119665750D01*
%TO.N,Net-(D5-Pad2)*%
X-9680750Y-138715750D02*
X-5365750Y-138715750D01*
%TO.N,Net-(D6-Pad2)*%
X14195250Y-62515750D02*
X18510250Y-62515750D01*
%TO.N,/leftButtonSheet/column2*%
X11395250Y-138715750D02*
X11395250Y-119665750D01*
X11395250Y-119665750D02*
X11395250Y-100615750D01*
X11395250Y-100615750D02*
X11395250Y-81565750D01*
X11395250Y-81565750D02*
X11395250Y-62515750D01*
X11395250Y-62515750D02*
X20253500Y-71374000D01*
X20253500Y-71374000D02*
X29337000Y-71374000D01*
X29337000Y-71374000D02*
X29337000Y-71374000D01*
X31496000Y-71374000D02*
X44196000Y-71374000D01*
X44196000Y-71374000D02*
X45466000Y-70104000D01*
X45466000Y-70104000D02*
X48641000Y-70104000D01*
X48641000Y-70104000D02*
X48641000Y-70104000D01*
X50419000Y-69342000D02*
X50927000Y-68834000D01*
X50927000Y-68834000D02*
X67310000Y-68834000D01*
X67310000Y-68834000D02*
X67310000Y-68834000D01*
X88392000Y-70104000D02*
X87630000Y-70866000D01*
X87630000Y-70866000D02*
X71374000Y-70866000D01*
X71374000Y-70866000D02*
X71374000Y-70866000D01*
%TO.N,Net-(D7-Pad2)*%
X14195250Y-81565750D02*
X18510250Y-81565750D01*
%TO.N,Net-(D8-Pad2)*%
X14195250Y-100615750D02*
X18510250Y-100615750D01*
%TO.N,Net-(D9-Pad2)*%
X18510250Y-119665750D02*
X14195250Y-119665750D01*
%TO.N,Net-(D10-Pad2)*%
X14195250Y-138715750D02*
X18510250Y-138715750D01*
%TO.N,Net-(D11-Pad2)*%
X36296250Y-58959750D02*
X37560250Y-58959750D01*
X33248250Y-62007750D02*
X36296250Y-58959750D01*
%TO.N,/leftButtonSheet/column3*%
X30448250Y-81051750D02*
X30442250Y-81057750D01*
X30448250Y-62007750D02*
X30448250Y-81051750D01*
X30445250Y-81060750D02*
X30442250Y-81057750D01*
X30445250Y-100107750D02*
X30445250Y-81060750D01*
X30445250Y-119157750D02*
X30445250Y-100107750D01*
X30445250Y-138207750D02*
X30445250Y-119157750D01*
X30448250Y-62007750D02*
X36258500Y-67818000D01*
X36258500Y-67818000D02*
X48641000Y-67818000D01*
X48641000Y-67818000D02*
X48641000Y-67818000D01*
X50292000Y-67818000D02*
X67310000Y-67818000D01*
X67310000Y-67818000D02*
X67310000Y-67818000D01*
X88265000Y-71628000D02*
X74041000Y-71628000D01*
X74041000Y-71628000D02*
X74041000Y-71628000D01*
%TO.N,Net-(D12-Pad2)*%
X36290250Y-78009750D02*
X37560250Y-78009750D01*
X33242250Y-81057750D02*
X36290250Y-78009750D01*
%TO.N,Net-(D13-Pad2)*%
X36293250Y-97059750D02*
X37560250Y-97059750D01*
X33245250Y-100107750D02*
X36293250Y-97059750D01*
%TO.N,Net-(D14-Pad2)*%
X36293250Y-116109750D02*
X37560250Y-116109750D01*
X33245250Y-119157750D02*
X36293250Y-116109750D01*
%TO.N,Net-(D15-Pad2)*%
X36293250Y-135159750D02*
X37560250Y-135159750D01*
X33245250Y-138207750D02*
X36293250Y-135159750D01*
%TO.N,Net-(D16-Pad2)*%
X54327250Y-56038750D02*
X56610250Y-56038750D01*
X52295250Y-58070750D02*
X54327250Y-56038750D01*
%TO.N,/leftButtonSheet/column4*%
X49495250Y-134397750D02*
X49495250Y-115347750D01*
X49495250Y-115347750D02*
X49495250Y-96297750D01*
X49495250Y-77247750D02*
X49495250Y-96297750D01*
X49495250Y-58070750D02*
X49495250Y-77247750D01*
X96195249Y-81438753D02*
X93941002Y-83693000D01*
X96195249Y-71952751D02*
X96195249Y-81438753D01*
X99314000Y-68834000D02*
X96195249Y-71952751D01*
X93941002Y-83693000D02*
X90170000Y-83693000D01*
X90170000Y-83693000D02*
X90170000Y-83693000D01*
X49495250Y-78070250D02*
X51816000Y-80391000D01*
X49495250Y-77247750D02*
X49495250Y-78070250D01*
%TO.N,Net-(D17-Pad2)*%
X54454250Y-75088750D02*
X56610250Y-75088750D01*
X52295250Y-77247750D02*
X54454250Y-75088750D01*
%TO.N,Net-(D18-Pad2)*%
X54454250Y-94138750D02*
X56610250Y-94138750D01*
X52295250Y-96297750D02*
X54454250Y-94138750D01*
%TO.N,Net-(D19-Pad2)*%
X54454250Y-113188750D02*
X56610250Y-113188750D01*
X52295250Y-115347750D02*
X54454250Y-113188750D01*
%TO.N,Net-(D20-Pad2)*%
X54454250Y-132238750D02*
X56610250Y-132238750D01*
X52295250Y-134397750D02*
X54454250Y-132238750D01*
%TO.N,Net-(D21-Pad2)*%
X73628250Y-56927750D02*
X75660250Y-58959750D01*
X71345250Y-56927750D02*
X73628250Y-56927750D01*
%TO.N,/leftButtonSheet/column5*%
X68545250Y-133127750D02*
X68545250Y-114077750D01*
X68545250Y-114077750D02*
X68545250Y-94900750D01*
X68545250Y-94900750D02*
X68545250Y-75977750D01*
X68545250Y-75977750D02*
X68545250Y-56927750D01*
X69745260Y-55727740D02*
X68545250Y-56927750D01*
X77139242Y-55727740D02*
X69745260Y-55727740D01*
X83977501Y-59208501D02*
X80620003Y-59208501D01*
X88208430Y-58267740D02*
X84918262Y-58267740D01*
X88882090Y-60667760D02*
X88545260Y-60330930D01*
X84918262Y-58267740D02*
X83977501Y-59208501D01*
X88545260Y-58604570D02*
X88208430Y-58267740D01*
X92442262Y-60667760D02*
X88882090Y-60667760D01*
X80620003Y-59208501D02*
X77139242Y-55727740D01*
X94226252Y-62451750D02*
X92442262Y-60667760D01*
X88545260Y-60330930D02*
X88545260Y-58604570D01*
X95852750Y-62451750D02*
X94226252Y-62451750D01*
%TO.N,Net-(D22-Pad2)*%
X73628250Y-75977750D02*
X75660250Y-78009750D01*
X71345250Y-75977750D02*
X73628250Y-75977750D01*
%TO.N,Net-(D23-Pad2)*%
X73501250Y-94900750D02*
X75660250Y-97059750D01*
X71345250Y-94900750D02*
X73501250Y-94900750D01*
%TO.N,Net-(D24-Pad2)*%
X73628250Y-114077750D02*
X75660250Y-116109750D01*
X71345250Y-114077750D02*
X73628250Y-114077750D01*
%TO.N,Net-(D25-Pad2)*%
X73628250Y-133127750D02*
X75660250Y-135159750D01*
X71345250Y-133127750D02*
X73628250Y-133127750D01*
%TO.N,Net-(D26-Pad2)*%
X93313250Y-59467750D02*
X94710250Y-60864750D01*
X90395250Y-59467750D02*
X93313250Y-59467750D01*
%TO.N,/leftButtonSheet/column6*%
X87595250Y-129319186D02*
X93878814Y-135602750D01*
X87595250Y-116490750D02*
X87595250Y-129319186D01*
X87595250Y-116490750D02*
X87595250Y-97567750D01*
X87595250Y-97567750D02*
X87595250Y-78517750D01*
X87595250Y-74072930D02*
X88011000Y-73657180D01*
X87595250Y-78517750D02*
X87595250Y-74072930D01*
X88011000Y-73657180D02*
X88011000Y-73406000D01*
X88011000Y-73406000D02*
X88011000Y-73406000D01*
X87595250Y-67275250D02*
X87595250Y-59467750D01*
X88101001Y-67781001D02*
X87595250Y-67275250D01*
X88355001Y-67781001D02*
X88101001Y-67781001D01*
X88392000Y-67818000D02*
X88355001Y-67781001D01*
X91186000Y-67818000D02*
X88392000Y-67818000D01*
X91186000Y-71374000D02*
X91186000Y-67818000D01*
X90043000Y-71374000D02*
X91186000Y-71374000D01*
X88011000Y-73406000D02*
X90043000Y-71374000D01*
%TO.N,Net-(D27-Pad2)*%
X93313250Y-78517750D02*
X94710250Y-79914750D01*
X90395250Y-78517750D02*
X93313250Y-78517750D01*
%TO.N,Net-(D28-Pad2)*%
X93313250Y-97567750D02*
X94710250Y-98964750D01*
X90395250Y-97567750D02*
X93313250Y-97567750D01*
%TO.N,Net-(D29-Pad2)*%
X93186250Y-116490750D02*
X94710250Y-118014750D01*
X90395250Y-116490750D02*
X93186250Y-116490750D01*
%TO.N,Net-(D30-Pad2)*%
X97993398Y-137002750D02*
X100046694Y-139056046D01*
X96303686Y-137002750D02*
X97993398Y-137002750D01*
%TO.N,Net-(D31-Pad2)*%
X113252250Y-62007750D02*
X113760250Y-62515750D01*
X109445250Y-62007750D02*
X113252250Y-62007750D01*
%TO.N,/leftButtonSheet/column7*%
X106645250Y-119157750D02*
X106645250Y-130902250D01*
X113278301Y-137535301D02*
X113278301Y-146615801D01*
X106645250Y-130902250D02*
X113278301Y-137535301D01*
X106645250Y-119157750D02*
X106645250Y-100107750D01*
X106645250Y-100107750D02*
X106645250Y-81057750D01*
X106645250Y-69942250D02*
X100549250Y-69942250D01*
X106645250Y-81057750D02*
X106645250Y-69942250D01*
X106645250Y-69942250D02*
X106645250Y-62007750D01*
X100549250Y-69942250D02*
X100549250Y-69942250D01*
%TO.N,Net-(D32-Pad2)*%
X113252250Y-81057750D02*
X113760250Y-81565750D01*
X109445250Y-81057750D02*
X113252250Y-81057750D01*
%TO.N,Net-(D33-Pad2)*%
X113252250Y-100107750D02*
X113760250Y-100615750D01*
X109445250Y-100107750D02*
X113252250Y-100107750D01*
%TO.N,Net-(D34-Pad2)*%
X113252250Y-119157750D02*
X113760250Y-119665750D01*
X109445250Y-119157750D02*
X113252250Y-119157750D01*
%TO.N,Net-(D35-Pad2)*%
X118142071Y-151479571D02*
X118142071Y-151642673D01*
X115258199Y-148595699D02*
X118142071Y-151479571D01*
%TO.N,Net-(D36-Pad2)*%
X168303750Y-62515750D02*
X156368750Y-62515750D01*
%TO.N,/rightButtonSheet/column1*%
X171103750Y-62515750D02*
X171103750Y-81565750D01*
X171103750Y-100615750D02*
X171103750Y-81565750D01*
X171103750Y-119665750D02*
X171103750Y-100615750D01*
X171103750Y-140109750D02*
X164597699Y-146615801D01*
X171103750Y-119665750D02*
X171103750Y-140109750D01*
X176914000Y-68326000D02*
X171103750Y-62515750D01*
X188976000Y-68326000D02*
X176914000Y-68326000D01*
%TO.N,Net-(D37-Pad2)*%
X168303750Y-81565750D02*
X156368750Y-81565750D01*
%TO.N,Net-(D38-Pad2)*%
X168303750Y-100615750D02*
X156368750Y-100615750D01*
%TO.N,Net-(D39-Pad2)*%
X168303750Y-119665750D02*
X156368750Y-119665750D01*
%TO.N,Net-(D40-Pad2)*%
X162581698Y-148595699D02*
X162617801Y-148595699D01*
X154164622Y-157012775D02*
X162581698Y-148595699D01*
%TO.N,Net-(D41-Pad2)*%
X187353750Y-60864750D02*
X175418750Y-60864750D01*
%TO.N,/rightButtonSheet/column2*%
X190153750Y-129314750D02*
X184054750Y-135413750D01*
X190153750Y-118014750D02*
X190153750Y-129314750D01*
X190153750Y-118014750D02*
X190153750Y-98964750D01*
X190153750Y-98964750D02*
X190153750Y-79914750D01*
X190153750Y-79914750D02*
X190153750Y-65624250D01*
X190153750Y-65624250D02*
X190153750Y-60864750D01*
%TO.N,Net-(D42-Pad2)*%
X175418750Y-79914750D02*
X187353750Y-79914750D01*
%TO.N,Net-(D43-Pad2)*%
X175418750Y-98964750D02*
X187353750Y-98964750D01*
%TO.N,Net-(D44-Pad2)*%
X175418750Y-118014750D02*
X187353750Y-118014750D01*
%TO.N,Net-(D45-Pad2)*%
X179043470Y-139400158D02*
X181629878Y-136813750D01*
X174523491Y-139400158D02*
X179043470Y-139400158D01*
X171103194Y-142820455D02*
X174523491Y-139400158D01*
%TO.N,Net-(D46-Pad2)*%
X206403750Y-58959750D02*
X194468750Y-58959750D01*
%TO.N,/rightButtonSheet/column3*%
X209203750Y-77946250D02*
X209267250Y-78009750D01*
X209203750Y-58959750D02*
X209203750Y-77946250D01*
X209267250Y-96996250D02*
X209203750Y-97059750D01*
X209267250Y-78009750D02*
X209267250Y-96996250D01*
X209203750Y-116109750D02*
X209203750Y-97059750D01*
X209203750Y-135159750D02*
X209203750Y-116109750D01*
X201587762Y-57759740D02*
X201308502Y-58039000D01*
X208003740Y-57759740D02*
X201587762Y-57759740D01*
X209203750Y-58959750D02*
X208003740Y-57759740D01*
X195657002Y-58039000D02*
X195022002Y-57404000D01*
X201308502Y-58039000D02*
X195657002Y-58039000D01*
X195022002Y-57404000D02*
X192786000Y-57404000D01*
X192786000Y-57404000D02*
X192786000Y-57404000D01*
%TO.N,Net-(D47-Pad2)*%
X194468750Y-78009750D02*
X206467250Y-78009750D01*
%TO.N,Net-(D48-Pad2)*%
X194468750Y-97059750D02*
X206403750Y-97059750D01*
%TO.N,Net-(D49-Pad2)*%
X194468750Y-116109750D02*
X206403750Y-116109750D01*
%TO.N,Net-(D50-Pad2)*%
X194468750Y-135159750D02*
X206403750Y-135159750D01*
%TO.N,Net-(D51-Pad2)*%
X225450750Y-56038750D02*
X213518750Y-56038750D01*
%TO.N,/rightButtonSheet/column4*%
X228253750Y-132238750D02*
X228253750Y-113188750D01*
X228253750Y-94199250D02*
X228314250Y-94138750D01*
X228253750Y-113188750D02*
X228253750Y-94199250D01*
X228314250Y-75149250D02*
X228253750Y-75088750D01*
X228314250Y-94138750D02*
X228314250Y-75149250D01*
X228253750Y-56041750D02*
X228250750Y-56038750D01*
X228253750Y-75088750D02*
X228253750Y-56041750D01*
X207772000Y-65659000D02*
X207899000Y-65532000D01*
X207899000Y-65532000D02*
X207899000Y-65532000D01*
X228253750Y-71408750D02*
X228253750Y-75088750D01*
X222377000Y-65532000D02*
X228253750Y-71408750D01*
X220853000Y-65532000D02*
X222377000Y-65532000D01*
X197866000Y-65532000D02*
X197104000Y-66294000D01*
X207899000Y-65532000D02*
X197866000Y-65532000D01*
%TO.N,Net-(D52-Pad2)*%
X213518750Y-75088750D02*
X225453750Y-75088750D01*
%TO.N,Net-(D53-Pad2)*%
X213518750Y-94138750D02*
X225514250Y-94138750D01*
%TO.N,Net-(D54-Pad2)*%
X225453750Y-113188750D02*
X213518750Y-113188750D01*
%TO.N,Net-(D55-Pad2)*%
X213518750Y-132238750D02*
X225453750Y-132238750D01*
%TO.N,Net-(D56-Pad2)*%
X244503750Y-58959750D02*
X232568750Y-58959750D01*
%TO.N,/rightButtonSheet/column5*%
X247303750Y-58959750D02*
X247303750Y-78009750D01*
X247303750Y-78009750D02*
X247303750Y-97059750D01*
X247303750Y-97059750D02*
X247303750Y-116109750D01*
X247303750Y-135156750D02*
X247300750Y-135159750D01*
X247303750Y-116109750D02*
X247303750Y-135156750D01*
X247303750Y-58959750D02*
X242128500Y-64135000D01*
X242128500Y-64135000D02*
X229362000Y-64135000D01*
X229362000Y-64135000D02*
X229362000Y-64135000D01*
X192278000Y-64008000D02*
X208153000Y-64008000D01*
X208153000Y-64008000D02*
X208153000Y-64008000D01*
%TO.N,Net-(D57-Pad2)*%
X232568750Y-78009750D02*
X244503750Y-78009750D01*
%TO.N,Net-(D58-Pad2)*%
X232568750Y-97059750D02*
X244503750Y-97059750D01*
%TO.N,Net-(D59-Pad2)*%
X244503750Y-116109750D02*
X232568750Y-116109750D01*
%TO.N,Net-(D60-Pad2)*%
X232568750Y-135159750D02*
X244500750Y-135159750D01*
%TO.N,Net-(D61-Pad2)*%
X263553750Y-62515750D02*
X251618750Y-62515750D01*
%TO.N,/rightButtonSheet/column6*%
X266353750Y-138715750D02*
X266353750Y-119665750D01*
X266353750Y-100618750D02*
X266350750Y-100615750D01*
X266353750Y-119665750D02*
X266353750Y-100618750D01*
X266350750Y-81568750D02*
X266353750Y-81565750D01*
X266350750Y-100615750D02*
X266350750Y-81568750D01*
X266353750Y-62515750D02*
X266353750Y-81565750D01*
X266353750Y-62515750D02*
X260670500Y-68199000D01*
X260670500Y-68199000D02*
X248539000Y-68199000D01*
X248539000Y-68199000D02*
X248539000Y-68199000D01*
X245237000Y-68199000D02*
X231775000Y-68199000D01*
X231775000Y-68199000D02*
X229362000Y-65786000D01*
X229362000Y-65786000D02*
X229362000Y-65786000D01*
X196088000Y-67056000D02*
X208407000Y-67056000D01*
X208407000Y-67056000D02*
X208407000Y-67056000D01*
%TO.N,Net-(D62-Pad2)*%
X251618750Y-81565750D02*
X263553750Y-81565750D01*
%TO.N,Net-(D63-Pad2)*%
X251618750Y-100615750D02*
X263550750Y-100615750D01*
%TO.N,Net-(D64-Pad2)*%
X263553750Y-119665750D02*
X251618750Y-119665750D01*
%TO.N,Net-(D65-Pad2)*%
X251618750Y-138715750D02*
X263553750Y-138715750D01*
%TO.N,Net-(D66-Pad2)*%
X287556750Y-62515750D02*
X275494750Y-62515750D01*
%TO.N,/rightButtonSheet/column7*%
X290356750Y-62515750D02*
X290356750Y-81565750D01*
X290356750Y-81565750D02*
X290356750Y-100615750D01*
X290356750Y-100615750D02*
X290356750Y-119665750D01*
X290356750Y-119665750D02*
X290356750Y-138715750D01*
X290356750Y-62515750D02*
X284673500Y-68199000D01*
X284673500Y-68199000D02*
X269113000Y-68199000D01*
X269113000Y-68199000D02*
X268033500Y-69278500D01*
X268033500Y-69278500D02*
X267970000Y-69342000D01*
X265112500Y-69278500D02*
X249110500Y-69278500D01*
X249110500Y-69278500D02*
X248539000Y-69850000D01*
X248539000Y-69850000D02*
X248539000Y-69850000D01*
X245237000Y-69850000D02*
X231140000Y-69850000D01*
X231140000Y-69850000D02*
X229362000Y-68072000D01*
X229362000Y-68072000D02*
X229362000Y-68072000D01*
%TO.N,Net-(D67-Pad2)*%
X275494750Y-81565750D02*
X287556750Y-81565750D01*
%TO.N,Net-(D68-Pad2)*%
X275494750Y-100615750D02*
X287556750Y-100615750D01*
%TO.N,Net-(D69-Pad2)*%
X275494750Y-119665750D02*
X287556750Y-119665750D01*
%TO.N,Net-(D70-Pad2)*%
X275494750Y-138715750D02*
X287556750Y-138715750D01*
%TO.N,Net-(J1-PadB5)*%
X100961250Y-52581750D02*
X100965000Y-52585500D01*
X100961250Y-52527250D02*
X100961250Y-52581750D01*
X100965000Y-52585500D02*
X100965000Y-54737000D01*
X100965000Y-54737000D02*
X100965000Y-54737000D01*
%TO.N,Net-(J1-PadA7)*%
X102000397Y-55912011D02*
X92615011Y-55912011D01*
X102461250Y-55451158D02*
X102000397Y-55912011D01*
X92615011Y-55912011D02*
X89916000Y-53213000D01*
X89916000Y-53213000D02*
X89916000Y-53213000D01*
X81280000Y-54229000D02*
X80585249Y-54923751D01*
X80585249Y-54923751D02*
X79375000Y-56134000D01*
X79375000Y-56134000D02*
X79375000Y-56134000D01*
X103326752Y-53621750D02*
X102461250Y-53621750D01*
X103461250Y-53487252D02*
X103326752Y-53621750D01*
X103461250Y-52527250D02*
X103461250Y-53487252D01*
X102461250Y-53621750D02*
X102461250Y-55451158D01*
X102461250Y-52527250D02*
X102461250Y-53621750D01*
%TO.N,Net-(J1-PadA6)*%
X101961250Y-55314748D02*
X101813997Y-55462001D01*
X101813997Y-55462001D02*
X93689001Y-55462001D01*
X101961250Y-52527250D02*
X101961250Y-55314748D01*
X93689001Y-55462001D02*
X90551000Y-52324000D01*
X90551000Y-52324000D02*
X90551000Y-52324000D01*
X80391000Y-53594000D02*
X78359000Y-55626000D01*
X78359000Y-55626000D02*
X78359000Y-55626000D01*
X102051249Y-51477249D02*
X101961250Y-51567248D01*
X101961250Y-51567248D02*
X101961250Y-52527250D01*
X102871251Y-51477249D02*
X102051249Y-51477249D01*
X102961250Y-51567248D02*
X102871251Y-51477249D01*
X102961250Y-52527250D02*
X102961250Y-51567248D01*
%TO.N,Net-(J1-PadA5)*%
X103961250Y-52527250D02*
X103961250Y-54788750D01*
X103961250Y-54788750D02*
X103961250Y-54788750D01*
%TO.N,Net-(J2-PadR)*%
X113102250Y-53486252D02*
X113102250Y-52700750D01*
X105695240Y-60893262D02*
X113102250Y-53486252D01*
X104711249Y-64579751D02*
X105695240Y-63595760D01*
X101860247Y-64579751D02*
X104711249Y-64579751D01*
X105695240Y-63595760D02*
X105695240Y-60893262D01*
X92271998Y-74168000D02*
X101860247Y-64579751D01*
X90170000Y-74168000D02*
X92271998Y-74168000D01*
%TO.N,Net-(J3-PadR)*%
X165921751Y-49475751D02*
X164646750Y-48200750D01*
X165921751Y-60431059D02*
X165921751Y-49475751D01*
X165519810Y-60833000D02*
X165921751Y-60431059D01*
%TO.N,Net-(J3-PadT)*%
X185293000Y-67564000D02*
X180975000Y-67564000D01*
X180975000Y-67564000D02*
X180975000Y-67564000D01*
X195954250Y-65157750D02*
X191135000Y-69977000D01*
X191135000Y-71501000D02*
X191039000Y-71597000D01*
X191135000Y-69977000D02*
X191135000Y-71501000D01*
%TO.N,Net-(R1-Pad2)*%
X88868250Y-50378750D02*
X88868250Y-53244750D01*
X88868250Y-53244750D02*
X83629500Y-58483500D01*
X83629500Y-58483500D02*
X83566000Y-58547000D01*
%TO.N,Net-(R5-Pad2)*%
X177673000Y-52211500D02*
X177727750Y-52156750D01*
X177673000Y-56388000D02*
X177673000Y-52211500D01*
%TO.N,/leftButtonSheet/row1*%
X101727000Y-65786000D02*
X101727000Y-67691000D01*
X101727000Y-67691000D02*
X101727000Y-68834000D01*
X101727000Y-68834000D02*
X101727000Y-68834000D01*
%TO.N,/leftButtonSheet/row3*%
X99635249Y-73427251D02*
X99635249Y-79188249D01*
X100818750Y-72243750D02*
X99635249Y-73427251D01*
X99635249Y-79188249D02*
X101727000Y-81280000D01*
X101727000Y-95758000D02*
X101060250Y-96424750D01*
X101727000Y-81280000D02*
X101727000Y-95758000D01*
%TO.N,/leftButtonSheet/row4*%
X88392000Y-95504000D02*
X88811991Y-95084009D01*
X88519000Y-67056000D02*
X88519000Y-67056000D01*
X88519000Y-67056000D02*
X91313000Y-67056000D01*
X91313000Y-67056000D02*
X91821000Y-67564000D01*
X91821000Y-67564000D02*
X91821000Y-72009000D01*
X88811991Y-73492599D02*
X88811991Y-95084009D01*
X90295590Y-72009000D02*
X88811991Y-73492599D01*
X91821000Y-72009000D02*
X90295590Y-72009000D01*
%TO.N,/leftButtonSheet/row5*%
X89662000Y-114554000D02*
X89262001Y-114154001D01*
X92583000Y-68072000D02*
X92583000Y-68072000D01*
X92583000Y-68072000D02*
X92583000Y-73025000D01*
X89262001Y-73678999D02*
X89262001Y-114154001D01*
X89916000Y-73025000D02*
X89262001Y-73678999D01*
X92583000Y-73025000D02*
X89916000Y-73025000D01*
%TO.N,/rightButtonSheet/row1*%
X183673750Y-56419750D02*
X181768750Y-58324750D01*
X200818750Y-56419750D02*
X183673750Y-56419750D01*
%TO.N,/rightButtonSheet/row3*%
X196195750Y-72955752D02*
X198501000Y-75261002D01*
X196195750Y-69957750D02*
X196195750Y-72955752D01*
X198501000Y-75261002D02*
X198501000Y-76708000D01*
X198501000Y-76708000D02*
X198501000Y-76708000D01*
%TO.N,/rightButtonSheet/row4*%
X184785000Y-96393000D02*
X184785000Y-92964000D01*
X185674000Y-70993000D02*
X185674000Y-77851000D01*
X185674000Y-77851000D02*
X184531000Y-78994000D01*
X184531000Y-78994000D02*
X184531000Y-78994000D01*
X184785000Y-91313000D02*
X184785000Y-92964000D01*
%TO.N,/rightButtonSheet/row5*%
X191516000Y-114681000D02*
X191516000Y-107442000D01*
X191516000Y-107442000D02*
X191516000Y-107442000D01*
X188613999Y-70884999D02*
X188613999Y-91204999D01*
X188214000Y-70485000D02*
X188613999Y-70884999D01*
X188613999Y-91204999D02*
X189230000Y-91821000D01*
X189230000Y-91821000D02*
X189230000Y-91821000D01*
X191516000Y-91821000D02*
X191516000Y-107442000D01*
%TO.N,Net-(C10-Pad2)*%
X179705000Y-71120000D02*
X179705000Y-72644000D01*
X179705000Y-72644000D02*
X181102000Y-74041000D01*
X181102000Y-74041000D02*
X181102000Y-74041000D01*
X206248000Y-52070000D02*
X206375000Y-51943000D01*
X206248000Y-55118000D02*
X206248000Y-52070000D01*
X187325000Y-69342000D02*
X189103000Y-69342000D01*
X189103000Y-69342000D02*
X189230000Y-69469000D01*
X189230000Y-69469000D02*
X189230000Y-69469000D01*
X192151000Y-70231000D02*
X192151000Y-76200000D01*
X192151000Y-76200000D02*
X192151000Y-76200000D01*
X155448000Y-50419000D02*
X155321000Y-50546000D01*
X158877000Y-50419000D02*
X155448000Y-50419000D01*
%TD*%
M02*
