M48
; DRILL file {KiCad (5.1.10)-1} date 08/09/21 17:58:52
; FORMAT={-:-/ absolute / inch / decimal}
; #@! TF.CreationDate,2021-08-09T17:58:52+02:00
; #@! TF.GenerationSoftware,Kicad,Pcbnew,(5.1.10)-1
; #@! TF.FileFunction,NonPlated,1,2,NPTH
FMAT,2
INCH
T1C0.0256
T2C0.0394
T3C0.0669
T4C0.1575
%
G90
G05
T1
X3.93Y-2.0111
X4.1575Y-2.0111
T2
X4.6103Y-1.8878
X4.6103Y-2.0847
X6.3247Y-1.8878
X6.3247Y-2.0847
T3
X-0.2612Y-2.5612
X-0.2612Y-3.3112
X-0.2612Y-4.0613
X-0.2612Y-4.8113
X-0.2612Y-5.5613
X0.1387Y-2.5612
X0.1387Y-3.3112
X0.1387Y-4.0613
X0.1387Y-4.8113
X0.1387Y-5.5613
X0.6787Y-2.5612
X0.6787Y-3.3112
X0.6787Y-4.0613
X0.6787Y-4.8113
X0.6787Y-5.5613
X1.0787Y-2.5612
X1.0787Y-3.3112
X1.0787Y-4.0613
X1.0787Y-4.8113
X1.0787Y-5.5613
X1.4287Y-2.4213
X1.4287Y-3.1713
X1.4287Y-3.9213
X1.4287Y-4.6712
X1.4287Y-5.4212
X1.8287Y-2.4213
X1.8287Y-3.1713
X1.8287Y-3.9213
X1.8287Y-4.6712
X1.8287Y-5.4212
X2.1787Y-2.3062
X2.1787Y-3.0562
X2.1787Y-3.8062
X2.1787Y-4.5562
X2.1787Y-5.3062
X2.5787Y-2.3062
X2.5787Y-3.0562
X2.5787Y-3.8062
X2.5787Y-4.5562
X2.5787Y-5.3062
X2.9287Y-2.4213
X2.9287Y-3.1713
X2.9287Y-3.9213
X2.9287Y-4.6712
X2.9287Y-5.4212
X3.3287Y-2.4213
X3.3287Y-3.1713
X3.3287Y-3.9213
X3.3287Y-4.6712
X3.3287Y-5.4212
X3.6787Y-3.2462
X3.6787Y-3.9962
X3.6787Y-4.7462
X3.679Y-2.496
X3.8455Y-5.5362
X4.0788Y-3.2462
X4.0788Y-3.9962
X4.0788Y-4.7462
X4.079Y-2.496
X4.192Y-5.7363
X4.4287Y-2.5612
X4.4287Y-3.3112
X4.4287Y-4.0613
X4.4287Y-4.8113
X4.5452Y-6.0055
X4.828Y-6.2884
X4.8288Y-2.5612
X4.8288Y-3.3112
X4.8288Y-4.0613
X4.8288Y-4.8113
X6.1048Y-6.2877
X6.1063Y-2.5612
X6.1063Y-3.3112
X6.1063Y-4.0613
X6.1063Y-4.8113
X6.3877Y-6.0048
X6.5062Y-2.5612
X6.5062Y-3.3112
X6.5062Y-4.0613
X6.5062Y-4.8113
X6.743Y-5.7345
X6.856Y-2.496
X6.8563Y-3.2462
X6.8563Y-3.9962
X6.8563Y-4.7462
X7.0895Y-5.5345
X7.256Y-2.496
X7.2562Y-3.2462
X7.2562Y-3.9962
X7.2562Y-4.7462
X7.6063Y-2.4213
X7.6063Y-3.1713
X7.6063Y-3.9213
X7.6063Y-4.6712
X7.6063Y-5.4212
X8.0062Y-2.4213
X8.0062Y-3.1713
X8.0062Y-3.9213
X8.0062Y-4.6712
X8.0062Y-5.4212
X8.3562Y-2.3062
X8.3562Y-3.0562
X8.3562Y-3.8062
X8.3562Y-4.5562
X8.3562Y-5.3062
X8.7562Y-2.3062
X8.7562Y-3.0562
X8.7562Y-3.8062
X8.7562Y-4.5562
X8.7562Y-5.3062
X9.1062Y-2.4213
X9.1062Y-3.1713
X9.1062Y-3.9213
X9.1062Y-4.6712
X9.1062Y-5.4212
X9.5062Y-2.4213
X9.5062Y-3.1713
X9.5062Y-3.9213
X9.5062Y-4.6712
X9.5062Y-5.4212
X9.8562Y-2.5612
X9.8562Y-3.3112
X9.8562Y-4.0613
X9.8562Y-4.8113
X9.8562Y-5.5613
X10.2562Y-2.5612
X10.2562Y-3.3112
X10.2562Y-4.0613
X10.2562Y-4.8113
X10.2562Y-5.5613
X10.7963Y-2.5612
X10.7963Y-3.3112
X10.7963Y-4.0613
X10.7963Y-4.8113
X10.7963Y-5.5613
X11.1962Y-2.5612
X11.1962Y-3.3112
X11.1962Y-4.0613
X11.1962Y-4.8113
X11.1962Y-5.5613
T4
X-0.0612Y-2.5612
X-0.0612Y-3.3112
X-0.0612Y-4.0613
X-0.0612Y-4.8113
X-0.0612Y-5.5613
X0.8788Y-2.5612
X0.8788Y-3.3112
X0.8788Y-4.0613
X0.8788Y-4.8113
X0.8788Y-5.5613
X1.6287Y-2.4213
X1.6287Y-3.1713
X1.6287Y-3.9213
X1.6287Y-4.6712
X1.6287Y-5.4212
X2.3788Y-2.3062
X2.3788Y-3.0562
X2.3788Y-3.8062
X2.3788Y-4.5562
X2.3788Y-5.3062
X3.1288Y-2.4213
X3.1288Y-3.1713
X3.1288Y-3.9213
X3.1288Y-4.6712
X3.1288Y-5.4212
X3.8787Y-3.2462
X3.8787Y-3.9962
X3.8787Y-4.7462
X3.879Y-2.496
X4.0187Y-5.6362
X4.6288Y-2.5612
X4.6288Y-3.3112
X4.6288Y-4.0613
X4.6288Y-4.8113
X4.6866Y-6.147
X6.2462Y-6.1463
X6.3062Y-2.5612
X6.3062Y-3.3112
X6.3062Y-4.0613
X6.3062Y-4.8113
X6.9162Y-5.6345
X7.056Y-2.496
X7.0562Y-3.2462
X7.0562Y-3.9962
X7.0562Y-4.7462
X7.8062Y-2.4213
X7.8062Y-3.1713
X7.8062Y-3.9213
X7.8062Y-4.6712
X7.8062Y-5.4212
X8.5563Y-2.3062
X8.5563Y-3.0562
X8.5563Y-3.8062
X8.5563Y-4.5562
X8.5563Y-5.3062
X9.3063Y-2.4213
X9.3063Y-3.1713
X9.3063Y-3.9213
X9.3063Y-4.6712
X9.3063Y-5.4212
X10.0563Y-2.5612
X10.0563Y-3.3112
X10.0563Y-4.0613
X10.0563Y-4.8113
X10.0563Y-5.5613
X10.9962Y-2.5612
X10.9962Y-3.3112
X10.9962Y-4.0613
X10.9962Y-4.8113
X10.9962Y-5.5613
T0
M30
