M48
; DRILL file {KiCad (5.1.10)-1} date 08/08/21 19:30:50
; FORMAT={-:-/ absolute / inch / decimal}
; #@! TF.CreationDate,2021-08-08T19:30:50+02:00
; #@! TF.GenerationSoftware,Kicad,Pcbnew,(5.1.10)-1
; #@! TF.FileFunction,Plated,1,2,PTH
FMAT,2
INCH
T1C0.0157
T2C0.0236
T3C0.0433
T4C0.0472
T5C0.0591
%
G90
G05
T1
X0.41Y-2.87
X0.505Y-2.87
X1.155Y-2.81
X1.155Y-2.87
X1.24Y-2.81
X1.24Y-2.87
X1.915Y-2.67
X1.915Y-2.76
X1.915Y-2.8
X1.98Y-2.67
X1.985Y-2.73
X1.99Y-2.8
X2.04Y-3.165
X2.65Y-2.67
X2.65Y-2.71
X2.65Y-2.755
X2.73Y-2.755
X2.81Y-2.79
X2.915Y-2.82
X3.085Y-2.19
X3.125Y-2.21
X3.13Y-2.555
X3.13Y-2.6698
X3.165Y-2.11
X3.2Y-2.135
X3.25Y-2.505
X3.25Y-3.07
X3.2925Y-2.3025
X3.3Y-2.25
X3.32Y-2.17
X3.325Y-3.005
X3.465Y-2.89
X3.475Y-2.82
X3.4765Y-2.7085
X3.48Y-2.76
X3.48Y-3.76
X3.485Y-2.64
X3.53Y-4.51
X3.54Y-2.095
X3.55Y-2.92
X3.55Y-3.295
X3.565Y-2.06
X3.565Y-2.61
X3.645Y-2.68
X3.7737Y-2.4587
X3.78Y-2.625
X3.865Y-3.06
X3.865Y-3.12
X3.91Y-2.71
X3.9586Y-2.7536
X3.9692Y-2.8442
X3.975Y-2.155
X4.005Y-2.59
X4.005Y-2.71
X4.03Y-3.155
X4.0738Y-2.6238
X4.0738Y-2.7088
X4.093Y-2.157
X4.095Y-3.07
X4.1932Y-2.3232
X6.115Y-1.99
X6.255Y-1.985
X6.5165Y-2.395
X6.995Y-2.22
X7.075Y-2.8
X7.125Y-2.66
X7.13Y-2.915
X7.265Y-3.11
X7.275Y-3.595
X7.275Y-3.795
X7.295Y-2.66
X7.31Y-2.795
X7.375Y-2.73
X7.41Y-2.775
X7.44Y-2.69
X7.45Y-2.735
X7.45Y-3.615
X7.4864Y-2.5836
X7.5212Y-2.8188
X7.54Y-3.615
X7.54Y-4.23
X7.54Y-4.515
X7.565Y-2.765
X7.565Y-3.0
X7.57Y-2.52
X7.59Y-2.26
X7.7147Y-2.5653
X7.72Y-2.64
X7.7242Y-2.7542
X7.76Y-2.61
X7.815Y-3.02
X8.12Y-2.17
X8.125Y-2.045
X8.185Y-2.58
X8.195Y-2.52
X8.205Y-2.64
X8.695Y-2.58
X8.905Y-2.525
X8.91Y-2.59
X8.915Y-2.68
X9.03Y-2.525
X9.03Y-2.59
X9.03Y-2.68
X9.655Y-2.685
X9.655Y-2.75
X9.785Y-2.685
X9.785Y-2.75
X10.4375Y-2.7275
X10.5525Y-2.7275
T3
X3.4987Y-1.8062
X3.4987Y-1.9834
X3.7547Y-1.8062
X3.7547Y-1.9834
X6.7412Y-1.8762
X6.7412Y-2.0534
X6.9972Y-1.8762
X6.9972Y-2.0534
T4
X4.4528Y-1.8977
X4.4528Y-2.0748
X4.7481Y-1.8721
X4.7481Y-2.1004
X6.1869Y-1.8721
X6.1869Y-2.1004
X6.4822Y-1.8977
X6.4822Y-2.0748
T5
X-0.2112Y-2.4613
X-0.2112Y-3.2112
X-0.2112Y-3.9612
X-0.2112Y-4.7112
X-0.2112Y-5.4612
X0.0387Y-2.3613
X0.0387Y-3.1113
X0.0387Y-3.8613
X0.0387Y-4.6113
X0.0387Y-5.3613
X0.7288Y-2.4613
X0.7288Y-3.2112
X0.7288Y-3.9612
X0.7288Y-4.7112
X0.7288Y-5.4612
X0.9788Y-2.3613
X0.9788Y-3.1113
X0.9788Y-3.8613
X0.9788Y-4.6113
X0.9788Y-5.3613
X1.4788Y-2.3213
X1.4788Y-3.0713
X1.4788Y-3.8213
X1.4788Y-4.5713
X1.4788Y-5.3213
X1.7288Y-2.2212
X1.7288Y-2.9712
X1.7288Y-3.7212
X1.7288Y-4.4712
X1.7288Y-5.2212
X2.2287Y-2.2062
X2.2287Y-2.9562
X2.2287Y-3.7062
X2.2287Y-4.4562
X2.2287Y-5.2062
X2.4787Y-2.1062
X2.4787Y-2.8562
X2.4787Y-3.6062
X2.4787Y-4.3563
X2.4787Y-5.1063
X2.9787Y-2.3213
X2.9787Y-3.0713
X2.9787Y-3.8213
X2.9787Y-4.5713
X2.9787Y-5.3213
X3.2287Y-2.2212
X3.2287Y-2.9712
X3.2287Y-3.7212
X3.2287Y-4.4712
X3.2287Y-5.2212
X3.7287Y-2.3962
X3.7287Y-3.1462
X3.7287Y-3.8962
X3.7287Y-4.6463
X3.9388Y-5.4746
X3.9787Y-2.2963
X3.9787Y-3.0463
X3.9787Y-3.7963
X3.9787Y-4.5462
X4.2054Y-5.513
X4.4787Y-2.4613
X4.4787Y-3.2112
X4.4787Y-3.9612
X4.4787Y-4.7112
X4.6513Y-5.9702
X4.7287Y-2.3613
X4.7287Y-3.1113
X4.7287Y-3.8613
X4.7287Y-4.6113
X4.8987Y-6.0762
X6.0695Y-6.1816
X6.1562Y-2.4613
X6.1562Y-3.2112
X6.1562Y-3.9612
X6.1562Y-4.7112
X6.1755Y-5.9341
X6.4062Y-2.3613
X6.4062Y-3.1113
X6.4062Y-3.8613
X6.4062Y-4.6113
X6.7363Y-5.6229
X6.9029Y-5.4112
X6.9062Y-2.3962
X6.9062Y-3.1462
X6.9062Y-3.8962
X6.9062Y-4.6463
X7.1562Y-2.2963
X7.1562Y-3.0463
X7.1562Y-3.7963
X7.1562Y-4.5462
X7.6562Y-2.3213
X7.6562Y-3.0713
X7.6562Y-3.8213
X7.6562Y-4.5713
X7.6562Y-5.3213
X7.9062Y-2.2212
X7.9062Y-2.9712
X7.9062Y-3.7212
X7.9062Y-4.4712
X7.9062Y-5.2212
X8.4062Y-2.2062
X8.4062Y-2.9562
X8.4062Y-3.7062
X8.4062Y-4.4562
X8.4062Y-5.2062
X8.6562Y-2.1062
X8.6562Y-2.8562
X8.6562Y-3.6062
X8.6562Y-4.3563
X8.6562Y-5.1063
X9.1562Y-2.3213
X9.1562Y-3.0713
X9.1562Y-3.8213
X9.1562Y-4.5713
X9.1562Y-5.3213
X9.4062Y-2.2212
X9.4062Y-2.9712
X9.4062Y-3.7212
X9.4062Y-4.4712
X9.4062Y-5.2212
X9.9062Y-2.4613
X9.9062Y-3.2112
X9.9062Y-3.9612
X9.9062Y-4.7112
X9.9062Y-5.4612
X10.1562Y-2.3613
X10.1562Y-3.1113
X10.1562Y-3.8613
X10.1562Y-4.6113
X10.1562Y-5.3613
X10.8462Y-2.4613
X10.8462Y-3.2112
X10.8462Y-3.9612
X10.8462Y-4.7112
X10.8462Y-5.4612
X11.0962Y-2.3613
X11.0962Y-3.1113
X11.0962Y-3.8613
X11.0962Y-4.6113
X11.0962Y-5.3613
T2
G00X3.8737Y-1.8792
M15
G01X3.8737Y-1.8556
M16
G05
G00X3.8737Y-2.0536
M15
G01X3.8737Y-2.0103
M16
G05
G00X4.2138Y-1.8792
M15
G01X4.2138Y-1.8556
M16
G05
G00X4.2138Y-2.0536
M15
G01X4.2138Y-2.0103
M16
G05
T0
M30
