M48
; DRILL file {KiCad (5.1.10)-1} date 08/09/21 17:58:52
; FORMAT={-:-/ absolute / inch / decimal}
; #@! TF.CreationDate,2021-08-09T17:58:52+02:00
; #@! TF.GenerationSoftware,Kicad,Pcbnew,(5.1.10)-1
; #@! TF.FileFunction,Plated,1,2,PTH
FMAT,2
INCH
T1C0.0157
T2C0.0236
T3C0.0433
T4C0.0472
T5C0.0591
T6C0.1575
%
G90
G05
T1
X0.41Y-3.42
X0.5Y-3.42
X1.16Y-3.41
X1.16Y-3.46
X1.25Y-3.46
X1.255Y-3.41
X1.8972Y-3.2628
X1.9025Y-3.3225
X1.905Y-3.39
X1.9825Y-3.3225
X1.9828Y-3.2628
X1.985Y-3.39
X2.655Y-3.205
X2.655Y-3.26
X2.66Y-3.155
X2.665Y-2.92
X2.73Y-3.155
X2.73Y-3.205
X2.73Y-3.26
X2.745Y-2.92
X2.795Y-2.175
X2.8Y-2.05
X2.88Y-3.42
X2.98Y-3.375
X2.9987Y-3.7212
X3.1Y-3.43
X3.145Y-3.395
X3.1613Y-3.3513
X3.19Y-3.315
X3.2063Y-3.4663
X3.2176Y-3.55
X3.24Y-3.305
X3.25Y-4.0
X3.2809Y-3.2659
X3.305Y-3.75
X3.35Y-3.85
X3.37Y-3.49
X3.38Y-3.015
X3.39Y-3.09
X3.405Y-3.65
X3.415Y-3.05
X3.435Y-3.555
X3.475Y-3.385
X3.485Y-3.45
X3.49Y-3.05
X3.51Y-3.52
X3.5215Y-3.5865
X3.525Y-3.43
X3.5387Y-2.9712
X3.565Y-3.235
X3.625Y-3.675
X3.6287Y-5.2212
X3.665Y-3.59
X3.755Y-3.225
X3.765Y-3.36
X3.89Y-2.18
X3.945Y-2.795
X3.9473Y-2.1645
X3.9749Y-2.0001
X4.015Y-2.19
X4.075Y-2.195
X4.093Y-2.002
X4.18Y-2.345
X4.1986Y-3.3414
X4.31Y-2.13
X4.41Y-2.225
X6.685Y-3.345
X6.8097Y-3.1297
X6.82Y-3.68
X6.925Y-3.315
X6.9587Y-3.4463
X7.04Y-3.675
X7.04Y-3.84
X7.25Y-3.545
X7.27Y-2.17
X7.27Y-2.29
X7.27Y-3.765
X7.3Y-4.51
X7.315Y-3.485
X7.335Y-3.055
X7.38Y-3.37
X7.425Y-3.055
X7.43Y-3.61
X7.445Y-3.54
X7.45Y-3.35
X7.45Y-3.425
X7.455Y-3.005
X7.485Y-3.075
X7.52Y-3.005
X7.525Y-3.485
X7.53Y-3.3709
X7.5375Y-3.2125
X7.63Y-3.58
X7.635Y-3.3
X7.64Y-3.255
X7.675Y-3.22
X7.7278Y-3.72
X8.01Y-3.6
X8.1725Y-3.1875
X8.18Y-3.24
X8.19Y-3.34
X8.195Y-3.3
X8.285Y-3.24
X9.57Y-3.25
X9.7728Y-3.4028
X11.36Y-3.325
T3
X3.4987Y-1.8062
X3.4987Y-1.9834
X3.7547Y-1.8062
X3.7547Y-1.9834
X6.7412Y-1.8762
X6.7412Y-2.0534
X6.9972Y-1.8762
X6.9972Y-2.0534
T4
X4.4528Y-1.8977
X4.4528Y-2.0748
X4.7481Y-1.8721
X4.7481Y-2.1004
X6.1869Y-1.8721
X6.1869Y-2.1004
X6.4822Y-1.8977
X6.4822Y-2.0748
T5
X-0.2112Y-2.4613
X-0.2112Y-3.2112
X-0.2112Y-3.9612
X-0.2112Y-4.7112
X-0.2112Y-5.4612
X0.0387Y-2.3613
X0.0387Y-3.1113
X0.0387Y-3.8613
X0.0387Y-4.6113
X0.0387Y-5.3613
X0.7288Y-2.4613
X0.7288Y-3.2112
X0.7288Y-3.9612
X0.7288Y-4.7112
X0.7288Y-5.4612
X0.9788Y-2.3613
X0.9788Y-3.1113
X0.9788Y-3.8613
X0.9788Y-4.6113
X0.9788Y-5.3613
X1.4788Y-2.3213
X1.4788Y-3.0713
X1.4788Y-3.8213
X1.4788Y-4.5713
X1.4788Y-5.3213
X1.7288Y-2.2212
X1.7288Y-2.9712
X1.7288Y-3.7212
X1.7288Y-4.4712
X1.7288Y-5.2212
X2.2287Y-2.2062
X2.2287Y-2.9562
X2.2287Y-3.7062
X2.2287Y-4.4562
X2.2287Y-5.2062
X2.4787Y-2.1062
X2.4787Y-2.8562
X2.4787Y-3.6062
X2.4787Y-4.3563
X2.4787Y-5.1063
X2.9787Y-2.3213
X2.9787Y-3.0713
X2.9787Y-3.8213
X2.9787Y-4.5713
X2.9787Y-5.3213
X3.2287Y-2.2212
X3.2287Y-2.9712
X3.2287Y-3.7212
X3.2287Y-4.4712
X3.2287Y-5.2212
X3.7287Y-3.1462
X3.7287Y-3.8962
X3.7287Y-4.6463
X3.729Y-2.396
X3.9388Y-5.4746
X3.9787Y-3.0463
X3.9787Y-3.7963
X3.9787Y-4.5462
X3.979Y-2.296
X4.2054Y-5.513
X4.4787Y-2.4613
X4.4787Y-3.2112
X4.4787Y-3.9612
X4.4787Y-4.7112
X4.6513Y-5.9702
X4.7287Y-2.3613
X4.7287Y-3.1113
X4.7287Y-3.8613
X4.7287Y-4.6113
X4.8987Y-6.0762
X6.0695Y-6.1816
X6.1562Y-2.4613
X6.1562Y-3.2112
X6.1562Y-3.9612
X6.1562Y-4.7112
X6.1755Y-5.9341
X6.4062Y-2.3613
X6.4062Y-3.1113
X6.4062Y-3.8613
X6.4062Y-4.6113
X6.7363Y-5.6229
X6.9029Y-5.4112
X6.906Y-2.396
X6.9062Y-3.1462
X6.9062Y-3.8962
X6.9062Y-4.6463
X7.156Y-2.296
X7.1562Y-3.0463
X7.1562Y-3.7963
X7.1562Y-4.5462
X7.6562Y-2.3213
X7.6562Y-3.0713
X7.6562Y-3.8213
X7.6562Y-4.5713
X7.6562Y-5.3213
X7.9062Y-2.2212
X7.9062Y-2.9712
X7.9062Y-3.7212
X7.9062Y-4.4712
X7.9062Y-5.2212
X8.4062Y-2.2062
X8.4062Y-2.9562
X8.4062Y-3.7062
X8.4062Y-4.4562
X8.4062Y-5.2062
X8.6562Y-2.1062
X8.6562Y-2.8562
X8.6562Y-3.6062
X8.6562Y-4.3563
X8.6562Y-5.1063
X9.1562Y-2.3213
X9.1562Y-3.0713
X9.1562Y-3.8213
X9.1562Y-4.5713
X9.1562Y-5.3213
X9.4062Y-2.2212
X9.4062Y-2.9712
X9.4062Y-3.7212
X9.4062Y-4.4712
X9.4062Y-5.2212
X9.9062Y-2.4613
X9.9062Y-3.2112
X9.9062Y-3.9612
X9.9062Y-4.7112
X9.9062Y-5.4612
X10.1562Y-2.3613
X10.1562Y-3.1113
X10.1562Y-3.8613
X10.1562Y-4.6113
X10.1562Y-5.3613
X10.8462Y-2.4613
X10.8462Y-3.2112
X10.8462Y-3.9612
X10.8462Y-4.7112
X10.8462Y-5.4612
X11.0962Y-2.3613
X11.0962Y-3.1113
X11.0962Y-3.8613
X11.0962Y-4.6113
X11.0962Y-5.3613
T6
X-0.5Y-2.3125
X-0.5Y-5.8187
X4.6875Y-6.5687
X4.9062Y-2.2812
X4.9062Y-5.3187
X6.0312Y-2.2563
X6.0312Y-5.3187
X6.25Y-6.5687
X11.4375Y-2.3188
X11.4375Y-5.8187
T2
G00X3.8737Y-1.8792
M15
G01X3.8737Y-1.8556
M16
G05
G00X3.8737Y-2.0536
M15
G01X3.8737Y-2.0103
M16
G05
G00X4.2138Y-1.8792
M15
G01X4.2138Y-1.8556
M16
G05
G00X4.2138Y-2.0536
M15
G01X4.2138Y-2.0103
M16
G05
T0
M30
